M48
;Layer_Color=9474304
;FILE_FORMAT=4:4
METRIC,LZ
;TYPE=PLATED
T01F00S00C0.3000
T02F00S00C1.0200
T03F00S00C1.1000
T04F00S00C1.1000
T05F00S00C1.5000
T06F00S00C1.6000
T07F00S00C2.5000
%
T01
X00272801Y000085
X00292801
X00312801
X00332801
X00342801Y000285
X00322801
X00321701Y0004
X00331701
Y0005
X00321701
Y0006
X00331701
X00342801Y000685
X00362Y00073
X00357Y0008
X00351Y00086
X00345Y00092
X00339Y00098
X00391174Y00101752
X00392Y000685
X00382801
X00418626Y00079974
X00426Y00101752
X00412801Y000485
X00352801
X00311701Y0005
X00301701
Y0006
X00311701
X00291701
Y0005
Y0004
X00301701
X00311701
X00302801Y000285
X00282801
X00281701Y0004
Y0005
Y0006
X00271701
Y0005
Y0004
X00358626Y-00000026
X00252801Y000085
X00232801
X00212801
X00192801
X00178626Y-00000026
X00152801Y000085
X00172801Y000485
X00192801
X00202801Y000685
X00222801
X00221701Y0006
Y0005
Y0004
X00222801Y000285
X00242801
X00241701Y0004
Y0005
Y0006
X00242801Y000685
X00251701Y00073299
X00261701Y0006
Y0005
Y0004
X00262801Y000285
X00202801
X00162801Y000685
X00158626Y00079974
X00146Y0008
Y00088
Y00072
X00117Y00072
X00112801Y000885
X00119094Y00091754
X00108626Y00099974
X00112801Y000485
X00172801Y000885
X00166Y00096
Y00104
Y00112
X00148Y00114
Y00122
Y0013
X00161Y00138754
Y00146754
Y00154754
X00167Y00166057
X00154Y00177
X00144Y00184
X00138Y00191
X00132Y00197
X00126Y00203
X0012Y0021
X00114Y00216
X00108Y00223
X00092801Y002085
X000728
X00082801Y002285
X00078626Y00239974
X000628Y002285
X00059029Y00276
X00058992Y00284
X00057Y00292
X00077Y00282
X00088Y00276
X00102801Y002685
X00112801Y002485
X00142801Y002685
X00132801Y002885
X00077Y00302
X00078626Y00319974
X000428Y00308501
X00032801Y00328501
X000428Y00348501
X00058626Y00359974
X000728Y00368501
X000628Y00388501
X000528Y00408501
X00032801
Y00448501
X000528
X00058626Y00479974
X000728Y00488501
X00092801
X00112801
X00122801Y00468501
X00102801
X00132801Y00448501
X00148626Y00459974
X00158626Y00399974
X00168Y003703
Y0036265
Y00355
X001833
Y0036265
Y003703
X001986
Y0036265
Y00355
X002139
Y0036265
Y003703
X002292
Y0036265
Y00355
X002Y00331
X00122801Y00348501
X00118626Y00359974
X00102801Y00348501
X000428Y002685
X00118814Y00136754
Y00112413
X00143Y00158
X00172801Y001285
X00254643Y00237589
X00255Y0029
X00262801Y00428501
X00032801Y00488501
X00268626Y00419974
X00288626
X00282801Y00428501
X00302801
X00308626Y00419974
X00328626
X00322801Y00428501
X00342801
X00348626Y00419974
X00368626
X00362801Y00428501
X00382801
X00388626Y00419974
X00408626
X00402801Y00428501
X00422801
X00428626Y00419974
X00432801Y00408501
X00448626Y00419974
X00442801Y00428501
X00438626Y00439974
X00452801Y00448501
X00472801
X00492801
X00488626Y00459974
X00492801Y00488501
X00438626Y00479974
X00402801Y00468501
X00382801
X00378626Y00479974
X00392801Y00488501
X00402801Y00388501
X00412801Y00328501
X00432801
X00452801
X00462801Y00348501
X00482801
X00488626Y00339974
X00492801Y00328501
X00482801Y00308501
X00462801
X00462154Y00290588
X00472801Y002885
X00492801
X004394Y00290588
X004314
X004102
X004022
X00392801Y002885
X00372801
X00382801Y002685
X00348626Y00259974
X00365Y00224
X00374
X00383
X00392
X004Y00224
X00462801Y002285
X00468626Y00219974
X00452801Y002085
X00442801Y001885
X00416Y00131
X00417Y00116752
X00422Y00110252
X00382801Y001085
X00389Y00120252
Y00129
X00385Y00136752
X0038Y00143252
X00375Y0015
X0037Y00156748
X00365Y00163495
X00347956Y00177247
X00332Y0018869
X0032Y00196
X00303923Y00191
X00286Y00203
X00279Y00209
X00277575Y00196383
X00293Y00216
X002684Y00224
X00268626Y00259974
X00272801Y002885
X00292801
Y00328501
X00318626Y00319974
X00322801Y00308501
X00333Y00312
X00348626Y00339974
X00342801Y00348501
X00332801Y00408501
X00282801Y00388501
X00468626Y00419974
X00462801Y00428501
X00482801
X00488626Y00419974
X00492801Y00408501
Y00368501
X00478626Y00359974
X00448626Y00299974
X00422801Y00308501
X00334491Y00218
X00326Y00166
X0033Y00148
X00339754Y00154754
X00332801Y001285
X00338626Y00119974
X00321Y0014
X00372801Y001285
X00382801Y00508501
X00378626Y00519974
X00392801Y00528501
X00402801Y00548501
X00422801
X00442801
X00462801
X00482801
X00492801Y00568501
X00472801
X00452801
X00432801
X00412801
X00392801
X00372801
X00352801
X00332801
X00312801
X00292801
X00272801
X00382801Y00548501
X00402801Y00508501
X00422801
X00462801
X00458626Y00519974
X00452801Y00528501
X00492801
X00482801Y00508501
X00242801Y00548501
X00252801Y00568501
X00232801
X00212801
X00192801
X00172801
X00152801
X00132801
X00112801
X00092801
X000728
X000528
X00032801
X000428Y00548501
X000628
X00082801
X00102801
X00112801Y00528501
X00092801
X00102801Y00508501
X00082801
X000628
T02
X002Y000954
X002254
Y001208
X002
X0011387Y002955
Y003209
X00124Y003793
Y004047
X000714Y0047
X00046
X002686Y004
X00294
X003194
X003448
X003702
X003956
X00421
X004464
X004718
Y003746
X004464
X00421
X003956
X003702
X003448
X003194
X00294
X002686
X002684Y002727
X002938
X003192
X003446
X0037
X003954
X004208
X004462
X004716
Y002473
X004462
X004208
X003954
X0037
X003446
X003192
X002938
X002684
T03
X0016Y002546
Y0028
Y003054
X002
Y0028
Y002546
T04
X00046Y0053
X000714
T05
X0007Y00405
X0044645Y005055
T06
X000446Y003796
Y004304
X000954
Y003796
X001446Y004846
X001954
X002946
X003454
X0042105Y004801
X0047185
Y005309
X0042105
X003454Y005354
X002946
X001954
X001446
T07
X00387Y00041
X00146402
M30
