G04*
G04 #@! TF.GenerationSoftware,Altium Limited,Altium Designer,25.0.2 (28)*
G04*
G04 Layer_Color=255*
%FSLAX44Y44*%
%MOMM*%
G71*
G04*
G04 #@! TF.SameCoordinates,6A123C44-6EB7-423C-9969-B25F4FCB3D5A*
G04*
G04*
G04 #@! TF.FilePolarity,Positive*
G04*
G01*
G75*
%ADD10C,1.0000*%
%ADD11R,0.6000X0.6000*%
%ADD12R,0.3500X0.3500*%
%ADD13R,1.5250X0.6500*%
%ADD14R,0.6000X1.2000*%
%ADD15R,0.3500X0.3500*%
%ADD16R,1.4000X1.0000*%
%ADD17R,1.1500X0.3250*%
%ADD18R,0.3250X1.1500*%
%ADD19R,0.6400X0.6000*%
%ADD20R,1.0000X1.4000*%
%ADD21R,0.9000X1.0000*%
%ADD22R,1.0000X0.9000*%
%ADD23C,0.2500*%
%ADD31C,1.1520*%
G04:AMPARAMS|DCode=32|XSize=1.3mm|YSize=1mm|CornerRadius=0.25mm|HoleSize=0mm|Usage=FLASHONLY|Rotation=180.000|XOffset=0mm|YOffset=0mm|HoleType=Round|Shape=RoundedRectangle|*
%AMROUNDEDRECTD32*
21,1,1.3000,0.5000,0,0,180.0*
21,1,0.8000,1.0000,0,0,180.0*
1,1,0.5000,-0.4000,0.2500*
1,1,0.5000,0.4000,0.2500*
1,1,0.5000,0.4000,-0.2500*
1,1,0.5000,-0.4000,-0.2500*
%
%ADD32ROUNDEDRECTD32*%
D10*
X450000Y40000D02*
D03*
X430000Y545000D02*
D03*
X120000D02*
D03*
X100000Y40000D02*
D03*
D11*
X51390Y195160D02*
D03*
Y206160D02*
D03*
X115890Y109410D02*
D03*
Y120410D02*
D03*
X123890Y109410D02*
D03*
Y120410D02*
D03*
X53390Y139410D02*
D03*
Y150410D02*
D03*
Y124910D02*
D03*
Y135910D02*
D03*
X173890Y195160D02*
D03*
Y206160D02*
D03*
X238390Y109410D02*
D03*
Y120410D02*
D03*
X246390Y109410D02*
D03*
Y120410D02*
D03*
X175890Y139410D02*
D03*
Y150410D02*
D03*
Y124910D02*
D03*
Y135910D02*
D03*
X296390Y195160D02*
D03*
Y206160D02*
D03*
X360890Y109410D02*
D03*
Y120410D02*
D03*
X368890Y109410D02*
D03*
Y120410D02*
D03*
X298390Y139410D02*
D03*
Y150410D02*
D03*
Y124910D02*
D03*
Y135910D02*
D03*
X418890Y195160D02*
D03*
Y206160D02*
D03*
X483390Y109410D02*
D03*
Y120410D02*
D03*
X491390Y109410D02*
D03*
Y120410D02*
D03*
X420890Y139410D02*
D03*
Y150410D02*
D03*
Y124910D02*
D03*
Y135910D02*
D03*
X51390Y348660D02*
D03*
Y359660D02*
D03*
X115890Y262910D02*
D03*
Y273910D02*
D03*
X123890Y262910D02*
D03*
Y273910D02*
D03*
X53390Y292910D02*
D03*
Y303910D02*
D03*
Y278410D02*
D03*
Y289410D02*
D03*
X173890Y348660D02*
D03*
Y359660D02*
D03*
X238390Y262910D02*
D03*
Y273910D02*
D03*
X246390Y262910D02*
D03*
Y273910D02*
D03*
X175890Y292910D02*
D03*
Y303910D02*
D03*
Y278410D02*
D03*
Y289410D02*
D03*
X296390Y348660D02*
D03*
Y359660D02*
D03*
X360890Y262910D02*
D03*
Y273910D02*
D03*
X368890Y262910D02*
D03*
Y273910D02*
D03*
X298390Y292910D02*
D03*
Y303910D02*
D03*
Y278410D02*
D03*
Y289410D02*
D03*
X418890Y348660D02*
D03*
Y359660D02*
D03*
X483390Y262910D02*
D03*
Y273910D02*
D03*
X491390Y262910D02*
D03*
Y273910D02*
D03*
X420890Y292910D02*
D03*
Y303910D02*
D03*
Y278410D02*
D03*
Y289410D02*
D03*
X51390Y502160D02*
D03*
Y513160D02*
D03*
X115890Y416410D02*
D03*
Y427410D02*
D03*
X123890Y416410D02*
D03*
Y427410D02*
D03*
X53390Y446410D02*
D03*
Y457410D02*
D03*
Y431910D02*
D03*
Y442910D02*
D03*
X173890Y502160D02*
D03*
Y513160D02*
D03*
X238390Y416410D02*
D03*
Y427410D02*
D03*
X246390Y416410D02*
D03*
Y427410D02*
D03*
X175890Y446410D02*
D03*
Y457410D02*
D03*
Y431910D02*
D03*
Y442910D02*
D03*
X296390Y502160D02*
D03*
Y513160D02*
D03*
X360890Y416410D02*
D03*
Y427410D02*
D03*
X368890Y416410D02*
D03*
Y427410D02*
D03*
X298390Y446410D02*
D03*
Y457410D02*
D03*
Y431910D02*
D03*
Y442910D02*
D03*
X418890Y502160D02*
D03*
Y513160D02*
D03*
X483390Y416410D02*
D03*
Y427410D02*
D03*
X491390Y416410D02*
D03*
Y427410D02*
D03*
X420890Y446410D02*
D03*
Y457410D02*
D03*
Y431910D02*
D03*
Y442910D02*
D03*
D12*
X132140Y134910D02*
D03*
Y129410D02*
D03*
X102140Y177910D02*
D03*
Y183610D02*
D03*
X132107Y152693D02*
D03*
Y158392D02*
D03*
X132140Y87410D02*
D03*
Y93110D02*
D03*
X254640Y134910D02*
D03*
Y129410D02*
D03*
X224640Y177910D02*
D03*
Y183610D02*
D03*
X254607Y152693D02*
D03*
Y158392D02*
D03*
X254640Y87410D02*
D03*
Y93110D02*
D03*
X377140Y134910D02*
D03*
Y129410D02*
D03*
X347140Y177910D02*
D03*
Y183610D02*
D03*
X377107Y152693D02*
D03*
Y158392D02*
D03*
X377140Y87410D02*
D03*
Y93110D02*
D03*
X499640Y134910D02*
D03*
Y129410D02*
D03*
X469640Y177910D02*
D03*
Y183610D02*
D03*
X499607Y152693D02*
D03*
Y158392D02*
D03*
X499640Y87410D02*
D03*
Y93110D02*
D03*
X132140Y288410D02*
D03*
Y282910D02*
D03*
X102140Y331410D02*
D03*
Y337110D02*
D03*
X132107Y306192D02*
D03*
Y311893D02*
D03*
X132140Y240910D02*
D03*
Y246610D02*
D03*
X254640Y288410D02*
D03*
Y282910D02*
D03*
X224640Y331410D02*
D03*
Y337110D02*
D03*
X254607Y306192D02*
D03*
Y311893D02*
D03*
X254640Y240910D02*
D03*
Y246610D02*
D03*
X377140Y288410D02*
D03*
Y282910D02*
D03*
X347140Y331410D02*
D03*
Y337110D02*
D03*
X377107Y306192D02*
D03*
Y311893D02*
D03*
X377140Y240910D02*
D03*
Y246610D02*
D03*
X499640Y288410D02*
D03*
Y282910D02*
D03*
X469640Y331410D02*
D03*
Y337110D02*
D03*
X499607Y306192D02*
D03*
Y311893D02*
D03*
X499640Y240910D02*
D03*
Y246610D02*
D03*
X132140Y441910D02*
D03*
Y436410D02*
D03*
X102140Y484910D02*
D03*
Y490610D02*
D03*
X132107Y459692D02*
D03*
Y465392D02*
D03*
X132140Y394410D02*
D03*
Y400110D02*
D03*
X254640Y441910D02*
D03*
Y436410D02*
D03*
X224640Y484910D02*
D03*
Y490610D02*
D03*
X254607Y459692D02*
D03*
Y465392D02*
D03*
X254640Y394410D02*
D03*
Y400110D02*
D03*
X377140Y441910D02*
D03*
Y436410D02*
D03*
X347140Y484910D02*
D03*
Y490610D02*
D03*
X377107Y459692D02*
D03*
Y465392D02*
D03*
X377140Y394410D02*
D03*
Y400110D02*
D03*
X499640Y441910D02*
D03*
Y436410D02*
D03*
X469640Y484910D02*
D03*
Y490610D02*
D03*
X499607Y459692D02*
D03*
Y465392D02*
D03*
X499640Y394410D02*
D03*
Y400110D02*
D03*
D13*
X67020Y128360D02*
D03*
Y141060D02*
D03*
Y153760D02*
D03*
Y166460D02*
D03*
X121260Y128360D02*
D03*
Y141060D02*
D03*
Y166460D02*
D03*
Y153760D02*
D03*
X189520Y128360D02*
D03*
Y141060D02*
D03*
Y153760D02*
D03*
Y166460D02*
D03*
X243760Y128360D02*
D03*
Y141060D02*
D03*
Y166460D02*
D03*
Y153760D02*
D03*
X312020Y128360D02*
D03*
Y141060D02*
D03*
Y153760D02*
D03*
Y166460D02*
D03*
X366260Y128360D02*
D03*
Y141060D02*
D03*
Y166460D02*
D03*
Y153760D02*
D03*
X434520Y128360D02*
D03*
Y141060D02*
D03*
Y153760D02*
D03*
Y166460D02*
D03*
X488760Y128360D02*
D03*
Y141060D02*
D03*
Y166460D02*
D03*
Y153760D02*
D03*
X67020Y281860D02*
D03*
Y294560D02*
D03*
Y307260D02*
D03*
Y319960D02*
D03*
X121260Y281860D02*
D03*
Y294560D02*
D03*
Y319960D02*
D03*
Y307260D02*
D03*
X189520Y281860D02*
D03*
Y294560D02*
D03*
Y307260D02*
D03*
Y319960D02*
D03*
X243760Y281860D02*
D03*
Y294560D02*
D03*
Y319960D02*
D03*
Y307260D02*
D03*
X312020Y281860D02*
D03*
Y294560D02*
D03*
Y307260D02*
D03*
Y319960D02*
D03*
X366260Y281860D02*
D03*
Y294560D02*
D03*
Y319960D02*
D03*
Y307260D02*
D03*
X434520Y281860D02*
D03*
Y294560D02*
D03*
Y307260D02*
D03*
Y319960D02*
D03*
X488760Y281860D02*
D03*
Y294560D02*
D03*
Y319960D02*
D03*
Y307260D02*
D03*
X67020Y435360D02*
D03*
Y448060D02*
D03*
Y460760D02*
D03*
Y473460D02*
D03*
X121260Y435360D02*
D03*
Y448060D02*
D03*
Y473460D02*
D03*
Y460760D02*
D03*
X189520Y435360D02*
D03*
Y448060D02*
D03*
Y460760D02*
D03*
Y473460D02*
D03*
X243760Y435360D02*
D03*
Y448060D02*
D03*
Y473460D02*
D03*
Y460760D02*
D03*
X312020Y435360D02*
D03*
Y448060D02*
D03*
Y460760D02*
D03*
Y473460D02*
D03*
X366260Y435360D02*
D03*
Y448060D02*
D03*
Y473460D02*
D03*
Y460760D02*
D03*
X434520Y435360D02*
D03*
Y448060D02*
D03*
Y460760D02*
D03*
Y473460D02*
D03*
X488760Y435360D02*
D03*
Y448060D02*
D03*
Y473460D02*
D03*
Y460760D02*
D03*
D14*
X84890Y181910D02*
D03*
X75390D02*
D03*
X94390D02*
D03*
X75390Y206910D02*
D03*
X94390D02*
D03*
X207390Y181910D02*
D03*
X197890D02*
D03*
X216890D02*
D03*
X197890Y206910D02*
D03*
X216890D02*
D03*
X329890Y181910D02*
D03*
X320390D02*
D03*
X339390D02*
D03*
X320390Y206910D02*
D03*
X339390D02*
D03*
X452390Y181910D02*
D03*
X442890D02*
D03*
X461890D02*
D03*
X442890Y206910D02*
D03*
X461890D02*
D03*
X84890Y335410D02*
D03*
X75390D02*
D03*
X94390D02*
D03*
X75390Y360410D02*
D03*
X94390D02*
D03*
X207390Y335410D02*
D03*
X197890D02*
D03*
X216890D02*
D03*
X197890Y360410D02*
D03*
X216890D02*
D03*
X329890Y335410D02*
D03*
X320390D02*
D03*
X339390D02*
D03*
X320390Y360410D02*
D03*
X339390D02*
D03*
X452390Y335410D02*
D03*
X442890D02*
D03*
X461890D02*
D03*
X442890Y360410D02*
D03*
X461890D02*
D03*
X84890Y488910D02*
D03*
X75390D02*
D03*
X94390D02*
D03*
X75390Y513910D02*
D03*
X94390D02*
D03*
X207390Y488910D02*
D03*
X197890D02*
D03*
X216890D02*
D03*
X197890Y513910D02*
D03*
X216890D02*
D03*
X329890Y488910D02*
D03*
X320390D02*
D03*
X339390D02*
D03*
X320390Y513910D02*
D03*
X339390D02*
D03*
X452390Y488910D02*
D03*
X442890D02*
D03*
X461890D02*
D03*
X442890Y513910D02*
D03*
X461890D02*
D03*
D15*
X51537Y160113D02*
D03*
X57237D02*
D03*
X109140Y180410D02*
D03*
X114640D02*
D03*
X109110Y175190D02*
D03*
X114610D02*
D03*
X121640Y103160D02*
D03*
X127140D02*
D03*
X111140D02*
D03*
X116640D02*
D03*
X174037Y160113D02*
D03*
X179737D02*
D03*
X231640Y180410D02*
D03*
X237140D02*
D03*
X231610Y175190D02*
D03*
X237110D02*
D03*
X244140Y103160D02*
D03*
X249640D02*
D03*
X233640D02*
D03*
X239140D02*
D03*
X296537Y160113D02*
D03*
X302237D02*
D03*
X354140Y180410D02*
D03*
X359640D02*
D03*
X354110Y175190D02*
D03*
X359610D02*
D03*
X366640Y103160D02*
D03*
X372140D02*
D03*
X356140D02*
D03*
X361640D02*
D03*
X419037Y160113D02*
D03*
X424737D02*
D03*
X476640Y180410D02*
D03*
X482140D02*
D03*
X476610Y175190D02*
D03*
X482110D02*
D03*
X489140Y103160D02*
D03*
X494640D02*
D03*
X478640D02*
D03*
X484140D02*
D03*
X51537Y313613D02*
D03*
X57237D02*
D03*
X109140Y333910D02*
D03*
X114640D02*
D03*
X109110Y328690D02*
D03*
X114610D02*
D03*
X121640Y256660D02*
D03*
X127140D02*
D03*
X111140D02*
D03*
X116640D02*
D03*
X174037Y313613D02*
D03*
X179737D02*
D03*
X231640Y333910D02*
D03*
X237140D02*
D03*
X231610Y328690D02*
D03*
X237110D02*
D03*
X244140Y256660D02*
D03*
X249640D02*
D03*
X233640D02*
D03*
X239140D02*
D03*
X296537Y313613D02*
D03*
X302237D02*
D03*
X354140Y333910D02*
D03*
X359640D02*
D03*
X354110Y328690D02*
D03*
X359610D02*
D03*
X366640Y256660D02*
D03*
X372140D02*
D03*
X356140D02*
D03*
X361640D02*
D03*
X419037Y313613D02*
D03*
X424737D02*
D03*
X476640Y333910D02*
D03*
X482140D02*
D03*
X476610Y328690D02*
D03*
X482110D02*
D03*
X489140Y256660D02*
D03*
X494640D02*
D03*
X478640D02*
D03*
X484140D02*
D03*
X51537Y467113D02*
D03*
X57237D02*
D03*
X109140Y487410D02*
D03*
X114640D02*
D03*
X109110Y482190D02*
D03*
X114610D02*
D03*
X121640Y410160D02*
D03*
X127140D02*
D03*
X111140D02*
D03*
X116640D02*
D03*
X174037Y467113D02*
D03*
X179737D02*
D03*
X231640Y487410D02*
D03*
X237140D02*
D03*
X231610Y482190D02*
D03*
X237110D02*
D03*
X244140Y410160D02*
D03*
X249640D02*
D03*
X233640D02*
D03*
X239140D02*
D03*
X296537Y467113D02*
D03*
X302237D02*
D03*
X354140Y487410D02*
D03*
X359640D02*
D03*
X354110Y482190D02*
D03*
X359610D02*
D03*
X366640Y410160D02*
D03*
X372140D02*
D03*
X356140D02*
D03*
X361640D02*
D03*
X419037Y467113D02*
D03*
X424737D02*
D03*
X476640Y487410D02*
D03*
X482140D02*
D03*
X476610Y482190D02*
D03*
X482110D02*
D03*
X489140Y410160D02*
D03*
X494640D02*
D03*
X478640D02*
D03*
X484140D02*
D03*
D16*
X55890Y101910D02*
D03*
Y82910D02*
D03*
X95640Y101910D02*
D03*
Y82910D02*
D03*
X62890Y209910D02*
D03*
Y190910D02*
D03*
X178390Y101910D02*
D03*
Y82910D02*
D03*
X218140Y101910D02*
D03*
Y82910D02*
D03*
X185390Y209910D02*
D03*
Y190910D02*
D03*
X300890Y101910D02*
D03*
Y82910D02*
D03*
X340640Y101910D02*
D03*
Y82910D02*
D03*
X307890Y209910D02*
D03*
Y190910D02*
D03*
X423390Y101910D02*
D03*
Y82910D02*
D03*
X463140Y101910D02*
D03*
Y82910D02*
D03*
X430390Y209910D02*
D03*
Y190910D02*
D03*
X55890Y255410D02*
D03*
Y236410D02*
D03*
X95640Y255410D02*
D03*
Y236410D02*
D03*
X62890Y363410D02*
D03*
Y344410D02*
D03*
X178390Y255410D02*
D03*
Y236410D02*
D03*
X218140Y255410D02*
D03*
Y236410D02*
D03*
X185390Y363410D02*
D03*
Y344410D02*
D03*
X300890Y255410D02*
D03*
Y236410D02*
D03*
X340640Y255410D02*
D03*
Y236410D02*
D03*
X307890Y363410D02*
D03*
Y344410D02*
D03*
X423390Y255410D02*
D03*
Y236410D02*
D03*
X463140Y255410D02*
D03*
Y236410D02*
D03*
X430390Y363410D02*
D03*
Y344410D02*
D03*
X55890Y408910D02*
D03*
Y389910D02*
D03*
X95640Y408910D02*
D03*
Y389910D02*
D03*
X62890Y516910D02*
D03*
Y497910D02*
D03*
X178390Y408910D02*
D03*
Y389910D02*
D03*
X218140Y408910D02*
D03*
Y389910D02*
D03*
X185390Y516910D02*
D03*
Y497910D02*
D03*
X300890Y408910D02*
D03*
Y389910D02*
D03*
X340640Y408910D02*
D03*
Y389910D02*
D03*
X307890Y516910D02*
D03*
Y497910D02*
D03*
X423390Y408910D02*
D03*
Y389910D02*
D03*
X463140Y408910D02*
D03*
Y389910D02*
D03*
X430390Y516910D02*
D03*
Y497910D02*
D03*
D17*
X60890Y177160D02*
D03*
Y182410D02*
D03*
X126700Y175564D02*
D03*
Y180814D02*
D03*
X183390Y177160D02*
D03*
Y182410D02*
D03*
X249200Y175564D02*
D03*
Y180814D02*
D03*
X305890Y177160D02*
D03*
Y182410D02*
D03*
X371701Y175564D02*
D03*
Y180814D02*
D03*
X428390Y177160D02*
D03*
Y182410D02*
D03*
X494201Y175564D02*
D03*
Y180814D02*
D03*
X60890Y330660D02*
D03*
Y335910D02*
D03*
X126700Y329064D02*
D03*
Y334314D02*
D03*
X183390Y330660D02*
D03*
Y335910D02*
D03*
X249200Y329064D02*
D03*
Y334314D02*
D03*
X305890Y330660D02*
D03*
Y335910D02*
D03*
X371701Y329064D02*
D03*
Y334314D02*
D03*
X428390Y330660D02*
D03*
Y335910D02*
D03*
X494201Y329064D02*
D03*
Y334314D02*
D03*
X60890Y484160D02*
D03*
Y489410D02*
D03*
X126700Y482564D02*
D03*
Y487814D02*
D03*
X183390Y484160D02*
D03*
Y489410D02*
D03*
X249200Y482564D02*
D03*
Y487814D02*
D03*
X305890Y484160D02*
D03*
Y489410D02*
D03*
X371701Y482564D02*
D03*
Y487814D02*
D03*
X428390Y484160D02*
D03*
Y489410D02*
D03*
X494201Y482564D02*
D03*
Y487814D02*
D03*
D18*
X61140Y114410D02*
D03*
X55890D02*
D03*
X97515D02*
D03*
X92265D02*
D03*
X108140D02*
D03*
X102890D02*
D03*
X183640D02*
D03*
X178390D02*
D03*
X220015D02*
D03*
X214765D02*
D03*
X230640D02*
D03*
X225390D02*
D03*
X306140D02*
D03*
X300890D02*
D03*
X342515D02*
D03*
X337265D02*
D03*
X353140D02*
D03*
X347890D02*
D03*
X428640D02*
D03*
X423390D02*
D03*
X465015D02*
D03*
X459765D02*
D03*
X475640D02*
D03*
X470390D02*
D03*
X61140Y267910D02*
D03*
X55890D02*
D03*
X97515D02*
D03*
X92265D02*
D03*
X108140D02*
D03*
X102890D02*
D03*
X183640D02*
D03*
X178390D02*
D03*
X220015D02*
D03*
X214765D02*
D03*
X230640D02*
D03*
X225390D02*
D03*
X306140D02*
D03*
X300890D02*
D03*
X342515D02*
D03*
X337265D02*
D03*
X353140D02*
D03*
X347890D02*
D03*
X428640D02*
D03*
X423390D02*
D03*
X465015D02*
D03*
X459765D02*
D03*
X475640D02*
D03*
X470390D02*
D03*
X61140Y421410D02*
D03*
X55890D02*
D03*
X97515D02*
D03*
X92265D02*
D03*
X108140D02*
D03*
X102890D02*
D03*
X183640D02*
D03*
X178390D02*
D03*
X220015D02*
D03*
X214765D02*
D03*
X230640D02*
D03*
X225390D02*
D03*
X306140D02*
D03*
X300890D02*
D03*
X342515D02*
D03*
X337265D02*
D03*
X353140D02*
D03*
X347890D02*
D03*
X428640D02*
D03*
X423390D02*
D03*
X465015D02*
D03*
X459765D02*
D03*
X475640D02*
D03*
X470390D02*
D03*
D19*
X125513Y78064D02*
D03*
Y86864D02*
D03*
X117090Y78064D02*
D03*
Y86864D02*
D03*
X248013Y78064D02*
D03*
Y86864D02*
D03*
X239590Y78064D02*
D03*
Y86864D02*
D03*
X370513Y78064D02*
D03*
Y86864D02*
D03*
X362090Y78064D02*
D03*
Y86864D02*
D03*
X493013Y78064D02*
D03*
Y86864D02*
D03*
X484590Y78064D02*
D03*
Y86864D02*
D03*
X125513Y231564D02*
D03*
Y240364D02*
D03*
X117090Y231564D02*
D03*
Y240364D02*
D03*
X248013Y231564D02*
D03*
Y240364D02*
D03*
X239590Y231564D02*
D03*
Y240364D02*
D03*
X370513Y231564D02*
D03*
Y240364D02*
D03*
X362090Y231564D02*
D03*
Y240364D02*
D03*
X493013Y231564D02*
D03*
Y240364D02*
D03*
X484590Y231564D02*
D03*
Y240364D02*
D03*
X125513Y385064D02*
D03*
Y393864D02*
D03*
X117090Y385064D02*
D03*
Y393864D02*
D03*
X248013Y385064D02*
D03*
Y393864D02*
D03*
X239590Y385064D02*
D03*
Y393864D02*
D03*
X370513Y385064D02*
D03*
Y393864D02*
D03*
X362090Y385064D02*
D03*
Y393864D02*
D03*
X493013Y385064D02*
D03*
Y393864D02*
D03*
X484590Y385064D02*
D03*
Y393864D02*
D03*
D20*
X108390Y191410D02*
D03*
X127390D02*
D03*
X230890D02*
D03*
X249890D02*
D03*
X353390D02*
D03*
X372390D02*
D03*
X475890D02*
D03*
X494890D02*
D03*
X108390Y344910D02*
D03*
X127390D02*
D03*
X230890D02*
D03*
X249890D02*
D03*
X353390D02*
D03*
X372390D02*
D03*
X475890D02*
D03*
X494890D02*
D03*
X108390Y498410D02*
D03*
X127390D02*
D03*
X230890D02*
D03*
X249890D02*
D03*
X353390D02*
D03*
X372390D02*
D03*
X475890D02*
D03*
X494890D02*
D03*
D21*
X68890Y103035D02*
D03*
X82390D02*
D03*
X69140Y115035D02*
D03*
X82640D02*
D03*
X68890Y91410D02*
D03*
X82390D02*
D03*
X68890Y79410D02*
D03*
X82390D02*
D03*
X191390Y103035D02*
D03*
X204890D02*
D03*
X191640Y115035D02*
D03*
X205140D02*
D03*
X191390Y91410D02*
D03*
X204890D02*
D03*
X191390Y79410D02*
D03*
X204890D02*
D03*
X313890Y103035D02*
D03*
X327390D02*
D03*
X314140Y115035D02*
D03*
X327640D02*
D03*
X313890Y91410D02*
D03*
X327390D02*
D03*
X313890Y79410D02*
D03*
X327390D02*
D03*
X436390Y103035D02*
D03*
X449890D02*
D03*
X436640Y115035D02*
D03*
X450140D02*
D03*
X436390Y91410D02*
D03*
X449890D02*
D03*
X436390Y79410D02*
D03*
X449890D02*
D03*
X68890Y256535D02*
D03*
X82390D02*
D03*
X69140Y268535D02*
D03*
X82640D02*
D03*
X68890Y244910D02*
D03*
X82390D02*
D03*
X68890Y232910D02*
D03*
X82390D02*
D03*
X191390Y256535D02*
D03*
X204890D02*
D03*
X191640Y268535D02*
D03*
X205140D02*
D03*
X191390Y244910D02*
D03*
X204890D02*
D03*
X191390Y232910D02*
D03*
X204890D02*
D03*
X313890Y256535D02*
D03*
X327390D02*
D03*
X314140Y268535D02*
D03*
X327640D02*
D03*
X313890Y244910D02*
D03*
X327390D02*
D03*
X313890Y232910D02*
D03*
X327390D02*
D03*
X436390Y256535D02*
D03*
X449890D02*
D03*
X436640Y268535D02*
D03*
X450140D02*
D03*
X436390Y244910D02*
D03*
X449890D02*
D03*
X436390Y232910D02*
D03*
X449890D02*
D03*
X68890Y410035D02*
D03*
X82390D02*
D03*
X69140Y422035D02*
D03*
X82640D02*
D03*
X68890Y398410D02*
D03*
X82390D02*
D03*
X68890Y386410D02*
D03*
X82390D02*
D03*
X191390Y410035D02*
D03*
X204890D02*
D03*
X191640Y422035D02*
D03*
X205140D02*
D03*
X191390Y398410D02*
D03*
X204890D02*
D03*
X191390Y386410D02*
D03*
X204890D02*
D03*
X313890Y410035D02*
D03*
X327390D02*
D03*
X314140Y422035D02*
D03*
X327640D02*
D03*
X313890Y398410D02*
D03*
X327390D02*
D03*
X313890Y386410D02*
D03*
X327390D02*
D03*
X436390Y410035D02*
D03*
X449890D02*
D03*
X436640Y422035D02*
D03*
X450140D02*
D03*
X436390Y398410D02*
D03*
X449890D02*
D03*
X436390Y386410D02*
D03*
X449890D02*
D03*
D22*
X108890Y206910D02*
D03*
X126890D02*
D03*
X231390D02*
D03*
X249390D02*
D03*
X353890D02*
D03*
X371890D02*
D03*
X476390D02*
D03*
X494390D02*
D03*
X108890Y360410D02*
D03*
X126890D02*
D03*
X231390D02*
D03*
X249390D02*
D03*
X353890D02*
D03*
X371890D02*
D03*
X476390D02*
D03*
X494390D02*
D03*
X108890Y513910D02*
D03*
X126890D02*
D03*
X231390D02*
D03*
X249390D02*
D03*
X353890D02*
D03*
X371890D02*
D03*
X476390D02*
D03*
X494390D02*
D03*
D23*
X114890Y98410D02*
D03*
Y93410D02*
D03*
X124890D02*
D03*
X119890Y98410D02*
D03*
X124890D02*
D03*
X237390D02*
D03*
Y93410D02*
D03*
X247390D02*
D03*
X242390Y98410D02*
D03*
X247390D02*
D03*
X359890D02*
D03*
Y93410D02*
D03*
X369890D02*
D03*
X364890Y98410D02*
D03*
X369890D02*
D03*
X482390D02*
D03*
Y93410D02*
D03*
X492390D02*
D03*
X487390Y98410D02*
D03*
X492390D02*
D03*
X114890Y251910D02*
D03*
Y246910D02*
D03*
X124890D02*
D03*
X119890Y251910D02*
D03*
X124890D02*
D03*
X237390D02*
D03*
Y246910D02*
D03*
X247390D02*
D03*
X242390Y251910D02*
D03*
X247390D02*
D03*
X359890D02*
D03*
Y246910D02*
D03*
X369890D02*
D03*
X364890Y251910D02*
D03*
X369890D02*
D03*
X482390D02*
D03*
Y246910D02*
D03*
X492390D02*
D03*
X487390Y251910D02*
D03*
X492390D02*
D03*
X114890Y405410D02*
D03*
Y400410D02*
D03*
X124890D02*
D03*
X119890Y405410D02*
D03*
X124890D02*
D03*
X237390D02*
D03*
Y400410D02*
D03*
X247390D02*
D03*
X242390Y405410D02*
D03*
X247390D02*
D03*
X359890D02*
D03*
Y400410D02*
D03*
X369890D02*
D03*
X364890Y405410D02*
D03*
X369890D02*
D03*
X482390D02*
D03*
Y400410D02*
D03*
X492390D02*
D03*
X487390Y405410D02*
D03*
X492390D02*
D03*
D31*
X530000Y30000D02*
D03*
X20000Y560000D02*
D03*
Y30000D02*
D03*
X530000Y560000D02*
D03*
D32*
X39890Y118010D02*
D03*
Y130710D02*
D03*
Y79910D02*
D03*
Y105310D02*
D03*
Y92610D02*
D03*
Y206910D02*
D03*
Y194210D02*
D03*
Y156110D02*
D03*
Y143410D02*
D03*
Y181510D02*
D03*
Y168810D02*
D03*
X142390Y118010D02*
D03*
Y130710D02*
D03*
Y79910D02*
D03*
Y105310D02*
D03*
Y92610D02*
D03*
Y206910D02*
D03*
Y194210D02*
D03*
Y156110D02*
D03*
Y143410D02*
D03*
Y181510D02*
D03*
Y168810D02*
D03*
X162390Y118010D02*
D03*
Y130710D02*
D03*
Y79910D02*
D03*
Y105310D02*
D03*
Y92610D02*
D03*
Y206910D02*
D03*
Y194210D02*
D03*
Y156110D02*
D03*
Y143410D02*
D03*
Y181510D02*
D03*
Y168810D02*
D03*
X264890Y118010D02*
D03*
Y130710D02*
D03*
Y79910D02*
D03*
Y105310D02*
D03*
Y92610D02*
D03*
Y206910D02*
D03*
Y194210D02*
D03*
Y156110D02*
D03*
Y143410D02*
D03*
Y181510D02*
D03*
Y168810D02*
D03*
X284890Y118010D02*
D03*
Y130710D02*
D03*
Y79910D02*
D03*
Y105310D02*
D03*
Y92610D02*
D03*
Y206910D02*
D03*
Y194210D02*
D03*
Y156110D02*
D03*
Y143410D02*
D03*
Y181510D02*
D03*
Y168810D02*
D03*
X387390Y118010D02*
D03*
Y130710D02*
D03*
Y79910D02*
D03*
Y105310D02*
D03*
Y92610D02*
D03*
Y206910D02*
D03*
Y194210D02*
D03*
Y156110D02*
D03*
Y143410D02*
D03*
Y181510D02*
D03*
Y168810D02*
D03*
X407390Y118010D02*
D03*
Y130710D02*
D03*
Y79910D02*
D03*
Y105310D02*
D03*
Y92610D02*
D03*
Y206910D02*
D03*
Y194210D02*
D03*
Y156110D02*
D03*
Y143410D02*
D03*
Y181510D02*
D03*
Y168810D02*
D03*
X509890Y118010D02*
D03*
Y130710D02*
D03*
Y79910D02*
D03*
Y105310D02*
D03*
Y92610D02*
D03*
Y206910D02*
D03*
Y194210D02*
D03*
Y156110D02*
D03*
Y143410D02*
D03*
Y181510D02*
D03*
Y168810D02*
D03*
X39890Y271510D02*
D03*
Y284210D02*
D03*
Y233410D02*
D03*
Y258810D02*
D03*
Y246110D02*
D03*
Y360410D02*
D03*
Y347710D02*
D03*
Y309610D02*
D03*
Y296910D02*
D03*
Y335010D02*
D03*
Y322310D02*
D03*
X142390Y271510D02*
D03*
Y284210D02*
D03*
Y233410D02*
D03*
Y258810D02*
D03*
Y246110D02*
D03*
Y360410D02*
D03*
Y347710D02*
D03*
Y309610D02*
D03*
Y296910D02*
D03*
Y335010D02*
D03*
Y322310D02*
D03*
X162390Y271510D02*
D03*
Y284210D02*
D03*
Y233410D02*
D03*
Y258810D02*
D03*
Y246110D02*
D03*
Y360410D02*
D03*
Y347710D02*
D03*
Y309610D02*
D03*
Y296910D02*
D03*
Y335010D02*
D03*
Y322310D02*
D03*
X264890Y271510D02*
D03*
Y284210D02*
D03*
Y233410D02*
D03*
Y258810D02*
D03*
Y246110D02*
D03*
Y360410D02*
D03*
Y347710D02*
D03*
Y309610D02*
D03*
Y296910D02*
D03*
Y335010D02*
D03*
Y322310D02*
D03*
X284890Y271510D02*
D03*
Y284210D02*
D03*
Y233410D02*
D03*
Y258810D02*
D03*
Y246110D02*
D03*
Y360410D02*
D03*
Y347710D02*
D03*
Y309610D02*
D03*
Y296910D02*
D03*
Y335010D02*
D03*
Y322310D02*
D03*
X387390Y271510D02*
D03*
Y284210D02*
D03*
Y233410D02*
D03*
Y258810D02*
D03*
Y246110D02*
D03*
Y360410D02*
D03*
Y347710D02*
D03*
Y309610D02*
D03*
Y296910D02*
D03*
Y335010D02*
D03*
Y322310D02*
D03*
X407390Y271510D02*
D03*
Y284210D02*
D03*
Y233410D02*
D03*
Y258810D02*
D03*
Y246110D02*
D03*
Y360410D02*
D03*
Y347710D02*
D03*
Y309610D02*
D03*
Y296910D02*
D03*
Y335010D02*
D03*
Y322310D02*
D03*
X509890Y271510D02*
D03*
Y284210D02*
D03*
Y233410D02*
D03*
Y258810D02*
D03*
Y246110D02*
D03*
Y360410D02*
D03*
Y347710D02*
D03*
Y309610D02*
D03*
Y296910D02*
D03*
Y335010D02*
D03*
Y322310D02*
D03*
X39890Y425010D02*
D03*
Y437710D02*
D03*
Y386910D02*
D03*
Y412310D02*
D03*
Y399610D02*
D03*
Y513910D02*
D03*
Y501210D02*
D03*
Y463110D02*
D03*
Y450410D02*
D03*
Y488510D02*
D03*
Y475810D02*
D03*
X142390Y425010D02*
D03*
Y437710D02*
D03*
Y386910D02*
D03*
Y412310D02*
D03*
Y399610D02*
D03*
Y513910D02*
D03*
Y501210D02*
D03*
Y463110D02*
D03*
Y450410D02*
D03*
Y488510D02*
D03*
Y475810D02*
D03*
X162390Y425010D02*
D03*
Y437710D02*
D03*
Y386910D02*
D03*
Y412310D02*
D03*
Y399610D02*
D03*
Y513910D02*
D03*
Y501210D02*
D03*
Y463110D02*
D03*
Y450410D02*
D03*
Y488510D02*
D03*
Y475810D02*
D03*
X264890Y425010D02*
D03*
Y437710D02*
D03*
Y386910D02*
D03*
Y412310D02*
D03*
Y399610D02*
D03*
Y513910D02*
D03*
Y501210D02*
D03*
Y463110D02*
D03*
Y450410D02*
D03*
Y488510D02*
D03*
Y475810D02*
D03*
X284890Y425010D02*
D03*
Y437710D02*
D03*
Y386910D02*
D03*
Y412310D02*
D03*
Y399610D02*
D03*
Y513910D02*
D03*
Y501210D02*
D03*
Y463110D02*
D03*
Y450410D02*
D03*
Y488510D02*
D03*
Y475810D02*
D03*
X387390Y425010D02*
D03*
Y437710D02*
D03*
Y386910D02*
D03*
Y412310D02*
D03*
Y399610D02*
D03*
Y513910D02*
D03*
Y501210D02*
D03*
Y463110D02*
D03*
Y450410D02*
D03*
Y488510D02*
D03*
Y475810D02*
D03*
X407390Y425010D02*
D03*
Y437710D02*
D03*
Y386910D02*
D03*
Y412310D02*
D03*
Y399610D02*
D03*
Y513910D02*
D03*
Y501210D02*
D03*
Y463110D02*
D03*
Y450410D02*
D03*
Y488510D02*
D03*
Y475810D02*
D03*
X509890Y425010D02*
D03*
Y437710D02*
D03*
Y386910D02*
D03*
Y412310D02*
D03*
Y399610D02*
D03*
Y513910D02*
D03*
Y501210D02*
D03*
Y463110D02*
D03*
Y450410D02*
D03*
Y488510D02*
D03*
Y475810D02*
D03*
M02*
