G04*
G04 #@! TF.GenerationSoftware,Altium Limited,Altium Designer,25.0.2 (28)*
G04*
G04 Layer_Color=8388736*
%FSLAX44Y44*%
%MOMM*%
G71*
G04*
G04 #@! TF.SameCoordinates,6A123C44-6EB7-423C-9969-B25F4FCB3D5A*
G04*
G04*
G04 #@! TF.FilePolarity,Positive*
G04*
G01*
G75*
%ADD25C,0.2000*%
%ADD26C,0.3000*%
D25*
X-10000Y65250D02*
X560000D01*
X-10000Y220250D02*
X560000D01*
X-10000Y373750D02*
X560000D01*
X-10000Y527250D02*
X560000D01*
D26*
X-113500Y74994D02*
Y61665D01*
X-106836Y55000D01*
X-100171Y61665D01*
Y74994D01*
X-93506Y64997D02*
X-80177D01*
X-60184Y71661D02*
X-63516Y74994D01*
X-70181D01*
X-73513Y71661D01*
Y58332D01*
X-70181Y55000D01*
X-63516D01*
X-60184Y58332D01*
X-53519Y74994D02*
Y58332D01*
X-50187Y55000D01*
X-43523D01*
X-40190Y58332D01*
Y74994D01*
X-33526D02*
X-20197D01*
X-26861D01*
Y55000D01*
X-113500Y229994D02*
Y216665D01*
X-106836Y210000D01*
X-100171Y216665D01*
Y229994D01*
X-93506Y219997D02*
X-80177D01*
X-60184Y226661D02*
X-63516Y229994D01*
X-70181D01*
X-73513Y226661D01*
Y213332D01*
X-70181Y210000D01*
X-63516D01*
X-60184Y213332D01*
X-53519Y229994D02*
Y213332D01*
X-50187Y210000D01*
X-43523D01*
X-40190Y213332D01*
Y229994D01*
X-33526D02*
X-20197D01*
X-26861D01*
Y210000D01*
X-113500Y383494D02*
Y370165D01*
X-106836Y363500D01*
X-100171Y370165D01*
Y383494D01*
X-93506Y373497D02*
X-80177D01*
X-60184Y380161D02*
X-63516Y383494D01*
X-70181D01*
X-73513Y380161D01*
Y366832D01*
X-70181Y363500D01*
X-63516D01*
X-60184Y366832D01*
X-53519Y383494D02*
Y366832D01*
X-50187Y363500D01*
X-43523D01*
X-40190Y366832D01*
Y383494D01*
X-33526D02*
X-20197D01*
X-26861D01*
Y363500D01*
X-113500Y536994D02*
Y523665D01*
X-106836Y517000D01*
X-100171Y523665D01*
Y536994D01*
X-93506Y526997D02*
X-80177D01*
X-60184Y533661D02*
X-63516Y536994D01*
X-70181D01*
X-73513Y533661D01*
Y520332D01*
X-70181Y517000D01*
X-63516D01*
X-60184Y520332D01*
X-53519Y536994D02*
Y520332D01*
X-50187Y517000D01*
X-43523D01*
X-40190Y520332D01*
Y536994D01*
X-33526D02*
X-20197D01*
X-26861D01*
Y517000D01*
M02*
