G04*
G04 #@! TF.GenerationSoftware,Altium Limited,Altium Designer,25.0.2 (28)*
G04*
G04 Layer_Physical_Order=1*
G04 Layer_Color=255*
%FSLAX44Y44*%
%MOMM*%
G71*
G04*
G04 #@! TF.SameCoordinates,6A123C44-6EB7-423C-9969-B25F4FCB3D5A*
G04*
G04*
G04 #@! TF.FilePolarity,Positive*
G04*
G01*
G75*
%ADD10C,1.0000*%
%ADD11R,0.6000X0.6000*%
%ADD12R,0.3500X0.3500*%
%ADD13R,1.5250X0.6500*%
%ADD14R,0.6000X1.2000*%
%ADD15R,0.3500X0.3500*%
%ADD16R,1.4000X1.0000*%
%ADD17R,1.1500X0.3250*%
%ADD18R,0.3250X1.1500*%
%ADD19R,0.6400X0.6000*%
%ADD20R,1.0000X1.4000*%
%ADD21R,0.9000X1.0000*%
%ADD22R,1.0000X0.9000*%
%ADD23C,0.2500*%
%ADD24C,0.1500*%
%ADD25C,0.2000*%
%ADD26C,0.3000*%
%ADD27C,0.2500*%
%ADD28C,0.5000*%
%ADD29C,0.4000*%
%ADD30C,0.1300*%
%ADD31C,1.1520*%
G04:AMPARAMS|DCode=32|XSize=1.3mm|YSize=1mm|CornerRadius=0.25mm|HoleSize=0mm|Usage=FLASHONLY|Rotation=180.000|XOffset=0mm|YOffset=0mm|HoleType=Round|Shape=RoundedRectangle|*
%AMROUNDEDRECTD32*
21,1,1.3000,0.5000,0,0,180.0*
21,1,0.8000,1.0000,0,0,180.0*
1,1,0.5000,-0.4000,0.2500*
1,1,0.5000,0.4000,0.2500*
1,1,0.5000,0.4000,-0.2500*
1,1,0.5000,-0.4000,-0.2500*
%
%ADD32ROUNDEDRECTD32*%
%ADD33C,0.4000*%
%ADD34C,0.3700*%
G36*
X442145Y432110D02*
X442140Y432105D01*
Y425082D01*
X434093Y417035D01*
X429806D01*
X427015Y419826D01*
Y427119D01*
X425265Y428869D01*
Y428910D01*
X423064D01*
X423054Y428920D01*
Y434765D01*
X439490D01*
X442145Y432110D01*
D02*
G37*
G36*
X319645D02*
X319640Y432105D01*
Y425082D01*
X311593Y417035D01*
X307306D01*
X304515Y419826D01*
Y427119D01*
X302765Y428869D01*
Y428910D01*
X300564D01*
X300554Y428920D01*
Y434765D01*
X316990D01*
X319645Y432110D01*
D02*
G37*
G36*
X197145D02*
X197140Y432105D01*
Y425082D01*
X189093Y417035D01*
X184806D01*
X182015Y419826D01*
Y427119D01*
X180265Y428869D01*
Y428910D01*
X178064D01*
X178054Y428920D01*
Y434765D01*
X194490D01*
X197145Y432110D01*
D02*
G37*
G36*
X74645D02*
X74640Y432105D01*
Y425082D01*
X66593Y417035D01*
X62306D01*
X59515Y419826D01*
Y427119D01*
X57765Y428869D01*
Y428910D01*
X55564D01*
X55554Y428920D01*
Y434765D01*
X71990D01*
X74645Y432110D01*
D02*
G37*
G36*
X472715Y414360D02*
X475642D01*
X475690Y413110D01*
X475690D01*
Y407210D01*
X477518D01*
X478718Y407040D01*
X479840Y405917D01*
Y402133D01*
X479448Y402056D01*
X478803Y401624D01*
X476962Y399784D01*
X476531Y399139D01*
X476464Y398798D01*
X475907Y398568D01*
X474923Y397583D01*
X474390Y396297D01*
Y394904D01*
X474923Y393618D01*
X475907Y392633D01*
X477194Y392100D01*
X478586D01*
X478920Y392239D01*
X480190Y391390D01*
Y389664D01*
X480190Y389664D01*
X480090Y389364D01*
X480090Y389364D01*
X480090Y388415D01*
Y386064D01*
X484590D01*
Y384064D01*
X480090D01*
Y381910D01*
X455590D01*
Y383610D01*
X462140D01*
Y389910D01*
Y396210D01*
X455590D01*
Y397533D01*
X455772Y397973D01*
Y399365D01*
X455590Y399805D01*
Y402710D01*
X471340D01*
Y414460D01*
X472715D01*
Y414360D01*
D02*
G37*
G36*
X350215D02*
X353142D01*
X353190Y413110D01*
X353190D01*
Y407210D01*
X355018D01*
X356218Y407040D01*
X357340Y405917D01*
Y402133D01*
X356948Y402056D01*
X356303Y401624D01*
X354462Y399784D01*
X354031Y399139D01*
X353964Y398798D01*
X353407Y398568D01*
X352423Y397583D01*
X351890Y396297D01*
Y394904D01*
X352423Y393618D01*
X353407Y392633D01*
X354694Y392100D01*
X356086D01*
X356420Y392239D01*
X357690Y391390D01*
Y389664D01*
X357690Y389664D01*
X357590Y389364D01*
X357590Y389364D01*
X357590Y388415D01*
Y386064D01*
X362090D01*
Y384064D01*
X357590D01*
Y381910D01*
X333090D01*
Y383610D01*
X339640D01*
Y389910D01*
Y396210D01*
X333090D01*
Y397533D01*
X333272Y397973D01*
Y399365D01*
X333090Y399805D01*
Y402710D01*
X348840D01*
Y414460D01*
X350215D01*
Y414360D01*
D02*
G37*
G36*
X227715D02*
X230642D01*
X230690Y413110D01*
X230690D01*
Y407210D01*
X232518D01*
X233718Y407040D01*
X234840Y405917D01*
Y402133D01*
X234448Y402056D01*
X233803Y401624D01*
X231962Y399784D01*
X231531Y399139D01*
X231464Y398798D01*
X230907Y398568D01*
X229923Y397583D01*
X229390Y396297D01*
Y394904D01*
X229923Y393618D01*
X230907Y392633D01*
X232194Y392100D01*
X233586D01*
X233920Y392239D01*
X235190Y391390D01*
Y389664D01*
X235190Y389664D01*
X235090Y389364D01*
X235090Y389364D01*
X235090Y388415D01*
Y386064D01*
X239590D01*
Y384064D01*
X235090D01*
Y381910D01*
X210590D01*
Y383610D01*
X217140D01*
Y389910D01*
Y396210D01*
X210590D01*
Y397533D01*
X210772Y397973D01*
Y399365D01*
X210590Y399805D01*
Y402710D01*
X226340D01*
Y414460D01*
X227715D01*
Y414360D01*
D02*
G37*
G36*
X105215D02*
X108142D01*
X108190Y413110D01*
X108190D01*
Y407210D01*
X110018D01*
X111218Y407040D01*
X112340Y405917D01*
Y402133D01*
X111948Y402056D01*
X111303Y401624D01*
X109462Y399784D01*
X109031Y399139D01*
X108964Y398798D01*
X108407Y398568D01*
X107423Y397583D01*
X106890Y396297D01*
Y394904D01*
X107423Y393618D01*
X108407Y392633D01*
X109694Y392100D01*
X111086D01*
X111420Y392239D01*
X112690Y391390D01*
Y389664D01*
X112690Y389664D01*
X112590Y389364D01*
X112590Y389364D01*
X112590Y388415D01*
Y386064D01*
X117090D01*
Y384064D01*
X112590D01*
Y381910D01*
X88090D01*
Y383610D01*
X94640D01*
Y389910D01*
Y396210D01*
X88090D01*
Y397533D01*
X88272Y397973D01*
Y399365D01*
X88090Y399805D01*
Y402710D01*
X103840D01*
Y414460D01*
X105215D01*
Y414360D01*
D02*
G37*
G36*
X442145Y278610D02*
X442140Y278605D01*
Y271582D01*
X434093Y263535D01*
X429806D01*
X427015Y266326D01*
Y273619D01*
X425265Y275369D01*
Y275410D01*
X423064D01*
X423054Y275420D01*
Y281265D01*
X439490D01*
X442145Y278610D01*
D02*
G37*
G36*
X319645D02*
X319640Y278605D01*
Y271582D01*
X311593Y263535D01*
X307306D01*
X304515Y266326D01*
Y273619D01*
X302765Y275369D01*
Y275410D01*
X300564D01*
X300554Y275420D01*
Y281265D01*
X316990D01*
X319645Y278610D01*
D02*
G37*
G36*
X197145D02*
X197140Y278605D01*
Y271582D01*
X189093Y263535D01*
X184806D01*
X182015Y266326D01*
Y273619D01*
X180265Y275369D01*
Y275410D01*
X178064D01*
X178054Y275420D01*
Y281265D01*
X194490D01*
X197145Y278610D01*
D02*
G37*
G36*
X74645D02*
X74640Y278605D01*
Y271582D01*
X66593Y263535D01*
X62306D01*
X59515Y266326D01*
Y273619D01*
X57765Y275369D01*
Y275410D01*
X55564D01*
X55554Y275420D01*
Y281265D01*
X71990D01*
X74645Y278610D01*
D02*
G37*
G36*
X472715Y260860D02*
X475642D01*
X475690Y259610D01*
X475690D01*
Y253710D01*
X477518D01*
X478718Y253540D01*
X479840Y252417D01*
Y248633D01*
X479448Y248556D01*
X478803Y248125D01*
X476962Y246284D01*
X476531Y245639D01*
X476464Y245298D01*
X475907Y245068D01*
X474923Y244083D01*
X474390Y242797D01*
Y241404D01*
X474923Y240118D01*
X475907Y239133D01*
X477194Y238601D01*
X478586D01*
X478920Y238739D01*
X480190Y237890D01*
Y236164D01*
X480190Y236164D01*
X480090Y235864D01*
X480090Y235864D01*
X480090Y234915D01*
Y232564D01*
X484590D01*
Y230564D01*
X480090D01*
Y228410D01*
X455590D01*
Y230110D01*
X462140D01*
Y236410D01*
Y242710D01*
X455590D01*
Y244033D01*
X455772Y244473D01*
Y245865D01*
X455590Y246306D01*
Y249210D01*
X471340D01*
Y260960D01*
X472715D01*
Y260860D01*
D02*
G37*
G36*
X350215D02*
X353142D01*
X353190Y259610D01*
X353190D01*
Y253710D01*
X355018D01*
X356218Y253540D01*
X357340Y252417D01*
Y248633D01*
X356948Y248556D01*
X356303Y248125D01*
X354462Y246284D01*
X354031Y245639D01*
X353964Y245298D01*
X353407Y245068D01*
X352423Y244083D01*
X351890Y242797D01*
Y241404D01*
X352423Y240118D01*
X353407Y239133D01*
X354694Y238601D01*
X356086D01*
X356420Y238739D01*
X357690Y237890D01*
Y236164D01*
X357690Y236164D01*
X357590Y235864D01*
X357590Y235864D01*
X357590Y234915D01*
Y232564D01*
X362090D01*
Y230564D01*
X357590D01*
Y228410D01*
X333090D01*
Y230110D01*
X339640D01*
Y236410D01*
Y242710D01*
X333090D01*
Y244033D01*
X333272Y244473D01*
Y245865D01*
X333090Y246306D01*
Y249210D01*
X348840D01*
Y260960D01*
X350215D01*
Y260860D01*
D02*
G37*
G36*
X227715D02*
X230642D01*
X230690Y259610D01*
X230690D01*
Y253710D01*
X232518D01*
X233718Y253540D01*
X234840Y252417D01*
Y248633D01*
X234448Y248556D01*
X233803Y248125D01*
X231962Y246284D01*
X231531Y245639D01*
X231464Y245298D01*
X230907Y245068D01*
X229923Y244083D01*
X229390Y242797D01*
Y241404D01*
X229923Y240118D01*
X230907Y239133D01*
X232194Y238601D01*
X233586D01*
X233920Y238739D01*
X235190Y237890D01*
Y236164D01*
X235190Y236164D01*
X235090Y235864D01*
X235090Y235864D01*
X235090Y234915D01*
Y232564D01*
X239590D01*
Y230564D01*
X235090D01*
Y228410D01*
X210590D01*
Y230110D01*
X217140D01*
Y236410D01*
Y242710D01*
X210590D01*
Y244033D01*
X210772Y244473D01*
Y245865D01*
X210590Y246306D01*
Y249210D01*
X226340D01*
Y260960D01*
X227715D01*
Y260860D01*
D02*
G37*
G36*
X105215D02*
X108142D01*
X108190Y259610D01*
X108190D01*
Y253710D01*
X110018D01*
X111218Y253540D01*
X112340Y252417D01*
Y248633D01*
X111948Y248556D01*
X111303Y248125D01*
X109462Y246284D01*
X109031Y245639D01*
X108964Y245298D01*
X108407Y245068D01*
X107423Y244083D01*
X106890Y242797D01*
Y241404D01*
X107423Y240118D01*
X108407Y239133D01*
X109694Y238601D01*
X111086D01*
X111420Y238739D01*
X112690Y237890D01*
Y236164D01*
X112690Y236164D01*
X112590Y235864D01*
X112590Y235864D01*
X112590Y234915D01*
Y232564D01*
X117090D01*
Y230564D01*
X112590D01*
Y228410D01*
X88090D01*
Y230110D01*
X94640D01*
Y236410D01*
Y242710D01*
X88090D01*
Y244033D01*
X88272Y244473D01*
Y245865D01*
X88090Y246306D01*
Y249210D01*
X103840D01*
Y260960D01*
X105215D01*
Y260860D01*
D02*
G37*
G36*
X442145Y125110D02*
X442140Y125105D01*
Y118082D01*
X434093Y110035D01*
X429806D01*
X427015Y112826D01*
Y120119D01*
X425265Y121869D01*
Y121910D01*
X423064D01*
X423054Y121920D01*
Y127765D01*
X439490D01*
X442145Y125110D01*
D02*
G37*
G36*
X319645D02*
X319640Y125105D01*
Y118082D01*
X311593Y110035D01*
X307306D01*
X304515Y112826D01*
Y120119D01*
X302765Y121869D01*
Y121910D01*
X300564D01*
X300554Y121920D01*
Y127765D01*
X316990D01*
X319645Y125110D01*
D02*
G37*
G36*
X197145D02*
X197140Y125105D01*
Y118082D01*
X189093Y110035D01*
X184806D01*
X182015Y112826D01*
Y120119D01*
X180265Y121869D01*
Y121910D01*
X178064D01*
X178054Y121920D01*
Y127765D01*
X194490D01*
X197145Y125110D01*
D02*
G37*
G36*
X74645D02*
X74640Y125105D01*
Y118082D01*
X66593Y110035D01*
X62306D01*
X59515Y112826D01*
Y120119D01*
X57765Y121869D01*
Y121910D01*
X55564D01*
X55554Y121920D01*
Y127765D01*
X71990D01*
X74645Y125110D01*
D02*
G37*
G36*
X472715Y107360D02*
X475642D01*
X475690Y106110D01*
X475690D01*
Y100210D01*
X477518D01*
X478718Y100040D01*
X479840Y98917D01*
Y95133D01*
X479448Y95056D01*
X478803Y94625D01*
X476962Y92784D01*
X476531Y92139D01*
X476464Y91798D01*
X475907Y91568D01*
X474923Y90583D01*
X474390Y89297D01*
Y87904D01*
X474923Y86618D01*
X475907Y85633D01*
X477194Y85100D01*
X478586D01*
X478920Y85239D01*
X480190Y84390D01*
Y82664D01*
X480190Y82664D01*
X480090Y82364D01*
X480090Y82364D01*
X480090Y81415D01*
Y79064D01*
X484590D01*
Y77064D01*
X480090D01*
Y74910D01*
X455590D01*
Y76610D01*
X462140D01*
Y82910D01*
Y89210D01*
X455590D01*
Y90533D01*
X455772Y90973D01*
Y92365D01*
X455590Y92806D01*
Y95710D01*
X471340D01*
Y107460D01*
X472715D01*
Y107360D01*
D02*
G37*
G36*
X350215D02*
X353142D01*
X353190Y106110D01*
X353190D01*
Y100210D01*
X355018D01*
X356218Y100040D01*
X357340Y98917D01*
Y95133D01*
X356948Y95056D01*
X356303Y94625D01*
X354462Y92784D01*
X354031Y92139D01*
X353964Y91798D01*
X353407Y91568D01*
X352423Y90583D01*
X351890Y89297D01*
Y87904D01*
X352423Y86618D01*
X353407Y85633D01*
X354694Y85100D01*
X356086D01*
X356420Y85239D01*
X357690Y84390D01*
Y82664D01*
X357690Y82664D01*
X357590Y82364D01*
X357590Y82364D01*
X357590Y81415D01*
Y79064D01*
X362090D01*
Y77064D01*
X357590D01*
Y74910D01*
X333090D01*
Y76610D01*
X339640D01*
Y82910D01*
Y89210D01*
X333090D01*
Y90533D01*
X333272Y90973D01*
Y92365D01*
X333090Y92806D01*
Y95710D01*
X348840D01*
Y107460D01*
X350215D01*
Y107360D01*
D02*
G37*
G36*
X227715D02*
X230642D01*
X230690Y106110D01*
X230690D01*
Y100210D01*
X232518D01*
X233718Y100040D01*
X234840Y98917D01*
Y95133D01*
X234448Y95056D01*
X233803Y94625D01*
X231962Y92784D01*
X231531Y92139D01*
X231464Y91798D01*
X230907Y91568D01*
X229923Y90583D01*
X229390Y89297D01*
Y87904D01*
X229923Y86618D01*
X230907Y85633D01*
X232194Y85100D01*
X233586D01*
X233920Y85239D01*
X235190Y84390D01*
Y82664D01*
X235190Y82664D01*
X235090Y82364D01*
X235090Y82364D01*
X235090Y81415D01*
Y79064D01*
X239590D01*
Y77064D01*
X235090D01*
Y74910D01*
X210590D01*
Y76610D01*
X217140D01*
Y82910D01*
Y89210D01*
X210590D01*
Y90533D01*
X210772Y90973D01*
Y92365D01*
X210590Y92806D01*
Y95710D01*
X226340D01*
Y107460D01*
X227715D01*
Y107360D01*
D02*
G37*
G36*
X105215D02*
X108142D01*
X108190Y106110D01*
X108190D01*
Y100210D01*
X110018D01*
X111218Y100040D01*
X112340Y98917D01*
Y95133D01*
X111948Y95056D01*
X111303Y94625D01*
X109462Y92784D01*
X109031Y92139D01*
X108964Y91798D01*
X108407Y91568D01*
X107423Y90583D01*
X106890Y89297D01*
Y87904D01*
X107423Y86618D01*
X108407Y85633D01*
X109694Y85100D01*
X111086D01*
X111420Y85239D01*
X112690Y84390D01*
Y82664D01*
X112690Y82664D01*
X112590Y82364D01*
X112590Y82364D01*
X112590Y81415D01*
Y79064D01*
X117090D01*
Y77064D01*
X112590D01*
Y74910D01*
X88090D01*
Y76610D01*
X94640D01*
Y82910D01*
Y89210D01*
X88090D01*
Y90533D01*
X88272Y90973D01*
Y92365D01*
X88090Y92806D01*
Y95710D01*
X103840D01*
Y107460D01*
X105215D01*
Y107360D01*
D02*
G37*
%LPC*%
G36*
X471440Y396210D02*
X464140D01*
Y390910D01*
X471440D01*
Y396210D01*
D02*
G37*
G36*
Y388910D02*
X464140D01*
Y383610D01*
X471440D01*
Y388910D01*
D02*
G37*
G36*
X348940Y396210D02*
X341640D01*
Y390910D01*
X348940D01*
Y396210D01*
D02*
G37*
G36*
Y388910D02*
X341640D01*
Y383610D01*
X348940D01*
Y388910D01*
D02*
G37*
G36*
X226440Y396210D02*
X219140D01*
Y390910D01*
X226440D01*
Y396210D01*
D02*
G37*
G36*
Y388910D02*
X219140D01*
Y383610D01*
X226440D01*
Y388910D01*
D02*
G37*
G36*
X103940Y396210D02*
X96640D01*
Y390910D01*
X103940D01*
Y396210D01*
D02*
G37*
G36*
Y388910D02*
X96640D01*
Y383610D01*
X103940D01*
Y388910D01*
D02*
G37*
G36*
X471440Y242710D02*
X464140D01*
Y237410D01*
X471440D01*
Y242710D01*
D02*
G37*
G36*
Y235410D02*
X464140D01*
Y230110D01*
X471440D01*
Y235410D01*
D02*
G37*
G36*
X348940Y242710D02*
X341640D01*
Y237410D01*
X348940D01*
Y242710D01*
D02*
G37*
G36*
Y235410D02*
X341640D01*
Y230110D01*
X348940D01*
Y235410D01*
D02*
G37*
G36*
X226440Y242710D02*
X219140D01*
Y237410D01*
X226440D01*
Y242710D01*
D02*
G37*
G36*
Y235410D02*
X219140D01*
Y230110D01*
X226440D01*
Y235410D01*
D02*
G37*
G36*
X103940Y242710D02*
X96640D01*
Y237410D01*
X103940D01*
Y242710D01*
D02*
G37*
G36*
Y235410D02*
X96640D01*
Y230110D01*
X103940D01*
Y235410D01*
D02*
G37*
G36*
X471440Y89210D02*
X464140D01*
Y83910D01*
X471440D01*
Y89210D01*
D02*
G37*
G36*
Y81910D02*
X464140D01*
Y76610D01*
X471440D01*
Y81910D01*
D02*
G37*
G36*
X348940Y89210D02*
X341640D01*
Y83910D01*
X348940D01*
Y89210D01*
D02*
G37*
G36*
Y81910D02*
X341640D01*
Y76610D01*
X348940D01*
Y81910D01*
D02*
G37*
G36*
X226440Y89210D02*
X219140D01*
Y83910D01*
X226440D01*
Y89210D01*
D02*
G37*
G36*
Y81910D02*
X219140D01*
Y76610D01*
X226440D01*
Y81910D01*
D02*
G37*
G36*
X103940Y89210D02*
X96640D01*
Y83910D01*
X103940D01*
Y89210D01*
D02*
G37*
G36*
Y81910D02*
X96640D01*
Y76610D01*
X103940D01*
Y81910D01*
D02*
G37*
%LPD*%
D10*
X450000Y40000D02*
D03*
X430000Y545000D02*
D03*
X120000D02*
D03*
X100000Y40000D02*
D03*
D11*
X51390Y195160D02*
D03*
Y206160D02*
D03*
X115890Y109410D02*
D03*
Y120410D02*
D03*
X123890Y109410D02*
D03*
Y120410D02*
D03*
X53390Y139410D02*
D03*
Y150410D02*
D03*
Y124910D02*
D03*
Y135910D02*
D03*
X173890Y195160D02*
D03*
Y206160D02*
D03*
X238390Y109410D02*
D03*
Y120410D02*
D03*
X246390Y109410D02*
D03*
Y120410D02*
D03*
X175890Y139410D02*
D03*
Y150410D02*
D03*
Y124910D02*
D03*
Y135910D02*
D03*
X296390Y195160D02*
D03*
Y206160D02*
D03*
X360890Y109410D02*
D03*
Y120410D02*
D03*
X368890Y109410D02*
D03*
Y120410D02*
D03*
X298390Y139410D02*
D03*
Y150410D02*
D03*
Y124910D02*
D03*
Y135910D02*
D03*
X418890Y195160D02*
D03*
Y206160D02*
D03*
X483390Y109410D02*
D03*
Y120410D02*
D03*
X491390Y109410D02*
D03*
Y120410D02*
D03*
X420890Y139410D02*
D03*
Y150410D02*
D03*
Y124910D02*
D03*
Y135910D02*
D03*
X51390Y348660D02*
D03*
Y359660D02*
D03*
X115890Y262910D02*
D03*
Y273910D02*
D03*
X123890Y262910D02*
D03*
Y273910D02*
D03*
X53390Y292910D02*
D03*
Y303910D02*
D03*
Y278410D02*
D03*
Y289410D02*
D03*
X173890Y348660D02*
D03*
Y359660D02*
D03*
X238390Y262910D02*
D03*
Y273910D02*
D03*
X246390Y262910D02*
D03*
Y273910D02*
D03*
X175890Y292910D02*
D03*
Y303910D02*
D03*
Y278410D02*
D03*
Y289410D02*
D03*
X296390Y348660D02*
D03*
Y359660D02*
D03*
X360890Y262910D02*
D03*
Y273910D02*
D03*
X368890Y262910D02*
D03*
Y273910D02*
D03*
X298390Y292910D02*
D03*
Y303910D02*
D03*
Y278410D02*
D03*
Y289410D02*
D03*
X418890Y348660D02*
D03*
Y359660D02*
D03*
X483390Y262910D02*
D03*
Y273910D02*
D03*
X491390Y262910D02*
D03*
Y273910D02*
D03*
X420890Y292910D02*
D03*
Y303910D02*
D03*
Y278410D02*
D03*
Y289410D02*
D03*
X51390Y502160D02*
D03*
Y513160D02*
D03*
X115890Y416410D02*
D03*
Y427410D02*
D03*
X123890Y416410D02*
D03*
Y427410D02*
D03*
X53390Y446410D02*
D03*
Y457410D02*
D03*
Y431910D02*
D03*
Y442910D02*
D03*
X173890Y502160D02*
D03*
Y513160D02*
D03*
X238390Y416410D02*
D03*
Y427410D02*
D03*
X246390Y416410D02*
D03*
Y427410D02*
D03*
X175890Y446410D02*
D03*
Y457410D02*
D03*
Y431910D02*
D03*
Y442910D02*
D03*
X296390Y502160D02*
D03*
Y513160D02*
D03*
X360890Y416410D02*
D03*
Y427410D02*
D03*
X368890Y416410D02*
D03*
Y427410D02*
D03*
X298390Y446410D02*
D03*
Y457410D02*
D03*
Y431910D02*
D03*
Y442910D02*
D03*
X418890Y502160D02*
D03*
Y513160D02*
D03*
X483390Y416410D02*
D03*
Y427410D02*
D03*
X491390Y416410D02*
D03*
Y427410D02*
D03*
X420890Y446410D02*
D03*
Y457410D02*
D03*
Y431910D02*
D03*
Y442910D02*
D03*
D12*
X132140Y134910D02*
D03*
Y129410D02*
D03*
X102140Y177910D02*
D03*
Y183610D02*
D03*
X132107Y152693D02*
D03*
Y158392D02*
D03*
X132140Y87410D02*
D03*
Y93110D02*
D03*
X254640Y134910D02*
D03*
Y129410D02*
D03*
X224640Y177910D02*
D03*
Y183610D02*
D03*
X254607Y152693D02*
D03*
Y158392D02*
D03*
X254640Y87410D02*
D03*
Y93110D02*
D03*
X377140Y134910D02*
D03*
Y129410D02*
D03*
X347140Y177910D02*
D03*
Y183610D02*
D03*
X377107Y152693D02*
D03*
Y158392D02*
D03*
X377140Y87410D02*
D03*
Y93110D02*
D03*
X499640Y134910D02*
D03*
Y129410D02*
D03*
X469640Y177910D02*
D03*
Y183610D02*
D03*
X499607Y152693D02*
D03*
Y158392D02*
D03*
X499640Y87410D02*
D03*
Y93110D02*
D03*
X132140Y288410D02*
D03*
Y282910D02*
D03*
X102140Y331410D02*
D03*
Y337110D02*
D03*
X132107Y306192D02*
D03*
Y311893D02*
D03*
X132140Y240910D02*
D03*
Y246610D02*
D03*
X254640Y288410D02*
D03*
Y282910D02*
D03*
X224640Y331410D02*
D03*
Y337110D02*
D03*
X254607Y306192D02*
D03*
Y311893D02*
D03*
X254640Y240910D02*
D03*
Y246610D02*
D03*
X377140Y288410D02*
D03*
Y282910D02*
D03*
X347140Y331410D02*
D03*
Y337110D02*
D03*
X377107Y306192D02*
D03*
Y311893D02*
D03*
X377140Y240910D02*
D03*
Y246610D02*
D03*
X499640Y288410D02*
D03*
Y282910D02*
D03*
X469640Y331410D02*
D03*
Y337110D02*
D03*
X499607Y306192D02*
D03*
Y311893D02*
D03*
X499640Y240910D02*
D03*
Y246610D02*
D03*
X132140Y441910D02*
D03*
Y436410D02*
D03*
X102140Y484910D02*
D03*
Y490610D02*
D03*
X132107Y459692D02*
D03*
Y465392D02*
D03*
X132140Y394410D02*
D03*
Y400110D02*
D03*
X254640Y441910D02*
D03*
Y436410D02*
D03*
X224640Y484910D02*
D03*
Y490610D02*
D03*
X254607Y459692D02*
D03*
Y465392D02*
D03*
X254640Y394410D02*
D03*
Y400110D02*
D03*
X377140Y441910D02*
D03*
Y436410D02*
D03*
X347140Y484910D02*
D03*
Y490610D02*
D03*
X377107Y459692D02*
D03*
Y465392D02*
D03*
X377140Y394410D02*
D03*
Y400110D02*
D03*
X499640Y441910D02*
D03*
Y436410D02*
D03*
X469640Y484910D02*
D03*
Y490610D02*
D03*
X499607Y459692D02*
D03*
Y465392D02*
D03*
X499640Y394410D02*
D03*
Y400110D02*
D03*
D13*
X67020Y128360D02*
D03*
Y141060D02*
D03*
Y153760D02*
D03*
Y166460D02*
D03*
X121260Y128360D02*
D03*
Y141060D02*
D03*
Y166460D02*
D03*
Y153760D02*
D03*
X189520Y128360D02*
D03*
Y141060D02*
D03*
Y153760D02*
D03*
Y166460D02*
D03*
X243760Y128360D02*
D03*
Y141060D02*
D03*
Y166460D02*
D03*
Y153760D02*
D03*
X312020Y128360D02*
D03*
Y141060D02*
D03*
Y153760D02*
D03*
Y166460D02*
D03*
X366260Y128360D02*
D03*
Y141060D02*
D03*
Y166460D02*
D03*
Y153760D02*
D03*
X434520Y128360D02*
D03*
Y141060D02*
D03*
Y153760D02*
D03*
Y166460D02*
D03*
X488760Y128360D02*
D03*
Y141060D02*
D03*
Y166460D02*
D03*
Y153760D02*
D03*
X67020Y281860D02*
D03*
Y294560D02*
D03*
Y307260D02*
D03*
Y319960D02*
D03*
X121260Y281860D02*
D03*
Y294560D02*
D03*
Y319960D02*
D03*
Y307260D02*
D03*
X189520Y281860D02*
D03*
Y294560D02*
D03*
Y307260D02*
D03*
Y319960D02*
D03*
X243760Y281860D02*
D03*
Y294560D02*
D03*
Y319960D02*
D03*
Y307260D02*
D03*
X312020Y281860D02*
D03*
Y294560D02*
D03*
Y307260D02*
D03*
Y319960D02*
D03*
X366260Y281860D02*
D03*
Y294560D02*
D03*
Y319960D02*
D03*
Y307260D02*
D03*
X434520Y281860D02*
D03*
Y294560D02*
D03*
Y307260D02*
D03*
Y319960D02*
D03*
X488760Y281860D02*
D03*
Y294560D02*
D03*
Y319960D02*
D03*
Y307260D02*
D03*
X67020Y435360D02*
D03*
Y448060D02*
D03*
Y460760D02*
D03*
Y473460D02*
D03*
X121260Y435360D02*
D03*
Y448060D02*
D03*
Y473460D02*
D03*
Y460760D02*
D03*
X189520Y435360D02*
D03*
Y448060D02*
D03*
Y460760D02*
D03*
Y473460D02*
D03*
X243760Y435360D02*
D03*
Y448060D02*
D03*
Y473460D02*
D03*
Y460760D02*
D03*
X312020Y435360D02*
D03*
Y448060D02*
D03*
Y460760D02*
D03*
Y473460D02*
D03*
X366260Y435360D02*
D03*
Y448060D02*
D03*
Y473460D02*
D03*
Y460760D02*
D03*
X434520Y435360D02*
D03*
Y448060D02*
D03*
Y460760D02*
D03*
Y473460D02*
D03*
X488760Y435360D02*
D03*
Y448060D02*
D03*
Y473460D02*
D03*
Y460760D02*
D03*
D14*
X84890Y181910D02*
D03*
X75390D02*
D03*
X94390D02*
D03*
X75390Y206910D02*
D03*
X94390D02*
D03*
X207390Y181910D02*
D03*
X197890D02*
D03*
X216890D02*
D03*
X197890Y206910D02*
D03*
X216890D02*
D03*
X329890Y181910D02*
D03*
X320390D02*
D03*
X339390D02*
D03*
X320390Y206910D02*
D03*
X339390D02*
D03*
X452390Y181910D02*
D03*
X442890D02*
D03*
X461890D02*
D03*
X442890Y206910D02*
D03*
X461890D02*
D03*
X84890Y335410D02*
D03*
X75390D02*
D03*
X94390D02*
D03*
X75390Y360410D02*
D03*
X94390D02*
D03*
X207390Y335410D02*
D03*
X197890D02*
D03*
X216890D02*
D03*
X197890Y360410D02*
D03*
X216890D02*
D03*
X329890Y335410D02*
D03*
X320390D02*
D03*
X339390D02*
D03*
X320390Y360410D02*
D03*
X339390D02*
D03*
X452390Y335410D02*
D03*
X442890D02*
D03*
X461890D02*
D03*
X442890Y360410D02*
D03*
X461890D02*
D03*
X84890Y488910D02*
D03*
X75390D02*
D03*
X94390D02*
D03*
X75390Y513910D02*
D03*
X94390D02*
D03*
X207390Y488910D02*
D03*
X197890D02*
D03*
X216890D02*
D03*
X197890Y513910D02*
D03*
X216890D02*
D03*
X329890Y488910D02*
D03*
X320390D02*
D03*
X339390D02*
D03*
X320390Y513910D02*
D03*
X339390D02*
D03*
X452390Y488910D02*
D03*
X442890D02*
D03*
X461890D02*
D03*
X442890Y513910D02*
D03*
X461890D02*
D03*
D15*
X51537Y160113D02*
D03*
X57237D02*
D03*
X109140Y180410D02*
D03*
X114640D02*
D03*
X109110Y175190D02*
D03*
X114610D02*
D03*
X121640Y103160D02*
D03*
X127140D02*
D03*
X111140D02*
D03*
X116640D02*
D03*
X174037Y160113D02*
D03*
X179737D02*
D03*
X231640Y180410D02*
D03*
X237140D02*
D03*
X231610Y175190D02*
D03*
X237110D02*
D03*
X244140Y103160D02*
D03*
X249640D02*
D03*
X233640D02*
D03*
X239140D02*
D03*
X296537Y160113D02*
D03*
X302237D02*
D03*
X354140Y180410D02*
D03*
X359640D02*
D03*
X354110Y175190D02*
D03*
X359610D02*
D03*
X366640Y103160D02*
D03*
X372140D02*
D03*
X356140D02*
D03*
X361640D02*
D03*
X419037Y160113D02*
D03*
X424737D02*
D03*
X476640Y180410D02*
D03*
X482140D02*
D03*
X476610Y175190D02*
D03*
X482110D02*
D03*
X489140Y103160D02*
D03*
X494640D02*
D03*
X478640D02*
D03*
X484140D02*
D03*
X51537Y313613D02*
D03*
X57237D02*
D03*
X109140Y333910D02*
D03*
X114640D02*
D03*
X109110Y328690D02*
D03*
X114610D02*
D03*
X121640Y256660D02*
D03*
X127140D02*
D03*
X111140D02*
D03*
X116640D02*
D03*
X174037Y313613D02*
D03*
X179737D02*
D03*
X231640Y333910D02*
D03*
X237140D02*
D03*
X231610Y328690D02*
D03*
X237110D02*
D03*
X244140Y256660D02*
D03*
X249640D02*
D03*
X233640D02*
D03*
X239140D02*
D03*
X296537Y313613D02*
D03*
X302237D02*
D03*
X354140Y333910D02*
D03*
X359640D02*
D03*
X354110Y328690D02*
D03*
X359610D02*
D03*
X366640Y256660D02*
D03*
X372140D02*
D03*
X356140D02*
D03*
X361640D02*
D03*
X419037Y313613D02*
D03*
X424737D02*
D03*
X476640Y333910D02*
D03*
X482140D02*
D03*
X476610Y328690D02*
D03*
X482110D02*
D03*
X489140Y256660D02*
D03*
X494640D02*
D03*
X478640D02*
D03*
X484140D02*
D03*
X51537Y467113D02*
D03*
X57237D02*
D03*
X109140Y487410D02*
D03*
X114640D02*
D03*
X109110Y482190D02*
D03*
X114610D02*
D03*
X121640Y410160D02*
D03*
X127140D02*
D03*
X111140D02*
D03*
X116640D02*
D03*
X174037Y467113D02*
D03*
X179737D02*
D03*
X231640Y487410D02*
D03*
X237140D02*
D03*
X231610Y482190D02*
D03*
X237110D02*
D03*
X244140Y410160D02*
D03*
X249640D02*
D03*
X233640D02*
D03*
X239140D02*
D03*
X296537Y467113D02*
D03*
X302237D02*
D03*
X354140Y487410D02*
D03*
X359640D02*
D03*
X354110Y482190D02*
D03*
X359610D02*
D03*
X366640Y410160D02*
D03*
X372140D02*
D03*
X356140D02*
D03*
X361640D02*
D03*
X419037Y467113D02*
D03*
X424737D02*
D03*
X476640Y487410D02*
D03*
X482140D02*
D03*
X476610Y482190D02*
D03*
X482110D02*
D03*
X489140Y410160D02*
D03*
X494640D02*
D03*
X478640D02*
D03*
X484140D02*
D03*
D16*
X55890Y101910D02*
D03*
Y82910D02*
D03*
X95640Y101910D02*
D03*
Y82910D02*
D03*
X62890Y209910D02*
D03*
Y190910D02*
D03*
X178390Y101910D02*
D03*
Y82910D02*
D03*
X218140Y101910D02*
D03*
Y82910D02*
D03*
X185390Y209910D02*
D03*
Y190910D02*
D03*
X300890Y101910D02*
D03*
Y82910D02*
D03*
X340640Y101910D02*
D03*
Y82910D02*
D03*
X307890Y209910D02*
D03*
Y190910D02*
D03*
X423390Y101910D02*
D03*
Y82910D02*
D03*
X463140Y101910D02*
D03*
Y82910D02*
D03*
X430390Y209910D02*
D03*
Y190910D02*
D03*
X55890Y255410D02*
D03*
Y236410D02*
D03*
X95640Y255410D02*
D03*
Y236410D02*
D03*
X62890Y363410D02*
D03*
Y344410D02*
D03*
X178390Y255410D02*
D03*
Y236410D02*
D03*
X218140Y255410D02*
D03*
Y236410D02*
D03*
X185390Y363410D02*
D03*
Y344410D02*
D03*
X300890Y255410D02*
D03*
Y236410D02*
D03*
X340640Y255410D02*
D03*
Y236410D02*
D03*
X307890Y363410D02*
D03*
Y344410D02*
D03*
X423390Y255410D02*
D03*
Y236410D02*
D03*
X463140Y255410D02*
D03*
Y236410D02*
D03*
X430390Y363410D02*
D03*
Y344410D02*
D03*
X55890Y408910D02*
D03*
Y389910D02*
D03*
X95640Y408910D02*
D03*
Y389910D02*
D03*
X62890Y516910D02*
D03*
Y497910D02*
D03*
X178390Y408910D02*
D03*
Y389910D02*
D03*
X218140Y408910D02*
D03*
Y389910D02*
D03*
X185390Y516910D02*
D03*
Y497910D02*
D03*
X300890Y408910D02*
D03*
Y389910D02*
D03*
X340640Y408910D02*
D03*
Y389910D02*
D03*
X307890Y516910D02*
D03*
Y497910D02*
D03*
X423390Y408910D02*
D03*
Y389910D02*
D03*
X463140Y408910D02*
D03*
Y389910D02*
D03*
X430390Y516910D02*
D03*
Y497910D02*
D03*
D17*
X60890Y177160D02*
D03*
Y182410D02*
D03*
X126700Y175564D02*
D03*
Y180814D02*
D03*
X183390Y177160D02*
D03*
Y182410D02*
D03*
X249200Y175564D02*
D03*
Y180814D02*
D03*
X305890Y177160D02*
D03*
Y182410D02*
D03*
X371701Y175564D02*
D03*
Y180814D02*
D03*
X428390Y177160D02*
D03*
Y182410D02*
D03*
X494201Y175564D02*
D03*
Y180814D02*
D03*
X60890Y330660D02*
D03*
Y335910D02*
D03*
X126700Y329064D02*
D03*
Y334314D02*
D03*
X183390Y330660D02*
D03*
Y335910D02*
D03*
X249200Y329064D02*
D03*
Y334314D02*
D03*
X305890Y330660D02*
D03*
Y335910D02*
D03*
X371701Y329064D02*
D03*
Y334314D02*
D03*
X428390Y330660D02*
D03*
Y335910D02*
D03*
X494201Y329064D02*
D03*
Y334314D02*
D03*
X60890Y484160D02*
D03*
Y489410D02*
D03*
X126700Y482564D02*
D03*
Y487814D02*
D03*
X183390Y484160D02*
D03*
Y489410D02*
D03*
X249200Y482564D02*
D03*
Y487814D02*
D03*
X305890Y484160D02*
D03*
Y489410D02*
D03*
X371701Y482564D02*
D03*
Y487814D02*
D03*
X428390Y484160D02*
D03*
Y489410D02*
D03*
X494201Y482564D02*
D03*
Y487814D02*
D03*
D18*
X61140Y114410D02*
D03*
X55890D02*
D03*
X97515D02*
D03*
X92265D02*
D03*
X108140D02*
D03*
X102890D02*
D03*
X183640D02*
D03*
X178390D02*
D03*
X220015D02*
D03*
X214765D02*
D03*
X230640D02*
D03*
X225390D02*
D03*
X306140D02*
D03*
X300890D02*
D03*
X342515D02*
D03*
X337265D02*
D03*
X353140D02*
D03*
X347890D02*
D03*
X428640D02*
D03*
X423390D02*
D03*
X465015D02*
D03*
X459765D02*
D03*
X475640D02*
D03*
X470390D02*
D03*
X61140Y267910D02*
D03*
X55890D02*
D03*
X97515D02*
D03*
X92265D02*
D03*
X108140D02*
D03*
X102890D02*
D03*
X183640D02*
D03*
X178390D02*
D03*
X220015D02*
D03*
X214765D02*
D03*
X230640D02*
D03*
X225390D02*
D03*
X306140D02*
D03*
X300890D02*
D03*
X342515D02*
D03*
X337265D02*
D03*
X353140D02*
D03*
X347890D02*
D03*
X428640D02*
D03*
X423390D02*
D03*
X465015D02*
D03*
X459765D02*
D03*
X475640D02*
D03*
X470390D02*
D03*
X61140Y421410D02*
D03*
X55890D02*
D03*
X97515D02*
D03*
X92265D02*
D03*
X108140D02*
D03*
X102890D02*
D03*
X183640D02*
D03*
X178390D02*
D03*
X220015D02*
D03*
X214765D02*
D03*
X230640D02*
D03*
X225390D02*
D03*
X306140D02*
D03*
X300890D02*
D03*
X342515D02*
D03*
X337265D02*
D03*
X353140D02*
D03*
X347890D02*
D03*
X428640D02*
D03*
X423390D02*
D03*
X465015D02*
D03*
X459765D02*
D03*
X475640D02*
D03*
X470390D02*
D03*
D19*
X125513Y78064D02*
D03*
Y86864D02*
D03*
X117090Y78064D02*
D03*
Y86864D02*
D03*
X248013Y78064D02*
D03*
Y86864D02*
D03*
X239590Y78064D02*
D03*
Y86864D02*
D03*
X370513Y78064D02*
D03*
Y86864D02*
D03*
X362090Y78064D02*
D03*
Y86864D02*
D03*
X493013Y78064D02*
D03*
Y86864D02*
D03*
X484590Y78064D02*
D03*
Y86864D02*
D03*
X125513Y231564D02*
D03*
Y240364D02*
D03*
X117090Y231564D02*
D03*
Y240364D02*
D03*
X248013Y231564D02*
D03*
Y240364D02*
D03*
X239590Y231564D02*
D03*
Y240364D02*
D03*
X370513Y231564D02*
D03*
Y240364D02*
D03*
X362090Y231564D02*
D03*
Y240364D02*
D03*
X493013Y231564D02*
D03*
Y240364D02*
D03*
X484590Y231564D02*
D03*
Y240364D02*
D03*
X125513Y385064D02*
D03*
Y393864D02*
D03*
X117090Y385064D02*
D03*
Y393864D02*
D03*
X248013Y385064D02*
D03*
Y393864D02*
D03*
X239590Y385064D02*
D03*
Y393864D02*
D03*
X370513Y385064D02*
D03*
Y393864D02*
D03*
X362090Y385064D02*
D03*
Y393864D02*
D03*
X493013Y385064D02*
D03*
Y393864D02*
D03*
X484590Y385064D02*
D03*
Y393864D02*
D03*
D20*
X108390Y191410D02*
D03*
X127390D02*
D03*
X230890D02*
D03*
X249890D02*
D03*
X353390D02*
D03*
X372390D02*
D03*
X475890D02*
D03*
X494890D02*
D03*
X108390Y344910D02*
D03*
X127390D02*
D03*
X230890D02*
D03*
X249890D02*
D03*
X353390D02*
D03*
X372390D02*
D03*
X475890D02*
D03*
X494890D02*
D03*
X108390Y498410D02*
D03*
X127390D02*
D03*
X230890D02*
D03*
X249890D02*
D03*
X353390D02*
D03*
X372390D02*
D03*
X475890D02*
D03*
X494890D02*
D03*
D21*
X68890Y103035D02*
D03*
X82390D02*
D03*
X69140Y115035D02*
D03*
X82640D02*
D03*
X68890Y91410D02*
D03*
X82390D02*
D03*
X68890Y79410D02*
D03*
X82390D02*
D03*
X191390Y103035D02*
D03*
X204890D02*
D03*
X191640Y115035D02*
D03*
X205140D02*
D03*
X191390Y91410D02*
D03*
X204890D02*
D03*
X191390Y79410D02*
D03*
X204890D02*
D03*
X313890Y103035D02*
D03*
X327390D02*
D03*
X314140Y115035D02*
D03*
X327640D02*
D03*
X313890Y91410D02*
D03*
X327390D02*
D03*
X313890Y79410D02*
D03*
X327390D02*
D03*
X436390Y103035D02*
D03*
X449890D02*
D03*
X436640Y115035D02*
D03*
X450140D02*
D03*
X436390Y91410D02*
D03*
X449890D02*
D03*
X436390Y79410D02*
D03*
X449890D02*
D03*
X68890Y256535D02*
D03*
X82390D02*
D03*
X69140Y268535D02*
D03*
X82640D02*
D03*
X68890Y244910D02*
D03*
X82390D02*
D03*
X68890Y232910D02*
D03*
X82390D02*
D03*
X191390Y256535D02*
D03*
X204890D02*
D03*
X191640Y268535D02*
D03*
X205140D02*
D03*
X191390Y244910D02*
D03*
X204890D02*
D03*
X191390Y232910D02*
D03*
X204890D02*
D03*
X313890Y256535D02*
D03*
X327390D02*
D03*
X314140Y268535D02*
D03*
X327640D02*
D03*
X313890Y244910D02*
D03*
X327390D02*
D03*
X313890Y232910D02*
D03*
X327390D02*
D03*
X436390Y256535D02*
D03*
X449890D02*
D03*
X436640Y268535D02*
D03*
X450140D02*
D03*
X436390Y244910D02*
D03*
X449890D02*
D03*
X436390Y232910D02*
D03*
X449890D02*
D03*
X68890Y410035D02*
D03*
X82390D02*
D03*
X69140Y422035D02*
D03*
X82640D02*
D03*
X68890Y398410D02*
D03*
X82390D02*
D03*
X68890Y386410D02*
D03*
X82390D02*
D03*
X191390Y410035D02*
D03*
X204890D02*
D03*
X191640Y422035D02*
D03*
X205140D02*
D03*
X191390Y398410D02*
D03*
X204890D02*
D03*
X191390Y386410D02*
D03*
X204890D02*
D03*
X313890Y410035D02*
D03*
X327390D02*
D03*
X314140Y422035D02*
D03*
X327640D02*
D03*
X313890Y398410D02*
D03*
X327390D02*
D03*
X313890Y386410D02*
D03*
X327390D02*
D03*
X436390Y410035D02*
D03*
X449890D02*
D03*
X436640Y422035D02*
D03*
X450140D02*
D03*
X436390Y398410D02*
D03*
X449890D02*
D03*
X436390Y386410D02*
D03*
X449890D02*
D03*
D22*
X108890Y206910D02*
D03*
X126890D02*
D03*
X231390D02*
D03*
X249390D02*
D03*
X353890D02*
D03*
X371890D02*
D03*
X476390D02*
D03*
X494390D02*
D03*
X108890Y360410D02*
D03*
X126890D02*
D03*
X231390D02*
D03*
X249390D02*
D03*
X353890D02*
D03*
X371890D02*
D03*
X476390D02*
D03*
X494390D02*
D03*
X108890Y513910D02*
D03*
X126890D02*
D03*
X231390D02*
D03*
X249390D02*
D03*
X353890D02*
D03*
X371890D02*
D03*
X476390D02*
D03*
X494390D02*
D03*
D23*
X114890Y98410D02*
D03*
Y93410D02*
D03*
X124890D02*
D03*
X119890Y98410D02*
D03*
X124890D02*
D03*
X237390D02*
D03*
Y93410D02*
D03*
X247390D02*
D03*
X242390Y98410D02*
D03*
X247390D02*
D03*
X359890D02*
D03*
Y93410D02*
D03*
X369890D02*
D03*
X364890Y98410D02*
D03*
X369890D02*
D03*
X482390D02*
D03*
Y93410D02*
D03*
X492390D02*
D03*
X487390Y98410D02*
D03*
X492390D02*
D03*
X114890Y251910D02*
D03*
Y246910D02*
D03*
X124890D02*
D03*
X119890Y251910D02*
D03*
X124890D02*
D03*
X237390D02*
D03*
Y246910D02*
D03*
X247390D02*
D03*
X242390Y251910D02*
D03*
X247390D02*
D03*
X359890D02*
D03*
Y246910D02*
D03*
X369890D02*
D03*
X364890Y251910D02*
D03*
X369890D02*
D03*
X482390D02*
D03*
Y246910D02*
D03*
X492390D02*
D03*
X487390Y251910D02*
D03*
X492390D02*
D03*
X114890Y405410D02*
D03*
Y400410D02*
D03*
X124890D02*
D03*
X119890Y405410D02*
D03*
X124890D02*
D03*
X237390D02*
D03*
Y400410D02*
D03*
X247390D02*
D03*
X242390Y405410D02*
D03*
X247390D02*
D03*
X359890D02*
D03*
Y400410D02*
D03*
X369890D02*
D03*
X364890Y405410D02*
D03*
X369890D02*
D03*
X482390D02*
D03*
Y400410D02*
D03*
X492390D02*
D03*
X487390Y405410D02*
D03*
X492390D02*
D03*
D24*
X51848Y205843D02*
X53599Y208369D01*
X52528Y205022D02*
X53640Y203910D01*
Y202660D02*
X56092Y200208D01*
X51390Y206160D02*
X53599Y208369D01*
X51278Y205022D02*
X51848Y205843D01*
X51278Y205022D02*
X52528D01*
X53640Y202660D02*
Y203910D01*
X74390Y181910D02*
Y194910D01*
X56092Y200208D02*
X69092D01*
X74390Y194910D01*
X108140Y107360D02*
X108142D01*
X108140D02*
Y114410D01*
X132140Y102310D02*
Y129410D01*
X107949Y94469D02*
X111890Y98410D01*
X114890D01*
X117090Y86864D02*
X118790Y88564D01*
Y97039D02*
X119890Y98139D01*
X118790Y88564D02*
Y97039D01*
X121590Y92043D02*
Y94777D01*
X124699Y97886D01*
X112709Y93219D02*
X114699D01*
X110868Y91378D02*
X112709Y93219D01*
X110868Y89079D02*
Y91378D01*
X110390Y88601D02*
X110868Y89079D01*
X114699Y93219D02*
X114890Y93410D01*
X49890Y157280D02*
Y157551D01*
Y156874D02*
Y157280D01*
X51037Y159613D02*
X51537Y160113D01*
X50537Y159113D02*
X51037Y159613D01*
X107784Y213476D02*
X107793Y213467D01*
X93390Y209910D02*
X96956Y213476D01*
X107784D01*
X115832Y213467D02*
X120519Y208780D01*
X107793Y213467D02*
X115832D01*
X126520Y208780D02*
X126890Y208410D01*
X120519Y208780D02*
X126520D01*
X92390Y209910D02*
X93390D01*
X101741Y200660D02*
X115011D01*
X115890Y201539D02*
Y206910D01*
X99941Y198860D02*
X101741Y200660D01*
X115011D02*
X115890Y201539D01*
X129605Y171889D02*
X133140Y168354D01*
X117911Y171889D02*
X129605D01*
X114640Y175160D02*
X117911Y171889D01*
X132594Y94110D02*
Y95514D01*
X122640Y100660D02*
X124890Y98410D01*
X122640Y100660D02*
Y103160D01*
X117640Y100389D02*
Y102910D01*
Y100389D02*
X119890Y98139D01*
X117390Y103160D02*
X117640Y102910D01*
X126153Y107160D02*
X127152Y106162D01*
Y104148D02*
X128140Y103160D01*
X127152Y104148D02*
Y106162D01*
X123890Y107910D02*
X124640Y107160D01*
X126153D01*
X124699Y98219D02*
X124890Y98410D01*
X124699Y97886D02*
Y98219D01*
X121590Y92043D02*
X123063Y90570D01*
X125313Y86864D02*
X125513D01*
X123063Y89114D02*
Y90570D01*
Y89114D02*
X125313Y86864D01*
X108890Y206910D02*
X115890D01*
X92390Y206910D02*
Y209910D01*
X107920Y174190D02*
X108110D01*
X109140Y175221D02*
Y175410D01*
X108110Y174190D02*
X109140Y175221D01*
X105890Y172160D02*
X107920Y174190D01*
X95140Y172160D02*
X105890D01*
X54716Y173485D02*
X93815D01*
X95140Y172160D01*
X49140Y167909D02*
X54716Y173485D01*
X49140Y164135D02*
Y167909D01*
X133140Y163860D02*
Y168354D01*
Y163860D02*
X140440Y156560D01*
X50537Y158198D02*
Y159113D01*
X49890Y157551D02*
X50537Y158198D01*
X60145Y151260D02*
X62645Y153760D01*
X57039Y145160D02*
X60145Y148266D01*
X62645Y153760D02*
X66770D01*
X41640Y145160D02*
X57039D01*
X132135Y151837D02*
X132588D01*
X132135D02*
Y153315D01*
X73390Y204910D02*
Y205910D01*
X79440Y198860D02*
X99941D01*
X73390Y204910D02*
X79440Y198860D01*
X46519Y135910D02*
X53890D01*
X41319Y130710D02*
X46519Y135910D01*
X54540Y141060D02*
X66770D01*
X53890Y140410D02*
X54540Y141060D01*
X60145Y148266D02*
Y151260D01*
X41115Y156110D02*
X49140Y164135D01*
X108534Y114410D02*
X108607Y114483D01*
X108140Y114410D02*
X108534D01*
X174347Y205843D02*
X176099Y208369D01*
X175028Y205022D02*
X176140Y203910D01*
Y202660D02*
X178592Y200208D01*
X173890Y206160D02*
X176099Y208369D01*
X173778Y205022D02*
X174347Y205843D01*
X173778Y205022D02*
X175028D01*
X176140Y202660D02*
Y203910D01*
X196890Y181910D02*
Y194910D01*
X178592Y200208D02*
X191592D01*
X196890Y194910D01*
X230640Y107360D02*
X230642D01*
X230640D02*
Y114410D01*
X254640Y102310D02*
Y129410D01*
X230449Y94469D02*
X234390Y98410D01*
X237390D01*
X239590Y86864D02*
X241290Y88564D01*
Y97039D02*
X242390Y98139D01*
X241290Y88564D02*
Y97039D01*
X244090Y92043D02*
Y94777D01*
X247199Y97886D01*
X235209Y93219D02*
X237199D01*
X233368Y91378D02*
X235209Y93219D01*
X233368Y89079D02*
Y91378D01*
X232890Y88601D02*
X233368Y89079D01*
X237199Y93219D02*
X237390Y93410D01*
X172390Y157280D02*
Y157551D01*
Y156874D02*
Y157280D01*
X173537Y159613D02*
X174037Y160113D01*
X173037Y159113D02*
X173537Y159613D01*
X230284Y213476D02*
X230293Y213467D01*
X215890Y209910D02*
X219456Y213476D01*
X230284D01*
X238332Y213467D02*
X243019Y208780D01*
X230293Y213467D02*
X238332D01*
X249020Y208780D02*
X249390Y208410D01*
X243019Y208780D02*
X249020D01*
X214890Y209910D02*
X215890D01*
X224241Y200660D02*
X237511D01*
X238390Y201539D02*
Y206910D01*
X222441Y198860D02*
X224241Y200660D01*
X237511D02*
X238390Y201539D01*
X252105Y171889D02*
X255640Y168354D01*
X240411Y171889D02*
X252105D01*
X237140Y175160D02*
X240411Y171889D01*
X255094Y94110D02*
Y95514D01*
X245140Y100660D02*
X247390Y98410D01*
X245140Y100660D02*
Y103160D01*
X240140Y100389D02*
Y102910D01*
Y100389D02*
X242390Y98139D01*
X239890Y103160D02*
X240140Y102910D01*
X248654Y107160D02*
X249652Y106162D01*
Y104148D02*
X250640Y103160D01*
X249652Y104148D02*
Y106162D01*
X246390Y107910D02*
X247140Y107160D01*
X248654D01*
X247199Y98219D02*
X247390Y98410D01*
X247199Y97886D02*
Y98219D01*
X244090Y92043D02*
X245563Y90570D01*
X247813Y86864D02*
X248013D01*
X245563Y89114D02*
Y90570D01*
Y89114D02*
X247813Y86864D01*
X231390Y206910D02*
X238390D01*
X214890Y206910D02*
Y209910D01*
X230420Y174190D02*
X230610D01*
X231640Y175221D02*
Y175410D01*
X230610Y174190D02*
X231640Y175221D01*
X228390Y172160D02*
X230420Y174190D01*
X217640Y172160D02*
X228390D01*
X177216Y173485D02*
X216315D01*
X217640Y172160D01*
X171640Y167909D02*
X177216Y173485D01*
X171640Y164135D02*
Y167909D01*
X255640Y163860D02*
Y168354D01*
Y163860D02*
X262940Y156560D01*
X173037Y158198D02*
Y159113D01*
X172390Y157551D02*
X173037Y158198D01*
X182645Y151260D02*
X185145Y153760D01*
X179539Y145160D02*
X182645Y148266D01*
X185145Y153760D02*
X189270D01*
X164140Y145160D02*
X179539D01*
X254635Y151837D02*
X255088D01*
X254635D02*
Y153315D01*
X195890Y204910D02*
Y205910D01*
X201940Y198860D02*
X222441D01*
X195890Y204910D02*
X201940Y198860D01*
X169019Y135910D02*
X176390D01*
X163819Y130710D02*
X169019Y135910D01*
X177040Y141060D02*
X189270D01*
X176390Y140410D02*
X177040Y141060D01*
X182645Y148266D02*
Y151260D01*
X163615Y156110D02*
X171640Y164135D01*
X231034Y114410D02*
X231107Y114483D01*
X230640Y114410D02*
X231034D01*
X296847Y205843D02*
X298599Y208369D01*
X297528Y205022D02*
X298640Y203910D01*
Y202660D02*
X301092Y200208D01*
X296390Y206160D02*
X298599Y208369D01*
X296278Y205022D02*
X296847Y205843D01*
X296278Y205022D02*
X297528D01*
X298640Y202660D02*
Y203910D01*
X319390Y181910D02*
Y194910D01*
X301092Y200208D02*
X314092D01*
X319390Y194910D01*
X353140Y107360D02*
X353142D01*
X353140D02*
Y114410D01*
X377140Y102310D02*
Y129410D01*
X352949Y94469D02*
X356890Y98410D01*
X359890D01*
X362090Y86864D02*
X363790Y88564D01*
Y97039D02*
X364890Y98139D01*
X363790Y88564D02*
Y97039D01*
X366590Y92043D02*
Y94777D01*
X369699Y97886D01*
X357709Y93219D02*
X359699D01*
X355868Y91378D02*
X357709Y93219D01*
X355868Y89079D02*
Y91378D01*
X355390Y88601D02*
X355868Y89079D01*
X359699Y93219D02*
X359890Y93410D01*
X294890Y157280D02*
Y157551D01*
Y156874D02*
Y157280D01*
X296037Y159613D02*
X296537Y160113D01*
X295537Y159113D02*
X296037Y159613D01*
X352784Y213476D02*
X352793Y213467D01*
X338390Y209910D02*
X341956Y213476D01*
X352784D01*
X360832Y213467D02*
X365519Y208780D01*
X352793Y213467D02*
X360832D01*
X371520Y208780D02*
X371890Y208410D01*
X365519Y208780D02*
X371520D01*
X337390Y209910D02*
X338390D01*
X346741Y200660D02*
X360011D01*
X360890Y201539D02*
Y206910D01*
X344941Y198860D02*
X346741Y200660D01*
X360011D02*
X360890Y201539D01*
X374605Y171889D02*
X378140Y168354D01*
X362911Y171889D02*
X374605D01*
X359640Y175160D02*
X362911Y171889D01*
X377594Y94110D02*
Y95514D01*
X367640Y100660D02*
X369890Y98410D01*
X367640Y100660D02*
Y103160D01*
X362640Y100389D02*
Y102910D01*
Y100389D02*
X364890Y98139D01*
X362390Y103160D02*
X362640Y102910D01*
X371153Y107160D02*
X372152Y106162D01*
Y104148D02*
X373140Y103160D01*
X372152Y104148D02*
Y106162D01*
X368890Y107910D02*
X369640Y107160D01*
X371153D01*
X369699Y98219D02*
X369890Y98410D01*
X369699Y97886D02*
Y98219D01*
X366590Y92043D02*
X368063Y90570D01*
X370313Y86864D02*
X370513D01*
X368063Y89114D02*
Y90570D01*
Y89114D02*
X370313Y86864D01*
X353890Y206910D02*
X360890D01*
X337390Y206910D02*
Y209910D01*
X352920Y174190D02*
X353110D01*
X354140Y175221D02*
Y175410D01*
X353110Y174190D02*
X354140Y175221D01*
X350890Y172160D02*
X352920Y174190D01*
X340140Y172160D02*
X350890D01*
X299716Y173485D02*
X338815D01*
X340140Y172160D01*
X294140Y167909D02*
X299716Y173485D01*
X294140Y164135D02*
Y167909D01*
X378140Y163860D02*
Y168354D01*
Y163860D02*
X385440Y156560D01*
X295537Y158198D02*
Y159113D01*
X294890Y157551D02*
X295537Y158198D01*
X305145Y151260D02*
X307645Y153760D01*
X302039Y145160D02*
X305145Y148266D01*
X307645Y153760D02*
X311770D01*
X286640Y145160D02*
X302039D01*
X377135Y151837D02*
X377588D01*
X377135D02*
Y153315D01*
X318390Y204910D02*
Y205910D01*
X324440Y198860D02*
X344941D01*
X318390Y204910D02*
X324440Y198860D01*
X291519Y135910D02*
X298890D01*
X286319Y130710D02*
X291519Y135910D01*
X299540Y141060D02*
X311770D01*
X298890Y140410D02*
X299540Y141060D01*
X305145Y148266D02*
Y151260D01*
X286115Y156110D02*
X294140Y164135D01*
X353534Y114410D02*
X353607Y114483D01*
X353140Y114410D02*
X353534D01*
X419347Y205843D02*
X421099Y208369D01*
X420028Y205022D02*
X421140Y203910D01*
Y202660D02*
X423592Y200208D01*
X418890Y206160D02*
X421099Y208369D01*
X418778Y205022D02*
X419347Y205843D01*
X418778Y205022D02*
X420028D01*
X421140Y202660D02*
Y203910D01*
X441890Y181910D02*
Y194910D01*
X423592Y200208D02*
X436592D01*
X441890Y194910D01*
X475640Y107360D02*
X475642D01*
X475640D02*
Y114410D01*
X499640Y102310D02*
Y129410D01*
X475449Y94469D02*
X479390Y98410D01*
X482390D01*
X484590Y86864D02*
X486290Y88564D01*
Y97039D02*
X487390Y98139D01*
X486290Y88564D02*
Y97039D01*
X489090Y92043D02*
Y94777D01*
X492199Y97886D01*
X480209Y93219D02*
X482199D01*
X478368Y91378D02*
X480209Y93219D01*
X478368Y89079D02*
Y91378D01*
X477890Y88601D02*
X478368Y89079D01*
X482199Y93219D02*
X482390Y93410D01*
X417390Y157280D02*
Y157551D01*
Y156874D02*
Y157280D01*
X418537Y159613D02*
X419037Y160113D01*
X418037Y159113D02*
X418537Y159613D01*
X475284Y213476D02*
X475293Y213467D01*
X460890Y209910D02*
X464456Y213476D01*
X475284D01*
X483332Y213467D02*
X488019Y208780D01*
X475293Y213467D02*
X483332D01*
X494020Y208780D02*
X494390Y208410D01*
X488019Y208780D02*
X494020D01*
X459890Y209910D02*
X460890D01*
X469241Y200660D02*
X482511D01*
X483390Y201539D02*
Y206910D01*
X467441Y198860D02*
X469241Y200660D01*
X482511D02*
X483390Y201539D01*
X497105Y171889D02*
X500640Y168354D01*
X485411Y171889D02*
X497105D01*
X482140Y175160D02*
X485411Y171889D01*
X500094Y94110D02*
Y95514D01*
X490140Y100660D02*
X492390Y98410D01*
X490140Y100660D02*
Y103160D01*
X485140Y100389D02*
Y102910D01*
Y100389D02*
X487390Y98139D01*
X484890Y103160D02*
X485140Y102910D01*
X493653Y107160D02*
X494652Y106162D01*
Y104148D02*
X495640Y103160D01*
X494652Y104148D02*
Y106162D01*
X491390Y107910D02*
X492140Y107160D01*
X493653D01*
X492199Y98219D02*
X492390Y98410D01*
X492199Y97886D02*
Y98219D01*
X489090Y92043D02*
X490563Y90570D01*
X492813Y86864D02*
X493013D01*
X490563Y89114D02*
Y90570D01*
Y89114D02*
X492813Y86864D01*
X476390Y206910D02*
X483390D01*
X459890Y206910D02*
Y209910D01*
X475420Y174190D02*
X475610D01*
X476640Y175221D02*
Y175410D01*
X475610Y174190D02*
X476640Y175221D01*
X473390Y172160D02*
X475420Y174190D01*
X462640Y172160D02*
X473390D01*
X422216Y173485D02*
X461315D01*
X462640Y172160D01*
X416640Y167909D02*
X422216Y173485D01*
X416640Y164135D02*
Y167909D01*
X500640Y163860D02*
Y168354D01*
Y163860D02*
X507940Y156560D01*
X418037Y158198D02*
Y159113D01*
X417390Y157551D02*
X418037Y158198D01*
X427645Y151260D02*
X430145Y153760D01*
X424539Y145160D02*
X427645Y148266D01*
X430145Y153760D02*
X434270D01*
X409140Y145160D02*
X424539D01*
X499635Y151837D02*
X500088D01*
X499635D02*
Y153315D01*
X440890Y204910D02*
Y205910D01*
X446940Y198860D02*
X467441D01*
X440890Y204910D02*
X446940Y198860D01*
X414019Y135910D02*
X421390D01*
X408819Y130710D02*
X414019Y135910D01*
X422040Y141060D02*
X434270D01*
X421390Y140410D02*
X422040Y141060D01*
X427645Y148266D02*
Y151260D01*
X408615Y156110D02*
X416640Y164135D01*
X476034Y114410D02*
X476107Y114483D01*
X475640Y114410D02*
X476034D01*
X51848Y359343D02*
X53599Y361869D01*
X52528Y358522D02*
X53640Y357410D01*
Y356160D02*
X56092Y353708D01*
X51390Y359660D02*
X53599Y361869D01*
X51278Y358522D02*
X51848Y359343D01*
X51278Y358522D02*
X52528D01*
X53640Y356160D02*
Y357410D01*
X74390Y335410D02*
Y348410D01*
X56092Y353708D02*
X69092D01*
X74390Y348410D01*
X108140Y260860D02*
X108142D01*
X108140D02*
Y267910D01*
X132140Y255810D02*
Y282910D01*
X107949Y247969D02*
X111890Y251910D01*
X114890D01*
X117090Y240364D02*
X118790Y242064D01*
Y250539D02*
X119890Y251639D01*
X118790Y242064D02*
Y250539D01*
X121590Y245543D02*
Y248277D01*
X124699Y251386D01*
X112709Y246719D02*
X114699D01*
X110868Y244878D02*
X112709Y246719D01*
X110868Y242579D02*
Y244878D01*
X110390Y242101D02*
X110868Y242579D01*
X114699Y246719D02*
X114890Y246910D01*
X49890Y310780D02*
Y311050D01*
Y310374D02*
Y310780D01*
X51037Y313113D02*
X51537Y313613D01*
X50537Y312613D02*
X51037Y313113D01*
X107784Y366976D02*
X107793Y366967D01*
X93390Y363410D02*
X96956Y366976D01*
X107784D01*
X115832Y366967D02*
X120519Y362280D01*
X107793Y366967D02*
X115832D01*
X126520Y362280D02*
X126890Y361910D01*
X120519Y362280D02*
X126520D01*
X92390Y363410D02*
X93390D01*
X101741Y354160D02*
X115011D01*
X115890Y355039D02*
Y360410D01*
X99941Y352360D02*
X101741Y354160D01*
X115011D02*
X115890Y355039D01*
X129605Y325389D02*
X133140Y321854D01*
X117911Y325389D02*
X129605D01*
X114640Y328660D02*
X117911Y325389D01*
X132594Y247610D02*
Y249014D01*
X122640Y254160D02*
X124890Y251910D01*
X122640Y254160D02*
Y256660D01*
X117640Y253890D02*
Y256410D01*
Y253890D02*
X119890Y251639D01*
X117390Y256660D02*
X117640Y256410D01*
X126153Y260660D02*
X127152Y259662D01*
Y257648D02*
X128140Y256660D01*
X127152Y257648D02*
Y259662D01*
X123890Y261410D02*
X124640Y260660D01*
X126153D01*
X124699Y251719D02*
X124890Y251910D01*
X124699Y251386D02*
Y251719D01*
X121590Y245543D02*
X123063Y244070D01*
X125313Y240364D02*
X125513D01*
X123063Y242614D02*
Y244070D01*
Y242614D02*
X125313Y240364D01*
X108890Y360410D02*
X115890D01*
X92390Y360410D02*
Y363410D01*
X107920Y327690D02*
X108110D01*
X109140Y328720D02*
Y328910D01*
X108110Y327690D02*
X109140Y328720D01*
X105890Y325660D02*
X107920Y327690D01*
X95140Y325660D02*
X105890D01*
X54716Y326985D02*
X93815D01*
X95140Y325660D01*
X49140Y321409D02*
X54716Y326985D01*
X49140Y317635D02*
Y321409D01*
X133140Y317360D02*
Y321854D01*
Y317360D02*
X140440Y310060D01*
X50537Y311698D02*
Y312613D01*
X49890Y311050D02*
X50537Y311698D01*
X60145Y304760D02*
X62645Y307260D01*
X57039Y298660D02*
X60145Y301766D01*
X62645Y307260D02*
X66770D01*
X41640Y298660D02*
X57039D01*
X132135Y305337D02*
X132588D01*
X132135D02*
Y306815D01*
X73390Y358410D02*
Y359410D01*
X79440Y352360D02*
X99941D01*
X73390Y358410D02*
X79440Y352360D01*
X46519Y289410D02*
X53890D01*
X41319Y284210D02*
X46519Y289410D01*
X54540Y294560D02*
X66770D01*
X53890Y293910D02*
X54540Y294560D01*
X60145Y301766D02*
Y304760D01*
X41115Y309610D02*
X49140Y317635D01*
X108534Y267910D02*
X108607Y267983D01*
X108140Y267910D02*
X108534D01*
X174347Y359343D02*
X176099Y361869D01*
X175028Y358522D02*
X176140Y357410D01*
Y356160D02*
X178592Y353708D01*
X173890Y359660D02*
X176099Y361869D01*
X173778Y358522D02*
X174347Y359343D01*
X173778Y358522D02*
X175028D01*
X176140Y356160D02*
Y357410D01*
X196890Y335410D02*
Y348410D01*
X178592Y353708D02*
X191592D01*
X196890Y348410D01*
X230640Y260860D02*
X230642D01*
X230640D02*
Y267910D01*
X254640Y255810D02*
Y282910D01*
X230449Y247969D02*
X234390Y251910D01*
X237390D01*
X239590Y240364D02*
X241290Y242064D01*
Y250539D02*
X242390Y251639D01*
X241290Y242064D02*
Y250539D01*
X244090Y245543D02*
Y248277D01*
X247199Y251386D01*
X235209Y246719D02*
X237199D01*
X233368Y244878D02*
X235209Y246719D01*
X233368Y242579D02*
Y244878D01*
X232890Y242101D02*
X233368Y242579D01*
X237199Y246719D02*
X237390Y246910D01*
X172390Y310780D02*
Y311050D01*
Y310374D02*
Y310780D01*
X173537Y313113D02*
X174037Y313613D01*
X173037Y312613D02*
X173537Y313113D01*
X230284Y366976D02*
X230293Y366967D01*
X215890Y363410D02*
X219456Y366976D01*
X230284D01*
X238332Y366967D02*
X243019Y362280D01*
X230293Y366967D02*
X238332D01*
X249020Y362280D02*
X249390Y361910D01*
X243019Y362280D02*
X249020D01*
X214890Y363410D02*
X215890D01*
X224241Y354160D02*
X237511D01*
X238390Y355039D02*
Y360410D01*
X222441Y352360D02*
X224241Y354160D01*
X237511D02*
X238390Y355039D01*
X252105Y325389D02*
X255640Y321854D01*
X240411Y325389D02*
X252105D01*
X237140Y328660D02*
X240411Y325389D01*
X255094Y247610D02*
Y249014D01*
X245140Y254160D02*
X247390Y251910D01*
X245140Y254160D02*
Y256660D01*
X240140Y253890D02*
Y256410D01*
Y253890D02*
X242390Y251639D01*
X239890Y256660D02*
X240140Y256410D01*
X248654Y260660D02*
X249652Y259662D01*
Y257648D02*
X250640Y256660D01*
X249652Y257648D02*
Y259662D01*
X246390Y261410D02*
X247140Y260660D01*
X248654D01*
X247199Y251719D02*
X247390Y251910D01*
X247199Y251386D02*
Y251719D01*
X244090Y245543D02*
X245563Y244070D01*
X247813Y240364D02*
X248013D01*
X245563Y242614D02*
Y244070D01*
Y242614D02*
X247813Y240364D01*
X231390Y360410D02*
X238390D01*
X214890Y360410D02*
Y363410D01*
X230420Y327690D02*
X230610D01*
X231640Y328720D02*
Y328910D01*
X230610Y327690D02*
X231640Y328720D01*
X228390Y325660D02*
X230420Y327690D01*
X217640Y325660D02*
X228390D01*
X177216Y326985D02*
X216315D01*
X217640Y325660D01*
X171640Y321409D02*
X177216Y326985D01*
X171640Y317635D02*
Y321409D01*
X255640Y317360D02*
Y321854D01*
Y317360D02*
X262940Y310060D01*
X173037Y311698D02*
Y312613D01*
X172390Y311050D02*
X173037Y311698D01*
X182645Y304760D02*
X185145Y307260D01*
X179539Y298660D02*
X182645Y301766D01*
X185145Y307260D02*
X189270D01*
X164140Y298660D02*
X179539D01*
X254635Y305337D02*
X255088D01*
X254635D02*
Y306815D01*
X195890Y358410D02*
Y359410D01*
X201940Y352360D02*
X222441D01*
X195890Y358410D02*
X201940Y352360D01*
X169019Y289410D02*
X176390D01*
X163819Y284210D02*
X169019Y289410D01*
X177040Y294560D02*
X189270D01*
X176390Y293910D02*
X177040Y294560D01*
X182645Y301766D02*
Y304760D01*
X163615Y309610D02*
X171640Y317635D01*
X231034Y267910D02*
X231107Y267983D01*
X230640Y267910D02*
X231034D01*
X296847Y359343D02*
X298599Y361869D01*
X297528Y358522D02*
X298640Y357410D01*
Y356160D02*
X301092Y353708D01*
X296390Y359660D02*
X298599Y361869D01*
X296278Y358522D02*
X296847Y359343D01*
X296278Y358522D02*
X297528D01*
X298640Y356160D02*
Y357410D01*
X319390Y335410D02*
Y348410D01*
X301092Y353708D02*
X314092D01*
X319390Y348410D01*
X353140Y260860D02*
X353142D01*
X353140D02*
Y267910D01*
X377140Y255810D02*
Y282910D01*
X352949Y247969D02*
X356890Y251910D01*
X359890D01*
X362090Y240364D02*
X363790Y242064D01*
Y250539D02*
X364890Y251639D01*
X363790Y242064D02*
Y250539D01*
X366590Y245543D02*
Y248277D01*
X369699Y251386D01*
X357709Y246719D02*
X359699D01*
X355868Y244878D02*
X357709Y246719D01*
X355868Y242579D02*
Y244878D01*
X355390Y242101D02*
X355868Y242579D01*
X359699Y246719D02*
X359890Y246910D01*
X294890Y310780D02*
Y311050D01*
Y310374D02*
Y310780D01*
X296037Y313113D02*
X296537Y313613D01*
X295537Y312613D02*
X296037Y313113D01*
X352784Y366976D02*
X352793Y366967D01*
X338390Y363410D02*
X341956Y366976D01*
X352784D01*
X360832Y366967D02*
X365519Y362280D01*
X352793Y366967D02*
X360832D01*
X371520Y362280D02*
X371890Y361910D01*
X365519Y362280D02*
X371520D01*
X337390Y363410D02*
X338390D01*
X346741Y354160D02*
X360011D01*
X360890Y355039D02*
Y360410D01*
X344941Y352360D02*
X346741Y354160D01*
X360011D02*
X360890Y355039D01*
X374605Y325389D02*
X378140Y321854D01*
X362911Y325389D02*
X374605D01*
X359640Y328660D02*
X362911Y325389D01*
X377594Y247610D02*
Y249014D01*
X367640Y254160D02*
X369890Y251910D01*
X367640Y254160D02*
Y256660D01*
X362640Y253890D02*
Y256410D01*
Y253890D02*
X364890Y251639D01*
X362390Y256660D02*
X362640Y256410D01*
X371153Y260660D02*
X372152Y259662D01*
Y257648D02*
X373140Y256660D01*
X372152Y257648D02*
Y259662D01*
X368890Y261410D02*
X369640Y260660D01*
X371153D01*
X369699Y251719D02*
X369890Y251910D01*
X369699Y251386D02*
Y251719D01*
X366590Y245543D02*
X368063Y244070D01*
X370313Y240364D02*
X370513D01*
X368063Y242614D02*
Y244070D01*
Y242614D02*
X370313Y240364D01*
X353890Y360410D02*
X360890D01*
X337390Y360410D02*
Y363410D01*
X352920Y327690D02*
X353110D01*
X354140Y328720D02*
Y328910D01*
X353110Y327690D02*
X354140Y328720D01*
X350890Y325660D02*
X352920Y327690D01*
X340140Y325660D02*
X350890D01*
X299716Y326985D02*
X338815D01*
X340140Y325660D01*
X294140Y321409D02*
X299716Y326985D01*
X294140Y317635D02*
Y321409D01*
X378140Y317360D02*
Y321854D01*
Y317360D02*
X385440Y310060D01*
X295537Y311698D02*
Y312613D01*
X294890Y311050D02*
X295537Y311698D01*
X305145Y304760D02*
X307645Y307260D01*
X302039Y298660D02*
X305145Y301766D01*
X307645Y307260D02*
X311770D01*
X286640Y298660D02*
X302039D01*
X377135Y305337D02*
X377588D01*
X377135D02*
Y306815D01*
X318390Y358410D02*
Y359410D01*
X324440Y352360D02*
X344941D01*
X318390Y358410D02*
X324440Y352360D01*
X291519Y289410D02*
X298890D01*
X286319Y284210D02*
X291519Y289410D01*
X299540Y294560D02*
X311770D01*
X298890Y293910D02*
X299540Y294560D01*
X305145Y301766D02*
Y304760D01*
X286115Y309610D02*
X294140Y317635D01*
X353534Y267910D02*
X353607Y267983D01*
X353140Y267910D02*
X353534D01*
X419347Y359343D02*
X421099Y361869D01*
X420028Y358522D02*
X421140Y357410D01*
Y356160D02*
X423592Y353708D01*
X418890Y359660D02*
X421099Y361869D01*
X418778Y358522D02*
X419347Y359343D01*
X418778Y358522D02*
X420028D01*
X421140Y356160D02*
Y357410D01*
X441890Y335410D02*
Y348410D01*
X423592Y353708D02*
X436592D01*
X441890Y348410D01*
X475640Y260860D02*
X475642D01*
X475640D02*
Y267910D01*
X499640Y255810D02*
Y282910D01*
X475449Y247969D02*
X479390Y251910D01*
X482390D01*
X484590Y240364D02*
X486290Y242064D01*
Y250539D02*
X487390Y251639D01*
X486290Y242064D02*
Y250539D01*
X489090Y245543D02*
Y248277D01*
X492199Y251386D01*
X480209Y246719D02*
X482199D01*
X478368Y244878D02*
X480209Y246719D01*
X478368Y242579D02*
Y244878D01*
X477890Y242101D02*
X478368Y242579D01*
X482199Y246719D02*
X482390Y246910D01*
X417390Y310780D02*
Y311050D01*
Y310374D02*
Y310780D01*
X418537Y313113D02*
X419037Y313613D01*
X418037Y312613D02*
X418537Y313113D01*
X475284Y366976D02*
X475293Y366967D01*
X460890Y363410D02*
X464456Y366976D01*
X475284D01*
X483332Y366967D02*
X488019Y362280D01*
X475293Y366967D02*
X483332D01*
X494020Y362280D02*
X494390Y361910D01*
X488019Y362280D02*
X494020D01*
X459890Y363410D02*
X460890D01*
X469241Y354160D02*
X482511D01*
X483390Y355039D02*
Y360410D01*
X467441Y352360D02*
X469241Y354160D01*
X482511D02*
X483390Y355039D01*
X497105Y325389D02*
X500640Y321854D01*
X485411Y325389D02*
X497105D01*
X482140Y328660D02*
X485411Y325389D01*
X500094Y247610D02*
Y249014D01*
X490140Y254160D02*
X492390Y251910D01*
X490140Y254160D02*
Y256660D01*
X485140Y253890D02*
Y256410D01*
Y253890D02*
X487390Y251639D01*
X484890Y256660D02*
X485140Y256410D01*
X493653Y260660D02*
X494652Y259662D01*
Y257648D02*
X495640Y256660D01*
X494652Y257648D02*
Y259662D01*
X491390Y261410D02*
X492140Y260660D01*
X493653D01*
X492199Y251719D02*
X492390Y251910D01*
X492199Y251386D02*
Y251719D01*
X489090Y245543D02*
X490563Y244070D01*
X492813Y240364D02*
X493013D01*
X490563Y242614D02*
Y244070D01*
Y242614D02*
X492813Y240364D01*
X476390Y360410D02*
X483390D01*
X459890Y360410D02*
Y363410D01*
X475420Y327690D02*
X475610D01*
X476640Y328720D02*
Y328910D01*
X475610Y327690D02*
X476640Y328720D01*
X473390Y325660D02*
X475420Y327690D01*
X462640Y325660D02*
X473390D01*
X422216Y326985D02*
X461315D01*
X462640Y325660D01*
X416640Y321409D02*
X422216Y326985D01*
X416640Y317635D02*
Y321409D01*
X500640Y317360D02*
Y321854D01*
Y317360D02*
X507940Y310060D01*
X418037Y311698D02*
Y312613D01*
X417390Y311050D02*
X418037Y311698D01*
X427645Y304760D02*
X430145Y307260D01*
X424539Y298660D02*
X427645Y301766D01*
X430145Y307260D02*
X434270D01*
X409140Y298660D02*
X424539D01*
X499635Y305337D02*
X500088D01*
X499635D02*
Y306815D01*
X440890Y358410D02*
Y359410D01*
X446940Y352360D02*
X467441D01*
X440890Y358410D02*
X446940Y352360D01*
X414019Y289410D02*
X421390D01*
X408819Y284210D02*
X414019Y289410D01*
X422040Y294560D02*
X434270D01*
X421390Y293910D02*
X422040Y294560D01*
X427645Y301766D02*
Y304760D01*
X408615Y309610D02*
X416640Y317635D01*
X476034Y267910D02*
X476107Y267983D01*
X475640Y267910D02*
X476034D01*
X51848Y512843D02*
X53599Y515369D01*
X52528Y512022D02*
X53640Y510910D01*
Y509660D02*
X56092Y507208D01*
X51390Y513160D02*
X53599Y515369D01*
X51278Y512022D02*
X51848Y512843D01*
X51278Y512022D02*
X52528D01*
X53640Y509660D02*
Y510910D01*
X74390Y488910D02*
Y501910D01*
X56092Y507208D02*
X69092D01*
X74390Y501910D01*
X108140Y414360D02*
X108142D01*
X108140D02*
Y421410D01*
X132140Y409310D02*
Y436410D01*
X107949Y401469D02*
X111890Y405410D01*
X114890D01*
X117090Y393864D02*
X118790Y395564D01*
Y404039D02*
X119890Y405139D01*
X118790Y395564D02*
Y404039D01*
X121590Y399043D02*
Y401777D01*
X124699Y404886D01*
X112709Y400219D02*
X114699D01*
X110868Y398378D02*
X112709Y400219D01*
X110868Y396079D02*
Y398378D01*
X110390Y395601D02*
X110868Y396079D01*
X114699Y400219D02*
X114890Y400410D01*
X49890Y464280D02*
Y464551D01*
Y463874D02*
Y464280D01*
X51037Y466613D02*
X51537Y467113D01*
X50537Y466113D02*
X51037Y466613D01*
X107784Y520476D02*
X107793Y520467D01*
X93390Y516910D02*
X96956Y520476D01*
X107784D01*
X115832Y520467D02*
X120519Y515780D01*
X107793Y520467D02*
X115832D01*
X126520Y515780D02*
X126890Y515410D01*
X120519Y515780D02*
X126520D01*
X92390Y516910D02*
X93390D01*
X101741Y507660D02*
X115011D01*
X115890Y508539D02*
Y513910D01*
X99941Y505860D02*
X101741Y507660D01*
X115011D02*
X115890Y508539D01*
X129605Y478889D02*
X133140Y475354D01*
X117911Y478889D02*
X129605D01*
X114640Y482160D02*
X117911Y478889D01*
X132594Y401110D02*
Y402514D01*
X122640Y407660D02*
X124890Y405410D01*
X122640Y407660D02*
Y410160D01*
X117640Y407389D02*
Y409910D01*
Y407389D02*
X119890Y405139D01*
X117390Y410160D02*
X117640Y409910D01*
X126153Y414160D02*
X127152Y413162D01*
Y411148D02*
X128140Y410160D01*
X127152Y411148D02*
Y413162D01*
X123890Y414910D02*
X124640Y414160D01*
X126153D01*
X124699Y405219D02*
X124890Y405410D01*
X124699Y404886D02*
Y405219D01*
X121590Y399043D02*
X123063Y397570D01*
X125313Y393864D02*
X125513D01*
X123063Y396114D02*
Y397570D01*
Y396114D02*
X125313Y393864D01*
X108890Y513910D02*
X115890D01*
X92390Y513910D02*
Y516910D01*
X107920Y481190D02*
X108110D01*
X109140Y482220D02*
Y482410D01*
X108110Y481190D02*
X109140Y482220D01*
X105890Y479160D02*
X107920Y481190D01*
X95140Y479160D02*
X105890D01*
X54716Y480485D02*
X93815D01*
X95140Y479160D01*
X49140Y474909D02*
X54716Y480485D01*
X49140Y471135D02*
Y474909D01*
X133140Y470860D02*
Y475354D01*
Y470860D02*
X140440Y463560D01*
X50537Y465198D02*
Y466113D01*
X49890Y464551D02*
X50537Y465198D01*
X60145Y458260D02*
X62645Y460760D01*
X57039Y452160D02*
X60145Y455266D01*
X62645Y460760D02*
X66770D01*
X41640Y452160D02*
X57039D01*
X132135Y458837D02*
X132588D01*
X132135D02*
Y460315D01*
X73390Y511910D02*
Y512910D01*
X79440Y505860D02*
X99941D01*
X73390Y511910D02*
X79440Y505860D01*
X46519Y442910D02*
X53890D01*
X41319Y437710D02*
X46519Y442910D01*
X54540Y448060D02*
X66770D01*
X53890Y447410D02*
X54540Y448060D01*
X60145Y455266D02*
Y458260D01*
X41115Y463110D02*
X49140Y471135D01*
X108534Y421410D02*
X108607Y421483D01*
X108140Y421410D02*
X108534D01*
X174347Y512843D02*
X176099Y515369D01*
X175028Y512022D02*
X176140Y510910D01*
Y509660D02*
X178592Y507208D01*
X173890Y513160D02*
X176099Y515369D01*
X173778Y512022D02*
X174347Y512843D01*
X173778Y512022D02*
X175028D01*
X176140Y509660D02*
Y510910D01*
X196890Y488910D02*
Y501910D01*
X178592Y507208D02*
X191592D01*
X196890Y501910D01*
X230640Y414360D02*
X230642D01*
X230640D02*
Y421410D01*
X254640Y409310D02*
Y436410D01*
X230449Y401469D02*
X234390Y405410D01*
X237390D01*
X239590Y393864D02*
X241290Y395564D01*
Y404039D02*
X242390Y405139D01*
X241290Y395564D02*
Y404039D01*
X244090Y399043D02*
Y401777D01*
X247199Y404886D01*
X235209Y400219D02*
X237199D01*
X233368Y398378D02*
X235209Y400219D01*
X233368Y396079D02*
Y398378D01*
X232890Y395601D02*
X233368Y396079D01*
X237199Y400219D02*
X237390Y400410D01*
X172390Y464280D02*
Y464551D01*
Y463874D02*
Y464280D01*
X173537Y466613D02*
X174037Y467113D01*
X173037Y466113D02*
X173537Y466613D01*
X230284Y520476D02*
X230293Y520467D01*
X215890Y516910D02*
X219456Y520476D01*
X230284D01*
X238332Y520467D02*
X243019Y515780D01*
X230293Y520467D02*
X238332D01*
X249020Y515780D02*
X249390Y515410D01*
X243019Y515780D02*
X249020D01*
X214890Y516910D02*
X215890D01*
X224241Y507660D02*
X237511D01*
X238390Y508539D02*
Y513910D01*
X222441Y505860D02*
X224241Y507660D01*
X237511D02*
X238390Y508539D01*
X252105Y478889D02*
X255640Y475354D01*
X240411Y478889D02*
X252105D01*
X237140Y482160D02*
X240411Y478889D01*
X255094Y401110D02*
Y402514D01*
X245140Y407660D02*
X247390Y405410D01*
X245140Y407660D02*
Y410160D01*
X240140Y407389D02*
Y409910D01*
Y407389D02*
X242390Y405139D01*
X239890Y410160D02*
X240140Y409910D01*
X248654Y414160D02*
X249652Y413162D01*
Y411148D02*
X250640Y410160D01*
X249652Y411148D02*
Y413162D01*
X246390Y414910D02*
X247140Y414160D01*
X248654D01*
X247199Y405219D02*
X247390Y405410D01*
X247199Y404886D02*
Y405219D01*
X244090Y399043D02*
X245563Y397570D01*
X247813Y393864D02*
X248013D01*
X245563Y396114D02*
Y397570D01*
Y396114D02*
X247813Y393864D01*
X231390Y513910D02*
X238390D01*
X214890Y513910D02*
Y516910D01*
X230420Y481190D02*
X230610D01*
X231640Y482220D02*
Y482410D01*
X230610Y481190D02*
X231640Y482220D01*
X228390Y479160D02*
X230420Y481190D01*
X217640Y479160D02*
X228390D01*
X177216Y480485D02*
X216315D01*
X217640Y479160D01*
X171640Y474909D02*
X177216Y480485D01*
X171640Y471135D02*
Y474909D01*
X255640Y470860D02*
Y475354D01*
Y470860D02*
X262940Y463560D01*
X173037Y465198D02*
Y466113D01*
X172390Y464551D02*
X173037Y465198D01*
X182645Y458260D02*
X185145Y460760D01*
X179539Y452160D02*
X182645Y455266D01*
X185145Y460760D02*
X189270D01*
X164140Y452160D02*
X179539D01*
X254635Y458837D02*
X255088D01*
X254635D02*
Y460315D01*
X195890Y511910D02*
Y512910D01*
X201940Y505860D02*
X222441D01*
X195890Y511910D02*
X201940Y505860D01*
X169019Y442910D02*
X176390D01*
X163819Y437710D02*
X169019Y442910D01*
X177040Y448060D02*
X189270D01*
X176390Y447410D02*
X177040Y448060D01*
X182645Y455266D02*
Y458260D01*
X163615Y463110D02*
X171640Y471135D01*
X231034Y421410D02*
X231107Y421483D01*
X230640Y421410D02*
X231034D01*
X296847Y512843D02*
X298599Y515369D01*
X297528Y512022D02*
X298640Y510910D01*
Y509660D02*
X301092Y507208D01*
X296390Y513160D02*
X298599Y515369D01*
X296278Y512022D02*
X296847Y512843D01*
X296278Y512022D02*
X297528D01*
X298640Y509660D02*
Y510910D01*
X319390Y488910D02*
Y501910D01*
X301092Y507208D02*
X314092D01*
X319390Y501910D01*
X353140Y414360D02*
X353142D01*
X353140D02*
Y421410D01*
X377140Y409310D02*
Y436410D01*
X352949Y401469D02*
X356890Y405410D01*
X359890D01*
X362090Y393864D02*
X363790Y395564D01*
Y404039D02*
X364890Y405139D01*
X363790Y395564D02*
Y404039D01*
X366590Y399043D02*
Y401777D01*
X369699Y404886D01*
X357709Y400219D02*
X359699D01*
X355868Y398378D02*
X357709Y400219D01*
X355868Y396079D02*
Y398378D01*
X355390Y395601D02*
X355868Y396079D01*
X359699Y400219D02*
X359890Y400410D01*
X294890Y464280D02*
Y464551D01*
Y463874D02*
Y464280D01*
X296037Y466613D02*
X296537Y467113D01*
X295537Y466113D02*
X296037Y466613D01*
X352784Y520476D02*
X352793Y520467D01*
X338390Y516910D02*
X341956Y520476D01*
X352784D01*
X360832Y520467D02*
X365519Y515780D01*
X352793Y520467D02*
X360832D01*
X371520Y515780D02*
X371890Y515410D01*
X365519Y515780D02*
X371520D01*
X337390Y516910D02*
X338390D01*
X346741Y507660D02*
X360011D01*
X360890Y508539D02*
Y513910D01*
X344941Y505860D02*
X346741Y507660D01*
X360011D02*
X360890Y508539D01*
X374605Y478889D02*
X378140Y475354D01*
X362911Y478889D02*
X374605D01*
X359640Y482160D02*
X362911Y478889D01*
X377594Y401110D02*
Y402514D01*
X367640Y407660D02*
X369890Y405410D01*
X367640Y407660D02*
Y410160D01*
X362640Y407389D02*
Y409910D01*
Y407389D02*
X364890Y405139D01*
X362390Y410160D02*
X362640Y409910D01*
X371153Y414160D02*
X372152Y413162D01*
Y411148D02*
X373140Y410160D01*
X372152Y411148D02*
Y413162D01*
X368890Y414910D02*
X369640Y414160D01*
X371153D01*
X369699Y405219D02*
X369890Y405410D01*
X369699Y404886D02*
Y405219D01*
X366590Y399043D02*
X368063Y397570D01*
X370313Y393864D02*
X370513D01*
X368063Y396114D02*
Y397570D01*
Y396114D02*
X370313Y393864D01*
X353890Y513910D02*
X360890D01*
X337390Y513910D02*
Y516910D01*
X352920Y481190D02*
X353110D01*
X354140Y482220D02*
Y482410D01*
X353110Y481190D02*
X354140Y482220D01*
X350890Y479160D02*
X352920Y481190D01*
X340140Y479160D02*
X350890D01*
X299716Y480485D02*
X338815D01*
X340140Y479160D01*
X294140Y474909D02*
X299716Y480485D01*
X294140Y471135D02*
Y474909D01*
X378140Y470860D02*
Y475354D01*
Y470860D02*
X385440Y463560D01*
X295537Y465198D02*
Y466113D01*
X294890Y464551D02*
X295537Y465198D01*
X305145Y458260D02*
X307645Y460760D01*
X302039Y452160D02*
X305145Y455266D01*
X307645Y460760D02*
X311770D01*
X286640Y452160D02*
X302039D01*
X377135Y458837D02*
X377588D01*
X377135D02*
Y460315D01*
X318390Y511910D02*
Y512910D01*
X324440Y505860D02*
X344941D01*
X318390Y511910D02*
X324440Y505860D01*
X291519Y442910D02*
X298890D01*
X286319Y437710D02*
X291519Y442910D01*
X299540Y448060D02*
X311770D01*
X298890Y447410D02*
X299540Y448060D01*
X305145Y455266D02*
Y458260D01*
X286115Y463110D02*
X294140Y471135D01*
X353534Y421410D02*
X353607Y421483D01*
X353140Y421410D02*
X353534D01*
X419347Y512843D02*
X421099Y515369D01*
X420028Y512022D02*
X421140Y510910D01*
Y509660D02*
X423592Y507208D01*
X418890Y513160D02*
X421099Y515369D01*
X418778Y512022D02*
X419347Y512843D01*
X418778Y512022D02*
X420028D01*
X421140Y509660D02*
Y510910D01*
X441890Y488910D02*
Y501910D01*
X423592Y507208D02*
X436592D01*
X441890Y501910D01*
X475640Y414360D02*
X475642D01*
X475640D02*
Y421410D01*
X499640Y409310D02*
Y436410D01*
X475449Y401469D02*
X479390Y405410D01*
X482390D01*
X484590Y393864D02*
X486290Y395564D01*
Y404039D02*
X487390Y405139D01*
X486290Y395564D02*
Y404039D01*
X489090Y399043D02*
Y401777D01*
X492199Y404886D01*
X480209Y400219D02*
X482199D01*
X478368Y398378D02*
X480209Y400219D01*
X478368Y396079D02*
Y398378D01*
X477890Y395601D02*
X478368Y396079D01*
X482199Y400219D02*
X482390Y400410D01*
X417390Y464280D02*
Y464551D01*
Y463874D02*
Y464280D01*
X418537Y466613D02*
X419037Y467113D01*
X418037Y466113D02*
X418537Y466613D01*
X475284Y520476D02*
X475293Y520467D01*
X460890Y516910D02*
X464456Y520476D01*
X475284D01*
X483332Y520467D02*
X488019Y515780D01*
X475293Y520467D02*
X483332D01*
X494020Y515780D02*
X494390Y515410D01*
X488019Y515780D02*
X494020D01*
X459890Y516910D02*
X460890D01*
X469241Y507660D02*
X482511D01*
X483390Y508539D02*
Y513910D01*
X467441Y505860D02*
X469241Y507660D01*
X482511D02*
X483390Y508539D01*
X497105Y478889D02*
X500640Y475354D01*
X485411Y478889D02*
X497105D01*
X482140Y482160D02*
X485411Y478889D01*
X500094Y401110D02*
Y402514D01*
X490140Y407660D02*
X492390Y405410D01*
X490140Y407660D02*
Y410160D01*
X485140Y407389D02*
Y409910D01*
Y407389D02*
X487390Y405139D01*
X484890Y410160D02*
X485140Y409910D01*
X493653Y414160D02*
X494652Y413162D01*
Y411148D02*
X495640Y410160D01*
X494652Y411148D02*
Y413162D01*
X491390Y414910D02*
X492140Y414160D01*
X493653D01*
X492199Y405219D02*
X492390Y405410D01*
X492199Y404886D02*
Y405219D01*
X489090Y399043D02*
X490563Y397570D01*
X492813Y393864D02*
X493013D01*
X490563Y396114D02*
Y397570D01*
Y396114D02*
X492813Y393864D01*
X476390Y513910D02*
X483390D01*
X459890Y513910D02*
Y516910D01*
X475420Y481190D02*
X475610D01*
X476640Y482220D02*
Y482410D01*
X475610Y481190D02*
X476640Y482220D01*
X473390Y479160D02*
X475420Y481190D01*
X462640Y479160D02*
X473390D01*
X422216Y480485D02*
X461315D01*
X462640Y479160D01*
X416640Y474909D02*
X422216Y480485D01*
X416640Y471135D02*
Y474909D01*
X500640Y470860D02*
Y475354D01*
Y470860D02*
X507940Y463560D01*
X418037Y465198D02*
Y466113D01*
X417390Y464551D02*
X418037Y465198D01*
X427645Y458260D02*
X430145Y460760D01*
X424539Y452160D02*
X427645Y455266D01*
X430145Y460760D02*
X434270D01*
X409140Y452160D02*
X424539D01*
X499635Y458837D02*
X500088D01*
X499635D02*
Y460315D01*
X440890Y511910D02*
Y512910D01*
X446940Y505860D02*
X467441D01*
X440890Y511910D02*
X446940Y505860D01*
X414019Y442910D02*
X421390D01*
X408819Y437710D02*
X414019Y442910D01*
X422040Y448060D02*
X434270D01*
X421390Y447410D02*
X422040Y448060D01*
X427645Y455266D02*
Y458260D01*
X408615Y463110D02*
X416640Y471135D01*
X476034Y421410D02*
X476107Y421483D01*
X475640Y421410D02*
X476034D01*
D25*
X56890Y194910D02*
X57390Y194410D01*
X53681Y194910D02*
X56890D01*
X135767Y134910D02*
X136222Y134455D01*
X132140Y134910D02*
X135767D01*
X116893Y179660D02*
X120364Y176189D01*
X124486D02*
X124890Y175785D01*
X115390Y179660D02*
X116893D01*
X124986Y93314D02*
X131549D01*
X111890Y102606D02*
Y105017D01*
X111954Y105082D02*
Y105474D01*
X111890Y105017D02*
X111954Y105082D01*
Y105474D02*
X115890Y109410D01*
X54390Y151410D02*
X55390Y152410D01*
Y154265D01*
X57843Y160718D02*
Y162863D01*
X59190Y164210D01*
X64520D01*
X56487Y159363D02*
X57843Y160718D01*
X64520Y164210D02*
X66770Y166460D01*
X130271Y146910D02*
X139340D01*
X127635Y149546D02*
Y151510D01*
Y149546D02*
X130271Y146910D01*
X121010Y153760D02*
X125385D01*
X127635Y151510D01*
X53890Y151410D02*
X54390D01*
X42414Y204387D02*
X49705D01*
X120364Y176189D02*
X124486D01*
X114640Y180410D02*
X115390Y179660D01*
X82649Y91669D02*
X84772D01*
X82390Y91410D02*
X82649Y91669D01*
X82390Y79410D02*
X84640D01*
X39890Y92610D02*
X68940D01*
X70140Y91410D01*
X46502Y75610D02*
X66340D01*
X70140Y79410D01*
X42202Y79910D02*
X46502Y75610D01*
X56487Y155363D02*
Y159363D01*
X55390Y154265D02*
X56487Y155363D01*
X115890Y118910D02*
X123890D01*
X113890Y120910D02*
Y121352D01*
X110718Y135238D02*
X114290Y138810D01*
X113890Y120910D02*
X115890Y118910D01*
X110718Y124524D02*
X113890Y121352D01*
X110718Y124524D02*
Y135238D01*
X114290Y138810D02*
X118760D01*
X121010Y141060D01*
X179390Y194910D02*
X179890Y194410D01*
X176181Y194910D02*
X179390D01*
X258267Y134910D02*
X258722Y134455D01*
X254640Y134910D02*
X258267D01*
X239393Y179660D02*
X242864Y176189D01*
X246986D02*
X247390Y175785D01*
X237890Y179660D02*
X239393D01*
X247486Y93314D02*
X254049D01*
X234390Y102606D02*
Y105017D01*
X234454Y105082D02*
Y105474D01*
X234390Y105017D02*
X234454Y105082D01*
Y105474D02*
X238390Y109410D01*
X176890Y151410D02*
X177890Y152410D01*
Y154265D01*
X180343Y160718D02*
Y162863D01*
X181690Y164210D01*
X187020D01*
X178987Y159363D02*
X180343Y160718D01*
X187020Y164210D02*
X189270Y166460D01*
X252771Y146910D02*
X261840D01*
X250135Y149546D02*
Y151510D01*
Y149546D02*
X252771Y146910D01*
X243510Y153760D02*
X247885D01*
X250135Y151510D01*
X176390Y151410D02*
X176890D01*
X164914Y204387D02*
X172205D01*
X242864Y176189D02*
X246986D01*
X237140Y180410D02*
X237890Y179660D01*
X205149Y91669D02*
X207272D01*
X204890Y91410D02*
X205149Y91669D01*
X204890Y79410D02*
X207140D01*
X162390Y92610D02*
X191440D01*
X192640Y91410D01*
X169002Y75610D02*
X188840D01*
X192640Y79410D01*
X164702Y79910D02*
X169002Y75610D01*
X178987Y155363D02*
Y159363D01*
X177890Y154265D02*
X178987Y155363D01*
X238390Y118910D02*
X246390D01*
X236390Y120910D02*
Y121352D01*
X233218Y135238D02*
X236790Y138810D01*
X236390Y120910D02*
X238390Y118910D01*
X233218Y124524D02*
X236390Y121352D01*
X233218Y124524D02*
Y135238D01*
X236790Y138810D02*
X241260D01*
X243510Y141060D01*
X301890Y194910D02*
X302390Y194410D01*
X298681Y194910D02*
X301890D01*
X380767Y134910D02*
X381222Y134455D01*
X377140Y134910D02*
X380767D01*
X361893Y179660D02*
X365364Y176189D01*
X369486D02*
X369890Y175785D01*
X360390Y179660D02*
X361893D01*
X369986Y93314D02*
X376549D01*
X356890Y102606D02*
Y105017D01*
X356954Y105082D02*
Y105474D01*
X356890Y105017D02*
X356954Y105082D01*
Y105474D02*
X360890Y109410D01*
X299390Y151410D02*
X300390Y152410D01*
Y154265D01*
X302843Y160718D02*
Y162863D01*
X304190Y164210D01*
X309520D01*
X301487Y159363D02*
X302843Y160718D01*
X309520Y164210D02*
X311770Y166460D01*
X375271Y146910D02*
X384340D01*
X372635Y149546D02*
Y151510D01*
Y149546D02*
X375271Y146910D01*
X366010Y153760D02*
X370385D01*
X372635Y151510D01*
X298890Y151410D02*
X299390D01*
X287414Y204387D02*
X294705D01*
X365364Y176189D02*
X369486D01*
X359640Y180410D02*
X360390Y179660D01*
X327649Y91669D02*
X329772D01*
X327390Y91410D02*
X327649Y91669D01*
X327390Y79410D02*
X329640D01*
X284890Y92610D02*
X313940D01*
X315140Y91410D01*
X291502Y75610D02*
X311340D01*
X315140Y79410D01*
X287202Y79910D02*
X291502Y75610D01*
X301487Y155363D02*
Y159363D01*
X300390Y154265D02*
X301487Y155363D01*
X360890Y118910D02*
X368890D01*
X358890Y120910D02*
Y121352D01*
X355718Y135238D02*
X359290Y138810D01*
X358890Y120910D02*
X360890Y118910D01*
X355718Y124524D02*
X358890Y121352D01*
X355718Y124524D02*
Y135238D01*
X359290Y138810D02*
X363760D01*
X366010Y141060D01*
X424390Y194910D02*
X424890Y194410D01*
X421181Y194910D02*
X424390D01*
X503267Y134910D02*
X503722Y134455D01*
X499640Y134910D02*
X503267D01*
X484393Y179660D02*
X487864Y176189D01*
X491986D02*
X492390Y175785D01*
X482890Y179660D02*
X484393D01*
X492486Y93314D02*
X499049D01*
X479390Y102606D02*
Y105017D01*
X479454Y105082D02*
Y105474D01*
X479390Y105017D02*
X479454Y105082D01*
Y105474D02*
X483390Y109410D01*
X421890Y151410D02*
X422890Y152410D01*
Y154265D01*
X425343Y160718D02*
Y162863D01*
X426690Y164210D01*
X432020D01*
X423987Y159363D02*
X425343Y160718D01*
X432020Y164210D02*
X434270Y166460D01*
X497771Y146910D02*
X506840D01*
X495135Y149546D02*
Y151510D01*
Y149546D02*
X497771Y146910D01*
X488510Y153760D02*
X492885D01*
X495135Y151510D01*
X421390Y151410D02*
X421890D01*
X409913Y204387D02*
X417205D01*
X487864Y176189D02*
X491986D01*
X482140Y180410D02*
X482890Y179660D01*
X450149Y91669D02*
X452272D01*
X449890Y91410D02*
X450149Y91669D01*
X449890Y79410D02*
X452140D01*
X407390Y92610D02*
X436440D01*
X437640Y91410D01*
X414002Y75610D02*
X433840D01*
X437640Y79410D01*
X409702Y79910D02*
X414002Y75610D01*
X423987Y155363D02*
Y159363D01*
X422890Y154265D02*
X423987Y155363D01*
X483390Y118910D02*
X491390D01*
X481390Y120910D02*
Y121352D01*
X478218Y135238D02*
X481790Y138810D01*
X481390Y120910D02*
X483390Y118910D01*
X478218Y124524D02*
X481390Y121352D01*
X478218Y124524D02*
Y135238D01*
X481790Y138810D02*
X486260D01*
X488510Y141060D01*
X56890Y348410D02*
X57390Y347910D01*
X53681Y348410D02*
X56890D01*
X135767Y288410D02*
X136222Y287955D01*
X132140Y288410D02*
X135767D01*
X116893Y333160D02*
X120364Y329689D01*
X124486D02*
X124890Y329285D01*
X115390Y333160D02*
X116893D01*
X124986Y246814D02*
X131549D01*
X111890Y256106D02*
Y258517D01*
X111954Y258582D02*
Y258974D01*
X111890Y258517D02*
X111954Y258582D01*
Y258974D02*
X115890Y262910D01*
X54390Y304910D02*
X55390Y305910D01*
Y307765D01*
X57843Y314218D02*
Y316363D01*
X59190Y317710D01*
X64520D01*
X56487Y312863D02*
X57843Y314218D01*
X64520Y317710D02*
X66770Y319960D01*
X130271Y300410D02*
X139340D01*
X127635Y303046D02*
Y305010D01*
Y303046D02*
X130271Y300410D01*
X121010Y307260D02*
X125385D01*
X127635Y305010D01*
X53890Y304910D02*
X54390D01*
X42414Y357887D02*
X49705D01*
X120364Y329689D02*
X124486D01*
X114640Y333910D02*
X115390Y333160D01*
X82649Y245169D02*
X84772D01*
X82390Y244910D02*
X82649Y245169D01*
X82390Y232910D02*
X84640D01*
X39890Y246110D02*
X68940D01*
X70140Y244910D01*
X46502Y229110D02*
X66340D01*
X70140Y232910D01*
X42202Y233410D02*
X46502Y229110D01*
X56487Y308863D02*
Y312863D01*
X55390Y307765D02*
X56487Y308863D01*
X115890Y272410D02*
X123890D01*
X113890Y274410D02*
Y274852D01*
X110718Y288738D02*
X114290Y292310D01*
X113890Y274410D02*
X115890Y272410D01*
X110718Y278024D02*
X113890Y274852D01*
X110718Y278024D02*
Y288738D01*
X114290Y292310D02*
X118760D01*
X121010Y294560D01*
X179390Y348410D02*
X179890Y347910D01*
X176181Y348410D02*
X179390D01*
X258267Y288410D02*
X258722Y287955D01*
X254640Y288410D02*
X258267D01*
X239393Y333160D02*
X242864Y329689D01*
X246986D02*
X247390Y329285D01*
X237890Y333160D02*
X239393D01*
X247486Y246814D02*
X254049D01*
X234390Y256106D02*
Y258517D01*
X234454Y258582D02*
Y258974D01*
X234390Y258517D02*
X234454Y258582D01*
Y258974D02*
X238390Y262910D01*
X176890Y304910D02*
X177890Y305910D01*
Y307765D01*
X180343Y314218D02*
Y316363D01*
X181690Y317710D01*
X187020D01*
X178987Y312863D02*
X180343Y314218D01*
X187020Y317710D02*
X189270Y319960D01*
X252771Y300410D02*
X261840D01*
X250135Y303046D02*
Y305010D01*
Y303046D02*
X252771Y300410D01*
X243510Y307260D02*
X247885D01*
X250135Y305010D01*
X176390Y304910D02*
X176890D01*
X164914Y357887D02*
X172205D01*
X242864Y329689D02*
X246986D01*
X237140Y333910D02*
X237890Y333160D01*
X205149Y245169D02*
X207272D01*
X204890Y244910D02*
X205149Y245169D01*
X204890Y232910D02*
X207140D01*
X162390Y246110D02*
X191440D01*
X192640Y244910D01*
X169002Y229110D02*
X188840D01*
X192640Y232910D01*
X164702Y233410D02*
X169002Y229110D01*
X178987Y308863D02*
Y312863D01*
X177890Y307765D02*
X178987Y308863D01*
X238390Y272410D02*
X246390D01*
X236390Y274410D02*
Y274852D01*
X233218Y288738D02*
X236790Y292310D01*
X236390Y274410D02*
X238390Y272410D01*
X233218Y278024D02*
X236390Y274852D01*
X233218Y278024D02*
Y288738D01*
X236790Y292310D02*
X241260D01*
X243510Y294560D01*
X301890Y348410D02*
X302390Y347910D01*
X298681Y348410D02*
X301890D01*
X380767Y288410D02*
X381222Y287955D01*
X377140Y288410D02*
X380767D01*
X361893Y333160D02*
X365364Y329689D01*
X369486D02*
X369890Y329285D01*
X360390Y333160D02*
X361893D01*
X369986Y246814D02*
X376549D01*
X356890Y256106D02*
Y258517D01*
X356954Y258582D02*
Y258974D01*
X356890Y258517D02*
X356954Y258582D01*
Y258974D02*
X360890Y262910D01*
X299390Y304910D02*
X300390Y305910D01*
Y307765D01*
X302843Y314218D02*
Y316363D01*
X304190Y317710D01*
X309520D01*
X301487Y312863D02*
X302843Y314218D01*
X309520Y317710D02*
X311770Y319960D01*
X375271Y300410D02*
X384340D01*
X372635Y303046D02*
Y305010D01*
Y303046D02*
X375271Y300410D01*
X366010Y307260D02*
X370385D01*
X372635Y305010D01*
X298890Y304910D02*
X299390D01*
X287414Y357887D02*
X294705D01*
X365364Y329689D02*
X369486D01*
X359640Y333910D02*
X360390Y333160D01*
X327649Y245169D02*
X329772D01*
X327390Y244910D02*
X327649Y245169D01*
X327390Y232910D02*
X329640D01*
X284890Y246110D02*
X313940D01*
X315140Y244910D01*
X291502Y229110D02*
X311340D01*
X315140Y232910D01*
X287202Y233410D02*
X291502Y229110D01*
X301487Y308863D02*
Y312863D01*
X300390Y307765D02*
X301487Y308863D01*
X360890Y272410D02*
X368890D01*
X358890Y274410D02*
Y274852D01*
X355718Y288738D02*
X359290Y292310D01*
X358890Y274410D02*
X360890Y272410D01*
X355718Y278024D02*
X358890Y274852D01*
X355718Y278024D02*
Y288738D01*
X359290Y292310D02*
X363760D01*
X366010Y294560D01*
X424390Y348410D02*
X424890Y347910D01*
X421181Y348410D02*
X424390D01*
X503267Y288410D02*
X503722Y287955D01*
X499640Y288410D02*
X503267D01*
X484393Y333160D02*
X487864Y329689D01*
X491986D02*
X492390Y329285D01*
X482890Y333160D02*
X484393D01*
X492486Y246814D02*
X499049D01*
X479390Y256106D02*
Y258517D01*
X479454Y258582D02*
Y258974D01*
X479390Y258517D02*
X479454Y258582D01*
Y258974D02*
X483390Y262910D01*
X421890Y304910D02*
X422890Y305910D01*
Y307765D01*
X425343Y314218D02*
Y316363D01*
X426690Y317710D01*
X432020D01*
X423987Y312863D02*
X425343Y314218D01*
X432020Y317710D02*
X434270Y319960D01*
X497771Y300410D02*
X506840D01*
X495135Y303046D02*
Y305010D01*
Y303046D02*
X497771Y300410D01*
X488510Y307260D02*
X492885D01*
X495135Y305010D01*
X421390Y304910D02*
X421890D01*
X409913Y357887D02*
X417205D01*
X487864Y329689D02*
X491986D01*
X482140Y333910D02*
X482890Y333160D01*
X450149Y245169D02*
X452272D01*
X449890Y244910D02*
X450149Y245169D01*
X449890Y232910D02*
X452140D01*
X407390Y246110D02*
X436440D01*
X437640Y244910D01*
X414002Y229110D02*
X433840D01*
X437640Y232910D01*
X409702Y233410D02*
X414002Y229110D01*
X423987Y308863D02*
Y312863D01*
X422890Y307765D02*
X423987Y308863D01*
X483390Y272410D02*
X491390D01*
X481390Y274410D02*
Y274852D01*
X478218Y288738D02*
X481790Y292310D01*
X481390Y274410D02*
X483390Y272410D01*
X478218Y278024D02*
X481390Y274852D01*
X478218Y278024D02*
Y288738D01*
X481790Y292310D02*
X486260D01*
X488510Y294560D01*
X56890Y501910D02*
X57390Y501410D01*
X53681Y501910D02*
X56890D01*
X135767Y441910D02*
X136222Y441455D01*
X132140Y441910D02*
X135767D01*
X116893Y486660D02*
X120364Y483189D01*
X124486D02*
X124890Y482785D01*
X115390Y486660D02*
X116893D01*
X124986Y400314D02*
X131549D01*
X111890Y409606D02*
Y412018D01*
X111954Y412081D02*
Y412474D01*
X111890Y412018D02*
X111954Y412081D01*
Y412474D02*
X115890Y416410D01*
X54390Y458410D02*
X55390Y459410D01*
Y461265D01*
X57843Y467718D02*
Y469863D01*
X59190Y471210D01*
X64520D01*
X56487Y466363D02*
X57843Y467718D01*
X64520Y471210D02*
X66770Y473460D01*
X130271Y453910D02*
X139340D01*
X127635Y456546D02*
Y458510D01*
Y456546D02*
X130271Y453910D01*
X121010Y460760D02*
X125385D01*
X127635Y458510D01*
X53890Y458410D02*
X54390D01*
X42414Y511386D02*
X49705D01*
X120364Y483189D02*
X124486D01*
X114640Y487410D02*
X115390Y486660D01*
X82649Y398669D02*
X84772D01*
X82390Y398410D02*
X82649Y398669D01*
X82390Y386410D02*
X84640D01*
X39890Y399610D02*
X68940D01*
X70140Y398410D01*
X46502Y382610D02*
X66340D01*
X70140Y386410D01*
X42202Y386910D02*
X46502Y382610D01*
X56487Y462363D02*
Y466363D01*
X55390Y461265D02*
X56487Y462363D01*
X115890Y425910D02*
X123890D01*
X113890Y427910D02*
Y428352D01*
X110718Y442238D02*
X114290Y445810D01*
X113890Y427910D02*
X115890Y425910D01*
X110718Y431524D02*
X113890Y428352D01*
X110718Y431524D02*
Y442238D01*
X114290Y445810D02*
X118760D01*
X121010Y448060D01*
X179390Y501910D02*
X179890Y501410D01*
X176181Y501910D02*
X179390D01*
X258267Y441910D02*
X258722Y441455D01*
X254640Y441910D02*
X258267D01*
X239393Y486660D02*
X242864Y483189D01*
X246986D02*
X247390Y482785D01*
X237890Y486660D02*
X239393D01*
X247486Y400314D02*
X254049D01*
X234390Y409606D02*
Y412018D01*
X234454Y412081D02*
Y412474D01*
X234390Y412018D02*
X234454Y412081D01*
Y412474D02*
X238390Y416410D01*
X176890Y458410D02*
X177890Y459410D01*
Y461265D01*
X180343Y467718D02*
Y469863D01*
X181690Y471210D01*
X187020D01*
X178987Y466363D02*
X180343Y467718D01*
X187020Y471210D02*
X189270Y473460D01*
X252771Y453910D02*
X261840D01*
X250135Y456546D02*
Y458510D01*
Y456546D02*
X252771Y453910D01*
X243510Y460760D02*
X247885D01*
X250135Y458510D01*
X176390Y458410D02*
X176890D01*
X164914Y511386D02*
X172205D01*
X242864Y483189D02*
X246986D01*
X237140Y487410D02*
X237890Y486660D01*
X205149Y398669D02*
X207272D01*
X204890Y398410D02*
X205149Y398669D01*
X204890Y386410D02*
X207140D01*
X162390Y399610D02*
X191440D01*
X192640Y398410D01*
X169002Y382610D02*
X188840D01*
X192640Y386410D01*
X164702Y386910D02*
X169002Y382610D01*
X178987Y462363D02*
Y466363D01*
X177890Y461265D02*
X178987Y462363D01*
X238390Y425910D02*
X246390D01*
X236390Y427910D02*
Y428352D01*
X233218Y442238D02*
X236790Y445810D01*
X236390Y427910D02*
X238390Y425910D01*
X233218Y431524D02*
X236390Y428352D01*
X233218Y431524D02*
Y442238D01*
X236790Y445810D02*
X241260D01*
X243510Y448060D01*
X301890Y501910D02*
X302390Y501410D01*
X298681Y501910D02*
X301890D01*
X380767Y441910D02*
X381222Y441455D01*
X377140Y441910D02*
X380767D01*
X361893Y486660D02*
X365364Y483189D01*
X369486D02*
X369890Y482785D01*
X360390Y486660D02*
X361893D01*
X369986Y400314D02*
X376549D01*
X356890Y409606D02*
Y412018D01*
X356954Y412081D02*
Y412474D01*
X356890Y412018D02*
X356954Y412081D01*
Y412474D02*
X360890Y416410D01*
X299390Y458410D02*
X300390Y459410D01*
Y461265D01*
X302843Y467718D02*
Y469863D01*
X304190Y471210D01*
X309520D01*
X301487Y466363D02*
X302843Y467718D01*
X309520Y471210D02*
X311770Y473460D01*
X375271Y453910D02*
X384340D01*
X372635Y456546D02*
Y458510D01*
Y456546D02*
X375271Y453910D01*
X366010Y460760D02*
X370385D01*
X372635Y458510D01*
X298890Y458410D02*
X299390D01*
X287414Y511386D02*
X294705D01*
X365364Y483189D02*
X369486D01*
X359640Y487410D02*
X360390Y486660D01*
X327649Y398669D02*
X329772D01*
X327390Y398410D02*
X327649Y398669D01*
X327390Y386410D02*
X329640D01*
X284890Y399610D02*
X313940D01*
X315140Y398410D01*
X291502Y382610D02*
X311340D01*
X315140Y386410D01*
X287202Y386910D02*
X291502Y382610D01*
X301487Y462363D02*
Y466363D01*
X300390Y461265D02*
X301487Y462363D01*
X360890Y425910D02*
X368890D01*
X358890Y427910D02*
Y428352D01*
X355718Y442238D02*
X359290Y445810D01*
X358890Y427910D02*
X360890Y425910D01*
X355718Y431524D02*
X358890Y428352D01*
X355718Y431524D02*
Y442238D01*
X359290Y445810D02*
X363760D01*
X366010Y448060D01*
X424390Y501910D02*
X424890Y501410D01*
X421181Y501910D02*
X424390D01*
X503267Y441910D02*
X503722Y441455D01*
X499640Y441910D02*
X503267D01*
X484393Y486660D02*
X487864Y483189D01*
X491986D02*
X492390Y482785D01*
X482890Y486660D02*
X484393D01*
X492486Y400314D02*
X499049D01*
X479390Y409606D02*
Y412018D01*
X479454Y412081D02*
Y412474D01*
X479390Y412018D02*
X479454Y412081D01*
Y412474D02*
X483390Y416410D01*
X421890Y458410D02*
X422890Y459410D01*
Y461265D01*
X425343Y467718D02*
Y469863D01*
X426690Y471210D01*
X432020D01*
X423987Y466363D02*
X425343Y467718D01*
X432020Y471210D02*
X434270Y473460D01*
X497771Y453910D02*
X506840D01*
X495135Y456546D02*
Y458510D01*
Y456546D02*
X497771Y453910D01*
X488510Y460760D02*
X492885D01*
X495135Y458510D01*
X421390Y458410D02*
X421890D01*
X409913Y511386D02*
X417205D01*
X487864Y483189D02*
X491986D01*
X482140Y487410D02*
X482890Y486660D01*
X450149Y398669D02*
X452272D01*
X449890Y398410D02*
X450149Y398669D01*
X449890Y386410D02*
X452140D01*
X407390Y399610D02*
X436440D01*
X437640Y398410D01*
X414002Y382610D02*
X433840D01*
X437640Y386410D01*
X409702Y386910D02*
X414002Y382610D01*
X423987Y462363D02*
Y466363D01*
X422890Y461265D02*
X423987Y462363D01*
X483390Y425910D02*
X491390D01*
X481390Y427910D02*
Y428352D01*
X478218Y442238D02*
X481790Y445810D01*
X481390Y427910D02*
X483390Y425910D01*
X478218Y431524D02*
X481390Y428352D01*
X478218Y431524D02*
Y442238D01*
X481790Y445810D02*
X486260D01*
X488510Y448060D01*
D26*
X55890Y188410D02*
Y188527D01*
X53890Y188410D02*
X55890D01*
X101690Y185910D02*
X104890D01*
X108390Y189410D01*
Y192410D01*
X99140Y178160D02*
X99890Y177410D01*
X134822Y171693D02*
X139957D01*
X74390Y206910D02*
Y210909D01*
X55890Y101910D02*
Y114410D01*
Y100410D02*
Y101910D01*
X50990Y105310D02*
X55890Y100410D01*
X45431Y172310D02*
X45790D01*
X41931Y168810D02*
X45431Y172310D01*
X50640Y177160D02*
X60890D01*
X45790Y172310D02*
X50640Y177160D01*
X57390Y194410D02*
X60890Y190910D01*
X125236Y175439D02*
X131075D01*
X134822Y171693D01*
X124890Y175785D02*
X125236Y175439D01*
X123890Y107910D02*
X124269Y108289D01*
X83890Y181410D02*
Y181910D01*
X83890Y181910D02*
X83890Y181910D01*
X93390Y179660D02*
X94890Y178160D01*
X93390Y179660D02*
Y181910D01*
X94890Y178160D02*
X99140D01*
X99890Y177410D02*
Y178410D01*
X73390Y205910D02*
X74390Y206910D01*
X39890Y105310D02*
X50990D01*
X178390Y188410D02*
Y188527D01*
X176390Y188410D02*
X178390D01*
X224190Y185910D02*
X227390D01*
X230890Y189410D01*
Y192410D01*
X221640Y178160D02*
X222390Y177410D01*
X257322Y171693D02*
X262457D01*
X196890Y206910D02*
Y210909D01*
X178390Y101910D02*
Y114410D01*
Y100410D02*
Y101910D01*
X173490Y105310D02*
X178390Y100410D01*
X167931Y172310D02*
X168290D01*
X164431Y168810D02*
X167931Y172310D01*
X173140Y177160D02*
X183390D01*
X168290Y172310D02*
X173140Y177160D01*
X179890Y194410D02*
X183390Y190910D01*
X247736Y175439D02*
X253575D01*
X257322Y171693D01*
X247390Y175785D02*
X247736Y175439D01*
X246390Y107910D02*
X246769Y108289D01*
X206390Y181410D02*
Y181910D01*
X206390Y181910D02*
X206390Y181910D01*
X215890Y179660D02*
X217390Y178160D01*
X215890Y179660D02*
Y181910D01*
X217390Y178160D02*
X221640D01*
X222390Y177410D02*
Y178410D01*
X195890Y205910D02*
X196890Y206910D01*
X162390Y105310D02*
X173490D01*
X300890Y188410D02*
Y188527D01*
X298890Y188410D02*
X300890D01*
X346690Y185910D02*
X349890D01*
X353390Y189410D01*
Y192410D01*
X344140Y178160D02*
X344890Y177410D01*
X379822Y171693D02*
X384957D01*
X319390Y206910D02*
Y210909D01*
X300890Y101910D02*
Y114410D01*
Y100410D02*
Y101910D01*
X295990Y105310D02*
X300890Y100410D01*
X290431Y172310D02*
X290790D01*
X286931Y168810D02*
X290431Y172310D01*
X295640Y177160D02*
X305890D01*
X290790Y172310D02*
X295640Y177160D01*
X302390Y194410D02*
X305890Y190910D01*
X370236Y175439D02*
X376076D01*
X379822Y171693D01*
X369890Y175785D02*
X370236Y175439D01*
X368890Y107910D02*
X369269Y108289D01*
X328890Y181410D02*
Y181910D01*
X328890Y181910D02*
X328890Y181910D01*
X338390Y179660D02*
X339890Y178160D01*
X338390Y179660D02*
Y181910D01*
X339890Y178160D02*
X344140D01*
X344890Y177410D02*
Y178410D01*
X318390Y205910D02*
X319390Y206910D01*
X284890Y105310D02*
X295990D01*
X423390Y188410D02*
Y188527D01*
X421390Y188410D02*
X423390D01*
X469190Y185910D02*
X472390D01*
X475890Y189410D01*
Y192410D01*
X466640Y178160D02*
X467390Y177410D01*
X502322Y171693D02*
X507457D01*
X441890Y206910D02*
Y210909D01*
X423390Y101910D02*
Y114410D01*
Y100410D02*
Y101910D01*
X418490Y105310D02*
X423390Y100410D01*
X412931Y172310D02*
X413290D01*
X409431Y168810D02*
X412931Y172310D01*
X418140Y177160D02*
X428390D01*
X413290Y172310D02*
X418140Y177160D01*
X424890Y194410D02*
X428390Y190910D01*
X492736Y175439D02*
X498576D01*
X502322Y171693D01*
X492390Y175785D02*
X492736Y175439D01*
X491390Y107910D02*
X491769Y108289D01*
X451390Y181410D02*
Y181910D01*
X451390Y181910D02*
X451390Y181910D01*
X460890Y179660D02*
X462390Y178160D01*
X460890Y179660D02*
Y181910D01*
X462390Y178160D02*
X466640D01*
X467390Y177410D02*
Y178410D01*
X440890Y205910D02*
X441890Y206910D01*
X407390Y105310D02*
X418490D01*
X55890Y341910D02*
Y342027D01*
X53890Y341910D02*
X55890D01*
X101690Y339410D02*
X104890D01*
X108390Y342910D01*
Y345910D01*
X99140Y331660D02*
X99890Y330910D01*
X134822Y325193D02*
X139957D01*
X74390Y360410D02*
Y364409D01*
X55890Y255410D02*
Y267910D01*
Y253910D02*
Y255410D01*
X50990Y258810D02*
X55890Y253910D01*
X45431Y325810D02*
X45790D01*
X41931Y322310D02*
X45431Y325810D01*
X50640Y330660D02*
X60890D01*
X45790Y325810D02*
X50640Y330660D01*
X57390Y347910D02*
X60890Y344410D01*
X125236Y328939D02*
X131075D01*
X134822Y325193D01*
X124890Y329285D02*
X125236Y328939D01*
X123890Y261410D02*
X124269Y261789D01*
X83890Y334910D02*
Y335410D01*
X83890Y335410D02*
X83890Y335410D01*
X93390Y333160D02*
X94890Y331660D01*
X93390Y333160D02*
Y335410D01*
X94890Y331660D02*
X99140D01*
X99890Y330910D02*
Y331910D01*
X73390Y359410D02*
X74390Y360410D01*
X39890Y258810D02*
X50990D01*
X178390Y341910D02*
Y342027D01*
X176390Y341910D02*
X178390D01*
X224190Y339410D02*
X227390D01*
X230890Y342910D01*
Y345910D01*
X221640Y331660D02*
X222390Y330910D01*
X257322Y325193D02*
X262457D01*
X196890Y360410D02*
Y364409D01*
X178390Y255410D02*
Y267910D01*
Y253910D02*
Y255410D01*
X173490Y258810D02*
X178390Y253910D01*
X167931Y325810D02*
X168290D01*
X164431Y322310D02*
X167931Y325810D01*
X173140Y330660D02*
X183390D01*
X168290Y325810D02*
X173140Y330660D01*
X179890Y347910D02*
X183390Y344410D01*
X247736Y328939D02*
X253575D01*
X257322Y325193D01*
X247390Y329285D02*
X247736Y328939D01*
X246390Y261410D02*
X246769Y261789D01*
X206390Y334910D02*
Y335410D01*
X206390Y335410D02*
X206390Y335410D01*
X215890Y333160D02*
X217390Y331660D01*
X215890Y333160D02*
Y335410D01*
X217390Y331660D02*
X221640D01*
X222390Y330910D02*
Y331910D01*
X195890Y359410D02*
X196890Y360410D01*
X162390Y258810D02*
X173490D01*
X300890Y341910D02*
Y342027D01*
X298890Y341910D02*
X300890D01*
X346690Y339410D02*
X349890D01*
X353390Y342910D01*
Y345910D01*
X344140Y331660D02*
X344890Y330910D01*
X379822Y325193D02*
X384957D01*
X319390Y360410D02*
Y364409D01*
X300890Y255410D02*
Y267910D01*
Y253910D02*
Y255410D01*
X295990Y258810D02*
X300890Y253910D01*
X290431Y325810D02*
X290790D01*
X286931Y322310D02*
X290431Y325810D01*
X295640Y330660D02*
X305890D01*
X290790Y325810D02*
X295640Y330660D01*
X302390Y347910D02*
X305890Y344410D01*
X370236Y328939D02*
X376076D01*
X379822Y325193D01*
X369890Y329285D02*
X370236Y328939D01*
X368890Y261410D02*
X369269Y261789D01*
X328890Y334910D02*
Y335410D01*
X328890Y335410D02*
X328890Y335410D01*
X338390Y333160D02*
X339890Y331660D01*
X338390Y333160D02*
Y335410D01*
X339890Y331660D02*
X344140D01*
X344890Y330910D02*
Y331910D01*
X318390Y359410D02*
X319390Y360410D01*
X284890Y258810D02*
X295990D01*
X423390Y341910D02*
Y342027D01*
X421390Y341910D02*
X423390D01*
X469190Y339410D02*
X472390D01*
X475890Y342910D01*
Y345910D01*
X466640Y331660D02*
X467390Y330910D01*
X502322Y325193D02*
X507457D01*
X441890Y360410D02*
Y364409D01*
X423390Y255410D02*
Y267910D01*
Y253910D02*
Y255410D01*
X418490Y258810D02*
X423390Y253910D01*
X412931Y325810D02*
X413290D01*
X409431Y322310D02*
X412931Y325810D01*
X418140Y330660D02*
X428390D01*
X413290Y325810D02*
X418140Y330660D01*
X424890Y347910D02*
X428390Y344410D01*
X492736Y328939D02*
X498576D01*
X502322Y325193D01*
X492390Y329285D02*
X492736Y328939D01*
X491390Y261410D02*
X491769Y261789D01*
X451390Y334910D02*
Y335410D01*
X451390Y335410D02*
X451390Y335410D01*
X460890Y333160D02*
X462390Y331660D01*
X460890Y333160D02*
Y335410D01*
X462390Y331660D02*
X466640D01*
X467390Y330910D02*
Y331910D01*
X440890Y359410D02*
X441890Y360410D01*
X407390Y258810D02*
X418490D01*
X55890Y495410D02*
Y495527D01*
X53890Y495410D02*
X55890D01*
X101690Y492910D02*
X104890D01*
X108390Y496410D01*
Y499410D01*
X99140Y485160D02*
X99890Y484410D01*
X134822Y478693D02*
X139957D01*
X74390Y513910D02*
Y517909D01*
X55890Y408910D02*
Y421410D01*
Y407410D02*
Y408910D01*
X50990Y412310D02*
X55890Y407410D01*
X45431Y479310D02*
X45790D01*
X41931Y475810D02*
X45431Y479310D01*
X50640Y484160D02*
X60890D01*
X45790Y479310D02*
X50640Y484160D01*
X57390Y501410D02*
X60890Y497910D01*
X125236Y482439D02*
X131075D01*
X134822Y478693D01*
X124890Y482785D02*
X125236Y482439D01*
X123890Y414910D02*
X124269Y415289D01*
X83890Y488410D02*
Y488910D01*
X83890Y488910D02*
X83890Y488910D01*
X93390Y486660D02*
X94890Y485160D01*
X93390Y486660D02*
Y488910D01*
X94890Y485160D02*
X99140D01*
X99890Y484410D02*
Y485410D01*
X73390Y512910D02*
X74390Y513910D01*
X39890Y412310D02*
X50990D01*
X178390Y495410D02*
Y495527D01*
X176390Y495410D02*
X178390D01*
X224190Y492910D02*
X227390D01*
X230890Y496410D01*
Y499410D01*
X221640Y485160D02*
X222390Y484410D01*
X257322Y478693D02*
X262457D01*
X196890Y513910D02*
Y517909D01*
X178390Y408910D02*
Y421410D01*
Y407410D02*
Y408910D01*
X173490Y412310D02*
X178390Y407410D01*
X167931Y479310D02*
X168290D01*
X164431Y475810D02*
X167931Y479310D01*
X173140Y484160D02*
X183390D01*
X168290Y479310D02*
X173140Y484160D01*
X179890Y501410D02*
X183390Y497910D01*
X247736Y482439D02*
X253575D01*
X257322Y478693D01*
X247390Y482785D02*
X247736Y482439D01*
X246390Y414910D02*
X246769Y415289D01*
X206390Y488410D02*
Y488910D01*
X206390Y488910D02*
X206390Y488910D01*
X215890Y486660D02*
X217390Y485160D01*
X215890Y486660D02*
Y488910D01*
X217390Y485160D02*
X221640D01*
X222390Y484410D02*
Y485410D01*
X195890Y512910D02*
X196890Y513910D01*
X162390Y412310D02*
X173490D01*
X300890Y495410D02*
Y495527D01*
X298890Y495410D02*
X300890D01*
X346690Y492910D02*
X349890D01*
X353390Y496410D01*
Y499410D01*
X344140Y485160D02*
X344890Y484410D01*
X379822Y478693D02*
X384957D01*
X319390Y513910D02*
Y517909D01*
X300890Y408910D02*
Y421410D01*
Y407410D02*
Y408910D01*
X295990Y412310D02*
X300890Y407410D01*
X290431Y479310D02*
X290790D01*
X286931Y475810D02*
X290431Y479310D01*
X295640Y484160D02*
X305890D01*
X290790Y479310D02*
X295640Y484160D01*
X302390Y501410D02*
X305890Y497910D01*
X370236Y482439D02*
X376076D01*
X379822Y478693D01*
X369890Y482785D02*
X370236Y482439D01*
X368890Y414910D02*
X369269Y415289D01*
X328890Y488410D02*
Y488910D01*
X328890Y488910D02*
X328890Y488910D01*
X338390Y486660D02*
X339890Y485160D01*
X338390Y486660D02*
Y488910D01*
X339890Y485160D02*
X344140D01*
X344890Y484410D02*
Y485410D01*
X318390Y512910D02*
X319390Y513910D01*
X284890Y412310D02*
X295990D01*
X423390Y495410D02*
Y495527D01*
X421390Y495410D02*
X423390D01*
X469190Y492910D02*
X472390D01*
X475890Y496410D01*
Y499410D01*
X466640Y485160D02*
X467390Y484410D01*
X502322Y478693D02*
X507457D01*
X441890Y513910D02*
Y517909D01*
X423390Y408910D02*
Y421410D01*
Y407410D02*
Y408910D01*
X418490Y412310D02*
X423390Y407410D01*
X412931Y479310D02*
X413290D01*
X409431Y475810D02*
X412931Y479310D01*
X418140Y484160D02*
X428390D01*
X413290Y479310D02*
X418140Y484160D01*
X424890Y501410D02*
X428390Y497910D01*
X492736Y482439D02*
X498576D01*
X502322Y478693D01*
X492390Y482785D02*
X492736Y482439D01*
X491390Y414910D02*
X491769Y415289D01*
X451390Y488410D02*
Y488910D01*
X451390Y488910D02*
X451390Y488910D01*
X460890Y486660D02*
X462390Y485160D01*
X460890Y486660D02*
Y488910D01*
X462390Y485160D02*
X466640D01*
X467390Y484410D02*
Y485410D01*
X440890Y512910D02*
X441890Y513910D01*
X407390Y412310D02*
X418490D01*
D27*
X51037Y158427D02*
Y159613D01*
X49890Y157280D02*
X51037Y158427D01*
X127385Y163765D02*
Y164460D01*
Y163765D02*
X131890Y159260D01*
X121010Y166460D02*
X125385D01*
X127385Y164460D01*
X173537Y158427D02*
Y159613D01*
X172390Y157280D02*
X173537Y158427D01*
X249885Y163765D02*
Y164460D01*
Y163765D02*
X254390Y159260D01*
X243510Y166460D02*
X247885D01*
X249885Y164460D01*
X296037Y158427D02*
Y159613D01*
X294890Y157280D02*
X296037Y158427D01*
X372385Y163765D02*
Y164460D01*
Y163765D02*
X376890Y159260D01*
X366010Y166460D02*
X370385D01*
X372385Y164460D01*
X418537Y158427D02*
Y159613D01*
X417390Y157280D02*
X418537Y158427D01*
X494885Y163765D02*
Y164460D01*
Y163765D02*
X499390Y159260D01*
X488510Y166460D02*
X492885D01*
X494885Y164460D01*
X51037Y311927D02*
Y313113D01*
X49890Y310780D02*
X51037Y311927D01*
X127385Y317265D02*
Y317960D01*
Y317265D02*
X131890Y312760D01*
X121010Y319960D02*
X125385D01*
X127385Y317960D01*
X173537Y311927D02*
Y313113D01*
X172390Y310780D02*
X173537Y311927D01*
X249885Y317265D02*
Y317960D01*
Y317265D02*
X254390Y312760D01*
X243510Y319960D02*
X247885D01*
X249885Y317960D01*
X296037Y311927D02*
Y313113D01*
X294890Y310780D02*
X296037Y311927D01*
X372385Y317265D02*
Y317960D01*
Y317265D02*
X376890Y312760D01*
X366010Y319960D02*
X370385D01*
X372385Y317960D01*
X418537Y311927D02*
Y313113D01*
X417390Y310780D02*
X418537Y311927D01*
X494885Y317265D02*
Y317960D01*
Y317265D02*
X499390Y312760D01*
X488510Y319960D02*
X492885D01*
X494885Y317960D01*
X51037Y465427D02*
Y466613D01*
X49890Y464280D02*
X51037Y465427D01*
X127385Y470765D02*
Y471460D01*
Y470765D02*
X131890Y466260D01*
X121010Y473460D02*
X125385D01*
X127385Y471460D01*
X173537Y465427D02*
Y466613D01*
X172390Y464280D02*
X173537Y465427D01*
X249885Y470765D02*
Y471460D01*
Y470765D02*
X254390Y466260D01*
X243510Y473460D02*
X247885D01*
X249885Y471460D01*
X296037Y465427D02*
Y466613D01*
X294890Y464280D02*
X296037Y465427D01*
X372385Y470765D02*
Y471460D01*
Y470765D02*
X376890Y466260D01*
X366010Y473460D02*
X370385D01*
X372385Y471460D01*
X418537Y465427D02*
Y466613D01*
X417390Y464280D02*
X418537Y465427D01*
X494885Y470765D02*
Y471460D01*
Y470765D02*
X499390Y466260D01*
X488510Y473460D02*
X492885D01*
X494885Y471460D01*
D28*
X126890Y208410D02*
X127140Y208160D01*
Y192660D02*
Y208160D01*
X128290Y193310D02*
X141490D01*
X127390Y192410D02*
X128290Y193310D01*
X127140Y192660D02*
X127390Y192410D01*
X249390Y208410D02*
X249640Y208160D01*
Y192660D02*
Y208160D01*
X250790Y193310D02*
X263990D01*
X249890Y192410D02*
X250790Y193310D01*
X249640Y192660D02*
X249890Y192410D01*
X371890Y208410D02*
X372140Y208160D01*
Y192660D02*
Y208160D01*
X373290Y193310D02*
X386490D01*
X372390Y192410D02*
X373290Y193310D01*
X372140Y192660D02*
X372390Y192410D01*
X494390Y208410D02*
X494640Y208160D01*
Y192660D02*
Y208160D01*
X495790Y193310D02*
X508990D01*
X494890Y192410D02*
X495790Y193310D01*
X494640Y192660D02*
X494890Y192410D01*
X126890Y361910D02*
X127140Y361660D01*
Y346160D02*
Y361660D01*
X128290Y346810D02*
X141490D01*
X127390Y345910D02*
X128290Y346810D01*
X127140Y346160D02*
X127390Y345910D01*
X249390Y361910D02*
X249640Y361660D01*
Y346160D02*
Y361660D01*
X250790Y346810D02*
X263990D01*
X249890Y345910D02*
X250790Y346810D01*
X249640Y346160D02*
X249890Y345910D01*
X371890Y361910D02*
X372140Y361660D01*
Y346160D02*
Y361660D01*
X373290Y346810D02*
X386490D01*
X372390Y345910D02*
X373290Y346810D01*
X372140Y346160D02*
X372390Y345910D01*
X494390Y361910D02*
X494640Y361660D01*
Y346160D02*
Y361660D01*
X495790Y346810D02*
X508990D01*
X494890Y345910D02*
X495790Y346810D01*
X494640Y346160D02*
X494890Y345910D01*
X126890Y515410D02*
X127140Y515160D01*
Y499660D02*
Y515160D01*
X128290Y500310D02*
X141490D01*
X127390Y499410D02*
X128290Y500310D01*
X127140Y499660D02*
X127390Y499410D01*
X249390Y515410D02*
X249640Y515160D01*
Y499660D02*
Y515160D01*
X250790Y500310D02*
X263990D01*
X249890Y499410D02*
X250790Y500310D01*
X249640Y499660D02*
X249890Y499410D01*
X371890Y515410D02*
X372140Y515160D01*
Y499660D02*
Y515160D01*
X373290Y500310D02*
X386490D01*
X372390Y499410D02*
X373290Y500310D01*
X372140Y499660D02*
X372390Y499410D01*
X494390Y515410D02*
X494640Y515160D01*
Y499660D02*
Y515160D01*
X495790Y500310D02*
X508990D01*
X494890Y499410D02*
X495790Y500310D01*
X494640Y499660D02*
X494890Y499410D01*
D29*
X70640Y210410D02*
X73891D01*
X62390D02*
X70640D01*
X73891D02*
X74390Y210909D01*
X60890Y208910D02*
X62390Y210410D01*
X68327Y102472D02*
X68890Y103035D01*
X58515D02*
X59078Y102472D01*
X68327D01*
X68890Y103035D02*
X69015D01*
X70640Y101410D01*
X91952Y114722D02*
X92265Y114410D01*
X83640Y115035D02*
X83953Y114722D01*
X91952D01*
X82390Y103035D02*
X82952Y102472D01*
X97327D02*
X97890Y101910D01*
X82952Y102472D02*
X96077D01*
X55890Y100410D02*
X58515Y103035D01*
X193140Y210410D02*
X196391D01*
X184890D02*
X193140D01*
X196391D02*
X196890Y210909D01*
X183390Y208910D02*
X184890Y210410D01*
X190827Y102472D02*
X191390Y103035D01*
X181015D02*
X181577Y102472D01*
X190827D01*
X191390Y103035D02*
X191515D01*
X193140Y101410D01*
X214452Y114722D02*
X214765Y114410D01*
X206140Y115035D02*
X206453Y114722D01*
X214452D01*
X204890Y103035D02*
X205452Y102472D01*
X219827D02*
X220390Y101910D01*
X205452Y102472D02*
X218577D01*
X178390Y100410D02*
X181015Y103035D01*
X315640Y210410D02*
X318891D01*
X307390D02*
X315640D01*
X318891D02*
X319390Y210909D01*
X305890Y208910D02*
X307390Y210410D01*
X313327Y102472D02*
X313890Y103035D01*
X303515D02*
X304077Y102472D01*
X313327D01*
X313890Y103035D02*
X314015D01*
X315640Y101410D01*
X336953Y114722D02*
X337265Y114410D01*
X328640Y115035D02*
X328952Y114722D01*
X336953D01*
X327390Y103035D02*
X327952Y102472D01*
X342327D02*
X342890Y101910D01*
X327952Y102472D02*
X341077D01*
X300890Y100410D02*
X303515Y103035D01*
X438140Y210410D02*
X441391D01*
X429890D02*
X438140D01*
X441391D02*
X441890Y210909D01*
X428390Y208910D02*
X429890Y210410D01*
X435827Y102472D02*
X436390Y103035D01*
X426015D02*
X426577Y102472D01*
X435827D01*
X436390Y103035D02*
X436515D01*
X438140Y101410D01*
X459453Y114722D02*
X459765Y114410D01*
X451140Y115035D02*
X451452Y114722D01*
X459453D01*
X449890Y103035D02*
X450452Y102472D01*
X464827D02*
X465390Y101910D01*
X450452Y102472D02*
X463577D01*
X423390Y100410D02*
X426015Y103035D01*
X70640Y363910D02*
X73891D01*
X62390D02*
X70640D01*
X73891D02*
X74390Y364409D01*
X60890Y362410D02*
X62390Y363910D01*
X68327Y255972D02*
X68890Y256535D01*
X58515D02*
X59078Y255972D01*
X68327D01*
X68890Y256535D02*
X69015D01*
X70640Y254910D01*
X91952Y268223D02*
X92265Y267910D01*
X83640Y268535D02*
X83953Y268223D01*
X91952D01*
X82390Y256535D02*
X82952Y255972D01*
X97327D02*
X97890Y255410D01*
X82952Y255972D02*
X96077D01*
X55890Y253910D02*
X58515Y256535D01*
X193140Y363910D02*
X196391D01*
X184890D02*
X193140D01*
X196391D02*
X196890Y364409D01*
X183390Y362410D02*
X184890Y363910D01*
X190827Y255972D02*
X191390Y256535D01*
X181015D02*
X181577Y255972D01*
X190827D01*
X191390Y256535D02*
X191515D01*
X193140Y254910D01*
X214452Y268223D02*
X214765Y267910D01*
X206140Y268535D02*
X206453Y268223D01*
X214452D01*
X204890Y256535D02*
X205452Y255972D01*
X219827D02*
X220390Y255410D01*
X205452Y255972D02*
X218577D01*
X178390Y253910D02*
X181015Y256535D01*
X315640Y363910D02*
X318891D01*
X307390D02*
X315640D01*
X318891D02*
X319390Y364409D01*
X305890Y362410D02*
X307390Y363910D01*
X313327Y255972D02*
X313890Y256535D01*
X303515D02*
X304077Y255972D01*
X313327D01*
X313890Y256535D02*
X314015D01*
X315640Y254910D01*
X336953Y268223D02*
X337265Y267910D01*
X328640Y268535D02*
X328952Y268223D01*
X336953D01*
X327390Y256535D02*
X327952Y255972D01*
X342327D02*
X342890Y255410D01*
X327952Y255972D02*
X341077D01*
X300890Y253910D02*
X303515Y256535D01*
X438140Y363910D02*
X441391D01*
X429890D02*
X438140D01*
X441391D02*
X441890Y364409D01*
X428390Y362410D02*
X429890Y363910D01*
X435827Y255972D02*
X436390Y256535D01*
X426015D02*
X426577Y255972D01*
X435827D01*
X436390Y256535D02*
X436515D01*
X438140Y254910D01*
X459453Y268223D02*
X459765Y267910D01*
X451140Y268535D02*
X451452Y268223D01*
X459453D01*
X449890Y256535D02*
X450452Y255972D01*
X464827D02*
X465390Y255410D01*
X450452Y255972D02*
X463577D01*
X423390Y253910D02*
X426015Y256535D01*
X70640Y517410D02*
X73891D01*
X62390D02*
X70640D01*
X73891D02*
X74390Y517909D01*
X60890Y515910D02*
X62390Y517410D01*
X68327Y409472D02*
X68890Y410035D01*
X58515D02*
X59078Y409472D01*
X68327D01*
X68890Y410035D02*
X69015D01*
X70640Y408410D01*
X91952Y421722D02*
X92265Y421410D01*
X83640Y422035D02*
X83953Y421722D01*
X91952D01*
X82390Y410035D02*
X82952Y409472D01*
X97327D02*
X97890Y408910D01*
X82952Y409472D02*
X96077D01*
X55890Y407410D02*
X58515Y410035D01*
X193140Y517410D02*
X196391D01*
X184890D02*
X193140D01*
X196391D02*
X196890Y517909D01*
X183390Y515910D02*
X184890Y517410D01*
X190827Y409472D02*
X191390Y410035D01*
X181015D02*
X181577Y409472D01*
X190827D01*
X191390Y410035D02*
X191515D01*
X193140Y408410D01*
X214452Y421722D02*
X214765Y421410D01*
X206140Y422035D02*
X206453Y421722D01*
X214452D01*
X204890Y410035D02*
X205452Y409472D01*
X219827D02*
X220390Y408910D01*
X205452Y409472D02*
X218577D01*
X178390Y407410D02*
X181015Y410035D01*
X315640Y517410D02*
X318891D01*
X307390D02*
X315640D01*
X318891D02*
X319390Y517909D01*
X305890Y515910D02*
X307390Y517410D01*
X313327Y409472D02*
X313890Y410035D01*
X303515D02*
X304077Y409472D01*
X313327D01*
X313890Y410035D02*
X314015D01*
X315640Y408410D01*
X336953Y421722D02*
X337265Y421410D01*
X328640Y422035D02*
X328952Y421722D01*
X336953D01*
X327390Y410035D02*
X327952Y409472D01*
X342327D02*
X342890Y408910D01*
X327952Y409472D02*
X341077D01*
X300890Y407410D02*
X303515Y410035D01*
X438140Y517410D02*
X441391D01*
X429890D02*
X438140D01*
X441391D02*
X441890Y517909D01*
X428390Y515910D02*
X429890Y517410D01*
X435827Y409472D02*
X436390Y410035D01*
X426015D02*
X426577Y409472D01*
X435827D01*
X436390Y410035D02*
X436515D01*
X438140Y408410D01*
X459453Y421722D02*
X459765Y421410D01*
X451140Y422035D02*
X451452Y421722D01*
X459453D01*
X449890Y410035D02*
X450452Y409472D01*
X464827D02*
X465390Y408910D01*
X450452Y409472D02*
X463577D01*
X423390Y407410D02*
X426015Y410035D01*
D30*
X133240Y97243D02*
X141307Y105310D01*
X132594Y95514D02*
X133240Y96160D01*
Y97243D01*
X255740D02*
X263807Y105310D01*
X255094Y95514D02*
X255740Y96160D01*
Y97243D01*
X378240D02*
X386307Y105310D01*
X377594Y95514D02*
X378240Y96160D01*
Y97243D01*
X500740D02*
X508807Y105310D01*
X500094Y95514D02*
X500740Y96160D01*
Y97243D01*
X133240Y250743D02*
X141307Y258810D01*
X132594Y249014D02*
X133240Y249660D01*
Y250743D01*
X255740D02*
X263807Y258810D01*
X255094Y249014D02*
X255740Y249660D01*
Y250743D01*
X378240D02*
X386307Y258810D01*
X377594Y249014D02*
X378240Y249660D01*
Y250743D01*
X500740D02*
X508807Y258810D01*
X500094Y249014D02*
X500740Y249660D01*
Y250743D01*
X133240Y404243D02*
X141307Y412310D01*
X132594Y402514D02*
X133240Y403160D01*
Y404243D01*
X255740D02*
X263807Y412310D01*
X255094Y402514D02*
X255740Y403160D01*
Y404243D01*
X378240D02*
X386307Y412310D01*
X377594Y402514D02*
X378240Y403160D01*
Y404243D01*
X500740D02*
X508807Y412310D01*
X500094Y402514D02*
X500740Y403160D01*
Y404243D01*
D31*
X530000Y30000D02*
D03*
X20000Y560000D02*
D03*
Y30000D02*
D03*
X530000Y560000D02*
D03*
D32*
X39890Y118010D02*
D03*
Y130710D02*
D03*
Y79910D02*
D03*
Y105310D02*
D03*
Y92610D02*
D03*
Y206910D02*
D03*
Y194210D02*
D03*
Y156110D02*
D03*
Y143410D02*
D03*
Y181510D02*
D03*
Y168810D02*
D03*
X142390Y118010D02*
D03*
Y130710D02*
D03*
Y79910D02*
D03*
Y105310D02*
D03*
Y92610D02*
D03*
Y206910D02*
D03*
Y194210D02*
D03*
Y156110D02*
D03*
Y143410D02*
D03*
Y181510D02*
D03*
Y168810D02*
D03*
X162390Y118010D02*
D03*
Y130710D02*
D03*
Y79910D02*
D03*
Y105310D02*
D03*
Y92610D02*
D03*
Y206910D02*
D03*
Y194210D02*
D03*
Y156110D02*
D03*
Y143410D02*
D03*
Y181510D02*
D03*
Y168810D02*
D03*
X264890Y118010D02*
D03*
Y130710D02*
D03*
Y79910D02*
D03*
Y105310D02*
D03*
Y92610D02*
D03*
Y206910D02*
D03*
Y194210D02*
D03*
Y156110D02*
D03*
Y143410D02*
D03*
Y181510D02*
D03*
Y168810D02*
D03*
X284890Y118010D02*
D03*
Y130710D02*
D03*
Y79910D02*
D03*
Y105310D02*
D03*
Y92610D02*
D03*
Y206910D02*
D03*
Y194210D02*
D03*
Y156110D02*
D03*
Y143410D02*
D03*
Y181510D02*
D03*
Y168810D02*
D03*
X387390Y118010D02*
D03*
Y130710D02*
D03*
Y79910D02*
D03*
Y105310D02*
D03*
Y92610D02*
D03*
Y206910D02*
D03*
Y194210D02*
D03*
Y156110D02*
D03*
Y143410D02*
D03*
Y181510D02*
D03*
Y168810D02*
D03*
X407390Y118010D02*
D03*
Y130710D02*
D03*
Y79910D02*
D03*
Y105310D02*
D03*
Y92610D02*
D03*
Y206910D02*
D03*
Y194210D02*
D03*
Y156110D02*
D03*
Y143410D02*
D03*
Y181510D02*
D03*
Y168810D02*
D03*
X509890Y118010D02*
D03*
Y130710D02*
D03*
Y79910D02*
D03*
Y105310D02*
D03*
Y92610D02*
D03*
Y206910D02*
D03*
Y194210D02*
D03*
Y156110D02*
D03*
Y143410D02*
D03*
Y181510D02*
D03*
Y168810D02*
D03*
X39890Y271510D02*
D03*
Y284210D02*
D03*
Y233410D02*
D03*
Y258810D02*
D03*
Y246110D02*
D03*
Y360410D02*
D03*
Y347710D02*
D03*
Y309610D02*
D03*
Y296910D02*
D03*
Y335010D02*
D03*
Y322310D02*
D03*
X142390Y271510D02*
D03*
Y284210D02*
D03*
Y233410D02*
D03*
Y258810D02*
D03*
Y246110D02*
D03*
Y360410D02*
D03*
Y347710D02*
D03*
Y309610D02*
D03*
Y296910D02*
D03*
Y335010D02*
D03*
Y322310D02*
D03*
X162390Y271510D02*
D03*
Y284210D02*
D03*
Y233410D02*
D03*
Y258810D02*
D03*
Y246110D02*
D03*
Y360410D02*
D03*
Y347710D02*
D03*
Y309610D02*
D03*
Y296910D02*
D03*
Y335010D02*
D03*
Y322310D02*
D03*
X264890Y271510D02*
D03*
Y284210D02*
D03*
Y233410D02*
D03*
Y258810D02*
D03*
Y246110D02*
D03*
Y360410D02*
D03*
Y347710D02*
D03*
Y309610D02*
D03*
Y296910D02*
D03*
Y335010D02*
D03*
Y322310D02*
D03*
X284890Y271510D02*
D03*
Y284210D02*
D03*
Y233410D02*
D03*
Y258810D02*
D03*
Y246110D02*
D03*
Y360410D02*
D03*
Y347710D02*
D03*
Y309610D02*
D03*
Y296910D02*
D03*
Y335010D02*
D03*
Y322310D02*
D03*
X387390Y271510D02*
D03*
Y284210D02*
D03*
Y233410D02*
D03*
Y258810D02*
D03*
Y246110D02*
D03*
Y360410D02*
D03*
Y347710D02*
D03*
Y309610D02*
D03*
Y296910D02*
D03*
Y335010D02*
D03*
Y322310D02*
D03*
X407390Y271510D02*
D03*
Y284210D02*
D03*
Y233410D02*
D03*
Y258810D02*
D03*
Y246110D02*
D03*
Y360410D02*
D03*
Y347710D02*
D03*
Y309610D02*
D03*
Y296910D02*
D03*
Y335010D02*
D03*
Y322310D02*
D03*
X509890Y271510D02*
D03*
Y284210D02*
D03*
Y233410D02*
D03*
Y258810D02*
D03*
Y246110D02*
D03*
Y360410D02*
D03*
Y347710D02*
D03*
Y309610D02*
D03*
Y296910D02*
D03*
Y335010D02*
D03*
Y322310D02*
D03*
X39890Y425010D02*
D03*
Y437710D02*
D03*
Y386910D02*
D03*
Y412310D02*
D03*
Y399610D02*
D03*
Y513910D02*
D03*
Y501210D02*
D03*
Y463110D02*
D03*
Y450410D02*
D03*
Y488510D02*
D03*
Y475810D02*
D03*
X142390Y425010D02*
D03*
Y437710D02*
D03*
Y386910D02*
D03*
Y412310D02*
D03*
Y399610D02*
D03*
Y513910D02*
D03*
Y501210D02*
D03*
Y463110D02*
D03*
Y450410D02*
D03*
Y488510D02*
D03*
Y475810D02*
D03*
X162390Y425010D02*
D03*
Y437710D02*
D03*
Y386910D02*
D03*
Y412310D02*
D03*
Y399610D02*
D03*
Y513910D02*
D03*
Y501210D02*
D03*
Y463110D02*
D03*
Y450410D02*
D03*
Y488510D02*
D03*
Y475810D02*
D03*
X264890Y425010D02*
D03*
Y437710D02*
D03*
Y386910D02*
D03*
Y412310D02*
D03*
Y399610D02*
D03*
Y513910D02*
D03*
Y501210D02*
D03*
Y463110D02*
D03*
Y450410D02*
D03*
Y488510D02*
D03*
Y475810D02*
D03*
X284890Y425010D02*
D03*
Y437710D02*
D03*
Y386910D02*
D03*
Y412310D02*
D03*
Y399610D02*
D03*
Y513910D02*
D03*
Y501210D02*
D03*
Y463110D02*
D03*
Y450410D02*
D03*
Y488510D02*
D03*
Y475810D02*
D03*
X387390Y425010D02*
D03*
Y437710D02*
D03*
Y386910D02*
D03*
Y412310D02*
D03*
Y399610D02*
D03*
Y513910D02*
D03*
Y501210D02*
D03*
Y463110D02*
D03*
Y450410D02*
D03*
Y488510D02*
D03*
Y475810D02*
D03*
X407390Y425010D02*
D03*
Y437710D02*
D03*
Y386910D02*
D03*
Y412310D02*
D03*
Y399610D02*
D03*
Y513910D02*
D03*
Y501210D02*
D03*
Y463110D02*
D03*
Y450410D02*
D03*
Y488510D02*
D03*
Y475810D02*
D03*
X509890Y425010D02*
D03*
Y437710D02*
D03*
Y386910D02*
D03*
Y412310D02*
D03*
Y399610D02*
D03*
Y513910D02*
D03*
Y501210D02*
D03*
Y463110D02*
D03*
Y450410D02*
D03*
Y488510D02*
D03*
Y475810D02*
D03*
D33*
X49890Y213160D02*
D03*
X108890Y193160D02*
D03*
X99890Y92660D02*
D03*
X109890Y147410D02*
D03*
X60890Y188410D02*
D03*
X110640Y160660D02*
D03*
X76640Y160160D02*
D03*
X70640Y210410D02*
D03*
Y101410D02*
D03*
X132390Y102310D02*
D03*
X130140Y160660D02*
D03*
X100140Y114410D02*
D03*
X115712Y131610D02*
D03*
X126786D02*
D03*
X109610Y204836D02*
D03*
X107586Y209207D02*
D03*
X101890Y187410D02*
D03*
X54890Y152410D02*
D03*
X52755Y99115D02*
D03*
X61140Y114410D02*
D03*
X55554Y127765D02*
D03*
X50890Y123410D02*
D03*
X72890Y124410D02*
D03*
X49890Y112410D02*
D03*
X60890Y87410D02*
D03*
X72890Y132410D02*
D03*
X66890Y128410D02*
D03*
X84890Y193410D02*
D03*
X53890Y188410D02*
D03*
X83890Y209410D02*
D03*
Y203410D02*
D03*
X117890Y187410D02*
D03*
Y197410D02*
D03*
X107890Y94410D02*
D03*
X110390Y88601D02*
D03*
X49890Y156874D02*
D03*
X132588Y151837D02*
D03*
X97890Y101910D02*
D03*
X118302Y76953D02*
D03*
X125140Y78010D02*
D03*
X67890Y115410D02*
D03*
X60890Y182410D02*
D03*
X107381Y180660D02*
D03*
X84772Y91669D02*
D03*
X84640Y79910D02*
D03*
X83890Y181410D02*
D03*
X99140Y178410D02*
D03*
X92265Y114410D02*
D03*
X108607Y114483D02*
D03*
X132222Y85668D02*
D03*
X121010Y128360D02*
D03*
X55795Y81055D02*
D03*
X98072Y81218D02*
D03*
X172390Y213160D02*
D03*
X231390Y193160D02*
D03*
X222390Y92660D02*
D03*
X232390Y147410D02*
D03*
X183390Y188410D02*
D03*
X233140Y160660D02*
D03*
X199140Y160160D02*
D03*
X193140Y210410D02*
D03*
Y101410D02*
D03*
X254890Y102310D02*
D03*
X252640Y160660D02*
D03*
X222640Y114410D02*
D03*
X238212Y131610D02*
D03*
X249286D02*
D03*
X232110Y204836D02*
D03*
X230086Y209207D02*
D03*
X224390Y187410D02*
D03*
X177390Y152410D02*
D03*
X175255Y99115D02*
D03*
X183640Y114410D02*
D03*
X178054Y127765D02*
D03*
X173390Y123410D02*
D03*
X195390Y124410D02*
D03*
X172390Y112410D02*
D03*
X183390Y87410D02*
D03*
X195390Y132410D02*
D03*
X189390Y128410D02*
D03*
X207390Y193410D02*
D03*
X176390Y188410D02*
D03*
X206390Y209410D02*
D03*
Y203410D02*
D03*
X240390Y187410D02*
D03*
Y197410D02*
D03*
X230390Y94410D02*
D03*
X232890Y88601D02*
D03*
X172390Y156874D02*
D03*
X255088Y151837D02*
D03*
X220390Y101910D02*
D03*
X240802Y76953D02*
D03*
X247640Y78010D02*
D03*
X190390Y115410D02*
D03*
X183390Y182410D02*
D03*
X229881Y180660D02*
D03*
X207272Y91669D02*
D03*
X207140Y79910D02*
D03*
X206390Y181410D02*
D03*
X221640Y178410D02*
D03*
X214765Y114410D02*
D03*
X231107Y114483D02*
D03*
X254722Y85668D02*
D03*
X243510Y128360D02*
D03*
X178295Y81055D02*
D03*
X220572Y81218D02*
D03*
X294890Y213160D02*
D03*
X353890Y193160D02*
D03*
X344890Y92660D02*
D03*
X354890Y147410D02*
D03*
X305890Y188410D02*
D03*
X355640Y160660D02*
D03*
X321640Y160160D02*
D03*
X315640Y210410D02*
D03*
Y101410D02*
D03*
X377390Y102310D02*
D03*
X375140Y160660D02*
D03*
X345140Y114410D02*
D03*
X360712Y131610D02*
D03*
X371786D02*
D03*
X354610Y204836D02*
D03*
X352586Y209207D02*
D03*
X346890Y187410D02*
D03*
X299890Y152410D02*
D03*
X297755Y99115D02*
D03*
X306140Y114410D02*
D03*
X300554Y127765D02*
D03*
X295890Y123410D02*
D03*
X317890Y124410D02*
D03*
X294890Y112410D02*
D03*
X305890Y87410D02*
D03*
X317890Y132410D02*
D03*
X311890Y128410D02*
D03*
X329890Y193410D02*
D03*
X298890Y188410D02*
D03*
X328890Y209410D02*
D03*
Y203410D02*
D03*
X362890Y187410D02*
D03*
Y197410D02*
D03*
X352890Y94410D02*
D03*
X355390Y88601D02*
D03*
X294890Y156874D02*
D03*
X377588Y151837D02*
D03*
X342890Y101910D02*
D03*
X363302Y76953D02*
D03*
X370140Y78010D02*
D03*
X312890Y115410D02*
D03*
X305890Y182410D02*
D03*
X352381Y180660D02*
D03*
X329772Y91669D02*
D03*
X329640Y79910D02*
D03*
X328890Y181410D02*
D03*
X344140Y178410D02*
D03*
X337265Y114410D02*
D03*
X353607Y114483D02*
D03*
X377222Y85668D02*
D03*
X366010Y128360D02*
D03*
X300795Y81055D02*
D03*
X343072Y81218D02*
D03*
X417390Y213160D02*
D03*
X476390Y193160D02*
D03*
X467390Y92660D02*
D03*
X477390Y147410D02*
D03*
X428390Y188410D02*
D03*
X478140Y160660D02*
D03*
X444140Y160160D02*
D03*
X438140Y210410D02*
D03*
Y101410D02*
D03*
X499890Y102310D02*
D03*
X497640Y160660D02*
D03*
X467640Y114410D02*
D03*
X483212Y131610D02*
D03*
X494286D02*
D03*
X477110Y204836D02*
D03*
X475086Y209207D02*
D03*
X469390Y187410D02*
D03*
X422390Y152410D02*
D03*
X420255Y99115D02*
D03*
X428640Y114410D02*
D03*
X423054Y127765D02*
D03*
X418390Y123410D02*
D03*
X440390Y124410D02*
D03*
X417390Y112410D02*
D03*
X428390Y87410D02*
D03*
X440390Y132410D02*
D03*
X434390Y128410D02*
D03*
X452390Y193410D02*
D03*
X421390Y188410D02*
D03*
X451390Y209410D02*
D03*
Y203410D02*
D03*
X485390Y187410D02*
D03*
Y197410D02*
D03*
X475390Y94410D02*
D03*
X477890Y88601D02*
D03*
X417390Y156874D02*
D03*
X500088Y151837D02*
D03*
X465390Y101910D02*
D03*
X485802Y76953D02*
D03*
X492640Y78010D02*
D03*
X435390Y115410D02*
D03*
X428390Y182410D02*
D03*
X474881Y180660D02*
D03*
X452272Y91669D02*
D03*
X452140Y79910D02*
D03*
X451390Y181410D02*
D03*
X466640Y178410D02*
D03*
X459765Y114410D02*
D03*
X476107Y114483D02*
D03*
X499722Y85668D02*
D03*
X488510Y128360D02*
D03*
X423295Y81055D02*
D03*
X465572Y81218D02*
D03*
X49890Y366660D02*
D03*
X108890Y346660D02*
D03*
X99890Y246160D02*
D03*
X109890Y300910D02*
D03*
X60890Y341910D02*
D03*
X110640Y314160D02*
D03*
X76640Y313660D02*
D03*
X70640Y363910D02*
D03*
Y254910D02*
D03*
X132390Y255810D02*
D03*
X130140Y314160D02*
D03*
X100140Y267910D02*
D03*
X115712Y285110D02*
D03*
X126786D02*
D03*
X109610Y358336D02*
D03*
X107586Y362707D02*
D03*
X101890Y340910D02*
D03*
X54890Y305910D02*
D03*
X52755Y252615D02*
D03*
X61140Y267910D02*
D03*
X55554Y281265D02*
D03*
X50890Y276910D02*
D03*
X72890Y277910D02*
D03*
X49890Y265910D02*
D03*
X60890Y240910D02*
D03*
X72890Y285910D02*
D03*
X66890Y281910D02*
D03*
X84890Y346910D02*
D03*
X53890Y341910D02*
D03*
X83890Y362910D02*
D03*
Y356910D02*
D03*
X117890Y340910D02*
D03*
Y350910D02*
D03*
X107890Y247910D02*
D03*
X110390Y242101D02*
D03*
X49890Y310374D02*
D03*
X132588Y305337D02*
D03*
X97890Y255410D02*
D03*
X118302Y230452D02*
D03*
X125140Y231510D02*
D03*
X67890Y268910D02*
D03*
X60890Y335910D02*
D03*
X107381Y334160D02*
D03*
X84772Y245169D02*
D03*
X84640Y233410D02*
D03*
X83890Y334910D02*
D03*
X99140Y331910D02*
D03*
X92265Y267910D02*
D03*
X108607Y267983D02*
D03*
X132222Y239168D02*
D03*
X121010Y281860D02*
D03*
X55795Y234555D02*
D03*
X98072Y234718D02*
D03*
X172390Y366660D02*
D03*
X231390Y346660D02*
D03*
X222390Y246160D02*
D03*
X232390Y300910D02*
D03*
X183390Y341910D02*
D03*
X233140Y314160D02*
D03*
X199140Y313660D02*
D03*
X193140Y363910D02*
D03*
Y254910D02*
D03*
X254890Y255810D02*
D03*
X252640Y314160D02*
D03*
X222640Y267910D02*
D03*
X238212Y285110D02*
D03*
X249286D02*
D03*
X232110Y358336D02*
D03*
X230086Y362707D02*
D03*
X224390Y340910D02*
D03*
X177390Y305910D02*
D03*
X175255Y252615D02*
D03*
X183640Y267910D02*
D03*
X178054Y281265D02*
D03*
X173390Y276910D02*
D03*
X195390Y277910D02*
D03*
X172390Y265910D02*
D03*
X183390Y240910D02*
D03*
X195390Y285910D02*
D03*
X189390Y281910D02*
D03*
X207390Y346910D02*
D03*
X176390Y341910D02*
D03*
X206390Y362910D02*
D03*
Y356910D02*
D03*
X240390Y340910D02*
D03*
Y350910D02*
D03*
X230390Y247910D02*
D03*
X232890Y242101D02*
D03*
X172390Y310374D02*
D03*
X255088Y305337D02*
D03*
X220390Y255410D02*
D03*
X240802Y230452D02*
D03*
X247640Y231510D02*
D03*
X190390Y268910D02*
D03*
X183390Y335910D02*
D03*
X229881Y334160D02*
D03*
X207272Y245169D02*
D03*
X207140Y233410D02*
D03*
X206390Y334910D02*
D03*
X221640Y331910D02*
D03*
X214765Y267910D02*
D03*
X231107Y267983D02*
D03*
X254722Y239168D02*
D03*
X243510Y281860D02*
D03*
X178295Y234555D02*
D03*
X220572Y234718D02*
D03*
X294890Y366660D02*
D03*
X353890Y346660D02*
D03*
X344890Y246160D02*
D03*
X354890Y300910D02*
D03*
X305890Y341910D02*
D03*
X355640Y314160D02*
D03*
X321640Y313660D02*
D03*
X315640Y363910D02*
D03*
Y254910D02*
D03*
X377390Y255810D02*
D03*
X375140Y314160D02*
D03*
X345140Y267910D02*
D03*
X360712Y285110D02*
D03*
X371786D02*
D03*
X354610Y358336D02*
D03*
X352586Y362707D02*
D03*
X346890Y340910D02*
D03*
X299890Y305910D02*
D03*
X297755Y252615D02*
D03*
X306140Y267910D02*
D03*
X300554Y281265D02*
D03*
X295890Y276910D02*
D03*
X317890Y277910D02*
D03*
X294890Y265910D02*
D03*
X305890Y240910D02*
D03*
X317890Y285910D02*
D03*
X311890Y281910D02*
D03*
X329890Y346910D02*
D03*
X298890Y341910D02*
D03*
X328890Y362910D02*
D03*
Y356910D02*
D03*
X362890Y340910D02*
D03*
Y350910D02*
D03*
X352890Y247910D02*
D03*
X355390Y242101D02*
D03*
X294890Y310374D02*
D03*
X377588Y305337D02*
D03*
X342890Y255410D02*
D03*
X363302Y230452D02*
D03*
X370140Y231510D02*
D03*
X312890Y268910D02*
D03*
X305890Y335910D02*
D03*
X352381Y334160D02*
D03*
X329772Y245169D02*
D03*
X329640Y233410D02*
D03*
X328890Y334910D02*
D03*
X344140Y331910D02*
D03*
X337265Y267910D02*
D03*
X353607Y267983D02*
D03*
X377222Y239168D02*
D03*
X366010Y281860D02*
D03*
X300795Y234555D02*
D03*
X343072Y234718D02*
D03*
X417390Y366660D02*
D03*
X476390Y346660D02*
D03*
X467390Y246160D02*
D03*
X477390Y300910D02*
D03*
X428390Y341910D02*
D03*
X478140Y314160D02*
D03*
X444140Y313660D02*
D03*
X438140Y363910D02*
D03*
Y254910D02*
D03*
X499890Y255810D02*
D03*
X497640Y314160D02*
D03*
X467640Y267910D02*
D03*
X483212Y285110D02*
D03*
X494286D02*
D03*
X477110Y358336D02*
D03*
X475086Y362707D02*
D03*
X469390Y340910D02*
D03*
X422390Y305910D02*
D03*
X420255Y252615D02*
D03*
X428640Y267910D02*
D03*
X423054Y281265D02*
D03*
X418390Y276910D02*
D03*
X440390Y277910D02*
D03*
X417390Y265910D02*
D03*
X428390Y240910D02*
D03*
X440390Y285910D02*
D03*
X434390Y281910D02*
D03*
X452390Y346910D02*
D03*
X421390Y341910D02*
D03*
X451390Y362910D02*
D03*
Y356910D02*
D03*
X485390Y340910D02*
D03*
Y350910D02*
D03*
X475390Y247910D02*
D03*
X477890Y242101D02*
D03*
X417390Y310374D02*
D03*
X500088Y305337D02*
D03*
X465390Y255410D02*
D03*
X485802Y230452D02*
D03*
X492640Y231510D02*
D03*
X435390Y268910D02*
D03*
X428390Y335910D02*
D03*
X474881Y334160D02*
D03*
X452272Y245169D02*
D03*
X452140Y233410D02*
D03*
X451390Y334910D02*
D03*
X466640Y331910D02*
D03*
X459765Y267910D02*
D03*
X476107Y267983D02*
D03*
X499722Y239168D02*
D03*
X488510Y281860D02*
D03*
X423295Y234555D02*
D03*
X465572Y234718D02*
D03*
X49890Y520160D02*
D03*
X108890Y500160D02*
D03*
X99890Y399660D02*
D03*
X109890Y454410D02*
D03*
X60890Y495410D02*
D03*
X110640Y467660D02*
D03*
X76640Y467160D02*
D03*
X70640Y517410D02*
D03*
Y408410D02*
D03*
X132390Y409310D02*
D03*
X130140Y467660D02*
D03*
X100140Y421410D02*
D03*
X115712Y438610D02*
D03*
X126786D02*
D03*
X109610Y511836D02*
D03*
X107586Y516207D02*
D03*
X101890Y494410D02*
D03*
X54890Y459410D02*
D03*
X52755Y406115D02*
D03*
X61140Y421410D02*
D03*
X55554Y434765D02*
D03*
X50890Y430410D02*
D03*
X72890Y431410D02*
D03*
X49890Y419410D02*
D03*
X60890Y394410D02*
D03*
X72890Y439410D02*
D03*
X66890Y435410D02*
D03*
X84890Y500410D02*
D03*
X53890Y495410D02*
D03*
X83890Y516410D02*
D03*
Y510410D02*
D03*
X117890Y494410D02*
D03*
Y504410D02*
D03*
X107890Y401410D02*
D03*
X110390Y395601D02*
D03*
X49890Y463874D02*
D03*
X132588Y458837D02*
D03*
X97890Y408910D02*
D03*
X118302Y383952D02*
D03*
X125140Y385010D02*
D03*
X67890Y422410D02*
D03*
X60890Y489410D02*
D03*
X107381Y487660D02*
D03*
X84772Y398669D02*
D03*
X84640Y386910D02*
D03*
X83890Y488410D02*
D03*
X99140Y485410D02*
D03*
X92265Y421410D02*
D03*
X108607Y421483D02*
D03*
X132222Y392668D02*
D03*
X121010Y435360D02*
D03*
X55795Y388055D02*
D03*
X98072Y388218D02*
D03*
X172390Y520160D02*
D03*
X231390Y500160D02*
D03*
X222390Y399660D02*
D03*
X232390Y454410D02*
D03*
X183390Y495410D02*
D03*
X233140Y467660D02*
D03*
X199140Y467160D02*
D03*
X193140Y517410D02*
D03*
Y408410D02*
D03*
X254890Y409310D02*
D03*
X252640Y467660D02*
D03*
X222640Y421410D02*
D03*
X238212Y438610D02*
D03*
X249286D02*
D03*
X232110Y511836D02*
D03*
X230086Y516207D02*
D03*
X224390Y494410D02*
D03*
X177390Y459410D02*
D03*
X175255Y406115D02*
D03*
X183640Y421410D02*
D03*
X178054Y434765D02*
D03*
X173390Y430410D02*
D03*
X195390Y431410D02*
D03*
X172390Y419410D02*
D03*
X183390Y394410D02*
D03*
X195390Y439410D02*
D03*
X189390Y435410D02*
D03*
X207390Y500410D02*
D03*
X176390Y495410D02*
D03*
X206390Y516410D02*
D03*
Y510410D02*
D03*
X240390Y494410D02*
D03*
Y504410D02*
D03*
X230390Y401410D02*
D03*
X232890Y395601D02*
D03*
X172390Y463874D02*
D03*
X255088Y458837D02*
D03*
X220390Y408910D02*
D03*
X240802Y383952D02*
D03*
X247640Y385010D02*
D03*
X190390Y422410D02*
D03*
X183390Y489410D02*
D03*
X229881Y487660D02*
D03*
X207272Y398669D02*
D03*
X207140Y386910D02*
D03*
X206390Y488410D02*
D03*
X221640Y485410D02*
D03*
X214765Y421410D02*
D03*
X231107Y421483D02*
D03*
X254722Y392668D02*
D03*
X243510Y435360D02*
D03*
X178295Y388055D02*
D03*
X220572Y388218D02*
D03*
X294890Y520160D02*
D03*
X353890Y500160D02*
D03*
X344890Y399660D02*
D03*
X354890Y454410D02*
D03*
X305890Y495410D02*
D03*
X355640Y467660D02*
D03*
X321640Y467160D02*
D03*
X315640Y517410D02*
D03*
Y408410D02*
D03*
X377390Y409310D02*
D03*
X375140Y467660D02*
D03*
X345140Y421410D02*
D03*
X360712Y438610D02*
D03*
X371786D02*
D03*
X354610Y511836D02*
D03*
X352586Y516207D02*
D03*
X346890Y494410D02*
D03*
X299890Y459410D02*
D03*
X297755Y406115D02*
D03*
X306140Y421410D02*
D03*
X300554Y434765D02*
D03*
X295890Y430410D02*
D03*
X317890Y431410D02*
D03*
X294890Y419410D02*
D03*
X305890Y394410D02*
D03*
X317890Y439410D02*
D03*
X311890Y435410D02*
D03*
X329890Y500410D02*
D03*
X298890Y495410D02*
D03*
X328890Y516410D02*
D03*
Y510410D02*
D03*
X362890Y494410D02*
D03*
Y504410D02*
D03*
X352890Y401410D02*
D03*
X355390Y395601D02*
D03*
X294890Y463874D02*
D03*
X377588Y458837D02*
D03*
X342890Y408910D02*
D03*
X363302Y383952D02*
D03*
X370140Y385010D02*
D03*
X312890Y422410D02*
D03*
X305890Y489410D02*
D03*
X352381Y487660D02*
D03*
X329772Y398669D02*
D03*
X329640Y386910D02*
D03*
X328890Y488410D02*
D03*
X344140Y485410D02*
D03*
X337265Y421410D02*
D03*
X353607Y421483D02*
D03*
X377222Y392668D02*
D03*
X366010Y435360D02*
D03*
X300795Y388055D02*
D03*
X343072Y388218D02*
D03*
X417390Y520160D02*
D03*
X476390Y500160D02*
D03*
X467390Y399660D02*
D03*
X477390Y454410D02*
D03*
X428390Y495410D02*
D03*
X478140Y467660D02*
D03*
X444140Y467160D02*
D03*
X438140Y517410D02*
D03*
Y408410D02*
D03*
X499890Y409310D02*
D03*
X497640Y467660D02*
D03*
X467640Y421410D02*
D03*
X483212Y438610D02*
D03*
X494286D02*
D03*
X477110Y511836D02*
D03*
X475086Y516207D02*
D03*
X469390Y494410D02*
D03*
X422390Y459410D02*
D03*
X420255Y406115D02*
D03*
X428640Y421410D02*
D03*
X423054Y434765D02*
D03*
X418390Y430410D02*
D03*
X440390Y431410D02*
D03*
X417390Y419410D02*
D03*
X428390Y394410D02*
D03*
X440390Y439410D02*
D03*
X434390Y435410D02*
D03*
X452390Y500410D02*
D03*
X421390Y495410D02*
D03*
X451390Y516410D02*
D03*
Y510410D02*
D03*
X485390Y494410D02*
D03*
Y504410D02*
D03*
X475390Y401410D02*
D03*
X477890Y395601D02*
D03*
X417390Y463874D02*
D03*
X500088Y458837D02*
D03*
X465390Y408910D02*
D03*
X485802Y383952D02*
D03*
X492640Y385010D02*
D03*
X435390Y422410D02*
D03*
X428390Y489410D02*
D03*
X474881Y487660D02*
D03*
X452272Y398669D02*
D03*
X452140Y386910D02*
D03*
X451390Y488410D02*
D03*
X466640Y485410D02*
D03*
X459765Y421410D02*
D03*
X476107Y421483D02*
D03*
X499722Y392668D02*
D03*
X488510Y435360D02*
D03*
X423295Y388055D02*
D03*
X465572Y388218D02*
D03*
D34*
X126861Y180836D02*
D03*
X249361D02*
D03*
X371861D02*
D03*
X494361D02*
D03*
X126861Y334336D02*
D03*
X249361D02*
D03*
X371861D02*
D03*
X494361D02*
D03*
X126861Y487836D02*
D03*
X249361D02*
D03*
X371861D02*
D03*
X494361D02*
D03*
M02*
