G04*
G04 #@! TF.GenerationSoftware,Altium Limited,Altium Designer,25.0.2 (28)*
G04*
G04 Layer_Color=16711935*
%FSLAX44Y44*%
%MOMM*%
G71*
G04*
G04 #@! TF.SameCoordinates,6A123C44-6EB7-423C-9969-B25F4FCB3D5A*
G04*
G04*
G04 #@! TF.FilePolarity,Positive*
G04*
G01*
G75*
%ADD37C,0.1000*%
D37*
X0Y0D02*
X550000D01*
X550000Y590000D02*
X550000Y0D01*
X-0Y590000D02*
X550000D01*
X-0D02*
X0Y0D01*
X39890Y530000D02*
X39890Y60000D01*
X29780D02*
Y530000D01*
X407500Y60000D02*
Y530000D01*
X285000Y60000D02*
Y530000D01*
X162500Y60000D02*
Y530000D01*
X520000Y60000D02*
Y530000D01*
X387390D02*
X387390Y60000D01*
X264890Y530000D02*
X264890Y60000D01*
X142390Y530000D02*
X142390Y60000D01*
X509890Y530000D02*
X509890Y60000D01*
X434742Y55347D02*
X429410D01*
Y51349D01*
X432076D01*
X429410D01*
Y47350D01*
X437407D02*
X440073D01*
X438740D01*
Y52682D01*
X437407D01*
X449403Y55347D02*
Y47350D01*
X445405D01*
X444072Y48683D01*
Y51349D01*
X445405Y52682D01*
X449403D01*
X452069D02*
Y48683D01*
X453402Y47350D01*
X457401D01*
Y52682D01*
X465398D02*
X461400D01*
X460067Y51349D01*
Y48683D01*
X461400Y47350D01*
X465398D01*
X468064D02*
X470730D01*
X469397D01*
Y52682D01*
X468064D01*
X476062D02*
X478727D01*
X480060Y51349D01*
Y47350D01*
X476062D01*
X474729Y48683D01*
X476062Y50016D01*
X480060D01*
X482726Y47350D02*
X485392D01*
X484059D01*
Y55347D01*
X482726D01*
X490360Y45473D02*
X495692D01*
X493026D01*
Y37476D01*
X499690D02*
X502356D01*
X503689Y38809D01*
Y41474D01*
X502356Y42807D01*
X499690D01*
X498357Y41474D01*
Y38809D01*
X499690Y37476D01*
X507688D02*
X510354D01*
X511687Y38809D01*
Y41474D01*
X510354Y42807D01*
X507688D01*
X506355Y41474D01*
Y38809D01*
X507688Y37476D01*
X514352D02*
X517018D01*
X515685D01*
Y45473D01*
X514352D01*
X521017Y37476D02*
X523683D01*
X522350D01*
Y42807D01*
X521017D01*
X527681Y37476D02*
Y42807D01*
X531680D01*
X533013Y41474D01*
Y37476D01*
X538344Y34810D02*
X539678D01*
X541010Y36143D01*
Y42807D01*
X537012D01*
X535679Y41474D01*
Y38809D01*
X537012Y37476D01*
X541010D01*
X551674Y45473D02*
Y37476D01*
Y41474D01*
X553007Y42807D01*
X555672D01*
X557005Y41474D01*
Y37476D01*
X561004D02*
X563670D01*
X565003Y38809D01*
Y41474D01*
X563670Y42807D01*
X561004D01*
X559671Y41474D01*
Y38809D01*
X561004Y37476D01*
X567668D02*
X570334D01*
X569001D01*
Y45473D01*
X567668D01*
X578332Y37476D02*
X575666D01*
X574333Y38809D01*
Y41474D01*
X575666Y42807D01*
X578332D01*
X579665Y41474D01*
Y40142D01*
X574333D01*
X-19640Y45473D02*
X-14308D01*
X-16974D01*
Y37476D01*
X-10310D02*
X-7644D01*
X-6311Y38809D01*
Y41474D01*
X-7644Y42807D01*
X-10310D01*
X-11643Y41474D01*
Y38809D01*
X-10310Y37476D01*
X-2312D02*
X354D01*
X1687Y38809D01*
Y41474D01*
X354Y42807D01*
X-2312D01*
X-3645Y41474D01*
Y38809D01*
X-2312Y37476D01*
X4352D02*
X7018D01*
X5685D01*
Y45473D01*
X4352D01*
X11017Y37476D02*
X13683D01*
X12350D01*
Y42807D01*
X11017D01*
X17681Y37476D02*
Y42807D01*
X21680D01*
X23013Y41474D01*
Y37476D01*
X28345Y34810D02*
X29678D01*
X31010Y36143D01*
Y42807D01*
X27012D01*
X25679Y41474D01*
Y38809D01*
X27012Y37476D01*
X31010D01*
X41674Y45473D02*
Y37476D01*
Y41474D01*
X43007Y42807D01*
X45672D01*
X47005Y41474D01*
Y37476D01*
X51004D02*
X53670D01*
X55003Y38809D01*
Y41474D01*
X53670Y42807D01*
X51004D01*
X49671Y41474D01*
Y38809D01*
X51004Y37476D01*
X57668D02*
X60334D01*
X59001D01*
Y45473D01*
X57668D01*
X68332Y37476D02*
X65666D01*
X64333Y38809D01*
Y41474D01*
X65666Y42807D01*
X68332D01*
X69665Y41474D01*
Y40142D01*
X64333D01*
X490360Y575473D02*
X495692D01*
X493026D01*
Y567476D01*
X499690D02*
X502356D01*
X503689Y568809D01*
Y571474D01*
X502356Y572807D01*
X499690D01*
X498357Y571474D01*
Y568809D01*
X499690Y567476D01*
X507688D02*
X510354D01*
X511687Y568809D01*
Y571474D01*
X510354Y572807D01*
X507688D01*
X506355Y571474D01*
Y568809D01*
X507688Y567476D01*
X514352D02*
X517018D01*
X515685D01*
Y575473D01*
X514352D01*
X521017Y567476D02*
X523683D01*
X522350D01*
Y572807D01*
X521017D01*
X527681Y567476D02*
Y572807D01*
X531680D01*
X533013Y571474D01*
Y567476D01*
X538344Y564810D02*
X539678D01*
X541010Y566143D01*
Y572807D01*
X537012D01*
X535679Y571474D01*
Y568809D01*
X537012Y567476D01*
X541010D01*
X551674Y575473D02*
Y567476D01*
Y571474D01*
X553007Y572807D01*
X555672D01*
X557005Y571474D01*
Y567476D01*
X561004D02*
X563670D01*
X565003Y568809D01*
Y571474D01*
X563670Y572807D01*
X561004D01*
X559671Y571474D01*
Y568809D01*
X561004Y567476D01*
X567668D02*
X570334D01*
X569001D01*
Y575473D01*
X567668D01*
X578332Y567476D02*
X575666D01*
X574333Y568809D01*
Y571474D01*
X575666Y572807D01*
X578332D01*
X579665Y571474D01*
Y570142D01*
X574333D01*
X-19640Y575473D02*
X-14308D01*
X-16974D01*
Y567476D01*
X-10310D02*
X-7644D01*
X-6311Y568809D01*
Y571474D01*
X-7644Y572807D01*
X-10310D01*
X-11643Y571474D01*
Y568809D01*
X-10310Y567476D01*
X-2312D02*
X354D01*
X1687Y568809D01*
Y571474D01*
X354Y572807D01*
X-2312D01*
X-3645Y571474D01*
Y568809D01*
X-2312Y567476D01*
X4352D02*
X7018D01*
X5685D01*
Y575473D01*
X4352D01*
X11017Y567476D02*
X13683D01*
X12350D01*
Y572807D01*
X11017D01*
X17681Y567476D02*
Y572807D01*
X21680D01*
X23013Y571474D01*
Y567476D01*
X28345Y564810D02*
X29678D01*
X31010Y566143D01*
Y572807D01*
X27012D01*
X25679Y571474D01*
Y568809D01*
X27012Y567476D01*
X31010D01*
X41674Y575473D02*
Y567476D01*
Y571474D01*
X43007Y572807D01*
X45672D01*
X47005Y571474D01*
Y567476D01*
X51004D02*
X53670D01*
X55003Y568809D01*
Y571474D01*
X53670Y572807D01*
X51004D01*
X49671Y571474D01*
Y568809D01*
X51004Y567476D01*
X57668D02*
X60334D01*
X59001D01*
Y575473D01*
X57668D01*
X68332Y567476D02*
X65666D01*
X64333Y568809D01*
Y571474D01*
X65666Y572807D01*
X68332D01*
X69665Y571474D01*
Y570142D01*
X64333D01*
X414742Y560347D02*
X409410D01*
Y556349D01*
X412076D01*
X409410D01*
Y552350D01*
X417407D02*
X420073D01*
X418740D01*
Y557682D01*
X417407D01*
X429404Y560347D02*
Y552350D01*
X425405D01*
X424072Y553683D01*
Y556349D01*
X425405Y557682D01*
X429404D01*
X432069D02*
Y553683D01*
X433402Y552350D01*
X437401D01*
Y557682D01*
X445398D02*
X441400D01*
X440067Y556349D01*
Y553683D01*
X441400Y552350D01*
X445398D01*
X448064D02*
X450730D01*
X449397D01*
Y557682D01*
X448064D01*
X456062D02*
X458727D01*
X460060Y556349D01*
Y552350D01*
X456062D01*
X454729Y553683D01*
X456062Y555016D01*
X460060D01*
X462726Y552350D02*
X465392D01*
X464059D01*
Y560347D01*
X462726D01*
X104742D02*
X99410D01*
Y556349D01*
X102076D01*
X99410D01*
Y552350D01*
X107407D02*
X110073D01*
X108740D01*
Y557682D01*
X107407D01*
X119403Y560347D02*
Y552350D01*
X115405D01*
X114072Y553683D01*
Y556349D01*
X115405Y557682D01*
X119403D01*
X122069D02*
Y553683D01*
X123402Y552350D01*
X127401D01*
Y557682D01*
X135398D02*
X131400D01*
X130067Y556349D01*
Y553683D01*
X131400Y552350D01*
X135398D01*
X138064D02*
X140730D01*
X139397D01*
Y557682D01*
X138064D01*
X146062D02*
X148727D01*
X150060Y556349D01*
Y552350D01*
X146062D01*
X144729Y553683D01*
X146062Y555016D01*
X150060D01*
X152726Y552350D02*
X155392D01*
X154059D01*
Y560347D01*
X152726D01*
X84742Y55347D02*
X79410D01*
Y51349D01*
X82076D01*
X79410D01*
Y47350D01*
X87407D02*
X90073D01*
X88740D01*
Y52682D01*
X87407D01*
X99404Y55347D02*
Y47350D01*
X95405D01*
X94072Y48683D01*
Y51349D01*
X95405Y52682D01*
X99404D01*
X102069D02*
Y48683D01*
X103402Y47350D01*
X107401D01*
Y52682D01*
X115398D02*
X111400D01*
X110067Y51349D01*
Y48683D01*
X111400Y47350D01*
X115398D01*
X118064D02*
X120730D01*
X119397D01*
Y52682D01*
X118064D01*
X126062D02*
X128728D01*
X130060Y51349D01*
Y47350D01*
X126062D01*
X124729Y48683D01*
X126062Y50016D01*
X130060D01*
X132726Y47350D02*
X135392D01*
X134059D01*
Y55347D01*
X132726D01*
X39890Y73410D02*
Y213410D01*
X142390Y73410D02*
Y213410D01*
X39890D02*
Y217410D01*
X142390D01*
Y213410D02*
Y217410D01*
Y69910D02*
Y73410D01*
X39890Y69910D02*
X142390D01*
X39890D02*
Y73410D01*
X30893Y114010D02*
X36891D01*
Y117009D01*
X35891Y118009D01*
X34891D01*
X33892Y117009D01*
Y114010D01*
Y117009D01*
X32892Y118009D01*
X31892D01*
X30893Y117009D01*
Y114010D01*
X36891Y121008D02*
Y123007D01*
X35891Y124007D01*
X33892D01*
X32892Y123007D01*
Y121008D01*
X33892Y120008D01*
X35891D01*
X36891Y121008D01*
X32892Y127006D02*
Y129005D01*
X33892Y130005D01*
X36891D01*
Y127006D01*
X35891Y126006D01*
X34891Y127006D01*
Y130005D01*
X32892Y132004D02*
X36891D01*
X34891D01*
X33892Y133004D01*
X32892Y134004D01*
Y135003D01*
X30893Y142001D02*
X36891D01*
Y139002D01*
X35891Y138002D01*
X33892D01*
X32892Y139002D01*
Y142001D01*
X30893Y153997D02*
Y149999D01*
X36891D01*
Y153997D01*
X33892Y149999D02*
Y151998D01*
X30893Y159995D02*
X36891D01*
Y156996D01*
X35891Y155997D01*
X33892D01*
X32892Y156996D01*
Y159995D01*
X38890Y163994D02*
Y164994D01*
X37890Y165993D01*
X32892D01*
Y162994D01*
X33892Y161995D01*
X35891D01*
X36891Y162994D01*
Y165993D01*
Y170992D02*
Y168992D01*
X35891Y167993D01*
X33892D01*
X32892Y168992D01*
Y170992D01*
X33892Y171991D01*
X34891D01*
Y167993D01*
X151387Y172810D02*
X145389D01*
Y169811D01*
X146389Y168811D01*
X147389D01*
X148388Y169811D01*
Y172810D01*
Y169811D01*
X149388Y168811D01*
X150388D01*
X151387Y169811D01*
Y172810D01*
X145389Y165812D02*
Y163813D01*
X146389Y162813D01*
X148388D01*
X149388Y163813D01*
Y165812D01*
X148388Y166812D01*
X146389D01*
X145389Y165812D01*
X149388Y159814D02*
Y157815D01*
X148388Y156815D01*
X145389D01*
Y159814D01*
X146389Y160814D01*
X147389Y159814D01*
Y156815D01*
X149388Y154816D02*
X145389D01*
X147389D01*
X148388Y153816D01*
X149388Y152816D01*
Y151817D01*
X151387Y144819D02*
X145389D01*
Y147818D01*
X146389Y148818D01*
X148388D01*
X149388Y147818D01*
Y144819D01*
X151387Y132823D02*
Y136822D01*
X145389D01*
Y132823D01*
X148388Y136822D02*
Y134822D01*
X151387Y126825D02*
X145389D01*
Y129824D01*
X146389Y130824D01*
X148388D01*
X149388Y129824D01*
Y126825D01*
X143390Y122826D02*
Y121826D01*
X144390Y120827D01*
X149388D01*
Y123826D01*
X148388Y124825D01*
X146389D01*
X145389Y123826D01*
Y120827D01*
Y115828D02*
Y117828D01*
X146389Y118827D01*
X148388D01*
X149388Y117828D01*
Y115828D01*
X148388Y114829D01*
X147389D01*
Y118827D01*
X162390Y73410D02*
Y213410D01*
X264890Y73410D02*
Y213410D01*
X162390D02*
Y217410D01*
X264890D01*
Y213410D02*
Y217410D01*
Y69910D02*
Y73410D01*
X162390Y69910D02*
X264890D01*
X162390D02*
Y73410D01*
X153393Y114010D02*
X159391D01*
Y117009D01*
X158391Y118009D01*
X157391D01*
X156392Y117009D01*
Y114010D01*
Y117009D01*
X155392Y118009D01*
X154392D01*
X153393Y117009D01*
Y114010D01*
X159391Y121008D02*
Y123007D01*
X158391Y124007D01*
X156392D01*
X155392Y123007D01*
Y121008D01*
X156392Y120008D01*
X158391D01*
X159391Y121008D01*
X155392Y127006D02*
Y129005D01*
X156392Y130005D01*
X159391D01*
Y127006D01*
X158391Y126006D01*
X157391Y127006D01*
Y130005D01*
X155392Y132004D02*
X159391D01*
X157391D01*
X156392Y133004D01*
X155392Y134004D01*
Y135003D01*
X153393Y142001D02*
X159391D01*
Y139002D01*
X158391Y138002D01*
X156392D01*
X155392Y139002D01*
Y142001D01*
X153393Y153997D02*
Y149999D01*
X159391D01*
Y153997D01*
X156392Y149999D02*
Y151998D01*
X153393Y159995D02*
X159391D01*
Y156996D01*
X158391Y155997D01*
X156392D01*
X155392Y156996D01*
Y159995D01*
X161390Y163994D02*
Y164994D01*
X160390Y165993D01*
X155392D01*
Y162994D01*
X156392Y161995D01*
X158391D01*
X159391Y162994D01*
Y165993D01*
Y170992D02*
Y168992D01*
X158391Y167993D01*
X156392D01*
X155392Y168992D01*
Y170992D01*
X156392Y171991D01*
X157391D01*
Y167993D01*
X273887Y172810D02*
X267889D01*
Y169811D01*
X268889Y168811D01*
X269889D01*
X270888Y169811D01*
Y172810D01*
Y169811D01*
X271888Y168811D01*
X272888D01*
X273887Y169811D01*
Y172810D01*
X267889Y165812D02*
Y163813D01*
X268889Y162813D01*
X270888D01*
X271888Y163813D01*
Y165812D01*
X270888Y166812D01*
X268889D01*
X267889Y165812D01*
X271888Y159814D02*
Y157815D01*
X270888Y156815D01*
X267889D01*
Y159814D01*
X268889Y160814D01*
X269889Y159814D01*
Y156815D01*
X271888Y154816D02*
X267889D01*
X269889D01*
X270888Y153816D01*
X271888Y152816D01*
Y151817D01*
X273887Y144819D02*
X267889D01*
Y147818D01*
X268889Y148818D01*
X270888D01*
X271888Y147818D01*
Y144819D01*
X273887Y132823D02*
Y136822D01*
X267889D01*
Y132823D01*
X270888Y136822D02*
Y134822D01*
X273887Y126825D02*
X267889D01*
Y129824D01*
X268889Y130824D01*
X270888D01*
X271888Y129824D01*
Y126825D01*
X265890Y122826D02*
Y121826D01*
X266890Y120827D01*
X271888D01*
Y123826D01*
X270888Y124825D01*
X268889D01*
X267889Y123826D01*
Y120827D01*
Y115828D02*
Y117828D01*
X268889Y118827D01*
X270888D01*
X271888Y117828D01*
Y115828D01*
X270888Y114829D01*
X269889D01*
Y118827D01*
X284890Y73410D02*
Y213410D01*
X387390Y73410D02*
Y213410D01*
X284890D02*
Y217410D01*
X387390D01*
Y213410D02*
Y217410D01*
Y69910D02*
Y73410D01*
X284890Y69910D02*
X387390D01*
X284890D02*
Y73410D01*
X275893Y114010D02*
X281891D01*
Y117009D01*
X280891Y118009D01*
X279891D01*
X278892Y117009D01*
Y114010D01*
Y117009D01*
X277892Y118009D01*
X276892D01*
X275893Y117009D01*
Y114010D01*
X281891Y121008D02*
Y123007D01*
X280891Y124007D01*
X278892D01*
X277892Y123007D01*
Y121008D01*
X278892Y120008D01*
X280891D01*
X281891Y121008D01*
X277892Y127006D02*
Y129005D01*
X278892Y130005D01*
X281891D01*
Y127006D01*
X280891Y126006D01*
X279891Y127006D01*
Y130005D01*
X277892Y132004D02*
X281891D01*
X279891D01*
X278892Y133004D01*
X277892Y134004D01*
Y135003D01*
X275893Y142001D02*
X281891D01*
Y139002D01*
X280891Y138002D01*
X278892D01*
X277892Y139002D01*
Y142001D01*
X275893Y153997D02*
Y149999D01*
X281891D01*
Y153997D01*
X278892Y149999D02*
Y151998D01*
X275893Y159995D02*
X281891D01*
Y156996D01*
X280891Y155997D01*
X278892D01*
X277892Y156996D01*
Y159995D01*
X283890Y163994D02*
Y164994D01*
X282890Y165993D01*
X277892D01*
Y162994D01*
X278892Y161995D01*
X280891D01*
X281891Y162994D01*
Y165993D01*
Y170992D02*
Y168992D01*
X280891Y167993D01*
X278892D01*
X277892Y168992D01*
Y170992D01*
X278892Y171991D01*
X279891D01*
Y167993D01*
X396387Y172810D02*
X390389D01*
Y169811D01*
X391389Y168811D01*
X392389D01*
X393388Y169811D01*
Y172810D01*
Y169811D01*
X394388Y168811D01*
X395388D01*
X396387Y169811D01*
Y172810D01*
X390389Y165812D02*
Y163813D01*
X391389Y162813D01*
X393388D01*
X394388Y163813D01*
Y165812D01*
X393388Y166812D01*
X391389D01*
X390389Y165812D01*
X394388Y159814D02*
Y157815D01*
X393388Y156815D01*
X390389D01*
Y159814D01*
X391389Y160814D01*
X392389Y159814D01*
Y156815D01*
X394388Y154816D02*
X390389D01*
X392389D01*
X393388Y153816D01*
X394388Y152816D01*
Y151817D01*
X396387Y144819D02*
X390389D01*
Y147818D01*
X391389Y148818D01*
X393388D01*
X394388Y147818D01*
Y144819D01*
X396387Y132823D02*
Y136822D01*
X390389D01*
Y132823D01*
X393388Y136822D02*
Y134822D01*
X396387Y126825D02*
X390389D01*
Y129824D01*
X391389Y130824D01*
X393388D01*
X394388Y129824D01*
Y126825D01*
X388390Y122826D02*
Y121826D01*
X389390Y120827D01*
X394388D01*
Y123826D01*
X393388Y124825D01*
X391389D01*
X390389Y123826D01*
Y120827D01*
Y115828D02*
Y117828D01*
X391389Y118827D01*
X393388D01*
X394388Y117828D01*
Y115828D01*
X393388Y114829D01*
X392389D01*
Y118827D01*
X407390Y73410D02*
Y213410D01*
X509890Y73410D02*
Y213410D01*
X407390D02*
Y217410D01*
X509890D01*
Y213410D02*
Y217410D01*
Y69910D02*
Y73410D01*
X407390Y69910D02*
X509890D01*
X407390D02*
Y73410D01*
X398393Y114010D02*
X404391D01*
Y117009D01*
X403391Y118009D01*
X402391D01*
X401392Y117009D01*
Y114010D01*
Y117009D01*
X400392Y118009D01*
X399392D01*
X398393Y117009D01*
Y114010D01*
X404391Y121008D02*
Y123007D01*
X403391Y124007D01*
X401392D01*
X400392Y123007D01*
Y121008D01*
X401392Y120008D01*
X403391D01*
X404391Y121008D01*
X400392Y127006D02*
Y129005D01*
X401392Y130005D01*
X404391D01*
Y127006D01*
X403391Y126006D01*
X402391Y127006D01*
Y130005D01*
X400392Y132004D02*
X404391D01*
X402391D01*
X401392Y133004D01*
X400392Y134004D01*
Y135003D01*
X398393Y142001D02*
X404391D01*
Y139002D01*
X403391Y138002D01*
X401392D01*
X400392Y139002D01*
Y142001D01*
X398393Y153997D02*
Y149999D01*
X404391D01*
Y153997D01*
X401392Y149999D02*
Y151998D01*
X398393Y159995D02*
X404391D01*
Y156996D01*
X403391Y155997D01*
X401392D01*
X400392Y156996D01*
Y159995D01*
X406390Y163994D02*
Y164994D01*
X405390Y165993D01*
X400392D01*
Y162994D01*
X401392Y161995D01*
X403391D01*
X404391Y162994D01*
Y165993D01*
Y170992D02*
Y168992D01*
X403391Y167993D01*
X401392D01*
X400392Y168992D01*
Y170992D01*
X401392Y171991D01*
X402391D01*
Y167993D01*
X518887Y172810D02*
X512889D01*
Y169811D01*
X513889Y168811D01*
X514889D01*
X515888Y169811D01*
Y172810D01*
Y169811D01*
X516888Y168811D01*
X517888D01*
X518887Y169811D01*
Y172810D01*
X512889Y165812D02*
Y163813D01*
X513889Y162813D01*
X515888D01*
X516888Y163813D01*
Y165812D01*
X515888Y166812D01*
X513889D01*
X512889Y165812D01*
X516888Y159814D02*
Y157815D01*
X515888Y156815D01*
X512889D01*
Y159814D01*
X513889Y160814D01*
X514889Y159814D01*
Y156815D01*
X516888Y154816D02*
X512889D01*
X514889D01*
X515888Y153816D01*
X516888Y152816D01*
Y151817D01*
X518887Y144819D02*
X512889D01*
Y147818D01*
X513889Y148818D01*
X515888D01*
X516888Y147818D01*
Y144819D01*
X518887Y132823D02*
Y136822D01*
X512889D01*
Y132823D01*
X515888Y136822D02*
Y134822D01*
X518887Y126825D02*
X512889D01*
Y129824D01*
X513889Y130824D01*
X515888D01*
X516888Y129824D01*
Y126825D01*
X510890Y122826D02*
Y121826D01*
X511890Y120827D01*
X516888D01*
Y123826D01*
X515888Y124825D01*
X513889D01*
X512889Y123826D01*
Y120827D01*
Y115828D02*
Y117828D01*
X513889Y118827D01*
X515888D01*
X516888Y117828D01*
Y115828D01*
X515888Y114829D01*
X514889D01*
Y118827D01*
X39890Y226910D02*
Y366910D01*
X142390Y226910D02*
Y366910D01*
X39890D02*
Y370910D01*
X142390D01*
Y366910D02*
Y370910D01*
Y223410D02*
Y226910D01*
X39890Y223410D02*
X142390D01*
X39890D02*
Y226910D01*
X30893Y267510D02*
X36891D01*
Y270509D01*
X35891Y271509D01*
X34891D01*
X33892Y270509D01*
Y267510D01*
Y270509D01*
X32892Y271509D01*
X31892D01*
X30893Y270509D01*
Y267510D01*
X36891Y274508D02*
Y276507D01*
X35891Y277507D01*
X33892D01*
X32892Y276507D01*
Y274508D01*
X33892Y273508D01*
X35891D01*
X36891Y274508D01*
X32892Y280506D02*
Y282505D01*
X33892Y283505D01*
X36891D01*
Y280506D01*
X35891Y279506D01*
X34891Y280506D01*
Y283505D01*
X32892Y285504D02*
X36891D01*
X34891D01*
X33892Y286504D01*
X32892Y287504D01*
Y288503D01*
X30893Y295501D02*
X36891D01*
Y292502D01*
X35891Y291502D01*
X33892D01*
X32892Y292502D01*
Y295501D01*
X30893Y307497D02*
Y303498D01*
X36891D01*
Y307497D01*
X33892Y303498D02*
Y305498D01*
X30893Y313495D02*
X36891D01*
Y310496D01*
X35891Y309497D01*
X33892D01*
X32892Y310496D01*
Y313495D01*
X38890Y317494D02*
Y318494D01*
X37890Y319493D01*
X32892D01*
Y316494D01*
X33892Y315495D01*
X35891D01*
X36891Y316494D01*
Y319493D01*
Y324492D02*
Y322492D01*
X35891Y321493D01*
X33892D01*
X32892Y322492D01*
Y324492D01*
X33892Y325491D01*
X34891D01*
Y321493D01*
X151387Y326310D02*
X145389D01*
Y323311D01*
X146389Y322311D01*
X147389D01*
X148388Y323311D01*
Y326310D01*
Y323311D01*
X149388Y322311D01*
X150388D01*
X151387Y323311D01*
Y326310D01*
X145389Y319312D02*
Y317313D01*
X146389Y316313D01*
X148388D01*
X149388Y317313D01*
Y319312D01*
X148388Y320312D01*
X146389D01*
X145389Y319312D01*
X149388Y313314D02*
Y311315D01*
X148388Y310315D01*
X145389D01*
Y313314D01*
X146389Y314314D01*
X147389Y313314D01*
Y310315D01*
X149388Y308316D02*
X145389D01*
X147389D01*
X148388Y307316D01*
X149388Y306316D01*
Y305317D01*
X151387Y298319D02*
X145389D01*
Y301318D01*
X146389Y302318D01*
X148388D01*
X149388Y301318D01*
Y298319D01*
X151387Y286323D02*
Y290322D01*
X145389D01*
Y286323D01*
X148388Y290322D02*
Y288322D01*
X151387Y280325D02*
X145389D01*
Y283324D01*
X146389Y284324D01*
X148388D01*
X149388Y283324D01*
Y280325D01*
X143390Y276326D02*
Y275326D01*
X144390Y274327D01*
X149388D01*
Y277326D01*
X148388Y278326D01*
X146389D01*
X145389Y277326D01*
Y274327D01*
Y269328D02*
Y271328D01*
X146389Y272327D01*
X148388D01*
X149388Y271328D01*
Y269328D01*
X148388Y268329D01*
X147389D01*
Y272327D01*
X162390Y226910D02*
Y366910D01*
X264890Y226910D02*
Y366910D01*
X162390D02*
Y370910D01*
X264890D01*
Y366910D02*
Y370910D01*
Y223410D02*
Y226910D01*
X162390Y223410D02*
X264890D01*
X162390D02*
Y226910D01*
X153393Y267510D02*
X159391D01*
Y270509D01*
X158391Y271509D01*
X157391D01*
X156392Y270509D01*
Y267510D01*
Y270509D01*
X155392Y271509D01*
X154392D01*
X153393Y270509D01*
Y267510D01*
X159391Y274508D02*
Y276507D01*
X158391Y277507D01*
X156392D01*
X155392Y276507D01*
Y274508D01*
X156392Y273508D01*
X158391D01*
X159391Y274508D01*
X155392Y280506D02*
Y282505D01*
X156392Y283505D01*
X159391D01*
Y280506D01*
X158391Y279506D01*
X157391Y280506D01*
Y283505D01*
X155392Y285504D02*
X159391D01*
X157391D01*
X156392Y286504D01*
X155392Y287504D01*
Y288503D01*
X153393Y295501D02*
X159391D01*
Y292502D01*
X158391Y291502D01*
X156392D01*
X155392Y292502D01*
Y295501D01*
X153393Y307497D02*
Y303498D01*
X159391D01*
Y307497D01*
X156392Y303498D02*
Y305498D01*
X153393Y313495D02*
X159391D01*
Y310496D01*
X158391Y309497D01*
X156392D01*
X155392Y310496D01*
Y313495D01*
X161390Y317494D02*
Y318494D01*
X160390Y319493D01*
X155392D01*
Y316494D01*
X156392Y315495D01*
X158391D01*
X159391Y316494D01*
Y319493D01*
Y324492D02*
Y322492D01*
X158391Y321493D01*
X156392D01*
X155392Y322492D01*
Y324492D01*
X156392Y325491D01*
X157391D01*
Y321493D01*
X273887Y326310D02*
X267889D01*
Y323311D01*
X268889Y322311D01*
X269889D01*
X270888Y323311D01*
Y326310D01*
Y323311D01*
X271888Y322311D01*
X272888D01*
X273887Y323311D01*
Y326310D01*
X267889Y319312D02*
Y317313D01*
X268889Y316313D01*
X270888D01*
X271888Y317313D01*
Y319312D01*
X270888Y320312D01*
X268889D01*
X267889Y319312D01*
X271888Y313314D02*
Y311315D01*
X270888Y310315D01*
X267889D01*
Y313314D01*
X268889Y314314D01*
X269889Y313314D01*
Y310315D01*
X271888Y308316D02*
X267889D01*
X269889D01*
X270888Y307316D01*
X271888Y306316D01*
Y305317D01*
X273887Y298319D02*
X267889D01*
Y301318D01*
X268889Y302318D01*
X270888D01*
X271888Y301318D01*
Y298319D01*
X273887Y286323D02*
Y290322D01*
X267889D01*
Y286323D01*
X270888Y290322D02*
Y288322D01*
X273887Y280325D02*
X267889D01*
Y283324D01*
X268889Y284324D01*
X270888D01*
X271888Y283324D01*
Y280325D01*
X265890Y276326D02*
Y275326D01*
X266890Y274327D01*
X271888D01*
Y277326D01*
X270888Y278326D01*
X268889D01*
X267889Y277326D01*
Y274327D01*
Y269328D02*
Y271328D01*
X268889Y272327D01*
X270888D01*
X271888Y271328D01*
Y269328D01*
X270888Y268329D01*
X269889D01*
Y272327D01*
X284890Y226910D02*
Y366910D01*
X387390Y226910D02*
Y366910D01*
X284890D02*
Y370910D01*
X387390D01*
Y366910D02*
Y370910D01*
Y223410D02*
Y226910D01*
X284890Y223410D02*
X387390D01*
X284890D02*
Y226910D01*
X275893Y267510D02*
X281891D01*
Y270509D01*
X280891Y271509D01*
X279891D01*
X278892Y270509D01*
Y267510D01*
Y270509D01*
X277892Y271509D01*
X276892D01*
X275893Y270509D01*
Y267510D01*
X281891Y274508D02*
Y276507D01*
X280891Y277507D01*
X278892D01*
X277892Y276507D01*
Y274508D01*
X278892Y273508D01*
X280891D01*
X281891Y274508D01*
X277892Y280506D02*
Y282505D01*
X278892Y283505D01*
X281891D01*
Y280506D01*
X280891Y279506D01*
X279891Y280506D01*
Y283505D01*
X277892Y285504D02*
X281891D01*
X279891D01*
X278892Y286504D01*
X277892Y287504D01*
Y288503D01*
X275893Y295501D02*
X281891D01*
Y292502D01*
X280891Y291502D01*
X278892D01*
X277892Y292502D01*
Y295501D01*
X275893Y307497D02*
Y303498D01*
X281891D01*
Y307497D01*
X278892Y303498D02*
Y305498D01*
X275893Y313495D02*
X281891D01*
Y310496D01*
X280891Y309497D01*
X278892D01*
X277892Y310496D01*
Y313495D01*
X283890Y317494D02*
Y318494D01*
X282890Y319493D01*
X277892D01*
Y316494D01*
X278892Y315495D01*
X280891D01*
X281891Y316494D01*
Y319493D01*
Y324492D02*
Y322492D01*
X280891Y321493D01*
X278892D01*
X277892Y322492D01*
Y324492D01*
X278892Y325491D01*
X279891D01*
Y321493D01*
X396387Y326310D02*
X390389D01*
Y323311D01*
X391389Y322311D01*
X392389D01*
X393388Y323311D01*
Y326310D01*
Y323311D01*
X394388Y322311D01*
X395388D01*
X396387Y323311D01*
Y326310D01*
X390389Y319312D02*
Y317313D01*
X391389Y316313D01*
X393388D01*
X394388Y317313D01*
Y319312D01*
X393388Y320312D01*
X391389D01*
X390389Y319312D01*
X394388Y313314D02*
Y311315D01*
X393388Y310315D01*
X390389D01*
Y313314D01*
X391389Y314314D01*
X392389Y313314D01*
Y310315D01*
X394388Y308316D02*
X390389D01*
X392389D01*
X393388Y307316D01*
X394388Y306316D01*
Y305317D01*
X396387Y298319D02*
X390389D01*
Y301318D01*
X391389Y302318D01*
X393388D01*
X394388Y301318D01*
Y298319D01*
X396387Y286323D02*
Y290322D01*
X390389D01*
Y286323D01*
X393388Y290322D02*
Y288322D01*
X396387Y280325D02*
X390389D01*
Y283324D01*
X391389Y284324D01*
X393388D01*
X394388Y283324D01*
Y280325D01*
X388390Y276326D02*
Y275326D01*
X389390Y274327D01*
X394388D01*
Y277326D01*
X393388Y278326D01*
X391389D01*
X390389Y277326D01*
Y274327D01*
Y269328D02*
Y271328D01*
X391389Y272327D01*
X393388D01*
X394388Y271328D01*
Y269328D01*
X393388Y268329D01*
X392389D01*
Y272327D01*
X407390Y226910D02*
Y366910D01*
X509890Y226910D02*
Y366910D01*
X407390D02*
Y370910D01*
X509890D01*
Y366910D02*
Y370910D01*
Y223410D02*
Y226910D01*
X407390Y223410D02*
X509890D01*
X407390D02*
Y226910D01*
X398393Y267510D02*
X404391D01*
Y270509D01*
X403391Y271509D01*
X402391D01*
X401392Y270509D01*
Y267510D01*
Y270509D01*
X400392Y271509D01*
X399392D01*
X398393Y270509D01*
Y267510D01*
X404391Y274508D02*
Y276507D01*
X403391Y277507D01*
X401392D01*
X400392Y276507D01*
Y274508D01*
X401392Y273508D01*
X403391D01*
X404391Y274508D01*
X400392Y280506D02*
Y282505D01*
X401392Y283505D01*
X404391D01*
Y280506D01*
X403391Y279506D01*
X402391Y280506D01*
Y283505D01*
X400392Y285504D02*
X404391D01*
X402391D01*
X401392Y286504D01*
X400392Y287504D01*
Y288503D01*
X398393Y295501D02*
X404391D01*
Y292502D01*
X403391Y291502D01*
X401392D01*
X400392Y292502D01*
Y295501D01*
X398393Y307497D02*
Y303498D01*
X404391D01*
Y307497D01*
X401392Y303498D02*
Y305498D01*
X398393Y313495D02*
X404391D01*
Y310496D01*
X403391Y309497D01*
X401392D01*
X400392Y310496D01*
Y313495D01*
X406390Y317494D02*
Y318494D01*
X405390Y319493D01*
X400392D01*
Y316494D01*
X401392Y315495D01*
X403391D01*
X404391Y316494D01*
Y319493D01*
Y324492D02*
Y322492D01*
X403391Y321493D01*
X401392D01*
X400392Y322492D01*
Y324492D01*
X401392Y325491D01*
X402391D01*
Y321493D01*
X518887Y326310D02*
X512889D01*
Y323311D01*
X513889Y322311D01*
X514889D01*
X515888Y323311D01*
Y326310D01*
Y323311D01*
X516888Y322311D01*
X517888D01*
X518887Y323311D01*
Y326310D01*
X512889Y319312D02*
Y317313D01*
X513889Y316313D01*
X515888D01*
X516888Y317313D01*
Y319312D01*
X515888Y320312D01*
X513889D01*
X512889Y319312D01*
X516888Y313314D02*
Y311315D01*
X515888Y310315D01*
X512889D01*
Y313314D01*
X513889Y314314D01*
X514889Y313314D01*
Y310315D01*
X516888Y308316D02*
X512889D01*
X514889D01*
X515888Y307316D01*
X516888Y306316D01*
Y305317D01*
X518887Y298319D02*
X512889D01*
Y301318D01*
X513889Y302318D01*
X515888D01*
X516888Y301318D01*
Y298319D01*
X518887Y286323D02*
Y290322D01*
X512889D01*
Y286323D01*
X515888Y290322D02*
Y288322D01*
X518887Y280325D02*
X512889D01*
Y283324D01*
X513889Y284324D01*
X515888D01*
X516888Y283324D01*
Y280325D01*
X510890Y276326D02*
Y275326D01*
X511890Y274327D01*
X516888D01*
Y277326D01*
X515888Y278326D01*
X513889D01*
X512889Y277326D01*
Y274327D01*
Y269328D02*
Y271328D01*
X513889Y272327D01*
X515888D01*
X516888Y271328D01*
Y269328D01*
X515888Y268329D01*
X514889D01*
Y272327D01*
X39890Y380410D02*
Y520410D01*
X142390Y380410D02*
Y520410D01*
X39890D02*
Y524410D01*
X142390D01*
Y520410D02*
Y524410D01*
Y376910D02*
Y380410D01*
X39890Y376910D02*
X142390D01*
X39890D02*
Y380410D01*
X30893Y421010D02*
X36891D01*
Y424009D01*
X35891Y425009D01*
X34891D01*
X33892Y424009D01*
Y421010D01*
Y424009D01*
X32892Y425009D01*
X31892D01*
X30893Y424009D01*
Y421010D01*
X36891Y428008D02*
Y430007D01*
X35891Y431007D01*
X33892D01*
X32892Y430007D01*
Y428008D01*
X33892Y427008D01*
X35891D01*
X36891Y428008D01*
X32892Y434006D02*
Y436005D01*
X33892Y437005D01*
X36891D01*
Y434006D01*
X35891Y433006D01*
X34891Y434006D01*
Y437005D01*
X32892Y439004D02*
X36891D01*
X34891D01*
X33892Y440004D01*
X32892Y441004D01*
Y442003D01*
X30893Y449001D02*
X36891D01*
Y446002D01*
X35891Y445002D01*
X33892D01*
X32892Y446002D01*
Y449001D01*
X30893Y460997D02*
Y456998D01*
X36891D01*
Y460997D01*
X33892Y456998D02*
Y458998D01*
X30893Y466995D02*
X36891D01*
Y463996D01*
X35891Y462996D01*
X33892D01*
X32892Y463996D01*
Y466995D01*
X38890Y470994D02*
Y471994D01*
X37890Y472993D01*
X32892D01*
Y469994D01*
X33892Y468995D01*
X35891D01*
X36891Y469994D01*
Y472993D01*
Y477992D02*
Y475992D01*
X35891Y474993D01*
X33892D01*
X32892Y475992D01*
Y477992D01*
X33892Y478991D01*
X34891D01*
Y474993D01*
X151387Y479810D02*
X145389D01*
Y476811D01*
X146389Y475811D01*
X147389D01*
X148388Y476811D01*
Y479810D01*
Y476811D01*
X149388Y475811D01*
X150388D01*
X151387Y476811D01*
Y479810D01*
X145389Y472812D02*
Y470813D01*
X146389Y469813D01*
X148388D01*
X149388Y470813D01*
Y472812D01*
X148388Y473812D01*
X146389D01*
X145389Y472812D01*
X149388Y466814D02*
Y464815D01*
X148388Y463815D01*
X145389D01*
Y466814D01*
X146389Y467814D01*
X147389Y466814D01*
Y463815D01*
X149388Y461816D02*
X145389D01*
X147389D01*
X148388Y460816D01*
X149388Y459816D01*
Y458817D01*
X151387Y451819D02*
X145389D01*
Y454818D01*
X146389Y455818D01*
X148388D01*
X149388Y454818D01*
Y451819D01*
X151387Y439823D02*
Y443822D01*
X145389D01*
Y439823D01*
X148388Y443822D02*
Y441822D01*
X151387Y433825D02*
X145389D01*
Y436824D01*
X146389Y437823D01*
X148388D01*
X149388Y436824D01*
Y433825D01*
X143390Y429826D02*
Y428826D01*
X144390Y427827D01*
X149388D01*
Y430826D01*
X148388Y431825D01*
X146389D01*
X145389Y430826D01*
Y427827D01*
Y422828D02*
Y424828D01*
X146389Y425827D01*
X148388D01*
X149388Y424828D01*
Y422828D01*
X148388Y421829D01*
X147389D01*
Y425827D01*
X162390Y380410D02*
Y520410D01*
X264890Y380410D02*
Y520410D01*
X162390D02*
Y524410D01*
X264890D01*
Y520410D02*
Y524410D01*
Y376910D02*
Y380410D01*
X162390Y376910D02*
X264890D01*
X162390D02*
Y380410D01*
X153393Y421010D02*
X159391D01*
Y424009D01*
X158391Y425009D01*
X157391D01*
X156392Y424009D01*
Y421010D01*
Y424009D01*
X155392Y425009D01*
X154392D01*
X153393Y424009D01*
Y421010D01*
X159391Y428008D02*
Y430007D01*
X158391Y431007D01*
X156392D01*
X155392Y430007D01*
Y428008D01*
X156392Y427008D01*
X158391D01*
X159391Y428008D01*
X155392Y434006D02*
Y436005D01*
X156392Y437005D01*
X159391D01*
Y434006D01*
X158391Y433006D01*
X157391Y434006D01*
Y437005D01*
X155392Y439004D02*
X159391D01*
X157391D01*
X156392Y440004D01*
X155392Y441004D01*
Y442003D01*
X153393Y449001D02*
X159391D01*
Y446002D01*
X158391Y445002D01*
X156392D01*
X155392Y446002D01*
Y449001D01*
X153393Y460997D02*
Y456998D01*
X159391D01*
Y460997D01*
X156392Y456998D02*
Y458998D01*
X153393Y466995D02*
X159391D01*
Y463996D01*
X158391Y462996D01*
X156392D01*
X155392Y463996D01*
Y466995D01*
X161390Y470994D02*
Y471994D01*
X160390Y472993D01*
X155392D01*
Y469994D01*
X156392Y468995D01*
X158391D01*
X159391Y469994D01*
Y472993D01*
Y477992D02*
Y475992D01*
X158391Y474993D01*
X156392D01*
X155392Y475992D01*
Y477992D01*
X156392Y478991D01*
X157391D01*
Y474993D01*
X273887Y479810D02*
X267889D01*
Y476811D01*
X268889Y475811D01*
X269889D01*
X270888Y476811D01*
Y479810D01*
Y476811D01*
X271888Y475811D01*
X272888D01*
X273887Y476811D01*
Y479810D01*
X267889Y472812D02*
Y470813D01*
X268889Y469813D01*
X270888D01*
X271888Y470813D01*
Y472812D01*
X270888Y473812D01*
X268889D01*
X267889Y472812D01*
X271888Y466814D02*
Y464815D01*
X270888Y463815D01*
X267889D01*
Y466814D01*
X268889Y467814D01*
X269889Y466814D01*
Y463815D01*
X271888Y461816D02*
X267889D01*
X269889D01*
X270888Y460816D01*
X271888Y459816D01*
Y458817D01*
X273887Y451819D02*
X267889D01*
Y454818D01*
X268889Y455818D01*
X270888D01*
X271888Y454818D01*
Y451819D01*
X273887Y439823D02*
Y443822D01*
X267889D01*
Y439823D01*
X270888Y443822D02*
Y441822D01*
X273887Y433825D02*
X267889D01*
Y436824D01*
X268889Y437823D01*
X270888D01*
X271888Y436824D01*
Y433825D01*
X265890Y429826D02*
Y428826D01*
X266890Y427827D01*
X271888D01*
Y430826D01*
X270888Y431825D01*
X268889D01*
X267889Y430826D01*
Y427827D01*
Y422828D02*
Y424828D01*
X268889Y425827D01*
X270888D01*
X271888Y424828D01*
Y422828D01*
X270888Y421829D01*
X269889D01*
Y425827D01*
X284890Y380410D02*
Y520410D01*
X387390Y380410D02*
Y520410D01*
X284890D02*
Y524410D01*
X387390D01*
Y520410D02*
Y524410D01*
Y376910D02*
Y380410D01*
X284890Y376910D02*
X387390D01*
X284890D02*
Y380410D01*
X275893Y421010D02*
X281891D01*
Y424009D01*
X280891Y425009D01*
X279891D01*
X278892Y424009D01*
Y421010D01*
Y424009D01*
X277892Y425009D01*
X276892D01*
X275893Y424009D01*
Y421010D01*
X281891Y428008D02*
Y430007D01*
X280891Y431007D01*
X278892D01*
X277892Y430007D01*
Y428008D01*
X278892Y427008D01*
X280891D01*
X281891Y428008D01*
X277892Y434006D02*
Y436005D01*
X278892Y437005D01*
X281891D01*
Y434006D01*
X280891Y433006D01*
X279891Y434006D01*
Y437005D01*
X277892Y439004D02*
X281891D01*
X279891D01*
X278892Y440004D01*
X277892Y441004D01*
Y442003D01*
X275893Y449001D02*
X281891D01*
Y446002D01*
X280891Y445002D01*
X278892D01*
X277892Y446002D01*
Y449001D01*
X275893Y460997D02*
Y456998D01*
X281891D01*
Y460997D01*
X278892Y456998D02*
Y458998D01*
X275893Y466995D02*
X281891D01*
Y463996D01*
X280891Y462996D01*
X278892D01*
X277892Y463996D01*
Y466995D01*
X283890Y470994D02*
Y471994D01*
X282890Y472993D01*
X277892D01*
Y469994D01*
X278892Y468995D01*
X280891D01*
X281891Y469994D01*
Y472993D01*
Y477992D02*
Y475992D01*
X280891Y474993D01*
X278892D01*
X277892Y475992D01*
Y477992D01*
X278892Y478991D01*
X279891D01*
Y474993D01*
X396387Y479810D02*
X390389D01*
Y476811D01*
X391389Y475811D01*
X392389D01*
X393388Y476811D01*
Y479810D01*
Y476811D01*
X394388Y475811D01*
X395388D01*
X396387Y476811D01*
Y479810D01*
X390389Y472812D02*
Y470813D01*
X391389Y469813D01*
X393388D01*
X394388Y470813D01*
Y472812D01*
X393388Y473812D01*
X391389D01*
X390389Y472812D01*
X394388Y466814D02*
Y464815D01*
X393388Y463815D01*
X390389D01*
Y466814D01*
X391389Y467814D01*
X392389Y466814D01*
Y463815D01*
X394388Y461816D02*
X390389D01*
X392389D01*
X393388Y460816D01*
X394388Y459816D01*
Y458817D01*
X396387Y451819D02*
X390389D01*
Y454818D01*
X391389Y455818D01*
X393388D01*
X394388Y454818D01*
Y451819D01*
X396387Y439823D02*
Y443822D01*
X390389D01*
Y439823D01*
X393388Y443822D02*
Y441822D01*
X396387Y433825D02*
X390389D01*
Y436824D01*
X391389Y437823D01*
X393388D01*
X394388Y436824D01*
Y433825D01*
X388390Y429826D02*
Y428826D01*
X389390Y427827D01*
X394388D01*
Y430826D01*
X393388Y431825D01*
X391389D01*
X390389Y430826D01*
Y427827D01*
Y422828D02*
Y424828D01*
X391389Y425827D01*
X393388D01*
X394388Y424828D01*
Y422828D01*
X393388Y421829D01*
X392389D01*
Y425827D01*
X407390Y380410D02*
Y520410D01*
X509890Y380410D02*
Y520410D01*
X407390D02*
Y524410D01*
X509890D01*
Y520410D02*
Y524410D01*
Y376910D02*
Y380410D01*
X407390Y376910D02*
X509890D01*
X407390D02*
Y380410D01*
X398393Y421010D02*
X404391D01*
Y424009D01*
X403391Y425009D01*
X402391D01*
X401392Y424009D01*
Y421010D01*
Y424009D01*
X400392Y425009D01*
X399392D01*
X398393Y424009D01*
Y421010D01*
X404391Y428008D02*
Y430007D01*
X403391Y431007D01*
X401392D01*
X400392Y430007D01*
Y428008D01*
X401392Y427008D01*
X403391D01*
X404391Y428008D01*
X400392Y434006D02*
Y436005D01*
X401392Y437005D01*
X404391D01*
Y434006D01*
X403391Y433006D01*
X402391Y434006D01*
Y437005D01*
X400392Y439004D02*
X404391D01*
X402391D01*
X401392Y440004D01*
X400392Y441004D01*
Y442003D01*
X398393Y449001D02*
X404391D01*
Y446002D01*
X403391Y445002D01*
X401392D01*
X400392Y446002D01*
Y449001D01*
X398393Y460997D02*
Y456998D01*
X404391D01*
Y460997D01*
X401392Y456998D02*
Y458998D01*
X398393Y466995D02*
X404391D01*
Y463996D01*
X403391Y462996D01*
X401392D01*
X400392Y463996D01*
Y466995D01*
X406390Y470994D02*
Y471994D01*
X405390Y472993D01*
X400392D01*
Y469994D01*
X401392Y468995D01*
X403391D01*
X404391Y469994D01*
Y472993D01*
Y477992D02*
Y475992D01*
X403391Y474993D01*
X401392D01*
X400392Y475992D01*
Y477992D01*
X401392Y478991D01*
X402391D01*
Y474993D01*
X518887Y479810D02*
X512889D01*
Y476811D01*
X513889Y475811D01*
X514889D01*
X515888Y476811D01*
Y479810D01*
Y476811D01*
X516888Y475811D01*
X517888D01*
X518887Y476811D01*
Y479810D01*
X512889Y472812D02*
Y470813D01*
X513889Y469813D01*
X515888D01*
X516888Y470813D01*
Y472812D01*
X515888Y473812D01*
X513889D01*
X512889Y472812D01*
X516888Y466814D02*
Y464815D01*
X515888Y463815D01*
X512889D01*
Y466814D01*
X513889Y467814D01*
X514889Y466814D01*
Y463815D01*
X516888Y461816D02*
X512889D01*
X514889D01*
X515888Y460816D01*
X516888Y459816D01*
Y458817D01*
X518887Y451819D02*
X512889D01*
Y454818D01*
X513889Y455818D01*
X515888D01*
X516888Y454818D01*
Y451819D01*
X518887Y439823D02*
Y443822D01*
X512889D01*
Y439823D01*
X515888Y443822D02*
Y441822D01*
X518887Y433825D02*
X512889D01*
Y436824D01*
X513889Y437823D01*
X515888D01*
X516888Y436824D01*
Y433825D01*
X510890Y429826D02*
Y428826D01*
X511890Y427827D01*
X516888D01*
Y430826D01*
X515888Y431825D01*
X513889D01*
X512889Y430826D01*
Y427827D01*
Y422828D02*
Y424828D01*
X513889Y425827D01*
X515888D01*
X516888Y424828D01*
Y422828D01*
X515888Y421829D01*
X514889D01*
Y425827D01*
M02*
