G04*
G04 #@! TF.GenerationSoftware,Altium Limited,Altium Designer,25.0.2 (28)*
G04*
G04 Layer_Color=128*
%FSLAX44Y44*%
%MOMM*%
G71*
G04*
G04 #@! TF.SameCoordinates,6A123C44-6EB7-423C-9969-B25F4FCB3D5A*
G04*
G04*
G04 #@! TF.FilePolarity,Positive*
G04*
G01*
G75*
G04:AMPARAMS|DCode=36|XSize=1.5mm|YSize=2mm|CornerRadius=0.375mm|HoleSize=0mm|Usage=FLASHONLY|Rotation=180.000|XOffset=0mm|YOffset=0mm|HoleType=Round|Shape=RoundedRectangle|*
%AMROUNDEDRECTD36*
21,1,1.5000,1.2500,0,0,180.0*
21,1,0.7500,2.0000,0,0,180.0*
1,1,0.7500,-0.3750,0.6250*
1,1,0.7500,0.3750,0.6250*
1,1,0.7500,0.3750,-0.6250*
1,1,0.7500,-0.3750,-0.6250*
%
%ADD36ROUNDEDRECTD36*%
D36*
X60890Y137410D02*
D03*
X122390Y175760D02*
D03*
Y201160D02*
D03*
X59890Y200710D02*
D03*
Y175310D02*
D03*
X122390Y137660D02*
D03*
Y112260D02*
D03*
Y86860D02*
D03*
X59890Y111810D02*
D03*
Y86410D02*
D03*
X183390Y137410D02*
D03*
X244890Y175760D02*
D03*
Y201160D02*
D03*
X182390Y200710D02*
D03*
Y175310D02*
D03*
X244890Y137660D02*
D03*
Y112260D02*
D03*
Y86860D02*
D03*
X182390Y111810D02*
D03*
Y86410D02*
D03*
X305890Y137410D02*
D03*
X367390Y175760D02*
D03*
Y201160D02*
D03*
X304890Y200710D02*
D03*
Y175310D02*
D03*
X367390Y137660D02*
D03*
Y112260D02*
D03*
Y86860D02*
D03*
X304890Y111810D02*
D03*
Y86410D02*
D03*
X428390Y137410D02*
D03*
X489890Y175760D02*
D03*
Y201160D02*
D03*
X427390Y200710D02*
D03*
Y175310D02*
D03*
X489890Y137660D02*
D03*
Y112260D02*
D03*
Y86860D02*
D03*
X427390Y111810D02*
D03*
Y86410D02*
D03*
X60890Y290910D02*
D03*
X122390Y329260D02*
D03*
Y354660D02*
D03*
X59890Y354210D02*
D03*
Y328810D02*
D03*
X122390Y291160D02*
D03*
Y265760D02*
D03*
Y240360D02*
D03*
X59890Y265310D02*
D03*
Y239910D02*
D03*
X183390Y290910D02*
D03*
X244890Y329260D02*
D03*
Y354660D02*
D03*
X182390Y354210D02*
D03*
Y328810D02*
D03*
X244890Y291160D02*
D03*
Y265760D02*
D03*
Y240360D02*
D03*
X182390Y265310D02*
D03*
Y239910D02*
D03*
X305890Y290910D02*
D03*
X367390Y329260D02*
D03*
Y354660D02*
D03*
X304890Y354210D02*
D03*
Y328810D02*
D03*
X367390Y291160D02*
D03*
Y265760D02*
D03*
Y240360D02*
D03*
X304890Y265310D02*
D03*
Y239910D02*
D03*
X428390Y290910D02*
D03*
X489890Y329260D02*
D03*
Y354660D02*
D03*
X427390Y354210D02*
D03*
Y328810D02*
D03*
X489890Y291160D02*
D03*
Y265760D02*
D03*
Y240360D02*
D03*
X427390Y265310D02*
D03*
Y239910D02*
D03*
X60890Y444410D02*
D03*
X122390Y482760D02*
D03*
Y508160D02*
D03*
X59890Y507710D02*
D03*
Y482310D02*
D03*
X122390Y444660D02*
D03*
Y419260D02*
D03*
Y393860D02*
D03*
X59890Y418810D02*
D03*
Y393410D02*
D03*
X183390Y444410D02*
D03*
X244890Y482760D02*
D03*
Y508160D02*
D03*
X182390Y507710D02*
D03*
Y482310D02*
D03*
X244890Y444660D02*
D03*
Y419260D02*
D03*
Y393860D02*
D03*
X182390Y418810D02*
D03*
Y393410D02*
D03*
X305890Y444410D02*
D03*
X367390Y482760D02*
D03*
Y508160D02*
D03*
X304890Y507710D02*
D03*
Y482310D02*
D03*
X367390Y444660D02*
D03*
Y419260D02*
D03*
Y393860D02*
D03*
X304890Y418810D02*
D03*
Y393410D02*
D03*
X428390Y444410D02*
D03*
X489890Y482760D02*
D03*
Y508160D02*
D03*
X427390Y507710D02*
D03*
Y482310D02*
D03*
X489890Y444660D02*
D03*
Y419260D02*
D03*
Y393860D02*
D03*
X427390Y418810D02*
D03*
Y393410D02*
D03*
M02*
