G04*
G04 #@! TF.GenerationSoftware,Altium Limited,Altium Designer,25.0.2 (28)*
G04*
G04 Layer_Color=6502151*
%FSLAX44Y44*%
%MOMM*%
G71*
G04*
G04 #@! TF.SameCoordinates,F5B53509-386E-4AF8-9846-D30C52800222*
G04*
G04*
G04 #@! TF.FilePolarity,Positive*
G04*
G01*
G75*
%ADD30C,0.1000*%
G36*
X1517000Y880000D02*
X1479999D01*
X1479402Y880000D01*
X1478300Y880457D01*
X1477456Y881301D01*
X1476999Y882403D01*
Y883000D01*
X1476999Y972000D01*
Y972597D01*
X1477456Y973699D01*
X1478300Y974543D01*
X1479402Y975000D01*
X1479999D01*
X1516998Y975000D01*
X1517000Y880000D01*
D02*
G37*
G36*
X1280000Y975000D02*
X1280597D01*
X1281699Y974543D01*
X1282543Y973699D01*
X1283000Y972597D01*
Y972000D01*
X1283000Y972000D01*
X1283000Y883000D01*
Y882403D01*
X1282543Y881301D01*
X1281699Y880457D01*
X1280597Y880000D01*
X1280000Y880000D01*
X1242999D01*
X1243000Y975000D01*
X1280000Y975000D01*
D02*
G37*
G36*
X1452000Y850000D02*
X1452597D01*
X1453699Y849543D01*
X1454543Y848699D01*
X1455000Y847597D01*
Y847000D01*
X1455000Y847000D01*
Y839000D01*
X1455021Y838708D01*
X1455189Y838151D01*
X1455511Y837665D01*
X1455959Y837292D01*
X1456219Y837159D01*
X1456219Y837159D01*
X1456223Y837168D01*
X1460500Y835000D01*
X1460500Y830000D01*
Y829602D01*
X1460196Y828867D01*
X1459633Y828304D01*
X1458898Y828000D01*
X1458500D01*
Y828000D01*
X1457000Y828000D01*
X1456610Y827961D01*
X1455889Y827663D01*
X1455337Y827111D01*
X1455039Y826390D01*
X1455000Y826000D01*
X1455000D01*
Y795000D01*
X1305000D01*
X1305000Y826000D01*
X1304962Y826390D01*
X1304663Y827111D01*
X1304111Y827663D01*
X1303390Y827961D01*
X1303000Y828000D01*
Y828000D01*
X1301500Y828000D01*
X1301102D01*
X1300367Y828304D01*
X1299805Y828867D01*
X1299500Y829602D01*
Y830000D01*
X1299500D01*
Y835000D01*
X1303777Y837168D01*
X1303782Y837159D01*
X1304041Y837292D01*
X1304489Y837665D01*
X1304811Y838151D01*
X1304979Y838708D01*
X1305000Y839000D01*
X1305000Y839000D01*
Y847000D01*
X1305000Y847597D01*
X1305457Y848699D01*
X1306301Y849543D01*
X1307403Y850000D01*
X1308000D01*
X1308000Y850000D01*
X1452000Y850000D01*
D02*
G37*
G36*
X1460254Y690000D02*
Y410669D01*
X1460254Y410669D01*
Y407083D01*
X1459785Y399925D01*
X1458849Y392814D01*
X1457449Y385779D01*
X1455593Y378851D01*
X1453287Y372059D01*
X1450542Y365432D01*
X1447370Y358999D01*
X1443783Y352787D01*
X1439798Y346823D01*
X1435432Y341133D01*
X1430703Y335740D01*
X1428167Y333204D01*
X1399561Y304599D01*
X1399561D01*
X1398600Y303638D01*
X1396499Y301914D01*
X1394239Y300403D01*
X1391842Y299122D01*
X1389331Y298082D01*
X1386730Y297293D01*
X1384064Y296763D01*
X1381359Y296496D01*
X1378641D01*
X1375936Y296763D01*
X1373270Y297293D01*
X1370669Y298082D01*
X1368158Y299122D01*
X1365761Y300403D01*
X1363501Y301914D01*
X1361400Y303638D01*
X1360439Y304599D01*
X1331833Y333204D01*
X1329297Y335740D01*
X1324568Y341133D01*
X1320202Y346823D01*
X1316217Y352787D01*
X1312630Y358999D01*
X1309458Y365432D01*
X1306713Y372059D01*
X1304407Y378851D01*
X1302551Y385779D01*
X1301152Y392814D01*
X1300215Y399925D01*
X1299746Y407083D01*
Y410669D01*
Y410669D01*
Y690504D01*
X1460254D01*
Y690000D01*
D02*
G37*
G36*
X1205254Y690000D02*
Y410669D01*
X1205254Y410669D01*
Y407083D01*
X1204785Y399925D01*
X1203848Y392814D01*
X1202449Y385779D01*
X1200593Y378851D01*
X1198287Y372059D01*
X1195542Y365432D01*
X1192370Y358999D01*
X1188783Y352787D01*
X1184799Y346823D01*
X1180432Y341133D01*
X1175703Y335740D01*
X1173167Y333204D01*
X1144561Y304599D01*
X1144561D01*
X1143600Y303638D01*
X1141499Y301914D01*
X1139239Y300403D01*
X1136842Y299122D01*
X1134331Y298082D01*
X1131730Y297293D01*
X1129064Y296763D01*
X1126359Y296496D01*
X1123641D01*
X1120936Y296763D01*
X1118270Y297293D01*
X1115669Y298082D01*
X1113158Y299122D01*
X1110761Y300403D01*
X1108501Y301914D01*
X1106400Y303638D01*
X1105439Y304599D01*
X1076833Y333204D01*
X1074297Y335740D01*
X1069568Y341133D01*
X1065202Y346823D01*
X1061217Y352787D01*
X1057630Y358999D01*
X1054458Y365432D01*
X1051713Y372059D01*
X1049407Y378851D01*
X1047551Y385779D01*
X1046152Y392814D01*
X1045215Y399925D01*
X1044746Y407083D01*
Y410669D01*
Y410669D01*
Y690504D01*
X1205254D01*
Y690000D01*
D02*
G37*
G36*
X950254Y690000D02*
Y410669D01*
X950254Y410669D01*
Y407083D01*
X949785Y399925D01*
X948848Y392814D01*
X947449Y385779D01*
X945593Y378851D01*
X943287Y372059D01*
X940542Y365432D01*
X937370Y358999D01*
X933783Y352787D01*
X929798Y346823D01*
X925432Y341133D01*
X920703Y335740D01*
X918167Y333204D01*
X889561Y304599D01*
X889561D01*
X888600Y303638D01*
X886499Y301914D01*
X884239Y300403D01*
X881842Y299122D01*
X879331Y298082D01*
X876730Y297293D01*
X874064Y296763D01*
X871359Y296496D01*
X868641D01*
X865936Y296763D01*
X863270Y297293D01*
X860669Y298082D01*
X858158Y299122D01*
X855761Y300403D01*
X853501Y301914D01*
X851400Y303638D01*
X850439Y304599D01*
X821833Y333204D01*
X819297Y335740D01*
X814568Y341133D01*
X810202Y346823D01*
X806217Y352787D01*
X802630Y358999D01*
X799458Y365432D01*
X796713Y372059D01*
X794407Y378851D01*
X792551Y385779D01*
X791152Y392814D01*
X790215Y399925D01*
X789746Y407083D01*
Y410669D01*
Y410669D01*
Y690504D01*
X950254D01*
Y690000D01*
D02*
G37*
G36*
X695254Y690000D02*
Y410669D01*
X695254Y410669D01*
Y407083D01*
X694785Y399925D01*
X693848Y392814D01*
X692449Y385779D01*
X690593Y378851D01*
X688287Y372059D01*
X685542Y365432D01*
X682370Y358999D01*
X678783Y352787D01*
X674798Y346823D01*
X670432Y341133D01*
X665703Y335740D01*
X663167Y333204D01*
X634561Y304599D01*
X634561D01*
X633600Y303638D01*
X631499Y301914D01*
X629239Y300403D01*
X626842Y299122D01*
X624331Y298082D01*
X621730Y297293D01*
X619064Y296763D01*
X616359Y296496D01*
X613641D01*
X610936Y296763D01*
X608270Y297293D01*
X605669Y298082D01*
X603158Y299122D01*
X600761Y300403D01*
X598501Y301914D01*
X596400Y303638D01*
X595439Y304599D01*
X566833Y333204D01*
X564297Y335740D01*
X559568Y341133D01*
X555202Y346823D01*
X551217Y352787D01*
X547630Y358999D01*
X544458Y365432D01*
X541713Y372059D01*
X539407Y378851D01*
X537551Y385779D01*
X536152Y392814D01*
X535215Y399925D01*
X534746Y407083D01*
Y410669D01*
Y410669D01*
Y690504D01*
X695254D01*
Y690000D01*
D02*
G37*
G36*
X440254Y410669D02*
X440254Y410669D01*
Y407083D01*
X439785Y399925D01*
X438848Y392814D01*
X437449Y385779D01*
X435593Y378851D01*
X433287Y372059D01*
X430542Y365432D01*
X427370Y358999D01*
X423783Y352787D01*
X419798Y346823D01*
X415432Y341133D01*
X410703Y335740D01*
X408167Y333204D01*
X379561Y304599D01*
X378600Y303638D01*
X376499Y301913D01*
X374239Y300403D01*
X371842Y299122D01*
X369331Y298082D01*
X366730Y297293D01*
X364064Y296763D01*
X361359Y296496D01*
X358641D01*
X355936Y296763D01*
X353270Y297293D01*
X350669Y298082D01*
X348158Y299122D01*
X345761Y300403D01*
X343501Y301913D01*
X341400Y303638D01*
X340439Y304599D01*
X311833Y333204D01*
X309297Y335740D01*
X304568Y341133D01*
X300201Y346823D01*
X296217Y352787D01*
X292630Y358999D01*
X289458Y365432D01*
X286713Y372059D01*
X284407Y378851D01*
X282551Y385779D01*
X281152Y392814D01*
X280215Y399925D01*
X279746Y407083D01*
Y410669D01*
Y410669D01*
Y690504D01*
X440254D01*
Y410669D01*
D02*
G37*
G36*
X2479750Y689748D02*
Y410417D01*
X2479750Y410417D01*
Y406831D01*
X2479281Y399674D01*
X2478345Y392562D01*
X2476945Y385527D01*
X2475089Y378599D01*
X2472783Y371807D01*
X2470038Y365180D01*
X2466866Y358747D01*
X2463280Y352536D01*
X2459295Y346572D01*
X2454928Y340881D01*
X2450199Y335488D01*
X2447663Y332952D01*
X2419058Y304347D01*
X2419058D01*
X2418097Y303386D01*
X2415996Y301662D01*
X2413736Y300152D01*
X2411339Y298870D01*
X2408827Y297830D01*
X2406226Y297041D01*
X2403560Y296511D01*
X2400855Y296245D01*
X2398137D01*
X2395432Y296511D01*
X2392767Y297041D01*
X2390165Y297830D01*
X2387654Y298870D01*
X2385257Y300152D01*
X2382997Y301662D01*
X2380896Y303386D01*
X2379935Y304347D01*
X2351330Y332952D01*
X2348794Y335488D01*
X2344064Y340881D01*
X2339698Y346572D01*
X2335713Y352536D01*
X2332127Y358747D01*
X2328954Y365180D01*
X2326209Y371807D01*
X2323904Y378599D01*
X2322047Y385527D01*
X2320648Y392562D01*
X2319712Y399674D01*
X2319243Y406831D01*
Y410417D01*
Y410417D01*
Y690252D01*
X2479750D01*
Y689748D01*
D02*
G37*
G36*
X2224750Y689748D02*
Y410417D01*
X2224750Y410417D01*
Y406831D01*
X2224281Y399674D01*
X2223345Y392562D01*
X2221945Y385527D01*
X2220089Y378599D01*
X2217783Y371807D01*
X2215038Y365180D01*
X2211866Y358747D01*
X2208280Y352536D01*
X2204295Y346572D01*
X2199928Y340881D01*
X2195199Y335488D01*
X2192663Y332952D01*
X2164058Y304347D01*
X2164058D01*
X2163097Y303386D01*
X2160996Y301662D01*
X2158736Y300152D01*
X2156339Y298870D01*
X2153827Y297830D01*
X2151226Y297041D01*
X2148560Y296511D01*
X2145855Y296245D01*
X2143137D01*
X2140432Y296511D01*
X2137766Y297041D01*
X2135165Y297830D01*
X2132654Y298870D01*
X2130257Y300152D01*
X2127997Y301662D01*
X2125896Y303386D01*
X2124935Y304347D01*
X2096330Y332952D01*
X2093794Y335488D01*
X2089064Y340881D01*
X2084698Y346572D01*
X2080713Y352536D01*
X2077127Y358747D01*
X2073954Y365180D01*
X2071209Y371807D01*
X2068904Y378599D01*
X2067047Y385527D01*
X2065648Y392562D01*
X2064712Y399674D01*
X2064243Y406831D01*
Y410417D01*
Y410417D01*
Y690252D01*
X2224750D01*
Y689748D01*
D02*
G37*
G36*
X1970254Y689748D02*
Y410417D01*
X1970254Y410417D01*
Y406831D01*
X1969785Y399674D01*
X1968849Y392562D01*
X1967449Y385527D01*
X1965593Y378599D01*
X1963287Y371807D01*
X1960542Y365180D01*
X1957370Y358747D01*
X1953784Y352535D01*
X1949798Y346572D01*
X1945432Y340881D01*
X1940703Y335488D01*
X1938167Y332952D01*
X1909561Y304347D01*
X1909561D01*
X1908600Y303386D01*
X1906499Y301662D01*
X1904239Y300152D01*
X1901842Y298870D01*
X1899331Y297830D01*
X1896730Y297041D01*
X1894064Y296511D01*
X1891359Y296244D01*
X1888641D01*
X1885936Y296511D01*
X1883270Y297041D01*
X1880669Y297830D01*
X1878158Y298870D01*
X1875761Y300152D01*
X1873501Y301662D01*
X1871400Y303386D01*
X1870439Y304347D01*
X1841833Y332952D01*
X1839297Y335488D01*
X1834568Y340881D01*
X1830202Y346572D01*
X1826217Y352536D01*
X1822630Y358747D01*
X1819458Y365180D01*
X1816713Y371807D01*
X1814408Y378599D01*
X1812551Y385527D01*
X1811152Y392562D01*
X1810215Y399674D01*
X1809746Y406831D01*
Y410417D01*
Y410417D01*
Y690252D01*
X1970254D01*
Y689748D01*
D02*
G37*
G36*
X1715254Y689748D02*
Y410417D01*
X1715254Y410417D01*
Y406831D01*
X1714785Y399674D01*
X1713849Y392562D01*
X1712449Y385527D01*
X1710593Y378599D01*
X1708287Y371807D01*
X1705542Y365180D01*
X1702370Y358747D01*
X1698784Y352535D01*
X1694798Y346572D01*
X1690432Y340881D01*
X1685703Y335488D01*
X1683167Y332952D01*
X1654561Y304347D01*
X1654561D01*
X1653600Y303386D01*
X1651499Y301662D01*
X1649239Y300152D01*
X1646842Y298870D01*
X1644331Y297830D01*
X1641730Y297041D01*
X1639064Y296511D01*
X1636359Y296244D01*
X1633641D01*
X1630936Y296511D01*
X1628270Y297041D01*
X1625669Y297830D01*
X1623158Y298870D01*
X1620761Y300152D01*
X1618501Y301662D01*
X1616400Y303386D01*
X1615439Y304347D01*
X1586833Y332952D01*
X1584297Y335488D01*
X1579568Y340881D01*
X1575202Y346572D01*
X1571217Y352535D01*
X1567630Y358747D01*
X1564458Y365180D01*
X1561713Y371807D01*
X1559407Y378599D01*
X1557551Y385527D01*
X1556152Y392562D01*
X1555215Y399674D01*
X1554746Y406831D01*
Y410417D01*
Y410417D01*
Y690252D01*
X1715254D01*
Y689748D01*
D02*
G37*
G36*
X382840Y987049D02*
X383707Y986983D01*
X384707Y986850D01*
X385773Y986650D01*
X386973Y986450D01*
X386040Y980918D01*
X385973D01*
X385706Y980984D01*
X385307Y981051D01*
X384840Y981118D01*
X384307Y981184D01*
X383707Y981251D01*
X382374Y981318D01*
X381907D01*
X381374Y981251D01*
X380774Y981184D01*
X380108Y980984D01*
X379441Y980784D01*
X378842Y980451D01*
X378308Y980051D01*
X378242Y979985D01*
X378108Y979785D01*
X377908Y979518D01*
X377708Y979052D01*
X377509Y978452D01*
X377309Y977652D01*
X377175Y976652D01*
X377109Y975519D01*
Y972120D01*
X384307D01*
Y967255D01*
X377109D01*
Y934996D01*
X370844D01*
Y967255D01*
X365312D01*
Y972120D01*
X370844D01*
Y976052D01*
Y976119D01*
Y976186D01*
Y976386D01*
Y976652D01*
X370910Y977319D01*
Y978119D01*
X370977Y979052D01*
X371110Y979985D01*
X371310Y980851D01*
X371510Y981584D01*
X371577Y981718D01*
X371710Y981984D01*
X371910Y982451D01*
X372243Y982984D01*
X372643Y983650D01*
X373176Y984317D01*
X373843Y984983D01*
X374642Y985583D01*
X374776Y985650D01*
X375042Y985850D01*
X375576Y986050D01*
X376309Y986383D01*
X377242Y986650D01*
X378375Y986850D01*
X379641Y987049D01*
X381107Y987116D01*
X382107D01*
X382840Y987049D01*
D02*
G37*
G36*
X362979D02*
X363845Y986983D01*
X364845Y986850D01*
X365911Y986650D01*
X367111Y986450D01*
X366178Y980918D01*
X366111D01*
X365845Y980984D01*
X365445Y981051D01*
X364978Y981118D01*
X364445Y981184D01*
X363845Y981251D01*
X362512Y981318D01*
X362046D01*
X361513Y981251D01*
X360913Y981184D01*
X360246Y980984D01*
X359580Y980784D01*
X358980Y980451D01*
X358447Y980051D01*
X358380Y979985D01*
X358247Y979785D01*
X358047Y979518D01*
X357847Y979052D01*
X357647Y978452D01*
X357447Y977652D01*
X357314Y976652D01*
X357247Y975519D01*
Y972120D01*
X364445D01*
Y967255D01*
X357247D01*
Y934996D01*
X350982D01*
Y967255D01*
X345450D01*
Y972120D01*
X350982D01*
Y976052D01*
Y976119D01*
Y976186D01*
Y976386D01*
Y976652D01*
X351049Y977319D01*
Y978119D01*
X351115Y979052D01*
X351249Y979985D01*
X351449Y980851D01*
X351648Y981584D01*
X351715Y981718D01*
X351848Y981984D01*
X352048Y982451D01*
X352382Y982984D01*
X352781Y983650D01*
X353315Y984317D01*
X353981Y984983D01*
X354781Y985583D01*
X354914Y985650D01*
X355181Y985850D01*
X355714Y986050D01*
X356447Y986383D01*
X357380Y986650D01*
X358513Y986850D01*
X359780Y987049D01*
X361246Y987116D01*
X362246D01*
X362979Y987049D01*
D02*
G37*
G36*
X339851Y979052D02*
X333586D01*
Y986250D01*
X339851D01*
Y979052D01*
D02*
G37*
G36*
X285932Y987049D02*
X286465D01*
X287132Y986983D01*
X287865Y986916D01*
X289398Y986650D01*
X291064Y986316D01*
X292797Y985850D01*
X294463Y985250D01*
X294530D01*
X294663Y985183D01*
X294863Y985050D01*
X295196Y984917D01*
X295996Y984450D01*
X296929Y983850D01*
X298062Y983117D01*
X299128Y982184D01*
X300262Y981051D01*
X301195Y979785D01*
Y979718D01*
X301328Y979651D01*
X301395Y979452D01*
X301595Y979185D01*
X301728Y978852D01*
X301928Y978452D01*
X302394Y977452D01*
X302861Y976252D01*
X303261Y974919D01*
X303594Y973386D01*
X303727Y971787D01*
X297196Y971320D01*
Y971387D01*
Y971520D01*
X297129Y971787D01*
X297062Y972120D01*
X296996Y972520D01*
X296862Y972986D01*
X296529Y974053D01*
X296063Y975186D01*
X295463Y976386D01*
X294663Y977585D01*
X293597Y978585D01*
X293463Y978718D01*
X293263Y978785D01*
X293063Y978985D01*
X292730Y979185D01*
X292330Y979385D01*
X291864Y979585D01*
X291397Y979851D01*
X290797Y980051D01*
X290131Y980251D01*
X289398Y980451D01*
X288598Y980651D01*
X287731Y980851D01*
X286798Y980918D01*
X285799Y981051D01*
X283732D01*
X283199Y980984D01*
X282666Y980918D01*
X281333Y980784D01*
X279867Y980518D01*
X278400Y980118D01*
X277001Y979518D01*
X276334Y979185D01*
X275801Y978785D01*
X275668Y978652D01*
X275335Y978385D01*
X274935Y977918D01*
X274401Y977252D01*
X273868Y976452D01*
X273468Y975519D01*
X273135Y974453D01*
X273002Y973320D01*
Y973186D01*
Y972853D01*
X273135Y972387D01*
X273269Y971720D01*
X273468Y970987D01*
X273802Y970254D01*
X274268Y969521D01*
X274935Y968788D01*
X275068Y968721D01*
X275201Y968588D01*
X275401Y968521D01*
X275668Y968321D01*
X276001Y968121D01*
X276468Y967921D01*
X276934Y967721D01*
X277601Y967455D01*
X278334Y967121D01*
X279134Y966855D01*
X280067Y966521D01*
X281133Y966188D01*
X282333Y965855D01*
X283666Y965522D01*
X285132Y965188D01*
X285199D01*
X285465Y965122D01*
X285932Y964988D01*
X286465Y964855D01*
X287132Y964722D01*
X287931Y964522D01*
X288731Y964322D01*
X289664Y964055D01*
X291530Y963589D01*
X293397Y963056D01*
X294263Y962722D01*
X295130Y962456D01*
X295863Y962189D01*
X296463Y961923D01*
X296529D01*
X296663Y961856D01*
X296862Y961723D01*
X297196Y961523D01*
X297995Y961123D01*
X298995Y960523D01*
X300062Y959723D01*
X301128Y958857D01*
X302194Y957790D01*
X303061Y956657D01*
Y956591D01*
X303127Y956524D01*
X303261Y956324D01*
X303394Y956124D01*
X303727Y955458D01*
X304194Y954591D01*
X304594Y953525D01*
X304927Y952258D01*
X305194Y950925D01*
X305260Y949392D01*
Y949326D01*
Y949193D01*
Y948993D01*
X305194Y948726D01*
Y948326D01*
X305127Y947926D01*
X304994Y946926D01*
X304660Y945727D01*
X304261Y944460D01*
X303661Y943061D01*
X302861Y941728D01*
Y941661D01*
X302728Y941594D01*
X302594Y941395D01*
X302461Y941128D01*
X301861Y940461D01*
X301128Y939662D01*
X300195Y938795D01*
X299062Y937862D01*
X297662Y936929D01*
X296129Y936129D01*
X296063D01*
X295929Y936063D01*
X295663Y935929D01*
X295396Y935796D01*
X294930Y935663D01*
X294463Y935529D01*
X293930Y935329D01*
X293263Y935129D01*
X291864Y934796D01*
X290198Y934463D01*
X288331Y934196D01*
X286332Y934130D01*
X285665D01*
X285199Y934196D01*
X284599D01*
X283866Y934263D01*
X283133Y934330D01*
X282266Y934396D01*
X280467Y934596D01*
X278467Y934996D01*
X276534Y935463D01*
X274668Y936129D01*
X274601D01*
X274468Y936196D01*
X274202Y936329D01*
X273868Y936529D01*
X273535Y936729D01*
X273069Y936996D01*
X272002Y937662D01*
X270802Y938529D01*
X269603Y939595D01*
X268403Y940861D01*
X267337Y942261D01*
Y942328D01*
X267203Y942461D01*
X267070Y942661D01*
X266937Y942994D01*
X266737Y943394D01*
X266470Y943794D01*
X266270Y944327D01*
X266004Y944927D01*
X265471Y946327D01*
X265004Y947859D01*
X264671Y949659D01*
X264537Y951525D01*
X270936Y952058D01*
Y951992D01*
Y951859D01*
X271002Y951659D01*
Y951392D01*
X271136Y950725D01*
X271336Y949792D01*
X271602Y948793D01*
X272002Y947726D01*
X272469Y946660D01*
X273002Y945660D01*
X273069Y945527D01*
X273335Y945260D01*
X273735Y944794D01*
X274268Y944260D01*
X275001Y943594D01*
X275868Y942927D01*
X276934Y942261D01*
X278134Y941661D01*
X278201D01*
X278267Y941594D01*
X278467Y941528D01*
X278734Y941461D01*
X279067Y941328D01*
X279467Y941195D01*
X280467Y940928D01*
X281600Y940661D01*
X282933Y940395D01*
X284399Y940262D01*
X285999Y940195D01*
X286665D01*
X287398Y940262D01*
X288331Y940328D01*
X289331Y940461D01*
X290531Y940661D01*
X291664Y940928D01*
X292797Y941328D01*
X292864D01*
X292930Y941395D01*
X293263Y941528D01*
X293797Y941794D01*
X294463Y942128D01*
X295196Y942594D01*
X295929Y943127D01*
X296663Y943727D01*
X297262Y944460D01*
X297329Y944527D01*
X297462Y944794D01*
X297729Y945260D01*
X297995Y945793D01*
X298262Y946460D01*
X298529Y947193D01*
X298662Y947993D01*
X298729Y948859D01*
Y948993D01*
Y949259D01*
X298662Y949726D01*
X298529Y950259D01*
X298395Y950925D01*
X298129Y951659D01*
X297729Y952392D01*
X297262Y953058D01*
X297196Y953125D01*
X296996Y953391D01*
X296663Y953725D01*
X296196Y954125D01*
X295529Y954591D01*
X294730Y955058D01*
X293797Y955591D01*
X292663Y956057D01*
X292530Y956124D01*
X292264Y956191D01*
X291997Y956324D01*
X291664Y956391D01*
X291264Y956524D01*
X290731Y956657D01*
X290198Y956857D01*
X289531Y956991D01*
X288798Y957190D01*
X287931Y957457D01*
X286998Y957657D01*
X285932Y957924D01*
X284799Y958190D01*
X283533Y958523D01*
X283466D01*
X283199Y958590D01*
X282866Y958723D01*
X282400Y958790D01*
X281800Y958990D01*
X281200Y959123D01*
X279667Y959590D01*
X278067Y960056D01*
X276401Y960656D01*
X274935Y961189D01*
X274268Y961523D01*
X273668Y961789D01*
X273602D01*
X273535Y961856D01*
X273335Y961989D01*
X273069Y962123D01*
X272402Y962523D01*
X271602Y963122D01*
X270736Y963789D01*
X269803Y964589D01*
X268936Y965522D01*
X268203Y966521D01*
Y966588D01*
X268137Y966655D01*
X267936Y967055D01*
X267670Y967588D01*
X267337Y968388D01*
X267003Y969321D01*
X266737Y970454D01*
X266537Y971654D01*
X266470Y972920D01*
Y972986D01*
Y973120D01*
Y973320D01*
X266537Y973586D01*
X266604Y974319D01*
X266737Y975319D01*
X267003Y976452D01*
X267403Y977652D01*
X267936Y978918D01*
X268670Y980185D01*
Y980251D01*
X268803Y980318D01*
X269070Y980718D01*
X269603Y981384D01*
X270269Y982117D01*
X271202Y982917D01*
X272269Y983784D01*
X273602Y984584D01*
X275068Y985317D01*
X275135D01*
X275268Y985383D01*
X275468Y985517D01*
X275801Y985583D01*
X276201Y985716D01*
X276668Y985917D01*
X277201Y986050D01*
X277801Y986250D01*
X279200Y986516D01*
X280800Y986850D01*
X282599Y987049D01*
X284466Y987116D01*
X285399D01*
X285932Y987049D01*
D02*
G37*
G36*
X447624Y972853D02*
X448490Y972786D01*
X449423Y972587D01*
X450490Y972387D01*
X451556Y972053D01*
X452623Y971654D01*
X452756Y971587D01*
X453089Y971453D01*
X453556Y971187D01*
X454222Y970787D01*
X454889Y970387D01*
X455555Y969854D01*
X456222Y969187D01*
X456822Y968521D01*
X456888Y968454D01*
X457021Y968188D01*
X457288Y967788D01*
X457621Y967188D01*
X457888Y966521D01*
X458221Y965722D01*
X458488Y964855D01*
X458754Y963856D01*
Y963789D01*
X458821Y963522D01*
X458888Y963056D01*
X458954Y962456D01*
X459021Y961589D01*
X459088Y960590D01*
X459154Y959323D01*
Y957790D01*
Y934996D01*
X452889D01*
Y957524D01*
Y957590D01*
Y957724D01*
Y957857D01*
Y958124D01*
X452822Y958857D01*
Y959657D01*
X452689Y960590D01*
X452556Y961523D01*
X452356Y962389D01*
X452089Y963189D01*
Y963256D01*
X451956Y963522D01*
X451756Y963856D01*
X451489Y964322D01*
X451156Y964789D01*
X450690Y965322D01*
X450157Y965788D01*
X449490Y966255D01*
X449423Y966321D01*
X449157Y966455D01*
X448757Y966655D01*
X448224Y966855D01*
X447624Y967055D01*
X446891Y967255D01*
X446024Y967388D01*
X445158Y967455D01*
X444758D01*
X444491Y967388D01*
X443691Y967321D01*
X442758Y967121D01*
X441692Y966855D01*
X440492Y966388D01*
X439293Y965722D01*
X438160Y964855D01*
X438026Y964722D01*
X437893Y964589D01*
X437693Y964322D01*
X437493Y964055D01*
X437226Y963655D01*
X437027Y963256D01*
X436760Y962722D01*
X436493Y962056D01*
X436227Y961389D01*
X435960Y960590D01*
X435760Y959723D01*
X435560Y958723D01*
X435427Y957657D01*
X435360Y956457D01*
X435294Y955191D01*
Y934996D01*
X429029D01*
Y972120D01*
X434694D01*
Y966788D01*
X434761Y966855D01*
X434894Y967055D01*
X435094Y967388D01*
X435427Y967721D01*
X435894Y968188D01*
X436360Y968721D01*
X436960Y969254D01*
X437693Y969854D01*
X438493Y970454D01*
X439359Y970987D01*
X440292Y971520D01*
X441359Y971987D01*
X442492Y972387D01*
X443691Y972653D01*
X445024Y972853D01*
X446424Y972920D01*
X447024D01*
X447624Y972853D01*
D02*
G37*
G36*
X722287Y972786D02*
X723087Y972653D01*
X724086Y972387D01*
X725219Y972053D01*
X726352Y971520D01*
X727619Y970854D01*
X725419Y965055D01*
X725286Y965122D01*
X725020Y965255D01*
X724553Y965455D01*
X723953Y965722D01*
X723287Y965988D01*
X722487Y966188D01*
X721620Y966321D01*
X720754Y966388D01*
X720421D01*
X720021Y966321D01*
X719488Y966255D01*
X718954Y966055D01*
X718288Y965855D01*
X717688Y965522D01*
X717021Y965122D01*
X716955Y965055D01*
X716755Y964922D01*
X716488Y964589D01*
X716155Y964189D01*
X715755Y963722D01*
X715355Y963122D01*
X715022Y962456D01*
X714689Y961656D01*
Y961589D01*
X714622Y961523D01*
Y961323D01*
X714556Y961056D01*
X714355Y960390D01*
X714222Y959523D01*
X714022Y958390D01*
X713822Y957190D01*
X713756Y955791D01*
X713689Y954325D01*
Y934996D01*
X707424D01*
Y972120D01*
X713089D01*
Y966455D01*
X713156Y966588D01*
X713289Y966788D01*
X713422Y967055D01*
X713889Y967721D01*
X714355Y968521D01*
X714955Y969454D01*
X715622Y970321D01*
X716355Y971054D01*
X717021Y971654D01*
X717088Y971720D01*
X717355Y971853D01*
X717755Y972053D01*
X718221Y972320D01*
X718821Y972520D01*
X719554Y972720D01*
X720287Y972853D01*
X721087Y972920D01*
X721620D01*
X722287Y972786D01*
D02*
G37*
G36*
X523404D02*
X524204Y972653D01*
X525204Y972387D01*
X526337Y972053D01*
X527470Y971520D01*
X528736Y970854D01*
X526537Y965055D01*
X526404Y965122D01*
X526137Y965255D01*
X525671Y965455D01*
X525071Y965722D01*
X524404Y965988D01*
X523604Y966188D01*
X522738Y966321D01*
X521871Y966388D01*
X521538D01*
X521138Y966321D01*
X520605Y966255D01*
X520072Y966055D01*
X519406Y965855D01*
X518806Y965522D01*
X518139Y965122D01*
X518073Y965055D01*
X517873Y964922D01*
X517606Y964589D01*
X517273Y964189D01*
X516873Y963722D01*
X516473Y963122D01*
X516140Y962456D01*
X515806Y961656D01*
Y961589D01*
X515740Y961523D01*
Y961323D01*
X515673Y961056D01*
X515473Y960390D01*
X515340Y959523D01*
X515140Y958390D01*
X514940Y957190D01*
X514873Y955791D01*
X514807Y954325D01*
Y934996D01*
X508542D01*
Y972120D01*
X514207D01*
Y966455D01*
X514273Y966588D01*
X514407Y966788D01*
X514540Y967055D01*
X515007Y967721D01*
X515473Y968521D01*
X516073Y969454D01*
X516740Y970321D01*
X517473Y971054D01*
X518139Y971654D01*
X518206Y971720D01*
X518472Y971853D01*
X518872Y972053D01*
X519339Y972320D01*
X519939Y972520D01*
X520672Y972720D01*
X521405Y972853D01*
X522205Y972920D01*
X522738D01*
X523404Y972786D01*
D02*
G37*
G36*
X226214Y972853D02*
X226680D01*
X227214Y972786D01*
X228480Y972520D01*
X229813Y972187D01*
X231213Y971654D01*
X232612Y970854D01*
X233212Y970387D01*
X233812Y969854D01*
X233879Y969787D01*
X233945Y969721D01*
X234079Y969521D01*
X234279Y969254D01*
X234478Y968921D01*
X234745Y968521D01*
X235012Y968054D01*
X235345Y967521D01*
X235611Y966921D01*
X235878Y966188D01*
X236145Y965455D01*
X236345Y964589D01*
X236545Y963655D01*
X236678Y962656D01*
X236811Y961523D01*
Y960390D01*
Y934996D01*
X230546D01*
Y958324D01*
Y958390D01*
Y958457D01*
Y958657D01*
Y958923D01*
Y959590D01*
X230479Y960390D01*
X230413Y961256D01*
X230280Y962189D01*
X230146Y962989D01*
X229946Y963722D01*
Y963789D01*
X229813Y963989D01*
X229680Y964322D01*
X229413Y964655D01*
X229146Y965122D01*
X228747Y965522D01*
X228280Y965988D01*
X227680Y966388D01*
X227614Y966455D01*
X227414Y966588D01*
X227080Y966721D01*
X226614Y966921D01*
X226081Y967121D01*
X225414Y967321D01*
X224748Y967388D01*
X223948Y967455D01*
X223548D01*
X223281Y967388D01*
X222548Y967321D01*
X221615Y967121D01*
X220549Y966788D01*
X219482Y966321D01*
X218349Y965655D01*
X217349Y964789D01*
X217216Y964655D01*
X216950Y964322D01*
X216550Y963655D01*
X216083Y962789D01*
X215816Y962256D01*
X215550Y961656D01*
X215350Y960923D01*
X215150Y960190D01*
X215017Y959390D01*
X214883Y958523D01*
X214750Y957524D01*
Y956524D01*
Y934996D01*
X208485D01*
Y959057D01*
Y959123D01*
Y959257D01*
Y959457D01*
Y959723D01*
X208418Y960523D01*
X208285Y961389D01*
X208085Y962456D01*
X207819Y963456D01*
X207485Y964455D01*
X206952Y965322D01*
X206886Y965388D01*
X206686Y965655D01*
X206286Y965988D01*
X205752Y966388D01*
X205086Y966788D01*
X204219Y967121D01*
X203153Y967388D01*
X201953Y967455D01*
X201487D01*
X201020Y967388D01*
X200354Y967255D01*
X199554Y967121D01*
X198754Y966855D01*
X197888Y966521D01*
X197021Y966055D01*
X196955Y965988D01*
X196621Y965788D01*
X196222Y965455D01*
X195755Y964988D01*
X195222Y964455D01*
X194689Y963722D01*
X194155Y962856D01*
X193689Y961923D01*
X193622Y961789D01*
X193556Y961456D01*
X193356Y960790D01*
X193222Y959990D01*
X193022Y958857D01*
X192822Y957524D01*
X192756Y955991D01*
X192689Y954191D01*
Y934996D01*
X186424D01*
Y972120D01*
X192023D01*
Y966855D01*
X192089Y966988D01*
X192356Y967321D01*
X192756Y967788D01*
X193289Y968454D01*
X193955Y969121D01*
X194755Y969854D01*
X195688Y970587D01*
X196688Y971254D01*
X196755D01*
X196821Y971320D01*
X197221Y971520D01*
X197821Y971787D01*
X198621Y972120D01*
X199621Y972387D01*
X200687Y972653D01*
X201953Y972853D01*
X203286Y972920D01*
X203953D01*
X204753Y972853D01*
X205686Y972720D01*
X206752Y972520D01*
X207885Y972187D01*
X208952Y971787D01*
X210018Y971187D01*
X210151Y971120D01*
X210485Y970854D01*
X210951Y970454D01*
X211484Y969921D01*
X212151Y969254D01*
X212751Y968454D01*
X213351Y967455D01*
X213817Y966388D01*
X213884Y966455D01*
X214017Y966655D01*
X214284Y966988D01*
X214617Y967388D01*
X215083Y967921D01*
X215617Y968454D01*
X216216Y969054D01*
X216883Y969654D01*
X217683Y970254D01*
X218549Y970854D01*
X219482Y971387D01*
X220482Y971920D01*
X221615Y972320D01*
X222748Y972653D01*
X224014Y972853D01*
X225281Y972920D01*
X225814D01*
X226214Y972853D01*
D02*
G37*
G36*
X648239Y934396D02*
Y934330D01*
X648173Y934130D01*
X648039Y933796D01*
X647839Y933397D01*
X647706Y932930D01*
X647439Y932330D01*
X646973Y931064D01*
X646373Y929664D01*
X645773Y928265D01*
X645240Y926998D01*
X644973Y926465D01*
X644707Y925999D01*
X644640Y925865D01*
X644440Y925532D01*
X644040Y924932D01*
X643574Y924266D01*
X643040Y923532D01*
X642374Y922799D01*
X641641Y922066D01*
X640841Y921466D01*
X640774Y921400D01*
X640441Y921266D01*
X640041Y921000D01*
X639375Y920733D01*
X638642Y920467D01*
X637775Y920200D01*
X636775Y920067D01*
X635709Y920000D01*
X635376D01*
X634976Y920067D01*
X634509Y920133D01*
X633909Y920200D01*
X633176Y920333D01*
X632443Y920533D01*
X631643Y920800D01*
X630977Y926665D01*
X631044D01*
X631310Y926598D01*
X631710Y926465D01*
X632177Y926398D01*
X632710Y926265D01*
X633310Y926132D01*
X634509Y926065D01*
X634843D01*
X635243Y926132D01*
X635709D01*
X636842Y926398D01*
X637375Y926532D01*
X637842Y926798D01*
X637909D01*
X638042Y926932D01*
X638308Y927065D01*
X638575Y927265D01*
X639241Y927865D01*
X639908Y928731D01*
Y928798D01*
X640041Y928931D01*
X640174Y929198D01*
X640375Y929664D01*
X640641Y930331D01*
X640974Y931131D01*
X641374Y932197D01*
X641574Y932797D01*
X641841Y933463D01*
X641907Y933530D01*
X641974Y933863D01*
X642174Y934330D01*
X642441Y934996D01*
X628311Y972120D01*
X634976D01*
X642774Y950659D01*
Y950592D01*
X642840Y950459D01*
X642907Y950259D01*
X643040Y949926D01*
X643174Y949592D01*
X643307Y949126D01*
X643640Y948059D01*
X644040Y946793D01*
X644507Y945327D01*
X644973Y943727D01*
X645440Y942061D01*
Y942128D01*
X645507Y942261D01*
X645573Y942461D01*
X645640Y942794D01*
X645773Y943194D01*
X645906Y943661D01*
X646173Y944727D01*
X646573Y945993D01*
X647039Y947393D01*
X647573Y948926D01*
X648106Y950459D01*
X656037Y972120D01*
X662302D01*
X648239Y934396D01*
D02*
G37*
G36*
X609449Y972853D02*
X610516Y972786D01*
X611715Y972653D01*
X613048Y972453D01*
X614248Y972187D01*
X615448Y971787D01*
X615514D01*
X615581Y971720D01*
X615914Y971587D01*
X616447Y971320D01*
X617114Y970987D01*
X617847Y970587D01*
X618580Y970120D01*
X619247Y969521D01*
X619846Y968921D01*
X619913Y968854D01*
X620046Y968654D01*
X620313Y968254D01*
X620646Y967788D01*
X620979Y967188D01*
X621313Y966455D01*
X621579Y965655D01*
X621846Y964722D01*
Y964655D01*
X621912Y964389D01*
X621979Y963989D01*
X622046Y963389D01*
Y962589D01*
X622113Y961589D01*
X622179Y960390D01*
Y958923D01*
Y950526D01*
Y950459D01*
Y950126D01*
Y949726D01*
Y949126D01*
Y948459D01*
Y947660D01*
Y946793D01*
X622246Y945860D01*
Y943994D01*
X622312Y942194D01*
X622379Y941328D01*
Y940595D01*
X622446Y939995D01*
X622512Y939462D01*
Y939328D01*
X622579Y939062D01*
X622712Y938595D01*
X622846Y938062D01*
X623112Y937329D01*
X623379Y936596D01*
X623712Y935796D01*
X624112Y934996D01*
X617514D01*
X617447Y935063D01*
X617380Y935329D01*
X617180Y935729D01*
X617047Y936329D01*
X616781Y936996D01*
X616647Y937795D01*
X616447Y938662D01*
X616314Y939662D01*
X616247D01*
X616181Y939528D01*
X615981Y939395D01*
X615714Y939195D01*
X615048Y938662D01*
X614114Y937995D01*
X613115Y937329D01*
X611982Y936596D01*
X610715Y935929D01*
X609516Y935396D01*
X609449D01*
X609382Y935329D01*
X609183Y935263D01*
X608983Y935196D01*
X608316Y934996D01*
X607450Y934796D01*
X606450Y934596D01*
X605250Y934396D01*
X603984Y934263D01*
X602651Y934196D01*
X602051D01*
X601651Y934263D01*
X601118D01*
X600518Y934330D01*
X599185Y934596D01*
X597652Y934930D01*
X596119Y935463D01*
X594586Y936196D01*
X593920Y936596D01*
X593253Y937129D01*
X593187Y937196D01*
X593120Y937262D01*
X592720Y937662D01*
X592253Y938329D01*
X591654Y939195D01*
X591054Y940328D01*
X590521Y941594D01*
X590121Y943061D01*
X590054Y943861D01*
X589987Y944727D01*
Y944860D01*
Y945194D01*
X590054Y945727D01*
X590121Y946393D01*
X590254Y947126D01*
X590521Y947993D01*
X590787Y948859D01*
X591187Y949726D01*
X591254Y949859D01*
X591387Y950126D01*
X591720Y950526D01*
X592053Y951059D01*
X592520Y951592D01*
X593120Y952192D01*
X593720Y952792D01*
X594453Y953325D01*
X594520Y953391D01*
X594786Y953525D01*
X595253Y953791D01*
X595786Y954125D01*
X596452Y954458D01*
X597186Y954791D01*
X598052Y955124D01*
X598985Y955391D01*
X599052D01*
X599318Y955458D01*
X599785Y955591D01*
X600385Y955658D01*
X601185Y955857D01*
X602118Y955991D01*
X603251Y956124D01*
X604584Y956324D01*
X604650D01*
X604917Y956391D01*
X605317D01*
X605850Y956524D01*
X606450Y956591D01*
X607183Y956657D01*
X607983Y956791D01*
X608849Y956924D01*
X610649Y957257D01*
X612515Y957657D01*
X614248Y958057D01*
X615048Y958324D01*
X615781Y958523D01*
Y958590D01*
Y958723D01*
Y958923D01*
X615847Y959190D01*
Y959723D01*
Y959990D01*
Y960123D01*
Y960190D01*
Y960323D01*
Y960523D01*
Y960723D01*
X615781Y961456D01*
X615648Y962256D01*
X615381Y963189D01*
X615114Y964055D01*
X614648Y964922D01*
X614048Y965588D01*
X613915Y965655D01*
X613581Y965922D01*
X613048Y966255D01*
X612248Y966655D01*
X611182Y967055D01*
X609982Y967388D01*
X608516Y967654D01*
X606850Y967721D01*
X606117D01*
X605317Y967654D01*
X604384Y967521D01*
X603251Y967321D01*
X602184Y967055D01*
X601118Y966655D01*
X600251Y966122D01*
X600185Y966055D01*
X599918Y965855D01*
X599518Y965455D01*
X599118Y964855D01*
X598585Y964122D01*
X598119Y963189D01*
X597585Y961989D01*
X597186Y960656D01*
X591054Y961523D01*
Y961589D01*
X591120Y961723D01*
Y961923D01*
X591187Y962189D01*
X591387Y962922D01*
X591720Y963789D01*
X592053Y964789D01*
X592520Y965855D01*
X593120Y966921D01*
X593786Y967854D01*
X593853Y967988D01*
X594120Y968254D01*
X594586Y968654D01*
X595186Y969254D01*
X595986Y969854D01*
X596919Y970454D01*
X598052Y971054D01*
X599318Y971587D01*
X599385D01*
X599518Y971654D01*
X599718Y971720D01*
X599985Y971787D01*
X600318Y971920D01*
X600718Y971987D01*
X601784Y972253D01*
X602984Y972520D01*
X604450Y972720D01*
X606050Y972853D01*
X607783Y972920D01*
X608983D01*
X609449Y972853D01*
D02*
G37*
G36*
X559662Y941061D02*
X584855D01*
Y934996D01*
X552864D01*
Y986250D01*
X559662D01*
Y941061D01*
D02*
G37*
G36*
X339851Y934996D02*
X333586D01*
Y972120D01*
X339851D01*
Y934996D01*
D02*
G37*
G36*
X40661Y986183D02*
X41261D01*
X42594Y986050D01*
X44061Y985850D01*
X45660Y985583D01*
X47193Y985183D01*
X48593Y984650D01*
X48659D01*
X48726Y984584D01*
X48926Y984517D01*
X49193Y984383D01*
X49792Y983984D01*
X50592Y983450D01*
X51525Y982784D01*
X52392Y981984D01*
X53325Y980984D01*
X54125Y979851D01*
Y979785D01*
X54191Y979718D01*
X54458Y979318D01*
X54791Y978652D01*
X55191Y977785D01*
X55524Y976786D01*
X55858Y975652D01*
X56124Y974453D01*
X56191Y973120D01*
Y973053D01*
Y972986D01*
Y972786D01*
Y972587D01*
X56124Y971920D01*
X55991Y971120D01*
X55724Y970120D01*
X55458Y969054D01*
X54991Y967988D01*
X54391Y966855D01*
X54325Y966721D01*
X54058Y966388D01*
X53658Y965855D01*
X53058Y965188D01*
X52258Y964455D01*
X51325Y963722D01*
X50259Y962922D01*
X48993Y962256D01*
X49059D01*
X49193Y962189D01*
X49459Y962123D01*
X49792Y961989D01*
X50126Y961856D01*
X50592Y961656D01*
X51659Y961123D01*
X52792Y960456D01*
X53991Y959657D01*
X55124Y958657D01*
X56124Y957524D01*
Y957457D01*
X56257Y957390D01*
X56391Y957190D01*
X56524Y956924D01*
X56924Y956257D01*
X57390Y955324D01*
X57857Y954191D01*
X58257Y952858D01*
X58524Y951392D01*
X58657Y949792D01*
Y949726D01*
Y949659D01*
Y949459D01*
Y949193D01*
X58590Y948526D01*
X58457Y947593D01*
X58257Y946593D01*
X57990Y945460D01*
X57657Y944327D01*
X57124Y943127D01*
X57057Y942994D01*
X56857Y942594D01*
X56524Y942061D01*
X56057Y941395D01*
X55524Y940595D01*
X54858Y939795D01*
X54125Y939062D01*
X53325Y938329D01*
X53258Y938262D01*
X52925Y938062D01*
X52458Y937729D01*
X51792Y937396D01*
X50992Y936996D01*
X50059Y936529D01*
X48926Y936129D01*
X47726Y935796D01*
X47593D01*
X47393Y935729D01*
X47126Y935663D01*
X46793Y935596D01*
X46393Y935529D01*
X45460Y935396D01*
X44261Y935263D01*
X42861Y935129D01*
X41261Y935063D01*
X39462Y934996D01*
X20000D01*
Y986250D01*
X40195D01*
X40661Y986183D01*
D02*
G37*
G36*
X321056Y972120D02*
X327388D01*
Y967255D01*
X321056D01*
Y945527D01*
Y945394D01*
Y945060D01*
Y944594D01*
X321123Y944061D01*
Y943461D01*
X321190Y942861D01*
X321256Y942394D01*
X321323Y941994D01*
X321390Y941861D01*
X321590Y941594D01*
X321923Y941195D01*
X322389Y940795D01*
X322456D01*
X322523Y940728D01*
X322723Y940661D01*
X322989Y940595D01*
X323656Y940461D01*
X324589Y940395D01*
X325322D01*
X325722Y940461D01*
X326255D01*
X326788Y940528D01*
X327388Y940595D01*
X328254Y935063D01*
X328121D01*
X327788Y934996D01*
X327321Y934930D01*
X326655Y934796D01*
X325922Y934730D01*
X325122Y934596D01*
X323456Y934530D01*
X322922D01*
X322256Y934596D01*
X321523Y934663D01*
X320656Y934796D01*
X319790Y934996D01*
X318923Y935263D01*
X318190Y935596D01*
X318124Y935663D01*
X317857Y935796D01*
X317591Y935996D01*
X317191Y936329D01*
X316724Y936729D01*
X316257Y937262D01*
X315858Y937795D01*
X315524Y938395D01*
Y938462D01*
X315391Y938795D01*
X315324Y939262D01*
X315191Y939995D01*
X315124Y940461D01*
X315058Y940995D01*
X314991Y941594D01*
X314925Y942328D01*
X314858Y943061D01*
Y943927D01*
X314791Y944860D01*
Y945860D01*
Y967255D01*
X310126D01*
Y972120D01*
X314791D01*
Y981251D01*
X321056Y985050D01*
Y972120D01*
D02*
G37*
G36*
X134171D02*
X140503D01*
Y967255D01*
X134171D01*
Y945527D01*
Y945394D01*
Y945060D01*
Y944594D01*
X134237Y944061D01*
Y943461D01*
X134304Y942861D01*
X134371Y942394D01*
X134437Y941994D01*
X134504Y941861D01*
X134704Y941594D01*
X135037Y941195D01*
X135504Y940795D01*
X135570D01*
X135637Y940728D01*
X135837Y940661D01*
X136104Y940595D01*
X136770Y940461D01*
X137703Y940395D01*
X138436D01*
X138836Y940461D01*
X139369D01*
X139903Y940528D01*
X140503Y940595D01*
X141369Y935063D01*
X141236D01*
X140902Y934996D01*
X140436Y934930D01*
X139769Y934796D01*
X139036Y934730D01*
X138236Y934596D01*
X136570Y934530D01*
X136037D01*
X135371Y934596D01*
X134637Y934663D01*
X133771Y934796D01*
X132904Y934996D01*
X132038Y935263D01*
X131305Y935596D01*
X131238Y935663D01*
X130972Y935796D01*
X130705Y935996D01*
X130305Y936329D01*
X129839Y936729D01*
X129372Y937262D01*
X128972Y937795D01*
X128639Y938395D01*
Y938462D01*
X128506Y938795D01*
X128439Y939262D01*
X128306Y939995D01*
X128239Y940461D01*
X128172Y940995D01*
X128106Y941594D01*
X128039Y942328D01*
X127972Y943061D01*
Y943927D01*
X127906Y944860D01*
Y945860D01*
Y967255D01*
X123240D01*
Y972120D01*
X127906D01*
Y981251D01*
X134171Y985050D01*
Y972120D01*
D02*
G37*
G36*
X114309D02*
X120641D01*
Y967255D01*
X114309D01*
Y945527D01*
Y945394D01*
Y945060D01*
Y944594D01*
X114376Y944061D01*
Y943461D01*
X114443Y942861D01*
X114509Y942394D01*
X114576Y941994D01*
X114642Y941861D01*
X114842Y941594D01*
X115176Y941195D01*
X115642Y940795D01*
X115709D01*
X115775Y940728D01*
X115975Y940661D01*
X116242Y940595D01*
X116909Y940461D01*
X117842Y940395D01*
X118575D01*
X118975Y940461D01*
X119508D01*
X120041Y940528D01*
X120641Y940595D01*
X121507Y935063D01*
X121374D01*
X121041Y934996D01*
X120574Y934930D01*
X119908Y934796D01*
X119175Y934730D01*
X118375Y934596D01*
X116709Y934530D01*
X116175D01*
X115509Y934596D01*
X114776Y934663D01*
X113909Y934796D01*
X113043Y934996D01*
X112176Y935263D01*
X111443Y935596D01*
X111377Y935663D01*
X111110Y935796D01*
X110843Y935996D01*
X110443Y936329D01*
X109977Y936729D01*
X109510Y937262D01*
X109110Y937795D01*
X108777Y938395D01*
Y938462D01*
X108644Y938795D01*
X108577Y939262D01*
X108444Y939995D01*
X108377Y940461D01*
X108311Y940995D01*
X108244Y941594D01*
X108177Y942328D01*
X108111Y943061D01*
Y943927D01*
X108044Y944860D01*
Y945860D01*
Y967255D01*
X103379D01*
Y972120D01*
X108044D01*
Y981251D01*
X114309Y985050D01*
Y972120D01*
D02*
G37*
G36*
X684097Y972853D02*
X684697Y972786D01*
X685430Y972653D01*
X686296Y972520D01*
X687162Y972320D01*
X688096Y972053D01*
X689095Y971654D01*
X690095Y971254D01*
X691095Y970787D01*
X692161Y970187D01*
X693161Y969521D01*
X694094Y968721D01*
X695027Y967854D01*
X695094Y967788D01*
X695227Y967588D01*
X695494Y967321D01*
X695760Y966921D01*
X696094Y966388D01*
X696494Y965788D01*
X696960Y965055D01*
X697427Y964189D01*
X697826Y963189D01*
X698293Y962123D01*
X698693Y960990D01*
X699026Y959723D01*
X699293Y958324D01*
X699559Y956857D01*
X699693Y955258D01*
X699759Y953591D01*
Y953458D01*
Y953192D01*
Y952658D01*
X699693Y951925D01*
X672033D01*
Y951859D01*
Y951659D01*
X672100Y951325D01*
X672166Y950925D01*
X672233Y950392D01*
X672300Y949792D01*
X672566Y948459D01*
X673033Y946926D01*
X673633Y945394D01*
X674432Y943927D01*
X674899Y943261D01*
X675432Y942594D01*
X675499Y942528D01*
X675565Y942461D01*
X675765Y942328D01*
X675965Y942128D01*
X676699Y941594D01*
X677565Y940995D01*
X678698Y940395D01*
X680031Y939928D01*
X681564Y939528D01*
X682364Y939462D01*
X683230Y939395D01*
X683830D01*
X684430Y939462D01*
X685296Y939595D01*
X686163Y939862D01*
X687162Y940128D01*
X688162Y940595D01*
X689095Y941195D01*
X689229Y941261D01*
X689495Y941528D01*
X689962Y941994D01*
X690495Y942594D01*
X691095Y943394D01*
X691761Y944460D01*
X692428Y945660D01*
X692961Y947060D01*
X699493Y946193D01*
Y946127D01*
X699426Y945927D01*
X699359Y945660D01*
X699159Y945260D01*
X699026Y944794D01*
X698760Y944194D01*
X698226Y942927D01*
X697427Y941528D01*
X696427Y940061D01*
X695227Y938595D01*
X693828Y937329D01*
X693761D01*
X693627Y937196D01*
X693428Y937062D01*
X693094Y936862D01*
X692694Y936596D01*
X692161Y936329D01*
X691628Y936063D01*
X690962Y935796D01*
X690228Y935463D01*
X689429Y935196D01*
X688562Y934930D01*
X687629Y934663D01*
X685563Y934330D01*
X684430Y934263D01*
X683230Y934196D01*
X682897D01*
X682430Y934263D01*
X681897D01*
X681231Y934330D01*
X680431Y934463D01*
X679498Y934596D01*
X678565Y934796D01*
X677565Y935063D01*
X676499Y935396D01*
X675432Y935796D01*
X674366Y936329D01*
X673299Y936862D01*
X672233Y937529D01*
X671233Y938329D01*
X670300Y939195D01*
X670234Y939262D01*
X670100Y939462D01*
X669834Y939728D01*
X669567Y940128D01*
X669234Y940661D01*
X668834Y941261D01*
X668367Y941994D01*
X667967Y942794D01*
X667501Y943794D01*
X667034Y944794D01*
X666634Y945993D01*
X666301Y947193D01*
X666035Y948593D01*
X665768Y949992D01*
X665635Y951525D01*
X665568Y953192D01*
Y953325D01*
Y953591D01*
X665635Y954125D01*
Y954725D01*
X665701Y955524D01*
X665835Y956457D01*
X665968Y957457D01*
X666168Y958523D01*
X666434Y959657D01*
X666768Y960856D01*
X667101Y962056D01*
X667568Y963256D01*
X668167Y964455D01*
X668767Y965655D01*
X669500Y966721D01*
X670367Y967721D01*
X670434Y967788D01*
X670567Y967921D01*
X670833Y968188D01*
X671233Y968521D01*
X671700Y968921D01*
X672300Y969387D01*
X672966Y969854D01*
X673699Y970321D01*
X674566Y970787D01*
X675499Y971254D01*
X676565Y971720D01*
X677632Y972120D01*
X678831Y972453D01*
X680098Y972720D01*
X681431Y972853D01*
X682830Y972920D01*
X683563D01*
X684097Y972853D01*
D02*
G37*
G36*
X485214D02*
X485814Y972786D01*
X486547Y972653D01*
X487414Y972520D01*
X488280Y972320D01*
X489213Y972053D01*
X490213Y971654D01*
X491213Y971254D01*
X492212Y970787D01*
X493279Y970187D01*
X494279Y969521D01*
X495212Y968721D01*
X496145Y967854D01*
X496211Y967788D01*
X496345Y967588D01*
X496611Y967321D01*
X496878Y966921D01*
X497211Y966388D01*
X497611Y965788D01*
X498078Y965055D01*
X498544Y964189D01*
X498944Y963189D01*
X499411Y962123D01*
X499810Y960990D01*
X500144Y959723D01*
X500410Y958324D01*
X500677Y956857D01*
X500810Y955258D01*
X500877Y953591D01*
Y953458D01*
Y953192D01*
Y952658D01*
X500810Y951925D01*
X473151D01*
Y951859D01*
Y951659D01*
X473217Y951325D01*
X473284Y950925D01*
X473351Y950392D01*
X473417Y949792D01*
X473684Y948459D01*
X474150Y946926D01*
X474750Y945394D01*
X475550Y943927D01*
X476017Y943261D01*
X476550Y942594D01*
X476616Y942528D01*
X476683Y942461D01*
X476883Y942328D01*
X477083Y942128D01*
X477816Y941594D01*
X478683Y940995D01*
X479816Y940395D01*
X481149Y939928D01*
X482682Y939528D01*
X483481Y939462D01*
X484348Y939395D01*
X484948D01*
X485547Y939462D01*
X486414Y939595D01*
X487280Y939862D01*
X488280Y940128D01*
X489280Y940595D01*
X490213Y941195D01*
X490346Y941261D01*
X490613Y941528D01*
X491079Y941994D01*
X491613Y942594D01*
X492212Y943394D01*
X492879Y944460D01*
X493545Y945660D01*
X494079Y947060D01*
X500610Y946193D01*
Y946127D01*
X500544Y945927D01*
X500477Y945660D01*
X500277Y945260D01*
X500144Y944794D01*
X499877Y944194D01*
X499344Y942927D01*
X498544Y941528D01*
X497544Y940061D01*
X496345Y938595D01*
X494945Y937329D01*
X494878D01*
X494745Y937196D01*
X494545Y937062D01*
X494212Y936862D01*
X493812Y936596D01*
X493279Y936329D01*
X492746Y936063D01*
X492079Y935796D01*
X491346Y935463D01*
X490546Y935196D01*
X489680Y934930D01*
X488747Y934663D01*
X486680Y934330D01*
X485547Y934263D01*
X484348Y934196D01*
X484015D01*
X483548Y934263D01*
X483015D01*
X482348Y934330D01*
X481549Y934463D01*
X480615Y934596D01*
X479682Y934796D01*
X478683Y935063D01*
X477616Y935396D01*
X476550Y935796D01*
X475483Y936329D01*
X474417Y936862D01*
X473351Y937529D01*
X472351Y938329D01*
X471418Y939195D01*
X471351Y939262D01*
X471218Y939462D01*
X470951Y939728D01*
X470685Y940128D01*
X470351Y940661D01*
X469952Y941261D01*
X469485Y941994D01*
X469085Y942794D01*
X468619Y943794D01*
X468152Y944794D01*
X467752Y945993D01*
X467419Y947193D01*
X467152Y948593D01*
X466886Y949992D01*
X466752Y951525D01*
X466686Y953192D01*
Y953325D01*
Y953591D01*
X466752Y954125D01*
Y954725D01*
X466819Y955524D01*
X466952Y956457D01*
X467085Y957457D01*
X467285Y958523D01*
X467552Y959657D01*
X467885Y960856D01*
X468219Y962056D01*
X468685Y963256D01*
X469285Y964455D01*
X469885Y965655D01*
X470618Y966721D01*
X471484Y967721D01*
X471551Y967788D01*
X471684Y967921D01*
X471951Y968188D01*
X472351Y968521D01*
X472817Y968921D01*
X473417Y969387D01*
X474084Y969854D01*
X474817Y970321D01*
X475683Y970787D01*
X476616Y971254D01*
X477683Y971720D01*
X478749Y972120D01*
X479949Y972453D01*
X481215Y972720D01*
X482548Y972853D01*
X483948Y972920D01*
X484681D01*
X485214Y972853D01*
D02*
G37*
G36*
X405635D02*
X406234Y972786D01*
X406968Y972653D01*
X407834Y972520D01*
X408700Y972320D01*
X409634Y972053D01*
X410633Y971654D01*
X411633Y971254D01*
X412633Y970787D01*
X413699Y970187D01*
X414699Y969521D01*
X415632Y968721D01*
X416565Y967854D01*
X416632Y967788D01*
X416765Y967588D01*
X417032Y967321D01*
X417298Y966921D01*
X417631Y966388D01*
X418031Y965788D01*
X418498Y965055D01*
X418965Y964189D01*
X419364Y963189D01*
X419831Y962123D01*
X420231Y960990D01*
X420564Y959723D01*
X420831Y958324D01*
X421097Y956857D01*
X421231Y955258D01*
X421297Y953591D01*
Y953458D01*
Y953192D01*
Y952658D01*
X421231Y951925D01*
X393571D01*
Y951859D01*
Y951659D01*
X393638Y951325D01*
X393704Y950925D01*
X393771Y950392D01*
X393838Y949792D01*
X394104Y948459D01*
X394571Y946926D01*
X395171Y945394D01*
X395970Y943927D01*
X396437Y943261D01*
X396970Y942594D01*
X397037Y942528D01*
X397103Y942461D01*
X397303Y942328D01*
X397503Y942128D01*
X398237Y941594D01*
X399103Y940995D01*
X400236Y940395D01*
X401569Y939928D01*
X403102Y939528D01*
X403902Y939462D01*
X404768Y939395D01*
X405368D01*
X405968Y939462D01*
X406834Y939595D01*
X407701Y939862D01*
X408700Y940128D01*
X409700Y940595D01*
X410633Y941195D01*
X410767Y941261D01*
X411033Y941528D01*
X411500Y941994D01*
X412033Y942594D01*
X412633Y943394D01*
X413299Y944460D01*
X413966Y945660D01*
X414499Y947060D01*
X421031Y946193D01*
Y946127D01*
X420964Y945927D01*
X420897Y945660D01*
X420697Y945260D01*
X420564Y944794D01*
X420298Y944194D01*
X419764Y942927D01*
X418965Y941528D01*
X417965Y940061D01*
X416765Y938595D01*
X415365Y937329D01*
X415299D01*
X415165Y937196D01*
X414966Y937062D01*
X414632Y936862D01*
X414232Y936596D01*
X413699Y936329D01*
X413166Y936063D01*
X412500Y935796D01*
X411766Y935463D01*
X410967Y935196D01*
X410100Y934930D01*
X409167Y934663D01*
X407101Y934330D01*
X405968Y934263D01*
X404768Y934196D01*
X404435D01*
X403968Y934263D01*
X403435D01*
X402769Y934330D01*
X401969Y934463D01*
X401036Y934596D01*
X400103Y934796D01*
X399103Y935063D01*
X398036Y935396D01*
X396970Y935796D01*
X395904Y936329D01*
X394837Y936862D01*
X393771Y937529D01*
X392771Y938329D01*
X391838Y939195D01*
X391772Y939262D01*
X391638Y939462D01*
X391372Y939728D01*
X391105Y940128D01*
X390772Y940661D01*
X390372Y941261D01*
X389905Y941994D01*
X389505Y942794D01*
X389039Y943794D01*
X388572Y944794D01*
X388172Y945993D01*
X387839Y947193D01*
X387573Y948593D01*
X387306Y949992D01*
X387173Y951525D01*
X387106Y953192D01*
Y953325D01*
Y953591D01*
X387173Y954125D01*
Y954725D01*
X387239Y955524D01*
X387373Y956457D01*
X387506Y957457D01*
X387706Y958523D01*
X387972Y959657D01*
X388306Y960856D01*
X388639Y962056D01*
X389105Y963256D01*
X389705Y964455D01*
X390305Y965655D01*
X391038Y966721D01*
X391905Y967721D01*
X391971Y967788D01*
X392105Y967921D01*
X392371Y968188D01*
X392771Y968521D01*
X393238Y968921D01*
X393838Y969387D01*
X394504Y969854D01*
X395237Y970321D01*
X396104Y970787D01*
X397037Y971254D01*
X398103Y971720D01*
X399170Y972120D01*
X400369Y972453D01*
X401636Y972720D01*
X402969Y972853D01*
X404368Y972920D01*
X405101D01*
X405635Y972853D01*
D02*
G37*
G36*
X162963D02*
X163630Y972786D01*
X164363Y972653D01*
X165229Y972520D01*
X166163Y972320D01*
X167096Y972053D01*
X168095Y971654D01*
X169162Y971254D01*
X170228Y970787D01*
X171295Y970187D01*
X172294Y969521D01*
X173294Y968721D01*
X174227Y967854D01*
X174294Y967788D01*
X174427Y967654D01*
X174694Y967321D01*
X174960Y966921D01*
X175360Y966455D01*
X175760Y965788D01*
X176227Y965055D01*
X176693Y964255D01*
X177093Y963322D01*
X177560Y962322D01*
X177960Y961189D01*
X178360Y959923D01*
X178626Y958590D01*
X178893Y957190D01*
X179026Y955658D01*
X179093Y954058D01*
Y953991D01*
Y953725D01*
Y953391D01*
Y952858D01*
X179026Y952258D01*
X178959Y951592D01*
X178893Y950792D01*
X178826Y949992D01*
X178559Y948193D01*
X178160Y946327D01*
X177626Y944460D01*
X177293Y943594D01*
X176893Y942794D01*
Y942728D01*
X176826Y942594D01*
X176693Y942394D01*
X176493Y942128D01*
X176027Y941395D01*
X175294Y940461D01*
X174427Y939462D01*
X173361Y938395D01*
X172094Y937396D01*
X170628Y936462D01*
X170562D01*
X170428Y936396D01*
X170228Y936263D01*
X169895Y936129D01*
X169562Y935929D01*
X169095Y935729D01*
X167962Y935329D01*
X166696Y934930D01*
X165163Y934530D01*
X163497Y934263D01*
X161697Y934196D01*
X161364D01*
X160964Y934263D01*
X160431D01*
X159764Y934330D01*
X159031Y934463D01*
X158165Y934596D01*
X157232Y934796D01*
X156232Y935063D01*
X155232Y935396D01*
X154232Y935796D01*
X153166Y936263D01*
X152100Y936862D01*
X151100Y937529D01*
X150100Y938262D01*
X149167Y939128D01*
X149100Y939195D01*
X148967Y939395D01*
X148700Y939662D01*
X148434Y940061D01*
X148034Y940595D01*
X147634Y941195D01*
X147234Y941928D01*
X146768Y942794D01*
X146301Y943794D01*
X145901Y944860D01*
X145501Y945993D01*
X145101Y947326D01*
X144835Y948726D01*
X144568Y950192D01*
X144435Y951792D01*
X144368Y953525D01*
Y953658D01*
Y953991D01*
X144435Y954525D01*
Y955191D01*
X144568Y956057D01*
X144701Y957057D01*
X144835Y958124D01*
X145101Y959257D01*
X145368Y960523D01*
X145768Y961789D01*
X146234Y963056D01*
X146768Y964322D01*
X147434Y965522D01*
X148167Y966721D01*
X149034Y967788D01*
X150033Y968788D01*
X150100Y968854D01*
X150233Y968988D01*
X150500Y969187D01*
X150900Y969454D01*
X151366Y969721D01*
X151900Y970120D01*
X152566Y970454D01*
X153299Y970854D01*
X154099Y971254D01*
X154965Y971587D01*
X155965Y971987D01*
X156965Y972253D01*
X158098Y972520D01*
X159231Y972720D01*
X160431Y972853D01*
X161697Y972920D01*
X162430D01*
X162963Y972853D01*
D02*
G37*
G36*
X83450D02*
X84117Y972786D01*
X84850Y972653D01*
X85716Y972520D01*
X86650Y972320D01*
X87583Y972053D01*
X88582Y971654D01*
X89649Y971254D01*
X90715Y970787D01*
X91782Y970187D01*
X92781Y969521D01*
X93781Y968721D01*
X94714Y967854D01*
X94781Y967788D01*
X94914Y967654D01*
X95181Y967321D01*
X95447Y966921D01*
X95847Y966455D01*
X96247Y965788D01*
X96714Y965055D01*
X97180Y964255D01*
X97580Y963322D01*
X98047Y962322D01*
X98447Y961189D01*
X98847Y959923D01*
X99113Y958590D01*
X99380Y957190D01*
X99513Y955658D01*
X99580Y954058D01*
Y953991D01*
Y953725D01*
Y953391D01*
Y952858D01*
X99513Y952258D01*
X99446Y951592D01*
X99380Y950792D01*
X99313Y949992D01*
X99046Y948193D01*
X98646Y946327D01*
X98113Y944460D01*
X97780Y943594D01*
X97380Y942794D01*
Y942728D01*
X97313Y942594D01*
X97180Y942394D01*
X96980Y942128D01*
X96514Y941395D01*
X95781Y940461D01*
X94914Y939462D01*
X93848Y938395D01*
X92581Y937396D01*
X91115Y936462D01*
X91048D01*
X90915Y936396D01*
X90715Y936263D01*
X90382Y936129D01*
X90049Y935929D01*
X89582Y935729D01*
X88449Y935329D01*
X87183Y934930D01*
X85650Y934530D01*
X83984Y934263D01*
X82184Y934196D01*
X81851D01*
X81451Y934263D01*
X80918D01*
X80251Y934330D01*
X79518Y934463D01*
X78652Y934596D01*
X77719Y934796D01*
X76719Y935063D01*
X75719Y935396D01*
X74719Y935796D01*
X73653Y936263D01*
X72586Y936862D01*
X71587Y937529D01*
X70587Y938262D01*
X69654Y939128D01*
X69587Y939195D01*
X69454Y939395D01*
X69187Y939662D01*
X68921Y940061D01*
X68521Y940595D01*
X68121Y941195D01*
X67721Y941928D01*
X67255Y942794D01*
X66788Y943794D01*
X66388Y944860D01*
X65988Y945993D01*
X65588Y947326D01*
X65322Y948726D01*
X65055Y950192D01*
X64922Y951792D01*
X64855Y953525D01*
Y953658D01*
Y953991D01*
X64922Y954525D01*
Y955191D01*
X65055Y956057D01*
X65188Y957057D01*
X65322Y958124D01*
X65588Y959257D01*
X65855Y960523D01*
X66255Y961789D01*
X66721Y963056D01*
X67255Y964322D01*
X67921Y965522D01*
X68654Y966721D01*
X69521Y967788D01*
X70520Y968788D01*
X70587Y968854D01*
X70720Y968988D01*
X70987Y969187D01*
X71387Y969454D01*
X71853Y969721D01*
X72387Y970120D01*
X73053Y970454D01*
X73786Y970854D01*
X74586Y971254D01*
X75452Y971587D01*
X76452Y971987D01*
X77452Y972253D01*
X78585Y972520D01*
X79718Y972720D01*
X80918Y972853D01*
X82184Y972920D01*
X82917D01*
X83450Y972853D01*
D02*
G37*
%LPC*%
G36*
X1380000Y638996D02*
D01*
X1378824Y638938D01*
X1376518Y638480D01*
X1374345Y637580D01*
X1372390Y636273D01*
X1370727Y634610D01*
X1369420Y632655D01*
X1368520Y630482D01*
X1368062Y628176D01*
X1368004Y627000D01*
X1368062Y625824D01*
X1368520Y623518D01*
X1369420Y621345D01*
X1370727Y619390D01*
X1372390Y617727D01*
X1374345Y616420D01*
X1376518Y615520D01*
X1378824Y615062D01*
X1380000Y615004D01*
X1381176Y615062D01*
X1383482Y615520D01*
X1385655Y616420D01*
X1387610Y617727D01*
X1389273Y619390D01*
X1390580Y621345D01*
X1391480Y623518D01*
X1391938Y625824D01*
X1391996Y627000D01*
X1391938Y628176D01*
X1391480Y630482D01*
X1390580Y632655D01*
X1389273Y634610D01*
X1387610Y636273D01*
X1385655Y637580D01*
X1383482Y638480D01*
X1381176Y638938D01*
X1380000Y638996D01*
D01*
D02*
G37*
G36*
X1380000Y331996D02*
X1380000Y331996D01*
X1378824Y331939D01*
X1376518Y331480D01*
X1374345Y330580D01*
X1372390Y329273D01*
X1370727Y327610D01*
X1369420Y325655D01*
X1368520Y323482D01*
X1368062Y321176D01*
X1368004Y320000D01*
X1368062Y318825D01*
X1368520Y316519D01*
X1369420Y314347D01*
X1370726Y312391D01*
X1372388Y310729D01*
X1374342Y309422D01*
X1376514Y308522D01*
X1378820Y308062D01*
X1379995Y308004D01*
X1379995D01*
X1380000Y307999D01*
X1380005Y308004D01*
X1380005D01*
X1381181Y308062D01*
X1383486Y308522D01*
X1385658Y309422D01*
X1387612Y310729D01*
X1389275Y312391D01*
X1390580Y314347D01*
X1391480Y316519D01*
X1391938Y318825D01*
X1391996Y320000D01*
X1391996Y320000D01*
X1391938Y321176D01*
X1391480Y323482D01*
X1390580Y325655D01*
X1389273Y327610D01*
X1387610Y329273D01*
X1385655Y330580D01*
X1383482Y331480D01*
X1381176Y331939D01*
X1380000Y331996D01*
X1380000Y331996D01*
D02*
G37*
G36*
X1125000Y638996D02*
X1123824Y638938D01*
X1121518Y638480D01*
X1119345Y637580D01*
X1117390Y636273D01*
X1115727Y634610D01*
X1114420Y632655D01*
X1113520Y630482D01*
X1113062Y628176D01*
X1113004Y627000D01*
X1113062Y625824D01*
X1113520Y623518D01*
X1114420Y621345D01*
X1115727Y619390D01*
X1117390Y617727D01*
X1119345Y616420D01*
X1121518Y615520D01*
X1123824Y615062D01*
X1125000Y615004D01*
X1126176Y615062D01*
X1128482Y615520D01*
X1130655Y616420D01*
X1132610Y617727D01*
X1134273Y619390D01*
X1135580Y621345D01*
X1136480Y623518D01*
X1136938Y625824D01*
X1136996Y627000D01*
X1136938Y628176D01*
X1136480Y630482D01*
X1135580Y632655D01*
X1134273Y634610D01*
X1132610Y636273D01*
X1130655Y637580D01*
X1128482Y638480D01*
X1126176Y638938D01*
X1125000Y638996D01*
D02*
G37*
G36*
X1125000Y331996D02*
X1125000Y331996D01*
X1123824Y331939D01*
X1121518Y331480D01*
X1119345Y330580D01*
X1117390Y329273D01*
X1115727Y327610D01*
X1114420Y325655D01*
X1113520Y323482D01*
X1113062Y321176D01*
X1113004Y320000D01*
X1113062Y318825D01*
X1113520Y316519D01*
X1114420Y314346D01*
X1115725Y312391D01*
X1117388Y310729D01*
X1119342Y309422D01*
X1121514Y308522D01*
X1123820Y308062D01*
X1124995Y308004D01*
X1124995D01*
X1125000Y307999D01*
X1125005Y308004D01*
X1125005D01*
X1126180Y308062D01*
X1128486Y308522D01*
X1130658Y309422D01*
X1132613Y310729D01*
X1134275Y312391D01*
X1135581Y314346D01*
X1136480Y316519D01*
X1136938Y318825D01*
X1136996Y320000D01*
X1136996Y320000D01*
X1136938Y321176D01*
X1136480Y323482D01*
X1135580Y325655D01*
X1134273Y327610D01*
X1132610Y329273D01*
X1130655Y330580D01*
X1128482Y331480D01*
X1126176Y331938D01*
X1125000Y331996D01*
X1125000Y331996D01*
D02*
G37*
G36*
X870000Y638996D02*
X868824Y638938D01*
X866518Y638480D01*
X864345Y637580D01*
X862390Y636273D01*
X860727Y634610D01*
X859420Y632655D01*
X858520Y630482D01*
X858062Y628176D01*
X858004Y627000D01*
X858062Y625824D01*
X858520Y623518D01*
X859420Y621345D01*
X860727Y619390D01*
X862390Y617727D01*
X864345Y616420D01*
X866518Y615520D01*
X868824Y615062D01*
X870000Y615004D01*
X871176Y615062D01*
X873482Y615520D01*
X875655Y616420D01*
X877610Y617727D01*
X879273Y619390D01*
X880580Y621345D01*
X881480Y623518D01*
X881938Y625824D01*
X881996Y627000D01*
X881938Y628176D01*
X881480Y630482D01*
X880580Y632655D01*
X879273Y634610D01*
X877610Y636273D01*
X875655Y637580D01*
X873482Y638480D01*
X871176Y638938D01*
X870000Y638996D01*
D02*
G37*
G36*
X870000Y331996D02*
X870000Y331996D01*
X868824Y331938D01*
X866518Y331480D01*
X864345Y330580D01*
X862390Y329273D01*
X860727Y327610D01*
X859420Y325655D01*
X858520Y323482D01*
X858062Y321176D01*
X858004Y320000D01*
X858062Y318825D01*
X858520Y316519D01*
X859420Y314346D01*
X860725Y312391D01*
X862388Y310729D01*
X864342Y309422D01*
X866514Y308521D01*
X868820Y308062D01*
X869995Y308004D01*
X869995D01*
X870000Y307999D01*
X870005Y308004D01*
X870005D01*
X871180Y308062D01*
X873486Y308521D01*
X875658Y309422D01*
X877613Y310729D01*
X879275Y312391D01*
X880581Y314346D01*
X881480Y316519D01*
X881938Y318825D01*
X881996Y320000D01*
X881996Y320000D01*
X881938Y321176D01*
X881480Y323482D01*
X880580Y325655D01*
X879273Y327610D01*
X877610Y329273D01*
X875655Y330580D01*
X873482Y331480D01*
X871176Y331938D01*
X870000Y331996D01*
X870000Y331996D01*
D02*
G37*
G36*
X615000Y638996D02*
X613824Y638938D01*
X611518Y638480D01*
X609345Y637580D01*
X607390Y636273D01*
X605727Y634610D01*
X604420Y632655D01*
X603520Y630482D01*
X603062Y628176D01*
X603004Y627000D01*
X603062Y625824D01*
X603520Y623518D01*
X604420Y621345D01*
X605727Y619390D01*
X607390Y617727D01*
X609345Y616420D01*
X611518Y615520D01*
X613824Y615062D01*
X615000Y615004D01*
X616176Y615062D01*
X618482Y615520D01*
X620655Y616420D01*
X622610Y617727D01*
X624273Y619390D01*
X625580Y621345D01*
X626480Y623518D01*
X626938Y625824D01*
X626996Y627000D01*
X626938Y628176D01*
X626480Y630482D01*
X625580Y632655D01*
X624273Y634610D01*
X622610Y636273D01*
X620655Y637580D01*
X618482Y638480D01*
X616176Y638938D01*
X615000Y638996D01*
D02*
G37*
G36*
X615000Y331996D02*
X615000Y331996D01*
X613824Y331938D01*
X611518Y331480D01*
X609345Y330580D01*
X607390Y329273D01*
X605727Y327610D01*
X604420Y325655D01*
X603520Y323482D01*
X603062Y321176D01*
X603004Y320000D01*
X603061Y318825D01*
X603520Y316519D01*
X604420Y314346D01*
X605725Y312391D01*
X607388Y310729D01*
X609342Y309422D01*
X611514Y308521D01*
X613820Y308062D01*
X614995Y308004D01*
X614995D01*
X615000Y307999D01*
X615005Y308004D01*
X615005D01*
X616180Y308062D01*
X618486Y308521D01*
X620658Y309422D01*
X622612Y310729D01*
X624275Y312391D01*
X625580Y314346D01*
X626480Y316519D01*
X626938Y318825D01*
X626996Y320000D01*
X626996Y320000D01*
X626938Y321176D01*
X626480Y323482D01*
X625580Y325655D01*
X624273Y327610D01*
X622610Y329273D01*
X620655Y330580D01*
X618482Y331480D01*
X616176Y331938D01*
X615000Y331996D01*
X615000Y331996D01*
D02*
G37*
G36*
X360000Y638996D02*
X358824Y638938D01*
X356518Y638480D01*
X354345Y637580D01*
X352390Y636273D01*
X350727Y634610D01*
X349420Y632655D01*
X348520Y630482D01*
X348062Y628176D01*
X348004Y627000D01*
X348062Y625824D01*
X348520Y623518D01*
X349420Y621345D01*
X350727Y619390D01*
X352390Y617727D01*
X354345Y616420D01*
X356518Y615520D01*
X358824Y615062D01*
X360000Y615004D01*
X361176Y615062D01*
X363482Y615520D01*
X365655Y616420D01*
X367610Y617727D01*
X369273Y619390D01*
X370580Y621345D01*
X371480Y623518D01*
X371938Y625824D01*
X371996Y627000D01*
X371938Y628176D01*
X371480Y630482D01*
X370580Y632655D01*
X369273Y634610D01*
X367610Y636273D01*
X365655Y637580D01*
X363482Y638480D01*
X361176Y638938D01*
X360000Y638996D01*
D02*
G37*
G36*
X360000Y331996D02*
X360000Y331996D01*
X358824Y331938D01*
X356518Y331480D01*
X354345Y330580D01*
X352390Y329273D01*
X350727Y327610D01*
X349420Y325655D01*
X348520Y323482D01*
X348061Y321176D01*
X348004Y320000D01*
X348061Y318825D01*
X348520Y316518D01*
X349420Y314346D01*
X350725Y312391D01*
X352388Y310728D01*
X354342Y309422D01*
X356514Y308521D01*
X358820Y308062D01*
X359995Y308004D01*
X359995D01*
X360000Y307999D01*
X360005Y308004D01*
X360005D01*
X361180Y308062D01*
X363486Y308521D01*
X365658Y309422D01*
X367612Y310728D01*
X369274Y312391D01*
X370580Y314346D01*
X371480Y316518D01*
X371938Y318825D01*
X371996Y320000D01*
X371938Y321176D01*
X371480Y323482D01*
X370580Y325655D01*
X369273Y327610D01*
X367610Y329273D01*
X365655Y330580D01*
X363482Y331480D01*
X361176Y331938D01*
X360000Y331996D01*
X360000Y331996D01*
D02*
G37*
G36*
X2399496Y638745D02*
X2398320Y638687D01*
X2396014Y638228D01*
X2393841Y637328D01*
X2391886Y636021D01*
X2390223Y634359D01*
X2388917Y632403D01*
X2388017Y630231D01*
X2387558Y627924D01*
X2387500Y626748D01*
X2387558Y625573D01*
X2388017Y623266D01*
X2388917Y621093D01*
X2390223Y619138D01*
X2391886Y617475D01*
X2393841Y616169D01*
X2396014Y615269D01*
X2398320Y614810D01*
X2399496Y614752D01*
X2400672Y614810D01*
X2402979Y615269D01*
X2405151Y616169D01*
X2407107Y617475D01*
X2408770Y619138D01*
X2410076Y621093D01*
X2410976Y623266D01*
X2411435Y625573D01*
X2411493Y626748D01*
X2411435Y627924D01*
X2410976Y630231D01*
X2410076Y632403D01*
X2408770Y634359D01*
X2407107Y636021D01*
X2405151Y637328D01*
X2402979Y638228D01*
X2400672Y638687D01*
X2399496Y638745D01*
D02*
G37*
G36*
X2399496Y331744D02*
X2399496Y331744D01*
X2398320Y331687D01*
X2396014Y331228D01*
X2393841Y330328D01*
X2391886Y329021D01*
X2390223Y327359D01*
X2388917Y325403D01*
X2388017Y323231D01*
X2387558Y320924D01*
X2387500Y319748D01*
X2387558Y318573D01*
X2388016Y316267D01*
X2388916Y314095D01*
X2390222Y312140D01*
X2391884Y310477D01*
X2393838Y309170D01*
X2396010Y308270D01*
X2398316Y307810D01*
X2399491Y307752D01*
X2399491D01*
X2399496Y307747D01*
X2399501Y307752D01*
X2399501D01*
X2400677Y307810D01*
X2402982Y308270D01*
X2405154Y309170D01*
X2407109Y310477D01*
X2408771Y312140D01*
X2410077Y314095D01*
X2410976Y316267D01*
X2411435Y318573D01*
X2411492Y319748D01*
X2411492Y319748D01*
X2411435Y320924D01*
X2410976Y323231D01*
X2410076Y325403D01*
X2408770Y327359D01*
X2407107Y329021D01*
X2405151Y330328D01*
X2402979Y331228D01*
X2400672Y331687D01*
X2399496Y331744D01*
X2399496Y331744D01*
D02*
G37*
G36*
X2144496Y638745D02*
X2143320Y638687D01*
X2141014Y638228D01*
X2138841Y637328D01*
X2136886Y636021D01*
X2135223Y634359D01*
X2133917Y632403D01*
X2133017Y630231D01*
X2132558Y627924D01*
X2132500Y626748D01*
X2132558Y625572D01*
X2133017Y623266D01*
X2133917Y621093D01*
X2135223Y619138D01*
X2136886Y617475D01*
X2138841Y616169D01*
X2141014Y615269D01*
X2143320Y614810D01*
X2144496Y614752D01*
X2145672Y614810D01*
X2147979Y615269D01*
X2150151Y616169D01*
X2152107Y617475D01*
X2153770Y619138D01*
X2155076Y621093D01*
X2155976Y623266D01*
X2156435Y625572D01*
X2156492Y626748D01*
X2156435Y627924D01*
X2155976Y630231D01*
X2155076Y632403D01*
X2153770Y634359D01*
X2152107Y636021D01*
X2150151Y637328D01*
X2147979Y638228D01*
X2145672Y638687D01*
X2144496Y638745D01*
D02*
G37*
G36*
X2144496Y331744D02*
X2144496Y331744D01*
X2143320Y331687D01*
X2141014Y331228D01*
X2138841Y330328D01*
X2136886Y329021D01*
X2135223Y327359D01*
X2133917Y325403D01*
X2133017Y323231D01*
X2132558Y320924D01*
X2132500Y319748D01*
X2132558Y318573D01*
X2133016Y316267D01*
X2133916Y314095D01*
X2135222Y312140D01*
X2136884Y310477D01*
X2138838Y309170D01*
X2141010Y308270D01*
X2143316Y307810D01*
X2144491Y307752D01*
X2144491D01*
X2144496Y307747D01*
X2144501Y307752D01*
X2144501D01*
X2145677Y307810D01*
X2147982Y308270D01*
X2150154Y309170D01*
X2152109Y310477D01*
X2153771Y312140D01*
X2155077Y314095D01*
X2155976Y316267D01*
X2156435Y318573D01*
X2156492Y319748D01*
X2156492Y319748D01*
X2156435Y320924D01*
X2155976Y323231D01*
X2155076Y325403D01*
X2153770Y327359D01*
X2152107Y329021D01*
X2150151Y330328D01*
X2147979Y331228D01*
X2145672Y331687D01*
X2144496Y331744D01*
X2144496Y331744D01*
D02*
G37*
G36*
X1890000Y638744D02*
X1888824Y638687D01*
X1886518Y638228D01*
X1884345Y637328D01*
X1882390Y636021D01*
X1880727Y634358D01*
X1879420Y632403D01*
X1878521Y630230D01*
X1878062Y627924D01*
X1878004Y626748D01*
X1878062Y625572D01*
X1878521Y623266D01*
X1879420Y621093D01*
X1880727Y619138D01*
X1882390Y617475D01*
X1884345Y616169D01*
X1886518Y615269D01*
X1888824Y614810D01*
X1890000Y614752D01*
X1891176Y614810D01*
X1893482Y615269D01*
X1895655Y616169D01*
X1897610Y617475D01*
X1899273Y619138D01*
X1900580Y621093D01*
X1901480Y623266D01*
X1901938Y625572D01*
X1901996Y626748D01*
X1901938Y627924D01*
X1901480Y630230D01*
X1900580Y632403D01*
X1899273Y634358D01*
X1897610Y636021D01*
X1895655Y637328D01*
X1893482Y638228D01*
X1891176Y638687D01*
X1890000Y638744D01*
D02*
G37*
G36*
X1890000Y331744D02*
X1890000Y331744D01*
X1888824Y331687D01*
X1886518Y331228D01*
X1884345Y330328D01*
X1882390Y329021D01*
X1880727Y327359D01*
X1879420Y325403D01*
X1878520Y323231D01*
X1878062Y320924D01*
X1878004Y319748D01*
X1878062Y318573D01*
X1878520Y316267D01*
X1879420Y314095D01*
X1880726Y312140D01*
X1882388Y310477D01*
X1884342Y309170D01*
X1886514Y308270D01*
X1888820Y307810D01*
X1889995Y307752D01*
X1889995D01*
X1890000Y307747D01*
X1890005Y307752D01*
X1890005D01*
X1891181Y307810D01*
X1893486Y308270D01*
X1895658Y309170D01*
X1897613Y310477D01*
X1899275Y312140D01*
X1900581Y314095D01*
X1901480Y316267D01*
X1901939Y318573D01*
X1901996Y319748D01*
X1901996Y319748D01*
X1901938Y320924D01*
X1901480Y323231D01*
X1900580Y325403D01*
X1899273Y327359D01*
X1897610Y329021D01*
X1895655Y330328D01*
X1893482Y331228D01*
X1891176Y331687D01*
X1890000Y331744D01*
X1890000Y331744D01*
D02*
G37*
G36*
X1635000Y638744D02*
X1633824Y638687D01*
X1631518Y638228D01*
X1629345Y637328D01*
X1627390Y636021D01*
X1625727Y634358D01*
X1624420Y632403D01*
X1623521Y630230D01*
X1623062Y627924D01*
X1623004Y626748D01*
X1623062Y625572D01*
X1623521Y623266D01*
X1624420Y621093D01*
X1625727Y619138D01*
X1627390Y617475D01*
X1629345Y616169D01*
X1631518Y615269D01*
X1633824Y614810D01*
X1635000Y614752D01*
X1636176Y614810D01*
X1638482Y615269D01*
X1640655Y616169D01*
X1642610Y617475D01*
X1644273Y619138D01*
X1645580Y621093D01*
X1646480Y623266D01*
X1646938Y625572D01*
X1646996Y626748D01*
X1646938Y627924D01*
X1646480Y630230D01*
X1645580Y632403D01*
X1644273Y634358D01*
X1642610Y636021D01*
X1640655Y637328D01*
X1638482Y638228D01*
X1636176Y638687D01*
X1635000Y638744D01*
D02*
G37*
G36*
X1635000Y331744D02*
X1635000Y331744D01*
X1633824Y331687D01*
X1631518Y331228D01*
X1629345Y330328D01*
X1627390Y329021D01*
X1625727Y327359D01*
X1624420Y325403D01*
X1623520Y323231D01*
X1623062Y320924D01*
X1623004Y319748D01*
X1623062Y318573D01*
X1623520Y316267D01*
X1624420Y314095D01*
X1625726Y312140D01*
X1627388Y310477D01*
X1629342Y309170D01*
X1631514Y308270D01*
X1633820Y307810D01*
X1634995Y307752D01*
X1634995D01*
X1635000Y307747D01*
X1635005Y307752D01*
X1635005D01*
X1636181Y307810D01*
X1638486Y308270D01*
X1640658Y309170D01*
X1642613Y310477D01*
X1644275Y312140D01*
X1645580Y314095D01*
X1646480Y316267D01*
X1646938Y318573D01*
X1646996Y319748D01*
X1646996Y319748D01*
X1646938Y320924D01*
X1646480Y323231D01*
X1645580Y325403D01*
X1644273Y327359D01*
X1642610Y329021D01*
X1640655Y330328D01*
X1638482Y331228D01*
X1636176Y331687D01*
X1635000Y331744D01*
X1635000Y331744D01*
D02*
G37*
G36*
X615781Y953591D02*
X615714D01*
X615648Y953525D01*
X615448Y953458D01*
X615114Y953391D01*
X614781Y953258D01*
X614314Y953125D01*
X613781Y952925D01*
X613181Y952792D01*
X612515Y952592D01*
X611782Y952392D01*
X610915Y952192D01*
X609982Y951992D01*
X608983Y951792D01*
X607916Y951592D01*
X606783Y951392D01*
X605517Y951192D01*
X605317D01*
X605183Y951125D01*
X604917D01*
X604184Y950992D01*
X603384Y950859D01*
X602518Y950659D01*
X601584Y950459D01*
X600718Y950192D01*
X600051Y949926D01*
X599985D01*
X599785Y949792D01*
X599518Y949659D01*
X599118Y949459D01*
X598319Y948793D01*
X597919Y948393D01*
X597585Y947926D01*
X597519Y947859D01*
X597452Y947726D01*
X597319Y947393D01*
X597186Y947060D01*
X596986Y946593D01*
X596852Y946127D01*
X596786Y945527D01*
X596719Y944927D01*
Y944794D01*
Y944527D01*
X596852Y944061D01*
X596986Y943461D01*
X597186Y942861D01*
X597519Y942128D01*
X597985Y941461D01*
X598585Y940795D01*
X598652Y940728D01*
X598918Y940528D01*
X599385Y940262D01*
X599985Y939995D01*
X600785Y939662D01*
X601784Y939395D01*
X602917Y939195D01*
X604184Y939128D01*
X604784D01*
X605450Y939195D01*
X606316Y939328D01*
X607316Y939528D01*
X608383Y939795D01*
X609516Y940128D01*
X610582Y940661D01*
X610649D01*
X610715Y940728D01*
X611049Y940928D01*
X611582Y941328D01*
X612182Y941794D01*
X612848Y942394D01*
X613581Y943194D01*
X614248Y943994D01*
X614781Y944994D01*
X614848Y945127D01*
X614914Y945394D01*
X615114Y945860D01*
X615314Y946593D01*
X615448Y947460D01*
X615648Y948526D01*
X615714Y949792D01*
X615781Y951259D01*
Y953591D01*
D02*
G37*
G36*
X38928Y980185D02*
X26798D01*
Y964722D01*
X39395D01*
X40328Y964789D01*
X41395Y964855D01*
X42461Y964922D01*
X43461Y965055D01*
X44261Y965255D01*
X44394Y965322D01*
X44660Y965388D01*
X45127Y965588D01*
X45727Y965855D01*
X46393Y966255D01*
X46993Y966655D01*
X47660Y967188D01*
X48193Y967788D01*
X48259Y967854D01*
X48393Y968121D01*
X48593Y968521D01*
X48859Y969054D01*
X49126Y969654D01*
X49326Y970454D01*
X49459Y971320D01*
X49526Y972320D01*
Y972453D01*
Y972720D01*
X49459Y973253D01*
X49392Y973853D01*
X49193Y974519D01*
X48993Y975253D01*
X48659Y976052D01*
X48259Y976786D01*
X48193Y976852D01*
X48060Y977119D01*
X47793Y977452D01*
X47393Y977852D01*
X46860Y978318D01*
X46327Y978718D01*
X45594Y979118D01*
X44794Y979452D01*
X44660Y979518D01*
X44327Y979585D01*
X43794Y979718D01*
X42994Y979851D01*
X42461Y979918D01*
X41928Y979985D01*
X41261D01*
X40528Y980051D01*
X39795Y980118D01*
X38928Y980185D01*
D02*
G37*
G36*
X38595Y958657D02*
X26798D01*
Y941061D01*
X41328D01*
X42861Y941128D01*
X43527Y941195D01*
X44127Y941261D01*
X44261D01*
X44527Y941328D01*
X44927Y941461D01*
X45460Y941594D01*
X46127Y941794D01*
X46726Y941994D01*
X47393Y942328D01*
X47993Y942661D01*
X48060Y942728D01*
X48259Y942861D01*
X48526Y943061D01*
X48926Y943394D01*
X49326Y943794D01*
X49792Y944327D01*
X50192Y944860D01*
X50592Y945527D01*
X50659Y945593D01*
X50792Y945860D01*
X50925Y946260D01*
X51125Y946793D01*
X51325Y947393D01*
X51525Y948126D01*
X51592Y948993D01*
X51659Y949859D01*
Y949992D01*
Y950326D01*
X51592Y950859D01*
X51459Y951525D01*
X51259Y952325D01*
X50992Y953125D01*
X50659Y953991D01*
X50126Y954791D01*
X50059Y954858D01*
X49859Y955124D01*
X49526Y955524D01*
X49059Y955991D01*
X48459Y956457D01*
X47793Y956991D01*
X46993Y957390D01*
X46060Y957790D01*
X45927Y957857D01*
X45594Y957924D01*
X44994Y958057D01*
X44127Y958257D01*
X43127Y958390D01*
X41794Y958523D01*
X40328Y958590D01*
X38595Y958657D01*
D02*
G37*
G36*
X682897Y967721D02*
X682497D01*
X682164Y967654D01*
X681831D01*
X681364Y967588D01*
X680364Y967388D01*
X679231Y966988D01*
X677965Y966455D01*
X676765Y965788D01*
X676165Y965322D01*
X675565Y964789D01*
X675432Y964655D01*
X675099Y964255D01*
X674632Y963655D01*
X674099Y962789D01*
X673499Y961656D01*
X672966Y960323D01*
X672566Y958857D01*
X672366Y957124D01*
X693094D01*
Y957190D01*
Y957324D01*
X693028Y957590D01*
X692961Y957857D01*
Y958257D01*
X692828Y958723D01*
X692628Y959723D01*
X692294Y960856D01*
X691895Y961989D01*
X691361Y963122D01*
X690695Y964055D01*
Y964122D01*
X690562Y964189D01*
X690362Y964389D01*
X690162Y964655D01*
X689495Y965188D01*
X688629Y965922D01*
X687496Y966588D01*
X686163Y967121D01*
X684630Y967588D01*
X683763Y967654D01*
X682897Y967721D01*
D02*
G37*
G36*
X484015D02*
X483615D01*
X483281Y967654D01*
X482948D01*
X482482Y967588D01*
X481482Y967388D01*
X480349Y966988D01*
X479082Y966455D01*
X477883Y965788D01*
X477283Y965322D01*
X476683Y964789D01*
X476550Y964655D01*
X476217Y964255D01*
X475750Y963655D01*
X475217Y962789D01*
X474617Y961656D01*
X474084Y960323D01*
X473684Y958857D01*
X473484Y957124D01*
X494212D01*
Y957190D01*
Y957324D01*
X494145Y957590D01*
X494079Y957857D01*
Y958257D01*
X493945Y958723D01*
X493745Y959723D01*
X493412Y960856D01*
X493012Y961989D01*
X492479Y963122D01*
X491813Y964055D01*
Y964122D01*
X491679Y964189D01*
X491479Y964389D01*
X491279Y964655D01*
X490613Y965188D01*
X489746Y965922D01*
X488613Y966588D01*
X487280Y967121D01*
X485747Y967588D01*
X484881Y967654D01*
X484015Y967721D01*
D02*
G37*
G36*
X404435D02*
X404035D01*
X403702Y967654D01*
X403368D01*
X402902Y967588D01*
X401902Y967388D01*
X400769Y966988D01*
X399503Y966455D01*
X398303Y965788D01*
X397703Y965322D01*
X397103Y964789D01*
X396970Y964655D01*
X396637Y964255D01*
X396170Y963655D01*
X395637Y962789D01*
X395037Y961656D01*
X394504Y960323D01*
X394104Y958857D01*
X393904Y957124D01*
X414632D01*
Y957190D01*
Y957324D01*
X414566Y957590D01*
X414499Y957857D01*
Y958257D01*
X414366Y958723D01*
X414166Y959723D01*
X413833Y960856D01*
X413433Y961989D01*
X412899Y963122D01*
X412233Y964055D01*
Y964122D01*
X412100Y964189D01*
X411900Y964389D01*
X411700Y964655D01*
X411033Y965188D01*
X410167Y965922D01*
X409034Y966588D01*
X407701Y967121D01*
X406168Y967588D01*
X405301Y967654D01*
X404435Y967721D01*
D02*
G37*
G36*
X161697D02*
X161231D01*
X160897Y967654D01*
X160497Y967588D01*
X160031Y967521D01*
X158964Y967255D01*
X157765Y966855D01*
X156432Y966255D01*
X155765Y965855D01*
X155165Y965388D01*
X154499Y964789D01*
X153899Y964189D01*
Y964122D01*
X153766Y964055D01*
X153632Y963789D01*
X153433Y963522D01*
X153166Y963122D01*
X152899Y962722D01*
X152633Y962189D01*
X152366Y961523D01*
X152100Y960856D01*
X151833Y960056D01*
X151566Y959190D01*
X151300Y958190D01*
X151100Y957190D01*
X150967Y956057D01*
X150900Y954791D01*
X150833Y953525D01*
Y953458D01*
Y953192D01*
Y952858D01*
X150900Y952392D01*
Y951792D01*
X150967Y951125D01*
X151100Y950326D01*
X151233Y949526D01*
X151566Y947859D01*
X152100Y946060D01*
X152899Y944394D01*
X153366Y943661D01*
X153899Y942927D01*
X153966Y942861D01*
X154032Y942794D01*
X154232Y942594D01*
X154432Y942394D01*
X155165Y941794D01*
X156032Y941195D01*
X157165Y940528D01*
X158498Y939928D01*
X160031Y939528D01*
X160831Y939462D01*
X161697Y939395D01*
X162164D01*
X162497Y939462D01*
X162897Y939528D01*
X163363Y939595D01*
X164430Y939862D01*
X165629Y940262D01*
X166962Y940861D01*
X167629Y941261D01*
X168295Y941794D01*
X168895Y942328D01*
X169495Y942927D01*
X169562Y942994D01*
X169628Y943127D01*
X169762Y943327D01*
X169962Y943594D01*
X170228Y943994D01*
X170495Y944460D01*
X170761Y944994D01*
X171095Y945593D01*
X171361Y946327D01*
X171628Y947126D01*
X171894Y947993D01*
X172161Y948993D01*
X172361Y950059D01*
X172494Y951192D01*
X172628Y952392D01*
Y953725D01*
Y953791D01*
Y954058D01*
Y954391D01*
X172561Y954858D01*
Y955458D01*
X172494Y956057D01*
X172361Y956791D01*
X172228Y957590D01*
X171894Y959257D01*
X171295Y960990D01*
X170562Y962656D01*
X170028Y963456D01*
X169495Y964122D01*
X169428Y964189D01*
X169362Y964255D01*
X169162Y964455D01*
X168962Y964655D01*
X168229Y965255D01*
X167362Y965922D01*
X166229Y966588D01*
X164896Y967188D01*
X163363Y967588D01*
X162563Y967654D01*
X161697Y967721D01*
D02*
G37*
G36*
X82184D02*
X81718D01*
X81384Y967654D01*
X80984Y967588D01*
X80518Y967521D01*
X79451Y967255D01*
X78252Y966855D01*
X76919Y966255D01*
X76252Y965855D01*
X75652Y965388D01*
X74986Y964789D01*
X74386Y964189D01*
Y964122D01*
X74253Y964055D01*
X74120Y963789D01*
X73920Y963522D01*
X73653Y963122D01*
X73386Y962722D01*
X73120Y962189D01*
X72853Y961523D01*
X72586Y960856D01*
X72320Y960056D01*
X72053Y959190D01*
X71787Y958190D01*
X71587Y957190D01*
X71453Y956057D01*
X71387Y954791D01*
X71320Y953525D01*
Y953458D01*
Y953192D01*
Y952858D01*
X71387Y952392D01*
Y951792D01*
X71453Y951125D01*
X71587Y950326D01*
X71720Y949526D01*
X72053Y947859D01*
X72586Y946060D01*
X73386Y944394D01*
X73853Y943661D01*
X74386Y942927D01*
X74453Y942861D01*
X74519Y942794D01*
X74719Y942594D01*
X74919Y942394D01*
X75652Y941794D01*
X76519Y941195D01*
X77652Y940528D01*
X78985Y939928D01*
X80518Y939528D01*
X81318Y939462D01*
X82184Y939395D01*
X82651D01*
X82984Y939462D01*
X83384Y939528D01*
X83850Y939595D01*
X84917Y939862D01*
X86116Y940262D01*
X87449Y940861D01*
X88116Y941261D01*
X88782Y941794D01*
X89382Y942328D01*
X89982Y942927D01*
X90049Y942994D01*
X90115Y943127D01*
X90249Y943327D01*
X90449Y943594D01*
X90715Y943994D01*
X90982Y944460D01*
X91248Y944994D01*
X91582Y945593D01*
X91848Y946327D01*
X92115Y947126D01*
X92381Y947993D01*
X92648Y948993D01*
X92848Y950059D01*
X92981Y951192D01*
X93115Y952392D01*
Y953725D01*
Y953791D01*
Y954058D01*
Y954391D01*
X93048Y954858D01*
Y955458D01*
X92981Y956057D01*
X92848Y956791D01*
X92715Y957590D01*
X92381Y959257D01*
X91782Y960990D01*
X91048Y962656D01*
X90515Y963456D01*
X89982Y964122D01*
X89915Y964189D01*
X89849Y964255D01*
X89649Y964455D01*
X89449Y964655D01*
X88716Y965255D01*
X87849Y965922D01*
X86716Y966588D01*
X85383Y967188D01*
X83850Y967588D01*
X83050Y967654D01*
X82184Y967721D01*
D02*
G37*
%LPD*%
D30*
X360000Y297000D02*
G03*
X379205Y304955I0J27160D01*
G01*
X407811Y333560D02*
X407811Y333560D01*
D02*
G03*
X439750Y410669I-77109J77109D01*
G01*
X280250D02*
G03*
X312190Y333560I109048J0D01*
G01*
X347500Y320000D02*
G03*
X360000Y307500I12500J0D01*
G01*
X360000Y332500D02*
G03*
X347500Y320000I0J-12500D01*
G01*
Y627000D02*
G03*
X360000Y614500I12500J0D01*
G01*
Y639500D02*
G03*
X347500Y627000I0J-12500D01*
G01*
X312190Y333560D02*
X312189Y333560D01*
X340795Y304955D02*
G03*
X360000Y297000I19205J19205D01*
G01*
X372500Y627000D02*
G03*
X372500Y627000I-12500J0D01*
G01*
Y320000D02*
G03*
X372500Y320000I-12500J0D01*
G01*
X379205Y304955D02*
X407811Y333560D01*
X415250Y351521D02*
Y351521D01*
X372500Y320000D02*
Y320000D01*
X439750Y410669D02*
Y690000D01*
X280250D02*
X360000D01*
X280250Y410669D02*
Y690000D01*
X347500Y320000D02*
Y320000D01*
X360000Y332500D02*
X360000D01*
Y639500D02*
Y690000D01*
Y332500D02*
Y614500D01*
Y297000D02*
Y307500D01*
X304750Y351521D02*
Y351521D01*
X360000Y297000D02*
X360729D01*
X312190Y333560D02*
X340795Y304955D01*
M02*
