G04*
G04 #@! TF.GenerationSoftware,Altium Limited,Altium Designer,25.0.2 (28)*
G04*
G04 Layer_Color=255*
%FSLAX44Y44*%
%MOMM*%
G71*
G04*
G04 #@! TF.SameCoordinates,F5B53509-386E-4AF8-9846-D30C52800222*
G04*
G04*
G04 #@! TF.FilePolarity,Positive*
G04*
G01*
G75*
%ADD29R,0.3500X3.4000*%
D29*
X2368500Y96000D02*
D03*
X2408500D02*
D03*
X2403500D02*
D03*
X2398500D02*
D03*
X2393500D02*
D03*
X2388500D02*
D03*
X2383500D02*
D03*
X2378500D02*
D03*
X2373500D02*
D03*
X2423500D02*
D03*
X2413500D02*
D03*
X2418500D02*
D03*
X2428500D02*
D03*
X2443500D02*
D03*
X2433500D02*
D03*
X2453500D02*
D03*
X2448500D02*
D03*
X2438500D02*
D03*
X583500D02*
D03*
X623500D02*
D03*
X618500D02*
D03*
X613500D02*
D03*
X608500D02*
D03*
X603500D02*
D03*
X598500D02*
D03*
X593500D02*
D03*
X588500D02*
D03*
X638500D02*
D03*
X628500D02*
D03*
X633500D02*
D03*
X643500D02*
D03*
X658500D02*
D03*
X648500D02*
D03*
X668500D02*
D03*
X663500D02*
D03*
X653500D02*
D03*
X1348500D02*
D03*
X1388500D02*
D03*
X1383500D02*
D03*
X1378500D02*
D03*
X1373500D02*
D03*
X1368500D02*
D03*
X1363500D02*
D03*
X1358500D02*
D03*
X1353500D02*
D03*
X1403500D02*
D03*
X1393500D02*
D03*
X1398500D02*
D03*
X1408500D02*
D03*
X1423500D02*
D03*
X1413500D02*
D03*
X1433500D02*
D03*
X1428500D02*
D03*
X1418500D02*
D03*
X1858500D02*
D03*
X1898500D02*
D03*
X1893500D02*
D03*
X1888500D02*
D03*
X1883500D02*
D03*
X1878500D02*
D03*
X1873500D02*
D03*
X1868500D02*
D03*
X1863500D02*
D03*
X1913500D02*
D03*
X1903500D02*
D03*
X1908500D02*
D03*
X1918500D02*
D03*
X1933500D02*
D03*
X1923500D02*
D03*
X1943500D02*
D03*
X1938500D02*
D03*
X1928500D02*
D03*
X1603500D02*
D03*
X1643500D02*
D03*
X1638500D02*
D03*
X1633500D02*
D03*
X1628500D02*
D03*
X1623500D02*
D03*
X1618500D02*
D03*
X1613500D02*
D03*
X1608500D02*
D03*
X1658500D02*
D03*
X1648500D02*
D03*
X1653500D02*
D03*
X1663500D02*
D03*
X1678500D02*
D03*
X1668500D02*
D03*
X1688500D02*
D03*
X1683500D02*
D03*
X1673500D02*
D03*
X838500D02*
D03*
X878500D02*
D03*
X873500D02*
D03*
X868500D02*
D03*
X863500D02*
D03*
X858500D02*
D03*
X853500D02*
D03*
X848500D02*
D03*
X843500D02*
D03*
X893500D02*
D03*
X883500D02*
D03*
X888500D02*
D03*
X898500D02*
D03*
X913500D02*
D03*
X903500D02*
D03*
X923500D02*
D03*
X918500D02*
D03*
X908500D02*
D03*
X328500D02*
D03*
X368500D02*
D03*
X363500D02*
D03*
X358500D02*
D03*
X353500D02*
D03*
X348500D02*
D03*
X343500D02*
D03*
X338500D02*
D03*
X333500D02*
D03*
X383500D02*
D03*
X373500D02*
D03*
X378500D02*
D03*
X388500D02*
D03*
X403500D02*
D03*
X393500D02*
D03*
X413500D02*
D03*
X408500D02*
D03*
X398500D02*
D03*
X1093500D02*
D03*
X1133500D02*
D03*
X1128500D02*
D03*
X1123500D02*
D03*
X1118500D02*
D03*
X1113500D02*
D03*
X1108500D02*
D03*
X1103500D02*
D03*
X1098500D02*
D03*
X1148500D02*
D03*
X1138500D02*
D03*
X1143500D02*
D03*
X1153500D02*
D03*
X1168500D02*
D03*
X1158500D02*
D03*
X1178500D02*
D03*
X1173500D02*
D03*
X1163500D02*
D03*
X2113500D02*
D03*
X2153500D02*
D03*
X2148500D02*
D03*
X2143500D02*
D03*
X2138500D02*
D03*
X2133500D02*
D03*
X2128500D02*
D03*
X2123500D02*
D03*
X2118500D02*
D03*
X2168500D02*
D03*
X2158500D02*
D03*
X2163500D02*
D03*
X2173500D02*
D03*
X2188500D02*
D03*
X2178500D02*
D03*
X2198500D02*
D03*
X2193500D02*
D03*
X2183500D02*
D03*
M02*
