G04*
G04 #@! TF.GenerationSoftware,Altium Limited,Altium Designer,25.0.2 (28)*
G04*
G04 Layer_Color=8388736*
%FSLAX44Y44*%
%MOMM*%
G71*
G04*
G04 #@! TF.SameCoordinates,F5B53509-386E-4AF8-9846-D30C52800222*
G04*
G04*
G04 #@! TF.FilePolarity,Negative*
G04*
G01*
G75*
G04:AMPARAMS|DCode=11|XSize=2.5mm|YSize=1mm|CornerRadius=0.25mm|HoleSize=0mm|Usage=FLASHONLY|Rotation=0.000|XOffset=0mm|YOffset=0mm|HoleType=Round|Shape=RoundedRectangle|*
%AMROUNDEDRECTD11*
21,1,2.5000,0.5000,0,0,0.0*
21,1,2.0000,1.0000,0,0,0.0*
1,1,0.5000,1.0000,-0.2500*
1,1,0.5000,-1.0000,-0.2500*
1,1,0.5000,-1.0000,0.2500*
1,1,0.5000,1.0000,0.2500*
%
%ADD11ROUNDEDRECTD11*%
G04:AMPARAMS|DCode=12|XSize=1.5mm|YSize=2mm|CornerRadius=0.375mm|HoleSize=0mm|Usage=FLASHONLY|Rotation=180.000|XOffset=0mm|YOffset=0mm|HoleType=Round|Shape=RoundedRectangle|*
%AMROUNDEDRECTD12*
21,1,1.5000,1.2500,0,0,180.0*
21,1,0.7500,2.0000,0,0,180.0*
1,1,0.7500,-0.3750,0.6250*
1,1,0.7500,0.3750,0.6250*
1,1,0.7500,0.3750,-0.6250*
1,1,0.7500,-0.3750,-0.6250*
%
%ADD12ROUNDEDRECTD12*%
G36*
X1283000Y883500D02*
Y882903D01*
X1282543Y881801D01*
X1281699Y880957D01*
X1280597Y880500D01*
X1280000D01*
D01*
X1258000D01*
Y974500D01*
X1280000D01*
X1280597D01*
X1281699Y974043D01*
X1282543Y973199D01*
X1283000Y972097D01*
Y971500D01*
D01*
Y883500D01*
D02*
G37*
G36*
X1301500Y828000D02*
X1303000Y828000D01*
X1303390Y827961D01*
X1304111Y827663D01*
X1304663Y827111D01*
X1304961Y826390D01*
X1305000Y826000D01*
X1305000D01*
Y814976D01*
X1455000D01*
X1455000Y826000D01*
X1455038Y826390D01*
X1455337Y827111D01*
X1455889Y827663D01*
X1456610Y827961D01*
X1457000Y828000D01*
Y828000D01*
X1458500Y828000D01*
X1458898D01*
X1459633Y828304D01*
X1460195Y828867D01*
X1460500Y829602D01*
Y830000D01*
X1460500D01*
Y835000D01*
X1456223Y837168D01*
X1456219Y837159D01*
X1455959Y837292D01*
X1455511Y837665D01*
X1455189Y838151D01*
X1455021Y838709D01*
X1455000Y839000D01*
Y839000D01*
X1455000Y847000D01*
Y847597D01*
X1454543Y848699D01*
X1453699Y849543D01*
X1452597Y850000D01*
X1452000D01*
X1452000Y850000D01*
X1308000Y850000D01*
X1307403D01*
X1306301Y849543D01*
X1305457Y848699D01*
X1305000Y847597D01*
X1305000Y847000D01*
Y847000D01*
X1305000Y839000D01*
X1304979Y838709D01*
X1304811Y838151D01*
X1304489Y837665D01*
X1304041Y837292D01*
X1303781Y837159D01*
X1303781D01*
X1303777Y837168D01*
X1299500Y835000D01*
X1299500Y830000D01*
Y829602D01*
X1299804Y828867D01*
X1300367Y828304D01*
X1301102Y828000D01*
X1301500D01*
Y828000D01*
D02*
G37*
G36*
X1477000Y971500D02*
Y972097D01*
X1477457Y973199D01*
X1478301Y974043D01*
X1479403Y974500D01*
X1480000D01*
D01*
X1502000D01*
Y880500D01*
X1480000D01*
X1479403D01*
X1478301Y880957D01*
X1477457Y881801D01*
X1477000Y882903D01*
Y883500D01*
D01*
Y971500D01*
D02*
G37*
G36*
X633976Y1136485D02*
X627711D01*
Y1143683D01*
X633976D01*
Y1136485D01*
D02*
G37*
G36*
X190490Y1144483D02*
X191156Y1144416D01*
X191956Y1144350D01*
X192822Y1144216D01*
X193755Y1144083D01*
X195755Y1143617D01*
X196821Y1143283D01*
X197954Y1142883D01*
X199021Y1142417D01*
X200087Y1141950D01*
X201154Y1141284D01*
X202153Y1140617D01*
X202220Y1140551D01*
X202353Y1140417D01*
X202687Y1140217D01*
X203020Y1139884D01*
X203420Y1139484D01*
X203953Y1139018D01*
X204486Y1138418D01*
X205086Y1137751D01*
X205686Y1137018D01*
X206286Y1136218D01*
X206886Y1135285D01*
X207485Y1134352D01*
X208085Y1133286D01*
X208618Y1132153D01*
X209152Y1130887D01*
X209552Y1129620D01*
X202887Y1128021D01*
Y1128087D01*
X202820Y1128287D01*
X202687Y1128554D01*
X202553Y1128954D01*
X202353Y1129420D01*
X202153Y1129953D01*
X201553Y1131153D01*
X200820Y1132486D01*
X199954Y1133819D01*
X198888Y1135085D01*
X198288Y1135619D01*
X197688Y1136152D01*
X197621D01*
X197554Y1136285D01*
X197355Y1136418D01*
X197088Y1136552D01*
X196755Y1136752D01*
X196355Y1136952D01*
X195355Y1137485D01*
X194089Y1137951D01*
X192623Y1138351D01*
X190956Y1138618D01*
X189090Y1138751D01*
X188490D01*
X188090Y1138684D01*
X187624D01*
X187024Y1138618D01*
X186357Y1138484D01*
X185624Y1138418D01*
X184091Y1138085D01*
X182425Y1137551D01*
X180759Y1136818D01*
X179959Y1136418D01*
X179159Y1135885D01*
X179093D01*
X178959Y1135752D01*
X178759Y1135619D01*
X178493Y1135352D01*
X177826Y1134752D01*
X177027Y1133886D01*
X176093Y1132819D01*
X175160Y1131486D01*
X174294Y1130020D01*
X173627Y1128287D01*
Y1128221D01*
X173561Y1128087D01*
X173494Y1127821D01*
X173361Y1127487D01*
X173227Y1127021D01*
X173094Y1126488D01*
X172961Y1125888D01*
X172827Y1125288D01*
X172561Y1123755D01*
X172294Y1122089D01*
X172094Y1120289D01*
X172028Y1118423D01*
Y1118356D01*
Y1118156D01*
Y1117823D01*
Y1117357D01*
X172094Y1116757D01*
X172161Y1116090D01*
Y1115357D01*
X172294Y1114557D01*
X172494Y1112758D01*
X172827Y1110892D01*
X173294Y1108892D01*
X173894Y1107026D01*
Y1106959D01*
X173961Y1106826D01*
X174094Y1106559D01*
X174294Y1106226D01*
X174494Y1105826D01*
X174694Y1105360D01*
X175360Y1104293D01*
X176227Y1103094D01*
X177226Y1101894D01*
X178426Y1100761D01*
X179826Y1099761D01*
X179892D01*
X180026Y1099628D01*
X180226Y1099561D01*
X180559Y1099361D01*
X180892Y1099228D01*
X181359Y1099028D01*
X182425Y1098561D01*
X183758Y1098095D01*
X185224Y1097762D01*
X186824Y1097495D01*
X188557Y1097362D01*
X189090D01*
X189490Y1097428D01*
X190023Y1097495D01*
X190556Y1097562D01*
X191223Y1097628D01*
X191889Y1097762D01*
X193422Y1098161D01*
X195022Y1098761D01*
X195888Y1099095D01*
X196688Y1099561D01*
X197488Y1100028D01*
X198221Y1100628D01*
X198288Y1100694D01*
X198421Y1100761D01*
X198621Y1100961D01*
X198888Y1101227D01*
X199154Y1101561D01*
X199554Y1102027D01*
X199954Y1102494D01*
X200354Y1103094D01*
X200820Y1103693D01*
X201287Y1104427D01*
X201687Y1105226D01*
X202153Y1106093D01*
X202553Y1107093D01*
X202953Y1108092D01*
X203286Y1109159D01*
X203620Y1110358D01*
X210418Y1108625D01*
Y1108559D01*
X210285Y1108292D01*
X210151Y1107826D01*
X210018Y1107226D01*
X209751Y1106559D01*
X209418Y1105760D01*
X209085Y1104893D01*
X208618Y1103893D01*
X208152Y1102894D01*
X207552Y1101827D01*
X206952Y1100827D01*
X206219Y1099761D01*
X205486Y1098695D01*
X204619Y1097695D01*
X203686Y1096762D01*
X202687Y1095895D01*
X202620Y1095829D01*
X202420Y1095695D01*
X202153Y1095496D01*
X201687Y1095229D01*
X201154Y1094896D01*
X200487Y1094496D01*
X199754Y1094163D01*
X198954Y1093763D01*
X197954Y1093296D01*
X196955Y1092963D01*
X195822Y1092563D01*
X194622Y1092230D01*
X193356Y1091963D01*
X192023Y1091763D01*
X190623Y1091630D01*
X189157Y1091563D01*
X188357D01*
X187757Y1091630D01*
X187091Y1091696D01*
X186224Y1091763D01*
X185358Y1091830D01*
X184358Y1091963D01*
X182225Y1092363D01*
X179959Y1092963D01*
X178826Y1093363D01*
X177693Y1093829D01*
X176627Y1094296D01*
X175627Y1094896D01*
X175560Y1094962D01*
X175427Y1095029D01*
X175160Y1095229D01*
X174760Y1095562D01*
X174361Y1095895D01*
X173827Y1096295D01*
X173294Y1096829D01*
X172694Y1097428D01*
X172028Y1098028D01*
X171428Y1098761D01*
X170761Y1099561D01*
X170095Y1100494D01*
X169428Y1101427D01*
X168829Y1102427D01*
X168229Y1103560D01*
X167696Y1104693D01*
Y1104760D01*
X167562Y1104960D01*
X167429Y1105360D01*
X167296Y1105826D01*
X167096Y1106426D01*
X166829Y1107093D01*
X166629Y1107892D01*
X166362Y1108826D01*
X166096Y1109825D01*
X165896Y1110892D01*
X165629Y1112025D01*
X165429Y1113158D01*
X165163Y1115757D01*
X165030Y1118423D01*
Y1118490D01*
Y1118756D01*
Y1119223D01*
X165096Y1119756D01*
Y1120489D01*
X165163Y1121289D01*
X165296Y1122155D01*
X165429Y1123155D01*
X165563Y1124221D01*
X165763Y1125355D01*
X166296Y1127687D01*
X167029Y1130020D01*
X167496Y1131220D01*
X168029Y1132353D01*
X168095Y1132419D01*
X168162Y1132619D01*
X168362Y1132953D01*
X168629Y1133353D01*
X168895Y1133819D01*
X169295Y1134419D01*
X169762Y1135019D01*
X170295Y1135752D01*
X171495Y1137218D01*
X173027Y1138684D01*
X174760Y1140151D01*
X175760Y1140817D01*
X176760Y1141417D01*
X176826Y1141484D01*
X177027Y1141550D01*
X177360Y1141684D01*
X177760Y1141884D01*
X178293Y1142150D01*
X178893Y1142417D01*
X179626Y1142683D01*
X180426Y1143017D01*
X181359Y1143283D01*
X182292Y1143550D01*
X184425Y1144083D01*
X186757Y1144416D01*
X187957Y1144550D01*
X189956D01*
X190490Y1144483D01*
D02*
G37*
G36*
X525604Y1130287D02*
X526004D01*
X526537Y1130220D01*
X527670Y1130020D01*
X528936Y1129753D01*
X530403Y1129287D01*
X531802Y1128687D01*
X533202Y1127887D01*
X533269D01*
X533335Y1127754D01*
X533535Y1127621D01*
X533802Y1127421D01*
X534468Y1126888D01*
X535268Y1126088D01*
X536134Y1125088D01*
X537068Y1123955D01*
X537934Y1122555D01*
X538734Y1120956D01*
Y1120889D01*
X538801Y1120756D01*
X538934Y1120489D01*
X539000Y1120156D01*
X539200Y1119756D01*
X539334Y1119289D01*
X539467Y1118690D01*
X539667Y1118090D01*
X540000Y1116624D01*
X540333Y1115024D01*
X540533Y1113158D01*
X540600Y1111225D01*
Y1111158D01*
Y1110958D01*
Y1110692D01*
Y1110292D01*
X540533Y1109759D01*
X540467Y1109159D01*
X540400Y1108559D01*
X540333Y1107826D01*
X540067Y1106226D01*
X539734Y1104493D01*
X539200Y1102694D01*
X538534Y1100961D01*
Y1100894D01*
X538467Y1100761D01*
X538334Y1100561D01*
X538134Y1100228D01*
X537934Y1099828D01*
X537668Y1099428D01*
X537001Y1098428D01*
X536134Y1097295D01*
X535135Y1096095D01*
X533935Y1095029D01*
X532535Y1094029D01*
X532469D01*
X532336Y1093896D01*
X532136Y1093829D01*
X531869Y1093629D01*
X531536Y1093496D01*
X531069Y1093296D01*
X530069Y1092830D01*
X528870Y1092363D01*
X527470Y1092030D01*
X525937Y1091763D01*
X524338Y1091630D01*
X523804D01*
X523204Y1091696D01*
X522471Y1091830D01*
X521605Y1091963D01*
X520605Y1092163D01*
X519672Y1092496D01*
X518672Y1092963D01*
X518539Y1093029D01*
X518272Y1093230D01*
X517806Y1093496D01*
X517273Y1093896D01*
X516606Y1094362D01*
X515940Y1094962D01*
X515273Y1095562D01*
X514607Y1096295D01*
Y1078233D01*
X508342D01*
Y1129554D01*
X514073D01*
Y1124688D01*
X514140Y1124821D01*
X514407Y1125155D01*
X514873Y1125621D01*
X515406Y1126288D01*
X516073Y1126954D01*
X516806Y1127621D01*
X517673Y1128287D01*
X518606Y1128887D01*
X518739Y1128954D01*
X519072Y1129087D01*
X519605Y1129353D01*
X520339Y1129620D01*
X521272Y1129887D01*
X522338Y1130153D01*
X523538Y1130287D01*
X524804Y1130353D01*
X525271D01*
X525604Y1130287D01*
D02*
G37*
G36*
X123840D02*
X124240D01*
X124773Y1130220D01*
X125906Y1130020D01*
X127173Y1129753D01*
X128639Y1129287D01*
X130038Y1128687D01*
X131438Y1127887D01*
X131505D01*
X131571Y1127754D01*
X131771Y1127621D01*
X132038Y1127421D01*
X132704Y1126888D01*
X133504Y1126088D01*
X134371Y1125088D01*
X135304Y1123955D01*
X136170Y1122555D01*
X136970Y1120956D01*
Y1120889D01*
X137037Y1120756D01*
X137170Y1120489D01*
X137237Y1120156D01*
X137437Y1119756D01*
X137570Y1119289D01*
X137703Y1118690D01*
X137903Y1118090D01*
X138236Y1116624D01*
X138570Y1115024D01*
X138770Y1113158D01*
X138836Y1111225D01*
Y1111158D01*
Y1110958D01*
Y1110692D01*
Y1110292D01*
X138770Y1109759D01*
X138703Y1109159D01*
X138636Y1108559D01*
X138570Y1107826D01*
X138303Y1106226D01*
X137970Y1104493D01*
X137437Y1102694D01*
X136770Y1100961D01*
Y1100894D01*
X136704Y1100761D01*
X136570Y1100561D01*
X136370Y1100228D01*
X136170Y1099828D01*
X135904Y1099428D01*
X135237Y1098428D01*
X134371Y1097295D01*
X133371Y1096095D01*
X132171Y1095029D01*
X130772Y1094029D01*
X130705D01*
X130572Y1093896D01*
X130372Y1093829D01*
X130105Y1093629D01*
X129772Y1093496D01*
X129305Y1093296D01*
X128306Y1092830D01*
X127106Y1092363D01*
X125706Y1092030D01*
X124173Y1091763D01*
X122574Y1091630D01*
X122041D01*
X121441Y1091696D01*
X120708Y1091830D01*
X119841Y1091963D01*
X118841Y1092163D01*
X117908Y1092496D01*
X116909Y1092963D01*
X116775Y1093029D01*
X116509Y1093230D01*
X116042Y1093496D01*
X115509Y1093896D01*
X114842Y1094362D01*
X114176Y1094962D01*
X113509Y1095562D01*
X112843Y1096295D01*
Y1078233D01*
X106578D01*
Y1129554D01*
X112310D01*
Y1124688D01*
X112376Y1124821D01*
X112643Y1125155D01*
X113110Y1125621D01*
X113643Y1126288D01*
X114309Y1126954D01*
X115042Y1127621D01*
X115909Y1128287D01*
X116842Y1128887D01*
X116975Y1128954D01*
X117308Y1129087D01*
X117842Y1129353D01*
X118575Y1129620D01*
X119508Y1129887D01*
X120574Y1130153D01*
X121774Y1130287D01*
X123040Y1130353D01*
X123507D01*
X123840Y1130287D01*
D02*
G37*
G36*
X662236D02*
X663102Y1130220D01*
X664035Y1130020D01*
X665101Y1129820D01*
X666168Y1129487D01*
X667234Y1129087D01*
X667368Y1129020D01*
X667701Y1128887D01*
X668167Y1128620D01*
X668834Y1128221D01*
X669500Y1127821D01*
X670167Y1127287D01*
X670833Y1126621D01*
X671433Y1125954D01*
X671500Y1125888D01*
X671633Y1125621D01*
X671900Y1125221D01*
X672233Y1124621D01*
X672500Y1123955D01*
X672833Y1123155D01*
X673099Y1122289D01*
X673366Y1121289D01*
Y1121222D01*
X673433Y1120956D01*
X673499Y1120489D01*
X673566Y1119889D01*
X673633Y1119023D01*
X673699Y1118023D01*
X673766Y1116757D01*
Y1115224D01*
Y1092430D01*
X667501D01*
Y1114957D01*
Y1115024D01*
Y1115157D01*
Y1115291D01*
Y1115557D01*
X667434Y1116290D01*
Y1117090D01*
X667301Y1118023D01*
X667168Y1118956D01*
X666968Y1119823D01*
X666701Y1120622D01*
Y1120689D01*
X666568Y1120956D01*
X666368Y1121289D01*
X666101Y1121756D01*
X665768Y1122222D01*
X665301Y1122755D01*
X664768Y1123222D01*
X664102Y1123688D01*
X664035Y1123755D01*
X663768Y1123888D01*
X663369Y1124088D01*
X662835Y1124288D01*
X662236Y1124488D01*
X661502Y1124688D01*
X660636Y1124821D01*
X659770Y1124888D01*
X659370D01*
X659103Y1124821D01*
X658303Y1124755D01*
X657370Y1124555D01*
X656304Y1124288D01*
X655104Y1123822D01*
X653904Y1123155D01*
X652771Y1122289D01*
X652638Y1122155D01*
X652505Y1122022D01*
X652305Y1121756D01*
X652105Y1121489D01*
X651838Y1121089D01*
X651638Y1120689D01*
X651372Y1120156D01*
X651105Y1119489D01*
X650838Y1118823D01*
X650572Y1118023D01*
X650372Y1117157D01*
X650172Y1116157D01*
X650039Y1115090D01*
X649972Y1113891D01*
X649905Y1112625D01*
Y1092430D01*
X643640D01*
Y1129554D01*
X649305D01*
Y1124221D01*
X649372Y1124288D01*
X649505Y1124488D01*
X649705Y1124821D01*
X650039Y1125155D01*
X650505Y1125621D01*
X650972Y1126154D01*
X651572Y1126688D01*
X652305Y1127287D01*
X653105Y1127887D01*
X653971Y1128420D01*
X654904Y1128954D01*
X655971Y1129420D01*
X657104Y1129820D01*
X658303Y1130087D01*
X659636Y1130287D01*
X661036Y1130353D01*
X661636D01*
X662236Y1130287D01*
D02*
G37*
G36*
X606516D02*
X607383Y1130220D01*
X608316Y1130020D01*
X609382Y1129820D01*
X610449Y1129487D01*
X611515Y1129087D01*
X611648Y1129020D01*
X611982Y1128887D01*
X612448Y1128620D01*
X613115Y1128221D01*
X613781Y1127821D01*
X614448Y1127287D01*
X615114Y1126621D01*
X615714Y1125954D01*
X615781Y1125888D01*
X615914Y1125621D01*
X616181Y1125221D01*
X616514Y1124621D01*
X616781Y1123955D01*
X617114Y1123155D01*
X617380Y1122289D01*
X617647Y1121289D01*
Y1121222D01*
X617714Y1120956D01*
X617780Y1120489D01*
X617847Y1119889D01*
X617914Y1119023D01*
X617980Y1118023D01*
X618047Y1116757D01*
Y1115224D01*
Y1092430D01*
X611782D01*
Y1114957D01*
Y1115024D01*
Y1115157D01*
Y1115291D01*
Y1115557D01*
X611715Y1116290D01*
Y1117090D01*
X611582Y1118023D01*
X611449Y1118956D01*
X611249Y1119823D01*
X610982Y1120622D01*
Y1120689D01*
X610849Y1120956D01*
X610649Y1121289D01*
X610382Y1121756D01*
X610049Y1122222D01*
X609582Y1122755D01*
X609049Y1123222D01*
X608383Y1123688D01*
X608316Y1123755D01*
X608049Y1123888D01*
X607649Y1124088D01*
X607116Y1124288D01*
X606516Y1124488D01*
X605783Y1124688D01*
X604917Y1124821D01*
X604050Y1124888D01*
X603651D01*
X603384Y1124821D01*
X602584Y1124755D01*
X601651Y1124555D01*
X600585Y1124288D01*
X599385Y1123822D01*
X598185Y1123155D01*
X597052Y1122289D01*
X596919Y1122155D01*
X596786Y1122022D01*
X596586Y1121756D01*
X596386Y1121489D01*
X596119Y1121089D01*
X595919Y1120689D01*
X595653Y1120156D01*
X595386Y1119489D01*
X595119Y1118823D01*
X594853Y1118023D01*
X594653Y1117157D01*
X594453Y1116157D01*
X594320Y1115090D01*
X594253Y1113891D01*
X594186Y1112625D01*
Y1092430D01*
X587921D01*
Y1129554D01*
X593587D01*
Y1124221D01*
X593653Y1124288D01*
X593786Y1124488D01*
X593986Y1124821D01*
X594320Y1125155D01*
X594786Y1125621D01*
X595253Y1126154D01*
X595853Y1126688D01*
X596586Y1127287D01*
X597385Y1127887D01*
X598252Y1128420D01*
X599185Y1128954D01*
X600251Y1129420D01*
X601385Y1129820D01*
X602584Y1130087D01*
X603917Y1130287D01*
X605317Y1130353D01*
X605917D01*
X606516Y1130287D01*
D02*
G37*
G36*
X348116Y1130220D02*
X348916Y1130087D01*
X349916Y1129820D01*
X351049Y1129487D01*
X352182Y1128954D01*
X353448Y1128287D01*
X351249Y1122489D01*
X351115Y1122555D01*
X350849Y1122689D01*
X350382Y1122888D01*
X349782Y1123155D01*
X349116Y1123422D01*
X348316Y1123622D01*
X347449Y1123755D01*
X346583Y1123822D01*
X346250D01*
X345850Y1123755D01*
X345317Y1123688D01*
X344784Y1123488D01*
X344117Y1123288D01*
X343517Y1122955D01*
X342851Y1122555D01*
X342784Y1122489D01*
X342584Y1122355D01*
X342318Y1122022D01*
X341984Y1121622D01*
X341584Y1121156D01*
X341184Y1120556D01*
X340851Y1119889D01*
X340518Y1119090D01*
Y1119023D01*
X340451Y1118956D01*
Y1118756D01*
X340385Y1118490D01*
X340185Y1117823D01*
X340051Y1116957D01*
X339851Y1115824D01*
X339651Y1114624D01*
X339585Y1113224D01*
X339518Y1111758D01*
Y1092430D01*
X333253D01*
Y1129554D01*
X338918D01*
Y1123888D01*
X338985Y1124022D01*
X339118Y1124221D01*
X339252Y1124488D01*
X339718Y1125155D01*
X340185Y1125954D01*
X340784Y1126888D01*
X341451Y1127754D01*
X342184Y1128487D01*
X342851Y1129087D01*
X342917Y1129154D01*
X343184Y1129287D01*
X343584Y1129487D01*
X344050Y1129753D01*
X344650Y1129953D01*
X345383Y1130153D01*
X346116Y1130287D01*
X346916Y1130353D01*
X347449D01*
X348116Y1130220D01*
D02*
G37*
G36*
X273935Y1092430D02*
X267870D01*
X253874Y1129554D01*
X260538D01*
X268470Y1107292D01*
Y1107226D01*
X268536Y1107159D01*
X268603Y1106959D01*
X268670Y1106693D01*
X268936Y1105959D01*
X269270Y1105026D01*
X269669Y1103893D01*
X270069Y1102627D01*
X270469Y1101227D01*
X270869Y1099828D01*
Y1099894D01*
X270936Y1099961D01*
X271002Y1100361D01*
X271202Y1100961D01*
X271469Y1101827D01*
X271802Y1102827D01*
X272202Y1104027D01*
X272669Y1105426D01*
X273202Y1106893D01*
X281400Y1129554D01*
X287931D01*
X273935Y1092430D01*
D02*
G37*
G36*
X429229Y1091830D02*
Y1091763D01*
X429162Y1091563D01*
X429029Y1091230D01*
X428829Y1090830D01*
X428695Y1090363D01*
X428429Y1089764D01*
X427962Y1088497D01*
X427362Y1087098D01*
X426763Y1085698D01*
X426229Y1084432D01*
X425963Y1083898D01*
X425696Y1083432D01*
X425630Y1083299D01*
X425429Y1082965D01*
X425030Y1082366D01*
X424563Y1081699D01*
X424030Y1080966D01*
X423363Y1080233D01*
X422630Y1079500D01*
X421830Y1078900D01*
X421764Y1078833D01*
X421431Y1078700D01*
X421031Y1078433D01*
X420364Y1078167D01*
X419631Y1077900D01*
X418765Y1077634D01*
X417765Y1077500D01*
X416698Y1077433D01*
X416365D01*
X415965Y1077500D01*
X415499Y1077567D01*
X414899Y1077634D01*
X414166Y1077767D01*
X413433Y1077967D01*
X412633Y1078233D01*
X411966Y1084099D01*
X412033D01*
X412300Y1084032D01*
X412700Y1083898D01*
X413166Y1083832D01*
X413699Y1083699D01*
X414299Y1083565D01*
X415499Y1083499D01*
X415832D01*
X416232Y1083565D01*
X416698D01*
X417831Y1083832D01*
X418365Y1083965D01*
X418831Y1084232D01*
X418898D01*
X419031Y1084365D01*
X419298Y1084498D01*
X419564Y1084698D01*
X420231Y1085298D01*
X420897Y1086165D01*
Y1086231D01*
X421031Y1086365D01*
X421164Y1086631D01*
X421364Y1087098D01*
X421631Y1087764D01*
X421964Y1088564D01*
X422364Y1089630D01*
X422564Y1090230D01*
X422830Y1090897D01*
X422897Y1090963D01*
X422963Y1091297D01*
X423163Y1091763D01*
X423430Y1092430D01*
X409300Y1129554D01*
X415965D01*
X423763Y1108092D01*
Y1108026D01*
X423830Y1107892D01*
X423897Y1107692D01*
X424030Y1107359D01*
X424163Y1107026D01*
X424296Y1106559D01*
X424630Y1105493D01*
X425030Y1104227D01*
X425496Y1102760D01*
X425963Y1101161D01*
X426429Y1099494D01*
Y1099561D01*
X426496Y1099695D01*
X426563Y1099894D01*
X426629Y1100228D01*
X426763Y1100628D01*
X426896Y1101094D01*
X427162Y1102160D01*
X427562Y1103427D01*
X428029Y1104827D01*
X428562Y1106359D01*
X429095Y1107892D01*
X437027Y1129554D01*
X443292D01*
X429229Y1091830D01*
D02*
G37*
G36*
X633976Y1092430D02*
X627711D01*
Y1129554D01*
X633976D01*
Y1092430D01*
D02*
G37*
G36*
X390438Y1130287D02*
X391505Y1130220D01*
X392705Y1130087D01*
X394038Y1129887D01*
X395237Y1129620D01*
X396437Y1129220D01*
X396504D01*
X396570Y1129154D01*
X396903Y1129020D01*
X397437Y1128754D01*
X398103Y1128420D01*
X398836Y1128021D01*
X399570Y1127554D01*
X400236Y1126954D01*
X400836Y1126354D01*
X400902Y1126288D01*
X401036Y1126088D01*
X401302Y1125688D01*
X401636Y1125221D01*
X401969Y1124621D01*
X402302Y1123888D01*
X402569Y1123089D01*
X402835Y1122155D01*
Y1122089D01*
X402902Y1121822D01*
X402969Y1121422D01*
X403035Y1120822D01*
Y1120023D01*
X403102Y1119023D01*
X403169Y1117823D01*
Y1116357D01*
Y1107959D01*
Y1107892D01*
Y1107559D01*
Y1107159D01*
Y1106559D01*
Y1105893D01*
Y1105093D01*
Y1104227D01*
X403235Y1103294D01*
Y1101427D01*
X403302Y1099628D01*
X403368Y1098761D01*
Y1098028D01*
X403435Y1097428D01*
X403502Y1096895D01*
Y1096762D01*
X403568Y1096495D01*
X403702Y1096029D01*
X403835Y1095496D01*
X404102Y1094762D01*
X404368Y1094029D01*
X404701Y1093230D01*
X405101Y1092430D01*
X398503D01*
X398436Y1092496D01*
X398370Y1092763D01*
X398170Y1093163D01*
X398036Y1093763D01*
X397770Y1094429D01*
X397637Y1095229D01*
X397437Y1096095D01*
X397303Y1097095D01*
X397237D01*
X397170Y1096962D01*
X396970Y1096829D01*
X396704Y1096629D01*
X396037Y1096095D01*
X395104Y1095429D01*
X394104Y1094762D01*
X392971Y1094029D01*
X391705Y1093363D01*
X390505Y1092830D01*
X390438D01*
X390372Y1092763D01*
X390172Y1092696D01*
X389972Y1092630D01*
X389305Y1092430D01*
X388439Y1092230D01*
X387439Y1092030D01*
X386240Y1091830D01*
X384973Y1091696D01*
X383640Y1091630D01*
X383040D01*
X382640Y1091696D01*
X382107D01*
X381507Y1091763D01*
X380174Y1092030D01*
X378642Y1092363D01*
X377109Y1092896D01*
X375576Y1093629D01*
X374909Y1094029D01*
X374243Y1094563D01*
X374176Y1094629D01*
X374109Y1094696D01*
X373709Y1095096D01*
X373243Y1095762D01*
X372643Y1096629D01*
X372043Y1097762D01*
X371510Y1099028D01*
X371110Y1100494D01*
X371044Y1101294D01*
X370977Y1102160D01*
Y1102294D01*
Y1102627D01*
X371044Y1103160D01*
X371110Y1103827D01*
X371243Y1104560D01*
X371510Y1105426D01*
X371777Y1106293D01*
X372177Y1107159D01*
X372243Y1107292D01*
X372376Y1107559D01*
X372710Y1107959D01*
X373043Y1108492D01*
X373509Y1109025D01*
X374109Y1109625D01*
X374709Y1110225D01*
X375442Y1110758D01*
X375509Y1110825D01*
X375776Y1110958D01*
X376242Y1111225D01*
X376775Y1111558D01*
X377442Y1111891D01*
X378175Y1112225D01*
X379041Y1112558D01*
X379975Y1112824D01*
X380041D01*
X380308Y1112891D01*
X380774Y1113024D01*
X381374Y1113091D01*
X382174Y1113291D01*
X383107Y1113424D01*
X384240Y1113558D01*
X385573Y1113757D01*
X385640D01*
X385906Y1113824D01*
X386306D01*
X386839Y1113958D01*
X387439Y1114024D01*
X388172Y1114091D01*
X388972Y1114224D01*
X389839Y1114357D01*
X391638Y1114691D01*
X393504Y1115090D01*
X395237Y1115490D01*
X396037Y1115757D01*
X396770Y1115957D01*
Y1116024D01*
Y1116157D01*
Y1116357D01*
X396837Y1116624D01*
Y1117157D01*
Y1117423D01*
Y1117557D01*
Y1117623D01*
Y1117757D01*
Y1117956D01*
Y1118156D01*
X396770Y1118890D01*
X396637Y1119689D01*
X396370Y1120622D01*
X396104Y1121489D01*
X395637Y1122355D01*
X395037Y1123022D01*
X394904Y1123089D01*
X394571Y1123355D01*
X394038Y1123688D01*
X393238Y1124088D01*
X392171Y1124488D01*
X390972Y1124821D01*
X389505Y1125088D01*
X387839Y1125155D01*
X387106D01*
X386306Y1125088D01*
X385373Y1124955D01*
X384240Y1124755D01*
X383174Y1124488D01*
X382107Y1124088D01*
X381241Y1123555D01*
X381174Y1123488D01*
X380908Y1123288D01*
X380508Y1122888D01*
X380108Y1122289D01*
X379575Y1121555D01*
X379108Y1120622D01*
X378575Y1119423D01*
X378175Y1118090D01*
X372043Y1118956D01*
Y1119023D01*
X372110Y1119156D01*
Y1119356D01*
X372177Y1119623D01*
X372376Y1120356D01*
X372710Y1121222D01*
X373043Y1122222D01*
X373509Y1123288D01*
X374109Y1124355D01*
X374776Y1125288D01*
X374842Y1125421D01*
X375109Y1125688D01*
X375576Y1126088D01*
X376175Y1126688D01*
X376975Y1127287D01*
X377908Y1127887D01*
X379041Y1128487D01*
X380308Y1129020D01*
X380374D01*
X380508Y1129087D01*
X380708Y1129154D01*
X380974Y1129220D01*
X381307Y1129353D01*
X381707Y1129420D01*
X382774Y1129687D01*
X383974Y1129953D01*
X385440Y1130153D01*
X387039Y1130287D01*
X388772Y1130353D01*
X389972D01*
X390438Y1130287D01*
D02*
G37*
G36*
X363312Y1092430D02*
X357047D01*
Y1143683D01*
X363312D01*
Y1092430D01*
D02*
G37*
G36*
X60523Y1137618D02*
X43661D01*
Y1092430D01*
X36862D01*
Y1137618D01*
X20000D01*
Y1143683D01*
X60523D01*
Y1137618D01*
D02*
G37*
G36*
X564527Y1130287D02*
X565127Y1130220D01*
X565860Y1130087D01*
X566727Y1129953D01*
X567593Y1129753D01*
X568526Y1129487D01*
X569526Y1129087D01*
X570526Y1128687D01*
X571525Y1128221D01*
X572592Y1127621D01*
X573592Y1126954D01*
X574525Y1126154D01*
X575458Y1125288D01*
X575524Y1125221D01*
X575658Y1125021D01*
X575924Y1124755D01*
X576191Y1124355D01*
X576524Y1123822D01*
X576924Y1123222D01*
X577391Y1122489D01*
X577857Y1121622D01*
X578257Y1120622D01*
X578724Y1119556D01*
X579123Y1118423D01*
X579457Y1117157D01*
X579723Y1115757D01*
X579990Y1114291D01*
X580123Y1112691D01*
X580190Y1111025D01*
Y1110892D01*
Y1110625D01*
Y1110092D01*
X580123Y1109359D01*
X552464D01*
Y1109292D01*
Y1109092D01*
X552530Y1108759D01*
X552597Y1108359D01*
X552664Y1107826D01*
X552730Y1107226D01*
X552997Y1105893D01*
X553463Y1104360D01*
X554063Y1102827D01*
X554863Y1101361D01*
X555330Y1100694D01*
X555863Y1100028D01*
X555929Y1099961D01*
X555996Y1099894D01*
X556196Y1099761D01*
X556396Y1099561D01*
X557129Y1099028D01*
X557996Y1098428D01*
X559129Y1097828D01*
X560462Y1097362D01*
X561995Y1096962D01*
X562794Y1096895D01*
X563661Y1096829D01*
X564261D01*
X564860Y1096895D01*
X565727Y1097029D01*
X566593Y1097295D01*
X567593Y1097562D01*
X568593Y1098028D01*
X569526Y1098628D01*
X569659Y1098695D01*
X569926Y1098961D01*
X570392Y1099428D01*
X570926Y1100028D01*
X571525Y1100827D01*
X572192Y1101894D01*
X572858Y1103094D01*
X573392Y1104493D01*
X579923Y1103627D01*
Y1103560D01*
X579857Y1103360D01*
X579790Y1103094D01*
X579590Y1102694D01*
X579457Y1102227D01*
X579190Y1101627D01*
X578657Y1100361D01*
X577857Y1098961D01*
X576857Y1097495D01*
X575658Y1096029D01*
X574258Y1094762D01*
X574191D01*
X574058Y1094629D01*
X573858Y1094496D01*
X573525Y1094296D01*
X573125Y1094029D01*
X572592Y1093763D01*
X572059Y1093496D01*
X571392Y1093230D01*
X570659Y1092896D01*
X569859Y1092630D01*
X568993Y1092363D01*
X568060Y1092096D01*
X565993Y1091763D01*
X564860Y1091696D01*
X563661Y1091630D01*
X563327D01*
X562861Y1091696D01*
X562328D01*
X561661Y1091763D01*
X560862Y1091897D01*
X559928Y1092030D01*
X558995Y1092230D01*
X557996Y1092496D01*
X556929Y1092830D01*
X555863Y1093230D01*
X554796Y1093763D01*
X553730Y1094296D01*
X552664Y1094962D01*
X551664Y1095762D01*
X550731Y1096629D01*
X550664Y1096695D01*
X550531Y1096895D01*
X550264Y1097162D01*
X549998Y1097562D01*
X549664Y1098095D01*
X549264Y1098695D01*
X548798Y1099428D01*
X548398Y1100228D01*
X547932Y1101227D01*
X547465Y1102227D01*
X547065Y1103427D01*
X546732Y1104626D01*
X546465Y1106026D01*
X546199Y1107426D01*
X546065Y1108959D01*
X545999Y1110625D01*
Y1110758D01*
Y1111025D01*
X546065Y1111558D01*
Y1112158D01*
X546132Y1112958D01*
X546265Y1113891D01*
X546399Y1114891D01*
X546599Y1115957D01*
X546865Y1117090D01*
X547198Y1118290D01*
X547532Y1119489D01*
X547998Y1120689D01*
X548598Y1121889D01*
X549198Y1123089D01*
X549931Y1124155D01*
X550797Y1125155D01*
X550864Y1125221D01*
X550997Y1125355D01*
X551264Y1125621D01*
X551664Y1125954D01*
X552130Y1126354D01*
X552730Y1126821D01*
X553397Y1127287D01*
X554130Y1127754D01*
X554996Y1128221D01*
X555929Y1128687D01*
X556996Y1129154D01*
X558062Y1129554D01*
X559262Y1129887D01*
X560528Y1130153D01*
X561861Y1130287D01*
X563261Y1130353D01*
X563994D01*
X564527Y1130287D01*
D02*
G37*
G36*
X484814D02*
X485481Y1130220D01*
X486214Y1130087D01*
X487080Y1129953D01*
X488013Y1129753D01*
X488947Y1129487D01*
X489946Y1129087D01*
X491013Y1128687D01*
X492079Y1128221D01*
X493145Y1127621D01*
X494145Y1126954D01*
X495145Y1126154D01*
X496078Y1125288D01*
X496145Y1125221D01*
X496278Y1125088D01*
X496545Y1124755D01*
X496811Y1124355D01*
X497211Y1123888D01*
X497611Y1123222D01*
X498078Y1122489D01*
X498544Y1121689D01*
X498944Y1120756D01*
X499411Y1119756D01*
X499810Y1118623D01*
X500210Y1117357D01*
X500477Y1116024D01*
X500744Y1114624D01*
X500877Y1113091D01*
X500943Y1111491D01*
Y1111425D01*
Y1111158D01*
Y1110825D01*
Y1110292D01*
X500877Y1109692D01*
X500810Y1109025D01*
X500744Y1108226D01*
X500677Y1107426D01*
X500410Y1105626D01*
X500010Y1103760D01*
X499477Y1101894D01*
X499144Y1101028D01*
X498744Y1100228D01*
Y1100161D01*
X498677Y1100028D01*
X498544Y1099828D01*
X498344Y1099561D01*
X497878Y1098828D01*
X497145Y1097895D01*
X496278Y1096895D01*
X495212Y1095829D01*
X493945Y1094829D01*
X492479Y1093896D01*
X492412D01*
X492279Y1093829D01*
X492079Y1093696D01*
X491746Y1093563D01*
X491413Y1093363D01*
X490946Y1093163D01*
X489813Y1092763D01*
X488547Y1092363D01*
X487014Y1091963D01*
X485348Y1091696D01*
X483548Y1091630D01*
X483215D01*
X482815Y1091696D01*
X482282D01*
X481615Y1091763D01*
X480882Y1091897D01*
X480015Y1092030D01*
X479082Y1092230D01*
X478083Y1092496D01*
X477083Y1092830D01*
X476083Y1093230D01*
X475017Y1093696D01*
X473950Y1094296D01*
X472951Y1094962D01*
X471951Y1095695D01*
X471018Y1096562D01*
X470951Y1096629D01*
X470818Y1096829D01*
X470551Y1097095D01*
X470285Y1097495D01*
X469885Y1098028D01*
X469485Y1098628D01*
X469085Y1099361D01*
X468619Y1100228D01*
X468152Y1101227D01*
X467752Y1102294D01*
X467352Y1103427D01*
X466952Y1104760D01*
X466686Y1106160D01*
X466419Y1107626D01*
X466286Y1109225D01*
X466219Y1110958D01*
Y1111092D01*
Y1111425D01*
X466286Y1111958D01*
Y1112625D01*
X466419Y1113491D01*
X466552Y1114491D01*
X466686Y1115557D01*
X466952Y1116690D01*
X467219Y1117956D01*
X467619Y1119223D01*
X468085Y1120489D01*
X468619Y1121756D01*
X469285Y1122955D01*
X470018Y1124155D01*
X470885Y1125221D01*
X471884Y1126221D01*
X471951Y1126288D01*
X472084Y1126421D01*
X472351Y1126621D01*
X472751Y1126888D01*
X473217Y1127154D01*
X473750Y1127554D01*
X474417Y1127887D01*
X475150Y1128287D01*
X475950Y1128687D01*
X476816Y1129020D01*
X477816Y1129420D01*
X478816Y1129687D01*
X479949Y1129953D01*
X481082Y1130153D01*
X482282Y1130287D01*
X483548Y1130353D01*
X484281D01*
X484814Y1130287D01*
D02*
G37*
G36*
X309926D02*
X310526Y1130220D01*
X311259Y1130087D01*
X312125Y1129953D01*
X312992Y1129753D01*
X313925Y1129487D01*
X314925Y1129087D01*
X315924Y1128687D01*
X316924Y1128221D01*
X317990Y1127621D01*
X318990Y1126954D01*
X319923Y1126154D01*
X320856Y1125288D01*
X320923Y1125221D01*
X321056Y1125021D01*
X321323Y1124755D01*
X321590Y1124355D01*
X321923Y1123822D01*
X322323Y1123222D01*
X322789Y1122489D01*
X323256Y1121622D01*
X323656Y1120622D01*
X324122Y1119556D01*
X324522Y1118423D01*
X324855Y1117157D01*
X325122Y1115757D01*
X325388Y1114291D01*
X325522Y1112691D01*
X325588Y1111025D01*
Y1110892D01*
Y1110625D01*
Y1110092D01*
X325522Y1109359D01*
X297862D01*
Y1109292D01*
Y1109092D01*
X297929Y1108759D01*
X297995Y1108359D01*
X298062Y1107826D01*
X298129Y1107226D01*
X298395Y1105893D01*
X298862Y1104360D01*
X299462Y1102827D01*
X300262Y1101361D01*
X300728Y1100694D01*
X301261Y1100028D01*
X301328Y1099961D01*
X301395Y1099894D01*
X301595Y1099761D01*
X301794Y1099561D01*
X302528Y1099028D01*
X303394Y1098428D01*
X304527Y1097828D01*
X305860Y1097362D01*
X307393Y1096962D01*
X308193Y1096895D01*
X309059Y1096829D01*
X309659D01*
X310259Y1096895D01*
X311126Y1097029D01*
X311992Y1097295D01*
X312992Y1097562D01*
X313991Y1098028D01*
X314925Y1098628D01*
X315058Y1098695D01*
X315324Y1098961D01*
X315791Y1099428D01*
X316324Y1100028D01*
X316924Y1100827D01*
X317591Y1101894D01*
X318257Y1103094D01*
X318790Y1104493D01*
X325322Y1103627D01*
Y1103560D01*
X325255Y1103360D01*
X325188Y1103094D01*
X324989Y1102694D01*
X324855Y1102227D01*
X324589Y1101627D01*
X324055Y1100361D01*
X323256Y1098961D01*
X322256Y1097495D01*
X321056Y1096029D01*
X319657Y1094762D01*
X319590D01*
X319457Y1094629D01*
X319257Y1094496D01*
X318923Y1094296D01*
X318524Y1094029D01*
X317990Y1093763D01*
X317457Y1093496D01*
X316791Y1093230D01*
X316057Y1092896D01*
X315258Y1092630D01*
X314391Y1092363D01*
X313458Y1092096D01*
X311392Y1091763D01*
X310259Y1091696D01*
X309059Y1091630D01*
X308726D01*
X308260Y1091696D01*
X307726D01*
X307060Y1091763D01*
X306260Y1091897D01*
X305327Y1092030D01*
X304394Y1092230D01*
X303394Y1092496D01*
X302328Y1092830D01*
X301261Y1093230D01*
X300195Y1093763D01*
X299128Y1094296D01*
X298062Y1094962D01*
X297062Y1095762D01*
X296129Y1096629D01*
X296063Y1096695D01*
X295929Y1096895D01*
X295663Y1097162D01*
X295396Y1097562D01*
X295063Y1098095D01*
X294663Y1098695D01*
X294196Y1099428D01*
X293797Y1100228D01*
X293330Y1101227D01*
X292864Y1102227D01*
X292464Y1103427D01*
X292130Y1104626D01*
X291864Y1106026D01*
X291597Y1107426D01*
X291464Y1108959D01*
X291397Y1110625D01*
Y1110758D01*
Y1111025D01*
X291464Y1111558D01*
Y1112158D01*
X291530Y1112958D01*
X291664Y1113891D01*
X291797Y1114891D01*
X291997Y1115957D01*
X292264Y1117090D01*
X292597Y1118290D01*
X292930Y1119489D01*
X293397Y1120689D01*
X293997Y1121889D01*
X294596Y1123089D01*
X295329Y1124155D01*
X296196Y1125155D01*
X296263Y1125221D01*
X296396Y1125355D01*
X296663Y1125621D01*
X297062Y1125954D01*
X297529Y1126354D01*
X298129Y1126821D01*
X298795Y1127287D01*
X299528Y1127754D01*
X300395Y1128221D01*
X301328Y1128687D01*
X302394Y1129154D01*
X303461Y1129554D01*
X304660Y1129887D01*
X305927Y1130153D01*
X307260Y1130287D01*
X308659Y1130353D01*
X309393D01*
X309926Y1130287D01*
D02*
G37*
G36*
X234212D02*
X234878Y1130220D01*
X235611Y1130087D01*
X236478Y1129953D01*
X237411Y1129753D01*
X238344Y1129487D01*
X239344Y1129087D01*
X240410Y1128687D01*
X241477Y1128221D01*
X242543Y1127621D01*
X243543Y1126954D01*
X244543Y1126154D01*
X245476Y1125288D01*
X245542Y1125221D01*
X245676Y1125088D01*
X245942Y1124755D01*
X246209Y1124355D01*
X246609Y1123888D01*
X247008Y1123222D01*
X247475Y1122489D01*
X247942Y1121689D01*
X248342Y1120756D01*
X248808Y1119756D01*
X249208Y1118623D01*
X249608Y1117357D01*
X249874Y1116024D01*
X250141Y1114624D01*
X250274Y1113091D01*
X250341Y1111491D01*
Y1111425D01*
Y1111158D01*
Y1110825D01*
Y1110292D01*
X250274Y1109692D01*
X250208Y1109025D01*
X250141Y1108226D01*
X250074Y1107426D01*
X249808Y1105626D01*
X249408Y1103760D01*
X248875Y1101894D01*
X248542Y1101028D01*
X248142Y1100228D01*
Y1100161D01*
X248075Y1100028D01*
X247942Y1099828D01*
X247742Y1099561D01*
X247275Y1098828D01*
X246542Y1097895D01*
X245676Y1096895D01*
X244609Y1095829D01*
X243343Y1094829D01*
X241877Y1093896D01*
X241810D01*
X241677Y1093829D01*
X241477Y1093696D01*
X241143Y1093563D01*
X240810Y1093363D01*
X240344Y1093163D01*
X239210Y1092763D01*
X237944Y1092363D01*
X236411Y1091963D01*
X234745Y1091696D01*
X232945Y1091630D01*
X232612D01*
X232212Y1091696D01*
X231679D01*
X231013Y1091763D01*
X230280Y1091897D01*
X229413Y1092030D01*
X228480Y1092230D01*
X227480Y1092496D01*
X226481Y1092830D01*
X225481Y1093230D01*
X224414Y1093696D01*
X223348Y1094296D01*
X222348Y1094962D01*
X221348Y1095695D01*
X220415Y1096562D01*
X220349Y1096629D01*
X220215Y1096829D01*
X219949Y1097095D01*
X219682Y1097495D01*
X219282Y1098028D01*
X218882Y1098628D01*
X218482Y1099361D01*
X218016Y1100228D01*
X217549Y1101227D01*
X217150Y1102294D01*
X216750Y1103427D01*
X216350Y1104760D01*
X216083Y1106160D01*
X215816Y1107626D01*
X215683Y1109225D01*
X215617Y1110958D01*
Y1111092D01*
Y1111425D01*
X215683Y1111958D01*
Y1112625D01*
X215816Y1113491D01*
X215950Y1114491D01*
X216083Y1115557D01*
X216350Y1116690D01*
X216616Y1117956D01*
X217016Y1119223D01*
X217483Y1120489D01*
X218016Y1121756D01*
X218682Y1122955D01*
X219416Y1124155D01*
X220282Y1125221D01*
X221282Y1126221D01*
X221348Y1126288D01*
X221482Y1126421D01*
X221748Y1126621D01*
X222148Y1126888D01*
X222615Y1127154D01*
X223148Y1127554D01*
X223815Y1127887D01*
X224548Y1128287D01*
X225347Y1128687D01*
X226214Y1129020D01*
X227214Y1129420D01*
X228213Y1129687D01*
X229346Y1129953D01*
X230479Y1130153D01*
X231679Y1130287D01*
X232945Y1130353D01*
X233679D01*
X234212Y1130287D01*
D02*
G37*
G36*
X83050D02*
X83717Y1130220D01*
X84450Y1130087D01*
X85317Y1129953D01*
X86250Y1129753D01*
X87183Y1129487D01*
X88183Y1129087D01*
X89249Y1128687D01*
X90315Y1128221D01*
X91382Y1127621D01*
X92381Y1126954D01*
X93381Y1126154D01*
X94314Y1125288D01*
X94381Y1125221D01*
X94514Y1125088D01*
X94781Y1124755D01*
X95048Y1124355D01*
X95447Y1123888D01*
X95847Y1123222D01*
X96314Y1122489D01*
X96780Y1121689D01*
X97180Y1120756D01*
X97647Y1119756D01*
X98047Y1118623D01*
X98447Y1117357D01*
X98713Y1116024D01*
X98980Y1114624D01*
X99113Y1113091D01*
X99180Y1111491D01*
Y1111425D01*
Y1111158D01*
Y1110825D01*
Y1110292D01*
X99113Y1109692D01*
X99046Y1109025D01*
X98980Y1108226D01*
X98913Y1107426D01*
X98646Y1105626D01*
X98247Y1103760D01*
X97713Y1101894D01*
X97380Y1101028D01*
X96980Y1100228D01*
Y1100161D01*
X96914Y1100028D01*
X96780Y1099828D01*
X96580Y1099561D01*
X96114Y1098828D01*
X95381Y1097895D01*
X94514Y1096895D01*
X93448Y1095829D01*
X92182Y1094829D01*
X90715Y1093896D01*
X90649D01*
X90515Y1093829D01*
X90315Y1093696D01*
X89982Y1093563D01*
X89649Y1093363D01*
X89182Y1093163D01*
X88049Y1092763D01*
X86783Y1092363D01*
X85250Y1091963D01*
X83584Y1091696D01*
X81784Y1091630D01*
X81451D01*
X81051Y1091696D01*
X80518D01*
X79851Y1091763D01*
X79118Y1091897D01*
X78252Y1092030D01*
X77319Y1092230D01*
X76319Y1092496D01*
X75319Y1092830D01*
X74319Y1093230D01*
X73253Y1093696D01*
X72187Y1094296D01*
X71187Y1094962D01*
X70187Y1095695D01*
X69254Y1096562D01*
X69187Y1096629D01*
X69054Y1096829D01*
X68787Y1097095D01*
X68521Y1097495D01*
X68121Y1098028D01*
X67721Y1098628D01*
X67321Y1099361D01*
X66855Y1100228D01*
X66388Y1101227D01*
X65988Y1102294D01*
X65588Y1103427D01*
X65188Y1104760D01*
X64922Y1106160D01*
X64655Y1107626D01*
X64522Y1109225D01*
X64455Y1110958D01*
Y1111092D01*
Y1111425D01*
X64522Y1111958D01*
Y1112625D01*
X64655Y1113491D01*
X64788Y1114491D01*
X64922Y1115557D01*
X65188Y1116690D01*
X65455Y1117956D01*
X65855Y1119223D01*
X66322Y1120489D01*
X66855Y1121756D01*
X67521Y1122955D01*
X68254Y1124155D01*
X69121Y1125221D01*
X70121Y1126221D01*
X70187Y1126288D01*
X70321Y1126421D01*
X70587Y1126621D01*
X70987Y1126888D01*
X71453Y1127154D01*
X71987Y1127554D01*
X72653Y1127887D01*
X73386Y1128287D01*
X74186Y1128687D01*
X75053Y1129020D01*
X76052Y1129420D01*
X77052Y1129687D01*
X78185Y1129953D01*
X79318Y1130153D01*
X80518Y1130287D01*
X81784Y1130353D01*
X82517D01*
X83050Y1130287D01*
D02*
G37*
G36*
X697693D02*
X698160D01*
X698693Y1130220D01*
X699359Y1130087D01*
X700092Y1129887D01*
X700892Y1129687D01*
X701692Y1129420D01*
X702559Y1129020D01*
X703492Y1128620D01*
X704425Y1128087D01*
X705291Y1127487D01*
X706224Y1126754D01*
X707091Y1125888D01*
X707890Y1124955D01*
Y1129554D01*
X713689D01*
Y1097495D01*
Y1097428D01*
Y1097095D01*
Y1096695D01*
Y1096095D01*
X713622Y1095362D01*
Y1094563D01*
X713556Y1093696D01*
X713489Y1092763D01*
X713223Y1090763D01*
X712956Y1088697D01*
X712756Y1087764D01*
X712489Y1086831D01*
X712223Y1086031D01*
X711889Y1085298D01*
Y1085231D01*
X711823Y1085165D01*
X711690Y1084965D01*
X711556Y1084698D01*
X711156Y1084032D01*
X710556Y1083232D01*
X709757Y1082299D01*
X708824Y1081366D01*
X707624Y1080433D01*
X706291Y1079566D01*
X706224D01*
X706091Y1079500D01*
X705891Y1079366D01*
X705624Y1079233D01*
X705225Y1079100D01*
X704825Y1078900D01*
X704292Y1078700D01*
X703692Y1078500D01*
X702359Y1078100D01*
X700759Y1077767D01*
X698893Y1077500D01*
X696893Y1077433D01*
X696227D01*
X695827Y1077500D01*
X695227D01*
X694561Y1077567D01*
X693894Y1077700D01*
X693094Y1077833D01*
X691361Y1078167D01*
X689562Y1078700D01*
X687829Y1079433D01*
X686963Y1079900D01*
X686163Y1080433D01*
X686096Y1080499D01*
X685963Y1080566D01*
X685763Y1080766D01*
X685563Y1080966D01*
X685230Y1081299D01*
X684896Y1081699D01*
X684497Y1082166D01*
X684163Y1082699D01*
X683763Y1083299D01*
X683430Y1083965D01*
X683097Y1084698D01*
X682764Y1085498D01*
X682564Y1086365D01*
X682364Y1087298D01*
X682230Y1088364D01*
Y1089430D01*
X688362Y1088564D01*
Y1088431D01*
X688429Y1088097D01*
X688562Y1087631D01*
X688762Y1087031D01*
X689029Y1086298D01*
X689429Y1085631D01*
X689895Y1084965D01*
X690495Y1084432D01*
X690628Y1084365D01*
X690895Y1084165D01*
X691428Y1083832D01*
X692161Y1083565D01*
X693094Y1083232D01*
X694161Y1082899D01*
X695427Y1082699D01*
X696893Y1082632D01*
X697626D01*
X698360Y1082699D01*
X699359Y1082832D01*
X700426Y1083099D01*
X701559Y1083365D01*
X702625Y1083832D01*
X703625Y1084432D01*
X703758Y1084498D01*
X704025Y1084765D01*
X704425Y1085165D01*
X704958Y1085698D01*
X705491Y1086365D01*
X705958Y1087231D01*
X706491Y1088164D01*
X706824Y1089297D01*
Y1089364D01*
X706891Y1089697D01*
X707024Y1090230D01*
Y1090564D01*
X707091Y1091030D01*
X707157Y1091497D01*
Y1092096D01*
X707224Y1092763D01*
Y1093496D01*
X707291Y1094296D01*
Y1095229D01*
Y1096229D01*
Y1097295D01*
X707224Y1097228D01*
X707091Y1097095D01*
X706891Y1096829D01*
X706557Y1096562D01*
X706158Y1096162D01*
X705691Y1095762D01*
X705091Y1095296D01*
X704491Y1094896D01*
X703758Y1094429D01*
X702959Y1093963D01*
X701226Y1093163D01*
X700226Y1092896D01*
X699226Y1092630D01*
X698160Y1092496D01*
X697027Y1092430D01*
X696693D01*
X696293Y1092496D01*
X695760D01*
X695094Y1092630D01*
X694361Y1092696D01*
X693561Y1092896D01*
X692694Y1093096D01*
X691761Y1093429D01*
X690762Y1093763D01*
X689762Y1094229D01*
X688762Y1094762D01*
X687829Y1095362D01*
X686896Y1096095D01*
X685963Y1096962D01*
X685163Y1097895D01*
X685096Y1097962D01*
X684963Y1098161D01*
X684763Y1098428D01*
X684497Y1098895D01*
X684163Y1099428D01*
X683830Y1100028D01*
X683430Y1100827D01*
X683097Y1101627D01*
X682697Y1102560D01*
X682297Y1103560D01*
X681964Y1104626D01*
X681631Y1105826D01*
X681364Y1107093D01*
X681164Y1108359D01*
X681031Y1109759D01*
X680964Y1111158D01*
Y1111225D01*
Y1111425D01*
Y1111691D01*
Y1112091D01*
X681031Y1112558D01*
X681097Y1113091D01*
Y1113691D01*
X681231Y1114357D01*
X681431Y1115890D01*
X681764Y1117557D01*
X682230Y1119223D01*
X682897Y1120956D01*
Y1121022D01*
X682964Y1121156D01*
X683097Y1121356D01*
X683230Y1121689D01*
X683430Y1122089D01*
X683697Y1122489D01*
X684297Y1123488D01*
X685096Y1124621D01*
X686030Y1125754D01*
X687162Y1126888D01*
X688429Y1127887D01*
X688495D01*
X688629Y1128021D01*
X688829Y1128087D01*
X689095Y1128287D01*
X689429Y1128487D01*
X689828Y1128687D01*
X690895Y1129154D01*
X692161Y1129554D01*
X693627Y1129953D01*
X695227Y1130220D01*
X697027Y1130353D01*
X697293D01*
X697693Y1130287D01*
D02*
G37*
G36*
X427496Y1059118D02*
X421231D01*
Y1066316D01*
X427496D01*
Y1059118D01*
D02*
G37*
G36*
X260805Y1052920D02*
X261672Y1052853D01*
X262605Y1052653D01*
X263671Y1052453D01*
X264737Y1052120D01*
X265804Y1051720D01*
X265937Y1051653D01*
X266270Y1051520D01*
X266737Y1051254D01*
X267403Y1050854D01*
X268070Y1050454D01*
X268736Y1049921D01*
X269403Y1049254D01*
X270003Y1048588D01*
X270069Y1048521D01*
X270203Y1048254D01*
X270469Y1047854D01*
X270802Y1047255D01*
X271069Y1046588D01*
X271402Y1045788D01*
X271669Y1044922D01*
X271936Y1043922D01*
Y1043855D01*
X272002Y1043589D01*
X272069Y1043122D01*
X272135Y1042523D01*
X272202Y1041656D01*
X272269Y1040656D01*
X272335Y1039390D01*
Y1037857D01*
Y1015063D01*
X266070D01*
Y1037590D01*
Y1037657D01*
Y1037790D01*
Y1037924D01*
Y1038190D01*
X266004Y1038923D01*
Y1039723D01*
X265870Y1040656D01*
X265737Y1041589D01*
X265537Y1042456D01*
X265271Y1043256D01*
Y1043322D01*
X265137Y1043589D01*
X264937Y1043922D01*
X264671Y1044389D01*
X264337Y1044855D01*
X263871Y1045388D01*
X263338Y1045855D01*
X262671Y1046321D01*
X262605Y1046388D01*
X262338Y1046521D01*
X261938Y1046721D01*
X261405Y1046921D01*
X260805Y1047121D01*
X260072Y1047321D01*
X259205Y1047455D01*
X258339Y1047521D01*
X257939D01*
X257673Y1047455D01*
X256873Y1047388D01*
X255940Y1047188D01*
X254873Y1046921D01*
X253673Y1046455D01*
X252474Y1045788D01*
X251341Y1044922D01*
X251208Y1044789D01*
X251074Y1044655D01*
X250874Y1044389D01*
X250674Y1044122D01*
X250408Y1043722D01*
X250208Y1043322D01*
X249941Y1042789D01*
X249674Y1042123D01*
X249408Y1041456D01*
X249141Y1040656D01*
X248941Y1039790D01*
X248741Y1038790D01*
X248608Y1037724D01*
X248542Y1036524D01*
X248475Y1035258D01*
Y1015063D01*
X242210D01*
Y1052187D01*
X247875D01*
Y1046855D01*
X247942Y1046921D01*
X248075Y1047121D01*
X248275Y1047455D01*
X248608Y1047788D01*
X249075Y1048254D01*
X249541Y1048788D01*
X250141Y1049321D01*
X250874Y1049921D01*
X251674Y1050520D01*
X252540Y1051054D01*
X253474Y1051587D01*
X254540Y1052053D01*
X255673Y1052453D01*
X256873Y1052720D01*
X258206Y1052920D01*
X259605Y1052986D01*
X260205D01*
X260805Y1052920D01*
D02*
G37*
G36*
X189423Y1052853D02*
X190223Y1052720D01*
X191223Y1052453D01*
X192356Y1052120D01*
X193489Y1051587D01*
X194755Y1050920D01*
X192556Y1045122D01*
X192423Y1045188D01*
X192156Y1045322D01*
X191689Y1045522D01*
X191089Y1045788D01*
X190423Y1046055D01*
X189623Y1046255D01*
X188757Y1046388D01*
X187890Y1046455D01*
X187557D01*
X187157Y1046388D01*
X186624Y1046321D01*
X186091Y1046122D01*
X185424Y1045922D01*
X184825Y1045588D01*
X184158Y1045188D01*
X184091Y1045122D01*
X183891Y1044988D01*
X183625Y1044655D01*
X183291Y1044255D01*
X182892Y1043789D01*
X182492Y1043189D01*
X182159Y1042523D01*
X181825Y1041723D01*
Y1041656D01*
X181759Y1041589D01*
Y1041389D01*
X181692Y1041123D01*
X181492Y1040456D01*
X181359Y1039590D01*
X181159Y1038457D01*
X180959Y1037257D01*
X180892Y1035857D01*
X180826Y1034391D01*
Y1015063D01*
X174560D01*
Y1052187D01*
X180226D01*
Y1046521D01*
X180292Y1046655D01*
X180426Y1046855D01*
X180559Y1047121D01*
X181025Y1047788D01*
X181492Y1048588D01*
X182092Y1049521D01*
X182758Y1050387D01*
X183491Y1051120D01*
X184158Y1051720D01*
X184225Y1051787D01*
X184491Y1051920D01*
X184891Y1052120D01*
X185358Y1052387D01*
X185958Y1052587D01*
X186691Y1052786D01*
X187424Y1052920D01*
X188224Y1052986D01*
X188757D01*
X189423Y1052853D01*
D02*
G37*
G36*
X453356Y1015063D02*
X447291D01*
X433294Y1052187D01*
X439959D01*
X447890Y1029926D01*
Y1029859D01*
X447957Y1029792D01*
X448024Y1029592D01*
X448090Y1029326D01*
X448357Y1028593D01*
X448690Y1027660D01*
X449090Y1026526D01*
X449490Y1025260D01*
X449890Y1023861D01*
X450290Y1022461D01*
Y1022528D01*
X450356Y1022594D01*
X450423Y1022994D01*
X450623Y1023594D01*
X450890Y1024460D01*
X451223Y1025460D01*
X451623Y1026660D01*
X452089Y1028059D01*
X452623Y1029526D01*
X460821Y1052187D01*
X467352D01*
X453356Y1015063D01*
D02*
G37*
G36*
X115376Y1014463D02*
Y1014396D01*
X115309Y1014196D01*
X115176Y1013863D01*
X114976Y1013463D01*
X114842Y1012997D01*
X114576Y1012397D01*
X114109Y1011131D01*
X113509Y1009731D01*
X112910Y1008331D01*
X112376Y1007065D01*
X112110Y1006532D01*
X111843Y1006065D01*
X111777Y1005932D01*
X111577Y1005599D01*
X111177Y1004999D01*
X110710Y1004332D01*
X110177Y1003599D01*
X109510Y1002866D01*
X108777Y1002133D01*
X107978Y1001533D01*
X107911Y1001466D01*
X107578Y1001333D01*
X107178Y1001066D01*
X106511Y1000800D01*
X105778Y1000533D01*
X104912Y1000267D01*
X103912Y1000133D01*
X102845Y1000067D01*
X102512D01*
X102112Y1000133D01*
X101646Y1000200D01*
X101046Y1000267D01*
X100313Y1000400D01*
X99580Y1000600D01*
X98780Y1000866D01*
X98113Y1006732D01*
X98180D01*
X98447Y1006665D01*
X98847Y1006532D01*
X99313Y1006465D01*
X99846Y1006332D01*
X100446Y1006198D01*
X101646Y1006132D01*
X101979D01*
X102379Y1006198D01*
X102845D01*
X103979Y1006465D01*
X104512Y1006598D01*
X104978Y1006865D01*
X105045D01*
X105178Y1006998D01*
X105445Y1007132D01*
X105711Y1007331D01*
X106378Y1007931D01*
X107044Y1008798D01*
Y1008864D01*
X107178Y1008998D01*
X107311Y1009264D01*
X107511Y1009731D01*
X107778Y1010397D01*
X108111Y1011197D01*
X108511Y1012263D01*
X108711Y1012863D01*
X108977Y1013530D01*
X109044Y1013596D01*
X109110Y1013930D01*
X109311Y1014396D01*
X109577Y1015063D01*
X95447Y1052187D01*
X102112D01*
X109910Y1030725D01*
Y1030659D01*
X109977Y1030526D01*
X110044Y1030326D01*
X110177Y1029992D01*
X110310Y1029659D01*
X110443Y1029193D01*
X110777Y1028126D01*
X111177Y1026860D01*
X111643Y1025394D01*
X112110Y1023794D01*
X112576Y1022128D01*
Y1022194D01*
X112643Y1022328D01*
X112710Y1022528D01*
X112776Y1022861D01*
X112910Y1023261D01*
X113043Y1023727D01*
X113309Y1024794D01*
X113709Y1026060D01*
X114176Y1027460D01*
X114709Y1028993D01*
X115242Y1030526D01*
X123174Y1052187D01*
X129439D01*
X115376Y1014463D01*
D02*
G37*
G36*
X427496Y1015063D02*
X421231D01*
Y1052187D01*
X427496D01*
Y1015063D01*
D02*
G37*
G36*
X378908Y1052920D02*
X379975Y1052853D01*
X381174Y1052720D01*
X382507Y1052520D01*
X383707Y1052253D01*
X384907Y1051853D01*
X384973D01*
X385040Y1051787D01*
X385373Y1051653D01*
X385906Y1051387D01*
X386573Y1051054D01*
X387306Y1050654D01*
X388039Y1050187D01*
X388706Y1049587D01*
X389305Y1048988D01*
X389372Y1048921D01*
X389505Y1048721D01*
X389772Y1048321D01*
X390105Y1047854D01*
X390438Y1047255D01*
X390772Y1046521D01*
X391038Y1045722D01*
X391305Y1044789D01*
Y1044722D01*
X391372Y1044455D01*
X391438Y1044055D01*
X391505Y1043456D01*
Y1042656D01*
X391572Y1041656D01*
X391638Y1040456D01*
Y1038990D01*
Y1030592D01*
Y1030526D01*
Y1030192D01*
Y1029792D01*
Y1029193D01*
Y1028526D01*
Y1027726D01*
Y1026860D01*
X391705Y1025927D01*
Y1024061D01*
X391772Y1022261D01*
X391838Y1021395D01*
Y1020661D01*
X391905Y1020061D01*
X391971Y1019528D01*
Y1019395D01*
X392038Y1019128D01*
X392171Y1018662D01*
X392305Y1018129D01*
X392571Y1017396D01*
X392838Y1016662D01*
X393171Y1015863D01*
X393571Y1015063D01*
X386973D01*
X386906Y1015129D01*
X386839Y1015396D01*
X386640Y1015796D01*
X386506Y1016396D01*
X386240Y1017062D01*
X386106Y1017862D01*
X385906Y1018728D01*
X385773Y1019728D01*
X385706D01*
X385640Y1019595D01*
X385440Y1019462D01*
X385173Y1019262D01*
X384507Y1018728D01*
X383574Y1018062D01*
X382574Y1017396D01*
X381441Y1016662D01*
X380174Y1015996D01*
X378975Y1015463D01*
X378908D01*
X378842Y1015396D01*
X378642Y1015329D01*
X378442Y1015263D01*
X377775Y1015063D01*
X376909Y1014863D01*
X375909Y1014663D01*
X374709Y1014463D01*
X373443Y1014330D01*
X372110Y1014263D01*
X371510D01*
X371110Y1014330D01*
X370577D01*
X369977Y1014396D01*
X368644Y1014663D01*
X367111Y1014996D01*
X365578Y1015529D01*
X364045Y1016263D01*
X363379Y1016662D01*
X362712Y1017196D01*
X362646Y1017262D01*
X362579Y1017329D01*
X362179Y1017729D01*
X361712Y1018395D01*
X361113Y1019262D01*
X360513Y1020395D01*
X359980Y1021661D01*
X359580Y1023127D01*
X359513Y1023927D01*
X359446Y1024794D01*
Y1024927D01*
Y1025260D01*
X359513Y1025793D01*
X359580Y1026460D01*
X359713Y1027193D01*
X359980Y1028059D01*
X360246Y1028926D01*
X360646Y1029792D01*
X360713Y1029926D01*
X360846Y1030192D01*
X361179Y1030592D01*
X361513Y1031125D01*
X361979Y1031659D01*
X362579Y1032258D01*
X363179Y1032858D01*
X363912Y1033391D01*
X363979Y1033458D01*
X364245Y1033591D01*
X364712Y1033858D01*
X365245Y1034191D01*
X365911Y1034525D01*
X366645Y1034858D01*
X367511Y1035191D01*
X368444Y1035458D01*
X368511D01*
X368777Y1035524D01*
X369244Y1035658D01*
X369844Y1035724D01*
X370644Y1035924D01*
X371577Y1036057D01*
X372710Y1036191D01*
X374043Y1036391D01*
X374109D01*
X374376Y1036457D01*
X374776D01*
X375309Y1036591D01*
X375909Y1036657D01*
X376642Y1036724D01*
X377442Y1036857D01*
X378308Y1036991D01*
X380108Y1037324D01*
X381974Y1037724D01*
X383707Y1038124D01*
X384507Y1038390D01*
X385240Y1038590D01*
Y1038657D01*
Y1038790D01*
Y1038990D01*
X385307Y1039257D01*
Y1039790D01*
Y1040056D01*
Y1040190D01*
Y1040256D01*
Y1040390D01*
Y1040590D01*
Y1040790D01*
X385240Y1041523D01*
X385107Y1042322D01*
X384840Y1043256D01*
X384573Y1044122D01*
X384107Y1044988D01*
X383507Y1045655D01*
X383374Y1045722D01*
X383040Y1045988D01*
X382507Y1046321D01*
X381707Y1046721D01*
X380641Y1047121D01*
X379441Y1047455D01*
X377975Y1047721D01*
X376309Y1047788D01*
X375576D01*
X374776Y1047721D01*
X373843Y1047588D01*
X372710Y1047388D01*
X371643Y1047121D01*
X370577Y1046721D01*
X369711Y1046188D01*
X369644Y1046122D01*
X369377Y1045922D01*
X368977Y1045522D01*
X368577Y1044922D01*
X368044Y1044189D01*
X367578Y1043256D01*
X367044Y1042056D01*
X366645Y1040723D01*
X360513Y1041589D01*
Y1041656D01*
X360579Y1041789D01*
Y1041989D01*
X360646Y1042256D01*
X360846Y1042989D01*
X361179Y1043855D01*
X361513Y1044855D01*
X361979Y1045922D01*
X362579Y1046988D01*
X363246Y1047921D01*
X363312Y1048054D01*
X363579Y1048321D01*
X364045Y1048721D01*
X364645Y1049321D01*
X365445Y1049921D01*
X366378Y1050520D01*
X367511Y1051120D01*
X368777Y1051653D01*
X368844D01*
X368977Y1051720D01*
X369177Y1051787D01*
X369444Y1051853D01*
X369777Y1051987D01*
X370177Y1052053D01*
X371243Y1052320D01*
X372443Y1052587D01*
X373909Y1052786D01*
X375509Y1052920D01*
X377242Y1052986D01*
X378442D01*
X378908Y1052920D01*
D02*
G37*
G36*
X76585D02*
X77652Y1052853D01*
X78852Y1052720D01*
X80185Y1052520D01*
X81384Y1052253D01*
X82584Y1051853D01*
X82651D01*
X82717Y1051787D01*
X83050Y1051653D01*
X83584Y1051387D01*
X84250Y1051054D01*
X84983Y1050654D01*
X85716Y1050187D01*
X86383Y1049587D01*
X86983Y1048988D01*
X87050Y1048921D01*
X87183Y1048721D01*
X87449Y1048321D01*
X87783Y1047854D01*
X88116Y1047255D01*
X88449Y1046521D01*
X88716Y1045722D01*
X88982Y1044789D01*
Y1044722D01*
X89049Y1044455D01*
X89116Y1044055D01*
X89182Y1043456D01*
Y1042656D01*
X89249Y1041656D01*
X89316Y1040456D01*
Y1038990D01*
Y1030592D01*
Y1030526D01*
Y1030192D01*
Y1029792D01*
Y1029193D01*
Y1028526D01*
Y1027726D01*
Y1026860D01*
X89382Y1025927D01*
Y1024061D01*
X89449Y1022261D01*
X89515Y1021395D01*
Y1020661D01*
X89582Y1020061D01*
X89649Y1019528D01*
Y1019395D01*
X89715Y1019128D01*
X89849Y1018662D01*
X89982Y1018129D01*
X90249Y1017396D01*
X90515Y1016662D01*
X90849Y1015863D01*
X91248Y1015063D01*
X84650D01*
X84584Y1015129D01*
X84517Y1015396D01*
X84317Y1015796D01*
X84184Y1016396D01*
X83917Y1017062D01*
X83784Y1017862D01*
X83584Y1018728D01*
X83450Y1019728D01*
X83384D01*
X83317Y1019595D01*
X83117Y1019462D01*
X82851Y1019262D01*
X82184Y1018728D01*
X81251Y1018062D01*
X80251Y1017396D01*
X79118Y1016662D01*
X77852Y1015996D01*
X76652Y1015463D01*
X76585D01*
X76519Y1015396D01*
X76319Y1015329D01*
X76119Y1015263D01*
X75452Y1015063D01*
X74586Y1014863D01*
X73586Y1014663D01*
X72387Y1014463D01*
X71120Y1014330D01*
X69787Y1014263D01*
X69187D01*
X68787Y1014330D01*
X68254D01*
X67655Y1014396D01*
X66322Y1014663D01*
X64788Y1014996D01*
X63256Y1015529D01*
X61723Y1016263D01*
X61056Y1016662D01*
X60390Y1017196D01*
X60323Y1017262D01*
X60256Y1017329D01*
X59857Y1017729D01*
X59390Y1018395D01*
X58790Y1019262D01*
X58190Y1020395D01*
X57657Y1021661D01*
X57257Y1023127D01*
X57190Y1023927D01*
X57124Y1024794D01*
Y1024927D01*
Y1025260D01*
X57190Y1025793D01*
X57257Y1026460D01*
X57390Y1027193D01*
X57657Y1028059D01*
X57924Y1028926D01*
X58323Y1029792D01*
X58390Y1029926D01*
X58524Y1030192D01*
X58857Y1030592D01*
X59190Y1031125D01*
X59657Y1031659D01*
X60256Y1032258D01*
X60856Y1032858D01*
X61589Y1033391D01*
X61656Y1033458D01*
X61923Y1033591D01*
X62389Y1033858D01*
X62922Y1034191D01*
X63589Y1034525D01*
X64322Y1034858D01*
X65188Y1035191D01*
X66122Y1035458D01*
X66188D01*
X66455Y1035524D01*
X66921Y1035658D01*
X67521Y1035724D01*
X68321Y1035924D01*
X69254Y1036057D01*
X70387Y1036191D01*
X71720Y1036391D01*
X71787D01*
X72053Y1036457D01*
X72453D01*
X72986Y1036591D01*
X73586Y1036657D01*
X74319Y1036724D01*
X75119Y1036857D01*
X75986Y1036991D01*
X77785Y1037324D01*
X79651Y1037724D01*
X81384Y1038124D01*
X82184Y1038390D01*
X82917Y1038590D01*
Y1038657D01*
Y1038790D01*
Y1038990D01*
X82984Y1039257D01*
Y1039790D01*
Y1040056D01*
Y1040190D01*
Y1040256D01*
Y1040390D01*
Y1040590D01*
Y1040790D01*
X82917Y1041523D01*
X82784Y1042322D01*
X82517Y1043256D01*
X82251Y1044122D01*
X81784Y1044988D01*
X81184Y1045655D01*
X81051Y1045722D01*
X80718Y1045988D01*
X80185Y1046321D01*
X79385Y1046721D01*
X78318Y1047121D01*
X77119Y1047455D01*
X75652Y1047721D01*
X73986Y1047788D01*
X73253D01*
X72453Y1047721D01*
X71520Y1047588D01*
X70387Y1047388D01*
X69321Y1047121D01*
X68254Y1046721D01*
X67388Y1046188D01*
X67321Y1046122D01*
X67055Y1045922D01*
X66655Y1045522D01*
X66255Y1044922D01*
X65722Y1044189D01*
X65255Y1043256D01*
X64722Y1042056D01*
X64322Y1040723D01*
X58190Y1041589D01*
Y1041656D01*
X58257Y1041789D01*
Y1041989D01*
X58323Y1042256D01*
X58524Y1042989D01*
X58857Y1043855D01*
X59190Y1044855D01*
X59657Y1045922D01*
X60256Y1046988D01*
X60923Y1047921D01*
X60989Y1048054D01*
X61256Y1048321D01*
X61723Y1048721D01*
X62323Y1049321D01*
X63122Y1049921D01*
X64055Y1050520D01*
X65188Y1051120D01*
X66455Y1051653D01*
X66521D01*
X66655Y1051720D01*
X66855Y1051787D01*
X67121Y1051853D01*
X67455Y1051987D01*
X67854Y1052053D01*
X68921Y1052320D01*
X70121Y1052587D01*
X71587Y1052786D01*
X73186Y1052920D01*
X74919Y1052986D01*
X76119D01*
X76585Y1052920D01*
D02*
G37*
G36*
X26798Y1021128D02*
X51992D01*
Y1015063D01*
X20000D01*
Y1066316D01*
X26798D01*
Y1021128D01*
D02*
G37*
G36*
X408700Y1052187D02*
X415032D01*
Y1047321D01*
X408700D01*
Y1025593D01*
Y1025460D01*
Y1025127D01*
Y1024660D01*
X408767Y1024127D01*
Y1023527D01*
X408834Y1022927D01*
X408900Y1022461D01*
X408967Y1022061D01*
X409034Y1021928D01*
X409234Y1021661D01*
X409567Y1021261D01*
X410033Y1020861D01*
X410100D01*
X410167Y1020795D01*
X410367Y1020728D01*
X410633Y1020661D01*
X411300Y1020528D01*
X412233Y1020461D01*
X412966D01*
X413366Y1020528D01*
X413899D01*
X414432Y1020595D01*
X415032Y1020661D01*
X415899Y1015129D01*
X415765D01*
X415432Y1015063D01*
X414966Y1014996D01*
X414299Y1014863D01*
X413566Y1014796D01*
X412766Y1014663D01*
X411100Y1014596D01*
X410567D01*
X409900Y1014663D01*
X409167Y1014730D01*
X408301Y1014863D01*
X407434Y1015063D01*
X406568Y1015329D01*
X405835Y1015663D01*
X405768Y1015729D01*
X405501Y1015863D01*
X405235Y1016063D01*
X404835Y1016396D01*
X404368Y1016796D01*
X403902Y1017329D01*
X403502Y1017862D01*
X403169Y1018462D01*
Y1018529D01*
X403035Y1018862D01*
X402969Y1019328D01*
X402835Y1020061D01*
X402769Y1020528D01*
X402702Y1021061D01*
X402635Y1021661D01*
X402569Y1022394D01*
X402502Y1023127D01*
Y1023994D01*
X402435Y1024927D01*
Y1025927D01*
Y1047321D01*
X397770D01*
Y1052187D01*
X402435D01*
Y1061318D01*
X408700Y1065117D01*
Y1052187D01*
D02*
G37*
G36*
X489347Y1052920D02*
X489946Y1052853D01*
X490680Y1052720D01*
X491546Y1052587D01*
X492412Y1052387D01*
X493345Y1052120D01*
X494345Y1051720D01*
X495345Y1051320D01*
X496345Y1050854D01*
X497411Y1050254D01*
X498411Y1049587D01*
X499344Y1048788D01*
X500277Y1047921D01*
X500344Y1047854D01*
X500477Y1047654D01*
X500744Y1047388D01*
X501010Y1046988D01*
X501343Y1046455D01*
X501743Y1045855D01*
X502210Y1045122D01*
X502676Y1044255D01*
X503076Y1043256D01*
X503543Y1042189D01*
X503943Y1041056D01*
X504276Y1039790D01*
X504543Y1038390D01*
X504809Y1036924D01*
X504943Y1035324D01*
X505009Y1033658D01*
Y1033525D01*
Y1033258D01*
Y1032725D01*
X504943Y1031992D01*
X477283D01*
Y1031925D01*
Y1031725D01*
X477350Y1031392D01*
X477416Y1030992D01*
X477483Y1030459D01*
X477550Y1029859D01*
X477816Y1028526D01*
X478283Y1026993D01*
X478882Y1025460D01*
X479682Y1023994D01*
X480149Y1023327D01*
X480682Y1022661D01*
X480749Y1022594D01*
X480815Y1022528D01*
X481015Y1022394D01*
X481215Y1022194D01*
X481948Y1021661D01*
X482815Y1021061D01*
X483948Y1020461D01*
X485281Y1019995D01*
X486814Y1019595D01*
X487614Y1019528D01*
X488480Y1019462D01*
X489080D01*
X489680Y1019528D01*
X490546Y1019662D01*
X491413Y1019928D01*
X492412Y1020195D01*
X493412Y1020661D01*
X494345Y1021261D01*
X494478Y1021328D01*
X494745Y1021594D01*
X495212Y1022061D01*
X495745Y1022661D01*
X496345Y1023461D01*
X497011Y1024527D01*
X497678Y1025727D01*
X498211Y1027126D01*
X504743Y1026260D01*
Y1026193D01*
X504676Y1025993D01*
X504609Y1025727D01*
X504409Y1025327D01*
X504276Y1024860D01*
X504009Y1024260D01*
X503476Y1022994D01*
X502676Y1021594D01*
X501677Y1020128D01*
X500477Y1018662D01*
X499077Y1017396D01*
X499011D01*
X498877Y1017262D01*
X498677Y1017129D01*
X498344Y1016929D01*
X497944Y1016662D01*
X497411Y1016396D01*
X496878Y1016129D01*
X496211Y1015863D01*
X495478Y1015529D01*
X494678Y1015263D01*
X493812Y1014996D01*
X492879Y1014730D01*
X490813Y1014396D01*
X489680Y1014330D01*
X488480Y1014263D01*
X488147D01*
X487680Y1014330D01*
X487147D01*
X486481Y1014396D01*
X485681Y1014530D01*
X484748Y1014663D01*
X483815Y1014863D01*
X482815Y1015129D01*
X481748Y1015463D01*
X480682Y1015863D01*
X479616Y1016396D01*
X478549Y1016929D01*
X477483Y1017596D01*
X476483Y1018395D01*
X475550Y1019262D01*
X475483Y1019328D01*
X475350Y1019528D01*
X475084Y1019795D01*
X474817Y1020195D01*
X474484Y1020728D01*
X474084Y1021328D01*
X473617Y1022061D01*
X473217Y1022861D01*
X472751Y1023861D01*
X472284Y1024860D01*
X471884Y1026060D01*
X471551Y1027260D01*
X471284Y1028659D01*
X471018Y1030059D01*
X470885Y1031592D01*
X470818Y1033258D01*
Y1033391D01*
Y1033658D01*
X470885Y1034191D01*
Y1034791D01*
X470951Y1035591D01*
X471085Y1036524D01*
X471218Y1037524D01*
X471418Y1038590D01*
X471684Y1039723D01*
X472018Y1040923D01*
X472351Y1042123D01*
X472817Y1043322D01*
X473417Y1044522D01*
X474017Y1045722D01*
X474750Y1046788D01*
X475617Y1047788D01*
X475683Y1047854D01*
X475817Y1047988D01*
X476083Y1048254D01*
X476483Y1048588D01*
X476950Y1048988D01*
X477550Y1049454D01*
X478216Y1049921D01*
X478949Y1050387D01*
X479816Y1050854D01*
X480749Y1051320D01*
X481815Y1051787D01*
X482882Y1052187D01*
X484081Y1052520D01*
X485348Y1052786D01*
X486680Y1052920D01*
X488080Y1052986D01*
X488813D01*
X489347Y1052920D01*
D02*
G37*
G36*
X298395D02*
X298995Y1052853D01*
X299728Y1052720D01*
X300595Y1052587D01*
X301461Y1052387D01*
X302394Y1052120D01*
X303394Y1051720D01*
X304394Y1051320D01*
X305394Y1050854D01*
X306460Y1050254D01*
X307460Y1049587D01*
X308393Y1048788D01*
X309326Y1047921D01*
X309393Y1047854D01*
X309526Y1047654D01*
X309792Y1047388D01*
X310059Y1046988D01*
X310392Y1046455D01*
X310792Y1045855D01*
X311259Y1045122D01*
X311725Y1044255D01*
X312125Y1043256D01*
X312592Y1042189D01*
X312992Y1041056D01*
X313325Y1039790D01*
X313591Y1038390D01*
X313858Y1036924D01*
X313991Y1035324D01*
X314058Y1033658D01*
Y1033525D01*
Y1033258D01*
Y1032725D01*
X313991Y1031992D01*
X286332D01*
Y1031925D01*
Y1031725D01*
X286399Y1031392D01*
X286465Y1030992D01*
X286532Y1030459D01*
X286598Y1029859D01*
X286865Y1028526D01*
X287332Y1026993D01*
X287931Y1025460D01*
X288731Y1023994D01*
X289198Y1023327D01*
X289731Y1022661D01*
X289798Y1022594D01*
X289864Y1022528D01*
X290064Y1022394D01*
X290264Y1022194D01*
X290997Y1021661D01*
X291864Y1021061D01*
X292997Y1020461D01*
X294330Y1019995D01*
X295863Y1019595D01*
X296663Y1019528D01*
X297529Y1019462D01*
X298129D01*
X298729Y1019528D01*
X299595Y1019662D01*
X300462Y1019928D01*
X301461Y1020195D01*
X302461Y1020661D01*
X303394Y1021261D01*
X303527Y1021328D01*
X303794Y1021594D01*
X304261Y1022061D01*
X304794Y1022661D01*
X305394Y1023461D01*
X306060Y1024527D01*
X306727Y1025727D01*
X307260Y1027126D01*
X313791Y1026260D01*
Y1026193D01*
X313725Y1025993D01*
X313658Y1025727D01*
X313458Y1025327D01*
X313325Y1024860D01*
X313058Y1024260D01*
X312525Y1022994D01*
X311725Y1021594D01*
X310726Y1020128D01*
X309526Y1018662D01*
X308126Y1017396D01*
X308060D01*
X307926Y1017262D01*
X307726Y1017129D01*
X307393Y1016929D01*
X306993Y1016662D01*
X306460Y1016396D01*
X305927Y1016129D01*
X305260Y1015863D01*
X304527Y1015529D01*
X303727Y1015263D01*
X302861Y1014996D01*
X301928Y1014730D01*
X299862Y1014396D01*
X298729Y1014330D01*
X297529Y1014263D01*
X297196D01*
X296729Y1014330D01*
X296196D01*
X295529Y1014396D01*
X294730Y1014530D01*
X293797Y1014663D01*
X292864Y1014863D01*
X291864Y1015129D01*
X290797Y1015463D01*
X289731Y1015863D01*
X288664Y1016396D01*
X287598Y1016929D01*
X286532Y1017596D01*
X285532Y1018395D01*
X284599Y1019262D01*
X284532Y1019328D01*
X284399Y1019528D01*
X284132Y1019795D01*
X283866Y1020195D01*
X283533Y1020728D01*
X283133Y1021328D01*
X282666Y1022061D01*
X282266Y1022861D01*
X281800Y1023861D01*
X281333Y1024860D01*
X280933Y1026060D01*
X280600Y1027260D01*
X280333Y1028659D01*
X280067Y1030059D01*
X279933Y1031592D01*
X279867Y1033258D01*
Y1033391D01*
Y1033658D01*
X279933Y1034191D01*
Y1034791D01*
X280000Y1035591D01*
X280133Y1036524D01*
X280267Y1037524D01*
X280467Y1038590D01*
X280733Y1039723D01*
X281066Y1040923D01*
X281400Y1042123D01*
X281866Y1043322D01*
X282466Y1044522D01*
X283066Y1045722D01*
X283799Y1046788D01*
X284666Y1047788D01*
X284732Y1047854D01*
X284865Y1047988D01*
X285132Y1048254D01*
X285532Y1048588D01*
X285999Y1048988D01*
X286598Y1049454D01*
X287265Y1049921D01*
X287998Y1050387D01*
X288864Y1050854D01*
X289798Y1051320D01*
X290864Y1051787D01*
X291930Y1052187D01*
X293130Y1052520D01*
X294396Y1052786D01*
X295729Y1052920D01*
X297129Y1052986D01*
X297862D01*
X298395Y1052920D01*
D02*
G37*
G36*
X151233D02*
X151833Y1052853D01*
X152566Y1052720D01*
X153433Y1052587D01*
X154299Y1052387D01*
X155232Y1052120D01*
X156232Y1051720D01*
X157232Y1051320D01*
X158231Y1050854D01*
X159298Y1050254D01*
X160297Y1049587D01*
X161231Y1048788D01*
X162164Y1047921D01*
X162230Y1047854D01*
X162364Y1047654D01*
X162630Y1047388D01*
X162897Y1046988D01*
X163230Y1046455D01*
X163630Y1045855D01*
X164096Y1045122D01*
X164563Y1044255D01*
X164963Y1043256D01*
X165429Y1042189D01*
X165829Y1041056D01*
X166163Y1039790D01*
X166429Y1038390D01*
X166696Y1036924D01*
X166829Y1035324D01*
X166896Y1033658D01*
Y1033525D01*
Y1033258D01*
Y1032725D01*
X166829Y1031992D01*
X139170D01*
Y1031925D01*
Y1031725D01*
X139236Y1031392D01*
X139303Y1030992D01*
X139369Y1030459D01*
X139436Y1029859D01*
X139703Y1028526D01*
X140169Y1026993D01*
X140769Y1025460D01*
X141569Y1023994D01*
X142035Y1023327D01*
X142569Y1022661D01*
X142635Y1022594D01*
X142702Y1022528D01*
X142902Y1022394D01*
X143102Y1022194D01*
X143835Y1021661D01*
X144701Y1021061D01*
X145835Y1020461D01*
X147167Y1019995D01*
X148700Y1019595D01*
X149500Y1019528D01*
X150367Y1019462D01*
X150967D01*
X151566Y1019528D01*
X152433Y1019662D01*
X153299Y1019928D01*
X154299Y1020195D01*
X155299Y1020661D01*
X156232Y1021261D01*
X156365Y1021328D01*
X156632Y1021594D01*
X157098Y1022061D01*
X157631Y1022661D01*
X158231Y1023461D01*
X158898Y1024527D01*
X159564Y1025727D01*
X160098Y1027126D01*
X166629Y1026260D01*
Y1026193D01*
X166562Y1025993D01*
X166496Y1025727D01*
X166296Y1025327D01*
X166163Y1024860D01*
X165896Y1024260D01*
X165363Y1022994D01*
X164563Y1021594D01*
X163563Y1020128D01*
X162364Y1018662D01*
X160964Y1017396D01*
X160897D01*
X160764Y1017262D01*
X160564Y1017129D01*
X160231Y1016929D01*
X159831Y1016662D01*
X159298Y1016396D01*
X158764Y1016129D01*
X158098Y1015863D01*
X157365Y1015529D01*
X156565Y1015263D01*
X155699Y1014996D01*
X154766Y1014730D01*
X152699Y1014396D01*
X151566Y1014330D01*
X150367Y1014263D01*
X150033D01*
X149567Y1014330D01*
X149034D01*
X148367Y1014396D01*
X147567Y1014530D01*
X146634Y1014663D01*
X145701Y1014863D01*
X144701Y1015129D01*
X143635Y1015463D01*
X142569Y1015863D01*
X141502Y1016396D01*
X140436Y1016929D01*
X139369Y1017596D01*
X138370Y1018395D01*
X137437Y1019262D01*
X137370Y1019328D01*
X137237Y1019528D01*
X136970Y1019795D01*
X136704Y1020195D01*
X136370Y1020728D01*
X135970Y1021328D01*
X135504Y1022061D01*
X135104Y1022861D01*
X134637Y1023861D01*
X134171Y1024860D01*
X133771Y1026060D01*
X133438Y1027260D01*
X133171Y1028659D01*
X132904Y1030059D01*
X132771Y1031592D01*
X132704Y1033258D01*
Y1033391D01*
Y1033658D01*
X132771Y1034191D01*
Y1034791D01*
X132838Y1035591D01*
X132971Y1036524D01*
X133104Y1037524D01*
X133304Y1038590D01*
X133571Y1039723D01*
X133904Y1040923D01*
X134237Y1042123D01*
X134704Y1043322D01*
X135304Y1044522D01*
X135904Y1045722D01*
X136637Y1046788D01*
X137503Y1047788D01*
X137570Y1047854D01*
X137703Y1047988D01*
X137970Y1048254D01*
X138370Y1048588D01*
X138836Y1048988D01*
X139436Y1049454D01*
X140103Y1049921D01*
X140836Y1050387D01*
X141702Y1050854D01*
X142635Y1051320D01*
X143702Y1051787D01*
X144768Y1052187D01*
X145968Y1052520D01*
X147234Y1052786D01*
X148567Y1052920D01*
X149967Y1052986D01*
X150700D01*
X151233Y1052920D01*
D02*
G37*
G36*
X336052D02*
X336519D01*
X337052Y1052853D01*
X337719Y1052720D01*
X338452Y1052520D01*
X339252Y1052320D01*
X340051Y1052053D01*
X340918Y1051653D01*
X341851Y1051254D01*
X342784Y1050720D01*
X343651Y1050120D01*
X344584Y1049387D01*
X345450Y1048521D01*
X346250Y1047588D01*
Y1052187D01*
X352048D01*
Y1020128D01*
Y1020061D01*
Y1019728D01*
Y1019328D01*
Y1018728D01*
X351982Y1017995D01*
Y1017196D01*
X351915Y1016329D01*
X351848Y1015396D01*
X351582Y1013397D01*
X351315Y1011330D01*
X351115Y1010397D01*
X350849Y1009464D01*
X350582Y1008664D01*
X350249Y1007931D01*
Y1007865D01*
X350182Y1007798D01*
X350049Y1007598D01*
X349916Y1007331D01*
X349516Y1006665D01*
X348916Y1005865D01*
X348116Y1004932D01*
X347183Y1003999D01*
X345983Y1003066D01*
X344650Y1002199D01*
X344584D01*
X344450Y1002133D01*
X344250Y1002000D01*
X343984Y1001866D01*
X343584Y1001733D01*
X343184Y1001533D01*
X342651Y1001333D01*
X342051Y1001133D01*
X340718Y1000733D01*
X339118Y1000400D01*
X337252Y1000133D01*
X335253Y1000067D01*
X334586D01*
X334186Y1000133D01*
X333586D01*
X332920Y1000200D01*
X332253Y1000333D01*
X331454Y1000467D01*
X329721Y1000800D01*
X327921Y1001333D01*
X326188Y1002066D01*
X325322Y1002533D01*
X324522Y1003066D01*
X324455Y1003132D01*
X324322Y1003199D01*
X324122Y1003399D01*
X323922Y1003599D01*
X323589Y1003932D01*
X323256Y1004332D01*
X322856Y1004799D01*
X322523Y1005332D01*
X322123Y1005932D01*
X321789Y1006598D01*
X321456Y1007331D01*
X321123Y1008131D01*
X320923Y1008998D01*
X320723Y1009931D01*
X320590Y1010997D01*
Y1012064D01*
X326721Y1011197D01*
Y1011064D01*
X326788Y1010731D01*
X326921Y1010264D01*
X327121Y1009664D01*
X327388Y1008931D01*
X327788Y1008265D01*
X328254Y1007598D01*
X328854Y1007065D01*
X328988Y1006998D01*
X329254Y1006798D01*
X329787Y1006465D01*
X330521Y1006198D01*
X331454Y1005865D01*
X332520Y1005532D01*
X333786Y1005332D01*
X335253Y1005265D01*
X335986D01*
X336719Y1005332D01*
X337719Y1005465D01*
X338785Y1005732D01*
X339918Y1005999D01*
X340984Y1006465D01*
X341984Y1007065D01*
X342118Y1007132D01*
X342384Y1007398D01*
X342784Y1007798D01*
X343317Y1008331D01*
X343850Y1008998D01*
X344317Y1009864D01*
X344850Y1010797D01*
X345183Y1011930D01*
Y1011997D01*
X345250Y1012330D01*
X345383Y1012863D01*
Y1013197D01*
X345450Y1013663D01*
X345517Y1014130D01*
Y1014730D01*
X345583Y1015396D01*
Y1016129D01*
X345650Y1016929D01*
Y1017862D01*
Y1018862D01*
Y1019928D01*
X345583Y1019862D01*
X345450Y1019728D01*
X345250Y1019462D01*
X344917Y1019195D01*
X344517Y1018795D01*
X344050Y1018395D01*
X343451Y1017929D01*
X342851Y1017529D01*
X342118Y1017062D01*
X341318Y1016596D01*
X339585Y1015796D01*
X338585Y1015529D01*
X337585Y1015263D01*
X336519Y1015129D01*
X335386Y1015063D01*
X335053D01*
X334653Y1015129D01*
X334120D01*
X333453Y1015263D01*
X332720Y1015329D01*
X331920Y1015529D01*
X331054Y1015729D01*
X330121Y1016063D01*
X329121Y1016396D01*
X328121Y1016862D01*
X327121Y1017396D01*
X326188Y1017995D01*
X325255Y1018728D01*
X324322Y1019595D01*
X323522Y1020528D01*
X323456Y1020595D01*
X323322Y1020795D01*
X323122Y1021061D01*
X322856Y1021528D01*
X322523Y1022061D01*
X322189Y1022661D01*
X321789Y1023461D01*
X321456Y1024260D01*
X321056Y1025194D01*
X320656Y1026193D01*
X320323Y1027260D01*
X319990Y1028459D01*
X319723Y1029726D01*
X319523Y1030992D01*
X319390Y1032392D01*
X319323Y1033791D01*
Y1033858D01*
Y1034058D01*
Y1034325D01*
Y1034724D01*
X319390Y1035191D01*
X319457Y1035724D01*
Y1036324D01*
X319590Y1036991D01*
X319790Y1038523D01*
X320123Y1040190D01*
X320590Y1041856D01*
X321256Y1043589D01*
Y1043655D01*
X321323Y1043789D01*
X321456Y1043989D01*
X321590Y1044322D01*
X321789Y1044722D01*
X322056Y1045122D01*
X322656Y1046122D01*
X323456Y1047255D01*
X324389Y1048388D01*
X325522Y1049521D01*
X326788Y1050520D01*
X326855D01*
X326988Y1050654D01*
X327188Y1050720D01*
X327455Y1050920D01*
X327788Y1051120D01*
X328188Y1051320D01*
X329254Y1051787D01*
X330521Y1052187D01*
X331987Y1052587D01*
X333586Y1052853D01*
X335386Y1052986D01*
X335653D01*
X336052Y1052920D01*
D02*
G37*
G36*
X516939Y1067116D02*
X517139Y1066783D01*
X517473Y1066316D01*
X517939Y1065650D01*
X518472Y1064850D01*
X519139Y1063917D01*
X519805Y1062851D01*
X520538Y1061651D01*
X521338Y1060385D01*
X522071Y1058985D01*
X522938Y1057519D01*
X523738Y1056052D01*
X525204Y1052853D01*
X525937Y1051187D01*
X526537Y1049521D01*
Y1049454D01*
X526670Y1049187D01*
X526804Y1048788D01*
X526937Y1048188D01*
X527203Y1047521D01*
X527403Y1046655D01*
X527670Y1045722D01*
X527937Y1044655D01*
X528137Y1043522D01*
X528403Y1042322D01*
X528670Y1040990D01*
X528870Y1039590D01*
X529136Y1036657D01*
X529270Y1033591D01*
Y1033458D01*
Y1033192D01*
Y1032658D01*
X529203Y1031992D01*
X529136Y1031125D01*
X529070Y1030126D01*
X528936Y1028993D01*
X528803Y1027793D01*
X528603Y1026393D01*
X528403Y1024994D01*
X528070Y1023461D01*
X527737Y1021928D01*
X527337Y1020262D01*
X526804Y1018662D01*
X526270Y1016996D01*
X525604Y1015329D01*
X525537Y1015263D01*
X525471Y1014930D01*
X525271Y1014463D01*
X524937Y1013863D01*
X524604Y1013130D01*
X524204Y1012197D01*
X523738Y1011197D01*
X523138Y1010131D01*
X522538Y1008998D01*
X521871Y1007731D01*
X520405Y1005199D01*
X518739Y1002533D01*
X516873Y1000000D01*
X512341D01*
Y1000067D01*
X512474Y1000200D01*
X512607Y1000400D01*
X512807Y1000733D01*
X513007Y1001133D01*
X513340Y1001666D01*
X513607Y1002199D01*
X514007Y1002866D01*
X514340Y1003599D01*
X514740Y1004399D01*
X515206Y1005265D01*
X515673Y1006198D01*
X516606Y1008198D01*
X517606Y1010464D01*
X518539Y1012930D01*
X519472Y1015529D01*
X520405Y1018329D01*
X521205Y1021261D01*
X521871Y1024260D01*
X522338Y1027326D01*
X522671Y1030459D01*
X522805Y1033591D01*
Y1033658D01*
Y1033858D01*
Y1034258D01*
Y1034724D01*
X522738Y1035324D01*
Y1035991D01*
X522671Y1036791D01*
X522605Y1037657D01*
X522538Y1038590D01*
X522405Y1039657D01*
X522138Y1041856D01*
X521805Y1044189D01*
X521272Y1046588D01*
Y1046655D01*
X521205Y1046855D01*
X521138Y1047121D01*
X521072Y1047521D01*
X520938Y1047988D01*
X520805Y1048521D01*
X520605Y1049121D01*
X520405Y1049854D01*
X519939Y1051387D01*
X519339Y1053053D01*
X518672Y1054853D01*
X517939Y1056652D01*
Y1056719D01*
X517873Y1056786D01*
X517806Y1056985D01*
X517673Y1057252D01*
X517473Y1057585D01*
X517273Y1058052D01*
X517073Y1058518D01*
X516740Y1059118D01*
X516406Y1059851D01*
X516006Y1060584D01*
X515540Y1061451D01*
X515007Y1062451D01*
X514473Y1063450D01*
X513807Y1064584D01*
X513140Y1065850D01*
X512341Y1067183D01*
X516873D01*
X516939Y1067116D01*
D02*
G37*
G36*
X234812D02*
X234678Y1066850D01*
X234478Y1066516D01*
X234212Y1065983D01*
X233879Y1065383D01*
X233479Y1064717D01*
X233012Y1063917D01*
X232546Y1063117D01*
X231612Y1061451D01*
X230679Y1059718D01*
X229880Y1058119D01*
X229480Y1057385D01*
X229213Y1056786D01*
Y1056719D01*
X229146Y1056585D01*
X229013Y1056319D01*
X228880Y1055919D01*
X228680Y1055519D01*
X228480Y1054986D01*
X228280Y1054386D01*
X228013Y1053720D01*
X227480Y1052187D01*
X226880Y1050520D01*
X226347Y1048654D01*
X225881Y1046721D01*
Y1046655D01*
X225814Y1046455D01*
X225747Y1046055D01*
X225681Y1045588D01*
X225547Y1044988D01*
X225414Y1044322D01*
X225281Y1043522D01*
X225147Y1042656D01*
X225014Y1041656D01*
X224881Y1040656D01*
X224614Y1038457D01*
X224481Y1036057D01*
X224414Y1033591D01*
Y1033525D01*
Y1033391D01*
Y1033192D01*
Y1032858D01*
X224481Y1032392D01*
Y1031925D01*
X224548Y1031325D01*
Y1030725D01*
X224681Y1029992D01*
X224748Y1029193D01*
X224814Y1028326D01*
X224947Y1027393D01*
X225281Y1025327D01*
X225747Y1023061D01*
X226280Y1020595D01*
X226947Y1017995D01*
X227813Y1015196D01*
X228813Y1012330D01*
X230013Y1009331D01*
X231413Y1006265D01*
X233012Y1003132D01*
X234878Y1000000D01*
X230346D01*
X230280Y1000067D01*
X230146Y1000333D01*
X229813Y1000667D01*
X229480Y1001200D01*
X229013Y1001799D01*
X228480Y1002533D01*
X227880Y1003399D01*
X227280Y1004399D01*
X226614Y1005465D01*
X225881Y1006665D01*
X225147Y1007931D01*
X224414Y1009264D01*
X223615Y1010664D01*
X222881Y1012197D01*
X221482Y1015329D01*
X221415Y1015463D01*
X221348Y1015729D01*
X221148Y1016196D01*
X220949Y1016862D01*
X220682Y1017662D01*
X220349Y1018595D01*
X220016Y1019728D01*
X219749Y1020928D01*
X219416Y1022261D01*
X219082Y1023661D01*
X218749Y1025194D01*
X218482Y1026727D01*
X218083Y1030059D01*
X218016Y1031859D01*
X217949Y1033591D01*
Y1033658D01*
Y1033991D01*
Y1034391D01*
X218016Y1034991D01*
Y1035791D01*
X218083Y1036657D01*
X218149Y1037590D01*
X218283Y1038723D01*
X218416Y1039856D01*
X218616Y1041123D01*
X219082Y1043855D01*
X219749Y1046655D01*
X220615Y1049521D01*
X220682Y1049654D01*
X220749Y1049921D01*
X220949Y1050387D01*
X221215Y1051054D01*
X221548Y1051853D01*
X221948Y1052786D01*
X222415Y1053853D01*
X223015Y1055053D01*
X223681Y1056319D01*
X224348Y1057719D01*
X225147Y1059185D01*
X226014Y1060718D01*
X227014Y1062317D01*
X228013Y1063917D01*
X229146Y1065517D01*
X230346Y1067183D01*
X234878D01*
X234812Y1067116D01*
D02*
G37*
%LPC*%
G36*
X524204Y1125421D02*
X523804D01*
X523538Y1125355D01*
X522738Y1125221D01*
X521805Y1124955D01*
X520672Y1124488D01*
X520072Y1124221D01*
X519472Y1123822D01*
X518872Y1123355D01*
X518272Y1122888D01*
X517673Y1122289D01*
X517073Y1121622D01*
Y1121555D01*
X516939Y1121422D01*
X516806Y1121222D01*
X516606Y1120956D01*
X516340Y1120556D01*
X516073Y1120089D01*
X515806Y1119489D01*
X515540Y1118890D01*
X515273Y1118156D01*
X515007Y1117357D01*
X514740Y1116423D01*
X514473Y1115490D01*
X514273Y1114424D01*
X514140Y1113291D01*
X514073Y1112025D01*
X514007Y1110758D01*
Y1110692D01*
Y1110425D01*
Y1110092D01*
X514073Y1109625D01*
Y1109025D01*
X514140Y1108292D01*
X514273Y1107559D01*
X514340Y1106759D01*
X514740Y1105026D01*
X515206Y1103294D01*
X515940Y1101627D01*
X516340Y1100894D01*
X516873Y1100228D01*
X516939Y1100161D01*
X517006Y1100094D01*
X517406Y1099695D01*
X518006Y1099161D01*
X518872Y1098561D01*
X519872Y1097895D01*
X521072Y1097362D01*
X522471Y1096962D01*
X523204Y1096895D01*
X523938Y1096829D01*
X524338D01*
X524671Y1096895D01*
X525004Y1096962D01*
X525404Y1097029D01*
X526404Y1097295D01*
X527537Y1097695D01*
X528736Y1098295D01*
X529336Y1098695D01*
X529936Y1099228D01*
X530536Y1099761D01*
X531136Y1100361D01*
X531202Y1100428D01*
X531269Y1100561D01*
X531402Y1100761D01*
X531602Y1101028D01*
X531802Y1101427D01*
X532069Y1101894D01*
X532336Y1102427D01*
X532669Y1103027D01*
X532935Y1103760D01*
X533202Y1104560D01*
X533469Y1105493D01*
X533669Y1106493D01*
X533868Y1107559D01*
X534002Y1108692D01*
X534135Y1109958D01*
Y1111292D01*
Y1111358D01*
Y1111625D01*
Y1111958D01*
X534068Y1112424D01*
Y1113024D01*
X534002Y1113691D01*
X533868Y1114491D01*
X533802Y1115291D01*
X533402Y1116957D01*
X532869Y1118756D01*
X532202Y1120423D01*
X531736Y1121222D01*
X531202Y1121889D01*
Y1121955D01*
X531069Y1122022D01*
X530669Y1122422D01*
X530069Y1123022D01*
X529203Y1123688D01*
X528203Y1124288D01*
X527004Y1124888D01*
X525671Y1125288D01*
X524937Y1125355D01*
X524204Y1125421D01*
D02*
G37*
G36*
X122440D02*
X122041D01*
X121774Y1125355D01*
X120974Y1125221D01*
X120041Y1124955D01*
X118908Y1124488D01*
X118308Y1124221D01*
X117708Y1123822D01*
X117108Y1123355D01*
X116509Y1122888D01*
X115909Y1122289D01*
X115309Y1121622D01*
Y1121555D01*
X115176Y1121422D01*
X115042Y1121222D01*
X114842Y1120956D01*
X114576Y1120556D01*
X114309Y1120089D01*
X114043Y1119489D01*
X113776Y1118890D01*
X113509Y1118156D01*
X113243Y1117357D01*
X112976Y1116423D01*
X112710Y1115490D01*
X112510Y1114424D01*
X112376Y1113291D01*
X112310Y1112025D01*
X112243Y1110758D01*
Y1110692D01*
Y1110425D01*
Y1110092D01*
X112310Y1109625D01*
Y1109025D01*
X112376Y1108292D01*
X112510Y1107559D01*
X112576Y1106759D01*
X112976Y1105026D01*
X113443Y1103294D01*
X114176Y1101627D01*
X114576Y1100894D01*
X115109Y1100228D01*
X115176Y1100161D01*
X115242Y1100094D01*
X115642Y1099695D01*
X116242Y1099161D01*
X117108Y1098561D01*
X118108Y1097895D01*
X119308Y1097362D01*
X120708Y1096962D01*
X121441Y1096895D01*
X122174Y1096829D01*
X122574D01*
X122907Y1096895D01*
X123240Y1096962D01*
X123640Y1097029D01*
X124640Y1097295D01*
X125773Y1097695D01*
X126973Y1098295D01*
X127572Y1098695D01*
X128172Y1099228D01*
X128772Y1099761D01*
X129372Y1100361D01*
X129439Y1100428D01*
X129505Y1100561D01*
X129639Y1100761D01*
X129839Y1101028D01*
X130038Y1101427D01*
X130305Y1101894D01*
X130572Y1102427D01*
X130905Y1103027D01*
X131172Y1103760D01*
X131438Y1104560D01*
X131705Y1105493D01*
X131905Y1106493D01*
X132105Y1107559D01*
X132238Y1108692D01*
X132371Y1109958D01*
Y1111292D01*
Y1111358D01*
Y1111625D01*
Y1111958D01*
X132305Y1112424D01*
Y1113024D01*
X132238Y1113691D01*
X132105Y1114491D01*
X132038Y1115291D01*
X131638Y1116957D01*
X131105Y1118756D01*
X130438Y1120423D01*
X129972Y1121222D01*
X129439Y1121889D01*
Y1121955D01*
X129305Y1122022D01*
X128905Y1122422D01*
X128306Y1123022D01*
X127439Y1123688D01*
X126439Y1124288D01*
X125240Y1124888D01*
X123907Y1125288D01*
X123174Y1125355D01*
X122440Y1125421D01*
D02*
G37*
G36*
X396770Y1111025D02*
X396704D01*
X396637Y1110958D01*
X396437Y1110892D01*
X396104Y1110825D01*
X395770Y1110692D01*
X395304Y1110558D01*
X394771Y1110358D01*
X394171Y1110225D01*
X393504Y1110025D01*
X392771Y1109825D01*
X391905Y1109625D01*
X390972Y1109425D01*
X389972Y1109225D01*
X388905Y1109025D01*
X387772Y1108826D01*
X386506Y1108625D01*
X386306D01*
X386173Y1108559D01*
X385906D01*
X385173Y1108426D01*
X384373Y1108292D01*
X383507Y1108092D01*
X382574Y1107892D01*
X381707Y1107626D01*
X381041Y1107359D01*
X380974D01*
X380774Y1107226D01*
X380508Y1107093D01*
X380108Y1106893D01*
X379308Y1106226D01*
X378908Y1105826D01*
X378575Y1105360D01*
X378508Y1105293D01*
X378442Y1105160D01*
X378308Y1104827D01*
X378175Y1104493D01*
X377975Y1104027D01*
X377842Y1103560D01*
X377775Y1102960D01*
X377708Y1102361D01*
Y1102227D01*
Y1101961D01*
X377842Y1101494D01*
X377975Y1100894D01*
X378175Y1100294D01*
X378508Y1099561D01*
X378975Y1098895D01*
X379575Y1098228D01*
X379641Y1098161D01*
X379908Y1097962D01*
X380374Y1097695D01*
X380974Y1097428D01*
X381774Y1097095D01*
X382774Y1096829D01*
X383907Y1096629D01*
X385173Y1096562D01*
X385773D01*
X386440Y1096629D01*
X387306Y1096762D01*
X388306Y1096962D01*
X389372Y1097228D01*
X390505Y1097562D01*
X391572Y1098095D01*
X391638D01*
X391705Y1098161D01*
X392038Y1098362D01*
X392571Y1098761D01*
X393171Y1099228D01*
X393838Y1099828D01*
X394571Y1100628D01*
X395237Y1101427D01*
X395770Y1102427D01*
X395837Y1102560D01*
X395904Y1102827D01*
X396104Y1103294D01*
X396304Y1104027D01*
X396437Y1104893D01*
X396637Y1105959D01*
X396704Y1107226D01*
X396770Y1108692D01*
Y1111025D01*
D02*
G37*
G36*
X563327Y1125155D02*
X562928D01*
X562594Y1125088D01*
X562261D01*
X561795Y1125021D01*
X560795Y1124821D01*
X559662Y1124421D01*
X558396Y1123888D01*
X557196Y1123222D01*
X556596Y1122755D01*
X555996Y1122222D01*
X555863Y1122089D01*
X555530Y1121689D01*
X555063Y1121089D01*
X554530Y1120223D01*
X553930Y1119090D01*
X553397Y1117757D01*
X552997Y1116290D01*
X552797Y1114557D01*
X573525D01*
Y1114624D01*
Y1114757D01*
X573458Y1115024D01*
X573392Y1115291D01*
Y1115690D01*
X573258Y1116157D01*
X573058Y1117157D01*
X572725Y1118290D01*
X572325Y1119423D01*
X571792Y1120556D01*
X571126Y1121489D01*
Y1121555D01*
X570992Y1121622D01*
X570792Y1121822D01*
X570592Y1122089D01*
X569926Y1122622D01*
X569059Y1123355D01*
X567926Y1124022D01*
X566593Y1124555D01*
X565060Y1125021D01*
X564194Y1125088D01*
X563327Y1125155D01*
D02*
G37*
G36*
X483548D02*
X483081D01*
X482748Y1125088D01*
X482348Y1125021D01*
X481882Y1124955D01*
X480815Y1124688D01*
X479616Y1124288D01*
X478283Y1123688D01*
X477616Y1123288D01*
X477016Y1122822D01*
X476350Y1122222D01*
X475750Y1121622D01*
Y1121555D01*
X475617Y1121489D01*
X475483Y1121222D01*
X475283Y1120956D01*
X475017Y1120556D01*
X474750Y1120156D01*
X474484Y1119623D01*
X474217Y1118956D01*
X473950Y1118290D01*
X473684Y1117490D01*
X473417Y1116624D01*
X473151Y1115624D01*
X472951Y1114624D01*
X472817Y1113491D01*
X472751Y1112225D01*
X472684Y1110958D01*
Y1110892D01*
Y1110625D01*
Y1110292D01*
X472751Y1109825D01*
Y1109225D01*
X472817Y1108559D01*
X472951Y1107759D01*
X473084Y1106959D01*
X473417Y1105293D01*
X473950Y1103493D01*
X474750Y1101827D01*
X475217Y1101094D01*
X475750Y1100361D01*
X475817Y1100294D01*
X475883Y1100228D01*
X476083Y1100028D01*
X476283Y1099828D01*
X477016Y1099228D01*
X477883Y1098628D01*
X479016Y1097962D01*
X480349Y1097362D01*
X481882Y1096962D01*
X482682Y1096895D01*
X483548Y1096829D01*
X484015D01*
X484348Y1096895D01*
X484748Y1096962D01*
X485214Y1097029D01*
X486281Y1097295D01*
X487480Y1097695D01*
X488813Y1098295D01*
X489480Y1098695D01*
X490146Y1099228D01*
X490746Y1099761D01*
X491346Y1100361D01*
X491413Y1100428D01*
X491479Y1100561D01*
X491613Y1100761D01*
X491813Y1101028D01*
X492079Y1101427D01*
X492346Y1101894D01*
X492612Y1102427D01*
X492946Y1103027D01*
X493212Y1103760D01*
X493479Y1104560D01*
X493745Y1105426D01*
X494012Y1106426D01*
X494212Y1107493D01*
X494345Y1108625D01*
X494478Y1109825D01*
Y1111158D01*
Y1111225D01*
Y1111491D01*
Y1111825D01*
X494412Y1112291D01*
Y1112891D01*
X494345Y1113491D01*
X494212Y1114224D01*
X494079Y1115024D01*
X493745Y1116690D01*
X493145Y1118423D01*
X492412Y1120089D01*
X491879Y1120889D01*
X491346Y1121555D01*
X491279Y1121622D01*
X491213Y1121689D01*
X491013Y1121889D01*
X490813Y1122089D01*
X490080Y1122689D01*
X489213Y1123355D01*
X488080Y1124022D01*
X486747Y1124621D01*
X485214Y1125021D01*
X484414Y1125088D01*
X483548Y1125155D01*
D02*
G37*
G36*
X308726D02*
X308326D01*
X307993Y1125088D01*
X307660D01*
X307193Y1125021D01*
X306193Y1124821D01*
X305060Y1124421D01*
X303794Y1123888D01*
X302594Y1123222D01*
X301994Y1122755D01*
X301395Y1122222D01*
X301261Y1122089D01*
X300928Y1121689D01*
X300462Y1121089D01*
X299928Y1120223D01*
X299328Y1119090D01*
X298795Y1117757D01*
X298395Y1116290D01*
X298195Y1114557D01*
X318923D01*
Y1114624D01*
Y1114757D01*
X318857Y1115024D01*
X318790Y1115291D01*
Y1115690D01*
X318657Y1116157D01*
X318457Y1117157D01*
X318124Y1118290D01*
X317724Y1119423D01*
X317191Y1120556D01*
X316524Y1121489D01*
Y1121555D01*
X316391Y1121622D01*
X316191Y1121822D01*
X315991Y1122089D01*
X315324Y1122622D01*
X314458Y1123355D01*
X313325Y1124022D01*
X311992Y1124555D01*
X310459Y1125021D01*
X309592Y1125088D01*
X308726Y1125155D01*
D02*
G37*
G36*
X232945D02*
X232479D01*
X232146Y1125088D01*
X231746Y1125021D01*
X231279Y1124955D01*
X230213Y1124688D01*
X229013Y1124288D01*
X227680Y1123688D01*
X227014Y1123288D01*
X226414Y1122822D01*
X225747Y1122222D01*
X225147Y1121622D01*
Y1121555D01*
X225014Y1121489D01*
X224881Y1121222D01*
X224681Y1120956D01*
X224414Y1120556D01*
X224148Y1120156D01*
X223881Y1119623D01*
X223615Y1118956D01*
X223348Y1118290D01*
X223081Y1117490D01*
X222815Y1116624D01*
X222548Y1115624D01*
X222348Y1114624D01*
X222215Y1113491D01*
X222148Y1112225D01*
X222082Y1110958D01*
Y1110892D01*
Y1110625D01*
Y1110292D01*
X222148Y1109825D01*
Y1109225D01*
X222215Y1108559D01*
X222348Y1107759D01*
X222481Y1106959D01*
X222815Y1105293D01*
X223348Y1103493D01*
X224148Y1101827D01*
X224614Y1101094D01*
X225147Y1100361D01*
X225214Y1100294D01*
X225281Y1100228D01*
X225481Y1100028D01*
X225681Y1099828D01*
X226414Y1099228D01*
X227280Y1098628D01*
X228413Y1097962D01*
X229746Y1097362D01*
X231279Y1096962D01*
X232079Y1096895D01*
X232945Y1096829D01*
X233412D01*
X233745Y1096895D01*
X234145Y1096962D01*
X234612Y1097029D01*
X235678Y1097295D01*
X236878Y1097695D01*
X238211Y1098295D01*
X238877Y1098695D01*
X239544Y1099228D01*
X240144Y1099761D01*
X240744Y1100361D01*
X240810Y1100428D01*
X240877Y1100561D01*
X241010Y1100761D01*
X241210Y1101028D01*
X241477Y1101427D01*
X241743Y1101894D01*
X242010Y1102427D01*
X242343Y1103027D01*
X242610Y1103760D01*
X242876Y1104560D01*
X243143Y1105426D01*
X243410Y1106426D01*
X243609Y1107493D01*
X243743Y1108625D01*
X243876Y1109825D01*
Y1111158D01*
Y1111225D01*
Y1111491D01*
Y1111825D01*
X243809Y1112291D01*
Y1112891D01*
X243743Y1113491D01*
X243609Y1114224D01*
X243476Y1115024D01*
X243143Y1116690D01*
X242543Y1118423D01*
X241810Y1120089D01*
X241277Y1120889D01*
X240744Y1121555D01*
X240677Y1121622D01*
X240610Y1121689D01*
X240410Y1121889D01*
X240210Y1122089D01*
X239477Y1122689D01*
X238611Y1123355D01*
X237478Y1124022D01*
X236145Y1124621D01*
X234612Y1125021D01*
X233812Y1125088D01*
X232945Y1125155D01*
D02*
G37*
G36*
X81784D02*
X81318D01*
X80984Y1125088D01*
X80584Y1125021D01*
X80118Y1124955D01*
X79052Y1124688D01*
X77852Y1124288D01*
X76519Y1123688D01*
X75852Y1123288D01*
X75252Y1122822D01*
X74586Y1122222D01*
X73986Y1121622D01*
Y1121555D01*
X73853Y1121489D01*
X73720Y1121222D01*
X73520Y1120956D01*
X73253Y1120556D01*
X72986Y1120156D01*
X72720Y1119623D01*
X72453Y1118956D01*
X72187Y1118290D01*
X71920Y1117490D01*
X71653Y1116624D01*
X71387Y1115624D01*
X71187Y1114624D01*
X71054Y1113491D01*
X70987Y1112225D01*
X70920Y1110958D01*
Y1110892D01*
Y1110625D01*
Y1110292D01*
X70987Y1109825D01*
Y1109225D01*
X71054Y1108559D01*
X71187Y1107759D01*
X71320Y1106959D01*
X71653Y1105293D01*
X72187Y1103493D01*
X72986Y1101827D01*
X73453Y1101094D01*
X73986Y1100361D01*
X74053Y1100294D01*
X74120Y1100228D01*
X74319Y1100028D01*
X74519Y1099828D01*
X75252Y1099228D01*
X76119Y1098628D01*
X77252Y1097962D01*
X78585Y1097362D01*
X80118Y1096962D01*
X80918Y1096895D01*
X81784Y1096829D01*
X82251D01*
X82584Y1096895D01*
X82984Y1096962D01*
X83450Y1097029D01*
X84517Y1097295D01*
X85716Y1097695D01*
X87050Y1098295D01*
X87716Y1098695D01*
X88383Y1099228D01*
X88982Y1099761D01*
X89582Y1100361D01*
X89649Y1100428D01*
X89715Y1100561D01*
X89849Y1100761D01*
X90049Y1101028D01*
X90315Y1101427D01*
X90582Y1101894D01*
X90849Y1102427D01*
X91182Y1103027D01*
X91448Y1103760D01*
X91715Y1104560D01*
X91982Y1105426D01*
X92248Y1106426D01*
X92448Y1107493D01*
X92581Y1108625D01*
X92715Y1109825D01*
Y1111158D01*
Y1111225D01*
Y1111491D01*
Y1111825D01*
X92648Y1112291D01*
Y1112891D01*
X92581Y1113491D01*
X92448Y1114224D01*
X92315Y1115024D01*
X91982Y1116690D01*
X91382Y1118423D01*
X90649Y1120089D01*
X90115Y1120889D01*
X89582Y1121555D01*
X89515Y1121622D01*
X89449Y1121689D01*
X89249Y1121889D01*
X89049Y1122089D01*
X88316Y1122689D01*
X87449Y1123355D01*
X86316Y1124022D01*
X84983Y1124621D01*
X83450Y1125021D01*
X82651Y1125088D01*
X81784Y1125155D01*
D02*
G37*
G36*
X697493D02*
X697093D01*
X696827Y1125088D01*
X696027Y1124955D01*
X695027Y1124755D01*
X693894Y1124288D01*
X692694Y1123688D01*
X692095Y1123288D01*
X691495Y1122822D01*
X690895Y1122289D01*
X690362Y1121689D01*
Y1121622D01*
X690228Y1121555D01*
X690095Y1121356D01*
X689895Y1121089D01*
X689695Y1120689D01*
X689429Y1120289D01*
X689162Y1119756D01*
X688895Y1119156D01*
X688629Y1118490D01*
X688362Y1117757D01*
X688096Y1116890D01*
X687896Y1116024D01*
X687696Y1115024D01*
X687562Y1113958D01*
X687496Y1112824D01*
X687429Y1111625D01*
Y1111558D01*
Y1111292D01*
Y1110958D01*
X687496Y1110425D01*
Y1109825D01*
X687562Y1109159D01*
X687696Y1108359D01*
X687762Y1107559D01*
X688162Y1105826D01*
X688629Y1104027D01*
X689362Y1102361D01*
X689762Y1101627D01*
X690295Y1100961D01*
X690362Y1100894D01*
X690428Y1100827D01*
X690828Y1100428D01*
X691428Y1099894D01*
X692294Y1099295D01*
X693361Y1098695D01*
X694627Y1098161D01*
X696027Y1097762D01*
X696827Y1097695D01*
X697626Y1097628D01*
X698026D01*
X698360Y1097695D01*
X698693Y1097762D01*
X699159Y1097828D01*
X700159Y1098028D01*
X701292Y1098428D01*
X702492Y1099028D01*
X703158Y1099428D01*
X703758Y1099894D01*
X704358Y1100361D01*
X704891Y1100961D01*
X704958Y1101028D01*
X705025Y1101094D01*
X705158Y1101294D01*
X705358Y1101627D01*
X705558Y1101961D01*
X705824Y1102361D01*
X706091Y1102894D01*
X706358Y1103493D01*
X706624Y1104227D01*
X706891Y1104960D01*
X707157Y1105826D01*
X707357Y1106759D01*
X707557Y1107826D01*
X707691Y1108959D01*
X707824Y1110158D01*
Y1111425D01*
Y1111491D01*
Y1111758D01*
Y1112091D01*
X707757Y1112558D01*
Y1113091D01*
X707691Y1113757D01*
X707557Y1114491D01*
X707424Y1115291D01*
X707091Y1116890D01*
X706557Y1118623D01*
X705758Y1120223D01*
X705291Y1121022D01*
X704758Y1121689D01*
Y1121756D01*
X704625Y1121822D01*
X704225Y1122222D01*
X703558Y1122755D01*
X702758Y1123422D01*
X701692Y1124088D01*
X700426Y1124621D01*
X699026Y1125021D01*
X698293Y1125088D01*
X697493Y1125155D01*
D02*
G37*
G36*
X385240Y1033658D02*
X385173D01*
X385107Y1033591D01*
X384907Y1033525D01*
X384573Y1033458D01*
X384240Y1033325D01*
X383773Y1033192D01*
X383240Y1032992D01*
X382640Y1032858D01*
X381974Y1032658D01*
X381241Y1032458D01*
X380374Y1032258D01*
X379441Y1032058D01*
X378442Y1031859D01*
X377375Y1031659D01*
X376242Y1031459D01*
X374976Y1031259D01*
X374776D01*
X374642Y1031192D01*
X374376D01*
X373643Y1031059D01*
X372843Y1030925D01*
X371977Y1030725D01*
X371044Y1030526D01*
X370177Y1030259D01*
X369510Y1029992D01*
X369444D01*
X369244Y1029859D01*
X368977Y1029726D01*
X368577Y1029526D01*
X367778Y1028859D01*
X367378Y1028459D01*
X367044Y1027993D01*
X366978Y1027926D01*
X366911Y1027793D01*
X366778Y1027460D01*
X366645Y1027126D01*
X366445Y1026660D01*
X366311Y1026193D01*
X366245Y1025593D01*
X366178Y1024994D01*
Y1024860D01*
Y1024594D01*
X366311Y1024127D01*
X366445Y1023527D01*
X366645Y1022927D01*
X366978Y1022194D01*
X367444Y1021528D01*
X368044Y1020861D01*
X368111Y1020795D01*
X368377Y1020595D01*
X368844Y1020328D01*
X369444Y1020061D01*
X370244Y1019728D01*
X371243Y1019462D01*
X372376Y1019262D01*
X373643Y1019195D01*
X374243D01*
X374909Y1019262D01*
X375776Y1019395D01*
X376775Y1019595D01*
X377842Y1019862D01*
X378975Y1020195D01*
X380041Y1020728D01*
X380108D01*
X380174Y1020795D01*
X380508Y1020995D01*
X381041Y1021395D01*
X381641Y1021861D01*
X382307Y1022461D01*
X383040Y1023261D01*
X383707Y1024061D01*
X384240Y1025060D01*
X384307Y1025194D01*
X384373Y1025460D01*
X384573Y1025927D01*
X384773Y1026660D01*
X384907Y1027526D01*
X385107Y1028593D01*
X385173Y1029859D01*
X385240Y1031325D01*
Y1033658D01*
D02*
G37*
G36*
X82917D02*
X82851D01*
X82784Y1033591D01*
X82584Y1033525D01*
X82251Y1033458D01*
X81917Y1033325D01*
X81451Y1033192D01*
X80918Y1032992D01*
X80318Y1032858D01*
X79651Y1032658D01*
X78918Y1032458D01*
X78052Y1032258D01*
X77119Y1032058D01*
X76119Y1031859D01*
X75053Y1031659D01*
X73920Y1031459D01*
X72653Y1031259D01*
X72453D01*
X72320Y1031192D01*
X72053D01*
X71320Y1031059D01*
X70520Y1030925D01*
X69654Y1030725D01*
X68721Y1030526D01*
X67854Y1030259D01*
X67188Y1029992D01*
X67121D01*
X66921Y1029859D01*
X66655Y1029726D01*
X66255Y1029526D01*
X65455Y1028859D01*
X65055Y1028459D01*
X64722Y1027993D01*
X64655Y1027926D01*
X64589Y1027793D01*
X64455Y1027460D01*
X64322Y1027126D01*
X64122Y1026660D01*
X63989Y1026193D01*
X63922Y1025593D01*
X63855Y1024994D01*
Y1024860D01*
Y1024594D01*
X63989Y1024127D01*
X64122Y1023527D01*
X64322Y1022927D01*
X64655Y1022194D01*
X65122Y1021528D01*
X65722Y1020861D01*
X65788Y1020795D01*
X66055Y1020595D01*
X66521Y1020328D01*
X67121Y1020061D01*
X67921Y1019728D01*
X68921Y1019462D01*
X70054Y1019262D01*
X71320Y1019195D01*
X71920D01*
X72586Y1019262D01*
X73453Y1019395D01*
X74453Y1019595D01*
X75519Y1019862D01*
X76652Y1020195D01*
X77719Y1020728D01*
X77785D01*
X77852Y1020795D01*
X78185Y1020995D01*
X78718Y1021395D01*
X79318Y1021861D01*
X79985Y1022461D01*
X80718Y1023261D01*
X81384Y1024061D01*
X81917Y1025060D01*
X81984Y1025194D01*
X82051Y1025460D01*
X82251Y1025927D01*
X82451Y1026660D01*
X82584Y1027526D01*
X82784Y1028593D01*
X82851Y1029859D01*
X82917Y1031325D01*
Y1033658D01*
D02*
G37*
G36*
X488147Y1047788D02*
X487747D01*
X487414Y1047721D01*
X487080D01*
X486614Y1047654D01*
X485614Y1047455D01*
X484481Y1047055D01*
X483215Y1046521D01*
X482015Y1045855D01*
X481415Y1045388D01*
X480815Y1044855D01*
X480682Y1044722D01*
X480349Y1044322D01*
X479882Y1043722D01*
X479349Y1042856D01*
X478749Y1041723D01*
X478216Y1040390D01*
X477816Y1038923D01*
X477616Y1037190D01*
X498344D01*
Y1037257D01*
Y1037390D01*
X498278Y1037657D01*
X498211Y1037924D01*
Y1038324D01*
X498078Y1038790D01*
X497878Y1039790D01*
X497544Y1040923D01*
X497145Y1042056D01*
X496611Y1043189D01*
X495945Y1044122D01*
Y1044189D01*
X495812Y1044255D01*
X495612Y1044455D01*
X495412Y1044722D01*
X494745Y1045255D01*
X493879Y1045988D01*
X492746Y1046655D01*
X491413Y1047188D01*
X489880Y1047654D01*
X489013Y1047721D01*
X488147Y1047788D01*
D02*
G37*
G36*
X297196D02*
X296796D01*
X296463Y1047721D01*
X296129D01*
X295663Y1047654D01*
X294663Y1047455D01*
X293530Y1047055D01*
X292264Y1046521D01*
X291064Y1045855D01*
X290464Y1045388D01*
X289864Y1044855D01*
X289731Y1044722D01*
X289398Y1044322D01*
X288931Y1043722D01*
X288398Y1042856D01*
X287798Y1041723D01*
X287265Y1040390D01*
X286865Y1038923D01*
X286665Y1037190D01*
X307393D01*
Y1037257D01*
Y1037390D01*
X307326Y1037657D01*
X307260Y1037924D01*
Y1038324D01*
X307127Y1038790D01*
X306926Y1039790D01*
X306593Y1040923D01*
X306193Y1042056D01*
X305660Y1043189D01*
X304994Y1044122D01*
Y1044189D01*
X304860Y1044255D01*
X304660Y1044455D01*
X304461Y1044722D01*
X303794Y1045255D01*
X302928Y1045988D01*
X301794Y1046655D01*
X300462Y1047188D01*
X298929Y1047654D01*
X298062Y1047721D01*
X297196Y1047788D01*
D02*
G37*
G36*
X150033D02*
X149634D01*
X149300Y1047721D01*
X148967D01*
X148500Y1047654D01*
X147501Y1047455D01*
X146368Y1047055D01*
X145101Y1046521D01*
X143902Y1045855D01*
X143302Y1045388D01*
X142702Y1044855D01*
X142569Y1044722D01*
X142235Y1044322D01*
X141769Y1043722D01*
X141236Y1042856D01*
X140636Y1041723D01*
X140103Y1040390D01*
X139703Y1038923D01*
X139503Y1037190D01*
X160231D01*
Y1037257D01*
Y1037390D01*
X160164Y1037657D01*
X160098Y1037924D01*
Y1038324D01*
X159964Y1038790D01*
X159764Y1039790D01*
X159431Y1040923D01*
X159031Y1042056D01*
X158498Y1043189D01*
X157831Y1044122D01*
Y1044189D01*
X157698Y1044255D01*
X157498Y1044455D01*
X157298Y1044722D01*
X156632Y1045255D01*
X155765Y1045988D01*
X154632Y1046655D01*
X153299Y1047188D01*
X151766Y1047654D01*
X150900Y1047721D01*
X150033Y1047788D01*
D02*
G37*
G36*
X335853D02*
X335453D01*
X335186Y1047721D01*
X334386Y1047588D01*
X333386Y1047388D01*
X332253Y1046921D01*
X331054Y1046321D01*
X330454Y1045922D01*
X329854Y1045455D01*
X329254Y1044922D01*
X328721Y1044322D01*
Y1044255D01*
X328588Y1044189D01*
X328454Y1043989D01*
X328254Y1043722D01*
X328055Y1043322D01*
X327788Y1042922D01*
X327521Y1042389D01*
X327255Y1041789D01*
X326988Y1041123D01*
X326721Y1040390D01*
X326455Y1039523D01*
X326255Y1038657D01*
X326055Y1037657D01*
X325922Y1036591D01*
X325855Y1035458D01*
X325788Y1034258D01*
Y1034191D01*
Y1033925D01*
Y1033591D01*
X325855Y1033058D01*
Y1032458D01*
X325922Y1031792D01*
X326055Y1030992D01*
X326122Y1030192D01*
X326521Y1028459D01*
X326988Y1026660D01*
X327721Y1024994D01*
X328121Y1024260D01*
X328654Y1023594D01*
X328721Y1023527D01*
X328788Y1023461D01*
X329188Y1023061D01*
X329787Y1022528D01*
X330654Y1021928D01*
X331720Y1021328D01*
X332986Y1020795D01*
X334386Y1020395D01*
X335186Y1020328D01*
X335986Y1020262D01*
X336386D01*
X336719Y1020328D01*
X337052Y1020395D01*
X337519Y1020461D01*
X338518Y1020661D01*
X339651Y1021061D01*
X340851Y1021661D01*
X341518Y1022061D01*
X342118Y1022528D01*
X342717Y1022994D01*
X343251Y1023594D01*
X343317Y1023661D01*
X343384Y1023727D01*
X343517Y1023927D01*
X343717Y1024260D01*
X343917Y1024594D01*
X344184Y1024994D01*
X344450Y1025527D01*
X344717Y1026127D01*
X344983Y1026860D01*
X345250Y1027593D01*
X345517Y1028459D01*
X345717Y1029392D01*
X345917Y1030459D01*
X346050Y1031592D01*
X346183Y1032792D01*
Y1034058D01*
Y1034125D01*
Y1034391D01*
Y1034724D01*
X346116Y1035191D01*
Y1035724D01*
X346050Y1036391D01*
X345917Y1037124D01*
X345783Y1037924D01*
X345450Y1039523D01*
X344917Y1041256D01*
X344117Y1042856D01*
X343651Y1043655D01*
X343117Y1044322D01*
Y1044389D01*
X342984Y1044455D01*
X342584Y1044855D01*
X341918Y1045388D01*
X341118Y1046055D01*
X340051Y1046721D01*
X338785Y1047255D01*
X337385Y1047654D01*
X336652Y1047721D01*
X335853Y1047788D01*
D02*
G37*
%LPD*%
D11*
X2344000Y496950D02*
D03*
Y509650D02*
D03*
Y522350D02*
D03*
Y535050D02*
D03*
Y484250D02*
D03*
Y458850D02*
D03*
Y446150D02*
D03*
Y420750D02*
D03*
Y433450D02*
D03*
Y471550D02*
D03*
Y408050D02*
D03*
X2458500Y535050D02*
D03*
Y522350D02*
D03*
Y509650D02*
D03*
Y496950D02*
D03*
Y484250D02*
D03*
Y471550D02*
D03*
Y458850D02*
D03*
Y446150D02*
D03*
Y433450D02*
D03*
Y420750D02*
D03*
Y408050D02*
D03*
X2089000Y496950D02*
D03*
Y509650D02*
D03*
Y522350D02*
D03*
Y535050D02*
D03*
Y484250D02*
D03*
Y458850D02*
D03*
Y446150D02*
D03*
Y420750D02*
D03*
Y433450D02*
D03*
Y471550D02*
D03*
Y408050D02*
D03*
X2203500Y535050D02*
D03*
Y522350D02*
D03*
Y509650D02*
D03*
Y496950D02*
D03*
Y484250D02*
D03*
Y471550D02*
D03*
Y458850D02*
D03*
Y446150D02*
D03*
Y433450D02*
D03*
Y420750D02*
D03*
Y408050D02*
D03*
X1834000Y496950D02*
D03*
Y509650D02*
D03*
Y522350D02*
D03*
Y535050D02*
D03*
Y484250D02*
D03*
Y458850D02*
D03*
Y446150D02*
D03*
Y420750D02*
D03*
Y433450D02*
D03*
Y471550D02*
D03*
Y408050D02*
D03*
X1948500Y535050D02*
D03*
Y522350D02*
D03*
Y509650D02*
D03*
Y496950D02*
D03*
Y484250D02*
D03*
Y471550D02*
D03*
Y458850D02*
D03*
Y446150D02*
D03*
Y433450D02*
D03*
Y420750D02*
D03*
Y408050D02*
D03*
X1579000Y496950D02*
D03*
Y509650D02*
D03*
Y522350D02*
D03*
Y535050D02*
D03*
Y484250D02*
D03*
Y458850D02*
D03*
Y446150D02*
D03*
Y420750D02*
D03*
Y433450D02*
D03*
Y471550D02*
D03*
Y408050D02*
D03*
X1693500Y535050D02*
D03*
Y522350D02*
D03*
Y509650D02*
D03*
Y496950D02*
D03*
Y484250D02*
D03*
Y471550D02*
D03*
Y458850D02*
D03*
Y446150D02*
D03*
Y433450D02*
D03*
Y420750D02*
D03*
Y408050D02*
D03*
X1324000Y496950D02*
D03*
Y509650D02*
D03*
Y522350D02*
D03*
Y535050D02*
D03*
Y484250D02*
D03*
Y458850D02*
D03*
Y446150D02*
D03*
Y420750D02*
D03*
Y433450D02*
D03*
Y471550D02*
D03*
Y408050D02*
D03*
X1438500Y535050D02*
D03*
Y522350D02*
D03*
Y509650D02*
D03*
Y496950D02*
D03*
Y484250D02*
D03*
Y471550D02*
D03*
Y458850D02*
D03*
Y446150D02*
D03*
Y433450D02*
D03*
Y420750D02*
D03*
Y408050D02*
D03*
X1069000Y496950D02*
D03*
Y509650D02*
D03*
Y522350D02*
D03*
Y535050D02*
D03*
Y484250D02*
D03*
Y458850D02*
D03*
Y446150D02*
D03*
Y420750D02*
D03*
Y433450D02*
D03*
Y471550D02*
D03*
Y408050D02*
D03*
X1183500Y535050D02*
D03*
Y522350D02*
D03*
Y509650D02*
D03*
Y496950D02*
D03*
Y484250D02*
D03*
Y471550D02*
D03*
Y458850D02*
D03*
Y446150D02*
D03*
Y433450D02*
D03*
Y420750D02*
D03*
Y408050D02*
D03*
X814000Y496950D02*
D03*
Y509650D02*
D03*
Y522350D02*
D03*
Y535050D02*
D03*
Y484250D02*
D03*
Y458850D02*
D03*
Y446150D02*
D03*
Y420750D02*
D03*
Y433450D02*
D03*
Y471550D02*
D03*
Y408050D02*
D03*
X928500Y535050D02*
D03*
Y522350D02*
D03*
Y509650D02*
D03*
Y496950D02*
D03*
Y484250D02*
D03*
Y471550D02*
D03*
Y458850D02*
D03*
Y446150D02*
D03*
Y433450D02*
D03*
Y420750D02*
D03*
Y408050D02*
D03*
X559000Y496950D02*
D03*
Y509650D02*
D03*
Y522350D02*
D03*
Y535050D02*
D03*
Y484250D02*
D03*
Y458850D02*
D03*
Y446150D02*
D03*
Y420750D02*
D03*
Y433450D02*
D03*
Y471550D02*
D03*
Y408050D02*
D03*
X673500Y535050D02*
D03*
Y522350D02*
D03*
Y509650D02*
D03*
Y496950D02*
D03*
Y484250D02*
D03*
Y471550D02*
D03*
Y458850D02*
D03*
Y446150D02*
D03*
Y433450D02*
D03*
Y420750D02*
D03*
Y408050D02*
D03*
X304000Y496950D02*
D03*
Y509650D02*
D03*
Y522350D02*
D03*
Y535050D02*
D03*
Y484250D02*
D03*
Y458850D02*
D03*
Y446150D02*
D03*
Y420750D02*
D03*
Y433450D02*
D03*
Y471550D02*
D03*
Y408050D02*
D03*
X418500Y535050D02*
D03*
Y522350D02*
D03*
Y509650D02*
D03*
Y496950D02*
D03*
Y484250D02*
D03*
Y471550D02*
D03*
Y458850D02*
D03*
Y446150D02*
D03*
Y433450D02*
D03*
Y420750D02*
D03*
Y408050D02*
D03*
D12*
X2370000Y414550D02*
D03*
X2371000Y465550D02*
D03*
X2370000Y439950D02*
D03*
X2432500Y415000D02*
D03*
Y440400D02*
D03*
Y465800D02*
D03*
X2370000Y503450D02*
D03*
X2432500Y529300D02*
D03*
Y503900D02*
D03*
X2370000Y528850D02*
D03*
X2115000Y414550D02*
D03*
X2116000Y465550D02*
D03*
X2115000Y439950D02*
D03*
X2177500Y415000D02*
D03*
Y440400D02*
D03*
Y465800D02*
D03*
X2115000Y503450D02*
D03*
X2177500Y529300D02*
D03*
Y503900D02*
D03*
X2115000Y528850D02*
D03*
X1860000Y414550D02*
D03*
X1861000Y465550D02*
D03*
X1860000Y439950D02*
D03*
X1922500Y415000D02*
D03*
Y440400D02*
D03*
Y465800D02*
D03*
X1860000Y503450D02*
D03*
X1922500Y529300D02*
D03*
Y503900D02*
D03*
X1860000Y528850D02*
D03*
X1605000Y414550D02*
D03*
X1606000Y465550D02*
D03*
X1605000Y439950D02*
D03*
X1667500Y415000D02*
D03*
Y440400D02*
D03*
Y465800D02*
D03*
X1605000Y503450D02*
D03*
X1667500Y529300D02*
D03*
Y503900D02*
D03*
X1605000Y528850D02*
D03*
X1350000Y414550D02*
D03*
X1351000Y465550D02*
D03*
X1350000Y439950D02*
D03*
X1412500Y415000D02*
D03*
Y440400D02*
D03*
Y465800D02*
D03*
X1350000Y503450D02*
D03*
X1412500Y529300D02*
D03*
Y503900D02*
D03*
X1350000Y528850D02*
D03*
X1095000Y414550D02*
D03*
X1096000Y465550D02*
D03*
X1095000Y439950D02*
D03*
X1157500Y415000D02*
D03*
Y440400D02*
D03*
Y465800D02*
D03*
X1095000Y503450D02*
D03*
X1157500Y529300D02*
D03*
Y503900D02*
D03*
X1095000Y528850D02*
D03*
X840000Y414550D02*
D03*
X841000Y465550D02*
D03*
X840000Y439950D02*
D03*
X902500Y415000D02*
D03*
Y440400D02*
D03*
Y465800D02*
D03*
X840000Y503450D02*
D03*
X902500Y529300D02*
D03*
Y503900D02*
D03*
X840000Y528850D02*
D03*
X585000Y414550D02*
D03*
X586000Y465550D02*
D03*
X585000Y439950D02*
D03*
X647500Y415000D02*
D03*
Y440400D02*
D03*
Y465800D02*
D03*
X585000Y503450D02*
D03*
X647500Y529300D02*
D03*
Y503900D02*
D03*
X585000Y528850D02*
D03*
X330000Y414550D02*
D03*
X331000Y465550D02*
D03*
X330000Y439950D02*
D03*
X392500Y415000D02*
D03*
Y440400D02*
D03*
Y465800D02*
D03*
X330000Y503450D02*
D03*
X392500Y529300D02*
D03*
Y503900D02*
D03*
X330000Y528850D02*
D03*
M02*
