G04*
G04 #@! TF.GenerationSoftware,Altium Limited,Altium Designer,25.0.2 (28)*
G04*
G04 Layer_Color=32896*
%FSLAX44Y44*%
%MOMM*%
G71*
G04*
G04 #@! TF.SameCoordinates,F5B53509-386E-4AF8-9846-D30C52800222*
G04*
G04*
G04 #@! TF.FilePolarity,Positive*
G04*
G01*
G75*
%ADD10C,0.1500*%
G36*
X702425Y1352787D02*
X703225Y1352653D01*
X704225Y1352387D01*
X705358Y1352053D01*
X706491Y1351520D01*
X707757Y1350854D01*
X705558Y1345055D01*
X705424Y1345122D01*
X705158Y1345255D01*
X704691Y1345455D01*
X704091Y1345722D01*
X703425Y1345988D01*
X702625Y1346188D01*
X701759Y1346322D01*
X700892Y1346388D01*
X700559D01*
X700159Y1346322D01*
X699626Y1346255D01*
X699093Y1346055D01*
X698426Y1345855D01*
X697826Y1345522D01*
X697160Y1345122D01*
X697093Y1345055D01*
X696893Y1344922D01*
X696627Y1344589D01*
X696293Y1344189D01*
X695894Y1343722D01*
X695494Y1343122D01*
X695161Y1342456D01*
X694827Y1341656D01*
Y1341589D01*
X694761Y1341523D01*
Y1341323D01*
X694694Y1341056D01*
X694494Y1340390D01*
X694361Y1339523D01*
X694161Y1338390D01*
X693961Y1337191D01*
X693894Y1335791D01*
X693828Y1334325D01*
Y1314996D01*
X687562D01*
Y1352120D01*
X693228D01*
Y1346455D01*
X693294Y1346588D01*
X693428Y1346788D01*
X693561Y1347055D01*
X694027Y1347721D01*
X694494Y1348521D01*
X695094Y1349454D01*
X695760Y1350320D01*
X696494Y1351054D01*
X697160Y1351653D01*
X697227Y1351720D01*
X697493Y1351853D01*
X697893Y1352053D01*
X698360Y1352320D01*
X698960Y1352520D01*
X699693Y1352720D01*
X700426Y1352853D01*
X701226Y1352920D01*
X701759D01*
X702425Y1352787D01*
D02*
G37*
G36*
X412033D02*
X412833Y1352653D01*
X413833Y1352387D01*
X414966Y1352053D01*
X416099Y1351520D01*
X417365Y1350854D01*
X415165Y1345055D01*
X415032Y1345122D01*
X414766Y1345255D01*
X414299Y1345455D01*
X413699Y1345722D01*
X413033Y1345988D01*
X412233Y1346188D01*
X411367Y1346322D01*
X410500Y1346388D01*
X410167D01*
X409767Y1346322D01*
X409234Y1346255D01*
X408700Y1346055D01*
X408034Y1345855D01*
X407434Y1345522D01*
X406768Y1345122D01*
X406701Y1345055D01*
X406501Y1344922D01*
X406234Y1344589D01*
X405901Y1344189D01*
X405501Y1343722D01*
X405101Y1343122D01*
X404768Y1342456D01*
X404435Y1341656D01*
Y1341589D01*
X404368Y1341523D01*
Y1341323D01*
X404302Y1341056D01*
X404102Y1340390D01*
X403968Y1339523D01*
X403768Y1338390D01*
X403568Y1337191D01*
X403502Y1335791D01*
X403435Y1334325D01*
Y1314996D01*
X397170D01*
Y1352120D01*
X402835D01*
Y1346455D01*
X402902Y1346588D01*
X403035Y1346788D01*
X403169Y1347055D01*
X403635Y1347721D01*
X404102Y1348521D01*
X404701Y1349454D01*
X405368Y1350320D01*
X406101Y1351054D01*
X406768Y1351653D01*
X406834Y1351720D01*
X407101Y1351853D01*
X407501Y1352053D01*
X407967Y1352320D01*
X408567Y1352520D01*
X409300Y1352720D01*
X410033Y1352853D01*
X410833Y1352920D01*
X411367D01*
X412033Y1352787D01*
D02*
G37*
G36*
X226214Y1352853D02*
X226680D01*
X227214Y1352787D01*
X228480Y1352520D01*
X229813Y1352187D01*
X231213Y1351653D01*
X232612Y1350854D01*
X233212Y1350387D01*
X233812Y1349854D01*
X233879Y1349787D01*
X233945Y1349721D01*
X234079Y1349521D01*
X234279Y1349254D01*
X234478Y1348921D01*
X234745Y1348521D01*
X235012Y1348054D01*
X235345Y1347521D01*
X235611Y1346921D01*
X235878Y1346188D01*
X236145Y1345455D01*
X236345Y1344589D01*
X236545Y1343656D01*
X236678Y1342656D01*
X236811Y1341523D01*
Y1340390D01*
Y1314996D01*
X230546D01*
Y1338324D01*
Y1338390D01*
Y1338457D01*
Y1338657D01*
Y1338923D01*
Y1339590D01*
X230479Y1340390D01*
X230413Y1341256D01*
X230280Y1342189D01*
X230146Y1342989D01*
X229946Y1343722D01*
Y1343789D01*
X229813Y1343989D01*
X229680Y1344322D01*
X229413Y1344655D01*
X229146Y1345122D01*
X228747Y1345522D01*
X228280Y1345988D01*
X227680Y1346388D01*
X227614Y1346455D01*
X227414Y1346588D01*
X227080Y1346721D01*
X226614Y1346921D01*
X226081Y1347121D01*
X225414Y1347321D01*
X224748Y1347388D01*
X223948Y1347455D01*
X223548D01*
X223281Y1347388D01*
X222548Y1347321D01*
X221615Y1347121D01*
X220549Y1346788D01*
X219482Y1346322D01*
X218349Y1345655D01*
X217349Y1344789D01*
X217216Y1344655D01*
X216950Y1344322D01*
X216550Y1343656D01*
X216083Y1342789D01*
X215816Y1342256D01*
X215550Y1341656D01*
X215350Y1340923D01*
X215150Y1340190D01*
X215017Y1339390D01*
X214883Y1338524D01*
X214750Y1337524D01*
Y1336524D01*
Y1314996D01*
X208485D01*
Y1339057D01*
Y1339123D01*
Y1339257D01*
Y1339457D01*
Y1339723D01*
X208418Y1340523D01*
X208285Y1341389D01*
X208085Y1342456D01*
X207819Y1343456D01*
X207485Y1344455D01*
X206952Y1345322D01*
X206886Y1345388D01*
X206686Y1345655D01*
X206286Y1345988D01*
X205752Y1346388D01*
X205086Y1346788D01*
X204219Y1347121D01*
X203153Y1347388D01*
X201953Y1347455D01*
X201487D01*
X201020Y1347388D01*
X200354Y1347255D01*
X199554Y1347121D01*
X198754Y1346855D01*
X197888Y1346521D01*
X197021Y1346055D01*
X196955Y1345988D01*
X196621Y1345788D01*
X196222Y1345455D01*
X195755Y1344989D01*
X195222Y1344455D01*
X194689Y1343722D01*
X194155Y1342856D01*
X193689Y1341923D01*
X193622Y1341789D01*
X193556Y1341456D01*
X193356Y1340790D01*
X193222Y1339990D01*
X193022Y1338857D01*
X192822Y1337524D01*
X192756Y1335991D01*
X192689Y1334191D01*
Y1314996D01*
X186424D01*
Y1352120D01*
X192023D01*
Y1346855D01*
X192089Y1346988D01*
X192356Y1347321D01*
X192756Y1347788D01*
X193289Y1348454D01*
X193955Y1349121D01*
X194755Y1349854D01*
X195688Y1350587D01*
X196688Y1351254D01*
X196755D01*
X196821Y1351320D01*
X197221Y1351520D01*
X197821Y1351787D01*
X198621Y1352120D01*
X199621Y1352387D01*
X200687Y1352653D01*
X201953Y1352853D01*
X203286Y1352920D01*
X203953D01*
X204753Y1352853D01*
X205686Y1352720D01*
X206752Y1352520D01*
X207885Y1352187D01*
X208952Y1351787D01*
X210018Y1351187D01*
X210151Y1351120D01*
X210485Y1350854D01*
X210951Y1350454D01*
X211484Y1349921D01*
X212151Y1349254D01*
X212751Y1348454D01*
X213351Y1347455D01*
X213817Y1346388D01*
X213884Y1346455D01*
X214017Y1346655D01*
X214284Y1346988D01*
X214617Y1347388D01*
X215083Y1347921D01*
X215617Y1348454D01*
X216216Y1349054D01*
X216883Y1349654D01*
X217683Y1350254D01*
X218549Y1350854D01*
X219482Y1351387D01*
X220482Y1351920D01*
X221615Y1352320D01*
X222748Y1352653D01*
X224014Y1352853D01*
X225281Y1352920D01*
X225814D01*
X226214Y1352853D01*
D02*
G37*
G36*
X337852Y1314996D02*
X331787D01*
X317790Y1352120D01*
X324455D01*
X332387Y1329859D01*
Y1329792D01*
X332453Y1329726D01*
X332520Y1329526D01*
X332587Y1329259D01*
X332853Y1328526D01*
X333186Y1327593D01*
X333586Y1326460D01*
X333986Y1325194D01*
X334386Y1323794D01*
X334786Y1322394D01*
Y1322461D01*
X334853Y1322528D01*
X334919Y1322928D01*
X335119Y1323527D01*
X335386Y1324394D01*
X335719Y1325394D01*
X336119Y1326593D01*
X336586Y1327993D01*
X337119Y1329459D01*
X345317Y1352120D01*
X351848D01*
X337852Y1314996D01*
D02*
G37*
G36*
X628378Y1314396D02*
Y1314330D01*
X628311Y1314130D01*
X628178Y1313797D01*
X627978Y1313397D01*
X627844Y1312930D01*
X627578Y1312330D01*
X627111Y1311064D01*
X626511Y1309664D01*
X625911Y1308265D01*
X625378Y1306998D01*
X625112Y1306465D01*
X624845Y1305999D01*
X624779Y1305865D01*
X624579Y1305532D01*
X624179Y1304932D01*
X623712Y1304266D01*
X623179Y1303532D01*
X622512Y1302799D01*
X621779Y1302066D01*
X620979Y1301466D01*
X620913Y1301400D01*
X620580Y1301266D01*
X620180Y1301000D01*
X619513Y1300733D01*
X618780Y1300467D01*
X617914Y1300200D01*
X616914Y1300067D01*
X615847Y1300000D01*
X615514D01*
X615114Y1300067D01*
X614648Y1300133D01*
X614048Y1300200D01*
X613315Y1300333D01*
X612582Y1300533D01*
X611782Y1300800D01*
X611115Y1306665D01*
X611182D01*
X611449Y1306598D01*
X611848Y1306465D01*
X612315Y1306398D01*
X612848Y1306265D01*
X613448Y1306132D01*
X614648Y1306065D01*
X614981D01*
X615381Y1306132D01*
X615847D01*
X616981Y1306398D01*
X617514Y1306532D01*
X617980Y1306798D01*
X618047D01*
X618180Y1306932D01*
X618447Y1307065D01*
X618713Y1307265D01*
X619380Y1307865D01*
X620046Y1308731D01*
Y1308798D01*
X620180Y1308931D01*
X620313Y1309198D01*
X620513Y1309664D01*
X620779Y1310331D01*
X621113Y1311131D01*
X621513Y1312197D01*
X621713Y1312797D01*
X621979Y1313463D01*
X622046Y1313530D01*
X622113Y1313863D01*
X622312Y1314330D01*
X622579Y1314996D01*
X608449Y1352120D01*
X615114D01*
X622912Y1330659D01*
Y1330592D01*
X622979Y1330459D01*
X623046Y1330259D01*
X623179Y1329926D01*
X623312Y1329592D01*
X623446Y1329126D01*
X623779Y1328060D01*
X624179Y1326793D01*
X624645Y1325327D01*
X625112Y1323727D01*
X625578Y1322061D01*
Y1322128D01*
X625645Y1322261D01*
X625712Y1322461D01*
X625778Y1322794D01*
X625911Y1323194D01*
X626045Y1323661D01*
X626311Y1324727D01*
X626711Y1325993D01*
X627178Y1327393D01*
X627711Y1328926D01*
X628244Y1330459D01*
X636176Y1352120D01*
X642441D01*
X628378Y1314396D01*
D02*
G37*
G36*
X493145D02*
Y1314330D01*
X493079Y1314130D01*
X492946Y1313797D01*
X492746Y1313397D01*
X492612Y1312930D01*
X492346Y1312330D01*
X491879Y1311064D01*
X491279Y1309664D01*
X490680Y1308265D01*
X490146Y1306998D01*
X489880Y1306465D01*
X489613Y1305999D01*
X489546Y1305865D01*
X489347Y1305532D01*
X488947Y1304932D01*
X488480Y1304266D01*
X487947Y1303532D01*
X487280Y1302799D01*
X486547Y1302066D01*
X485747Y1301466D01*
X485681Y1301400D01*
X485348Y1301266D01*
X484948Y1301000D01*
X484281Y1300733D01*
X483548Y1300467D01*
X482682Y1300200D01*
X481682Y1300067D01*
X480615Y1300000D01*
X480282D01*
X479882Y1300067D01*
X479416Y1300133D01*
X478816Y1300200D01*
X478083Y1300333D01*
X477350Y1300533D01*
X476550Y1300800D01*
X475883Y1306665D01*
X475950D01*
X476217Y1306598D01*
X476616Y1306465D01*
X477083Y1306398D01*
X477616Y1306265D01*
X478216Y1306132D01*
X479416Y1306065D01*
X479749D01*
X480149Y1306132D01*
X480615D01*
X481748Y1306398D01*
X482282Y1306532D01*
X482748Y1306798D01*
X482815D01*
X482948Y1306932D01*
X483215Y1307065D01*
X483481Y1307265D01*
X484148Y1307865D01*
X484814Y1308731D01*
Y1308798D01*
X484948Y1308931D01*
X485081Y1309198D01*
X485281Y1309664D01*
X485547Y1310331D01*
X485881Y1311131D01*
X486281Y1312197D01*
X486481Y1312797D01*
X486747Y1313463D01*
X486814Y1313530D01*
X486880Y1313863D01*
X487080Y1314330D01*
X487347Y1314996D01*
X473217Y1352120D01*
X479882D01*
X487680Y1330659D01*
Y1330592D01*
X487747Y1330459D01*
X487814Y1330259D01*
X487947Y1329926D01*
X488080Y1329592D01*
X488214Y1329126D01*
X488547Y1328060D01*
X488947Y1326793D01*
X489413Y1325327D01*
X489880Y1323727D01*
X490346Y1322061D01*
Y1322128D01*
X490413Y1322261D01*
X490480Y1322461D01*
X490546Y1322794D01*
X490680Y1323194D01*
X490813Y1323661D01*
X491079Y1324727D01*
X491479Y1325993D01*
X491946Y1327393D01*
X492479Y1328926D01*
X493012Y1330459D01*
X500943Y1352120D01*
X507209D01*
X493145Y1314396D01*
D02*
G37*
G36*
X589588Y1352853D02*
X590654Y1352787D01*
X591854Y1352653D01*
X593187Y1352453D01*
X594386Y1352187D01*
X595586Y1351787D01*
X595653D01*
X595719Y1351720D01*
X596053Y1351587D01*
X596586Y1351320D01*
X597252Y1350987D01*
X597985Y1350587D01*
X598718Y1350121D01*
X599385Y1349521D01*
X599985Y1348921D01*
X600051Y1348854D01*
X600185Y1348654D01*
X600451Y1348254D01*
X600785Y1347788D01*
X601118Y1347188D01*
X601451Y1346455D01*
X601718Y1345655D01*
X601984Y1344722D01*
Y1344655D01*
X602051Y1344389D01*
X602118Y1343989D01*
X602184Y1343389D01*
Y1342589D01*
X602251Y1341589D01*
X602318Y1340390D01*
Y1338923D01*
Y1330526D01*
Y1330459D01*
Y1330126D01*
Y1329726D01*
Y1329126D01*
Y1328459D01*
Y1327660D01*
Y1326793D01*
X602384Y1325860D01*
Y1323994D01*
X602451Y1322194D01*
X602518Y1321328D01*
Y1320595D01*
X602584Y1319995D01*
X602651Y1319462D01*
Y1319328D01*
X602718Y1319062D01*
X602851Y1318595D01*
X602984Y1318062D01*
X603251Y1317329D01*
X603517Y1316596D01*
X603851Y1315796D01*
X604250Y1314996D01*
X597652D01*
X597585Y1315063D01*
X597519Y1315329D01*
X597319Y1315729D01*
X597186Y1316329D01*
X596919Y1316996D01*
X596786Y1317796D01*
X596586Y1318662D01*
X596452Y1319662D01*
X596386D01*
X596319Y1319528D01*
X596119Y1319395D01*
X595853Y1319195D01*
X595186Y1318662D01*
X594253Y1317995D01*
X593253Y1317329D01*
X592120Y1316596D01*
X590854Y1315929D01*
X589654Y1315396D01*
X589588D01*
X589521Y1315329D01*
X589321Y1315263D01*
X589121Y1315196D01*
X588454Y1314996D01*
X587588Y1314796D01*
X586588Y1314596D01*
X585389Y1314396D01*
X584122Y1314263D01*
X582789Y1314196D01*
X582189D01*
X581790Y1314263D01*
X581256D01*
X580656Y1314330D01*
X579324Y1314596D01*
X577790Y1314930D01*
X576258Y1315463D01*
X574725Y1316196D01*
X574058Y1316596D01*
X573392Y1317129D01*
X573325Y1317196D01*
X573258Y1317262D01*
X572858Y1317662D01*
X572392Y1318329D01*
X571792Y1319195D01*
X571192Y1320328D01*
X570659Y1321595D01*
X570259Y1323061D01*
X570192Y1323861D01*
X570126Y1324727D01*
Y1324860D01*
Y1325194D01*
X570192Y1325727D01*
X570259Y1326393D01*
X570392Y1327126D01*
X570659Y1327993D01*
X570926Y1328859D01*
X571325Y1329726D01*
X571392Y1329859D01*
X571525Y1330126D01*
X571859Y1330526D01*
X572192Y1331059D01*
X572659Y1331592D01*
X573258Y1332192D01*
X573858Y1332792D01*
X574591Y1333325D01*
X574658Y1333392D01*
X574925Y1333525D01*
X575391Y1333791D01*
X575924Y1334125D01*
X576591Y1334458D01*
X577324Y1334791D01*
X578190Y1335124D01*
X579123Y1335391D01*
X579190D01*
X579457Y1335458D01*
X579923Y1335591D01*
X580523Y1335658D01*
X581323Y1335858D01*
X582256Y1335991D01*
X583389Y1336124D01*
X584722Y1336324D01*
X584789D01*
X585055Y1336391D01*
X585455D01*
X585988Y1336524D01*
X586588Y1336591D01*
X587321Y1336657D01*
X588121Y1336791D01*
X588988Y1336924D01*
X590787Y1337257D01*
X592653Y1337657D01*
X594386Y1338057D01*
X595186Y1338324D01*
X595919Y1338524D01*
Y1338590D01*
Y1338723D01*
Y1338923D01*
X595986Y1339190D01*
Y1339723D01*
Y1339990D01*
Y1340123D01*
Y1340190D01*
Y1340323D01*
Y1340523D01*
Y1340723D01*
X595919Y1341456D01*
X595786Y1342256D01*
X595519Y1343189D01*
X595253Y1344055D01*
X594786Y1344922D01*
X594186Y1345588D01*
X594053Y1345655D01*
X593720Y1345922D01*
X593187Y1346255D01*
X592387Y1346655D01*
X591320Y1347055D01*
X590121Y1347388D01*
X588654Y1347655D01*
X586988Y1347721D01*
X586255D01*
X585455Y1347655D01*
X584522Y1347521D01*
X583389Y1347321D01*
X582323Y1347055D01*
X581256Y1346655D01*
X580390Y1346122D01*
X580323Y1346055D01*
X580057Y1345855D01*
X579657Y1345455D01*
X579257Y1344855D01*
X578724Y1344122D01*
X578257Y1343189D01*
X577724Y1341989D01*
X577324Y1340656D01*
X571192Y1341523D01*
Y1341589D01*
X571259Y1341723D01*
Y1341923D01*
X571325Y1342189D01*
X571525Y1342922D01*
X571859Y1343789D01*
X572192Y1344789D01*
X572659Y1345855D01*
X573258Y1346921D01*
X573925Y1347854D01*
X573992Y1347988D01*
X574258Y1348254D01*
X574725Y1348654D01*
X575325Y1349254D01*
X576124Y1349854D01*
X577057Y1350454D01*
X578190Y1351054D01*
X579457Y1351587D01*
X579523D01*
X579657Y1351653D01*
X579857Y1351720D01*
X580123Y1351787D01*
X580457Y1351920D01*
X580856Y1351987D01*
X581923Y1352253D01*
X583122Y1352520D01*
X584589Y1352720D01*
X586188Y1352853D01*
X587921Y1352920D01*
X589121D01*
X589588Y1352853D01*
D02*
G37*
G36*
X539800Y1321061D02*
X564994D01*
Y1314996D01*
X533002D01*
Y1366250D01*
X539800D01*
Y1321061D01*
D02*
G37*
G36*
X454356Y1352853D02*
X455422Y1352787D01*
X456622Y1352653D01*
X457954Y1352453D01*
X459154Y1352187D01*
X460354Y1351787D01*
X460421D01*
X460487Y1351720D01*
X460821Y1351587D01*
X461354Y1351320D01*
X462020Y1350987D01*
X462753Y1350587D01*
X463486Y1350121D01*
X464153Y1349521D01*
X464753Y1348921D01*
X464819Y1348854D01*
X464953Y1348654D01*
X465219Y1348254D01*
X465553Y1347788D01*
X465886Y1347188D01*
X466219Y1346455D01*
X466486Y1345655D01*
X466752Y1344722D01*
Y1344655D01*
X466819Y1344389D01*
X466886Y1343989D01*
X466952Y1343389D01*
Y1342589D01*
X467019Y1341589D01*
X467085Y1340390D01*
Y1338923D01*
Y1330526D01*
Y1330459D01*
Y1330126D01*
Y1329726D01*
Y1329126D01*
Y1328459D01*
Y1327660D01*
Y1326793D01*
X467152Y1325860D01*
Y1323994D01*
X467219Y1322194D01*
X467285Y1321328D01*
Y1320595D01*
X467352Y1319995D01*
X467419Y1319462D01*
Y1319328D01*
X467485Y1319062D01*
X467619Y1318595D01*
X467752Y1318062D01*
X468019Y1317329D01*
X468285Y1316596D01*
X468619Y1315796D01*
X469018Y1314996D01*
X462420D01*
X462353Y1315063D01*
X462287Y1315329D01*
X462087Y1315729D01*
X461954Y1316329D01*
X461687Y1316996D01*
X461554Y1317796D01*
X461354Y1318662D01*
X461220Y1319662D01*
X461154D01*
X461087Y1319528D01*
X460887Y1319395D01*
X460620Y1319195D01*
X459954Y1318662D01*
X459021Y1317995D01*
X458021Y1317329D01*
X456888Y1316596D01*
X455622Y1315929D01*
X454422Y1315396D01*
X454356D01*
X454289Y1315329D01*
X454089Y1315263D01*
X453889Y1315196D01*
X453222Y1314996D01*
X452356Y1314796D01*
X451356Y1314596D01*
X450157Y1314396D01*
X448890Y1314263D01*
X447557Y1314196D01*
X446957D01*
X446558Y1314263D01*
X446024D01*
X445424Y1314330D01*
X444091Y1314596D01*
X442559Y1314930D01*
X441026Y1315463D01*
X439493Y1316196D01*
X438826Y1316596D01*
X438160Y1317129D01*
X438093Y1317196D01*
X438026Y1317262D01*
X437626Y1317662D01*
X437160Y1318329D01*
X436560Y1319195D01*
X435960Y1320328D01*
X435427Y1321595D01*
X435027Y1323061D01*
X434960Y1323861D01*
X434894Y1324727D01*
Y1324860D01*
Y1325194D01*
X434960Y1325727D01*
X435027Y1326393D01*
X435160Y1327126D01*
X435427Y1327993D01*
X435694Y1328859D01*
X436093Y1329726D01*
X436160Y1329859D01*
X436293Y1330126D01*
X436627Y1330526D01*
X436960Y1331059D01*
X437426Y1331592D01*
X438026Y1332192D01*
X438626Y1332792D01*
X439359Y1333325D01*
X439426Y1333392D01*
X439692Y1333525D01*
X440159Y1333791D01*
X440692Y1334125D01*
X441359Y1334458D01*
X442092Y1334791D01*
X442958Y1335124D01*
X443891Y1335391D01*
X443958D01*
X444225Y1335458D01*
X444691Y1335591D01*
X445291Y1335658D01*
X446091Y1335858D01*
X447024Y1335991D01*
X448157Y1336124D01*
X449490Y1336324D01*
X449557D01*
X449823Y1336391D01*
X450223D01*
X450756Y1336524D01*
X451356Y1336591D01*
X452089Y1336657D01*
X452889Y1336791D01*
X453756Y1336924D01*
X455555Y1337257D01*
X457421Y1337657D01*
X459154Y1338057D01*
X459954Y1338324D01*
X460687Y1338524D01*
Y1338590D01*
Y1338723D01*
Y1338923D01*
X460754Y1339190D01*
Y1339723D01*
Y1339990D01*
Y1340123D01*
Y1340190D01*
Y1340323D01*
Y1340523D01*
Y1340723D01*
X460687Y1341456D01*
X460554Y1342256D01*
X460287Y1343189D01*
X460021Y1344055D01*
X459554Y1344922D01*
X458954Y1345588D01*
X458821Y1345655D01*
X458488Y1345922D01*
X457954Y1346255D01*
X457155Y1346655D01*
X456088Y1347055D01*
X454889Y1347388D01*
X453422Y1347655D01*
X451756Y1347721D01*
X451023D01*
X450223Y1347655D01*
X449290Y1347521D01*
X448157Y1347321D01*
X447091Y1347055D01*
X446024Y1346655D01*
X445158Y1346122D01*
X445091Y1346055D01*
X444825Y1345855D01*
X444425Y1345455D01*
X444025Y1344855D01*
X443492Y1344122D01*
X443025Y1343189D01*
X442492Y1341989D01*
X442092Y1340656D01*
X435960Y1341523D01*
Y1341589D01*
X436027Y1341723D01*
Y1341923D01*
X436093Y1342189D01*
X436293Y1342922D01*
X436627Y1343789D01*
X436960Y1344789D01*
X437426Y1345855D01*
X438026Y1346921D01*
X438693Y1347854D01*
X438759Y1347988D01*
X439026Y1348254D01*
X439493Y1348654D01*
X440092Y1349254D01*
X440892Y1349854D01*
X441825Y1350454D01*
X442958Y1351054D01*
X444225Y1351587D01*
X444291D01*
X444425Y1351653D01*
X444625Y1351720D01*
X444891Y1351787D01*
X445224Y1351920D01*
X445624Y1351987D01*
X446691Y1352253D01*
X447890Y1352520D01*
X449357Y1352720D01*
X450956Y1352853D01*
X452689Y1352920D01*
X453889D01*
X454356Y1352853D01*
D02*
G37*
G36*
X427229Y1314996D02*
X420964D01*
Y1366250D01*
X427229D01*
Y1314996D01*
D02*
G37*
G36*
X40661Y1366183D02*
X41261D01*
X42594Y1366050D01*
X44061Y1365850D01*
X45660Y1365583D01*
X47193Y1365183D01*
X48593Y1364650D01*
X48659D01*
X48726Y1364583D01*
X48926Y1364517D01*
X49193Y1364384D01*
X49792Y1363984D01*
X50592Y1363450D01*
X51525Y1362784D01*
X52392Y1361984D01*
X53325Y1360984D01*
X54125Y1359851D01*
Y1359785D01*
X54191Y1359718D01*
X54458Y1359318D01*
X54791Y1358652D01*
X55191Y1357785D01*
X55524Y1356785D01*
X55858Y1355652D01*
X56124Y1354453D01*
X56191Y1353120D01*
Y1353053D01*
Y1352986D01*
Y1352787D01*
Y1352587D01*
X56124Y1351920D01*
X55991Y1351120D01*
X55724Y1350121D01*
X55458Y1349054D01*
X54991Y1347988D01*
X54391Y1346855D01*
X54325Y1346721D01*
X54058Y1346388D01*
X53658Y1345855D01*
X53058Y1345188D01*
X52258Y1344455D01*
X51325Y1343722D01*
X50259Y1342922D01*
X48993Y1342256D01*
X49059D01*
X49193Y1342189D01*
X49459Y1342123D01*
X49792Y1341989D01*
X50126Y1341856D01*
X50592Y1341656D01*
X51659Y1341123D01*
X52792Y1340456D01*
X53991Y1339657D01*
X55124Y1338657D01*
X56124Y1337524D01*
Y1337457D01*
X56257Y1337390D01*
X56391Y1337191D01*
X56524Y1336924D01*
X56924Y1336257D01*
X57390Y1335324D01*
X57857Y1334191D01*
X58257Y1332858D01*
X58524Y1331392D01*
X58657Y1329792D01*
Y1329726D01*
Y1329659D01*
Y1329459D01*
Y1329193D01*
X58590Y1328526D01*
X58457Y1327593D01*
X58257Y1326593D01*
X57990Y1325460D01*
X57657Y1324327D01*
X57124Y1323127D01*
X57057Y1322994D01*
X56857Y1322594D01*
X56524Y1322061D01*
X56057Y1321395D01*
X55524Y1320595D01*
X54858Y1319795D01*
X54125Y1319062D01*
X53325Y1318329D01*
X53258Y1318262D01*
X52925Y1318062D01*
X52458Y1317729D01*
X51792Y1317396D01*
X50992Y1316996D01*
X50059Y1316529D01*
X48926Y1316129D01*
X47726Y1315796D01*
X47593D01*
X47393Y1315729D01*
X47126Y1315663D01*
X46793Y1315596D01*
X46393Y1315529D01*
X45460Y1315396D01*
X44261Y1315263D01*
X42861Y1315130D01*
X41261Y1315063D01*
X39462Y1314996D01*
X20000D01*
Y1366250D01*
X40195D01*
X40661Y1366183D01*
D02*
G37*
G36*
X134171Y1352120D02*
X140503D01*
Y1347255D01*
X134171D01*
Y1325527D01*
Y1325394D01*
Y1325060D01*
Y1324594D01*
X134237Y1324061D01*
Y1323461D01*
X134304Y1322861D01*
X134371Y1322394D01*
X134437Y1321994D01*
X134504Y1321861D01*
X134704Y1321595D01*
X135037Y1321195D01*
X135504Y1320795D01*
X135570D01*
X135637Y1320728D01*
X135837Y1320661D01*
X136104Y1320595D01*
X136770Y1320461D01*
X137703Y1320395D01*
X138436D01*
X138836Y1320461D01*
X139369D01*
X139903Y1320528D01*
X140503Y1320595D01*
X141369Y1315063D01*
X141236D01*
X140902Y1314996D01*
X140436Y1314930D01*
X139769Y1314796D01*
X139036Y1314730D01*
X138236Y1314596D01*
X136570Y1314530D01*
X136037D01*
X135371Y1314596D01*
X134637Y1314663D01*
X133771Y1314796D01*
X132904Y1314996D01*
X132038Y1315263D01*
X131305Y1315596D01*
X131238Y1315663D01*
X130972Y1315796D01*
X130705Y1315996D01*
X130305Y1316329D01*
X129839Y1316729D01*
X129372Y1317262D01*
X128972Y1317796D01*
X128639Y1318395D01*
Y1318462D01*
X128506Y1318795D01*
X128439Y1319262D01*
X128306Y1319995D01*
X128239Y1320461D01*
X128172Y1320995D01*
X128106Y1321595D01*
X128039Y1322328D01*
X127972Y1323061D01*
Y1323927D01*
X127906Y1324860D01*
Y1325860D01*
Y1347255D01*
X123240D01*
Y1352120D01*
X127906D01*
Y1361251D01*
X134171Y1365050D01*
Y1352120D01*
D02*
G37*
G36*
X114309D02*
X120641D01*
Y1347255D01*
X114309D01*
Y1325527D01*
Y1325394D01*
Y1325060D01*
Y1324594D01*
X114376Y1324061D01*
Y1323461D01*
X114443Y1322861D01*
X114509Y1322394D01*
X114576Y1321994D01*
X114642Y1321861D01*
X114842Y1321595D01*
X115176Y1321195D01*
X115642Y1320795D01*
X115709D01*
X115775Y1320728D01*
X115975Y1320661D01*
X116242Y1320595D01*
X116909Y1320461D01*
X117842Y1320395D01*
X118575D01*
X118975Y1320461D01*
X119508D01*
X120041Y1320528D01*
X120641Y1320595D01*
X121507Y1315063D01*
X121374D01*
X121041Y1314996D01*
X120574Y1314930D01*
X119908Y1314796D01*
X119175Y1314730D01*
X118375Y1314596D01*
X116709Y1314530D01*
X116175D01*
X115509Y1314596D01*
X114776Y1314663D01*
X113909Y1314796D01*
X113043Y1314996D01*
X112176Y1315263D01*
X111443Y1315596D01*
X111377Y1315663D01*
X111110Y1315796D01*
X110843Y1315996D01*
X110443Y1316329D01*
X109977Y1316729D01*
X109510Y1317262D01*
X109110Y1317796D01*
X108777Y1318395D01*
Y1318462D01*
X108644Y1318795D01*
X108577Y1319262D01*
X108444Y1319995D01*
X108377Y1320461D01*
X108311Y1320995D01*
X108244Y1321595D01*
X108177Y1322328D01*
X108111Y1323061D01*
Y1323927D01*
X108044Y1324860D01*
Y1325860D01*
Y1347255D01*
X103379D01*
Y1352120D01*
X108044D01*
Y1361251D01*
X114309Y1365050D01*
Y1352120D01*
D02*
G37*
G36*
X664235Y1352853D02*
X664835Y1352787D01*
X665568Y1352653D01*
X666434Y1352520D01*
X667301Y1352320D01*
X668234Y1352053D01*
X669234Y1351653D01*
X670234Y1351254D01*
X671233Y1350787D01*
X672300Y1350187D01*
X673299Y1349521D01*
X674232Y1348721D01*
X675166Y1347854D01*
X675232Y1347788D01*
X675366Y1347588D01*
X675632Y1347321D01*
X675899Y1346921D01*
X676232Y1346388D01*
X676632Y1345788D01*
X677098Y1345055D01*
X677565Y1344189D01*
X677965Y1343189D01*
X678431Y1342123D01*
X678831Y1340990D01*
X679165Y1339723D01*
X679431Y1338324D01*
X679698Y1336857D01*
X679831Y1335258D01*
X679898Y1333591D01*
Y1333458D01*
Y1333192D01*
Y1332658D01*
X679831Y1331925D01*
X652171D01*
Y1331859D01*
Y1331659D01*
X652238Y1331325D01*
X652305Y1330925D01*
X652371Y1330392D01*
X652438Y1329792D01*
X652705Y1328459D01*
X653171Y1326927D01*
X653771Y1325394D01*
X654571Y1323927D01*
X655037Y1323261D01*
X655571Y1322594D01*
X655637Y1322528D01*
X655704Y1322461D01*
X655904Y1322328D01*
X656104Y1322128D01*
X656837Y1321595D01*
X657703Y1320995D01*
X658836Y1320395D01*
X660169Y1319928D01*
X661702Y1319528D01*
X662502Y1319462D01*
X663369Y1319395D01*
X663968D01*
X664568Y1319462D01*
X665435Y1319595D01*
X666301Y1319862D01*
X667301Y1320128D01*
X668301Y1320595D01*
X669234Y1321195D01*
X669367Y1321261D01*
X669634Y1321528D01*
X670100Y1321994D01*
X670633Y1322594D01*
X671233Y1323394D01*
X671900Y1324460D01*
X672566Y1325660D01*
X673099Y1327060D01*
X679631Y1326193D01*
Y1326127D01*
X679565Y1325927D01*
X679498Y1325660D01*
X679298Y1325260D01*
X679165Y1324794D01*
X678898Y1324194D01*
X678365Y1322928D01*
X677565Y1321528D01*
X676565Y1320061D01*
X675366Y1318595D01*
X673966Y1317329D01*
X673899D01*
X673766Y1317196D01*
X673566Y1317062D01*
X673233Y1316862D01*
X672833Y1316596D01*
X672300Y1316329D01*
X671766Y1316063D01*
X671100Y1315796D01*
X670367Y1315463D01*
X669567Y1315196D01*
X668701Y1314930D01*
X667767Y1314663D01*
X665701Y1314330D01*
X664568Y1314263D01*
X663369Y1314196D01*
X663035D01*
X662569Y1314263D01*
X662036D01*
X661369Y1314330D01*
X660569Y1314463D01*
X659636Y1314596D01*
X658703Y1314796D01*
X657703Y1315063D01*
X656637Y1315396D01*
X655571Y1315796D01*
X654504Y1316329D01*
X653438Y1316862D01*
X652371Y1317529D01*
X651372Y1318329D01*
X650439Y1319195D01*
X650372Y1319262D01*
X650239Y1319462D01*
X649972Y1319728D01*
X649705Y1320128D01*
X649372Y1320661D01*
X648972Y1321261D01*
X648506Y1321994D01*
X648106Y1322794D01*
X647639Y1323794D01*
X647173Y1324794D01*
X646773Y1325993D01*
X646440Y1327193D01*
X646173Y1328593D01*
X645906Y1329992D01*
X645773Y1331525D01*
X645706Y1333192D01*
Y1333325D01*
Y1333591D01*
X645773Y1334125D01*
Y1334724D01*
X645840Y1335524D01*
X645973Y1336457D01*
X646106Y1337457D01*
X646306Y1338524D01*
X646573Y1339657D01*
X646906Y1340856D01*
X647239Y1342056D01*
X647706Y1343256D01*
X648306Y1344455D01*
X648906Y1345655D01*
X649639Y1346721D01*
X650505Y1347721D01*
X650572Y1347788D01*
X650705Y1347921D01*
X650972Y1348188D01*
X651372Y1348521D01*
X651838Y1348921D01*
X652438Y1349387D01*
X653105Y1349854D01*
X653838Y1350320D01*
X654704Y1350787D01*
X655637Y1351254D01*
X656704Y1351720D01*
X657770Y1352120D01*
X658970Y1352453D01*
X660236Y1352720D01*
X661569Y1352853D01*
X662969Y1352920D01*
X663702D01*
X664235Y1352853D01*
D02*
G37*
G36*
X373843D02*
X374443Y1352787D01*
X375176Y1352653D01*
X376042Y1352520D01*
X376909Y1352320D01*
X377842Y1352053D01*
X378842Y1351653D01*
X379841Y1351254D01*
X380841Y1350787D01*
X381907Y1350187D01*
X382907Y1349521D01*
X383840Y1348721D01*
X384773Y1347854D01*
X384840Y1347788D01*
X384973Y1347588D01*
X385240Y1347321D01*
X385506Y1346921D01*
X385840Y1346388D01*
X386240Y1345788D01*
X386706Y1345055D01*
X387173Y1344189D01*
X387573Y1343189D01*
X388039Y1342123D01*
X388439Y1340990D01*
X388772Y1339723D01*
X389039Y1338324D01*
X389305Y1336857D01*
X389439Y1335258D01*
X389505Y1333591D01*
Y1333458D01*
Y1333192D01*
Y1332658D01*
X389439Y1331925D01*
X361779D01*
Y1331859D01*
Y1331659D01*
X361846Y1331325D01*
X361912Y1330925D01*
X361979Y1330392D01*
X362046Y1329792D01*
X362312Y1328459D01*
X362779Y1326927D01*
X363379Y1325394D01*
X364179Y1323927D01*
X364645Y1323261D01*
X365178Y1322594D01*
X365245Y1322528D01*
X365312Y1322461D01*
X365512Y1322328D01*
X365712Y1322128D01*
X366445Y1321595D01*
X367311Y1320995D01*
X368444Y1320395D01*
X369777Y1319928D01*
X371310Y1319528D01*
X372110Y1319462D01*
X372976Y1319395D01*
X373576D01*
X374176Y1319462D01*
X375042Y1319595D01*
X375909Y1319862D01*
X376909Y1320128D01*
X377908Y1320595D01*
X378842Y1321195D01*
X378975Y1321261D01*
X379241Y1321528D01*
X379708Y1321994D01*
X380241Y1322594D01*
X380841Y1323394D01*
X381507Y1324460D01*
X382174Y1325660D01*
X382707Y1327060D01*
X389239Y1326193D01*
Y1326127D01*
X389172Y1325927D01*
X389105Y1325660D01*
X388905Y1325260D01*
X388772Y1324794D01*
X388506Y1324194D01*
X387972Y1322928D01*
X387173Y1321528D01*
X386173Y1320061D01*
X384973Y1318595D01*
X383574Y1317329D01*
X383507D01*
X383374Y1317196D01*
X383174Y1317062D01*
X382840Y1316862D01*
X382440Y1316596D01*
X381907Y1316329D01*
X381374Y1316063D01*
X380708Y1315796D01*
X379975Y1315463D01*
X379175Y1315196D01*
X378308Y1314930D01*
X377375Y1314663D01*
X375309Y1314330D01*
X374176Y1314263D01*
X372976Y1314196D01*
X372643D01*
X372177Y1314263D01*
X371643D01*
X370977Y1314330D01*
X370177Y1314463D01*
X369244Y1314596D01*
X368311Y1314796D01*
X367311Y1315063D01*
X366245Y1315396D01*
X365178Y1315796D01*
X364112Y1316329D01*
X363046Y1316862D01*
X361979Y1317529D01*
X360979Y1318329D01*
X360046Y1319195D01*
X359980Y1319262D01*
X359846Y1319462D01*
X359580Y1319728D01*
X359313Y1320128D01*
X358980Y1320661D01*
X358580Y1321261D01*
X358113Y1321994D01*
X357714Y1322794D01*
X357247Y1323794D01*
X356780Y1324794D01*
X356381Y1325993D01*
X356047Y1327193D01*
X355781Y1328593D01*
X355514Y1329992D01*
X355381Y1331525D01*
X355314Y1333192D01*
Y1333325D01*
Y1333591D01*
X355381Y1334125D01*
Y1334724D01*
X355447Y1335524D01*
X355581Y1336457D01*
X355714Y1337457D01*
X355914Y1338524D01*
X356181Y1339657D01*
X356514Y1340856D01*
X356847Y1342056D01*
X357314Y1343256D01*
X357914Y1344455D01*
X358513Y1345655D01*
X359246Y1346721D01*
X360113Y1347721D01*
X360180Y1347788D01*
X360313Y1347921D01*
X360579Y1348188D01*
X360979Y1348521D01*
X361446Y1348921D01*
X362046Y1349387D01*
X362712Y1349854D01*
X363445Y1350320D01*
X364312Y1350787D01*
X365245Y1351254D01*
X366311Y1351720D01*
X367378Y1352120D01*
X368577Y1352453D01*
X369844Y1352720D01*
X371177Y1352853D01*
X372576Y1352920D01*
X373310D01*
X373843Y1352853D01*
D02*
G37*
G36*
X162963D02*
X163630Y1352787D01*
X164363Y1352653D01*
X165229Y1352520D01*
X166163Y1352320D01*
X167096Y1352053D01*
X168095Y1351653D01*
X169162Y1351254D01*
X170228Y1350787D01*
X171295Y1350187D01*
X172294Y1349521D01*
X173294Y1348721D01*
X174227Y1347854D01*
X174294Y1347788D01*
X174427Y1347655D01*
X174694Y1347321D01*
X174960Y1346921D01*
X175360Y1346455D01*
X175760Y1345788D01*
X176227Y1345055D01*
X176693Y1344255D01*
X177093Y1343322D01*
X177560Y1342323D01*
X177960Y1341190D01*
X178360Y1339923D01*
X178626Y1338590D01*
X178893Y1337191D01*
X179026Y1335658D01*
X179093Y1334058D01*
Y1333991D01*
Y1333725D01*
Y1333392D01*
Y1332858D01*
X179026Y1332258D01*
X178959Y1331592D01*
X178893Y1330792D01*
X178826Y1329992D01*
X178559Y1328193D01*
X178160Y1326327D01*
X177626Y1324460D01*
X177293Y1323594D01*
X176893Y1322794D01*
Y1322728D01*
X176826Y1322594D01*
X176693Y1322394D01*
X176493Y1322128D01*
X176027Y1321395D01*
X175294Y1320461D01*
X174427Y1319462D01*
X173361Y1318395D01*
X172094Y1317396D01*
X170628Y1316463D01*
X170562D01*
X170428Y1316396D01*
X170228Y1316263D01*
X169895Y1316129D01*
X169562Y1315929D01*
X169095Y1315729D01*
X167962Y1315329D01*
X166696Y1314930D01*
X165163Y1314530D01*
X163497Y1314263D01*
X161697Y1314196D01*
X161364D01*
X160964Y1314263D01*
X160431D01*
X159764Y1314330D01*
X159031Y1314463D01*
X158165Y1314596D01*
X157232Y1314796D01*
X156232Y1315063D01*
X155232Y1315396D01*
X154232Y1315796D01*
X153166Y1316263D01*
X152100Y1316862D01*
X151100Y1317529D01*
X150100Y1318262D01*
X149167Y1319129D01*
X149100Y1319195D01*
X148967Y1319395D01*
X148700Y1319662D01*
X148434Y1320061D01*
X148034Y1320595D01*
X147634Y1321195D01*
X147234Y1321928D01*
X146768Y1322794D01*
X146301Y1323794D01*
X145901Y1324860D01*
X145501Y1325993D01*
X145101Y1327326D01*
X144835Y1328726D01*
X144568Y1330192D01*
X144435Y1331792D01*
X144368Y1333525D01*
Y1333658D01*
Y1333991D01*
X144435Y1334525D01*
Y1335191D01*
X144568Y1336057D01*
X144701Y1337057D01*
X144835Y1338124D01*
X145101Y1339257D01*
X145368Y1340523D01*
X145768Y1341789D01*
X146234Y1343056D01*
X146768Y1344322D01*
X147434Y1345522D01*
X148167Y1346721D01*
X149034Y1347788D01*
X150033Y1348788D01*
X150100Y1348854D01*
X150233Y1348987D01*
X150500Y1349187D01*
X150900Y1349454D01*
X151366Y1349721D01*
X151900Y1350121D01*
X152566Y1350454D01*
X153299Y1350854D01*
X154099Y1351254D01*
X154965Y1351587D01*
X155965Y1351987D01*
X156965Y1352253D01*
X158098Y1352520D01*
X159231Y1352720D01*
X160431Y1352853D01*
X161697Y1352920D01*
X162430D01*
X162963Y1352853D01*
D02*
G37*
G36*
X83450D02*
X84117Y1352787D01*
X84850Y1352653D01*
X85716Y1352520D01*
X86650Y1352320D01*
X87583Y1352053D01*
X88582Y1351653D01*
X89649Y1351254D01*
X90715Y1350787D01*
X91782Y1350187D01*
X92781Y1349521D01*
X93781Y1348721D01*
X94714Y1347854D01*
X94781Y1347788D01*
X94914Y1347655D01*
X95181Y1347321D01*
X95447Y1346921D01*
X95847Y1346455D01*
X96247Y1345788D01*
X96714Y1345055D01*
X97180Y1344255D01*
X97580Y1343322D01*
X98047Y1342323D01*
X98447Y1341190D01*
X98847Y1339923D01*
X99113Y1338590D01*
X99380Y1337191D01*
X99513Y1335658D01*
X99580Y1334058D01*
Y1333991D01*
Y1333725D01*
Y1333392D01*
Y1332858D01*
X99513Y1332258D01*
X99446Y1331592D01*
X99380Y1330792D01*
X99313Y1329992D01*
X99046Y1328193D01*
X98646Y1326327D01*
X98113Y1324460D01*
X97780Y1323594D01*
X97380Y1322794D01*
Y1322728D01*
X97313Y1322594D01*
X97180Y1322394D01*
X96980Y1322128D01*
X96514Y1321395D01*
X95781Y1320461D01*
X94914Y1319462D01*
X93848Y1318395D01*
X92581Y1317396D01*
X91115Y1316463D01*
X91048D01*
X90915Y1316396D01*
X90715Y1316263D01*
X90382Y1316129D01*
X90049Y1315929D01*
X89582Y1315729D01*
X88449Y1315329D01*
X87183Y1314930D01*
X85650Y1314530D01*
X83984Y1314263D01*
X82184Y1314196D01*
X81851D01*
X81451Y1314263D01*
X80918D01*
X80251Y1314330D01*
X79518Y1314463D01*
X78652Y1314596D01*
X77719Y1314796D01*
X76719Y1315063D01*
X75719Y1315396D01*
X74719Y1315796D01*
X73653Y1316263D01*
X72586Y1316862D01*
X71587Y1317529D01*
X70587Y1318262D01*
X69654Y1319129D01*
X69587Y1319195D01*
X69454Y1319395D01*
X69187Y1319662D01*
X68921Y1320061D01*
X68521Y1320595D01*
X68121Y1321195D01*
X67721Y1321928D01*
X67255Y1322794D01*
X66788Y1323794D01*
X66388Y1324860D01*
X65988Y1325993D01*
X65588Y1327326D01*
X65322Y1328726D01*
X65055Y1330192D01*
X64922Y1331792D01*
X64855Y1333525D01*
Y1333658D01*
Y1333991D01*
X64922Y1334525D01*
Y1335191D01*
X65055Y1336057D01*
X65188Y1337057D01*
X65322Y1338124D01*
X65588Y1339257D01*
X65855Y1340523D01*
X66255Y1341789D01*
X66721Y1343056D01*
X67255Y1344322D01*
X67921Y1345522D01*
X68654Y1346721D01*
X69521Y1347788D01*
X70520Y1348788D01*
X70587Y1348854D01*
X70720Y1348987D01*
X70987Y1349187D01*
X71387Y1349454D01*
X71853Y1349721D01*
X72387Y1350121D01*
X73053Y1350454D01*
X73786Y1350854D01*
X74586Y1351254D01*
X75452Y1351587D01*
X76452Y1351987D01*
X77452Y1352253D01*
X78585Y1352520D01*
X79718Y1352720D01*
X80918Y1352853D01*
X82184Y1352920D01*
X82917D01*
X83450Y1352853D01*
D02*
G37*
G36*
X290464Y1367050D02*
X291064Y1366983D01*
X291797Y1366916D01*
X292597Y1366850D01*
X293530Y1366716D01*
X295463Y1366316D01*
X297596Y1365717D01*
X298729Y1365317D01*
X299795Y1364850D01*
X300928Y1364317D01*
X301994Y1363717D01*
X302061Y1363650D01*
X302261Y1363584D01*
X302528Y1363384D01*
X302928Y1363117D01*
X303394Y1362717D01*
X303994Y1362317D01*
X304594Y1361851D01*
X305260Y1361251D01*
X305927Y1360651D01*
X306660Y1359918D01*
X307393Y1359118D01*
X308126Y1358318D01*
X308793Y1357385D01*
X309459Y1356386D01*
X310726Y1354253D01*
X310792Y1354186D01*
X310859Y1353986D01*
X310992Y1353653D01*
X311192Y1353186D01*
X311392Y1352587D01*
X311659Y1351920D01*
X311925Y1351120D01*
X312258Y1350254D01*
X312525Y1349321D01*
X312792Y1348254D01*
X313058Y1347121D01*
X313258Y1345922D01*
X313591Y1343322D01*
X313725Y1341923D01*
Y1340523D01*
Y1340456D01*
Y1340190D01*
Y1339790D01*
X313658Y1339190D01*
Y1338524D01*
X313591Y1337724D01*
X313458Y1336857D01*
X313325Y1335858D01*
X313125Y1334791D01*
X312925Y1333658D01*
X312392Y1331325D01*
X311592Y1328926D01*
X311059Y1327726D01*
X310526Y1326527D01*
X310459Y1326460D01*
X310392Y1326260D01*
X310192Y1325927D01*
X309926Y1325527D01*
X309592Y1324994D01*
X309259Y1324394D01*
X308793Y1323794D01*
X308260Y1323061D01*
X307660Y1322328D01*
X306993Y1321595D01*
X305460Y1320061D01*
X303661Y1318529D01*
X302661Y1317862D01*
X301595Y1317262D01*
X301528D01*
X301328Y1317129D01*
X300995Y1316996D01*
X300595Y1316796D01*
X300062Y1316529D01*
X299462Y1316263D01*
X298729Y1315996D01*
X297929Y1315729D01*
X296996Y1315396D01*
X296063Y1315130D01*
X293930Y1314596D01*
X291664Y1314263D01*
X290464Y1314196D01*
X289198Y1314130D01*
X288465D01*
X287998Y1314196D01*
X287332Y1314263D01*
X286598Y1314330D01*
X285799Y1314396D01*
X284865Y1314596D01*
X282866Y1314996D01*
X280667Y1315596D01*
X279534Y1315996D01*
X278467Y1316463D01*
X277334Y1316996D01*
X276268Y1317596D01*
X276201Y1317662D01*
X276001Y1317729D01*
X275735Y1317929D01*
X275335Y1318262D01*
X274868Y1318595D01*
X274335Y1318995D01*
X273735Y1319528D01*
X273069Y1320061D01*
X272402Y1320728D01*
X271669Y1321461D01*
X270936Y1322261D01*
X270269Y1323061D01*
X268870Y1324994D01*
X267670Y1327126D01*
Y1327193D01*
X267537Y1327393D01*
X267403Y1327726D01*
X267203Y1328193D01*
X267003Y1328726D01*
X266737Y1329393D01*
X266470Y1330192D01*
X266204Y1330992D01*
X265937Y1331925D01*
X265670Y1332925D01*
X265204Y1335058D01*
X264871Y1337457D01*
X264804Y1338657D01*
X264737Y1339923D01*
Y1339990D01*
Y1340056D01*
Y1340256D01*
Y1340456D01*
X264804Y1341123D01*
X264871Y1342056D01*
X264937Y1343122D01*
X265071Y1344322D01*
X265337Y1345722D01*
X265604Y1347188D01*
X265937Y1348788D01*
X266404Y1350387D01*
X266937Y1352053D01*
X267603Y1353720D01*
X268403Y1355319D01*
X269270Y1356919D01*
X270336Y1358452D01*
X271536Y1359851D01*
X271602Y1359918D01*
X271869Y1360185D01*
X272269Y1360518D01*
X272802Y1360984D01*
X273468Y1361518D01*
X274268Y1362184D01*
X275268Y1362784D01*
X276334Y1363517D01*
X277534Y1364184D01*
X278867Y1364850D01*
X280333Y1365450D01*
X281933Y1365983D01*
X283599Y1366450D01*
X285399Y1366783D01*
X287265Y1367050D01*
X289264Y1367116D01*
X289931D01*
X290464Y1367050D01*
D02*
G37*
%LPC*%
G36*
X595919Y1333591D02*
X595853D01*
X595786Y1333525D01*
X595586Y1333458D01*
X595253Y1333392D01*
X594920Y1333258D01*
X594453Y1333125D01*
X593920Y1332925D01*
X593320Y1332792D01*
X592653Y1332592D01*
X591920Y1332392D01*
X591054Y1332192D01*
X590121Y1331992D01*
X589121Y1331792D01*
X588055Y1331592D01*
X586922Y1331392D01*
X585655Y1331192D01*
X585455D01*
X585322Y1331125D01*
X585055D01*
X584322Y1330992D01*
X583522Y1330859D01*
X582656Y1330659D01*
X581723Y1330459D01*
X580856Y1330192D01*
X580190Y1329926D01*
X580123D01*
X579923Y1329792D01*
X579657Y1329659D01*
X579257Y1329459D01*
X578457Y1328793D01*
X578057Y1328393D01*
X577724Y1327926D01*
X577657Y1327859D01*
X577591Y1327726D01*
X577457Y1327393D01*
X577324Y1327060D01*
X577124Y1326593D01*
X576991Y1326127D01*
X576924Y1325527D01*
X576857Y1324927D01*
Y1324794D01*
Y1324527D01*
X576991Y1324061D01*
X577124Y1323461D01*
X577324Y1322861D01*
X577657Y1322128D01*
X578124Y1321461D01*
X578724Y1320795D01*
X578790Y1320728D01*
X579057Y1320528D01*
X579523Y1320262D01*
X580123Y1319995D01*
X580923Y1319662D01*
X581923Y1319395D01*
X583056Y1319195D01*
X584322Y1319129D01*
X584922D01*
X585588Y1319195D01*
X586455Y1319328D01*
X587455Y1319528D01*
X588521Y1319795D01*
X589654Y1320128D01*
X590720Y1320661D01*
X590787D01*
X590854Y1320728D01*
X591187Y1320928D01*
X591720Y1321328D01*
X592320Y1321794D01*
X592987Y1322394D01*
X593720Y1323194D01*
X594386Y1323994D01*
X594920Y1324994D01*
X594986Y1325127D01*
X595053Y1325394D01*
X595253Y1325860D01*
X595453Y1326593D01*
X595586Y1327460D01*
X595786Y1328526D01*
X595853Y1329792D01*
X595919Y1331259D01*
Y1333591D01*
D02*
G37*
G36*
X460687D02*
X460620D01*
X460554Y1333525D01*
X460354Y1333458D01*
X460021Y1333392D01*
X459687Y1333258D01*
X459221Y1333125D01*
X458688Y1332925D01*
X458088Y1332792D01*
X457421Y1332592D01*
X456688Y1332392D01*
X455822Y1332192D01*
X454889Y1331992D01*
X453889Y1331792D01*
X452822Y1331592D01*
X451689Y1331392D01*
X450423Y1331192D01*
X450223D01*
X450090Y1331125D01*
X449823D01*
X449090Y1330992D01*
X448290Y1330859D01*
X447424Y1330659D01*
X446491Y1330459D01*
X445624Y1330192D01*
X444958Y1329926D01*
X444891D01*
X444691Y1329792D01*
X444425Y1329659D01*
X444025Y1329459D01*
X443225Y1328793D01*
X442825Y1328393D01*
X442492Y1327926D01*
X442425Y1327859D01*
X442359Y1327726D01*
X442225Y1327393D01*
X442092Y1327060D01*
X441892Y1326593D01*
X441759Y1326127D01*
X441692Y1325527D01*
X441625Y1324927D01*
Y1324794D01*
Y1324527D01*
X441759Y1324061D01*
X441892Y1323461D01*
X442092Y1322861D01*
X442425Y1322128D01*
X442892Y1321461D01*
X443492Y1320795D01*
X443558Y1320728D01*
X443825Y1320528D01*
X444291Y1320262D01*
X444891Y1319995D01*
X445691Y1319662D01*
X446691Y1319395D01*
X447824Y1319195D01*
X449090Y1319129D01*
X449690D01*
X450356Y1319195D01*
X451223Y1319328D01*
X452223Y1319528D01*
X453289Y1319795D01*
X454422Y1320128D01*
X455489Y1320661D01*
X455555D01*
X455622Y1320728D01*
X455955Y1320928D01*
X456488Y1321328D01*
X457088Y1321794D01*
X457755Y1322394D01*
X458488Y1323194D01*
X459154Y1323994D01*
X459687Y1324994D01*
X459754Y1325127D01*
X459821Y1325394D01*
X460021Y1325860D01*
X460221Y1326593D01*
X460354Y1327460D01*
X460554Y1328526D01*
X460620Y1329792D01*
X460687Y1331259D01*
Y1333591D01*
D02*
G37*
G36*
X38928Y1360185D02*
X26798D01*
Y1344722D01*
X39395D01*
X40328Y1344789D01*
X41395Y1344855D01*
X42461Y1344922D01*
X43461Y1345055D01*
X44261Y1345255D01*
X44394Y1345322D01*
X44660Y1345388D01*
X45127Y1345588D01*
X45727Y1345855D01*
X46393Y1346255D01*
X46993Y1346655D01*
X47660Y1347188D01*
X48193Y1347788D01*
X48259Y1347854D01*
X48393Y1348121D01*
X48593Y1348521D01*
X48859Y1349054D01*
X49126Y1349654D01*
X49326Y1350454D01*
X49459Y1351320D01*
X49526Y1352320D01*
Y1352453D01*
Y1352720D01*
X49459Y1353253D01*
X49392Y1353853D01*
X49193Y1354519D01*
X48993Y1355253D01*
X48659Y1356052D01*
X48259Y1356785D01*
X48193Y1356852D01*
X48060Y1357119D01*
X47793Y1357452D01*
X47393Y1357852D01*
X46860Y1358318D01*
X46327Y1358718D01*
X45594Y1359118D01*
X44794Y1359451D01*
X44660Y1359518D01*
X44327Y1359585D01*
X43794Y1359718D01*
X42994Y1359851D01*
X42461Y1359918D01*
X41928Y1359985D01*
X41261D01*
X40528Y1360051D01*
X39795Y1360118D01*
X38928Y1360185D01*
D02*
G37*
G36*
X38595Y1338657D02*
X26798D01*
Y1321061D01*
X41328D01*
X42861Y1321128D01*
X43527Y1321195D01*
X44127Y1321261D01*
X44261D01*
X44527Y1321328D01*
X44927Y1321461D01*
X45460Y1321595D01*
X46127Y1321794D01*
X46726Y1321994D01*
X47393Y1322328D01*
X47993Y1322661D01*
X48060Y1322728D01*
X48259Y1322861D01*
X48526Y1323061D01*
X48926Y1323394D01*
X49326Y1323794D01*
X49792Y1324327D01*
X50192Y1324860D01*
X50592Y1325527D01*
X50659Y1325594D01*
X50792Y1325860D01*
X50925Y1326260D01*
X51125Y1326793D01*
X51325Y1327393D01*
X51525Y1328126D01*
X51592Y1328993D01*
X51659Y1329859D01*
Y1329992D01*
Y1330326D01*
X51592Y1330859D01*
X51459Y1331525D01*
X51259Y1332325D01*
X50992Y1333125D01*
X50659Y1333991D01*
X50126Y1334791D01*
X50059Y1334858D01*
X49859Y1335124D01*
X49526Y1335524D01*
X49059Y1335991D01*
X48459Y1336457D01*
X47793Y1336991D01*
X46993Y1337390D01*
X46060Y1337790D01*
X45927Y1337857D01*
X45594Y1337924D01*
X44994Y1338057D01*
X44127Y1338257D01*
X43127Y1338390D01*
X41794Y1338524D01*
X40328Y1338590D01*
X38595Y1338657D01*
D02*
G37*
G36*
X663035Y1347721D02*
X662635D01*
X662302Y1347655D01*
X661969D01*
X661502Y1347588D01*
X660503Y1347388D01*
X659370Y1346988D01*
X658103Y1346455D01*
X656904Y1345788D01*
X656304Y1345322D01*
X655704Y1344789D01*
X655571Y1344655D01*
X655237Y1344255D01*
X654771Y1343656D01*
X654238Y1342789D01*
X653638Y1341656D01*
X653105Y1340323D01*
X652705Y1338857D01*
X652505Y1337124D01*
X673233D01*
Y1337191D01*
Y1337324D01*
X673166Y1337590D01*
X673099Y1337857D01*
Y1338257D01*
X672966Y1338723D01*
X672766Y1339723D01*
X672433Y1340856D01*
X672033Y1341989D01*
X671500Y1343122D01*
X670833Y1344055D01*
Y1344122D01*
X670700Y1344189D01*
X670500Y1344389D01*
X670300Y1344655D01*
X669634Y1345188D01*
X668767Y1345922D01*
X667634Y1346588D01*
X666301Y1347121D01*
X664768Y1347588D01*
X663902Y1347655D01*
X663035Y1347721D01*
D02*
G37*
G36*
X372643D02*
X372243D01*
X371910Y1347655D01*
X371577D01*
X371110Y1347588D01*
X370110Y1347388D01*
X368977Y1346988D01*
X367711Y1346455D01*
X366511Y1345788D01*
X365911Y1345322D01*
X365312Y1344789D01*
X365178Y1344655D01*
X364845Y1344255D01*
X364379Y1343656D01*
X363845Y1342789D01*
X363246Y1341656D01*
X362712Y1340323D01*
X362312Y1338857D01*
X362112Y1337124D01*
X382840D01*
Y1337191D01*
Y1337324D01*
X382774Y1337590D01*
X382707Y1337857D01*
Y1338257D01*
X382574Y1338723D01*
X382374Y1339723D01*
X382041Y1340856D01*
X381641Y1341989D01*
X381107Y1343122D01*
X380441Y1344055D01*
Y1344122D01*
X380308Y1344189D01*
X380108Y1344389D01*
X379908Y1344655D01*
X379241Y1345188D01*
X378375Y1345922D01*
X377242Y1346588D01*
X375909Y1347121D01*
X374376Y1347588D01*
X373509Y1347655D01*
X372643Y1347721D01*
D02*
G37*
G36*
X161697D02*
X161231D01*
X160897Y1347655D01*
X160497Y1347588D01*
X160031Y1347521D01*
X158964Y1347255D01*
X157765Y1346855D01*
X156432Y1346255D01*
X155765Y1345855D01*
X155165Y1345388D01*
X154499Y1344789D01*
X153899Y1344189D01*
Y1344122D01*
X153766Y1344055D01*
X153632Y1343789D01*
X153433Y1343522D01*
X153166Y1343122D01*
X152899Y1342722D01*
X152633Y1342189D01*
X152366Y1341523D01*
X152100Y1340856D01*
X151833Y1340056D01*
X151566Y1339190D01*
X151300Y1338190D01*
X151100Y1337191D01*
X150967Y1336057D01*
X150900Y1334791D01*
X150833Y1333525D01*
Y1333458D01*
Y1333192D01*
Y1332858D01*
X150900Y1332392D01*
Y1331792D01*
X150967Y1331125D01*
X151100Y1330326D01*
X151233Y1329526D01*
X151566Y1327859D01*
X152100Y1326060D01*
X152899Y1324394D01*
X153366Y1323661D01*
X153899Y1322928D01*
X153966Y1322861D01*
X154032Y1322794D01*
X154232Y1322594D01*
X154432Y1322394D01*
X155165Y1321794D01*
X156032Y1321195D01*
X157165Y1320528D01*
X158498Y1319928D01*
X160031Y1319528D01*
X160831Y1319462D01*
X161697Y1319395D01*
X162164D01*
X162497Y1319462D01*
X162897Y1319528D01*
X163363Y1319595D01*
X164430Y1319862D01*
X165629Y1320262D01*
X166962Y1320861D01*
X167629Y1321261D01*
X168295Y1321794D01*
X168895Y1322328D01*
X169495Y1322928D01*
X169562Y1322994D01*
X169628Y1323127D01*
X169762Y1323327D01*
X169962Y1323594D01*
X170228Y1323994D01*
X170495Y1324460D01*
X170761Y1324994D01*
X171095Y1325594D01*
X171361Y1326327D01*
X171628Y1327126D01*
X171894Y1327993D01*
X172161Y1328993D01*
X172361Y1330059D01*
X172494Y1331192D01*
X172628Y1332392D01*
Y1333725D01*
Y1333791D01*
Y1334058D01*
Y1334391D01*
X172561Y1334858D01*
Y1335458D01*
X172494Y1336057D01*
X172361Y1336791D01*
X172228Y1337590D01*
X171894Y1339257D01*
X171295Y1340990D01*
X170562Y1342656D01*
X170028Y1343456D01*
X169495Y1344122D01*
X169428Y1344189D01*
X169362Y1344255D01*
X169162Y1344455D01*
X168962Y1344655D01*
X168229Y1345255D01*
X167362Y1345922D01*
X166229Y1346588D01*
X164896Y1347188D01*
X163363Y1347588D01*
X162563Y1347655D01*
X161697Y1347721D01*
D02*
G37*
G36*
X82184D02*
X81718D01*
X81384Y1347655D01*
X80984Y1347588D01*
X80518Y1347521D01*
X79451Y1347255D01*
X78252Y1346855D01*
X76919Y1346255D01*
X76252Y1345855D01*
X75652Y1345388D01*
X74986Y1344789D01*
X74386Y1344189D01*
Y1344122D01*
X74253Y1344055D01*
X74120Y1343789D01*
X73920Y1343522D01*
X73653Y1343122D01*
X73386Y1342722D01*
X73120Y1342189D01*
X72853Y1341523D01*
X72586Y1340856D01*
X72320Y1340056D01*
X72053Y1339190D01*
X71787Y1338190D01*
X71587Y1337191D01*
X71453Y1336057D01*
X71387Y1334791D01*
X71320Y1333525D01*
Y1333458D01*
Y1333192D01*
Y1332858D01*
X71387Y1332392D01*
Y1331792D01*
X71453Y1331125D01*
X71587Y1330326D01*
X71720Y1329526D01*
X72053Y1327859D01*
X72586Y1326060D01*
X73386Y1324394D01*
X73853Y1323661D01*
X74386Y1322928D01*
X74453Y1322861D01*
X74519Y1322794D01*
X74719Y1322594D01*
X74919Y1322394D01*
X75652Y1321794D01*
X76519Y1321195D01*
X77652Y1320528D01*
X78985Y1319928D01*
X80518Y1319528D01*
X81318Y1319462D01*
X82184Y1319395D01*
X82651D01*
X82984Y1319462D01*
X83384Y1319528D01*
X83850Y1319595D01*
X84917Y1319862D01*
X86116Y1320262D01*
X87449Y1320861D01*
X88116Y1321261D01*
X88782Y1321794D01*
X89382Y1322328D01*
X89982Y1322928D01*
X90049Y1322994D01*
X90115Y1323127D01*
X90249Y1323327D01*
X90449Y1323594D01*
X90715Y1323994D01*
X90982Y1324460D01*
X91248Y1324994D01*
X91582Y1325594D01*
X91848Y1326327D01*
X92115Y1327126D01*
X92381Y1327993D01*
X92648Y1328993D01*
X92848Y1330059D01*
X92981Y1331192D01*
X93115Y1332392D01*
Y1333725D01*
Y1333791D01*
Y1334058D01*
Y1334391D01*
X93048Y1334858D01*
Y1335458D01*
X92981Y1336057D01*
X92848Y1336791D01*
X92715Y1337590D01*
X92381Y1339257D01*
X91782Y1340990D01*
X91048Y1342656D01*
X90515Y1343456D01*
X89982Y1344122D01*
X89915Y1344189D01*
X89849Y1344255D01*
X89649Y1344455D01*
X89449Y1344655D01*
X88716Y1345255D01*
X87849Y1345922D01*
X86716Y1346588D01*
X85383Y1347188D01*
X83850Y1347588D01*
X83050Y1347655D01*
X82184Y1347721D01*
D02*
G37*
G36*
X289264Y1361251D02*
X288598D01*
X288065Y1361184D01*
X287465Y1361118D01*
X286732Y1360984D01*
X285932Y1360851D01*
X284999Y1360651D01*
X284066Y1360385D01*
X283066Y1360051D01*
X282066Y1359651D01*
X281000Y1359118D01*
X279933Y1358585D01*
X278867Y1357919D01*
X277867Y1357119D01*
X276868Y1356252D01*
X276801Y1356186D01*
X276668Y1356052D01*
X276401Y1355719D01*
X276068Y1355319D01*
X275668Y1354786D01*
X275268Y1354053D01*
X274801Y1353253D01*
X274335Y1352320D01*
X273802Y1351254D01*
X273335Y1350054D01*
X272935Y1348721D01*
X272535Y1347255D01*
X272202Y1345588D01*
X271936Y1343789D01*
X271802Y1341856D01*
X271736Y1339790D01*
Y1339657D01*
Y1339390D01*
X271802Y1338923D01*
Y1338257D01*
X271869Y1337457D01*
X272002Y1336591D01*
X272135Y1335591D01*
X272335Y1334525D01*
X272602Y1333325D01*
X272935Y1332125D01*
X273335Y1330925D01*
X273802Y1329726D01*
X274401Y1328526D01*
X275068Y1327326D01*
X275801Y1326260D01*
X276668Y1325194D01*
X276734Y1325127D01*
X276868Y1324994D01*
X277201Y1324727D01*
X277601Y1324394D01*
X278067Y1323994D01*
X278667Y1323527D01*
X279334Y1323061D01*
X280133Y1322594D01*
X280933Y1322061D01*
X281933Y1321595D01*
X282933Y1321128D01*
X284066Y1320728D01*
X285199Y1320395D01*
X286465Y1320128D01*
X287731Y1319995D01*
X289131Y1319928D01*
X289464D01*
X289864Y1319995D01*
X290397D01*
X291064Y1320061D01*
X291797Y1320195D01*
X292663Y1320395D01*
X293597Y1320595D01*
X294530Y1320861D01*
X295596Y1321261D01*
X296596Y1321661D01*
X297662Y1322194D01*
X298729Y1322794D01*
X299795Y1323527D01*
X300795Y1324327D01*
X301728Y1325260D01*
X301794Y1325327D01*
X301928Y1325527D01*
X302194Y1325793D01*
X302528Y1326260D01*
X302861Y1326793D01*
X303328Y1327460D01*
X303794Y1328259D01*
X304261Y1329193D01*
X304727Y1330192D01*
X305127Y1331392D01*
X305593Y1332592D01*
X305927Y1333991D01*
X306260Y1335458D01*
X306527Y1337057D01*
X306660Y1338723D01*
X306727Y1340523D01*
Y1340590D01*
Y1340790D01*
Y1341123D01*
Y1341589D01*
X306660Y1342123D01*
X306593Y1342722D01*
X306527Y1343456D01*
X306460Y1344255D01*
X306193Y1345922D01*
X305860Y1347788D01*
X305327Y1349654D01*
X304594Y1351454D01*
Y1351520D01*
X304527Y1351653D01*
X304394Y1351920D01*
X304194Y1352253D01*
X303994Y1352587D01*
X303727Y1353053D01*
X302994Y1354120D01*
X302128Y1355253D01*
X301061Y1356452D01*
X299862Y1357585D01*
X298395Y1358652D01*
X298329D01*
X298195Y1358785D01*
X297995Y1358918D01*
X297662Y1359052D01*
X297329Y1359252D01*
X296862Y1359451D01*
X296329Y1359718D01*
X295729Y1359985D01*
X294396Y1360451D01*
X292864Y1360851D01*
X291131Y1361118D01*
X289264Y1361251D01*
D02*
G37*
%LPD*%
D10*
X2426658Y144665D02*
X2429324D01*
X2427991D01*
Y138001D01*
X2429324Y136668D01*
X2430657D01*
X2431990Y138001D01*
X2418661Y144665D02*
X2423992D01*
Y140667D01*
X2421326Y141999D01*
X2419993D01*
X2418661Y140667D01*
Y138001D01*
X2419993Y136668D01*
X2422659D01*
X2423992Y138001D01*
X2415995Y135335D02*
X2410663D01*
X2402666Y143332D02*
X2403999Y144665D01*
X2406664D01*
X2407997Y143332D01*
Y138001D01*
X2406664Y136668D01*
X2403999D01*
X2402666Y138001D01*
X2400000Y144665D02*
Y136668D01*
Y140667D01*
X2394668D01*
Y144665D01*
Y136668D01*
X2392003D02*
Y141999D01*
X2389337Y144665D01*
X2386671Y141999D01*
Y136668D01*
Y140667D01*
X2392003D01*
X2384005Y136668D02*
Y144665D01*
X2378674Y136668D01*
Y144665D01*
X2376008Y138001D02*
X2374675Y136668D01*
X2372009D01*
X2370676Y138001D01*
Y143332D01*
X2372009Y144665D01*
X2374675D01*
X2376008Y143332D01*
Y141999D01*
X2374675Y140667D01*
X2370676D01*
X2171658Y144665D02*
X2174324D01*
X2172991D01*
Y138001D01*
X2174324Y136668D01*
X2175657D01*
X2176990Y138001D01*
X2163661Y144665D02*
X2168992D01*
Y140667D01*
X2166326Y141999D01*
X2164993D01*
X2163661Y140667D01*
Y138001D01*
X2164993Y136668D01*
X2167659D01*
X2168992Y138001D01*
X2160995Y135335D02*
X2155663D01*
X2147666Y143332D02*
X2148999Y144665D01*
X2151664D01*
X2152997Y143332D01*
Y138001D01*
X2151664Y136668D01*
X2148999D01*
X2147666Y138001D01*
X2145000Y144665D02*
Y136668D01*
Y140667D01*
X2139668D01*
Y144665D01*
Y136668D01*
X2137003D02*
Y141999D01*
X2134337Y144665D01*
X2131671Y141999D01*
Y136668D01*
Y140667D01*
X2137003D01*
X2129005Y136668D02*
Y144665D01*
X2123674Y136668D01*
Y144665D01*
X2121008Y143332D02*
X2119675Y144665D01*
X2117009D01*
X2115676Y143332D01*
Y141999D01*
X2117009Y140667D01*
X2115676Y139334D01*
Y138001D01*
X2117009Y136668D01*
X2119675D01*
X2121008Y138001D01*
Y139334D01*
X2119675Y140667D01*
X2121008Y141999D01*
Y143332D01*
X2119675Y140667D02*
X2117009D01*
X1916658Y144665D02*
X1919324D01*
X1917991D01*
Y138001D01*
X1919324Y136668D01*
X1920657D01*
X1921990Y138001D01*
X1908661Y144665D02*
X1913992D01*
Y140667D01*
X1911326Y141999D01*
X1909993D01*
X1908661Y140667D01*
Y138001D01*
X1909993Y136668D01*
X1912659D01*
X1913992Y138001D01*
X1905995Y135335D02*
X1900663D01*
X1892666Y143332D02*
X1893999Y144665D01*
X1896664D01*
X1897997Y143332D01*
Y138001D01*
X1896664Y136668D01*
X1893999D01*
X1892666Y138001D01*
X1890000Y144665D02*
Y136668D01*
Y140667D01*
X1884668D01*
Y144665D01*
Y136668D01*
X1882003D02*
Y141999D01*
X1879337Y144665D01*
X1876671Y141999D01*
Y136668D01*
Y140667D01*
X1882003D01*
X1874005Y136668D02*
Y144665D01*
X1868674Y136668D01*
Y144665D01*
X1866008D02*
X1860676D01*
Y143332D01*
X1866008Y138001D01*
Y136668D01*
X1661658Y144665D02*
X1664324D01*
X1662991D01*
Y138001D01*
X1664324Y136668D01*
X1665657D01*
X1666990Y138001D01*
X1653661Y144665D02*
X1658992D01*
Y140667D01*
X1656326Y141999D01*
X1654993D01*
X1653661Y140667D01*
Y138001D01*
X1654993Y136668D01*
X1657659D01*
X1658992Y138001D01*
X1650995Y135335D02*
X1645663D01*
X1637666Y143332D02*
X1638999Y144665D01*
X1641664D01*
X1642997Y143332D01*
Y138001D01*
X1641664Y136668D01*
X1638999D01*
X1637666Y138001D01*
X1635000Y144665D02*
Y136668D01*
Y140667D01*
X1629668D01*
Y144665D01*
Y136668D01*
X1627003D02*
Y141999D01*
X1624337Y144665D01*
X1621671Y141999D01*
Y136668D01*
Y140667D01*
X1627003D01*
X1619005Y136668D02*
Y144665D01*
X1613674Y136668D01*
Y144665D01*
X1605676D02*
X1608342Y143332D01*
X1611008Y140667D01*
Y138001D01*
X1609675Y136668D01*
X1607009D01*
X1605676Y138001D01*
Y139334D01*
X1607009Y140667D01*
X1611008D01*
X1406658Y144665D02*
X1409324D01*
X1407991D01*
Y138001D01*
X1409324Y136668D01*
X1410657D01*
X1411990Y138001D01*
X1398661Y144665D02*
X1403992D01*
Y140667D01*
X1401326Y141999D01*
X1399993D01*
X1398661Y140667D01*
Y138001D01*
X1399993Y136668D01*
X1402659D01*
X1403992Y138001D01*
X1395995Y135335D02*
X1390663D01*
X1382666Y143332D02*
X1383999Y144665D01*
X1386664D01*
X1387997Y143332D01*
Y138001D01*
X1386664Y136668D01*
X1383999D01*
X1382666Y138001D01*
X1380000Y144665D02*
Y136668D01*
Y140667D01*
X1374668D01*
Y144665D01*
Y136668D01*
X1372003D02*
Y141999D01*
X1369337Y144665D01*
X1366671Y141999D01*
Y136668D01*
Y140667D01*
X1372003D01*
X1364005Y136668D02*
Y144665D01*
X1358674Y136668D01*
Y144665D01*
X1350676D02*
X1356008D01*
Y140667D01*
X1353342Y141999D01*
X1352009D01*
X1350676Y140667D01*
Y138001D01*
X1352009Y136668D01*
X1354675D01*
X1356008Y138001D01*
X1151658Y144665D02*
X1154324D01*
X1152991D01*
Y138001D01*
X1154324Y136668D01*
X1155657D01*
X1156990Y138001D01*
X1143661Y144665D02*
X1148992D01*
Y140667D01*
X1146327Y141999D01*
X1144994D01*
X1143661Y140667D01*
Y138001D01*
X1144994Y136668D01*
X1147659D01*
X1148992Y138001D01*
X1140995Y135335D02*
X1135663D01*
X1127666Y143332D02*
X1128999Y144665D01*
X1131665D01*
X1132997Y143332D01*
Y138001D01*
X1131665Y136668D01*
X1128999D01*
X1127666Y138001D01*
X1125000Y144665D02*
Y136668D01*
Y140667D01*
X1119668D01*
Y144665D01*
Y136668D01*
X1117003D02*
Y141999D01*
X1114337Y144665D01*
X1111671Y141999D01*
Y136668D01*
Y140667D01*
X1117003D01*
X1109005Y136668D02*
Y144665D01*
X1103674Y136668D01*
Y144665D01*
X1097009Y136668D02*
Y144665D01*
X1101008Y140667D01*
X1095676D01*
X896658Y144665D02*
X899324D01*
X897991D01*
Y138001D01*
X899324Y136668D01*
X900657D01*
X901990Y138001D01*
X888661Y144665D02*
X893992D01*
Y140667D01*
X891327Y141999D01*
X889994D01*
X888661Y140667D01*
Y138001D01*
X889994Y136668D01*
X892659D01*
X893992Y138001D01*
X885995Y135335D02*
X880663D01*
X872666Y143332D02*
X873999Y144665D01*
X876665D01*
X877997Y143332D01*
Y138001D01*
X876665Y136668D01*
X873999D01*
X872666Y138001D01*
X870000Y144665D02*
Y136668D01*
Y140667D01*
X864668D01*
Y144665D01*
Y136668D01*
X862003D02*
Y141999D01*
X859337Y144665D01*
X856671Y141999D01*
Y136668D01*
Y140667D01*
X862003D01*
X854005Y136668D02*
Y144665D01*
X848674Y136668D01*
Y144665D01*
X846008Y143332D02*
X844675Y144665D01*
X842009D01*
X840676Y143332D01*
Y141999D01*
X842009Y140667D01*
X843342D01*
X842009D01*
X840676Y139334D01*
Y138001D01*
X842009Y136668D01*
X844675D01*
X846008Y138001D01*
X641658Y144665D02*
X644324D01*
X642991D01*
Y138001D01*
X644324Y136668D01*
X645657D01*
X646990Y138001D01*
X633661Y144665D02*
X638992D01*
Y140667D01*
X636326Y141999D01*
X634994D01*
X633661Y140667D01*
Y138001D01*
X634994Y136668D01*
X637659D01*
X638992Y138001D01*
X630995Y135335D02*
X625663D01*
X617666Y143332D02*
X618999Y144665D01*
X621665D01*
X622997Y143332D01*
Y138001D01*
X621665Y136668D01*
X618999D01*
X617666Y138001D01*
X615000Y144665D02*
Y136668D01*
Y140667D01*
X609668D01*
Y144665D01*
Y136668D01*
X607003D02*
Y141999D01*
X604337Y144665D01*
X601671Y141999D01*
Y136668D01*
Y140667D01*
X607003D01*
X599005Y136668D02*
Y144665D01*
X593674Y136668D01*
Y144665D01*
X585676Y136668D02*
X591008D01*
X585676Y141999D01*
Y143332D01*
X587009Y144665D01*
X589675D01*
X591008Y143332D01*
X383992Y144665D02*
X386658D01*
X385325D01*
Y138001D01*
X386658Y136668D01*
X387991D01*
X389324Y138001D01*
X375995Y144665D02*
X381326D01*
Y140667D01*
X378661Y141999D01*
X377328D01*
X375995Y140667D01*
Y138001D01*
X377328Y136668D01*
X379994D01*
X381326Y138001D01*
X373329Y135335D02*
X367997D01*
X360000Y143332D02*
X361333Y144665D01*
X363999D01*
X365332Y143332D01*
Y138001D01*
X363999Y136668D01*
X361333D01*
X360000Y138001D01*
X357334Y144665D02*
Y136668D01*
Y140667D01*
X352003D01*
Y144665D01*
Y136668D01*
X349337D02*
Y141999D01*
X346671Y144665D01*
X344005Y141999D01*
Y136668D01*
Y140667D01*
X349337D01*
X341339Y136668D02*
Y144665D01*
X336008Y136668D01*
Y144665D01*
X333342Y136668D02*
X330676D01*
X332009D01*
Y144665D01*
X333342Y143332D01*
M02*
