G04*
G04 #@! TF.GenerationSoftware,Altium Limited,Altium Designer,25.0.2 (28)*
G04*
G04 Layer_Color=16711935*
%FSLAX44Y44*%
%MOMM*%
G71*
G04*
G04 #@! TF.SameCoordinates,F5B53509-386E-4AF8-9846-D30C52800222*
G04*
G04*
G04 #@! TF.FilePolarity,Negative*
G04*
G01*
G75*
G36*
X415000Y77000D02*
X415597D01*
X416699Y77456D01*
X417543Y78300D01*
X418000Y79403D01*
Y80000D01*
D01*
Y102000D01*
X324000D01*
Y80000D01*
Y79403D01*
X324457Y78300D01*
X325300Y77456D01*
X326403Y77000D01*
X327000D01*
D01*
X415000D01*
D02*
G37*
G36*
X670000D02*
X670597D01*
X671699Y77456D01*
X672543Y78300D01*
X673000Y79403D01*
Y80000D01*
D01*
Y102000D01*
X579000D01*
Y80000D01*
Y79403D01*
X579457Y78300D01*
X580300Y77456D01*
X581403Y77000D01*
X582000D01*
D01*
X670000D01*
D02*
G37*
G36*
X925000D02*
X925597D01*
X926699Y77456D01*
X927543Y78300D01*
X928000Y79403D01*
Y80000D01*
D01*
Y102000D01*
X834000D01*
Y80000D01*
Y79403D01*
X834457Y78300D01*
X835301Y77456D01*
X836403Y77000D01*
X837000D01*
D01*
X925000D01*
D02*
G37*
G36*
X1180000D02*
X1180597D01*
X1181699Y77456D01*
X1182543Y78300D01*
X1183000Y79403D01*
Y80000D01*
D01*
Y102000D01*
X1089000D01*
Y80000D01*
Y79403D01*
X1089457Y78300D01*
X1090301Y77456D01*
X1091403Y77000D01*
X1092000D01*
D01*
X1180000D01*
D02*
G37*
G36*
X1435000D02*
X1435597D01*
X1436699Y77456D01*
X1437543Y78300D01*
X1438000Y79403D01*
Y80000D01*
D01*
Y102000D01*
X1344000D01*
Y80000D01*
Y79403D01*
X1344457Y78300D01*
X1345301Y77456D01*
X1346403Y77000D01*
X1347000D01*
D01*
X1435000D01*
D02*
G37*
G36*
X1690000D02*
X1690597D01*
X1691699Y77456D01*
X1692543Y78300D01*
X1693000Y79403D01*
Y80000D01*
D01*
Y102000D01*
X1599000D01*
Y80000D01*
Y79403D01*
X1599457Y78300D01*
X1600301Y77456D01*
X1601403Y77000D01*
X1602000D01*
D01*
X1690000D01*
D02*
G37*
G36*
X1945000D02*
X1945597D01*
X1946699Y77456D01*
X1947543Y78300D01*
X1948000Y79403D01*
Y80000D01*
D01*
Y102000D01*
X1854000D01*
Y80000D01*
Y79403D01*
X1854457Y78300D01*
X1855301Y77456D01*
X1856403Y77000D01*
X1857000D01*
D01*
X1945000D01*
D02*
G37*
G36*
X2200000D02*
X2200597D01*
X2201699Y77456D01*
X2202543Y78300D01*
X2203000Y79403D01*
Y80000D01*
D01*
Y102000D01*
X2109000D01*
Y80000D01*
Y79403D01*
X2109457Y78300D01*
X2110301Y77456D01*
X2111403Y77000D01*
X2112000D01*
D01*
X2200000D01*
D02*
G37*
G36*
X2455000D02*
X2455597D01*
X2456699Y77456D01*
X2457543Y78300D01*
X2458000Y79403D01*
Y80000D01*
D01*
Y102000D01*
X2364000D01*
Y80000D01*
Y79403D01*
X2364457Y78300D01*
X2365301Y77456D01*
X2366403Y77000D01*
X2367000D01*
D01*
X2455000D01*
D02*
G37*
G36*
X749613Y1286485D02*
X743348D01*
Y1293683D01*
X749613D01*
Y1286485D01*
D02*
G37*
G36*
X290264Y1294483D02*
X290931Y1294416D01*
X291730Y1294350D01*
X292597Y1294216D01*
X293530Y1294083D01*
X295529Y1293617D01*
X296596Y1293283D01*
X297729Y1292883D01*
X298795Y1292417D01*
X299862Y1291950D01*
X300928Y1291284D01*
X301928Y1290617D01*
X301994Y1290551D01*
X302128Y1290417D01*
X302461Y1290217D01*
X302794Y1289884D01*
X303194Y1289484D01*
X303727Y1289018D01*
X304261Y1288418D01*
X304860Y1287751D01*
X305460Y1287018D01*
X306060Y1286219D01*
X306660Y1285285D01*
X307260Y1284352D01*
X307860Y1283286D01*
X308393Y1282153D01*
X308926Y1280887D01*
X309326Y1279620D01*
X302661Y1278021D01*
Y1278087D01*
X302594Y1278287D01*
X302461Y1278554D01*
X302328Y1278954D01*
X302128Y1279420D01*
X301928Y1279953D01*
X301328Y1281153D01*
X300595Y1282486D01*
X299728Y1283819D01*
X298662Y1285085D01*
X298062Y1285619D01*
X297462Y1286152D01*
X297396D01*
X297329Y1286285D01*
X297129Y1286418D01*
X296862Y1286552D01*
X296529Y1286752D01*
X296129Y1286952D01*
X295130Y1287485D01*
X293863Y1287951D01*
X292397Y1288351D01*
X290731Y1288618D01*
X288864Y1288751D01*
X288265D01*
X287865Y1288685D01*
X287398D01*
X286798Y1288618D01*
X286132Y1288484D01*
X285399Y1288418D01*
X283866Y1288085D01*
X282199Y1287552D01*
X280533Y1286818D01*
X279734Y1286418D01*
X278934Y1285885D01*
X278867D01*
X278734Y1285752D01*
X278534Y1285619D01*
X278267Y1285352D01*
X277601Y1284752D01*
X276801Y1283886D01*
X275868Y1282819D01*
X274935Y1281486D01*
X274068Y1280020D01*
X273402Y1278287D01*
Y1278221D01*
X273335Y1278087D01*
X273269Y1277821D01*
X273135Y1277487D01*
X273002Y1277021D01*
X272869Y1276488D01*
X272735Y1275888D01*
X272602Y1275288D01*
X272335Y1273755D01*
X272069Y1272089D01*
X271869Y1270289D01*
X271802Y1268423D01*
Y1268356D01*
Y1268156D01*
Y1267823D01*
Y1267357D01*
X271869Y1266757D01*
X271936Y1266090D01*
Y1265357D01*
X272069Y1264557D01*
X272269Y1262758D01*
X272602Y1260892D01*
X273069Y1258892D01*
X273668Y1257026D01*
Y1256959D01*
X273735Y1256826D01*
X273868Y1256559D01*
X274068Y1256226D01*
X274268Y1255826D01*
X274468Y1255360D01*
X275135Y1254293D01*
X276001Y1253094D01*
X277001Y1251894D01*
X278201Y1250761D01*
X279600Y1249761D01*
X279667D01*
X279800Y1249628D01*
X280000Y1249561D01*
X280333Y1249361D01*
X280667Y1249228D01*
X281133Y1249028D01*
X282199Y1248561D01*
X283533Y1248095D01*
X284999Y1247762D01*
X286598Y1247495D01*
X288331Y1247362D01*
X288864D01*
X289264Y1247428D01*
X289798Y1247495D01*
X290331Y1247562D01*
X290997Y1247628D01*
X291664Y1247762D01*
X293197Y1248161D01*
X294796Y1248761D01*
X295663Y1249095D01*
X296463Y1249561D01*
X297262Y1250028D01*
X297995Y1250628D01*
X298062Y1250694D01*
X298195Y1250761D01*
X298395Y1250961D01*
X298662Y1251227D01*
X298929Y1251561D01*
X299328Y1252027D01*
X299728Y1252494D01*
X300128Y1253094D01*
X300595Y1253693D01*
X301061Y1254427D01*
X301461Y1255226D01*
X301928Y1256093D01*
X302328Y1257093D01*
X302728Y1258092D01*
X303061Y1259159D01*
X303394Y1260358D01*
X310192Y1258625D01*
Y1258559D01*
X310059Y1258292D01*
X309926Y1257826D01*
X309792Y1257226D01*
X309526Y1256559D01*
X309193Y1255760D01*
X308859Y1254893D01*
X308393Y1253893D01*
X307926Y1252894D01*
X307326Y1251827D01*
X306727Y1250827D01*
X305993Y1249761D01*
X305260Y1248695D01*
X304394Y1247695D01*
X303461Y1246762D01*
X302461Y1245895D01*
X302394Y1245829D01*
X302194Y1245695D01*
X301928Y1245496D01*
X301461Y1245229D01*
X300928Y1244896D01*
X300262Y1244496D01*
X299528Y1244163D01*
X298729Y1243763D01*
X297729Y1243296D01*
X296729Y1242963D01*
X295596Y1242563D01*
X294396Y1242230D01*
X293130Y1241963D01*
X291797Y1241763D01*
X290397Y1241630D01*
X288931Y1241563D01*
X288131D01*
X287532Y1241630D01*
X286865Y1241696D01*
X285999Y1241763D01*
X285132Y1241830D01*
X284132Y1241963D01*
X282000Y1242363D01*
X279734Y1242963D01*
X278601Y1243363D01*
X277467Y1243829D01*
X276401Y1244296D01*
X275401Y1244896D01*
X275335Y1244962D01*
X275201Y1245029D01*
X274935Y1245229D01*
X274535Y1245562D01*
X274135Y1245895D01*
X273602Y1246295D01*
X273069Y1246829D01*
X272469Y1247428D01*
X271802Y1248028D01*
X271202Y1248761D01*
X270536Y1249561D01*
X269869Y1250494D01*
X269203Y1251427D01*
X268603Y1252427D01*
X268003Y1253560D01*
X267470Y1254693D01*
Y1254760D01*
X267337Y1254960D01*
X267203Y1255360D01*
X267070Y1255826D01*
X266870Y1256426D01*
X266604Y1257093D01*
X266404Y1257892D01*
X266137Y1258826D01*
X265870Y1259825D01*
X265670Y1260892D01*
X265404Y1262025D01*
X265204Y1263158D01*
X264937Y1265757D01*
X264804Y1268423D01*
Y1268490D01*
Y1268756D01*
Y1269223D01*
X264871Y1269756D01*
Y1270489D01*
X264937Y1271289D01*
X265071Y1272155D01*
X265204Y1273155D01*
X265337Y1274221D01*
X265537Y1275355D01*
X266070Y1277687D01*
X266803Y1280020D01*
X267270Y1281220D01*
X267803Y1282353D01*
X267870Y1282419D01*
X267936Y1282619D01*
X268137Y1282953D01*
X268403Y1283353D01*
X268670Y1283819D01*
X269070Y1284419D01*
X269536Y1285019D01*
X270069Y1285752D01*
X271269Y1287218D01*
X272802Y1288685D01*
X274535Y1290151D01*
X275535Y1290817D01*
X276534Y1291417D01*
X276601Y1291484D01*
X276801Y1291550D01*
X277134Y1291684D01*
X277534Y1291884D01*
X278067Y1292150D01*
X278667Y1292417D01*
X279400Y1292684D01*
X280200Y1293017D01*
X281133Y1293283D01*
X282066Y1293550D01*
X284199Y1294083D01*
X286532Y1294416D01*
X287731Y1294550D01*
X289731D01*
X290264Y1294483D01*
D02*
G37*
G36*
X641241Y1280287D02*
X641641D01*
X642174Y1280220D01*
X643307Y1280020D01*
X644573Y1279753D01*
X646040Y1279287D01*
X647439Y1278687D01*
X648839Y1277887D01*
X648906D01*
X648972Y1277754D01*
X649172Y1277621D01*
X649439Y1277421D01*
X650105Y1276888D01*
X650905Y1276088D01*
X651772Y1275088D01*
X652705Y1273955D01*
X653571Y1272555D01*
X654371Y1270956D01*
Y1270889D01*
X654438Y1270756D01*
X654571Y1270489D01*
X654638Y1270156D01*
X654837Y1269756D01*
X654971Y1269289D01*
X655104Y1268690D01*
X655304Y1268090D01*
X655637Y1266624D01*
X655971Y1265024D01*
X656170Y1263158D01*
X656237Y1261225D01*
Y1261158D01*
Y1260958D01*
Y1260692D01*
Y1260292D01*
X656170Y1259759D01*
X656104Y1259159D01*
X656037Y1258559D01*
X655971Y1257826D01*
X655704Y1256226D01*
X655371Y1254493D01*
X654837Y1252694D01*
X654171Y1250961D01*
Y1250894D01*
X654104Y1250761D01*
X653971Y1250561D01*
X653771Y1250228D01*
X653571Y1249828D01*
X653305Y1249428D01*
X652638Y1248428D01*
X651772Y1247295D01*
X650772Y1246095D01*
X649572Y1245029D01*
X648173Y1244029D01*
X648106D01*
X647972Y1243896D01*
X647773Y1243829D01*
X647506Y1243629D01*
X647173Y1243496D01*
X646706Y1243296D01*
X645706Y1242830D01*
X644507Y1242363D01*
X643107Y1242030D01*
X641574Y1241763D01*
X639975Y1241630D01*
X639441D01*
X638842Y1241696D01*
X638108Y1241830D01*
X637242Y1241963D01*
X636242Y1242163D01*
X635309Y1242496D01*
X634309Y1242963D01*
X634176Y1243029D01*
X633909Y1243230D01*
X633443Y1243496D01*
X632910Y1243896D01*
X632243Y1244362D01*
X631577Y1244962D01*
X630910Y1245562D01*
X630244Y1246295D01*
Y1228233D01*
X623979D01*
Y1279554D01*
X629711D01*
Y1274688D01*
X629777Y1274821D01*
X630044Y1275155D01*
X630510Y1275621D01*
X631044Y1276288D01*
X631710Y1276954D01*
X632443Y1277621D01*
X633310Y1278287D01*
X634243Y1278887D01*
X634376Y1278954D01*
X634709Y1279087D01*
X635243Y1279354D01*
X635976Y1279620D01*
X636909Y1279887D01*
X637975Y1280153D01*
X639175Y1280287D01*
X640441Y1280353D01*
X640908D01*
X641241Y1280287D01*
D02*
G37*
G36*
X777873D02*
X778739Y1280220D01*
X779672Y1280020D01*
X780739Y1279820D01*
X781805Y1279487D01*
X782871Y1279087D01*
X783005Y1279020D01*
X783338Y1278887D01*
X783804Y1278620D01*
X784471Y1278221D01*
X785137Y1277821D01*
X785804Y1277287D01*
X786470Y1276621D01*
X787070Y1275954D01*
X787137Y1275888D01*
X787270Y1275621D01*
X787537Y1275221D01*
X787870Y1274621D01*
X788137Y1273955D01*
X788470Y1273155D01*
X788736Y1272289D01*
X789003Y1271289D01*
Y1271222D01*
X789070Y1270956D01*
X789136Y1270489D01*
X789203Y1269889D01*
X789270Y1269023D01*
X789336Y1268023D01*
X789403Y1266757D01*
Y1265224D01*
Y1242430D01*
X783138D01*
Y1264957D01*
Y1265024D01*
Y1265157D01*
Y1265291D01*
Y1265557D01*
X783071Y1266290D01*
Y1267090D01*
X782938Y1268023D01*
X782805Y1268956D01*
X782605Y1269823D01*
X782338Y1270622D01*
Y1270689D01*
X782205Y1270956D01*
X782005Y1271289D01*
X781738Y1271756D01*
X781405Y1272222D01*
X780938Y1272755D01*
X780405Y1273222D01*
X779739Y1273688D01*
X779672Y1273755D01*
X779406Y1273888D01*
X779006Y1274088D01*
X778473Y1274288D01*
X777873Y1274488D01*
X777140Y1274688D01*
X776273Y1274821D01*
X775407Y1274888D01*
X775007D01*
X774740Y1274821D01*
X773940Y1274755D01*
X773007Y1274555D01*
X771941Y1274288D01*
X770741Y1273822D01*
X769541Y1273155D01*
X768408Y1272289D01*
X768275Y1272155D01*
X768142Y1272022D01*
X767942Y1271756D01*
X767742Y1271489D01*
X767475Y1271089D01*
X767275Y1270689D01*
X767009Y1270156D01*
X766742Y1269489D01*
X766476Y1268823D01*
X766209Y1268023D01*
X766009Y1267157D01*
X765809Y1266157D01*
X765676Y1265090D01*
X765609Y1263891D01*
X765542Y1262625D01*
Y1242430D01*
X759277D01*
Y1279554D01*
X764943D01*
Y1274221D01*
X765009Y1274288D01*
X765143Y1274488D01*
X765342Y1274821D01*
X765676Y1275155D01*
X766142Y1275621D01*
X766609Y1276154D01*
X767209Y1276688D01*
X767942Y1277287D01*
X768742Y1277887D01*
X769608Y1278420D01*
X770541Y1278954D01*
X771608Y1279420D01*
X772741Y1279820D01*
X773940Y1280087D01*
X775273Y1280287D01*
X776673Y1280353D01*
X777273D01*
X777873Y1280287D01*
D02*
G37*
G36*
X722153D02*
X723020Y1280220D01*
X723953Y1280020D01*
X725020Y1279820D01*
X726086Y1279487D01*
X727152Y1279087D01*
X727286Y1279020D01*
X727619Y1278887D01*
X728085Y1278620D01*
X728752Y1278221D01*
X729418Y1277821D01*
X730085Y1277287D01*
X730751Y1276621D01*
X731351Y1275954D01*
X731418Y1275888D01*
X731551Y1275621D01*
X731818Y1275221D01*
X732151Y1274621D01*
X732418Y1273955D01*
X732751Y1273155D01*
X733017Y1272289D01*
X733284Y1271289D01*
Y1271222D01*
X733351Y1270956D01*
X733417Y1270489D01*
X733484Y1269889D01*
X733551Y1269023D01*
X733617Y1268023D01*
X733684Y1266757D01*
Y1265224D01*
Y1242430D01*
X727419D01*
Y1264957D01*
Y1265024D01*
Y1265157D01*
Y1265291D01*
Y1265557D01*
X727352Y1266290D01*
Y1267090D01*
X727219Y1268023D01*
X727086Y1268956D01*
X726886Y1269823D01*
X726619Y1270622D01*
Y1270689D01*
X726486Y1270956D01*
X726286Y1271289D01*
X726019Y1271756D01*
X725686Y1272222D01*
X725219Y1272755D01*
X724686Y1273222D01*
X724020Y1273688D01*
X723953Y1273755D01*
X723687Y1273888D01*
X723287Y1274088D01*
X722753Y1274288D01*
X722153Y1274488D01*
X721420Y1274688D01*
X720554Y1274821D01*
X719688Y1274888D01*
X719288D01*
X719021Y1274821D01*
X718221Y1274755D01*
X717288Y1274555D01*
X716222Y1274288D01*
X715022Y1273822D01*
X713822Y1273155D01*
X712689Y1272289D01*
X712556Y1272155D01*
X712423Y1272022D01*
X712223Y1271756D01*
X712023Y1271489D01*
X711756Y1271089D01*
X711556Y1270689D01*
X711290Y1270156D01*
X711023Y1269489D01*
X710757Y1268823D01*
X710490Y1268023D01*
X710290Y1267157D01*
X710090Y1266157D01*
X709957Y1265090D01*
X709890Y1263891D01*
X709823Y1262625D01*
Y1242430D01*
X703558D01*
Y1279554D01*
X709223D01*
Y1274221D01*
X709290Y1274288D01*
X709424Y1274488D01*
X709623Y1274821D01*
X709957Y1275155D01*
X710423Y1275621D01*
X710890Y1276154D01*
X711490Y1276688D01*
X712223Y1277287D01*
X713023Y1277887D01*
X713889Y1278420D01*
X714822Y1278954D01*
X715889Y1279420D01*
X717021Y1279820D01*
X718221Y1280087D01*
X719554Y1280287D01*
X720954Y1280353D01*
X721554D01*
X722153Y1280287D01*
D02*
G37*
G36*
X447890Y1280220D02*
X448690Y1280087D01*
X449690Y1279820D01*
X450823Y1279487D01*
X451956Y1278954D01*
X453222Y1278287D01*
X451023Y1272489D01*
X450890Y1272555D01*
X450623Y1272689D01*
X450157Y1272888D01*
X449557Y1273155D01*
X448890Y1273422D01*
X448090Y1273622D01*
X447224Y1273755D01*
X446357Y1273822D01*
X446024D01*
X445624Y1273755D01*
X445091Y1273688D01*
X444558Y1273488D01*
X443891Y1273288D01*
X443292Y1272955D01*
X442625Y1272555D01*
X442559Y1272489D01*
X442359Y1272355D01*
X442092Y1272022D01*
X441759Y1271622D01*
X441359Y1271156D01*
X440959Y1270556D01*
X440626Y1269889D01*
X440292Y1269090D01*
Y1269023D01*
X440226Y1268956D01*
Y1268756D01*
X440159Y1268490D01*
X439959Y1267823D01*
X439826Y1266957D01*
X439626Y1265824D01*
X439426Y1264624D01*
X439359Y1263224D01*
X439293Y1261758D01*
Y1242430D01*
X433028D01*
Y1279554D01*
X438693D01*
Y1273888D01*
X438759Y1274022D01*
X438893Y1274221D01*
X439026Y1274488D01*
X439493Y1275155D01*
X439959Y1275954D01*
X440559Y1276888D01*
X441226Y1277754D01*
X441959Y1278487D01*
X442625Y1279087D01*
X442692Y1279154D01*
X442958Y1279287D01*
X443358Y1279487D01*
X443825Y1279753D01*
X444425Y1279953D01*
X445158Y1280153D01*
X445891Y1280287D01*
X446691Y1280353D01*
X447224D01*
X447890Y1280220D01*
D02*
G37*
G36*
X226214Y1280287D02*
X226680D01*
X227214Y1280220D01*
X228480Y1279953D01*
X229813Y1279620D01*
X231213Y1279087D01*
X232612Y1278287D01*
X233212Y1277821D01*
X233812Y1277287D01*
X233879Y1277221D01*
X233945Y1277154D01*
X234079Y1276954D01*
X234279Y1276688D01*
X234478Y1276354D01*
X234745Y1275954D01*
X235012Y1275488D01*
X235345Y1274955D01*
X235611Y1274355D01*
X235878Y1273622D01*
X236145Y1272888D01*
X236345Y1272022D01*
X236545Y1271089D01*
X236678Y1270089D01*
X236811Y1268956D01*
Y1267823D01*
Y1242430D01*
X230546D01*
Y1265757D01*
Y1265824D01*
Y1265890D01*
Y1266090D01*
Y1266357D01*
Y1267023D01*
X230479Y1267823D01*
X230413Y1268690D01*
X230280Y1269623D01*
X230146Y1270423D01*
X229946Y1271156D01*
Y1271222D01*
X229813Y1271422D01*
X229680Y1271756D01*
X229413Y1272089D01*
X229146Y1272555D01*
X228747Y1272955D01*
X228280Y1273422D01*
X227680Y1273822D01*
X227614Y1273888D01*
X227414Y1274022D01*
X227080Y1274155D01*
X226614Y1274355D01*
X226081Y1274555D01*
X225414Y1274755D01*
X224748Y1274821D01*
X223948Y1274888D01*
X223548D01*
X223281Y1274821D01*
X222548Y1274755D01*
X221615Y1274555D01*
X220549Y1274221D01*
X219482Y1273755D01*
X218349Y1273089D01*
X217349Y1272222D01*
X217216Y1272089D01*
X216950Y1271756D01*
X216550Y1271089D01*
X216083Y1270223D01*
X215816Y1269689D01*
X215550Y1269090D01*
X215350Y1268356D01*
X215150Y1267623D01*
X215017Y1266823D01*
X214883Y1265957D01*
X214750Y1264957D01*
Y1263958D01*
Y1242430D01*
X208485D01*
Y1266490D01*
Y1266557D01*
Y1266690D01*
Y1266890D01*
Y1267157D01*
X208418Y1267956D01*
X208285Y1268823D01*
X208085Y1269889D01*
X207819Y1270889D01*
X207485Y1271889D01*
X206952Y1272755D01*
X206886Y1272822D01*
X206686Y1273089D01*
X206286Y1273422D01*
X205752Y1273822D01*
X205086Y1274221D01*
X204219Y1274555D01*
X203153Y1274821D01*
X201953Y1274888D01*
X201487D01*
X201020Y1274821D01*
X200354Y1274688D01*
X199554Y1274555D01*
X198754Y1274288D01*
X197888Y1273955D01*
X197021Y1273488D01*
X196955Y1273422D01*
X196621Y1273222D01*
X196222Y1272888D01*
X195755Y1272422D01*
X195222Y1271889D01*
X194689Y1271156D01*
X194155Y1270289D01*
X193689Y1269356D01*
X193622Y1269223D01*
X193556Y1268890D01*
X193356Y1268223D01*
X193222Y1267423D01*
X193022Y1266290D01*
X192822Y1264957D01*
X192756Y1263424D01*
X192689Y1261625D01*
Y1242430D01*
X186424D01*
Y1279554D01*
X192023D01*
Y1274288D01*
X192089Y1274421D01*
X192356Y1274755D01*
X192756Y1275221D01*
X193289Y1275888D01*
X193955Y1276554D01*
X194755Y1277287D01*
X195688Y1278021D01*
X196688Y1278687D01*
X196755D01*
X196821Y1278754D01*
X197221Y1278954D01*
X197821Y1279220D01*
X198621Y1279554D01*
X199621Y1279820D01*
X200687Y1280087D01*
X201953Y1280287D01*
X203286Y1280353D01*
X203953D01*
X204753Y1280287D01*
X205686Y1280153D01*
X206752Y1279953D01*
X207885Y1279620D01*
X208952Y1279220D01*
X210018Y1278620D01*
X210151Y1278554D01*
X210485Y1278287D01*
X210951Y1277887D01*
X211484Y1277354D01*
X212151Y1276688D01*
X212751Y1275888D01*
X213351Y1274888D01*
X213817Y1273822D01*
X213884Y1273888D01*
X214017Y1274088D01*
X214284Y1274421D01*
X214617Y1274821D01*
X215083Y1275355D01*
X215617Y1275888D01*
X216216Y1276488D01*
X216883Y1277087D01*
X217683Y1277687D01*
X218549Y1278287D01*
X219482Y1278820D01*
X220482Y1279354D01*
X221615Y1279753D01*
X222748Y1280087D01*
X224014Y1280287D01*
X225281Y1280353D01*
X225814D01*
X226214Y1280287D01*
D02*
G37*
G36*
X373709Y1242430D02*
X367644D01*
X353648Y1279554D01*
X360313D01*
X368244Y1257292D01*
Y1257226D01*
X368311Y1257159D01*
X368377Y1256959D01*
X368444Y1256693D01*
X368711Y1255959D01*
X369044Y1255026D01*
X369444Y1253893D01*
X369844Y1252627D01*
X370244Y1251227D01*
X370644Y1249828D01*
Y1249894D01*
X370710Y1249961D01*
X370777Y1250361D01*
X370977Y1250961D01*
X371243Y1251827D01*
X371577Y1252827D01*
X371977Y1254027D01*
X372443Y1255426D01*
X372976Y1256893D01*
X381174Y1279554D01*
X387706D01*
X373709Y1242430D01*
D02*
G37*
G36*
X529003Y1241830D02*
Y1241763D01*
X528936Y1241563D01*
X528803Y1241230D01*
X528603Y1240830D01*
X528470Y1240363D01*
X528203Y1239764D01*
X527737Y1238497D01*
X527137Y1237098D01*
X526537Y1235698D01*
X526004Y1234432D01*
X525737Y1233898D01*
X525471Y1233432D01*
X525404Y1233299D01*
X525204Y1232965D01*
X524804Y1232366D01*
X524338Y1231699D01*
X523804Y1230966D01*
X523138Y1230233D01*
X522405Y1229500D01*
X521605Y1228900D01*
X521538Y1228833D01*
X521205Y1228700D01*
X520805Y1228433D01*
X520139Y1228167D01*
X519406Y1227900D01*
X518539Y1227634D01*
X517539Y1227500D01*
X516473Y1227433D01*
X516140D01*
X515740Y1227500D01*
X515273Y1227567D01*
X514673Y1227634D01*
X513940Y1227767D01*
X513207Y1227967D01*
X512407Y1228233D01*
X511741Y1234099D01*
X511807D01*
X512074Y1234032D01*
X512474Y1233898D01*
X512940Y1233832D01*
X513474Y1233699D01*
X514073Y1233565D01*
X515273Y1233499D01*
X515606D01*
X516006Y1233565D01*
X516473D01*
X517606Y1233832D01*
X518139Y1233965D01*
X518606Y1234232D01*
X518672D01*
X518806Y1234365D01*
X519072Y1234498D01*
X519339Y1234698D01*
X520005Y1235298D01*
X520672Y1236165D01*
Y1236231D01*
X520805Y1236365D01*
X520938Y1236631D01*
X521138Y1237098D01*
X521405Y1237764D01*
X521738Y1238564D01*
X522138Y1239630D01*
X522338Y1240230D01*
X522605Y1240897D01*
X522671Y1240963D01*
X522738Y1241297D01*
X522938Y1241763D01*
X523204Y1242430D01*
X509075Y1279554D01*
X515740D01*
X523538Y1258092D01*
Y1258026D01*
X523604Y1257892D01*
X523671Y1257692D01*
X523804Y1257359D01*
X523938Y1257026D01*
X524071Y1256559D01*
X524404Y1255493D01*
X524804Y1254227D01*
X525271Y1252760D01*
X525737Y1251161D01*
X526204Y1249494D01*
Y1249561D01*
X526270Y1249695D01*
X526337Y1249894D01*
X526404Y1250228D01*
X526537Y1250628D01*
X526670Y1251094D01*
X526937Y1252160D01*
X527337Y1253427D01*
X527803Y1254827D01*
X528336Y1256359D01*
X528870Y1257892D01*
X536801Y1279554D01*
X543066D01*
X529003Y1241830D01*
D02*
G37*
G36*
X749613Y1242430D02*
X743348D01*
Y1279554D01*
X749613D01*
Y1242430D01*
D02*
G37*
G36*
X490213Y1280287D02*
X491279Y1280220D01*
X492479Y1280087D01*
X493812Y1279887D01*
X495012Y1279620D01*
X496211Y1279220D01*
X496278D01*
X496345Y1279154D01*
X496678Y1279020D01*
X497211Y1278754D01*
X497878Y1278420D01*
X498611Y1278021D01*
X499344Y1277554D01*
X500010Y1276954D01*
X500610Y1276354D01*
X500677Y1276288D01*
X500810Y1276088D01*
X501077Y1275688D01*
X501410Y1275221D01*
X501743Y1274621D01*
X502077Y1273888D01*
X502343Y1273089D01*
X502610Y1272155D01*
Y1272089D01*
X502676Y1271822D01*
X502743Y1271422D01*
X502810Y1270822D01*
Y1270023D01*
X502876Y1269023D01*
X502943Y1267823D01*
Y1266357D01*
Y1257959D01*
Y1257892D01*
Y1257559D01*
Y1257159D01*
Y1256559D01*
Y1255893D01*
Y1255093D01*
Y1254227D01*
X503010Y1253294D01*
Y1251427D01*
X503076Y1249628D01*
X503143Y1248761D01*
Y1248028D01*
X503210Y1247428D01*
X503276Y1246895D01*
Y1246762D01*
X503343Y1246495D01*
X503476Y1246029D01*
X503610Y1245496D01*
X503876Y1244762D01*
X504143Y1244029D01*
X504476Y1243230D01*
X504876Y1242430D01*
X498278D01*
X498211Y1242496D01*
X498144Y1242763D01*
X497944Y1243163D01*
X497811Y1243763D01*
X497544Y1244429D01*
X497411Y1245229D01*
X497211Y1246095D01*
X497078Y1247095D01*
X497011D01*
X496945Y1246962D01*
X496745Y1246829D01*
X496478Y1246629D01*
X495812Y1246095D01*
X494878Y1245429D01*
X493879Y1244762D01*
X492746Y1244029D01*
X491479Y1243363D01*
X490280Y1242830D01*
X490213D01*
X490146Y1242763D01*
X489946Y1242696D01*
X489746Y1242630D01*
X489080Y1242430D01*
X488214Y1242230D01*
X487214Y1242030D01*
X486014Y1241830D01*
X484748Y1241696D01*
X483415Y1241630D01*
X482815D01*
X482415Y1241696D01*
X481882D01*
X481282Y1241763D01*
X479949Y1242030D01*
X478416Y1242363D01*
X476883Y1242896D01*
X475350Y1243629D01*
X474684Y1244029D01*
X474017Y1244563D01*
X473950Y1244629D01*
X473884Y1244696D01*
X473484Y1245096D01*
X473017Y1245762D01*
X472417Y1246629D01*
X471818Y1247762D01*
X471284Y1249028D01*
X470885Y1250494D01*
X470818Y1251294D01*
X470751Y1252160D01*
Y1252294D01*
Y1252627D01*
X470818Y1253160D01*
X470885Y1253827D01*
X471018Y1254560D01*
X471284Y1255426D01*
X471551Y1256293D01*
X471951Y1257159D01*
X472018Y1257292D01*
X472151Y1257559D01*
X472484Y1257959D01*
X472817Y1258492D01*
X473284Y1259025D01*
X473884Y1259625D01*
X474484Y1260225D01*
X475217Y1260758D01*
X475283Y1260825D01*
X475550Y1260958D01*
X476017Y1261225D01*
X476550Y1261558D01*
X477216Y1261891D01*
X477949Y1262225D01*
X478816Y1262558D01*
X479749Y1262824D01*
X479816D01*
X480082Y1262891D01*
X480549Y1263024D01*
X481149Y1263091D01*
X481948Y1263291D01*
X482882Y1263424D01*
X484015Y1263558D01*
X485348Y1263757D01*
X485414D01*
X485681Y1263824D01*
X486081D01*
X486614Y1263958D01*
X487214Y1264024D01*
X487947Y1264091D01*
X488747Y1264224D01*
X489613Y1264357D01*
X491413Y1264691D01*
X493279Y1265090D01*
X495012Y1265490D01*
X495812Y1265757D01*
X496545Y1265957D01*
Y1266024D01*
Y1266157D01*
Y1266357D01*
X496611Y1266624D01*
Y1267157D01*
Y1267423D01*
Y1267557D01*
Y1267623D01*
Y1267757D01*
Y1267956D01*
Y1268156D01*
X496545Y1268890D01*
X496411Y1269689D01*
X496145Y1270622D01*
X495878Y1271489D01*
X495412Y1272355D01*
X494812Y1273022D01*
X494678Y1273089D01*
X494345Y1273355D01*
X493812Y1273688D01*
X493012Y1274088D01*
X491946Y1274488D01*
X490746Y1274821D01*
X489280Y1275088D01*
X487614Y1275155D01*
X486880D01*
X486081Y1275088D01*
X485148Y1274955D01*
X484015Y1274755D01*
X482948Y1274488D01*
X481882Y1274088D01*
X481015Y1273555D01*
X480949Y1273488D01*
X480682Y1273288D01*
X480282Y1272888D01*
X479882Y1272289D01*
X479349Y1271555D01*
X478882Y1270622D01*
X478349Y1269423D01*
X477949Y1268090D01*
X471818Y1268956D01*
Y1269023D01*
X471884Y1269156D01*
Y1269356D01*
X471951Y1269623D01*
X472151Y1270356D01*
X472484Y1271222D01*
X472817Y1272222D01*
X473284Y1273288D01*
X473884Y1274355D01*
X474550Y1275288D01*
X474617Y1275421D01*
X474883Y1275688D01*
X475350Y1276088D01*
X475950Y1276688D01*
X476750Y1277287D01*
X477683Y1277887D01*
X478816Y1278487D01*
X480082Y1279020D01*
X480149D01*
X480282Y1279087D01*
X480482Y1279154D01*
X480749Y1279220D01*
X481082Y1279354D01*
X481482Y1279420D01*
X482548Y1279687D01*
X483748Y1279953D01*
X485214Y1280153D01*
X486814Y1280287D01*
X488547Y1280353D01*
X489746D01*
X490213Y1280287D01*
D02*
G37*
G36*
X463087Y1242430D02*
X456822D01*
Y1293683D01*
X463087D01*
Y1242430D01*
D02*
G37*
G36*
X40661Y1293617D02*
X41261D01*
X42594Y1293483D01*
X44061Y1293283D01*
X45660Y1293017D01*
X47193Y1292617D01*
X48593Y1292084D01*
X48659D01*
X48726Y1292017D01*
X48926Y1291950D01*
X49193Y1291817D01*
X49792Y1291417D01*
X50592Y1290884D01*
X51525Y1290217D01*
X52392Y1289418D01*
X53325Y1288418D01*
X54125Y1287285D01*
Y1287218D01*
X54191Y1287152D01*
X54458Y1286752D01*
X54791Y1286085D01*
X55191Y1285219D01*
X55524Y1284219D01*
X55858Y1283086D01*
X56124Y1281886D01*
X56191Y1280553D01*
Y1280487D01*
Y1280420D01*
Y1280220D01*
Y1280020D01*
X56124Y1279354D01*
X55991Y1278554D01*
X55724Y1277554D01*
X55458Y1276488D01*
X54991Y1275421D01*
X54391Y1274288D01*
X54325Y1274155D01*
X54058Y1273822D01*
X53658Y1273288D01*
X53058Y1272622D01*
X52258Y1271889D01*
X51325Y1271156D01*
X50259Y1270356D01*
X48993Y1269689D01*
X49059D01*
X49193Y1269623D01*
X49459Y1269556D01*
X49792Y1269423D01*
X50126Y1269289D01*
X50592Y1269090D01*
X51659Y1268556D01*
X52792Y1267890D01*
X53991Y1267090D01*
X55124Y1266090D01*
X56124Y1264957D01*
Y1264891D01*
X56257Y1264824D01*
X56391Y1264624D01*
X56524Y1264357D01*
X56924Y1263691D01*
X57390Y1262758D01*
X57857Y1261625D01*
X58257Y1260292D01*
X58524Y1258826D01*
X58657Y1257226D01*
Y1257159D01*
Y1257093D01*
Y1256893D01*
Y1256626D01*
X58590Y1255959D01*
X58457Y1255026D01*
X58257Y1254027D01*
X57990Y1252894D01*
X57657Y1251761D01*
X57124Y1250561D01*
X57057Y1250428D01*
X56857Y1250028D01*
X56524Y1249494D01*
X56057Y1248828D01*
X55524Y1248028D01*
X54858Y1247228D01*
X54125Y1246495D01*
X53325Y1245762D01*
X53258Y1245695D01*
X52925Y1245496D01*
X52458Y1245162D01*
X51792Y1244829D01*
X50992Y1244429D01*
X50059Y1243963D01*
X48926Y1243563D01*
X47726Y1243230D01*
X47593D01*
X47393Y1243163D01*
X47126Y1243096D01*
X46793Y1243029D01*
X46393Y1242963D01*
X45460Y1242830D01*
X44261Y1242696D01*
X42861Y1242563D01*
X41261Y1242496D01*
X39462Y1242430D01*
X20000D01*
Y1293683D01*
X40195D01*
X40661Y1293617D01*
D02*
G37*
G36*
X134171Y1279554D02*
X140503D01*
Y1274688D01*
X134171D01*
Y1252960D01*
Y1252827D01*
Y1252494D01*
Y1252027D01*
X134237Y1251494D01*
Y1250894D01*
X134304Y1250294D01*
X134371Y1249828D01*
X134437Y1249428D01*
X134504Y1249295D01*
X134704Y1249028D01*
X135037Y1248628D01*
X135504Y1248228D01*
X135570D01*
X135637Y1248161D01*
X135837Y1248095D01*
X136104Y1248028D01*
X136770Y1247895D01*
X137703Y1247828D01*
X138436D01*
X138836Y1247895D01*
X139369D01*
X139903Y1247962D01*
X140503Y1248028D01*
X141369Y1242496D01*
X141236D01*
X140902Y1242430D01*
X140436Y1242363D01*
X139769Y1242230D01*
X139036Y1242163D01*
X138236Y1242030D01*
X136570Y1241963D01*
X136037D01*
X135371Y1242030D01*
X134637Y1242096D01*
X133771Y1242230D01*
X132904Y1242430D01*
X132038Y1242696D01*
X131305Y1243029D01*
X131238Y1243096D01*
X130972Y1243230D01*
X130705Y1243429D01*
X130305Y1243763D01*
X129839Y1244163D01*
X129372Y1244696D01*
X128972Y1245229D01*
X128639Y1245829D01*
Y1245895D01*
X128506Y1246229D01*
X128439Y1246695D01*
X128306Y1247428D01*
X128239Y1247895D01*
X128172Y1248428D01*
X128106Y1249028D01*
X128039Y1249761D01*
X127972Y1250494D01*
Y1251361D01*
X127906Y1252294D01*
Y1253294D01*
Y1274688D01*
X123240D01*
Y1279554D01*
X127906D01*
Y1288685D01*
X134171Y1292484D01*
Y1279554D01*
D02*
G37*
G36*
X114309D02*
X120641D01*
Y1274688D01*
X114309D01*
Y1252960D01*
Y1252827D01*
Y1252494D01*
Y1252027D01*
X114376Y1251494D01*
Y1250894D01*
X114443Y1250294D01*
X114509Y1249828D01*
X114576Y1249428D01*
X114642Y1249295D01*
X114842Y1249028D01*
X115176Y1248628D01*
X115642Y1248228D01*
X115709D01*
X115775Y1248161D01*
X115975Y1248095D01*
X116242Y1248028D01*
X116909Y1247895D01*
X117842Y1247828D01*
X118575D01*
X118975Y1247895D01*
X119508D01*
X120041Y1247962D01*
X120641Y1248028D01*
X121507Y1242496D01*
X121374D01*
X121041Y1242430D01*
X120574Y1242363D01*
X119908Y1242230D01*
X119175Y1242163D01*
X118375Y1242030D01*
X116709Y1241963D01*
X116175D01*
X115509Y1242030D01*
X114776Y1242096D01*
X113909Y1242230D01*
X113043Y1242430D01*
X112176Y1242696D01*
X111443Y1243029D01*
X111377Y1243096D01*
X111110Y1243230D01*
X110843Y1243429D01*
X110443Y1243763D01*
X109977Y1244163D01*
X109510Y1244696D01*
X109110Y1245229D01*
X108777Y1245829D01*
Y1245895D01*
X108644Y1246229D01*
X108577Y1246695D01*
X108444Y1247428D01*
X108377Y1247895D01*
X108311Y1248428D01*
X108244Y1249028D01*
X108177Y1249761D01*
X108111Y1250494D01*
Y1251361D01*
X108044Y1252294D01*
Y1253294D01*
Y1274688D01*
X103379D01*
Y1279554D01*
X108044D01*
Y1288685D01*
X114309Y1292484D01*
Y1279554D01*
D02*
G37*
G36*
X680164Y1280287D02*
X680764Y1280220D01*
X681497Y1280087D01*
X682364Y1279953D01*
X683230Y1279753D01*
X684163Y1279487D01*
X685163Y1279087D01*
X686163Y1278687D01*
X687162Y1278221D01*
X688229Y1277621D01*
X689229Y1276954D01*
X690162Y1276154D01*
X691095Y1275288D01*
X691161Y1275221D01*
X691295Y1275021D01*
X691561Y1274755D01*
X691828Y1274355D01*
X692161Y1273822D01*
X692561Y1273222D01*
X693028Y1272489D01*
X693494Y1271622D01*
X693894Y1270622D01*
X694361Y1269556D01*
X694761Y1268423D01*
X695094Y1267157D01*
X695360Y1265757D01*
X695627Y1264291D01*
X695760Y1262691D01*
X695827Y1261025D01*
Y1260892D01*
Y1260625D01*
Y1260092D01*
X695760Y1259359D01*
X668101D01*
Y1259292D01*
Y1259092D01*
X668167Y1258759D01*
X668234Y1258359D01*
X668301Y1257826D01*
X668367Y1257226D01*
X668634Y1255893D01*
X669100Y1254360D01*
X669700Y1252827D01*
X670500Y1251361D01*
X670967Y1250694D01*
X671500Y1250028D01*
X671566Y1249961D01*
X671633Y1249894D01*
X671833Y1249761D01*
X672033Y1249561D01*
X672766Y1249028D01*
X673633Y1248428D01*
X674766Y1247828D01*
X676099Y1247362D01*
X677632Y1246962D01*
X678431Y1246895D01*
X679298Y1246829D01*
X679898D01*
X680498Y1246895D01*
X681364Y1247029D01*
X682230Y1247295D01*
X683230Y1247562D01*
X684230Y1248028D01*
X685163Y1248628D01*
X685296Y1248695D01*
X685563Y1248961D01*
X686030Y1249428D01*
X686563Y1250028D01*
X687162Y1250827D01*
X687829Y1251894D01*
X688495Y1253094D01*
X689029Y1254493D01*
X695560Y1253627D01*
Y1253560D01*
X695494Y1253360D01*
X695427Y1253094D01*
X695227Y1252694D01*
X695094Y1252227D01*
X694827Y1251627D01*
X694294Y1250361D01*
X693494Y1248961D01*
X692495Y1247495D01*
X691295Y1246029D01*
X689895Y1244762D01*
X689828D01*
X689695Y1244629D01*
X689495Y1244496D01*
X689162Y1244296D01*
X688762Y1244029D01*
X688229Y1243763D01*
X687696Y1243496D01*
X687029Y1243230D01*
X686296Y1242896D01*
X685496Y1242630D01*
X684630Y1242363D01*
X683697Y1242096D01*
X681631Y1241763D01*
X680498Y1241696D01*
X679298Y1241630D01*
X678965D01*
X678498Y1241696D01*
X677965D01*
X677298Y1241763D01*
X676499Y1241897D01*
X675565Y1242030D01*
X674632Y1242230D01*
X673633Y1242496D01*
X672566Y1242830D01*
X671500Y1243230D01*
X670434Y1243763D01*
X669367Y1244296D01*
X668301Y1244962D01*
X667301Y1245762D01*
X666368Y1246629D01*
X666301Y1246695D01*
X666168Y1246895D01*
X665901Y1247162D01*
X665635Y1247562D01*
X665301Y1248095D01*
X664902Y1248695D01*
X664435Y1249428D01*
X664035Y1250228D01*
X663568Y1251227D01*
X663102Y1252227D01*
X662702Y1253427D01*
X662369Y1254626D01*
X662102Y1256026D01*
X661836Y1257426D01*
X661702Y1258959D01*
X661636Y1260625D01*
Y1260758D01*
Y1261025D01*
X661702Y1261558D01*
Y1262158D01*
X661769Y1262958D01*
X661902Y1263891D01*
X662036Y1264891D01*
X662236Y1265957D01*
X662502Y1267090D01*
X662835Y1268290D01*
X663169Y1269489D01*
X663635Y1270689D01*
X664235Y1271889D01*
X664835Y1273089D01*
X665568Y1274155D01*
X666434Y1275155D01*
X666501Y1275221D01*
X666634Y1275355D01*
X666901Y1275621D01*
X667301Y1275954D01*
X667767Y1276354D01*
X668367Y1276821D01*
X669034Y1277287D01*
X669767Y1277754D01*
X670633Y1278221D01*
X671566Y1278687D01*
X672633Y1279154D01*
X673699Y1279554D01*
X674899Y1279887D01*
X676165Y1280153D01*
X677498Y1280287D01*
X678898Y1280353D01*
X679631D01*
X680164Y1280287D01*
D02*
G37*
G36*
X409700D02*
X410300Y1280220D01*
X411033Y1280087D01*
X411900Y1279953D01*
X412766Y1279753D01*
X413699Y1279487D01*
X414699Y1279087D01*
X415699Y1278687D01*
X416698Y1278221D01*
X417765Y1277621D01*
X418765Y1276954D01*
X419698Y1276154D01*
X420631Y1275288D01*
X420697Y1275221D01*
X420831Y1275021D01*
X421097Y1274755D01*
X421364Y1274355D01*
X421697Y1273822D01*
X422097Y1273222D01*
X422564Y1272489D01*
X423030Y1271622D01*
X423430Y1270622D01*
X423897Y1269556D01*
X424296Y1268423D01*
X424630Y1267157D01*
X424896Y1265757D01*
X425163Y1264291D01*
X425296Y1262691D01*
X425363Y1261025D01*
Y1260892D01*
Y1260625D01*
Y1260092D01*
X425296Y1259359D01*
X397637D01*
Y1259292D01*
Y1259092D01*
X397703Y1258759D01*
X397770Y1258359D01*
X397837Y1257826D01*
X397903Y1257226D01*
X398170Y1255893D01*
X398636Y1254360D01*
X399236Y1252827D01*
X400036Y1251361D01*
X400503Y1250694D01*
X401036Y1250028D01*
X401102Y1249961D01*
X401169Y1249894D01*
X401369Y1249761D01*
X401569Y1249561D01*
X402302Y1249028D01*
X403169Y1248428D01*
X404302Y1247828D01*
X405635Y1247362D01*
X407168Y1246962D01*
X407967Y1246895D01*
X408834Y1246829D01*
X409434D01*
X410033Y1246895D01*
X410900Y1247029D01*
X411766Y1247295D01*
X412766Y1247562D01*
X413766Y1248028D01*
X414699Y1248628D01*
X414832Y1248695D01*
X415099Y1248961D01*
X415565Y1249428D01*
X416099Y1250028D01*
X416698Y1250827D01*
X417365Y1251894D01*
X418031Y1253094D01*
X418565Y1254493D01*
X425096Y1253627D01*
Y1253560D01*
X425030Y1253360D01*
X424963Y1253094D01*
X424763Y1252694D01*
X424630Y1252227D01*
X424363Y1251627D01*
X423830Y1250361D01*
X423030Y1248961D01*
X422030Y1247495D01*
X420831Y1246029D01*
X419431Y1244762D01*
X419364D01*
X419231Y1244629D01*
X419031Y1244496D01*
X418698Y1244296D01*
X418298Y1244029D01*
X417765Y1243763D01*
X417232Y1243496D01*
X416565Y1243230D01*
X415832Y1242896D01*
X415032Y1242630D01*
X414166Y1242363D01*
X413233Y1242096D01*
X411166Y1241763D01*
X410033Y1241696D01*
X408834Y1241630D01*
X408501D01*
X408034Y1241696D01*
X407501D01*
X406834Y1241763D01*
X406035Y1241897D01*
X405101Y1242030D01*
X404168Y1242230D01*
X403169Y1242496D01*
X402102Y1242830D01*
X401036Y1243230D01*
X399969Y1243763D01*
X398903Y1244296D01*
X397837Y1244962D01*
X396837Y1245762D01*
X395904Y1246629D01*
X395837Y1246695D01*
X395704Y1246895D01*
X395437Y1247162D01*
X395171Y1247562D01*
X394837Y1248095D01*
X394437Y1248695D01*
X393971Y1249428D01*
X393571Y1250228D01*
X393105Y1251227D01*
X392638Y1252227D01*
X392238Y1253427D01*
X391905Y1254626D01*
X391638Y1256026D01*
X391372Y1257426D01*
X391238Y1258959D01*
X391172Y1260625D01*
Y1260758D01*
Y1261025D01*
X391238Y1261558D01*
Y1262158D01*
X391305Y1262958D01*
X391438Y1263891D01*
X391572Y1264891D01*
X391772Y1265957D01*
X392038Y1267090D01*
X392371Y1268290D01*
X392705Y1269489D01*
X393171Y1270689D01*
X393771Y1271889D01*
X394371Y1273089D01*
X395104Y1274155D01*
X395970Y1275155D01*
X396037Y1275221D01*
X396170Y1275355D01*
X396437Y1275621D01*
X396837Y1275954D01*
X397303Y1276354D01*
X397903Y1276821D01*
X398570Y1277287D01*
X399303Y1277754D01*
X400169Y1278221D01*
X401102Y1278687D01*
X402169Y1279154D01*
X403235Y1279554D01*
X404435Y1279887D01*
X405701Y1280153D01*
X407034Y1280287D01*
X408434Y1280353D01*
X409167D01*
X409700Y1280287D01*
D02*
G37*
G36*
X333986D02*
X334653Y1280220D01*
X335386Y1280087D01*
X336252Y1279953D01*
X337186Y1279753D01*
X338119Y1279487D01*
X339118Y1279087D01*
X340185Y1278687D01*
X341251Y1278221D01*
X342318Y1277621D01*
X343317Y1276954D01*
X344317Y1276154D01*
X345250Y1275288D01*
X345317Y1275221D01*
X345450Y1275088D01*
X345717Y1274755D01*
X345983Y1274355D01*
X346383Y1273888D01*
X346783Y1273222D01*
X347249Y1272489D01*
X347716Y1271689D01*
X348116Y1270756D01*
X348582Y1269756D01*
X348982Y1268623D01*
X349382Y1267357D01*
X349649Y1266024D01*
X349916Y1264624D01*
X350049Y1263091D01*
X350116Y1261491D01*
Y1261425D01*
Y1261158D01*
Y1260825D01*
Y1260292D01*
X350049Y1259692D01*
X349982Y1259025D01*
X349916Y1258226D01*
X349849Y1257426D01*
X349582Y1255626D01*
X349182Y1253760D01*
X348649Y1251894D01*
X348316Y1251028D01*
X347916Y1250228D01*
Y1250161D01*
X347849Y1250028D01*
X347716Y1249828D01*
X347516Y1249561D01*
X347050Y1248828D01*
X346316Y1247895D01*
X345450Y1246895D01*
X344384Y1245829D01*
X343117Y1244829D01*
X341651Y1243896D01*
X341584D01*
X341451Y1243829D01*
X341251Y1243696D01*
X340918Y1243563D01*
X340585Y1243363D01*
X340118Y1243163D01*
X338985Y1242763D01*
X337719Y1242363D01*
X336186Y1241963D01*
X334520Y1241696D01*
X332720Y1241630D01*
X332387D01*
X331987Y1241696D01*
X331454D01*
X330787Y1241763D01*
X330054Y1241897D01*
X329188Y1242030D01*
X328254Y1242230D01*
X327255Y1242496D01*
X326255Y1242830D01*
X325255Y1243230D01*
X324189Y1243696D01*
X323122Y1244296D01*
X322123Y1244962D01*
X321123Y1245695D01*
X320190Y1246562D01*
X320123Y1246629D01*
X319990Y1246829D01*
X319723Y1247095D01*
X319457Y1247495D01*
X319057Y1248028D01*
X318657Y1248628D01*
X318257Y1249361D01*
X317790Y1250228D01*
X317324Y1251227D01*
X316924Y1252294D01*
X316524Y1253427D01*
X316124Y1254760D01*
X315858Y1256160D01*
X315591Y1257626D01*
X315458Y1259225D01*
X315391Y1260958D01*
Y1261092D01*
Y1261425D01*
X315458Y1261958D01*
Y1262625D01*
X315591Y1263491D01*
X315724Y1264491D01*
X315858Y1265557D01*
X316124Y1266690D01*
X316391Y1267956D01*
X316791Y1269223D01*
X317257Y1270489D01*
X317790Y1271756D01*
X318457Y1272955D01*
X319190Y1274155D01*
X320056Y1275221D01*
X321056Y1276221D01*
X321123Y1276288D01*
X321256Y1276421D01*
X321523Y1276621D01*
X321923Y1276888D01*
X322389Y1277154D01*
X322922Y1277554D01*
X323589Y1277887D01*
X324322Y1278287D01*
X325122Y1278687D01*
X325988Y1279020D01*
X326988Y1279420D01*
X327988Y1279687D01*
X329121Y1279953D01*
X330254Y1280153D01*
X331454Y1280287D01*
X332720Y1280353D01*
X333453D01*
X333986Y1280287D01*
D02*
G37*
G36*
X162963D02*
X163630Y1280220D01*
X164363Y1280087D01*
X165229Y1279953D01*
X166163Y1279753D01*
X167096Y1279487D01*
X168095Y1279087D01*
X169162Y1278687D01*
X170228Y1278221D01*
X171295Y1277621D01*
X172294Y1276954D01*
X173294Y1276154D01*
X174227Y1275288D01*
X174294Y1275221D01*
X174427Y1275088D01*
X174694Y1274755D01*
X174960Y1274355D01*
X175360Y1273888D01*
X175760Y1273222D01*
X176227Y1272489D01*
X176693Y1271689D01*
X177093Y1270756D01*
X177560Y1269756D01*
X177960Y1268623D01*
X178360Y1267357D01*
X178626Y1266024D01*
X178893Y1264624D01*
X179026Y1263091D01*
X179093Y1261491D01*
Y1261425D01*
Y1261158D01*
Y1260825D01*
Y1260292D01*
X179026Y1259692D01*
X178959Y1259025D01*
X178893Y1258226D01*
X178826Y1257426D01*
X178559Y1255626D01*
X178160Y1253760D01*
X177626Y1251894D01*
X177293Y1251028D01*
X176893Y1250228D01*
Y1250161D01*
X176826Y1250028D01*
X176693Y1249828D01*
X176493Y1249561D01*
X176027Y1248828D01*
X175294Y1247895D01*
X174427Y1246895D01*
X173361Y1245829D01*
X172094Y1244829D01*
X170628Y1243896D01*
X170562D01*
X170428Y1243829D01*
X170228Y1243696D01*
X169895Y1243563D01*
X169562Y1243363D01*
X169095Y1243163D01*
X167962Y1242763D01*
X166696Y1242363D01*
X165163Y1241963D01*
X163497Y1241696D01*
X161697Y1241630D01*
X161364D01*
X160964Y1241696D01*
X160431D01*
X159764Y1241763D01*
X159031Y1241897D01*
X158165Y1242030D01*
X157232Y1242230D01*
X156232Y1242496D01*
X155232Y1242830D01*
X154232Y1243230D01*
X153166Y1243696D01*
X152100Y1244296D01*
X151100Y1244962D01*
X150100Y1245695D01*
X149167Y1246562D01*
X149100Y1246629D01*
X148967Y1246829D01*
X148700Y1247095D01*
X148434Y1247495D01*
X148034Y1248028D01*
X147634Y1248628D01*
X147234Y1249361D01*
X146768Y1250228D01*
X146301Y1251227D01*
X145901Y1252294D01*
X145501Y1253427D01*
X145101Y1254760D01*
X144835Y1256160D01*
X144568Y1257626D01*
X144435Y1259225D01*
X144368Y1260958D01*
Y1261092D01*
Y1261425D01*
X144435Y1261958D01*
Y1262625D01*
X144568Y1263491D01*
X144701Y1264491D01*
X144835Y1265557D01*
X145101Y1266690D01*
X145368Y1267956D01*
X145768Y1269223D01*
X146234Y1270489D01*
X146768Y1271756D01*
X147434Y1272955D01*
X148167Y1274155D01*
X149034Y1275221D01*
X150033Y1276221D01*
X150100Y1276288D01*
X150233Y1276421D01*
X150500Y1276621D01*
X150900Y1276888D01*
X151366Y1277154D01*
X151900Y1277554D01*
X152566Y1277887D01*
X153299Y1278287D01*
X154099Y1278687D01*
X154965Y1279020D01*
X155965Y1279420D01*
X156965Y1279687D01*
X158098Y1279953D01*
X159231Y1280153D01*
X160431Y1280287D01*
X161697Y1280353D01*
X162430D01*
X162963Y1280287D01*
D02*
G37*
G36*
X83450D02*
X84117Y1280220D01*
X84850Y1280087D01*
X85716Y1279953D01*
X86650Y1279753D01*
X87583Y1279487D01*
X88582Y1279087D01*
X89649Y1278687D01*
X90715Y1278221D01*
X91782Y1277621D01*
X92781Y1276954D01*
X93781Y1276154D01*
X94714Y1275288D01*
X94781Y1275221D01*
X94914Y1275088D01*
X95181Y1274755D01*
X95447Y1274355D01*
X95847Y1273888D01*
X96247Y1273222D01*
X96714Y1272489D01*
X97180Y1271689D01*
X97580Y1270756D01*
X98047Y1269756D01*
X98447Y1268623D01*
X98847Y1267357D01*
X99113Y1266024D01*
X99380Y1264624D01*
X99513Y1263091D01*
X99580Y1261491D01*
Y1261425D01*
Y1261158D01*
Y1260825D01*
Y1260292D01*
X99513Y1259692D01*
X99446Y1259025D01*
X99380Y1258226D01*
X99313Y1257426D01*
X99046Y1255626D01*
X98646Y1253760D01*
X98113Y1251894D01*
X97780Y1251028D01*
X97380Y1250228D01*
Y1250161D01*
X97313Y1250028D01*
X97180Y1249828D01*
X96980Y1249561D01*
X96514Y1248828D01*
X95781Y1247895D01*
X94914Y1246895D01*
X93848Y1245829D01*
X92581Y1244829D01*
X91115Y1243896D01*
X91048D01*
X90915Y1243829D01*
X90715Y1243696D01*
X90382Y1243563D01*
X90049Y1243363D01*
X89582Y1243163D01*
X88449Y1242763D01*
X87183Y1242363D01*
X85650Y1241963D01*
X83984Y1241696D01*
X82184Y1241630D01*
X81851D01*
X81451Y1241696D01*
X80918D01*
X80251Y1241763D01*
X79518Y1241897D01*
X78652Y1242030D01*
X77719Y1242230D01*
X76719Y1242496D01*
X75719Y1242830D01*
X74719Y1243230D01*
X73653Y1243696D01*
X72586Y1244296D01*
X71587Y1244962D01*
X70587Y1245695D01*
X69654Y1246562D01*
X69587Y1246629D01*
X69454Y1246829D01*
X69187Y1247095D01*
X68921Y1247495D01*
X68521Y1248028D01*
X68121Y1248628D01*
X67721Y1249361D01*
X67255Y1250228D01*
X66788Y1251227D01*
X66388Y1252294D01*
X65988Y1253427D01*
X65588Y1254760D01*
X65322Y1256160D01*
X65055Y1257626D01*
X64922Y1259225D01*
X64855Y1260958D01*
Y1261092D01*
Y1261425D01*
X64922Y1261958D01*
Y1262625D01*
X65055Y1263491D01*
X65188Y1264491D01*
X65322Y1265557D01*
X65588Y1266690D01*
X65855Y1267956D01*
X66255Y1269223D01*
X66721Y1270489D01*
X67255Y1271756D01*
X67921Y1272955D01*
X68654Y1274155D01*
X69521Y1275221D01*
X70520Y1276221D01*
X70587Y1276288D01*
X70720Y1276421D01*
X70987Y1276621D01*
X71387Y1276888D01*
X71853Y1277154D01*
X72387Y1277554D01*
X73053Y1277887D01*
X73786Y1278287D01*
X74586Y1278687D01*
X75452Y1279020D01*
X76452Y1279420D01*
X77452Y1279687D01*
X78585Y1279953D01*
X79718Y1280153D01*
X80918Y1280287D01*
X82184Y1280353D01*
X82917D01*
X83450Y1280287D01*
D02*
G37*
G36*
X592787Y1294483D02*
X593386Y1294416D01*
X594120Y1294350D01*
X594920Y1294283D01*
X595853Y1294150D01*
X597785Y1293750D01*
X599918Y1293150D01*
X601051Y1292750D01*
X602118Y1292284D01*
X603251Y1291750D01*
X604317Y1291151D01*
X604384Y1291084D01*
X604584Y1291017D01*
X604850Y1290817D01*
X605250Y1290551D01*
X605717Y1290151D01*
X606316Y1289751D01*
X606916Y1289284D01*
X607583Y1288685D01*
X608249Y1288085D01*
X608983Y1287352D01*
X609716Y1286552D01*
X610449Y1285752D01*
X611115Y1284819D01*
X611782Y1283819D01*
X613048Y1281686D01*
X613115Y1281620D01*
X613181Y1281420D01*
X613315Y1281086D01*
X613515Y1280620D01*
X613715Y1280020D01*
X613981Y1279354D01*
X614248Y1278554D01*
X614581Y1277687D01*
X614848Y1276754D01*
X615114Y1275688D01*
X615381Y1274555D01*
X615581Y1273355D01*
X615914Y1270756D01*
X616047Y1269356D01*
Y1267956D01*
Y1267890D01*
Y1267623D01*
Y1267223D01*
X615981Y1266624D01*
Y1265957D01*
X615914Y1265157D01*
X615781Y1264291D01*
X615648Y1263291D01*
X615448Y1262225D01*
X615248Y1261092D01*
X614714Y1258759D01*
X613915Y1256359D01*
X613381Y1255160D01*
X612848Y1253960D01*
X612782Y1253893D01*
X612715Y1253693D01*
X612515Y1253360D01*
X612248Y1252960D01*
X611915Y1252427D01*
X611582Y1251827D01*
X611115Y1251227D01*
X610582Y1250494D01*
X609982Y1249761D01*
X609316Y1249028D01*
X607783Y1247495D01*
X605983Y1245962D01*
X604983Y1245296D01*
X603917Y1244696D01*
X603851D01*
X603651Y1244563D01*
X603317Y1244429D01*
X602917Y1244229D01*
X602384Y1243963D01*
X601784Y1243696D01*
X601051Y1243429D01*
X600251Y1243163D01*
X599318Y1242830D01*
X598385Y1242563D01*
X596253Y1242030D01*
X593986Y1241696D01*
X592787Y1241630D01*
X591520Y1241563D01*
X590787D01*
X590321Y1241630D01*
X589654Y1241696D01*
X588921Y1241763D01*
X588121Y1241830D01*
X587188Y1242030D01*
X585189Y1242430D01*
X582989Y1243029D01*
X581856Y1243429D01*
X580790Y1243896D01*
X579657Y1244429D01*
X578590Y1245029D01*
X578524Y1245096D01*
X578324Y1245162D01*
X578057Y1245362D01*
X577657Y1245695D01*
X577191Y1246029D01*
X576657Y1246429D01*
X576058Y1246962D01*
X575391Y1247495D01*
X574725Y1248161D01*
X573992Y1248895D01*
X573258Y1249695D01*
X572592Y1250494D01*
X571192Y1252427D01*
X569992Y1254560D01*
Y1254626D01*
X569859Y1254827D01*
X569726Y1255160D01*
X569526Y1255626D01*
X569326Y1256160D01*
X569059Y1256826D01*
X568793Y1257626D01*
X568526Y1258426D01*
X568260Y1259359D01*
X567993Y1260358D01*
X567527Y1262491D01*
X567193Y1264891D01*
X567127Y1266090D01*
X567060Y1267357D01*
Y1267423D01*
Y1267490D01*
Y1267690D01*
Y1267890D01*
X567127Y1268556D01*
X567193Y1269489D01*
X567260Y1270556D01*
X567393Y1271756D01*
X567660Y1273155D01*
X567926Y1274621D01*
X568260Y1276221D01*
X568726Y1277821D01*
X569259Y1279487D01*
X569926Y1281153D01*
X570726Y1282753D01*
X571592Y1284352D01*
X572659Y1285885D01*
X573858Y1287285D01*
X573925Y1287352D01*
X574191Y1287618D01*
X574591Y1287951D01*
X575125Y1288418D01*
X575791Y1288951D01*
X576591Y1289618D01*
X577591Y1290217D01*
X578657Y1290951D01*
X579857Y1291617D01*
X581190Y1292284D01*
X582656Y1292883D01*
X584255Y1293417D01*
X585922Y1293883D01*
X587721Y1294216D01*
X589588Y1294483D01*
X591587Y1294550D01*
X592253D01*
X592787Y1294483D01*
D02*
G37*
G36*
X813330Y1280287D02*
X813797D01*
X814330Y1280220D01*
X814996Y1280087D01*
X815730Y1279887D01*
X816529Y1279687D01*
X817329Y1279420D01*
X818196Y1279020D01*
X819129Y1278620D01*
X820062Y1278087D01*
X820928Y1277487D01*
X821861Y1276754D01*
X822728Y1275888D01*
X823528Y1274955D01*
Y1279554D01*
X829326D01*
Y1247495D01*
Y1247428D01*
Y1247095D01*
Y1246695D01*
Y1246095D01*
X829259Y1245362D01*
Y1244563D01*
X829193Y1243696D01*
X829126Y1242763D01*
X828860Y1240763D01*
X828593Y1238697D01*
X828393Y1237764D01*
X828126Y1236831D01*
X827860Y1236031D01*
X827527Y1235298D01*
Y1235231D01*
X827460Y1235165D01*
X827327Y1234965D01*
X827193Y1234698D01*
X826793Y1234032D01*
X826194Y1233232D01*
X825394Y1232299D01*
X824461Y1231366D01*
X823261Y1230433D01*
X821928Y1229566D01*
X821861D01*
X821728Y1229500D01*
X821528Y1229366D01*
X821262Y1229233D01*
X820862Y1229100D01*
X820462Y1228900D01*
X819929Y1228700D01*
X819329Y1228500D01*
X817996Y1228100D01*
X816396Y1227767D01*
X814530Y1227500D01*
X812530Y1227433D01*
X811864D01*
X811464Y1227500D01*
X810864D01*
X810198Y1227567D01*
X809531Y1227700D01*
X808731Y1227833D01*
X806999Y1228167D01*
X805199Y1228700D01*
X803466Y1229433D01*
X802600Y1229900D01*
X801800Y1230433D01*
X801733Y1230499D01*
X801600Y1230566D01*
X801400Y1230766D01*
X801200Y1230966D01*
X800867Y1231299D01*
X800534Y1231699D01*
X800134Y1232166D01*
X799800Y1232699D01*
X799400Y1233299D01*
X799067Y1233965D01*
X798734Y1234698D01*
X798401Y1235498D01*
X798201Y1236365D01*
X798001Y1237298D01*
X797868Y1238364D01*
Y1239430D01*
X803999Y1238564D01*
Y1238431D01*
X804066Y1238097D01*
X804199Y1237631D01*
X804399Y1237031D01*
X804666Y1236298D01*
X805066Y1235631D01*
X805532Y1234965D01*
X806132Y1234432D01*
X806265Y1234365D01*
X806532Y1234165D01*
X807065Y1233832D01*
X807798Y1233565D01*
X808731Y1233232D01*
X809798Y1232899D01*
X811064Y1232699D01*
X812530Y1232632D01*
X813263D01*
X813997Y1232699D01*
X814996Y1232832D01*
X816063Y1233099D01*
X817196Y1233365D01*
X818262Y1233832D01*
X819262Y1234432D01*
X819395Y1234498D01*
X819662Y1234765D01*
X820062Y1235165D01*
X820595Y1235698D01*
X821128Y1236365D01*
X821595Y1237231D01*
X822128Y1238164D01*
X822461Y1239297D01*
Y1239364D01*
X822528Y1239697D01*
X822661Y1240230D01*
Y1240564D01*
X822728Y1241030D01*
X822794Y1241497D01*
Y1242096D01*
X822861Y1242763D01*
Y1243496D01*
X822928Y1244296D01*
Y1245229D01*
Y1246229D01*
Y1247295D01*
X822861Y1247228D01*
X822728Y1247095D01*
X822528Y1246829D01*
X822195Y1246562D01*
X821795Y1246162D01*
X821328Y1245762D01*
X820728Y1245296D01*
X820128Y1244896D01*
X819395Y1244429D01*
X818596Y1243963D01*
X816863Y1243163D01*
X815863Y1242896D01*
X814863Y1242630D01*
X813797Y1242496D01*
X812664Y1242430D01*
X812330D01*
X811931Y1242496D01*
X811397D01*
X810731Y1242630D01*
X809998Y1242696D01*
X809198Y1242896D01*
X808332Y1243096D01*
X807398Y1243429D01*
X806399Y1243763D01*
X805399Y1244229D01*
X804399Y1244762D01*
X803466Y1245362D01*
X802533Y1246095D01*
X801600Y1246962D01*
X800800Y1247895D01*
X800733Y1247962D01*
X800600Y1248161D01*
X800400Y1248428D01*
X800134Y1248895D01*
X799800Y1249428D01*
X799467Y1250028D01*
X799067Y1250827D01*
X798734Y1251627D01*
X798334Y1252560D01*
X797934Y1253560D01*
X797601Y1254626D01*
X797268Y1255826D01*
X797001Y1257093D01*
X796801Y1258359D01*
X796668Y1259759D01*
X796601Y1261158D01*
Y1261225D01*
Y1261425D01*
Y1261691D01*
Y1262091D01*
X796668Y1262558D01*
X796734Y1263091D01*
Y1263691D01*
X796868Y1264357D01*
X797068Y1265890D01*
X797401Y1267557D01*
X797868Y1269223D01*
X798534Y1270956D01*
Y1271022D01*
X798601Y1271156D01*
X798734Y1271356D01*
X798867Y1271689D01*
X799067Y1272089D01*
X799334Y1272489D01*
X799934Y1273488D01*
X800733Y1274621D01*
X801666Y1275754D01*
X802800Y1276888D01*
X804066Y1277887D01*
X804133D01*
X804266Y1278021D01*
X804466Y1278087D01*
X804732Y1278287D01*
X805066Y1278487D01*
X805465Y1278687D01*
X806532Y1279154D01*
X807798Y1279554D01*
X809265Y1279953D01*
X810864Y1280220D01*
X812664Y1280353D01*
X812930D01*
X813330Y1280287D01*
D02*
G37*
G36*
X427496Y1209118D02*
X421231D01*
Y1216316D01*
X427496D01*
Y1209118D01*
D02*
G37*
G36*
X260805Y1202920D02*
X261672Y1202853D01*
X262605Y1202653D01*
X263671Y1202453D01*
X264737Y1202120D01*
X265804Y1201720D01*
X265937Y1201654D01*
X266270Y1201520D01*
X266737Y1201254D01*
X267403Y1200854D01*
X268070Y1200454D01*
X268736Y1199921D01*
X269403Y1199254D01*
X270003Y1198588D01*
X270069Y1198521D01*
X270203Y1198254D01*
X270469Y1197854D01*
X270802Y1197255D01*
X271069Y1196588D01*
X271402Y1195788D01*
X271669Y1194922D01*
X271936Y1193922D01*
Y1193855D01*
X272002Y1193589D01*
X272069Y1193122D01*
X272135Y1192523D01*
X272202Y1191656D01*
X272269Y1190656D01*
X272335Y1189390D01*
Y1187857D01*
Y1165063D01*
X266070D01*
Y1187590D01*
Y1187657D01*
Y1187790D01*
Y1187924D01*
Y1188190D01*
X266004Y1188923D01*
Y1189723D01*
X265870Y1190656D01*
X265737Y1191589D01*
X265537Y1192456D01*
X265271Y1193256D01*
Y1193322D01*
X265137Y1193589D01*
X264937Y1193922D01*
X264671Y1194389D01*
X264337Y1194855D01*
X263871Y1195388D01*
X263338Y1195855D01*
X262671Y1196321D01*
X262605Y1196388D01*
X262338Y1196521D01*
X261938Y1196721D01*
X261405Y1196921D01*
X260805Y1197121D01*
X260072Y1197321D01*
X259205Y1197455D01*
X258339Y1197521D01*
X257939D01*
X257673Y1197455D01*
X256873Y1197388D01*
X255940Y1197188D01*
X254873Y1196921D01*
X253673Y1196455D01*
X252474Y1195788D01*
X251341Y1194922D01*
X251208Y1194789D01*
X251074Y1194655D01*
X250874Y1194389D01*
X250674Y1194122D01*
X250408Y1193722D01*
X250208Y1193322D01*
X249941Y1192789D01*
X249674Y1192123D01*
X249408Y1191456D01*
X249141Y1190656D01*
X248941Y1189790D01*
X248741Y1188790D01*
X248608Y1187724D01*
X248542Y1186524D01*
X248475Y1185258D01*
Y1165063D01*
X242210D01*
Y1202187D01*
X247875D01*
Y1196855D01*
X247942Y1196921D01*
X248075Y1197121D01*
X248275Y1197455D01*
X248608Y1197788D01*
X249075Y1198254D01*
X249541Y1198788D01*
X250141Y1199321D01*
X250874Y1199921D01*
X251674Y1200520D01*
X252540Y1201054D01*
X253474Y1201587D01*
X254540Y1202053D01*
X255673Y1202453D01*
X256873Y1202720D01*
X258206Y1202920D01*
X259605Y1202986D01*
X260205D01*
X260805Y1202920D01*
D02*
G37*
G36*
X189423Y1202853D02*
X190223Y1202720D01*
X191223Y1202453D01*
X192356Y1202120D01*
X193489Y1201587D01*
X194755Y1200920D01*
X192556Y1195122D01*
X192423Y1195188D01*
X192156Y1195322D01*
X191689Y1195522D01*
X191089Y1195788D01*
X190423Y1196055D01*
X189623Y1196255D01*
X188757Y1196388D01*
X187890Y1196455D01*
X187557D01*
X187157Y1196388D01*
X186624Y1196321D01*
X186091Y1196122D01*
X185424Y1195922D01*
X184825Y1195588D01*
X184158Y1195188D01*
X184091Y1195122D01*
X183891Y1194988D01*
X183625Y1194655D01*
X183291Y1194255D01*
X182892Y1193789D01*
X182492Y1193189D01*
X182159Y1192523D01*
X181825Y1191723D01*
Y1191656D01*
X181759Y1191589D01*
Y1191389D01*
X181692Y1191123D01*
X181492Y1190456D01*
X181359Y1189590D01*
X181159Y1188457D01*
X180959Y1187257D01*
X180892Y1185857D01*
X180826Y1184391D01*
Y1165063D01*
X174560D01*
Y1202187D01*
X180226D01*
Y1196521D01*
X180292Y1196655D01*
X180426Y1196855D01*
X180559Y1197121D01*
X181025Y1197788D01*
X181492Y1198588D01*
X182092Y1199521D01*
X182758Y1200387D01*
X183491Y1201120D01*
X184158Y1201720D01*
X184225Y1201787D01*
X184491Y1201920D01*
X184891Y1202120D01*
X185358Y1202387D01*
X185958Y1202587D01*
X186691Y1202786D01*
X187424Y1202920D01*
X188224Y1202986D01*
X188757D01*
X189423Y1202853D01*
D02*
G37*
G36*
X453356Y1165063D02*
X447291D01*
X433294Y1202187D01*
X439959D01*
X447890Y1179926D01*
Y1179859D01*
X447957Y1179792D01*
X448024Y1179592D01*
X448090Y1179326D01*
X448357Y1178593D01*
X448690Y1177660D01*
X449090Y1176527D01*
X449490Y1175260D01*
X449890Y1173861D01*
X450290Y1172461D01*
Y1172528D01*
X450356Y1172594D01*
X450423Y1172994D01*
X450623Y1173594D01*
X450890Y1174460D01*
X451223Y1175460D01*
X451623Y1176660D01*
X452089Y1178059D01*
X452623Y1179526D01*
X460821Y1202187D01*
X467352D01*
X453356Y1165063D01*
D02*
G37*
G36*
X115376Y1164463D02*
Y1164396D01*
X115309Y1164196D01*
X115176Y1163863D01*
X114976Y1163463D01*
X114842Y1162997D01*
X114576Y1162397D01*
X114109Y1161131D01*
X113509Y1159731D01*
X112910Y1158331D01*
X112376Y1157065D01*
X112110Y1156532D01*
X111843Y1156065D01*
X111777Y1155932D01*
X111577Y1155599D01*
X111177Y1154999D01*
X110710Y1154332D01*
X110177Y1153599D01*
X109510Y1152866D01*
X108777Y1152133D01*
X107978Y1151533D01*
X107911Y1151466D01*
X107578Y1151333D01*
X107178Y1151066D01*
X106511Y1150800D01*
X105778Y1150533D01*
X104912Y1150267D01*
X103912Y1150133D01*
X102845Y1150067D01*
X102512D01*
X102112Y1150133D01*
X101646Y1150200D01*
X101046Y1150267D01*
X100313Y1150400D01*
X99580Y1150600D01*
X98780Y1150866D01*
X98113Y1156732D01*
X98180D01*
X98447Y1156665D01*
X98847Y1156532D01*
X99313Y1156465D01*
X99846Y1156332D01*
X100446Y1156198D01*
X101646Y1156132D01*
X101979D01*
X102379Y1156198D01*
X102845D01*
X103979Y1156465D01*
X104512Y1156598D01*
X104978Y1156865D01*
X105045D01*
X105178Y1156998D01*
X105445Y1157132D01*
X105711Y1157331D01*
X106378Y1157931D01*
X107044Y1158798D01*
Y1158864D01*
X107178Y1158998D01*
X107311Y1159264D01*
X107511Y1159731D01*
X107778Y1160397D01*
X108111Y1161197D01*
X108511Y1162263D01*
X108711Y1162863D01*
X108977Y1163530D01*
X109044Y1163596D01*
X109110Y1163930D01*
X109311Y1164396D01*
X109577Y1165063D01*
X95447Y1202187D01*
X102112D01*
X109910Y1180725D01*
Y1180659D01*
X109977Y1180526D01*
X110044Y1180326D01*
X110177Y1179992D01*
X110310Y1179659D01*
X110443Y1179193D01*
X110777Y1178126D01*
X111177Y1176860D01*
X111643Y1175394D01*
X112110Y1173794D01*
X112576Y1172128D01*
Y1172194D01*
X112643Y1172328D01*
X112710Y1172528D01*
X112776Y1172861D01*
X112910Y1173261D01*
X113043Y1173727D01*
X113309Y1174794D01*
X113709Y1176060D01*
X114176Y1177460D01*
X114709Y1178993D01*
X115242Y1180526D01*
X123174Y1202187D01*
X129439D01*
X115376Y1164463D01*
D02*
G37*
G36*
X427496Y1165063D02*
X421231D01*
Y1202187D01*
X427496D01*
Y1165063D01*
D02*
G37*
G36*
X378908Y1202920D02*
X379975Y1202853D01*
X381174Y1202720D01*
X382507Y1202520D01*
X383707Y1202253D01*
X384907Y1201853D01*
X384973D01*
X385040Y1201787D01*
X385373Y1201654D01*
X385906Y1201387D01*
X386573Y1201054D01*
X387306Y1200654D01*
X388039Y1200187D01*
X388706Y1199587D01*
X389305Y1198988D01*
X389372Y1198921D01*
X389505Y1198721D01*
X389772Y1198321D01*
X390105Y1197854D01*
X390438Y1197255D01*
X390772Y1196521D01*
X391038Y1195722D01*
X391305Y1194789D01*
Y1194722D01*
X391372Y1194455D01*
X391438Y1194055D01*
X391505Y1193456D01*
Y1192656D01*
X391572Y1191656D01*
X391638Y1190456D01*
Y1188990D01*
Y1180592D01*
Y1180526D01*
Y1180192D01*
Y1179792D01*
Y1179193D01*
Y1178526D01*
Y1177726D01*
Y1176860D01*
X391705Y1175927D01*
Y1174061D01*
X391772Y1172261D01*
X391838Y1171395D01*
Y1170661D01*
X391905Y1170061D01*
X391971Y1169528D01*
Y1169395D01*
X392038Y1169128D01*
X392171Y1168662D01*
X392305Y1168129D01*
X392571Y1167396D01*
X392838Y1166662D01*
X393171Y1165863D01*
X393571Y1165063D01*
X386973D01*
X386906Y1165129D01*
X386839Y1165396D01*
X386640Y1165796D01*
X386506Y1166396D01*
X386240Y1167062D01*
X386106Y1167862D01*
X385906Y1168728D01*
X385773Y1169728D01*
X385706D01*
X385640Y1169595D01*
X385440Y1169462D01*
X385173Y1169262D01*
X384507Y1168728D01*
X383574Y1168062D01*
X382574Y1167396D01*
X381441Y1166662D01*
X380174Y1165996D01*
X378975Y1165463D01*
X378908D01*
X378842Y1165396D01*
X378642Y1165329D01*
X378442Y1165263D01*
X377775Y1165063D01*
X376909Y1164863D01*
X375909Y1164663D01*
X374709Y1164463D01*
X373443Y1164330D01*
X372110Y1164263D01*
X371510D01*
X371110Y1164330D01*
X370577D01*
X369977Y1164396D01*
X368644Y1164663D01*
X367111Y1164996D01*
X365578Y1165529D01*
X364045Y1166263D01*
X363379Y1166662D01*
X362712Y1167196D01*
X362646Y1167262D01*
X362579Y1167329D01*
X362179Y1167729D01*
X361712Y1168395D01*
X361113Y1169262D01*
X360513Y1170395D01*
X359980Y1171661D01*
X359580Y1173127D01*
X359513Y1173927D01*
X359446Y1174794D01*
Y1174927D01*
Y1175260D01*
X359513Y1175793D01*
X359580Y1176460D01*
X359713Y1177193D01*
X359980Y1178059D01*
X360246Y1178926D01*
X360646Y1179792D01*
X360713Y1179926D01*
X360846Y1180192D01*
X361179Y1180592D01*
X361513Y1181125D01*
X361979Y1181659D01*
X362579Y1182258D01*
X363179Y1182858D01*
X363912Y1183391D01*
X363979Y1183458D01*
X364245Y1183591D01*
X364712Y1183858D01*
X365245Y1184191D01*
X365911Y1184525D01*
X366645Y1184858D01*
X367511Y1185191D01*
X368444Y1185458D01*
X368511D01*
X368777Y1185524D01*
X369244Y1185658D01*
X369844Y1185724D01*
X370644Y1185924D01*
X371577Y1186057D01*
X372710Y1186191D01*
X374043Y1186391D01*
X374109D01*
X374376Y1186457D01*
X374776D01*
X375309Y1186591D01*
X375909Y1186657D01*
X376642Y1186724D01*
X377442Y1186857D01*
X378308Y1186991D01*
X380108Y1187324D01*
X381974Y1187724D01*
X383707Y1188124D01*
X384507Y1188390D01*
X385240Y1188590D01*
Y1188657D01*
Y1188790D01*
Y1188990D01*
X385307Y1189257D01*
Y1189790D01*
Y1190056D01*
Y1190190D01*
Y1190256D01*
Y1190390D01*
Y1190590D01*
Y1190790D01*
X385240Y1191523D01*
X385107Y1192322D01*
X384840Y1193256D01*
X384573Y1194122D01*
X384107Y1194988D01*
X383507Y1195655D01*
X383374Y1195722D01*
X383040Y1195988D01*
X382507Y1196321D01*
X381707Y1196721D01*
X380641Y1197121D01*
X379441Y1197455D01*
X377975Y1197721D01*
X376309Y1197788D01*
X375576D01*
X374776Y1197721D01*
X373843Y1197588D01*
X372710Y1197388D01*
X371643Y1197121D01*
X370577Y1196721D01*
X369711Y1196188D01*
X369644Y1196122D01*
X369377Y1195922D01*
X368977Y1195522D01*
X368577Y1194922D01*
X368044Y1194189D01*
X367578Y1193256D01*
X367044Y1192056D01*
X366645Y1190723D01*
X360513Y1191589D01*
Y1191656D01*
X360579Y1191789D01*
Y1191989D01*
X360646Y1192256D01*
X360846Y1192989D01*
X361179Y1193855D01*
X361513Y1194855D01*
X361979Y1195922D01*
X362579Y1196988D01*
X363246Y1197921D01*
X363312Y1198054D01*
X363579Y1198321D01*
X364045Y1198721D01*
X364645Y1199321D01*
X365445Y1199921D01*
X366378Y1200520D01*
X367511Y1201120D01*
X368777Y1201654D01*
X368844D01*
X368977Y1201720D01*
X369177Y1201787D01*
X369444Y1201853D01*
X369777Y1201987D01*
X370177Y1202053D01*
X371243Y1202320D01*
X372443Y1202587D01*
X373909Y1202786D01*
X375509Y1202920D01*
X377242Y1202986D01*
X378442D01*
X378908Y1202920D01*
D02*
G37*
G36*
X76585D02*
X77652Y1202853D01*
X78852Y1202720D01*
X80185Y1202520D01*
X81384Y1202253D01*
X82584Y1201853D01*
X82651D01*
X82717Y1201787D01*
X83050Y1201654D01*
X83584Y1201387D01*
X84250Y1201054D01*
X84983Y1200654D01*
X85716Y1200187D01*
X86383Y1199587D01*
X86983Y1198988D01*
X87050Y1198921D01*
X87183Y1198721D01*
X87449Y1198321D01*
X87783Y1197854D01*
X88116Y1197255D01*
X88449Y1196521D01*
X88716Y1195722D01*
X88982Y1194789D01*
Y1194722D01*
X89049Y1194455D01*
X89116Y1194055D01*
X89182Y1193456D01*
Y1192656D01*
X89249Y1191656D01*
X89316Y1190456D01*
Y1188990D01*
Y1180592D01*
Y1180526D01*
Y1180192D01*
Y1179792D01*
Y1179193D01*
Y1178526D01*
Y1177726D01*
Y1176860D01*
X89382Y1175927D01*
Y1174061D01*
X89449Y1172261D01*
X89515Y1171395D01*
Y1170661D01*
X89582Y1170061D01*
X89649Y1169528D01*
Y1169395D01*
X89715Y1169128D01*
X89849Y1168662D01*
X89982Y1168129D01*
X90249Y1167396D01*
X90515Y1166662D01*
X90849Y1165863D01*
X91248Y1165063D01*
X84650D01*
X84584Y1165129D01*
X84517Y1165396D01*
X84317Y1165796D01*
X84184Y1166396D01*
X83917Y1167062D01*
X83784Y1167862D01*
X83584Y1168728D01*
X83450Y1169728D01*
X83384D01*
X83317Y1169595D01*
X83117Y1169462D01*
X82851Y1169262D01*
X82184Y1168728D01*
X81251Y1168062D01*
X80251Y1167396D01*
X79118Y1166662D01*
X77852Y1165996D01*
X76652Y1165463D01*
X76585D01*
X76519Y1165396D01*
X76319Y1165329D01*
X76119Y1165263D01*
X75452Y1165063D01*
X74586Y1164863D01*
X73586Y1164663D01*
X72387Y1164463D01*
X71120Y1164330D01*
X69787Y1164263D01*
X69187D01*
X68787Y1164330D01*
X68254D01*
X67655Y1164396D01*
X66322Y1164663D01*
X64788Y1164996D01*
X63256Y1165529D01*
X61723Y1166263D01*
X61056Y1166662D01*
X60390Y1167196D01*
X60323Y1167262D01*
X60256Y1167329D01*
X59857Y1167729D01*
X59390Y1168395D01*
X58790Y1169262D01*
X58190Y1170395D01*
X57657Y1171661D01*
X57257Y1173127D01*
X57190Y1173927D01*
X57124Y1174794D01*
Y1174927D01*
Y1175260D01*
X57190Y1175793D01*
X57257Y1176460D01*
X57390Y1177193D01*
X57657Y1178059D01*
X57924Y1178926D01*
X58323Y1179792D01*
X58390Y1179926D01*
X58524Y1180192D01*
X58857Y1180592D01*
X59190Y1181125D01*
X59657Y1181659D01*
X60256Y1182258D01*
X60856Y1182858D01*
X61589Y1183391D01*
X61656Y1183458D01*
X61923Y1183591D01*
X62389Y1183858D01*
X62922Y1184191D01*
X63589Y1184525D01*
X64322Y1184858D01*
X65188Y1185191D01*
X66122Y1185458D01*
X66188D01*
X66455Y1185524D01*
X66921Y1185658D01*
X67521Y1185724D01*
X68321Y1185924D01*
X69254Y1186057D01*
X70387Y1186191D01*
X71720Y1186391D01*
X71787D01*
X72053Y1186457D01*
X72453D01*
X72986Y1186591D01*
X73586Y1186657D01*
X74319Y1186724D01*
X75119Y1186857D01*
X75986Y1186991D01*
X77785Y1187324D01*
X79651Y1187724D01*
X81384Y1188124D01*
X82184Y1188390D01*
X82917Y1188590D01*
Y1188657D01*
Y1188790D01*
Y1188990D01*
X82984Y1189257D01*
Y1189790D01*
Y1190056D01*
Y1190190D01*
Y1190256D01*
Y1190390D01*
Y1190590D01*
Y1190790D01*
X82917Y1191523D01*
X82784Y1192322D01*
X82517Y1193256D01*
X82251Y1194122D01*
X81784Y1194988D01*
X81184Y1195655D01*
X81051Y1195722D01*
X80718Y1195988D01*
X80185Y1196321D01*
X79385Y1196721D01*
X78318Y1197121D01*
X77119Y1197455D01*
X75652Y1197721D01*
X73986Y1197788D01*
X73253D01*
X72453Y1197721D01*
X71520Y1197588D01*
X70387Y1197388D01*
X69321Y1197121D01*
X68254Y1196721D01*
X67388Y1196188D01*
X67321Y1196122D01*
X67055Y1195922D01*
X66655Y1195522D01*
X66255Y1194922D01*
X65722Y1194189D01*
X65255Y1193256D01*
X64722Y1192056D01*
X64322Y1190723D01*
X58190Y1191589D01*
Y1191656D01*
X58257Y1191789D01*
Y1191989D01*
X58323Y1192256D01*
X58524Y1192989D01*
X58857Y1193855D01*
X59190Y1194855D01*
X59657Y1195922D01*
X60256Y1196988D01*
X60923Y1197921D01*
X60989Y1198054D01*
X61256Y1198321D01*
X61723Y1198721D01*
X62323Y1199321D01*
X63122Y1199921D01*
X64055Y1200520D01*
X65188Y1201120D01*
X66455Y1201654D01*
X66521D01*
X66655Y1201720D01*
X66855Y1201787D01*
X67121Y1201853D01*
X67455Y1201987D01*
X67854Y1202053D01*
X68921Y1202320D01*
X70121Y1202587D01*
X71587Y1202786D01*
X73186Y1202920D01*
X74919Y1202986D01*
X76119D01*
X76585Y1202920D01*
D02*
G37*
G36*
X26798Y1171128D02*
X51992D01*
Y1165063D01*
X20000D01*
Y1216316D01*
X26798D01*
Y1171128D01*
D02*
G37*
G36*
X408700Y1202187D02*
X415032D01*
Y1197321D01*
X408700D01*
Y1175593D01*
Y1175460D01*
Y1175127D01*
Y1174660D01*
X408767Y1174127D01*
Y1173527D01*
X408834Y1172927D01*
X408900Y1172461D01*
X408967Y1172061D01*
X409034Y1171928D01*
X409234Y1171661D01*
X409567Y1171261D01*
X410033Y1170861D01*
X410100D01*
X410167Y1170795D01*
X410367Y1170728D01*
X410633Y1170661D01*
X411300Y1170528D01*
X412233Y1170461D01*
X412966D01*
X413366Y1170528D01*
X413899D01*
X414432Y1170595D01*
X415032Y1170661D01*
X415899Y1165129D01*
X415765D01*
X415432Y1165063D01*
X414966Y1164996D01*
X414299Y1164863D01*
X413566Y1164796D01*
X412766Y1164663D01*
X411100Y1164596D01*
X410567D01*
X409900Y1164663D01*
X409167Y1164730D01*
X408301Y1164863D01*
X407434Y1165063D01*
X406568Y1165329D01*
X405835Y1165663D01*
X405768Y1165729D01*
X405501Y1165863D01*
X405235Y1166063D01*
X404835Y1166396D01*
X404368Y1166796D01*
X403902Y1167329D01*
X403502Y1167862D01*
X403169Y1168462D01*
Y1168529D01*
X403035Y1168862D01*
X402969Y1169328D01*
X402835Y1170061D01*
X402769Y1170528D01*
X402702Y1171061D01*
X402635Y1171661D01*
X402569Y1172394D01*
X402502Y1173127D01*
Y1173994D01*
X402435Y1174927D01*
Y1175927D01*
Y1197321D01*
X397770D01*
Y1202187D01*
X402435D01*
Y1211318D01*
X408700Y1215117D01*
Y1202187D01*
D02*
G37*
G36*
X489347Y1202920D02*
X489946Y1202853D01*
X490680Y1202720D01*
X491546Y1202587D01*
X492412Y1202387D01*
X493345Y1202120D01*
X494345Y1201720D01*
X495345Y1201320D01*
X496345Y1200854D01*
X497411Y1200254D01*
X498411Y1199587D01*
X499344Y1198788D01*
X500277Y1197921D01*
X500344Y1197854D01*
X500477Y1197654D01*
X500744Y1197388D01*
X501010Y1196988D01*
X501343Y1196455D01*
X501743Y1195855D01*
X502210Y1195122D01*
X502676Y1194255D01*
X503076Y1193256D01*
X503543Y1192189D01*
X503943Y1191056D01*
X504276Y1189790D01*
X504543Y1188390D01*
X504809Y1186924D01*
X504943Y1185324D01*
X505009Y1183658D01*
Y1183525D01*
Y1183258D01*
Y1182725D01*
X504943Y1181992D01*
X477283D01*
Y1181925D01*
Y1181725D01*
X477350Y1181392D01*
X477416Y1180992D01*
X477483Y1180459D01*
X477550Y1179859D01*
X477816Y1178526D01*
X478283Y1176993D01*
X478882Y1175460D01*
X479682Y1173994D01*
X480149Y1173327D01*
X480682Y1172661D01*
X480749Y1172594D01*
X480815Y1172528D01*
X481015Y1172394D01*
X481215Y1172194D01*
X481948Y1171661D01*
X482815Y1171061D01*
X483948Y1170461D01*
X485281Y1169995D01*
X486814Y1169595D01*
X487614Y1169528D01*
X488480Y1169462D01*
X489080D01*
X489680Y1169528D01*
X490546Y1169662D01*
X491413Y1169928D01*
X492412Y1170195D01*
X493412Y1170661D01*
X494345Y1171261D01*
X494478Y1171328D01*
X494745Y1171594D01*
X495212Y1172061D01*
X495745Y1172661D01*
X496345Y1173461D01*
X497011Y1174527D01*
X497678Y1175727D01*
X498211Y1177126D01*
X504743Y1176260D01*
Y1176193D01*
X504676Y1175993D01*
X504609Y1175727D01*
X504409Y1175327D01*
X504276Y1174860D01*
X504009Y1174260D01*
X503476Y1172994D01*
X502676Y1171594D01*
X501677Y1170128D01*
X500477Y1168662D01*
X499077Y1167396D01*
X499011D01*
X498877Y1167262D01*
X498677Y1167129D01*
X498344Y1166929D01*
X497944Y1166662D01*
X497411Y1166396D01*
X496878Y1166129D01*
X496211Y1165863D01*
X495478Y1165529D01*
X494678Y1165263D01*
X493812Y1164996D01*
X492879Y1164730D01*
X490813Y1164396D01*
X489680Y1164330D01*
X488480Y1164263D01*
X488147D01*
X487680Y1164330D01*
X487147D01*
X486481Y1164396D01*
X485681Y1164530D01*
X484748Y1164663D01*
X483815Y1164863D01*
X482815Y1165129D01*
X481748Y1165463D01*
X480682Y1165863D01*
X479616Y1166396D01*
X478549Y1166929D01*
X477483Y1167596D01*
X476483Y1168395D01*
X475550Y1169262D01*
X475483Y1169328D01*
X475350Y1169528D01*
X475084Y1169795D01*
X474817Y1170195D01*
X474484Y1170728D01*
X474084Y1171328D01*
X473617Y1172061D01*
X473217Y1172861D01*
X472751Y1173861D01*
X472284Y1174860D01*
X471884Y1176060D01*
X471551Y1177260D01*
X471284Y1178659D01*
X471018Y1180059D01*
X470885Y1181592D01*
X470818Y1183258D01*
Y1183391D01*
Y1183658D01*
X470885Y1184191D01*
Y1184791D01*
X470951Y1185591D01*
X471085Y1186524D01*
X471218Y1187524D01*
X471418Y1188590D01*
X471684Y1189723D01*
X472018Y1190923D01*
X472351Y1192123D01*
X472817Y1193322D01*
X473417Y1194522D01*
X474017Y1195722D01*
X474750Y1196788D01*
X475617Y1197788D01*
X475683Y1197854D01*
X475817Y1197988D01*
X476083Y1198254D01*
X476483Y1198588D01*
X476950Y1198988D01*
X477550Y1199454D01*
X478216Y1199921D01*
X478949Y1200387D01*
X479816Y1200854D01*
X480749Y1201320D01*
X481815Y1201787D01*
X482882Y1202187D01*
X484081Y1202520D01*
X485348Y1202786D01*
X486680Y1202920D01*
X488080Y1202986D01*
X488813D01*
X489347Y1202920D01*
D02*
G37*
G36*
X298395D02*
X298995Y1202853D01*
X299728Y1202720D01*
X300595Y1202587D01*
X301461Y1202387D01*
X302394Y1202120D01*
X303394Y1201720D01*
X304394Y1201320D01*
X305394Y1200854D01*
X306460Y1200254D01*
X307460Y1199587D01*
X308393Y1198788D01*
X309326Y1197921D01*
X309393Y1197854D01*
X309526Y1197654D01*
X309792Y1197388D01*
X310059Y1196988D01*
X310392Y1196455D01*
X310792Y1195855D01*
X311259Y1195122D01*
X311725Y1194255D01*
X312125Y1193256D01*
X312592Y1192189D01*
X312992Y1191056D01*
X313325Y1189790D01*
X313591Y1188390D01*
X313858Y1186924D01*
X313991Y1185324D01*
X314058Y1183658D01*
Y1183525D01*
Y1183258D01*
Y1182725D01*
X313991Y1181992D01*
X286332D01*
Y1181925D01*
Y1181725D01*
X286399Y1181392D01*
X286465Y1180992D01*
X286532Y1180459D01*
X286598Y1179859D01*
X286865Y1178526D01*
X287332Y1176993D01*
X287931Y1175460D01*
X288731Y1173994D01*
X289198Y1173327D01*
X289731Y1172661D01*
X289798Y1172594D01*
X289864Y1172528D01*
X290064Y1172394D01*
X290264Y1172194D01*
X290997Y1171661D01*
X291864Y1171061D01*
X292997Y1170461D01*
X294330Y1169995D01*
X295863Y1169595D01*
X296663Y1169528D01*
X297529Y1169462D01*
X298129D01*
X298729Y1169528D01*
X299595Y1169662D01*
X300462Y1169928D01*
X301461Y1170195D01*
X302461Y1170661D01*
X303394Y1171261D01*
X303527Y1171328D01*
X303794Y1171594D01*
X304261Y1172061D01*
X304794Y1172661D01*
X305394Y1173461D01*
X306060Y1174527D01*
X306727Y1175727D01*
X307260Y1177126D01*
X313791Y1176260D01*
Y1176193D01*
X313725Y1175993D01*
X313658Y1175727D01*
X313458Y1175327D01*
X313325Y1174860D01*
X313058Y1174260D01*
X312525Y1172994D01*
X311725Y1171594D01*
X310726Y1170128D01*
X309526Y1168662D01*
X308126Y1167396D01*
X308060D01*
X307926Y1167262D01*
X307726Y1167129D01*
X307393Y1166929D01*
X306993Y1166662D01*
X306460Y1166396D01*
X305927Y1166129D01*
X305260Y1165863D01*
X304527Y1165529D01*
X303727Y1165263D01*
X302861Y1164996D01*
X301928Y1164730D01*
X299862Y1164396D01*
X298729Y1164330D01*
X297529Y1164263D01*
X297196D01*
X296729Y1164330D01*
X296196D01*
X295529Y1164396D01*
X294730Y1164530D01*
X293797Y1164663D01*
X292864Y1164863D01*
X291864Y1165129D01*
X290797Y1165463D01*
X289731Y1165863D01*
X288664Y1166396D01*
X287598Y1166929D01*
X286532Y1167596D01*
X285532Y1168395D01*
X284599Y1169262D01*
X284532Y1169328D01*
X284399Y1169528D01*
X284132Y1169795D01*
X283866Y1170195D01*
X283533Y1170728D01*
X283133Y1171328D01*
X282666Y1172061D01*
X282266Y1172861D01*
X281800Y1173861D01*
X281333Y1174860D01*
X280933Y1176060D01*
X280600Y1177260D01*
X280333Y1178659D01*
X280067Y1180059D01*
X279933Y1181592D01*
X279867Y1183258D01*
Y1183391D01*
Y1183658D01*
X279933Y1184191D01*
Y1184791D01*
X280000Y1185591D01*
X280133Y1186524D01*
X280267Y1187524D01*
X280467Y1188590D01*
X280733Y1189723D01*
X281066Y1190923D01*
X281400Y1192123D01*
X281866Y1193322D01*
X282466Y1194522D01*
X283066Y1195722D01*
X283799Y1196788D01*
X284666Y1197788D01*
X284732Y1197854D01*
X284865Y1197988D01*
X285132Y1198254D01*
X285532Y1198588D01*
X285999Y1198988D01*
X286598Y1199454D01*
X287265Y1199921D01*
X287998Y1200387D01*
X288864Y1200854D01*
X289798Y1201320D01*
X290864Y1201787D01*
X291930Y1202187D01*
X293130Y1202520D01*
X294396Y1202786D01*
X295729Y1202920D01*
X297129Y1202986D01*
X297862D01*
X298395Y1202920D01*
D02*
G37*
G36*
X151233D02*
X151833Y1202853D01*
X152566Y1202720D01*
X153433Y1202587D01*
X154299Y1202387D01*
X155232Y1202120D01*
X156232Y1201720D01*
X157232Y1201320D01*
X158231Y1200854D01*
X159298Y1200254D01*
X160297Y1199587D01*
X161231Y1198788D01*
X162164Y1197921D01*
X162230Y1197854D01*
X162364Y1197654D01*
X162630Y1197388D01*
X162897Y1196988D01*
X163230Y1196455D01*
X163630Y1195855D01*
X164096Y1195122D01*
X164563Y1194255D01*
X164963Y1193256D01*
X165429Y1192189D01*
X165829Y1191056D01*
X166163Y1189790D01*
X166429Y1188390D01*
X166696Y1186924D01*
X166829Y1185324D01*
X166896Y1183658D01*
Y1183525D01*
Y1183258D01*
Y1182725D01*
X166829Y1181992D01*
X139170D01*
Y1181925D01*
Y1181725D01*
X139236Y1181392D01*
X139303Y1180992D01*
X139369Y1180459D01*
X139436Y1179859D01*
X139703Y1178526D01*
X140169Y1176993D01*
X140769Y1175460D01*
X141569Y1173994D01*
X142035Y1173327D01*
X142569Y1172661D01*
X142635Y1172594D01*
X142702Y1172528D01*
X142902Y1172394D01*
X143102Y1172194D01*
X143835Y1171661D01*
X144701Y1171061D01*
X145835Y1170461D01*
X147167Y1169995D01*
X148700Y1169595D01*
X149500Y1169528D01*
X150367Y1169462D01*
X150967D01*
X151566Y1169528D01*
X152433Y1169662D01*
X153299Y1169928D01*
X154299Y1170195D01*
X155299Y1170661D01*
X156232Y1171261D01*
X156365Y1171328D01*
X156632Y1171594D01*
X157098Y1172061D01*
X157631Y1172661D01*
X158231Y1173461D01*
X158898Y1174527D01*
X159564Y1175727D01*
X160098Y1177126D01*
X166629Y1176260D01*
Y1176193D01*
X166562Y1175993D01*
X166496Y1175727D01*
X166296Y1175327D01*
X166163Y1174860D01*
X165896Y1174260D01*
X165363Y1172994D01*
X164563Y1171594D01*
X163563Y1170128D01*
X162364Y1168662D01*
X160964Y1167396D01*
X160897D01*
X160764Y1167262D01*
X160564Y1167129D01*
X160231Y1166929D01*
X159831Y1166662D01*
X159298Y1166396D01*
X158764Y1166129D01*
X158098Y1165863D01*
X157365Y1165529D01*
X156565Y1165263D01*
X155699Y1164996D01*
X154766Y1164730D01*
X152699Y1164396D01*
X151566Y1164330D01*
X150367Y1164263D01*
X150033D01*
X149567Y1164330D01*
X149034D01*
X148367Y1164396D01*
X147567Y1164530D01*
X146634Y1164663D01*
X145701Y1164863D01*
X144701Y1165129D01*
X143635Y1165463D01*
X142569Y1165863D01*
X141502Y1166396D01*
X140436Y1166929D01*
X139369Y1167596D01*
X138370Y1168395D01*
X137437Y1169262D01*
X137370Y1169328D01*
X137237Y1169528D01*
X136970Y1169795D01*
X136704Y1170195D01*
X136370Y1170728D01*
X135970Y1171328D01*
X135504Y1172061D01*
X135104Y1172861D01*
X134637Y1173861D01*
X134171Y1174860D01*
X133771Y1176060D01*
X133438Y1177260D01*
X133171Y1178659D01*
X132904Y1180059D01*
X132771Y1181592D01*
X132704Y1183258D01*
Y1183391D01*
Y1183658D01*
X132771Y1184191D01*
Y1184791D01*
X132838Y1185591D01*
X132971Y1186524D01*
X133104Y1187524D01*
X133304Y1188590D01*
X133571Y1189723D01*
X133904Y1190923D01*
X134237Y1192123D01*
X134704Y1193322D01*
X135304Y1194522D01*
X135904Y1195722D01*
X136637Y1196788D01*
X137503Y1197788D01*
X137570Y1197854D01*
X137703Y1197988D01*
X137970Y1198254D01*
X138370Y1198588D01*
X138836Y1198988D01*
X139436Y1199454D01*
X140103Y1199921D01*
X140836Y1200387D01*
X141702Y1200854D01*
X142635Y1201320D01*
X143702Y1201787D01*
X144768Y1202187D01*
X145968Y1202520D01*
X147234Y1202786D01*
X148567Y1202920D01*
X149967Y1202986D01*
X150700D01*
X151233Y1202920D01*
D02*
G37*
G36*
X336052D02*
X336519D01*
X337052Y1202853D01*
X337719Y1202720D01*
X338452Y1202520D01*
X339252Y1202320D01*
X340051Y1202053D01*
X340918Y1201654D01*
X341851Y1201254D01*
X342784Y1200720D01*
X343651Y1200120D01*
X344584Y1199387D01*
X345450Y1198521D01*
X346250Y1197588D01*
Y1202187D01*
X352048D01*
Y1170128D01*
Y1170061D01*
Y1169728D01*
Y1169328D01*
Y1168728D01*
X351982Y1167995D01*
Y1167196D01*
X351915Y1166329D01*
X351848Y1165396D01*
X351582Y1163397D01*
X351315Y1161330D01*
X351115Y1160397D01*
X350849Y1159464D01*
X350582Y1158664D01*
X350249Y1157931D01*
Y1157865D01*
X350182Y1157798D01*
X350049Y1157598D01*
X349916Y1157331D01*
X349516Y1156665D01*
X348916Y1155865D01*
X348116Y1154932D01*
X347183Y1153999D01*
X345983Y1153066D01*
X344650Y1152199D01*
X344584D01*
X344450Y1152133D01*
X344250Y1152000D01*
X343984Y1151866D01*
X343584Y1151733D01*
X343184Y1151533D01*
X342651Y1151333D01*
X342051Y1151133D01*
X340718Y1150733D01*
X339118Y1150400D01*
X337252Y1150133D01*
X335253Y1150067D01*
X334586D01*
X334186Y1150133D01*
X333586D01*
X332920Y1150200D01*
X332253Y1150333D01*
X331454Y1150467D01*
X329721Y1150800D01*
X327921Y1151333D01*
X326188Y1152066D01*
X325322Y1152533D01*
X324522Y1153066D01*
X324455Y1153132D01*
X324322Y1153199D01*
X324122Y1153399D01*
X323922Y1153599D01*
X323589Y1153932D01*
X323256Y1154332D01*
X322856Y1154799D01*
X322523Y1155332D01*
X322123Y1155932D01*
X321789Y1156598D01*
X321456Y1157331D01*
X321123Y1158131D01*
X320923Y1158998D01*
X320723Y1159931D01*
X320590Y1160997D01*
Y1162064D01*
X326721Y1161197D01*
Y1161064D01*
X326788Y1160731D01*
X326921Y1160264D01*
X327121Y1159664D01*
X327388Y1158931D01*
X327788Y1158265D01*
X328254Y1157598D01*
X328854Y1157065D01*
X328988Y1156998D01*
X329254Y1156798D01*
X329787Y1156465D01*
X330521Y1156198D01*
X331454Y1155865D01*
X332520Y1155532D01*
X333786Y1155332D01*
X335253Y1155265D01*
X335986D01*
X336719Y1155332D01*
X337719Y1155465D01*
X338785Y1155732D01*
X339918Y1155999D01*
X340984Y1156465D01*
X341984Y1157065D01*
X342118Y1157132D01*
X342384Y1157398D01*
X342784Y1157798D01*
X343317Y1158331D01*
X343850Y1158998D01*
X344317Y1159864D01*
X344850Y1160797D01*
X345183Y1161930D01*
Y1161997D01*
X345250Y1162330D01*
X345383Y1162863D01*
Y1163197D01*
X345450Y1163663D01*
X345517Y1164130D01*
Y1164730D01*
X345583Y1165396D01*
Y1166129D01*
X345650Y1166929D01*
Y1167862D01*
Y1168862D01*
Y1169928D01*
X345583Y1169862D01*
X345450Y1169728D01*
X345250Y1169462D01*
X344917Y1169195D01*
X344517Y1168795D01*
X344050Y1168395D01*
X343451Y1167929D01*
X342851Y1167529D01*
X342118Y1167062D01*
X341318Y1166596D01*
X339585Y1165796D01*
X338585Y1165529D01*
X337585Y1165263D01*
X336519Y1165129D01*
X335386Y1165063D01*
X335053D01*
X334653Y1165129D01*
X334120D01*
X333453Y1165263D01*
X332720Y1165329D01*
X331920Y1165529D01*
X331054Y1165729D01*
X330121Y1166063D01*
X329121Y1166396D01*
X328121Y1166862D01*
X327121Y1167396D01*
X326188Y1167995D01*
X325255Y1168728D01*
X324322Y1169595D01*
X323522Y1170528D01*
X323456Y1170595D01*
X323322Y1170795D01*
X323122Y1171061D01*
X322856Y1171528D01*
X322523Y1172061D01*
X322189Y1172661D01*
X321789Y1173461D01*
X321456Y1174260D01*
X321056Y1175194D01*
X320656Y1176193D01*
X320323Y1177260D01*
X319990Y1178459D01*
X319723Y1179726D01*
X319523Y1180992D01*
X319390Y1182392D01*
X319323Y1183791D01*
Y1183858D01*
Y1184058D01*
Y1184325D01*
Y1184725D01*
X319390Y1185191D01*
X319457Y1185724D01*
Y1186324D01*
X319590Y1186991D01*
X319790Y1188523D01*
X320123Y1190190D01*
X320590Y1191856D01*
X321256Y1193589D01*
Y1193655D01*
X321323Y1193789D01*
X321456Y1193989D01*
X321590Y1194322D01*
X321789Y1194722D01*
X322056Y1195122D01*
X322656Y1196122D01*
X323456Y1197255D01*
X324389Y1198388D01*
X325522Y1199521D01*
X326788Y1200520D01*
X326855D01*
X326988Y1200654D01*
X327188Y1200720D01*
X327455Y1200920D01*
X327788Y1201120D01*
X328188Y1201320D01*
X329254Y1201787D01*
X330521Y1202187D01*
X331987Y1202587D01*
X333586Y1202853D01*
X335386Y1202986D01*
X335653D01*
X336052Y1202920D01*
D02*
G37*
G36*
X516939Y1217116D02*
X517139Y1216783D01*
X517473Y1216316D01*
X517939Y1215650D01*
X518472Y1214850D01*
X519139Y1213917D01*
X519805Y1212851D01*
X520538Y1211651D01*
X521338Y1210385D01*
X522071Y1208985D01*
X522938Y1207519D01*
X523738Y1206052D01*
X525204Y1202853D01*
X525937Y1201187D01*
X526537Y1199521D01*
Y1199454D01*
X526670Y1199187D01*
X526804Y1198788D01*
X526937Y1198188D01*
X527203Y1197521D01*
X527403Y1196655D01*
X527670Y1195722D01*
X527937Y1194655D01*
X528137Y1193522D01*
X528403Y1192322D01*
X528670Y1190990D01*
X528870Y1189590D01*
X529136Y1186657D01*
X529270Y1183591D01*
Y1183458D01*
Y1183192D01*
Y1182658D01*
X529203Y1181992D01*
X529136Y1181125D01*
X529070Y1180126D01*
X528936Y1178993D01*
X528803Y1177793D01*
X528603Y1176393D01*
X528403Y1174994D01*
X528070Y1173461D01*
X527737Y1171928D01*
X527337Y1170262D01*
X526804Y1168662D01*
X526270Y1166996D01*
X525604Y1165329D01*
X525537Y1165263D01*
X525471Y1164930D01*
X525271Y1164463D01*
X524937Y1163863D01*
X524604Y1163130D01*
X524204Y1162197D01*
X523738Y1161197D01*
X523138Y1160131D01*
X522538Y1158998D01*
X521871Y1157731D01*
X520405Y1155199D01*
X518739Y1152533D01*
X516873Y1150000D01*
X512341D01*
Y1150067D01*
X512474Y1150200D01*
X512607Y1150400D01*
X512807Y1150733D01*
X513007Y1151133D01*
X513340Y1151666D01*
X513607Y1152199D01*
X514007Y1152866D01*
X514340Y1153599D01*
X514740Y1154399D01*
X515206Y1155265D01*
X515673Y1156198D01*
X516606Y1158198D01*
X517606Y1160464D01*
X518539Y1162930D01*
X519472Y1165529D01*
X520405Y1168329D01*
X521205Y1171261D01*
X521871Y1174260D01*
X522338Y1177326D01*
X522671Y1180459D01*
X522805Y1183591D01*
Y1183658D01*
Y1183858D01*
Y1184258D01*
Y1184725D01*
X522738Y1185324D01*
Y1185991D01*
X522671Y1186791D01*
X522605Y1187657D01*
X522538Y1188590D01*
X522405Y1189657D01*
X522138Y1191856D01*
X521805Y1194189D01*
X521272Y1196588D01*
Y1196655D01*
X521205Y1196855D01*
X521138Y1197121D01*
X521072Y1197521D01*
X520938Y1197988D01*
X520805Y1198521D01*
X520605Y1199121D01*
X520405Y1199854D01*
X519939Y1201387D01*
X519339Y1203053D01*
X518672Y1204853D01*
X517939Y1206652D01*
Y1206719D01*
X517873Y1206786D01*
X517806Y1206985D01*
X517673Y1207252D01*
X517473Y1207585D01*
X517273Y1208052D01*
X517073Y1208518D01*
X516740Y1209118D01*
X516406Y1209851D01*
X516006Y1210584D01*
X515540Y1211451D01*
X515007Y1212451D01*
X514473Y1213450D01*
X513807Y1214584D01*
X513140Y1215850D01*
X512341Y1217183D01*
X516873D01*
X516939Y1217116D01*
D02*
G37*
G36*
X234812D02*
X234678Y1216850D01*
X234478Y1216516D01*
X234212Y1215983D01*
X233879Y1215383D01*
X233479Y1214717D01*
X233012Y1213917D01*
X232546Y1213117D01*
X231612Y1211451D01*
X230679Y1209718D01*
X229880Y1208119D01*
X229480Y1207385D01*
X229213Y1206786D01*
Y1206719D01*
X229146Y1206585D01*
X229013Y1206319D01*
X228880Y1205919D01*
X228680Y1205519D01*
X228480Y1204986D01*
X228280Y1204386D01*
X228013Y1203720D01*
X227480Y1202187D01*
X226880Y1200520D01*
X226347Y1198654D01*
X225881Y1196721D01*
Y1196655D01*
X225814Y1196455D01*
X225747Y1196055D01*
X225681Y1195588D01*
X225547Y1194988D01*
X225414Y1194322D01*
X225281Y1193522D01*
X225147Y1192656D01*
X225014Y1191656D01*
X224881Y1190656D01*
X224614Y1188457D01*
X224481Y1186057D01*
X224414Y1183591D01*
Y1183525D01*
Y1183391D01*
Y1183192D01*
Y1182858D01*
X224481Y1182392D01*
Y1181925D01*
X224548Y1181325D01*
Y1180725D01*
X224681Y1179992D01*
X224748Y1179193D01*
X224814Y1178326D01*
X224947Y1177393D01*
X225281Y1175327D01*
X225747Y1173061D01*
X226280Y1170595D01*
X226947Y1167995D01*
X227813Y1165196D01*
X228813Y1162330D01*
X230013Y1159331D01*
X231413Y1156265D01*
X233012Y1153132D01*
X234878Y1150000D01*
X230346D01*
X230280Y1150067D01*
X230146Y1150333D01*
X229813Y1150667D01*
X229480Y1151200D01*
X229013Y1151800D01*
X228480Y1152533D01*
X227880Y1153399D01*
X227280Y1154399D01*
X226614Y1155465D01*
X225881Y1156665D01*
X225147Y1157931D01*
X224414Y1159264D01*
X223615Y1160664D01*
X222881Y1162197D01*
X221482Y1165329D01*
X221415Y1165463D01*
X221348Y1165729D01*
X221148Y1166196D01*
X220949Y1166862D01*
X220682Y1167662D01*
X220349Y1168595D01*
X220016Y1169728D01*
X219749Y1170928D01*
X219416Y1172261D01*
X219082Y1173661D01*
X218749Y1175194D01*
X218482Y1176727D01*
X218083Y1180059D01*
X218016Y1181859D01*
X217949Y1183591D01*
Y1183658D01*
Y1183991D01*
Y1184391D01*
X218016Y1184991D01*
Y1185791D01*
X218083Y1186657D01*
X218149Y1187590D01*
X218283Y1188723D01*
X218416Y1189856D01*
X218616Y1191123D01*
X219082Y1193855D01*
X219749Y1196655D01*
X220615Y1199521D01*
X220682Y1199654D01*
X220749Y1199921D01*
X220949Y1200387D01*
X221215Y1201054D01*
X221548Y1201853D01*
X221948Y1202786D01*
X222415Y1203853D01*
X223015Y1205053D01*
X223681Y1206319D01*
X224348Y1207719D01*
X225147Y1209185D01*
X226014Y1210718D01*
X227014Y1212317D01*
X228013Y1213917D01*
X229146Y1215517D01*
X230346Y1217183D01*
X234878D01*
X234812Y1217116D01*
D02*
G37*
%LPC*%
G36*
X639841Y1275421D02*
X639441D01*
X639175Y1275355D01*
X638375Y1275221D01*
X637442Y1274955D01*
X636309Y1274488D01*
X635709Y1274221D01*
X635109Y1273822D01*
X634509Y1273355D01*
X633909Y1272888D01*
X633310Y1272289D01*
X632710Y1271622D01*
Y1271555D01*
X632576Y1271422D01*
X632443Y1271222D01*
X632243Y1270956D01*
X631977Y1270556D01*
X631710Y1270089D01*
X631443Y1269489D01*
X631177Y1268890D01*
X630910Y1268156D01*
X630644Y1267357D01*
X630377Y1266423D01*
X630110Y1265490D01*
X629911Y1264424D01*
X629777Y1263291D01*
X629711Y1262025D01*
X629644Y1260758D01*
Y1260692D01*
Y1260425D01*
Y1260092D01*
X629711Y1259625D01*
Y1259025D01*
X629777Y1258292D01*
X629911Y1257559D01*
X629977Y1256759D01*
X630377Y1255026D01*
X630844Y1253294D01*
X631577Y1251627D01*
X631977Y1250894D01*
X632510Y1250228D01*
X632576Y1250161D01*
X632643Y1250094D01*
X633043Y1249695D01*
X633643Y1249161D01*
X634509Y1248561D01*
X635509Y1247895D01*
X636709Y1247362D01*
X638108Y1246962D01*
X638842Y1246895D01*
X639575Y1246829D01*
X639975D01*
X640308Y1246895D01*
X640641Y1246962D01*
X641041Y1247029D01*
X642041Y1247295D01*
X643174Y1247695D01*
X644373Y1248295D01*
X644973Y1248695D01*
X645573Y1249228D01*
X646173Y1249761D01*
X646773Y1250361D01*
X646840Y1250428D01*
X646906Y1250561D01*
X647039Y1250761D01*
X647239Y1251028D01*
X647439Y1251427D01*
X647706Y1251894D01*
X647972Y1252427D01*
X648306Y1253027D01*
X648572Y1253760D01*
X648839Y1254560D01*
X649106Y1255493D01*
X649305Y1256493D01*
X649505Y1257559D01*
X649639Y1258692D01*
X649772Y1259958D01*
Y1261292D01*
Y1261358D01*
Y1261625D01*
Y1261958D01*
X649705Y1262425D01*
Y1263024D01*
X649639Y1263691D01*
X649505Y1264491D01*
X649439Y1265291D01*
X649039Y1266957D01*
X648506Y1268756D01*
X647839Y1270423D01*
X647373Y1271222D01*
X646840Y1271889D01*
Y1271955D01*
X646706Y1272022D01*
X646306Y1272422D01*
X645706Y1273022D01*
X644840Y1273688D01*
X643840Y1274288D01*
X642641Y1274888D01*
X641308Y1275288D01*
X640574Y1275355D01*
X639841Y1275421D01*
D02*
G37*
G36*
X496545Y1261025D02*
X496478D01*
X496411Y1260958D01*
X496211Y1260892D01*
X495878Y1260825D01*
X495545Y1260692D01*
X495078Y1260558D01*
X494545Y1260358D01*
X493945Y1260225D01*
X493279Y1260025D01*
X492546Y1259825D01*
X491679Y1259625D01*
X490746Y1259425D01*
X489746Y1259225D01*
X488680Y1259025D01*
X487547Y1258826D01*
X486281Y1258625D01*
X486081D01*
X485947Y1258559D01*
X485681D01*
X484948Y1258426D01*
X484148Y1258292D01*
X483281Y1258092D01*
X482348Y1257892D01*
X481482Y1257626D01*
X480815Y1257359D01*
X480749D01*
X480549Y1257226D01*
X480282Y1257093D01*
X479882Y1256893D01*
X479082Y1256226D01*
X478683Y1255826D01*
X478349Y1255360D01*
X478283Y1255293D01*
X478216Y1255160D01*
X478083Y1254827D01*
X477949Y1254493D01*
X477749Y1254027D01*
X477616Y1253560D01*
X477550Y1252960D01*
X477483Y1252361D01*
Y1252227D01*
Y1251961D01*
X477616Y1251494D01*
X477749Y1250894D01*
X477949Y1250294D01*
X478283Y1249561D01*
X478749Y1248895D01*
X479349Y1248228D01*
X479416Y1248161D01*
X479682Y1247962D01*
X480149Y1247695D01*
X480749Y1247428D01*
X481549Y1247095D01*
X482548Y1246829D01*
X483681Y1246629D01*
X484948Y1246562D01*
X485547D01*
X486214Y1246629D01*
X487080Y1246762D01*
X488080Y1246962D01*
X489146Y1247228D01*
X490280Y1247562D01*
X491346Y1248095D01*
X491413D01*
X491479Y1248161D01*
X491813Y1248362D01*
X492346Y1248761D01*
X492946Y1249228D01*
X493612Y1249828D01*
X494345Y1250628D01*
X495012Y1251427D01*
X495545Y1252427D01*
X495612Y1252560D01*
X495678Y1252827D01*
X495878Y1253294D01*
X496078Y1254027D01*
X496211Y1254893D01*
X496411Y1255959D01*
X496478Y1257226D01*
X496545Y1258692D01*
Y1261025D01*
D02*
G37*
G36*
X38928Y1287618D02*
X26798D01*
Y1272155D01*
X39395D01*
X40328Y1272222D01*
X41395Y1272289D01*
X42461Y1272355D01*
X43461Y1272489D01*
X44261Y1272689D01*
X44394Y1272755D01*
X44660Y1272822D01*
X45127Y1273022D01*
X45727Y1273288D01*
X46393Y1273688D01*
X46993Y1274088D01*
X47660Y1274621D01*
X48193Y1275221D01*
X48259Y1275288D01*
X48393Y1275555D01*
X48593Y1275954D01*
X48859Y1276488D01*
X49126Y1277087D01*
X49326Y1277887D01*
X49459Y1278754D01*
X49526Y1279753D01*
Y1279887D01*
Y1280153D01*
X49459Y1280686D01*
X49392Y1281286D01*
X49193Y1281953D01*
X48993Y1282686D01*
X48659Y1283486D01*
X48259Y1284219D01*
X48193Y1284286D01*
X48060Y1284552D01*
X47793Y1284886D01*
X47393Y1285285D01*
X46860Y1285752D01*
X46327Y1286152D01*
X45594Y1286552D01*
X44794Y1286885D01*
X44660Y1286952D01*
X44327Y1287018D01*
X43794Y1287152D01*
X42994Y1287285D01*
X42461Y1287352D01*
X41928Y1287418D01*
X41261D01*
X40528Y1287485D01*
X39795Y1287552D01*
X38928Y1287618D01*
D02*
G37*
G36*
X38595Y1266090D02*
X26798D01*
Y1248495D01*
X41328D01*
X42861Y1248561D01*
X43527Y1248628D01*
X44127Y1248695D01*
X44261D01*
X44527Y1248761D01*
X44927Y1248895D01*
X45460Y1249028D01*
X46127Y1249228D01*
X46726Y1249428D01*
X47393Y1249761D01*
X47993Y1250094D01*
X48060Y1250161D01*
X48259Y1250294D01*
X48526Y1250494D01*
X48926Y1250827D01*
X49326Y1251227D01*
X49792Y1251761D01*
X50192Y1252294D01*
X50592Y1252960D01*
X50659Y1253027D01*
X50792Y1253294D01*
X50925Y1253693D01*
X51125Y1254227D01*
X51325Y1254827D01*
X51525Y1255560D01*
X51592Y1256426D01*
X51659Y1257292D01*
Y1257426D01*
Y1257759D01*
X51592Y1258292D01*
X51459Y1258959D01*
X51259Y1259759D01*
X50992Y1260558D01*
X50659Y1261425D01*
X50126Y1262225D01*
X50059Y1262291D01*
X49859Y1262558D01*
X49526Y1262958D01*
X49059Y1263424D01*
X48459Y1263891D01*
X47793Y1264424D01*
X46993Y1264824D01*
X46060Y1265224D01*
X45927Y1265291D01*
X45594Y1265357D01*
X44994Y1265490D01*
X44127Y1265690D01*
X43127Y1265824D01*
X41794Y1265957D01*
X40328Y1266024D01*
X38595Y1266090D01*
D02*
G37*
G36*
X678965Y1275155D02*
X678565D01*
X678232Y1275088D01*
X677898D01*
X677432Y1275021D01*
X676432Y1274821D01*
X675299Y1274421D01*
X674033Y1273888D01*
X672833Y1273222D01*
X672233Y1272755D01*
X671633Y1272222D01*
X671500Y1272089D01*
X671167Y1271689D01*
X670700Y1271089D01*
X670167Y1270223D01*
X669567Y1269090D01*
X669034Y1267757D01*
X668634Y1266290D01*
X668434Y1264557D01*
X689162D01*
Y1264624D01*
Y1264757D01*
X689095Y1265024D01*
X689029Y1265291D01*
Y1265690D01*
X688895Y1266157D01*
X688695Y1267157D01*
X688362Y1268290D01*
X687962Y1269423D01*
X687429Y1270556D01*
X686763Y1271489D01*
Y1271555D01*
X686629Y1271622D01*
X686429Y1271822D01*
X686229Y1272089D01*
X685563Y1272622D01*
X684697Y1273355D01*
X683563Y1274022D01*
X682230Y1274555D01*
X680697Y1275021D01*
X679831Y1275088D01*
X678965Y1275155D01*
D02*
G37*
G36*
X408501D02*
X408101D01*
X407767Y1275088D01*
X407434D01*
X406968Y1275021D01*
X405968Y1274821D01*
X404835Y1274421D01*
X403568Y1273888D01*
X402369Y1273222D01*
X401769Y1272755D01*
X401169Y1272222D01*
X401036Y1272089D01*
X400703Y1271689D01*
X400236Y1271089D01*
X399703Y1270223D01*
X399103Y1269090D01*
X398570Y1267757D01*
X398170Y1266290D01*
X397970Y1264557D01*
X418698D01*
Y1264624D01*
Y1264757D01*
X418631Y1265024D01*
X418565Y1265291D01*
Y1265690D01*
X418431Y1266157D01*
X418231Y1267157D01*
X417898Y1268290D01*
X417498Y1269423D01*
X416965Y1270556D01*
X416298Y1271489D01*
Y1271555D01*
X416165Y1271622D01*
X415965Y1271822D01*
X415765Y1272089D01*
X415099Y1272622D01*
X414232Y1273355D01*
X413099Y1274022D01*
X411766Y1274555D01*
X410233Y1275021D01*
X409367Y1275088D01*
X408501Y1275155D01*
D02*
G37*
G36*
X332720D02*
X332253D01*
X331920Y1275088D01*
X331520Y1275021D01*
X331054Y1274955D01*
X329987Y1274688D01*
X328788Y1274288D01*
X327455Y1273688D01*
X326788Y1273288D01*
X326188Y1272822D01*
X325522Y1272222D01*
X324922Y1271622D01*
Y1271555D01*
X324789Y1271489D01*
X324655Y1271222D01*
X324455Y1270956D01*
X324189Y1270556D01*
X323922Y1270156D01*
X323656Y1269623D01*
X323389Y1268956D01*
X323122Y1268290D01*
X322856Y1267490D01*
X322589Y1266624D01*
X322323Y1265624D01*
X322123Y1264624D01*
X321989Y1263491D01*
X321923Y1262225D01*
X321856Y1260958D01*
Y1260892D01*
Y1260625D01*
Y1260292D01*
X321923Y1259825D01*
Y1259225D01*
X321989Y1258559D01*
X322123Y1257759D01*
X322256Y1256959D01*
X322589Y1255293D01*
X323122Y1253493D01*
X323922Y1251827D01*
X324389Y1251094D01*
X324922Y1250361D01*
X324989Y1250294D01*
X325055Y1250228D01*
X325255Y1250028D01*
X325455Y1249828D01*
X326188Y1249228D01*
X327055Y1248628D01*
X328188Y1247962D01*
X329521Y1247362D01*
X331054Y1246962D01*
X331853Y1246895D01*
X332720Y1246829D01*
X333186D01*
X333520Y1246895D01*
X333920Y1246962D01*
X334386Y1247029D01*
X335453Y1247295D01*
X336652Y1247695D01*
X337985Y1248295D01*
X338652Y1248695D01*
X339318Y1249228D01*
X339918Y1249761D01*
X340518Y1250361D01*
X340585Y1250428D01*
X340651Y1250561D01*
X340784Y1250761D01*
X340984Y1251028D01*
X341251Y1251427D01*
X341518Y1251894D01*
X341784Y1252427D01*
X342118Y1253027D01*
X342384Y1253760D01*
X342651Y1254560D01*
X342917Y1255426D01*
X343184Y1256426D01*
X343384Y1257493D01*
X343517Y1258625D01*
X343651Y1259825D01*
Y1261158D01*
Y1261225D01*
Y1261491D01*
Y1261825D01*
X343584Y1262291D01*
Y1262891D01*
X343517Y1263491D01*
X343384Y1264224D01*
X343251Y1265024D01*
X342917Y1266690D01*
X342318Y1268423D01*
X341584Y1270089D01*
X341051Y1270889D01*
X340518Y1271555D01*
X340451Y1271622D01*
X340385Y1271689D01*
X340185Y1271889D01*
X339985Y1272089D01*
X339252Y1272689D01*
X338385Y1273355D01*
X337252Y1274022D01*
X335919Y1274621D01*
X334386Y1275021D01*
X333586Y1275088D01*
X332720Y1275155D01*
D02*
G37*
G36*
X161697D02*
X161231D01*
X160897Y1275088D01*
X160497Y1275021D01*
X160031Y1274955D01*
X158964Y1274688D01*
X157765Y1274288D01*
X156432Y1273688D01*
X155765Y1273288D01*
X155165Y1272822D01*
X154499Y1272222D01*
X153899Y1271622D01*
Y1271555D01*
X153766Y1271489D01*
X153632Y1271222D01*
X153433Y1270956D01*
X153166Y1270556D01*
X152899Y1270156D01*
X152633Y1269623D01*
X152366Y1268956D01*
X152100Y1268290D01*
X151833Y1267490D01*
X151566Y1266624D01*
X151300Y1265624D01*
X151100Y1264624D01*
X150967Y1263491D01*
X150900Y1262225D01*
X150833Y1260958D01*
Y1260892D01*
Y1260625D01*
Y1260292D01*
X150900Y1259825D01*
Y1259225D01*
X150967Y1258559D01*
X151100Y1257759D01*
X151233Y1256959D01*
X151566Y1255293D01*
X152100Y1253493D01*
X152899Y1251827D01*
X153366Y1251094D01*
X153899Y1250361D01*
X153966Y1250294D01*
X154032Y1250228D01*
X154232Y1250028D01*
X154432Y1249828D01*
X155165Y1249228D01*
X156032Y1248628D01*
X157165Y1247962D01*
X158498Y1247362D01*
X160031Y1246962D01*
X160831Y1246895D01*
X161697Y1246829D01*
X162164D01*
X162497Y1246895D01*
X162897Y1246962D01*
X163363Y1247029D01*
X164430Y1247295D01*
X165629Y1247695D01*
X166962Y1248295D01*
X167629Y1248695D01*
X168295Y1249228D01*
X168895Y1249761D01*
X169495Y1250361D01*
X169562Y1250428D01*
X169628Y1250561D01*
X169762Y1250761D01*
X169962Y1251028D01*
X170228Y1251427D01*
X170495Y1251894D01*
X170761Y1252427D01*
X171095Y1253027D01*
X171361Y1253760D01*
X171628Y1254560D01*
X171894Y1255426D01*
X172161Y1256426D01*
X172361Y1257493D01*
X172494Y1258625D01*
X172628Y1259825D01*
Y1261158D01*
Y1261225D01*
Y1261491D01*
Y1261825D01*
X172561Y1262291D01*
Y1262891D01*
X172494Y1263491D01*
X172361Y1264224D01*
X172228Y1265024D01*
X171894Y1266690D01*
X171295Y1268423D01*
X170562Y1270089D01*
X170028Y1270889D01*
X169495Y1271555D01*
X169428Y1271622D01*
X169362Y1271689D01*
X169162Y1271889D01*
X168962Y1272089D01*
X168229Y1272689D01*
X167362Y1273355D01*
X166229Y1274022D01*
X164896Y1274621D01*
X163363Y1275021D01*
X162563Y1275088D01*
X161697Y1275155D01*
D02*
G37*
G36*
X82184D02*
X81718D01*
X81384Y1275088D01*
X80984Y1275021D01*
X80518Y1274955D01*
X79451Y1274688D01*
X78252Y1274288D01*
X76919Y1273688D01*
X76252Y1273288D01*
X75652Y1272822D01*
X74986Y1272222D01*
X74386Y1271622D01*
Y1271555D01*
X74253Y1271489D01*
X74120Y1271222D01*
X73920Y1270956D01*
X73653Y1270556D01*
X73386Y1270156D01*
X73120Y1269623D01*
X72853Y1268956D01*
X72586Y1268290D01*
X72320Y1267490D01*
X72053Y1266624D01*
X71787Y1265624D01*
X71587Y1264624D01*
X71453Y1263491D01*
X71387Y1262225D01*
X71320Y1260958D01*
Y1260892D01*
Y1260625D01*
Y1260292D01*
X71387Y1259825D01*
Y1259225D01*
X71453Y1258559D01*
X71587Y1257759D01*
X71720Y1256959D01*
X72053Y1255293D01*
X72586Y1253493D01*
X73386Y1251827D01*
X73853Y1251094D01*
X74386Y1250361D01*
X74453Y1250294D01*
X74519Y1250228D01*
X74719Y1250028D01*
X74919Y1249828D01*
X75652Y1249228D01*
X76519Y1248628D01*
X77652Y1247962D01*
X78985Y1247362D01*
X80518Y1246962D01*
X81318Y1246895D01*
X82184Y1246829D01*
X82651D01*
X82984Y1246895D01*
X83384Y1246962D01*
X83850Y1247029D01*
X84917Y1247295D01*
X86116Y1247695D01*
X87449Y1248295D01*
X88116Y1248695D01*
X88782Y1249228D01*
X89382Y1249761D01*
X89982Y1250361D01*
X90049Y1250428D01*
X90115Y1250561D01*
X90249Y1250761D01*
X90449Y1251028D01*
X90715Y1251427D01*
X90982Y1251894D01*
X91248Y1252427D01*
X91582Y1253027D01*
X91848Y1253760D01*
X92115Y1254560D01*
X92381Y1255426D01*
X92648Y1256426D01*
X92848Y1257493D01*
X92981Y1258625D01*
X93115Y1259825D01*
Y1261158D01*
Y1261225D01*
Y1261491D01*
Y1261825D01*
X93048Y1262291D01*
Y1262891D01*
X92981Y1263491D01*
X92848Y1264224D01*
X92715Y1265024D01*
X92381Y1266690D01*
X91782Y1268423D01*
X91048Y1270089D01*
X90515Y1270889D01*
X89982Y1271555D01*
X89915Y1271622D01*
X89849Y1271689D01*
X89649Y1271889D01*
X89449Y1272089D01*
X88716Y1272689D01*
X87849Y1273355D01*
X86716Y1274022D01*
X85383Y1274621D01*
X83850Y1275021D01*
X83050Y1275088D01*
X82184Y1275155D01*
D02*
G37*
G36*
X591587Y1288685D02*
X590920D01*
X590387Y1288618D01*
X589787Y1288551D01*
X589054Y1288418D01*
X588255Y1288285D01*
X587321Y1288085D01*
X586388Y1287818D01*
X585389Y1287485D01*
X584389Y1287085D01*
X583322Y1286552D01*
X582256Y1286019D01*
X581190Y1285352D01*
X580190Y1284552D01*
X579190Y1283686D01*
X579123Y1283619D01*
X578990Y1283486D01*
X578724Y1283153D01*
X578390Y1282753D01*
X577990Y1282220D01*
X577591Y1281486D01*
X577124Y1280686D01*
X576657Y1279753D01*
X576124Y1278687D01*
X575658Y1277487D01*
X575258Y1276154D01*
X574858Y1274688D01*
X574525Y1273022D01*
X574258Y1271222D01*
X574125Y1269289D01*
X574058Y1267223D01*
Y1267090D01*
Y1266823D01*
X574125Y1266357D01*
Y1265690D01*
X574191Y1264891D01*
X574325Y1264024D01*
X574458Y1263024D01*
X574658Y1261958D01*
X574925Y1260758D01*
X575258Y1259559D01*
X575658Y1258359D01*
X576124Y1257159D01*
X576724Y1255959D01*
X577391Y1254760D01*
X578124Y1253693D01*
X578990Y1252627D01*
X579057Y1252560D01*
X579190Y1252427D01*
X579523Y1252160D01*
X579923Y1251827D01*
X580390Y1251427D01*
X580990Y1250961D01*
X581656Y1250494D01*
X582456Y1250028D01*
X583256Y1249494D01*
X584255Y1249028D01*
X585255Y1248561D01*
X586388Y1248161D01*
X587521Y1247828D01*
X588788Y1247562D01*
X590054Y1247428D01*
X591454Y1247362D01*
X591787D01*
X592187Y1247428D01*
X592720D01*
X593386Y1247495D01*
X594120Y1247628D01*
X594986Y1247828D01*
X595919Y1248028D01*
X596852Y1248295D01*
X597919Y1248695D01*
X598918Y1249095D01*
X599985Y1249628D01*
X601051Y1250228D01*
X602118Y1250961D01*
X603117Y1251761D01*
X604050Y1252694D01*
X604117Y1252760D01*
X604250Y1252960D01*
X604517Y1253227D01*
X604850Y1253693D01*
X605183Y1254227D01*
X605650Y1254893D01*
X606117Y1255693D01*
X606583Y1256626D01*
X607050Y1257626D01*
X607450Y1258826D01*
X607916Y1260025D01*
X608249Y1261425D01*
X608583Y1262891D01*
X608849Y1264491D01*
X608983Y1266157D01*
X609049Y1267956D01*
Y1268023D01*
Y1268223D01*
Y1268556D01*
Y1269023D01*
X608983Y1269556D01*
X608916Y1270156D01*
X608849Y1270889D01*
X608783Y1271689D01*
X608516Y1273355D01*
X608183Y1275221D01*
X607649Y1277087D01*
X606916Y1278887D01*
Y1278954D01*
X606850Y1279087D01*
X606716Y1279354D01*
X606516Y1279687D01*
X606316Y1280020D01*
X606050Y1280487D01*
X605317Y1281553D01*
X604450Y1282686D01*
X603384Y1283886D01*
X602184Y1285019D01*
X600718Y1286085D01*
X600651D01*
X600518Y1286219D01*
X600318Y1286352D01*
X599985Y1286485D01*
X599652Y1286685D01*
X599185Y1286885D01*
X598652Y1287152D01*
X598052Y1287418D01*
X596719Y1287885D01*
X595186Y1288285D01*
X593453Y1288551D01*
X591587Y1288685D01*
D02*
G37*
G36*
X813130Y1275155D02*
X812730D01*
X812464Y1275088D01*
X811664Y1274955D01*
X810664Y1274755D01*
X809531Y1274288D01*
X808332Y1273688D01*
X807732Y1273288D01*
X807132Y1272822D01*
X806532Y1272289D01*
X805999Y1271689D01*
Y1271622D01*
X805865Y1271555D01*
X805732Y1271356D01*
X805532Y1271089D01*
X805332Y1270689D01*
X805066Y1270289D01*
X804799Y1269756D01*
X804532Y1269156D01*
X804266Y1268490D01*
X803999Y1267757D01*
X803733Y1266890D01*
X803533Y1266024D01*
X803333Y1265024D01*
X803199Y1263958D01*
X803133Y1262824D01*
X803066Y1261625D01*
Y1261558D01*
Y1261292D01*
Y1260958D01*
X803133Y1260425D01*
Y1259825D01*
X803199Y1259159D01*
X803333Y1258359D01*
X803399Y1257559D01*
X803799Y1255826D01*
X804266Y1254027D01*
X804999Y1252361D01*
X805399Y1251627D01*
X805932Y1250961D01*
X805999Y1250894D01*
X806065Y1250827D01*
X806465Y1250428D01*
X807065Y1249894D01*
X807932Y1249295D01*
X808998Y1248695D01*
X810264Y1248161D01*
X811664Y1247762D01*
X812464Y1247695D01*
X813263Y1247628D01*
X813663D01*
X813997Y1247695D01*
X814330Y1247762D01*
X814797Y1247828D01*
X815796Y1248028D01*
X816929Y1248428D01*
X818129Y1249028D01*
X818795Y1249428D01*
X819395Y1249894D01*
X819995Y1250361D01*
X820528Y1250961D01*
X820595Y1251028D01*
X820662Y1251094D01*
X820795Y1251294D01*
X820995Y1251627D01*
X821195Y1251961D01*
X821461Y1252361D01*
X821728Y1252894D01*
X821995Y1253493D01*
X822261Y1254227D01*
X822528Y1254960D01*
X822794Y1255826D01*
X822994Y1256759D01*
X823194Y1257826D01*
X823328Y1258959D01*
X823461Y1260158D01*
Y1261425D01*
Y1261491D01*
Y1261758D01*
Y1262091D01*
X823394Y1262558D01*
Y1263091D01*
X823328Y1263757D01*
X823194Y1264491D01*
X823061Y1265291D01*
X822728Y1266890D01*
X822195Y1268623D01*
X821395Y1270223D01*
X820928Y1271022D01*
X820395Y1271689D01*
Y1271756D01*
X820262Y1271822D01*
X819862Y1272222D01*
X819195Y1272755D01*
X818396Y1273422D01*
X817329Y1274088D01*
X816063Y1274621D01*
X814663Y1275021D01*
X813930Y1275088D01*
X813130Y1275155D01*
D02*
G37*
G36*
X385240Y1183658D02*
X385173D01*
X385107Y1183591D01*
X384907Y1183525D01*
X384573Y1183458D01*
X384240Y1183325D01*
X383773Y1183192D01*
X383240Y1182992D01*
X382640Y1182858D01*
X381974Y1182658D01*
X381241Y1182458D01*
X380374Y1182258D01*
X379441Y1182058D01*
X378442Y1181859D01*
X377375Y1181659D01*
X376242Y1181459D01*
X374976Y1181259D01*
X374776D01*
X374642Y1181192D01*
X374376D01*
X373643Y1181059D01*
X372843Y1180925D01*
X371977Y1180725D01*
X371044Y1180526D01*
X370177Y1180259D01*
X369510Y1179992D01*
X369444D01*
X369244Y1179859D01*
X368977Y1179726D01*
X368577Y1179526D01*
X367778Y1178859D01*
X367378Y1178459D01*
X367044Y1177993D01*
X366978Y1177926D01*
X366911Y1177793D01*
X366778Y1177460D01*
X366645Y1177126D01*
X366445Y1176660D01*
X366311Y1176193D01*
X366245Y1175593D01*
X366178Y1174994D01*
Y1174860D01*
Y1174594D01*
X366311Y1174127D01*
X366445Y1173527D01*
X366645Y1172927D01*
X366978Y1172194D01*
X367444Y1171528D01*
X368044Y1170861D01*
X368111Y1170795D01*
X368377Y1170595D01*
X368844Y1170328D01*
X369444Y1170061D01*
X370244Y1169728D01*
X371243Y1169462D01*
X372376Y1169262D01*
X373643Y1169195D01*
X374243D01*
X374909Y1169262D01*
X375776Y1169395D01*
X376775Y1169595D01*
X377842Y1169862D01*
X378975Y1170195D01*
X380041Y1170728D01*
X380108D01*
X380174Y1170795D01*
X380508Y1170995D01*
X381041Y1171395D01*
X381641Y1171861D01*
X382307Y1172461D01*
X383040Y1173261D01*
X383707Y1174061D01*
X384240Y1175060D01*
X384307Y1175194D01*
X384373Y1175460D01*
X384573Y1175927D01*
X384773Y1176660D01*
X384907Y1177526D01*
X385107Y1178593D01*
X385173Y1179859D01*
X385240Y1181325D01*
Y1183658D01*
D02*
G37*
G36*
X82917D02*
X82851D01*
X82784Y1183591D01*
X82584Y1183525D01*
X82251Y1183458D01*
X81917Y1183325D01*
X81451Y1183192D01*
X80918Y1182992D01*
X80318Y1182858D01*
X79651Y1182658D01*
X78918Y1182458D01*
X78052Y1182258D01*
X77119Y1182058D01*
X76119Y1181859D01*
X75053Y1181659D01*
X73920Y1181459D01*
X72653Y1181259D01*
X72453D01*
X72320Y1181192D01*
X72053D01*
X71320Y1181059D01*
X70520Y1180925D01*
X69654Y1180725D01*
X68721Y1180526D01*
X67854Y1180259D01*
X67188Y1179992D01*
X67121D01*
X66921Y1179859D01*
X66655Y1179726D01*
X66255Y1179526D01*
X65455Y1178859D01*
X65055Y1178459D01*
X64722Y1177993D01*
X64655Y1177926D01*
X64589Y1177793D01*
X64455Y1177460D01*
X64322Y1177126D01*
X64122Y1176660D01*
X63989Y1176193D01*
X63922Y1175593D01*
X63855Y1174994D01*
Y1174860D01*
Y1174594D01*
X63989Y1174127D01*
X64122Y1173527D01*
X64322Y1172927D01*
X64655Y1172194D01*
X65122Y1171528D01*
X65722Y1170861D01*
X65788Y1170795D01*
X66055Y1170595D01*
X66521Y1170328D01*
X67121Y1170061D01*
X67921Y1169728D01*
X68921Y1169462D01*
X70054Y1169262D01*
X71320Y1169195D01*
X71920D01*
X72586Y1169262D01*
X73453Y1169395D01*
X74453Y1169595D01*
X75519Y1169862D01*
X76652Y1170195D01*
X77719Y1170728D01*
X77785D01*
X77852Y1170795D01*
X78185Y1170995D01*
X78718Y1171395D01*
X79318Y1171861D01*
X79985Y1172461D01*
X80718Y1173261D01*
X81384Y1174061D01*
X81917Y1175060D01*
X81984Y1175194D01*
X82051Y1175460D01*
X82251Y1175927D01*
X82451Y1176660D01*
X82584Y1177526D01*
X82784Y1178593D01*
X82851Y1179859D01*
X82917Y1181325D01*
Y1183658D01*
D02*
G37*
G36*
X488147Y1197788D02*
X487747D01*
X487414Y1197721D01*
X487080D01*
X486614Y1197654D01*
X485614Y1197455D01*
X484481Y1197055D01*
X483215Y1196521D01*
X482015Y1195855D01*
X481415Y1195388D01*
X480815Y1194855D01*
X480682Y1194722D01*
X480349Y1194322D01*
X479882Y1193722D01*
X479349Y1192856D01*
X478749Y1191723D01*
X478216Y1190390D01*
X477816Y1188923D01*
X477616Y1187190D01*
X498344D01*
Y1187257D01*
Y1187390D01*
X498278Y1187657D01*
X498211Y1187924D01*
Y1188324D01*
X498078Y1188790D01*
X497878Y1189790D01*
X497544Y1190923D01*
X497145Y1192056D01*
X496611Y1193189D01*
X495945Y1194122D01*
Y1194189D01*
X495812Y1194255D01*
X495612Y1194455D01*
X495412Y1194722D01*
X494745Y1195255D01*
X493879Y1195988D01*
X492746Y1196655D01*
X491413Y1197188D01*
X489880Y1197654D01*
X489013Y1197721D01*
X488147Y1197788D01*
D02*
G37*
G36*
X297196D02*
X296796D01*
X296463Y1197721D01*
X296129D01*
X295663Y1197654D01*
X294663Y1197455D01*
X293530Y1197055D01*
X292264Y1196521D01*
X291064Y1195855D01*
X290464Y1195388D01*
X289864Y1194855D01*
X289731Y1194722D01*
X289398Y1194322D01*
X288931Y1193722D01*
X288398Y1192856D01*
X287798Y1191723D01*
X287265Y1190390D01*
X286865Y1188923D01*
X286665Y1187190D01*
X307393D01*
Y1187257D01*
Y1187390D01*
X307326Y1187657D01*
X307260Y1187924D01*
Y1188324D01*
X307127Y1188790D01*
X306926Y1189790D01*
X306593Y1190923D01*
X306193Y1192056D01*
X305660Y1193189D01*
X304994Y1194122D01*
Y1194189D01*
X304860Y1194255D01*
X304660Y1194455D01*
X304461Y1194722D01*
X303794Y1195255D01*
X302928Y1195988D01*
X301794Y1196655D01*
X300462Y1197188D01*
X298929Y1197654D01*
X298062Y1197721D01*
X297196Y1197788D01*
D02*
G37*
G36*
X150033D02*
X149634D01*
X149300Y1197721D01*
X148967D01*
X148500Y1197654D01*
X147501Y1197455D01*
X146368Y1197055D01*
X145101Y1196521D01*
X143902Y1195855D01*
X143302Y1195388D01*
X142702Y1194855D01*
X142569Y1194722D01*
X142235Y1194322D01*
X141769Y1193722D01*
X141236Y1192856D01*
X140636Y1191723D01*
X140103Y1190390D01*
X139703Y1188923D01*
X139503Y1187190D01*
X160231D01*
Y1187257D01*
Y1187390D01*
X160164Y1187657D01*
X160098Y1187924D01*
Y1188324D01*
X159964Y1188790D01*
X159764Y1189790D01*
X159431Y1190923D01*
X159031Y1192056D01*
X158498Y1193189D01*
X157831Y1194122D01*
Y1194189D01*
X157698Y1194255D01*
X157498Y1194455D01*
X157298Y1194722D01*
X156632Y1195255D01*
X155765Y1195988D01*
X154632Y1196655D01*
X153299Y1197188D01*
X151766Y1197654D01*
X150900Y1197721D01*
X150033Y1197788D01*
D02*
G37*
G36*
X335853D02*
X335453D01*
X335186Y1197721D01*
X334386Y1197588D01*
X333386Y1197388D01*
X332253Y1196921D01*
X331054Y1196321D01*
X330454Y1195922D01*
X329854Y1195455D01*
X329254Y1194922D01*
X328721Y1194322D01*
Y1194255D01*
X328588Y1194189D01*
X328454Y1193989D01*
X328254Y1193722D01*
X328055Y1193322D01*
X327788Y1192922D01*
X327521Y1192389D01*
X327255Y1191789D01*
X326988Y1191123D01*
X326721Y1190390D01*
X326455Y1189523D01*
X326255Y1188657D01*
X326055Y1187657D01*
X325922Y1186591D01*
X325855Y1185458D01*
X325788Y1184258D01*
Y1184191D01*
Y1183925D01*
Y1183591D01*
X325855Y1183058D01*
Y1182458D01*
X325922Y1181792D01*
X326055Y1180992D01*
X326122Y1180192D01*
X326521Y1178459D01*
X326988Y1176660D01*
X327721Y1174994D01*
X328121Y1174260D01*
X328654Y1173594D01*
X328721Y1173527D01*
X328788Y1173461D01*
X329188Y1173061D01*
X329787Y1172528D01*
X330654Y1171928D01*
X331720Y1171328D01*
X332986Y1170795D01*
X334386Y1170395D01*
X335186Y1170328D01*
X335986Y1170262D01*
X336386D01*
X336719Y1170328D01*
X337052Y1170395D01*
X337519Y1170461D01*
X338518Y1170661D01*
X339651Y1171061D01*
X340851Y1171661D01*
X341518Y1172061D01*
X342118Y1172528D01*
X342717Y1172994D01*
X343251Y1173594D01*
X343317Y1173661D01*
X343384Y1173727D01*
X343517Y1173927D01*
X343717Y1174260D01*
X343917Y1174594D01*
X344184Y1174994D01*
X344450Y1175527D01*
X344717Y1176127D01*
X344983Y1176860D01*
X345250Y1177593D01*
X345517Y1178459D01*
X345717Y1179392D01*
X345917Y1180459D01*
X346050Y1181592D01*
X346183Y1182792D01*
Y1184058D01*
Y1184125D01*
Y1184391D01*
Y1184725D01*
X346116Y1185191D01*
Y1185724D01*
X346050Y1186391D01*
X345917Y1187124D01*
X345783Y1187924D01*
X345450Y1189523D01*
X344917Y1191256D01*
X344117Y1192856D01*
X343651Y1193655D01*
X343117Y1194322D01*
Y1194389D01*
X342984Y1194455D01*
X342584Y1194855D01*
X341918Y1195388D01*
X341118Y1196055D01*
X340051Y1196721D01*
X338785Y1197255D01*
X337385Y1197654D01*
X336652Y1197721D01*
X335853Y1197788D01*
D02*
G37*
%LPD*%
M02*
