G04*
G04 #@! TF.GenerationSoftware,Altium Limited,Altium Designer,25.0.2 (28)*
G04*
G04 Layer_Color=255*
%FSLAX44Y44*%
%MOMM*%
G71*
G04*
G04 #@! TF.SameCoordinates,F5B53509-386E-4AF8-9846-D30C52800222*
G04*
G04*
G04 #@! TF.FilePolarity,Positive*
G04*
G01*
G75*
G04:AMPARAMS|DCode=11|XSize=2.5mm|YSize=1mm|CornerRadius=0.25mm|HoleSize=0mm|Usage=FLASHONLY|Rotation=0.000|XOffset=0mm|YOffset=0mm|HoleType=Round|Shape=RoundedRectangle|*
%AMROUNDEDRECTD11*
21,1,2.5000,0.5000,0,0,0.0*
21,1,2.0000,1.0000,0,0,0.0*
1,1,0.5000,1.0000,-0.2500*
1,1,0.5000,-1.0000,-0.2500*
1,1,0.5000,-1.0000,0.2500*
1,1,0.5000,1.0000,0.2500*
%
%ADD11ROUNDEDRECTD11*%
G04:AMPARAMS|DCode=12|XSize=1.5mm|YSize=2mm|CornerRadius=0.375mm|HoleSize=0mm|Usage=FLASHONLY|Rotation=180.000|XOffset=0mm|YOffset=0mm|HoleType=Round|Shape=RoundedRectangle|*
%AMROUNDEDRECTD12*
21,1,1.5000,1.2500,0,0,180.0*
21,1,0.7500,2.0000,0,0,180.0*
1,1,0.7500,-0.3750,0.6250*
1,1,0.7500,0.3750,0.6250*
1,1,0.7500,0.3750,-0.6250*
1,1,0.7500,-0.3750,-0.6250*
%
%ADD12ROUNDEDRECTD12*%
%ADD16R,3.4000X0.3500*%
%ADD17R,0.7000X5.8000*%
D11*
X2344000Y496950D02*
D03*
Y509650D02*
D03*
Y522350D02*
D03*
Y535050D02*
D03*
Y484250D02*
D03*
Y458850D02*
D03*
Y446150D02*
D03*
Y420750D02*
D03*
Y433450D02*
D03*
Y471550D02*
D03*
Y408050D02*
D03*
X2458500Y535050D02*
D03*
Y522350D02*
D03*
Y509650D02*
D03*
Y496950D02*
D03*
Y484250D02*
D03*
Y471550D02*
D03*
Y458850D02*
D03*
Y446150D02*
D03*
Y433450D02*
D03*
Y420750D02*
D03*
Y408050D02*
D03*
X2089000Y496950D02*
D03*
Y509650D02*
D03*
Y522350D02*
D03*
Y535050D02*
D03*
Y484250D02*
D03*
Y458850D02*
D03*
Y446150D02*
D03*
Y420750D02*
D03*
Y433450D02*
D03*
Y471550D02*
D03*
Y408050D02*
D03*
X2203500Y535050D02*
D03*
Y522350D02*
D03*
Y509650D02*
D03*
Y496950D02*
D03*
Y484250D02*
D03*
Y471550D02*
D03*
Y458850D02*
D03*
Y446150D02*
D03*
Y433450D02*
D03*
Y420750D02*
D03*
Y408050D02*
D03*
X1834000Y496950D02*
D03*
Y509650D02*
D03*
Y522350D02*
D03*
Y535050D02*
D03*
Y484250D02*
D03*
Y458850D02*
D03*
Y446150D02*
D03*
Y420750D02*
D03*
Y433450D02*
D03*
Y471550D02*
D03*
Y408050D02*
D03*
X1948500Y535050D02*
D03*
Y522350D02*
D03*
Y509650D02*
D03*
Y496950D02*
D03*
Y484250D02*
D03*
Y471550D02*
D03*
Y458850D02*
D03*
Y446150D02*
D03*
Y433450D02*
D03*
Y420750D02*
D03*
Y408050D02*
D03*
X1579000Y496950D02*
D03*
Y509650D02*
D03*
Y522350D02*
D03*
Y535050D02*
D03*
Y484250D02*
D03*
Y458850D02*
D03*
Y446150D02*
D03*
Y420750D02*
D03*
Y433450D02*
D03*
Y471550D02*
D03*
Y408050D02*
D03*
X1693500Y535050D02*
D03*
Y522350D02*
D03*
Y509650D02*
D03*
Y496950D02*
D03*
Y484250D02*
D03*
Y471550D02*
D03*
Y458850D02*
D03*
Y446150D02*
D03*
Y433450D02*
D03*
Y420750D02*
D03*
Y408050D02*
D03*
X1324000Y496950D02*
D03*
Y509650D02*
D03*
Y522350D02*
D03*
Y535050D02*
D03*
Y484250D02*
D03*
Y458850D02*
D03*
Y446150D02*
D03*
Y420750D02*
D03*
Y433450D02*
D03*
Y471550D02*
D03*
Y408050D02*
D03*
X1438500Y535050D02*
D03*
Y522350D02*
D03*
Y509650D02*
D03*
Y496950D02*
D03*
Y484250D02*
D03*
Y471550D02*
D03*
Y458850D02*
D03*
Y446150D02*
D03*
Y433450D02*
D03*
Y420750D02*
D03*
Y408050D02*
D03*
X1069000Y496950D02*
D03*
Y509650D02*
D03*
Y522350D02*
D03*
Y535050D02*
D03*
Y484250D02*
D03*
Y458850D02*
D03*
Y446150D02*
D03*
Y420750D02*
D03*
Y433450D02*
D03*
Y471550D02*
D03*
Y408050D02*
D03*
X1183500Y535050D02*
D03*
Y522350D02*
D03*
Y509650D02*
D03*
Y496950D02*
D03*
Y484250D02*
D03*
Y471550D02*
D03*
Y458850D02*
D03*
Y446150D02*
D03*
Y433450D02*
D03*
Y420750D02*
D03*
Y408050D02*
D03*
X814000Y496950D02*
D03*
Y509650D02*
D03*
Y522350D02*
D03*
Y535050D02*
D03*
Y484250D02*
D03*
Y458850D02*
D03*
Y446150D02*
D03*
Y420750D02*
D03*
Y433450D02*
D03*
Y471550D02*
D03*
Y408050D02*
D03*
X928500Y535050D02*
D03*
Y522350D02*
D03*
Y509650D02*
D03*
Y496950D02*
D03*
Y484250D02*
D03*
Y471550D02*
D03*
Y458850D02*
D03*
Y446150D02*
D03*
Y433450D02*
D03*
Y420750D02*
D03*
Y408050D02*
D03*
X559000Y496950D02*
D03*
Y509650D02*
D03*
Y522350D02*
D03*
Y535050D02*
D03*
Y484250D02*
D03*
Y458850D02*
D03*
Y446150D02*
D03*
Y420750D02*
D03*
Y433450D02*
D03*
Y471550D02*
D03*
Y408050D02*
D03*
X673500Y535050D02*
D03*
Y522350D02*
D03*
Y509650D02*
D03*
Y496950D02*
D03*
Y484250D02*
D03*
Y471550D02*
D03*
Y458850D02*
D03*
Y446150D02*
D03*
Y433450D02*
D03*
Y420750D02*
D03*
Y408050D02*
D03*
X304000Y496950D02*
D03*
Y509650D02*
D03*
Y522350D02*
D03*
Y535050D02*
D03*
Y484250D02*
D03*
Y458850D02*
D03*
Y446150D02*
D03*
Y420750D02*
D03*
Y433450D02*
D03*
Y471550D02*
D03*
Y408050D02*
D03*
X418500Y535050D02*
D03*
Y522350D02*
D03*
Y509650D02*
D03*
Y496950D02*
D03*
Y484250D02*
D03*
Y471550D02*
D03*
Y458850D02*
D03*
Y446150D02*
D03*
Y433450D02*
D03*
Y420750D02*
D03*
Y408050D02*
D03*
D12*
X2370000Y414550D02*
D03*
X2371000Y465550D02*
D03*
X2370000Y439950D02*
D03*
X2432500Y415000D02*
D03*
Y440400D02*
D03*
Y465800D02*
D03*
X2370000Y503450D02*
D03*
X2432500Y529300D02*
D03*
Y503900D02*
D03*
X2370000Y528850D02*
D03*
X2115000Y414550D02*
D03*
X2116000Y465550D02*
D03*
X2115000Y439950D02*
D03*
X2177500Y415000D02*
D03*
Y440400D02*
D03*
Y465800D02*
D03*
X2115000Y503450D02*
D03*
X2177500Y529300D02*
D03*
Y503900D02*
D03*
X2115000Y528850D02*
D03*
X1860000Y414550D02*
D03*
X1861000Y465550D02*
D03*
X1860000Y439950D02*
D03*
X1922500Y415000D02*
D03*
Y440400D02*
D03*
Y465800D02*
D03*
X1860000Y503450D02*
D03*
X1922500Y529300D02*
D03*
Y503900D02*
D03*
X1860000Y528850D02*
D03*
X1605000Y414550D02*
D03*
X1606000Y465550D02*
D03*
X1605000Y439950D02*
D03*
X1667500Y415000D02*
D03*
Y440400D02*
D03*
Y465800D02*
D03*
X1605000Y503450D02*
D03*
X1667500Y529300D02*
D03*
Y503900D02*
D03*
X1605000Y528850D02*
D03*
X1350000Y414550D02*
D03*
X1351000Y465550D02*
D03*
X1350000Y439950D02*
D03*
X1412500Y415000D02*
D03*
Y440400D02*
D03*
Y465800D02*
D03*
X1350000Y503450D02*
D03*
X1412500Y529300D02*
D03*
Y503900D02*
D03*
X1350000Y528850D02*
D03*
X1095000Y414550D02*
D03*
X1096000Y465550D02*
D03*
X1095000Y439950D02*
D03*
X1157500Y415000D02*
D03*
Y440400D02*
D03*
Y465800D02*
D03*
X1095000Y503450D02*
D03*
X1157500Y529300D02*
D03*
Y503900D02*
D03*
X1095000Y528850D02*
D03*
X840000Y414550D02*
D03*
X841000Y465550D02*
D03*
X840000Y439950D02*
D03*
X902500Y415000D02*
D03*
Y440400D02*
D03*
Y465800D02*
D03*
X840000Y503450D02*
D03*
X902500Y529300D02*
D03*
Y503900D02*
D03*
X840000Y528850D02*
D03*
X585000Y414550D02*
D03*
X586000Y465550D02*
D03*
X585000Y439950D02*
D03*
X647500Y415000D02*
D03*
Y440400D02*
D03*
Y465800D02*
D03*
X585000Y503450D02*
D03*
X647500Y529300D02*
D03*
Y503900D02*
D03*
X585000Y528850D02*
D03*
X330000Y414550D02*
D03*
X331000Y465550D02*
D03*
X330000Y439950D02*
D03*
X392500Y415000D02*
D03*
Y440400D02*
D03*
Y465800D02*
D03*
X330000Y503450D02*
D03*
X392500Y529300D02*
D03*
Y503900D02*
D03*
X330000Y528850D02*
D03*
D16*
X1264000Y970000D02*
D03*
Y930000D02*
D03*
Y935000D02*
D03*
Y940000D02*
D03*
Y945000D02*
D03*
Y950000D02*
D03*
Y955000D02*
D03*
Y960000D02*
D03*
Y965000D02*
D03*
Y915000D02*
D03*
Y925000D02*
D03*
Y920000D02*
D03*
Y910000D02*
D03*
Y895000D02*
D03*
Y905000D02*
D03*
Y885000D02*
D03*
Y890000D02*
D03*
Y900000D02*
D03*
X1496000Y885000D02*
D03*
Y925000D02*
D03*
Y920000D02*
D03*
Y915000D02*
D03*
Y910000D02*
D03*
Y905000D02*
D03*
Y900000D02*
D03*
Y895000D02*
D03*
Y890000D02*
D03*
Y940000D02*
D03*
Y930000D02*
D03*
Y935000D02*
D03*
Y945000D02*
D03*
Y960000D02*
D03*
Y950000D02*
D03*
Y970000D02*
D03*
Y965000D02*
D03*
Y955000D02*
D03*
D17*
X1445000Y819000D02*
D03*
X1435000D02*
D03*
X1415000D02*
D03*
X1405000D02*
D03*
X1425000D02*
D03*
X1325000D02*
D03*
X1335000D02*
D03*
X1345000D02*
D03*
X1355000D02*
D03*
X1365000D02*
D03*
X1375000D02*
D03*
X1385000D02*
D03*
X1395000D02*
D03*
X1315000D02*
D03*
M02*
