M48
;Layer_Color=9474304
;FILE_FORMAT=4:4
METRIC,LZ
;TYPE=PLATED
T01F00S00C0.2000
T02F00S00C0.6000
;TYPE=NON_PLATED
T03F00S00C1.1520
%
T01
X00055795Y00081055
X0006089Y0008741
X00052755Y00099115
X0004989Y0011241
X0005089Y0012341
X00055554Y00127765
X0006689Y0012841
X0007289Y0012441
Y0013241
X0006789Y0011541
X0006114Y0011441
X0007064Y0010141
X00084772Y00091669
X0008464Y0007991
X00098072Y00081218
X0009989Y0009266
X0010789Y0009441
X0011039Y00088601
X00118302Y00076953
X0012514Y0007801
X00132222Y00085668
X0013239Y0010231
X0009789Y0010191
X0010014Y0011441
X00092265
X00108607Y00114483
X00115712Y0013161
X0012101Y0012836
X00126786Y0013161
X00132588Y00151837
X0013014Y0016066
X0011064Y0016066
X0010989Y0014741
X0007664Y0016016
X0005489Y0015241
X0004989Y00156874
X0017239
X0017739Y0015241
X00178054Y00127765
X0017339Y0012341
X0017239Y0011241
X0018364Y0011441
X0019039Y0011541
X0018939Y0012841
X0019539Y0012441
Y0013241
X0019914Y0016016
X0023314Y0016066
X0023239Y0014741
X00238212Y0013161
X0024351Y0012836
X00249286Y0013161
X00255088Y00151837
X0025264Y0016066
X0029489Y00156874
X0029989Y0015241
X00300554Y00127765
X0029589Y0012341
X0029489Y0011241
X0030614Y0011441
X0031289Y0011541
X0031189Y0012841
X0031789Y0012441
Y0013241
X0032164Y0016016
X0035564Y0016066
X0035489Y0014741
X00360712Y0013161
X0036601Y0012836
X00371786Y0013161
X00377588Y00151837
X0037514Y0016066
X0041739Y00156874
X0042239Y0015241
X00423054Y00127765
X0041839Y0012341
X0041739Y0011241
X0042864Y0011441
X0043539Y0011541
X0043439Y0012841
X0044039Y0012441
Y0013241
X0044414Y0016016
X0047814Y0016066
X0047739Y0014741
X00483212Y0013161
X0048851Y0012836
X00494286Y0013161
X00500088Y00151837
X0049764Y0016066
X0049989Y0010231
X00499722Y00085668
X0049264Y0007801
X00485802Y00076953
X0047789Y00088601
X0047539Y0009441
X0046739Y0009266
X0046539Y0010191
X0046764Y0011441
X00459765
X00476107Y00114483
X00465572Y00081218
X0045214Y0007991
X00452272Y00091669
X0043814Y0010141
X00420255Y00099115
X0042839Y0008741
X00423295Y00081055
X00377222Y00085668
X0037014Y0007801
X00363302Y00076953
X0035539Y00088601
X0035289Y0009441
X0034489Y0009266
X0034289Y0010191
X0034514Y0011441
X00337265
X00353607Y00114483
X0037739Y0010231
X00343072Y00081218
X0032964Y0007991
X00329772Y00091669
X0031564Y0010141
X00297755Y00099115
X0030589Y0008741
X00300795Y00081055
X00254722Y00085668
X0024764Y0007801
X00240802Y00076953
X0023289Y00088601
X0023039Y0009441
X0022239Y0009266
X0022039Y0010191
X0022264Y0011441
X00214765
X00231107Y00114483
X0025489Y0010231
X00220572Y00081218
X0020714Y0007991
X00207272Y00091669
X0019314Y0010141
X00175255Y00099115
X0018339Y0008741
X00178295Y00081055
X0018339Y0018241
Y0018841
X0017639
X0017239Y0021316
X0019314Y0021041
X0020639Y0020941
Y0020341
X0020739Y0019341
X0020639Y0018141
X0022164Y0017841
X00229881Y0018066
X0022439Y0018741
X0023139Y0019316
X0023211Y00204836
X00230086Y00209207
X0024039Y0019741
Y0018741
X00249361Y00180836
X0024764Y0023151
X00240802Y00230452
X0023289Y00242101
X0023039Y0024791
X0022239Y0024616
X0022039Y0025541
X0022264Y0026791
X00214765
X00231107Y00267983
X00238212Y0028511
X0024351Y0028186
X00249286Y0028511
X00255088Y00305337
X0025264Y0031416
X0023314Y0031416
X0023239Y0030091
X00229881Y0033416
X0022164Y0033191
X0022439Y0034091
X0023139Y0034666
X0023211Y00358336
X00230086Y00362707
X0024039Y0035091
Y0034091
X00249361Y00334336
X0020639Y0033491
X0020739Y0034691
X0020639Y0035691
Y0036291
X0019314Y0036391
X0017239Y0036666
X00178295Y00388055
X0018339Y0039441
X00175255Y00406115
X0017239Y0041941
X0017339Y0043041
X00178054Y00434765
X0018939Y0043541
X0019539Y0043141
Y0043941
X0019039Y0042241
X0018364Y0042141
X0019314Y0040841
X00207272Y00398669
X0020714Y0038691
X00220572Y00388218
X0022239Y0039966
X0023039Y0040141
X0023289Y00395601
X00240802Y00383952
X0024764Y0038501
X00254722Y00392668
X0025489Y0040931
X0022039Y0040891
X0022264Y0042141
X00214765
X00231107Y00421483
X00238212Y0043861
X0024351Y0043536
X00249286Y0043861
X00255088Y00458837
X0025264Y0046766
X0023314Y0046766
X0023239Y0045441
X00229881Y0048766
X0022164Y0048541
X0022439Y0049441
X0023139Y0050016
X0023211Y00511836
X00230086Y00516207
X0024039Y0050441
Y0049441
X00249361Y00487836
X0020639Y0048841
X0020739Y0050041
X0020639Y0051041
Y0051641
X0019314Y0051741
X0017239Y0052016
X0017639Y0049541
X0018339
Y0048941
X0017739Y0045941
X0017239Y00463874
X0019914Y0046716
X0029489Y00463874
X0029989Y0045941
X00300554Y00434765
X0029589Y0043041
X0029489Y0041941
X0030614Y0042141
X0031289Y0042241
X0031189Y0043541
X0031789Y0043141
Y0043941
X0032164Y0046716
X0032889Y0048841
X0032989Y0050041
X0032889Y0051041
Y0051641
X0031564Y0051741
X0029489Y0052016
X0029889Y0049541
X0030589
Y0048941
X0034414Y0048541
X00352381Y0048766
X0034689Y0049441
X0035389Y0050016
X0035461Y00511836
X00352586Y00516207
X0036289Y0050441
Y0049441
X00371861Y00487836
X0037514Y0046766
X00377588Y00458837
X00371786Y0043861
X0036601Y0043536
X00360712Y0043861
X0035489Y0045441
X0035564Y0046766
X00353607Y00421483
X0034514Y0042141
X00337265
X0034289Y0040891
X0034489Y0039966
X0035289Y0040141
X0035539Y00395601
X00363302Y00383952
X0037014Y0038501
X00377222Y00392668
X0037739Y0040931
X00420255Y00406115
X0041739Y0041941
X0041839Y0043041
X00423054Y00434765
X0043439Y0043541
X0044039Y0043141
Y0043941
X0043539Y0042241
X0042864Y0042141
X0043814Y0040841
X0042839Y0039441
X00423295Y00388055
X0041739Y0036666
X0043814Y0036391
X0045139Y0036291
Y0035691
X0045239Y0034691
X0045139Y0033491
X0046664Y0033191
X00474881Y0033416
X0046939Y0034091
X0047639Y0034666
X0047711Y00358336
X00475086Y00362707
X0048539Y0035091
Y0034091
X00494361Y00334336
X0049764Y0031416
X00500088Y00305337
X00494286Y0028511
X0048851Y0028186
X00483212Y0028511
X0047739Y0030091
X0047814Y0031416
X0044414Y0031366
X0042239Y0030591
X0041739Y00310374
X0041839Y0027691
X00423054Y00281265
X0043439Y0028191
X0044039Y0027791
Y0028591
X0043539Y0026891
X0042864Y0026791
X0041739Y0026591
X00420255Y00252615
X0042839Y0024091
X00423295Y00234555
X0041739Y0021316
X0043814Y0021041
X0045139Y0020941
Y0020341
X0045239Y0019341
X0045139Y0018141
X0046664Y0017841
X00474881Y0018066
X0046939Y0018741
X0047639Y0019316
X0047711Y00204836
X00475086Y00209207
X0048539Y0019741
Y0018741
X00494361Y00180836
X0049264Y0023151
X00485802Y00230452
X0047789Y00242101
X0047539Y0024791
X0046739Y0024616
X0046539Y0025541
X0046764Y0026791
X00459765
X00476107Y00267983
X0049989Y0025581
X00499722Y00239168
X00465572Y00234718
X0045214Y0023341
X00452272Y00245169
X0043814Y0025491
X0037739Y0025581
X00377222Y00239168
X0037014Y0023151
X00363302Y00230452
X0035539Y00242101
X0035289Y0024791
X0034489Y0024616
X0034289Y0025541
X0034514Y0026791
X00337265
X00353607Y00267983
X00360712Y0028511
X0036601Y0028186
X00371786Y0028511
X00377588Y00305337
X0037514Y0031416
X0035564Y0031416
X0035489Y0030091
X00352381Y0033416
X0034414Y0033191
X0034689Y0034091
X0035389Y0034666
X0035461Y00358336
X00352586Y00362707
X0036289Y0035091
Y0034091
X00371861Y00334336
X0032889Y0033491
X0032989Y0034691
X0032889Y0035691
Y0036291
X0031564Y0036391
X0029489Y0036666
X00300795Y00388055
X0030589Y0039441
X00297755Y00406115
X0031564Y0040841
X00329772Y00398669
X0032964Y0038691
X00343072Y00388218
X0030589Y0034191
Y0033591
X0029889Y0034191
X0029489Y00310374
X0029989Y0030591
X00300554Y00281265
X0029589Y0027691
X0029489Y0026591
X0030614Y0026791
X0031289Y0026891
X0031189Y0028191
X0031789Y0027791
Y0028591
X0032164Y0031366
X0031564Y0025491
X00297755Y00252615
X0030589Y0024091
X00300795Y00234555
X0029489Y0021316
X0031564Y0021041
X0032889Y0020941
Y0020341
X0032989Y0019341
X0032889Y0018141
X0034414Y0017841
X00352381Y0018066
X0034689Y0018741
X0035389Y0019316
X0035461Y00204836
X00352586Y00209207
X0036289Y0019741
Y0018741
X00371861Y00180836
X0042139Y0018841
X0042839
Y0018241
X0030589
Y0018841
X0029889
X0032964Y0023341
X00329772Y00245169
X00343072Y00234718
X00254722Y00239168
X0025489Y0025581
X00220572Y00234718
X0020714Y0023341
X00207272Y00245169
X0019314Y0025491
X0019039Y0026891
X0018364Y0026791
X0017239Y0026591
X0017339Y0027691
X00178054Y00281265
X0018939Y0028191
X0019539Y0027791
Y0028591
X0019914Y0031366
X0017739Y0030591
X0017239Y00310374
X0017639Y0034191
X0018339
Y0033591
X00175255Y00252615
X0018339Y0024091
X00178295Y00234555
X0042139Y0034191
X0042839
Y0033591
X0045214Y0038691
X00452272Y00398669
X0046739Y0039966
X0047539Y0040141
X0047789Y00395601
X00485802Y00383952
X0049264Y0038501
X00499722Y00392668
X0049989Y0040931
X0046539Y0040891
X0046764Y0042141
X00459765
X00476107Y00421483
X00483212Y0043861
X0048851Y0043536
X00494286Y0043861
X00500088Y00458837
X0049764Y0046766
X0047814Y0046766
X0047739Y0045441
X00474881Y0048766
X0046664Y0048541
X0046939Y0049441
X0047639Y0050016
X0047711Y00511836
X00475086Y00516207
X0048539Y0050441
Y0049441
X00494361Y00487836
X0045139Y0048841
X0045239Y0050041
X0045139Y0051041
Y0051641
X0043814Y0051741
X0041739Y0052016
X0042139Y0049541
X0042839
Y0048941
X0042239Y0045941
X0041739Y00463874
X0044414Y0046716
X00465572Y00388218
X00132222Y00392668
X0012514Y0038501
X00118302Y00383952
X0011039Y00395601
X0010789Y0040141
X0009989Y0039966
X0009789Y0040891
X0010014Y0042141
X00092265
X00108607Y00421483
X00115712Y0043861
X0012101Y0043536
X00126786Y0043861
X00132588Y00458837
X0013014Y0046766
X0011064Y0046766
X0010989Y0045441
X00107381Y0048766
X0009914Y0048541
X0010189Y0049441
X0010889Y0050016
X0010961Y00511836
X00107586Y00516207
X0011789Y0050441
Y0049441
X00126861Y00487836
X0008389Y0048841
X0008489Y0050041
X0008389Y0051041
Y0051641
X0007064Y0051741
X0004989Y0052016
X0005389Y0049541
X0006089
Y0048941
X0005489Y0045941
X0004989Y00463874
X0007664Y0046716
X0007289Y0043941
Y0043141
X0006689Y0043541
X00055554Y00434765
X0005089Y0043041
X0004989Y0041941
X0006114Y0042141
X0006789Y0042241
X0007064Y0040841
X00052755Y00406115
X0006089Y0039441
X00055795Y00388055
X0004989Y0036666
X0007064Y0036391
X0008389Y0036291
Y0035691
X0008489Y0034691
X0008389Y0033491
X0009914Y0033191
X00107381Y0033416
X0010189Y0034091
X0010889Y0034666
X0010961Y00358336
X00107586Y00362707
X0011789Y0035091
Y0034091
X00126861Y00334336
X0013014Y0031416
X00132588Y00305337
X00126786Y0028511
X0012101Y0028186
X00115712Y0028511
X0010989Y0030091
X0011064Y0031416
X0007664Y0031366
X0005489Y0030591
X0004989Y00310374
X0005089Y0027691
X00055554Y00281265
X0006689Y0028191
X0007289Y0027791
Y0028591
X0006789Y0026891
X0006114Y0026791
X0004989Y0026591
X00052755Y00252615
X0006089Y0024091
X00055795Y00234555
X0004989Y0021316
X0007064Y0021041
X0008389Y0020941
Y0020341
X0008489Y0019341
X0008389Y0018141
X0009914Y0017841
X00107381Y0018066
X0010189Y0018741
X0010889Y0019316
X0010961Y00204836
X00107586Y00209207
X0011789Y0019741
Y0018741
X00126861Y00180836
X0012514Y0023151
X00118302Y00230452
X0011039Y00242101
X0010789Y0024791
X0009989Y0024616
X0009789Y0025541
X0010014Y0026791
X00092265
X00108607Y00267983
X0013239Y0025581
X00132222Y00239168
X00098072Y00234718
X0008464Y0023341
X00084772Y00245169
X0007064Y0025491
X0006089Y0018841
Y0018241
X0005389Y0018841
Y0034191
X0006089
Y0033591
X0008464Y0038691
X00084772Y00398669
X00098072Y00388218
X0013239Y0040931
T02
X0003989Y0007991
Y0009261
Y0010531
Y0011801
Y0013071
Y0014341
Y0015611
Y0016881
X0014239
Y0015611
Y0014341
Y0013071
Y0011801
Y0010531
Y0009261
Y0007991
X0016239
Y0009261
Y0010531
Y0011801
Y0013071
Y0014341
Y0015611
Y0016881
X0026489
Y0015611
Y0014341
Y0013071
Y0011801
Y0010531
Y0009261
Y0007991
X0028489
Y0009261
Y0010531
Y0011801
Y0013071
Y0014341
Y0015611
Y0016881
X0038739
Y0015611
Y0014341
Y0013071
Y0011801
Y0010531
Y0009261
Y0007991
X0040739
Y0009261
Y0010531
Y0011801
Y0013071
Y0014341
Y0015611
Y0016881
X0050989
Y0015611
Y0014341
Y0013071
Y0011801
Y0010531
Y0009261
Y0007991
Y0018151
Y0019421
Y0020691
Y0023341
Y0024611
Y0025881
Y0027151
Y0028421
Y0029691
Y0030961
Y0032231
Y0033501
Y0034771
Y0036041
Y0038691
Y0039961
Y0041231
Y0042501
Y0043771
Y0045041
Y0046311
Y0047581
Y0048851
Y0050121
Y0051391
X0040739
Y0050121
Y0048851
Y0047581
Y0046311
Y0045041
Y0043771
Y0042501
Y0041231
Y0039961
Y0038691
X0038739
Y0039961
Y0041231
Y0042501
Y0043771
Y0045041
Y0046311
Y0047581
Y0048851
Y0050121
Y0051391
X0028489
Y0050121
Y0048851
Y0047581
Y0046311
Y0045041
Y0043771
Y0042501
Y0041231
Y0039961
Y0038691
X0026489
Y0039961
Y0041231
Y0042501
Y0043771
Y0045041
Y0046311
Y0047581
Y0048851
Y0050121
Y0051391
X0016239
Y0050121
Y0048851
Y0047581
Y0046311
Y0045041
Y0043771
Y0042501
Y0041231
Y0039961
Y0038691
X0014239
Y0039961
Y0041231
Y0042501
Y0043771
Y0045041
Y0046311
Y0047581
Y0048851
Y0050121
Y0051391
Y0036041
Y0034771
Y0033501
Y0032231
Y0030961
Y0029691
Y0028421
Y0027151
Y0025881
Y0024611
Y0023341
X0016239
Y0024611
Y0025881
Y0027151
Y0028421
Y0029691
Y0030961
Y0032231
Y0033501
Y0034771
Y0036041
X0026489
Y0034771
Y0033501
Y0032231
Y0030961
Y0029691
Y0028421
Y0027151
Y0025881
Y0024611
Y0023341
X0028489
Y0024611
Y0025881
Y0027151
Y0028421
Y0029691
Y0030961
Y0032231
Y0033501
Y0034771
Y0036041
X0038739
Y0034771
Y0033501
Y0032231
Y0030961
Y0029691
Y0028421
Y0027151
Y0025881
Y0024611
Y0023341
X0040739
Y0024611
Y0025881
Y0027151
Y0028421
Y0029691
Y0030961
Y0032231
Y0033501
Y0034771
Y0036041
Y0020691
Y0019421
Y0018151
X0038739
Y0019421
Y0020691
X0028489
Y0019421
Y0018151
X0026489
Y0019421
Y0020691
X0016239
Y0019421
Y0018151
X0014239
Y0019421
Y0020691
X0003989
Y0019421
Y0018151
Y0023341
Y0024611
Y0025881
Y0027151
Y0028421
Y0029691
Y0030961
Y0032231
Y0033501
Y0034771
Y0036041
Y0038691
Y0039961
Y0041231
Y0042501
Y0043771
Y0045041
Y0046311
Y0047581
Y0048851
Y0050121
Y0051391
T03
X0002Y0003
X0053
Y0056
X0002
M30
