G04*
G04 #@! TF.GenerationSoftware,Altium Limited,Altium Designer,25.0.2 (28)*
G04*
G04 Layer_Color=255*
%FSLAX44Y44*%
%MOMM*%
G71*
G04*
G04 #@! TF.SameCoordinates,03372A04-C462-4CF8-ACA0-C5B6D0AAF50A*
G04*
G04*
G04 #@! TF.FilePolarity,Positive*
G04*
G01*
G75*
%ADD15R,0.3000X0.7000*%
%ADD16R,0.3000X1.0000*%
%ADD17R,0.3500X0.3500*%
%ADD18R,1.3000X2.7000*%
%ADD19C,4.5000*%
%ADD20O,2.5000X1.7500*%
%ADD21R,1.5200X1.5200*%
%ADD22C,1.5200*%
%ADD23C,2.3000*%
%ADD24R,1.5200X1.5200*%
%ADD25C,2.0000*%
%ADD26C,0.6497*%
G04:AMPARAMS|DCode=27|XSize=0.85mm|YSize=0.4mm|CornerRadius=0.1mm|HoleSize=0mm|Usage=FLASHONLY|Rotation=180.000|XOffset=0mm|YOffset=0mm|HoleType=Round|Shape=RoundedRectangle|*
%AMROUNDEDRECTD27*
21,1,0.8500,0.2000,0,0,180.0*
21,1,0.6500,0.4000,0,0,180.0*
1,1,0.2000,-0.3250,0.1000*
1,1,0.2000,0.3250,0.1000*
1,1,0.2000,0.3250,-0.1000*
1,1,0.2000,-0.3250,-0.1000*
%
%ADD27ROUNDEDRECTD27*%
G04:AMPARAMS|DCode=28|XSize=0.85mm|YSize=1.5mm|CornerRadius=0.102mm|HoleSize=0mm|Usage=FLASHONLY|Rotation=180.000|XOffset=0mm|YOffset=0mm|HoleType=Round|Shape=RoundedRectangle|*
%AMROUNDEDRECTD28*
21,1,0.8500,1.2960,0,0,180.0*
21,1,0.6460,1.5000,0,0,180.0*
1,1,0.2040,-0.3230,0.6480*
1,1,0.2040,0.3230,0.6480*
1,1,0.2040,0.3230,-0.6480*
1,1,0.2040,-0.3230,-0.6480*
%
%ADD28ROUNDEDRECTD28*%
G04:AMPARAMS|DCode=29|XSize=0.85mm|YSize=0.7mm|CornerRadius=0.1015mm|HoleSize=0mm|Usage=FLASHONLY|Rotation=180.000|XOffset=0mm|YOffset=0mm|HoleType=Round|Shape=RoundedRectangle|*
%AMROUNDEDRECTD29*
21,1,0.8500,0.4970,0,0,180.0*
21,1,0.6470,0.7000,0,0,180.0*
1,1,0.2030,-0.3235,0.2485*
1,1,0.2030,0.3235,0.2485*
1,1,0.2030,0.3235,-0.2485*
1,1,0.2030,-0.3235,-0.2485*
%
%ADD29ROUNDEDRECTD29*%
D15*
X222500Y35250D02*
D03*
X227500D02*
D03*
X232500D02*
D03*
X237500D02*
D03*
X242500D02*
D03*
X247500D02*
D03*
X252500D02*
D03*
X257500D02*
D03*
X262500D02*
D03*
X267500D02*
D03*
X272500D02*
D03*
X277500D02*
D03*
X282500D02*
D03*
X287500D02*
D03*
X292500D02*
D03*
X297500D02*
D03*
X302500D02*
D03*
X307500D02*
D03*
X312500D02*
D03*
X317500D02*
D03*
X322500D02*
D03*
X327500D02*
D03*
X332500D02*
D03*
X337500D02*
D03*
D16*
X214600Y8750D02*
D03*
X345400D02*
D03*
D17*
X243250Y55000D02*
D03*
X248750D02*
D03*
X231250D02*
D03*
X236750D02*
D03*
D18*
X324000Y290000D02*
D03*
X296000D02*
D03*
X324000Y370000D02*
D03*
X296000D02*
D03*
D19*
X530000Y460000D02*
D03*
Y30000D02*
D03*
X30000Y460000D02*
D03*
Y30000D02*
D03*
D20*
X40000Y105700D02*
D03*
Y80300D02*
D03*
X520000Y377300D02*
D03*
Y402700D02*
D03*
X520000Y247300D02*
D03*
Y272700D02*
D03*
D21*
X70000Y190000D02*
D03*
Y290000D02*
D03*
X70000Y390000D02*
D03*
X460000Y272700D02*
D03*
X129000Y27300D02*
D03*
X270000Y320000D02*
D03*
D22*
X70000Y164600D02*
D03*
Y264600D02*
D03*
X70000Y364600D02*
D03*
X460000Y247300D02*
D03*
X437300Y410000D02*
D03*
X462700Y370000D02*
D03*
X129000Y52700D02*
D03*
X270000Y294600D02*
D03*
X266468Y151868D02*
D03*
D23*
X130000Y190000D02*
D03*
X104600Y215400D02*
D03*
Y164600D02*
D03*
X155400D02*
D03*
Y215400D02*
D03*
X130000Y290000D02*
D03*
X104600Y264600D02*
D03*
X155400D02*
D03*
Y315400D02*
D03*
X104600D02*
D03*
X130000Y390000D02*
D03*
X104600Y415400D02*
D03*
Y364600D02*
D03*
X155400D02*
D03*
Y415400D02*
D03*
X291868Y211868D02*
D03*
X266468Y237268D02*
D03*
Y186468D02*
D03*
X317268D02*
D03*
Y237268D02*
D03*
D24*
X462700Y410000D02*
D03*
X437300Y370000D02*
D03*
X291868Y151868D02*
D03*
D25*
X130000Y110000D02*
D03*
X104600D02*
D03*
X155400D02*
D03*
D26*
X308453Y347391D02*
D03*
D27*
X297750Y314000D02*
D03*
Y322000D02*
D03*
Y330000D02*
D03*
Y338000D02*
D03*
X322250Y322000D02*
D03*
D28*
Y343500D02*
D03*
D29*
Y312500D02*
D03*
M02*
