G04*
G04 #@! TF.GenerationSoftware,Altium Limited,Altium Designer,25.0.2 (28)*
G04*
G04 Layer_Color=8388736*
%FSLAX44Y44*%
%MOMM*%
G71*
G04*
G04 #@! TF.SameCoordinates,03372A04-C462-4CF8-ACA0-C5B6D0AAF50A*
G04*
G04*
G04 #@! TF.FilePolarity,Negative*
G04*
G01*
G75*
%ADD15R,0.3000X0.7000*%
%ADD16R,0.3000X1.0000*%
%ADD17R,0.3500X0.3500*%
%ADD18R,1.3000X2.7000*%
%ADD19C,4.5000*%
%ADD20O,2.5000X1.7500*%
%ADD21R,1.5200X1.5200*%
%ADD22C,1.5200*%
%ADD23C,2.3000*%
%ADD24R,1.5200X1.5200*%
%ADD25C,2.0000*%
G36*
X446604Y477087D02*
X446652D01*
Y476848D01*
X446604D01*
Y476657D01*
X446557D01*
Y476371D01*
X446509D01*
Y476132D01*
X446461D01*
Y475941D01*
X446413D01*
Y475655D01*
X446366D01*
Y475464D01*
X446318D01*
Y475178D01*
X446270D01*
Y474939D01*
X446223D01*
Y474748D01*
X446175D01*
Y474462D01*
X446127D01*
Y474271D01*
X446080D01*
Y473937D01*
X446032D01*
Y473793D01*
X445984D01*
Y473651D01*
X445936D01*
Y473603D01*
X443264D01*
Y473651D01*
X443216D01*
Y473937D01*
X443264D01*
Y474128D01*
X443311D01*
Y474414D01*
X443359D01*
Y474605D01*
X443407D01*
Y474844D01*
X443455D01*
Y475130D01*
X443502D01*
Y475273D01*
X443550D01*
Y475607D01*
X443598D01*
Y475798D01*
X443645D01*
Y476037D01*
X443693D01*
Y476275D01*
X443741D01*
Y476466D01*
X443788D01*
Y476800D01*
X443836D01*
Y476944D01*
X443884D01*
Y477087D01*
X443932D01*
Y477135D01*
X446604D01*
Y477087D01*
D02*
G37*
G36*
X419447D02*
X419495D01*
Y476848D01*
X419447D01*
Y476657D01*
X419399D01*
Y476371D01*
X419351D01*
Y476180D01*
X419304D01*
Y475941D01*
X419256D01*
Y475655D01*
X419208D01*
Y475464D01*
X419160D01*
Y475178D01*
X419113D01*
Y474987D01*
X419065D01*
Y474700D01*
X419017D01*
Y474462D01*
X418970D01*
Y474271D01*
X418922D01*
Y473937D01*
X418874D01*
Y473793D01*
X418826D01*
Y473651D01*
X418779D01*
Y473603D01*
X416106D01*
Y473651D01*
X416058D01*
Y473937D01*
X416106D01*
Y474128D01*
X416154D01*
Y474366D01*
X416201D01*
Y474653D01*
X416249D01*
Y474796D01*
X416297D01*
Y475130D01*
X416345D01*
Y475321D01*
X416392D01*
Y475607D01*
X416440D01*
Y475798D01*
X416488D01*
Y475989D01*
X416535D01*
Y476323D01*
X416583D01*
Y476466D01*
X416631D01*
Y476800D01*
X416679D01*
Y476992D01*
X416726D01*
Y477087D01*
X416774D01*
Y477135D01*
X419447D01*
Y477087D01*
D02*
G37*
G36*
X412001D02*
X412049D01*
Y476848D01*
X412001D01*
Y476657D01*
X411954D01*
Y476371D01*
X411906D01*
Y476180D01*
X411858D01*
Y475941D01*
X411810D01*
Y475655D01*
X411763D01*
Y475512D01*
X411715D01*
Y475178D01*
X411667D01*
Y474987D01*
X411619D01*
Y474700D01*
X411572D01*
Y474462D01*
X411524D01*
Y474271D01*
X411476D01*
Y473984D01*
X411428D01*
Y473793D01*
X411381D01*
Y473651D01*
X411333D01*
Y473603D01*
X408660D01*
Y473651D01*
X408613D01*
Y473937D01*
X408660D01*
Y474128D01*
X408708D01*
Y474366D01*
X408756D01*
Y474653D01*
X408803D01*
Y474796D01*
X408851D01*
Y475130D01*
X408899D01*
Y475321D01*
X408947D01*
Y475607D01*
X408994D01*
Y475798D01*
X409042D01*
Y475989D01*
X409090D01*
Y476323D01*
X409138D01*
Y476466D01*
X409185D01*
Y476800D01*
X409233D01*
Y476992D01*
X409281D01*
Y477087D01*
X409328D01*
Y477135D01*
X412001D01*
Y477087D01*
D02*
G37*
G36*
X434291Y468543D02*
X434815D01*
Y468496D01*
X435054D01*
Y468448D01*
X435245D01*
Y468400D01*
X435484D01*
Y468353D01*
X435579D01*
Y468305D01*
X435770D01*
Y468257D01*
X435866D01*
Y468209D01*
X436009D01*
Y468162D01*
X436152D01*
Y468114D01*
X436200D01*
Y468066D01*
X436343D01*
Y468018D01*
X436391D01*
Y467971D01*
X436534D01*
Y467923D01*
X436581D01*
Y467875D01*
X436677D01*
Y467827D01*
X436772D01*
Y467780D01*
X436820D01*
Y467732D01*
X436916D01*
Y467684D01*
X436963D01*
Y467636D01*
X437059D01*
Y467589D01*
X437107D01*
Y467541D01*
X437154D01*
Y467493D01*
X437250D01*
Y467398D01*
X437345D01*
Y467350D01*
X437393D01*
Y467302D01*
X437441D01*
Y467255D01*
X437488D01*
Y467207D01*
X437536D01*
Y467159D01*
X437584D01*
Y467112D01*
X437632D01*
Y467064D01*
X437679D01*
Y467016D01*
X437727D01*
Y466968D01*
X437775D01*
Y466921D01*
X437822D01*
Y466873D01*
X437870D01*
Y466825D01*
X437918D01*
Y466730D01*
X437870D01*
Y466682D01*
X437822D01*
Y466634D01*
X437775D01*
Y466587D01*
X437727D01*
Y466539D01*
X437679D01*
Y466491D01*
X437584D01*
Y466443D01*
X437536D01*
Y466396D01*
X437488D01*
Y466348D01*
X437441D01*
Y466300D01*
X437393D01*
Y466252D01*
X437345D01*
Y466205D01*
X437297D01*
Y466157D01*
X437250D01*
Y466109D01*
X437154D01*
Y466062D01*
X437107D01*
Y466014D01*
X437059D01*
Y465966D01*
X437011D01*
Y465918D01*
X436963D01*
Y465871D01*
X436916D01*
Y465823D01*
X436868D01*
Y465775D01*
X436820D01*
Y465727D01*
X436772D01*
Y465680D01*
X436677D01*
Y465632D01*
X436629D01*
Y465584D01*
X436581D01*
Y465536D01*
X436534D01*
Y465489D01*
X436486D01*
Y465441D01*
X436438D01*
Y465393D01*
X436391D01*
Y465346D01*
X436343D01*
Y465298D01*
X436247D01*
Y465250D01*
X436200D01*
Y465202D01*
X436152D01*
Y465155D01*
X436104D01*
Y465107D01*
X436057D01*
Y465059D01*
X436009D01*
Y465011D01*
X435961D01*
Y464964D01*
X435913D01*
Y464916D01*
X435866D01*
Y464868D01*
X435770D01*
Y464773D01*
X435627D01*
Y464821D01*
X435579D01*
Y464868D01*
X435531D01*
Y464964D01*
X435484D01*
Y465011D01*
X435436D01*
Y465059D01*
X435388D01*
Y465107D01*
X435341D01*
Y465155D01*
X435293D01*
Y465202D01*
X435245D01*
Y465250D01*
X435197D01*
Y465298D01*
X435150D01*
Y465346D01*
X435102D01*
Y465393D01*
X435054D01*
Y465441D01*
X434959D01*
Y465489D01*
X434911D01*
Y465536D01*
X434815D01*
Y465584D01*
X434768D01*
Y465632D01*
X434720D01*
Y465680D01*
X434577D01*
Y465727D01*
X434529D01*
Y465775D01*
X434434D01*
Y465823D01*
X434338D01*
Y465871D01*
X434195D01*
Y465918D01*
X434052D01*
Y465966D01*
X433956D01*
Y466014D01*
X433670D01*
Y466062D01*
X433479D01*
Y466109D01*
X432429D01*
Y466062D01*
X432191D01*
Y466014D01*
X431904D01*
Y465966D01*
X431761D01*
Y465918D01*
X431570D01*
Y465871D01*
X431427D01*
Y465823D01*
X431331D01*
Y465775D01*
X431141D01*
Y465727D01*
X431093D01*
Y465680D01*
X430950D01*
Y465632D01*
X430854D01*
Y465584D01*
X430759D01*
Y465536D01*
X430663D01*
Y465489D01*
X430615D01*
Y465441D01*
X430472D01*
Y465393D01*
X430424D01*
Y465346D01*
X430329D01*
Y465298D01*
X430281D01*
Y465250D01*
X430186D01*
Y465202D01*
X430138D01*
Y465155D01*
X430090D01*
Y465107D01*
X429995D01*
Y465059D01*
X429947D01*
Y465011D01*
X429852D01*
Y464964D01*
X429804D01*
Y464916D01*
X429756D01*
Y464868D01*
X429709D01*
Y464821D01*
X429661D01*
Y464773D01*
X429613D01*
Y464725D01*
X429518D01*
Y464677D01*
X429470D01*
Y464630D01*
X429422D01*
Y464582D01*
X429375D01*
Y464534D01*
X429327D01*
Y464487D01*
X429279D01*
Y464439D01*
X429231D01*
Y464391D01*
X429184D01*
Y464343D01*
X429136D01*
Y464248D01*
X429088D01*
Y464200D01*
X429040D01*
Y464152D01*
X428993D01*
Y464105D01*
X428945D01*
Y464057D01*
X428897D01*
Y463961D01*
X428849D01*
Y463914D01*
X428802D01*
Y463866D01*
X428754D01*
Y463818D01*
X428706D01*
Y463723D01*
X428659D01*
Y463675D01*
X428611D01*
Y463627D01*
X428563D01*
Y463532D01*
X428515D01*
Y463484D01*
X428468D01*
Y463389D01*
X428420D01*
Y463293D01*
X428372D01*
Y463246D01*
X428325D01*
Y463150D01*
X428277D01*
Y463055D01*
X428229D01*
Y462959D01*
X428181D01*
Y462864D01*
X428134D01*
Y462816D01*
X428086D01*
Y462673D01*
X428038D01*
Y462625D01*
X427990D01*
Y462482D01*
X427943D01*
Y462386D01*
X427895D01*
Y462243D01*
X427847D01*
Y462100D01*
X427799D01*
Y462052D01*
X427752D01*
Y461861D01*
X427704D01*
Y461718D01*
X427656D01*
Y461575D01*
X427608D01*
Y461384D01*
X427561D01*
Y461241D01*
X427513D01*
Y460955D01*
X427465D01*
Y460811D01*
X427417D01*
Y460477D01*
X427370D01*
Y460286D01*
X427322D01*
Y460048D01*
X427275D01*
Y459761D01*
X427227D01*
Y459618D01*
X427179D01*
Y459284D01*
X427131D01*
Y459093D01*
X427084D01*
Y458807D01*
X427036D01*
Y458568D01*
X426988D01*
Y458425D01*
X426940D01*
Y458091D01*
X426893D01*
Y457900D01*
X426845D01*
Y457613D01*
X426797D01*
Y457422D01*
X426749D01*
Y457184D01*
X426702D01*
Y456898D01*
X426654D01*
Y456707D01*
X426606D01*
Y456420D01*
X426558D01*
Y456230D01*
X426511D01*
Y455943D01*
X426463D01*
Y455704D01*
X426415D01*
Y455514D01*
X426368D01*
Y455179D01*
X426320D01*
Y455036D01*
X426272D01*
Y454702D01*
X426224D01*
Y454511D01*
X426177D01*
Y454320D01*
X426129D01*
Y453986D01*
X426081D01*
Y453843D01*
X426034D01*
Y453509D01*
X425986D01*
Y453318D01*
X425938D01*
Y453079D01*
X425890D01*
Y452841D01*
X425843D01*
Y452650D01*
X425795D01*
Y452316D01*
X425747D01*
Y452172D01*
X425699D01*
Y451838D01*
X425652D01*
Y451647D01*
X425604D01*
Y451409D01*
X425556D01*
Y451122D01*
X425508D01*
Y450979D01*
X425461D01*
Y450645D01*
X425413D01*
Y450454D01*
X425365D01*
Y450168D01*
X425318D01*
Y449929D01*
X425270D01*
Y449738D01*
X425222D01*
Y449452D01*
X425174D01*
Y449261D01*
X425127D01*
Y449213D01*
X425079D01*
Y449166D01*
X422406D01*
Y449213D01*
X422358D01*
Y449404D01*
X422406D01*
Y449595D01*
X422454D01*
Y449834D01*
X422502D01*
Y450120D01*
X422549D01*
Y450263D01*
X422597D01*
Y450597D01*
X422645D01*
Y450788D01*
X422692D01*
Y451075D01*
X422740D01*
Y451313D01*
X422788D01*
Y451504D01*
X422836D01*
Y451791D01*
X422883D01*
Y451982D01*
X422931D01*
Y452316D01*
X422979D01*
Y452459D01*
X423027D01*
Y452697D01*
X423074D01*
Y452984D01*
X423122D01*
Y453175D01*
X423170D01*
Y453509D01*
X423218D01*
Y453652D01*
X423265D01*
Y453938D01*
X423313D01*
Y454177D01*
X423361D01*
Y454368D01*
X423408D01*
Y454702D01*
X423456D01*
Y454845D01*
X423504D01*
Y455179D01*
X423552D01*
Y455370D01*
X423599D01*
Y455609D01*
X423647D01*
Y455895D01*
X423695D01*
Y456039D01*
X423743D01*
Y456373D01*
X423790D01*
Y456516D01*
X423838D01*
Y456850D01*
X423886D01*
Y457041D01*
X423933D01*
Y457232D01*
X423981D01*
Y457566D01*
X424029D01*
Y457709D01*
X424077D01*
Y458043D01*
X424124D01*
Y458234D01*
X424172D01*
Y458473D01*
X424220D01*
Y458759D01*
X424268D01*
Y458902D01*
X424315D01*
Y459236D01*
X424363D01*
Y459427D01*
X424411D01*
Y459714D01*
X424458D01*
Y459952D01*
X424506D01*
Y460143D01*
X424554D01*
Y460429D01*
X424602D01*
Y460620D01*
X424649D01*
Y460955D01*
X424697D01*
Y461098D01*
X424745D01*
Y461336D01*
X424793D01*
Y461623D01*
X424840D01*
Y461814D01*
X424888D01*
Y462148D01*
X424936D01*
Y462291D01*
X424983D01*
Y462577D01*
X425031D01*
Y462816D01*
X425079D01*
Y463007D01*
X425127D01*
Y463341D01*
X425174D01*
Y463484D01*
X425222D01*
Y463818D01*
X425270D01*
Y464009D01*
X425318D01*
Y464248D01*
X425365D01*
Y464534D01*
X425413D01*
Y464677D01*
X425461D01*
Y465011D01*
X425508D01*
Y465202D01*
X425556D01*
Y465489D01*
X425604D01*
Y465680D01*
X425652D01*
Y465871D01*
X425699D01*
Y466205D01*
X425747D01*
Y466348D01*
X425795D01*
Y466682D01*
X425843D01*
Y466873D01*
X425890D01*
Y467112D01*
X425938D01*
Y467398D01*
X425986D01*
Y467541D01*
X426034D01*
Y467875D01*
X426081D01*
Y468066D01*
X426129D01*
Y468305D01*
X426177D01*
Y468353D01*
X428897D01*
Y468114D01*
X428849D01*
Y467923D01*
X428802D01*
Y467684D01*
X428754D01*
Y467446D01*
X428706D01*
Y467255D01*
X428659D01*
Y466921D01*
X428611D01*
Y466777D01*
X428563D01*
Y466491D01*
X428515D01*
Y466300D01*
X428563D01*
Y466348D01*
X428659D01*
Y466396D01*
X428706D01*
Y466491D01*
X428754D01*
Y466539D01*
X428802D01*
Y466587D01*
X428849D01*
Y466634D01*
X428897D01*
Y466682D01*
X428945D01*
Y466730D01*
X428993D01*
Y466777D01*
X429040D01*
Y466825D01*
X429088D01*
Y466873D01*
X429136D01*
Y466921D01*
X429184D01*
Y466968D01*
X429231D01*
Y467016D01*
X429327D01*
Y467064D01*
X429375D01*
Y467112D01*
X429422D01*
Y467159D01*
X429470D01*
Y467207D01*
X429518D01*
Y467255D01*
X429613D01*
Y467302D01*
X429661D01*
Y467350D01*
X429709D01*
Y467398D01*
X429804D01*
Y467446D01*
X429852D01*
Y467493D01*
X429947D01*
Y467541D01*
X430043D01*
Y467589D01*
X430090D01*
Y467636D01*
X430186D01*
Y467684D01*
X430233D01*
Y467732D01*
X430377D01*
Y467780D01*
X430424D01*
Y467827D01*
X430520D01*
Y467875D01*
X430615D01*
Y467923D01*
X430711D01*
Y467971D01*
X430854D01*
Y468018D01*
X430902D01*
Y468066D01*
X431093D01*
Y468114D01*
X431141D01*
Y468162D01*
X431283D01*
Y468209D01*
X431474D01*
Y468257D01*
X431570D01*
Y468305D01*
X431761D01*
Y468353D01*
X431904D01*
Y468400D01*
X432143D01*
Y468448D01*
X432381D01*
Y468496D01*
X432620D01*
Y468543D01*
X433193D01*
Y468591D01*
X434291D01*
Y468543D01*
D02*
G37*
G36*
X382123Y477087D02*
X382171D01*
Y476800D01*
X382123D01*
Y476609D01*
X382076D01*
Y476371D01*
X382028D01*
Y476132D01*
X381980D01*
Y475941D01*
X381932D01*
Y475607D01*
X381884D01*
Y475464D01*
X381837D01*
Y475178D01*
X381789D01*
Y474939D01*
X381741D01*
Y474748D01*
X381693D01*
Y474462D01*
X381646D01*
Y474271D01*
X381598D01*
Y473984D01*
X381550D01*
Y473793D01*
X381503D01*
Y473555D01*
X381455D01*
Y473269D01*
X381407D01*
Y473078D01*
X381359D01*
Y472791D01*
X381312D01*
Y472600D01*
X381264D01*
Y472314D01*
X381216D01*
Y472075D01*
X381169D01*
Y471884D01*
X381121D01*
Y471598D01*
X381073D01*
Y471407D01*
X381025D01*
Y471121D01*
X380978D01*
Y470930D01*
X380930D01*
Y470691D01*
X380882D01*
Y470405D01*
X380835D01*
Y470262D01*
X380787D01*
Y469928D01*
X380739D01*
Y469737D01*
X380691D01*
Y469450D01*
X380644D01*
Y469259D01*
X380596D01*
Y469068D01*
X380548D01*
Y468734D01*
X380500D01*
Y468591D01*
X380452D01*
Y468257D01*
X380405D01*
Y468066D01*
X380357D01*
Y467827D01*
X380309D01*
Y467589D01*
X380262D01*
Y467398D01*
X380214D01*
Y467064D01*
X380166D01*
Y466921D01*
X380118D01*
Y466587D01*
X380071D01*
Y466396D01*
X380023D01*
Y466205D01*
X379975D01*
Y465871D01*
X379928D01*
Y465727D01*
X379880D01*
Y465393D01*
X379832D01*
Y465202D01*
X379784D01*
Y464964D01*
X379737D01*
Y464725D01*
X379689D01*
Y464534D01*
X379641D01*
Y464200D01*
X379594D01*
Y464057D01*
X379546D01*
Y463770D01*
X379498D01*
Y463532D01*
X379450D01*
Y463341D01*
X379403D01*
Y463055D01*
X379355D01*
Y462864D01*
X379307D01*
Y462577D01*
X379259D01*
Y462386D01*
X379212D01*
Y462148D01*
X379164D01*
Y461861D01*
X379116D01*
Y461670D01*
X379068D01*
Y461384D01*
X379021D01*
Y461193D01*
X378973D01*
Y460907D01*
X378925D01*
Y460716D01*
X378878D01*
Y460477D01*
X378830D01*
Y460191D01*
X378782D01*
Y460000D01*
X378734D01*
Y459714D01*
X378686D01*
Y459523D01*
X378639D01*
Y459284D01*
X378591D01*
Y458998D01*
X378544D01*
Y458854D01*
X378496D01*
Y458520D01*
X378448D01*
Y458330D01*
X378400D01*
Y458043D01*
X378353D01*
Y457852D01*
X378305D01*
Y457661D01*
X378257D01*
Y457327D01*
X378209D01*
Y457184D01*
X378162D01*
Y456850D01*
X378114D01*
Y456659D01*
X378066D01*
Y456420D01*
X378018D01*
Y456182D01*
X377971D01*
Y455991D01*
X377923D01*
Y455657D01*
X377875D01*
Y455514D01*
X377827D01*
Y455227D01*
X377780D01*
Y454989D01*
X377732D01*
Y454798D01*
X377684D01*
Y454464D01*
X377637D01*
Y454320D01*
X377589D01*
Y453986D01*
X377541D01*
Y453843D01*
X377493D01*
Y453557D01*
X377446D01*
Y453318D01*
X377398D01*
Y453127D01*
X377350D01*
Y452793D01*
X377303D01*
Y452650D01*
X377255D01*
Y452363D01*
X377207D01*
Y452125D01*
X377159D01*
Y451934D01*
X377112D01*
Y451647D01*
X377064D01*
Y451456D01*
X377016D01*
Y451170D01*
X376968D01*
Y450979D01*
X376921D01*
Y450741D01*
X376873D01*
Y450454D01*
X376825D01*
Y450311D01*
X376777D01*
Y449977D01*
X376730D01*
Y449786D01*
X376682D01*
Y449500D01*
X376634D01*
Y449261D01*
X376587D01*
Y449213D01*
X376539D01*
Y449166D01*
X367900D01*
Y449213D01*
X367852D01*
Y449309D01*
X367900D01*
Y449500D01*
X367948D01*
Y449786D01*
X367995D01*
Y449977D01*
X368043D01*
Y450216D01*
X368091D01*
Y450502D01*
X368139D01*
Y450645D01*
X368186D01*
Y450979D01*
X368234D01*
Y451170D01*
X368282D01*
Y451456D01*
X368330D01*
Y451695D01*
X368377D01*
Y451886D01*
X368425D01*
Y452172D01*
X368473D01*
Y452363D01*
X368520D01*
Y452650D01*
X368568D01*
Y452841D01*
X368616D01*
Y453079D01*
X368663D01*
Y453366D01*
X368711D01*
Y453557D01*
X368759D01*
Y453891D01*
X368807D01*
Y454034D01*
X368854D01*
Y454320D01*
X368902D01*
Y454559D01*
X368950D01*
Y454750D01*
X368998D01*
Y455084D01*
X369045D01*
Y455227D01*
X369093D01*
Y455561D01*
X369141D01*
Y455752D01*
X369188D01*
Y455943D01*
X369236D01*
Y456277D01*
X369284D01*
Y456420D01*
X369332D01*
Y456754D01*
X369379D01*
Y456898D01*
X369427D01*
Y457184D01*
X369475D01*
Y457422D01*
X369523D01*
Y457613D01*
X369570D01*
Y457948D01*
X369618D01*
Y458091D01*
X369666D01*
Y458425D01*
X369714D01*
Y458616D01*
X369761D01*
Y458807D01*
X369809D01*
Y459141D01*
X369857D01*
Y459284D01*
X369905D01*
Y459618D01*
X369952D01*
Y459809D01*
X370000D01*
Y460000D01*
X363748D01*
Y459905D01*
X363700D01*
Y459714D01*
X363652D01*
Y459523D01*
X363604D01*
Y459188D01*
X363557D01*
Y459045D01*
X363509D01*
Y458759D01*
X363461D01*
Y458520D01*
X363413D01*
Y458330D01*
X363366D01*
Y457995D01*
X363318D01*
Y457852D01*
X363270D01*
Y457518D01*
X363223D01*
Y457327D01*
X363175D01*
Y457089D01*
X363127D01*
Y456850D01*
X363079D01*
Y456659D01*
X363032D01*
Y456325D01*
X362984D01*
Y456182D01*
X362936D01*
Y455848D01*
X362888D01*
Y455657D01*
X362841D01*
Y455466D01*
X362793D01*
Y455132D01*
X362745D01*
Y454989D01*
X362697D01*
Y454654D01*
X362650D01*
Y454464D01*
X362602D01*
Y454225D01*
X362554D01*
Y453938D01*
X362506D01*
Y453795D01*
X362459D01*
Y453461D01*
X362411D01*
Y453270D01*
X362363D01*
Y452984D01*
X362316D01*
Y452793D01*
X362268D01*
Y452554D01*
X362220D01*
Y452268D01*
X362173D01*
Y452077D01*
X362125D01*
Y451791D01*
X362077D01*
Y451600D01*
X362029D01*
Y451361D01*
X361982D01*
Y451075D01*
X361934D01*
Y450884D01*
X361886D01*
Y450550D01*
X361838D01*
Y450406D01*
X361791D01*
Y450120D01*
X361743D01*
Y449881D01*
X361695D01*
Y449691D01*
X361647D01*
Y449404D01*
X361600D01*
Y449213D01*
X361504D01*
Y449166D01*
X352913D01*
Y449213D01*
X352865D01*
Y449404D01*
X352913D01*
Y449595D01*
X352961D01*
Y449929D01*
X353008D01*
Y450072D01*
X353056D01*
Y450406D01*
X353104D01*
Y450597D01*
X353152D01*
Y450788D01*
X353199D01*
Y451075D01*
X353247D01*
Y451266D01*
X353295D01*
Y451600D01*
X353343D01*
Y451743D01*
X353390D01*
Y452029D01*
X353438D01*
Y452268D01*
X353486D01*
Y452459D01*
X353534D01*
Y452793D01*
X353581D01*
Y452936D01*
X353629D01*
Y453223D01*
X353677D01*
Y453461D01*
X353725D01*
Y453652D01*
X353772D01*
Y453938D01*
X353820D01*
Y454129D01*
X353868D01*
Y454416D01*
X353915D01*
Y454607D01*
X353963D01*
Y454893D01*
X354011D01*
Y455132D01*
X354059D01*
Y455275D01*
X354106D01*
Y455609D01*
X354154D01*
Y455800D01*
X354202D01*
Y456086D01*
X354249D01*
Y456277D01*
X354297D01*
Y456516D01*
X354345D01*
Y456802D01*
X354393D01*
Y456945D01*
X354440D01*
Y457280D01*
X354488D01*
Y457470D01*
X354536D01*
Y457709D01*
X354584D01*
Y457995D01*
X354631D01*
Y458139D01*
X354679D01*
Y458473D01*
X354727D01*
Y458616D01*
X354775D01*
Y458950D01*
X354822D01*
Y459141D01*
X354870D01*
Y459332D01*
X354918D01*
Y459666D01*
X354965D01*
Y459809D01*
X355013D01*
Y460143D01*
X355061D01*
Y460334D01*
X355109D01*
Y460573D01*
X355156D01*
Y460811D01*
X355204D01*
Y461002D01*
X355252D01*
Y461336D01*
X355299D01*
Y461479D01*
X355347D01*
Y461814D01*
X355395D01*
Y462005D01*
X355443D01*
Y462195D01*
X355490D01*
Y462482D01*
X355538D01*
Y462673D01*
X355586D01*
Y463007D01*
X355634D01*
Y463150D01*
X355681D01*
Y463436D01*
X355729D01*
Y463675D01*
X355777D01*
Y463866D01*
X355825D01*
Y464200D01*
X355872D01*
Y464343D01*
X355920D01*
Y464630D01*
X355968D01*
Y464868D01*
X356015D01*
Y465059D01*
X356063D01*
Y465346D01*
X356111D01*
Y465536D01*
X356159D01*
Y465823D01*
X356206D01*
Y466014D01*
X356254D01*
Y466252D01*
X356302D01*
Y466539D01*
X356350D01*
Y466682D01*
X356397D01*
Y467016D01*
X356445D01*
Y467207D01*
X356493D01*
Y467493D01*
X356540D01*
Y467684D01*
X356588D01*
Y467923D01*
X356636D01*
Y468209D01*
X356684D01*
Y468353D01*
X356731D01*
Y468687D01*
X356779D01*
Y468878D01*
X356827D01*
Y469116D01*
X356875D01*
Y469403D01*
X356922D01*
Y469546D01*
X356970D01*
Y469880D01*
X357018D01*
Y470023D01*
X357066D01*
Y470071D01*
X357018D01*
Y470118D01*
X349715D01*
Y469975D01*
X349667D01*
Y469784D01*
X349620D01*
Y469450D01*
X349572D01*
Y469307D01*
X349524D01*
Y468973D01*
X349477D01*
Y468782D01*
X349429D01*
Y468543D01*
X349381D01*
Y468305D01*
X349333D01*
Y468114D01*
X349286D01*
Y467780D01*
X349238D01*
Y467636D01*
X349190D01*
Y467350D01*
X349143D01*
Y467112D01*
X349095D01*
Y466921D01*
X349047D01*
Y466587D01*
X348999D01*
Y466443D01*
X348951D01*
Y466109D01*
X348904D01*
Y465966D01*
X348856D01*
Y465680D01*
X348809D01*
Y465441D01*
X348761D01*
Y465250D01*
X348713D01*
Y464916D01*
X348665D01*
Y464773D01*
X348618D01*
Y464487D01*
X348570D01*
Y464248D01*
X348522D01*
Y464057D01*
X348474D01*
Y463770D01*
X348427D01*
Y463580D01*
X348379D01*
Y463293D01*
X348331D01*
Y463102D01*
X348283D01*
Y462816D01*
X348236D01*
Y462577D01*
X348188D01*
Y462434D01*
X348140D01*
Y462100D01*
X348092D01*
Y461909D01*
X348045D01*
Y461623D01*
X347997D01*
Y461432D01*
X347949D01*
Y461193D01*
X347901D01*
Y460907D01*
X347854D01*
Y460764D01*
X347806D01*
Y460429D01*
X347758D01*
Y460238D01*
X347711D01*
Y460000D01*
X347663D01*
Y459714D01*
X347615D01*
Y459570D01*
X347567D01*
Y459236D01*
X347520D01*
Y459045D01*
X347472D01*
Y458759D01*
X347424D01*
Y458568D01*
X347377D01*
Y458377D01*
X347329D01*
Y458043D01*
X347281D01*
Y457900D01*
X347233D01*
Y457566D01*
X347186D01*
Y457375D01*
X347138D01*
Y457136D01*
X347090D01*
Y456898D01*
X347043D01*
Y456707D01*
X346995D01*
Y456373D01*
X346947D01*
Y456230D01*
X346899D01*
Y455895D01*
X346852D01*
Y455704D01*
X346804D01*
Y455514D01*
X346756D01*
Y455227D01*
X346708D01*
Y455036D01*
X346661D01*
Y454702D01*
X346613D01*
Y454559D01*
X346565D01*
Y454272D01*
X346517D01*
Y454034D01*
X346470D01*
Y453843D01*
X346422D01*
Y453509D01*
X346374D01*
Y453366D01*
X346326D01*
Y453079D01*
X346279D01*
Y452841D01*
X346231D01*
Y452650D01*
X346183D01*
Y452363D01*
X346136D01*
Y452172D01*
X346088D01*
Y451886D01*
X346040D01*
Y451695D01*
X345993D01*
Y451409D01*
X345945D01*
Y451170D01*
X345897D01*
Y450979D01*
X345849D01*
Y450693D01*
X345802D01*
Y450502D01*
X345754D01*
Y450216D01*
X345706D01*
Y450025D01*
X345658D01*
Y449786D01*
X345611D01*
Y449500D01*
X345563D01*
Y449309D01*
X345515D01*
Y449213D01*
X345467D01*
Y449166D01*
X336828D01*
Y449213D01*
X336781D01*
Y449309D01*
X336828D01*
Y449547D01*
X336876D01*
Y449691D01*
X336924D01*
Y450025D01*
X336972D01*
Y450216D01*
X337019D01*
Y450502D01*
X337067D01*
Y450693D01*
X337115D01*
Y450884D01*
X337163D01*
Y451218D01*
X337210D01*
Y451361D01*
X337258D01*
Y451695D01*
X337306D01*
Y451886D01*
X337354D01*
Y452125D01*
X337401D01*
Y452363D01*
X337449D01*
Y452554D01*
X337497D01*
Y452888D01*
X337545D01*
Y453032D01*
X337592D01*
Y453366D01*
X337640D01*
Y453557D01*
X337688D01*
Y453748D01*
X337735D01*
Y454082D01*
X337783D01*
Y454225D01*
X337831D01*
Y454559D01*
X337878D01*
Y454702D01*
X337926D01*
Y454989D01*
X337974D01*
Y455227D01*
X338022D01*
Y455418D01*
X338069D01*
Y455752D01*
X338117D01*
Y455895D01*
X338165D01*
Y456182D01*
X338213D01*
Y456420D01*
X338260D01*
Y456611D01*
X338308D01*
Y456898D01*
X338356D01*
Y457089D01*
X338404D01*
Y457422D01*
X338451D01*
Y457566D01*
X338499D01*
Y457804D01*
X338547D01*
Y458091D01*
X338594D01*
Y458282D01*
X338642D01*
Y458568D01*
X338690D01*
Y458759D01*
X338738D01*
Y459045D01*
X338785D01*
Y459236D01*
X338833D01*
Y459475D01*
X338881D01*
Y459761D01*
X338929D01*
Y459952D01*
X338976D01*
Y460238D01*
X339024D01*
Y460429D01*
X339072D01*
Y460668D01*
X339119D01*
Y460955D01*
X339167D01*
Y461098D01*
X339215D01*
Y461432D01*
X339263D01*
Y461623D01*
X339310D01*
Y461909D01*
X339358D01*
Y462100D01*
X339406D01*
Y462291D01*
X339454D01*
Y462625D01*
X339501D01*
Y462768D01*
X339549D01*
Y463102D01*
X339597D01*
Y463293D01*
X339644D01*
Y463532D01*
X339692D01*
Y463770D01*
X339740D01*
Y463961D01*
X339788D01*
Y464296D01*
X339835D01*
Y464439D01*
X339883D01*
Y464773D01*
X339931D01*
Y464964D01*
X339979D01*
Y465155D01*
X340026D01*
Y465441D01*
X340074D01*
Y465632D01*
X340122D01*
Y465966D01*
X340169D01*
Y466109D01*
X340217D01*
Y466396D01*
X340265D01*
Y466634D01*
X340313D01*
Y466825D01*
X340360D01*
Y467159D01*
X340408D01*
Y467302D01*
X340456D01*
Y467589D01*
X340504D01*
Y467827D01*
X340551D01*
Y468018D01*
X340599D01*
Y468305D01*
X340647D01*
Y468496D01*
X340695D01*
Y468830D01*
X340742D01*
Y468973D01*
X340790D01*
Y469212D01*
X340838D01*
Y469498D01*
X340885D01*
Y469689D01*
X340933D01*
Y469975D01*
X340981D01*
Y470118D01*
X321078D01*
Y470071D01*
X321030D01*
Y469880D01*
X320983D01*
Y469594D01*
X320935D01*
Y469403D01*
X320887D01*
Y469068D01*
X320839D01*
Y468878D01*
X320792D01*
Y468639D01*
X320744D01*
Y468400D01*
X320696D01*
Y468209D01*
X320648D01*
Y467875D01*
X320601D01*
Y467732D01*
X320553D01*
Y467398D01*
X320505D01*
Y467207D01*
X320458D01*
Y466968D01*
X320410D01*
Y466682D01*
X320362D01*
Y466539D01*
X320314D01*
Y466300D01*
X332819D01*
Y466252D01*
X332867D01*
Y466109D01*
X332819D01*
Y465871D01*
X332771D01*
Y465632D01*
X332724D01*
Y465441D01*
X332676D01*
Y465155D01*
X332629D01*
Y464964D01*
X332581D01*
Y464677D01*
X332533D01*
Y464487D01*
X332485D01*
Y464248D01*
X332438D01*
Y463961D01*
X332390D01*
Y463818D01*
X332342D01*
Y463484D01*
X332294D01*
Y463293D01*
X332247D01*
Y463055D01*
X332199D01*
Y462816D01*
X332151D01*
Y462625D01*
X332103D01*
Y462291D01*
X332056D01*
Y462148D01*
X332008D01*
Y461814D01*
X331960D01*
Y461623D01*
X331912D01*
Y461432D01*
X331865D01*
Y461098D01*
X331817D01*
Y460955D01*
X331769D01*
Y460620D01*
X331721D01*
Y460477D01*
X331674D01*
Y460191D01*
X331626D01*
Y460048D01*
X331578D01*
Y460000D01*
X319074D01*
Y459952D01*
X319026D01*
Y459809D01*
X318978D01*
Y459618D01*
X318930D01*
Y459284D01*
X318883D01*
Y459141D01*
X318835D01*
Y458807D01*
X318787D01*
Y458616D01*
X318739D01*
Y458377D01*
X318692D01*
Y458091D01*
X318644D01*
Y457948D01*
X318596D01*
Y457613D01*
X318549D01*
Y457422D01*
X318501D01*
Y457136D01*
X318453D01*
Y456898D01*
X318405D01*
Y456707D01*
X318358D01*
Y456373D01*
X318310D01*
Y456277D01*
X318262D01*
Y456230D01*
X318310D01*
Y456182D01*
X330815D01*
Y456134D01*
X330863D01*
Y456039D01*
X330815D01*
Y455848D01*
X330767D01*
Y455657D01*
X330719D01*
Y455323D01*
X330672D01*
Y455179D01*
X330624D01*
Y454845D01*
X330576D01*
Y454654D01*
X330528D01*
Y454416D01*
X330481D01*
Y454177D01*
X330433D01*
Y453986D01*
X330385D01*
Y453652D01*
X330337D01*
Y453509D01*
X330290D01*
Y453175D01*
X330242D01*
Y452984D01*
X330194D01*
Y452793D01*
X330147D01*
Y452459D01*
X330099D01*
Y452316D01*
X330051D01*
Y451982D01*
X330003D01*
Y451791D01*
X329956D01*
Y451552D01*
X329908D01*
Y451313D01*
X329860D01*
Y451122D01*
X329812D01*
Y450788D01*
X329765D01*
Y450645D01*
X329717D01*
Y450311D01*
X329669D01*
Y450120D01*
X329622D01*
Y449929D01*
X329574D01*
Y449595D01*
X329526D01*
Y449452D01*
X329478D01*
Y449213D01*
X329431D01*
Y449166D01*
X308191D01*
Y449500D01*
X308239D01*
Y449643D01*
X308287D01*
Y449977D01*
X308334D01*
Y450120D01*
X308382D01*
Y450454D01*
X308430D01*
Y450645D01*
X308478D01*
Y450836D01*
X308525D01*
Y451170D01*
X308573D01*
Y451313D01*
X308621D01*
Y451647D01*
X308669D01*
Y451838D01*
X308716D01*
Y452077D01*
X308764D01*
Y452316D01*
X308812D01*
Y452507D01*
X308860D01*
Y452841D01*
X308907D01*
Y452984D01*
X308955D01*
Y453270D01*
X309003D01*
Y453509D01*
X309050D01*
Y453700D01*
X309098D01*
Y453986D01*
X309146D01*
Y454177D01*
X309194D01*
Y454511D01*
X309241D01*
Y454654D01*
X309289D01*
Y454893D01*
X309337D01*
Y455179D01*
X309385D01*
Y455370D01*
X309432D01*
Y455704D01*
X309480D01*
Y455848D01*
X309528D01*
Y456134D01*
X309575D01*
Y456373D01*
X309623D01*
Y456563D01*
X309671D01*
Y456850D01*
X309719D01*
Y457041D01*
X309766D01*
Y457327D01*
X309814D01*
Y457518D01*
X309862D01*
Y457757D01*
X309910D01*
Y458043D01*
X309957D01*
Y458234D01*
X310005D01*
Y458520D01*
X310053D01*
Y458711D01*
X310100D01*
Y458998D01*
X310148D01*
Y459188D01*
X310196D01*
Y459380D01*
X310244D01*
Y459714D01*
X310291D01*
Y459857D01*
X310339D01*
Y460191D01*
X310387D01*
Y460382D01*
X310435D01*
Y460620D01*
X310482D01*
Y460907D01*
X310530D01*
Y461050D01*
X310578D01*
Y461384D01*
X310625D01*
Y461575D01*
X310673D01*
Y461861D01*
X310721D01*
Y462052D01*
X310769D01*
Y462243D01*
X310816D01*
Y462577D01*
X310864D01*
Y462720D01*
X310912D01*
Y463055D01*
X310960D01*
Y463246D01*
X311007D01*
Y463484D01*
X311055D01*
Y463723D01*
X311103D01*
Y463914D01*
X311150D01*
Y464248D01*
X311198D01*
Y464391D01*
X311246D01*
Y464677D01*
X311294D01*
Y464916D01*
X311341D01*
Y465107D01*
X311389D01*
Y465441D01*
X311437D01*
Y465584D01*
X311485D01*
Y465918D01*
X311532D01*
Y466109D01*
X311580D01*
Y466300D01*
X311628D01*
Y466587D01*
X311676D01*
Y466777D01*
X311723D01*
Y467112D01*
X311771D01*
Y467255D01*
X311819D01*
Y467541D01*
X311866D01*
Y467780D01*
X311914D01*
Y467971D01*
X311962D01*
Y468257D01*
X312010D01*
Y468448D01*
X312057D01*
Y468734D01*
X312105D01*
Y468925D01*
X312153D01*
Y469164D01*
X312201D01*
Y469450D01*
X312248D01*
Y469641D01*
X312296D01*
Y469928D01*
X312344D01*
Y470118D01*
X312391D01*
Y470405D01*
X312439D01*
Y470596D01*
X312487D01*
Y470787D01*
X312535D01*
Y471121D01*
X312582D01*
Y471312D01*
X312630D01*
Y471598D01*
X312678D01*
Y471789D01*
X312726D01*
Y472028D01*
X312773D01*
Y472314D01*
X312821D01*
Y472457D01*
X312869D01*
Y472791D01*
X312917D01*
Y472982D01*
X312964D01*
Y473269D01*
X313012D01*
Y473460D01*
X313060D01*
Y473651D01*
X313107D01*
Y473984D01*
X313155D01*
Y474128D01*
X313203D01*
Y474462D01*
X313251D01*
Y474653D01*
X313298D01*
Y474891D01*
X313346D01*
Y475178D01*
X313394D01*
Y475321D01*
X313442D01*
Y475655D01*
X313489D01*
Y475798D01*
X313537D01*
Y476085D01*
X313585D01*
Y476323D01*
X313632D01*
Y476514D01*
X313680D01*
Y476848D01*
X313728D01*
Y476992D01*
X313776D01*
Y477087D01*
X313823D01*
Y477135D01*
X367136D01*
Y477087D01*
X367184D01*
Y476992D01*
X367136D01*
Y476753D01*
X367089D01*
Y476562D01*
X367041D01*
Y476228D01*
X366993D01*
Y476085D01*
X366945D01*
Y475798D01*
X366898D01*
Y475560D01*
X366850D01*
Y475369D01*
X366802D01*
Y475082D01*
X366754D01*
Y474939D01*
X366707D01*
Y474605D01*
X366659D01*
Y474414D01*
X366611D01*
Y474175D01*
X366564D01*
Y473937D01*
X366516D01*
Y473746D01*
X366468D01*
Y473460D01*
X366420D01*
Y473269D01*
X366373D01*
Y472982D01*
X366325D01*
Y472791D01*
X366277D01*
Y472553D01*
X366230D01*
Y472266D01*
X366182D01*
Y472123D01*
X366134D01*
Y471789D01*
X366086D01*
Y471598D01*
X366039D01*
Y471359D01*
X365991D01*
Y471121D01*
X365943D01*
Y470930D01*
X365895D01*
Y470644D01*
X365848D01*
Y470452D01*
X365800D01*
Y470166D01*
X365752D01*
Y469975D01*
X365704D01*
Y469784D01*
X365657D01*
Y469450D01*
X365609D01*
Y469307D01*
X365561D01*
Y468973D01*
X365513D01*
Y468830D01*
X365466D01*
Y468543D01*
X365418D01*
Y468305D01*
X365370D01*
Y468114D01*
X365322D01*
Y467827D01*
X365275D01*
Y467636D01*
X365227D01*
Y467350D01*
X365179D01*
Y467159D01*
X365132D01*
Y466968D01*
X365084D01*
Y466634D01*
X365036D01*
Y466491D01*
X364989D01*
Y466348D01*
X365036D01*
Y466300D01*
X371241D01*
Y466348D01*
X371289D01*
Y466587D01*
X371336D01*
Y466730D01*
X371384D01*
Y467064D01*
X371432D01*
Y467255D01*
X371480D01*
Y467446D01*
X371527D01*
Y467732D01*
X371575D01*
Y467875D01*
X371623D01*
Y468209D01*
X371670D01*
Y468400D01*
X371718D01*
Y468639D01*
X371766D01*
Y468878D01*
X371814D01*
Y469068D01*
X371861D01*
Y469403D01*
X371909D01*
Y469546D01*
X371957D01*
Y469832D01*
X372005D01*
Y470023D01*
X372052D01*
Y470262D01*
X372100D01*
Y470548D01*
X372148D01*
Y470691D01*
X372195D01*
Y471025D01*
X372243D01*
Y471216D01*
X372291D01*
Y471455D01*
X372339D01*
Y471693D01*
X372386D01*
Y471884D01*
X372434D01*
Y472171D01*
X372482D01*
Y472362D01*
X372530D01*
Y472648D01*
X372577D01*
Y472839D01*
X372625D01*
Y473078D01*
X372673D01*
Y473364D01*
X372720D01*
Y473507D01*
X372768D01*
Y473841D01*
X372816D01*
Y473984D01*
X372864D01*
Y474271D01*
X372911D01*
Y474510D01*
X372959D01*
Y474700D01*
X373007D01*
Y474987D01*
X373055D01*
Y475178D01*
X373102D01*
Y475464D01*
X373150D01*
Y475655D01*
X373198D01*
Y475894D01*
X373246D01*
Y476180D01*
X373293D01*
Y476323D01*
X373341D01*
Y476657D01*
X373389D01*
Y476800D01*
X373436D01*
Y477087D01*
X373484D01*
Y477135D01*
X382123D01*
Y477087D01*
D02*
G37*
G36*
X458250Y468543D02*
X458871D01*
Y468496D01*
X459109D01*
Y468448D01*
X459348D01*
Y468400D01*
X459587D01*
Y468353D01*
X459730D01*
Y468305D01*
X459921D01*
Y468257D01*
X460016D01*
Y468209D01*
X460159D01*
Y468162D01*
X460303D01*
Y468114D01*
X460398D01*
Y468066D01*
X460541D01*
Y468018D01*
X460637D01*
Y467971D01*
X460732D01*
Y467923D01*
X460828D01*
Y467875D01*
X460923D01*
Y467827D01*
X461018D01*
Y467780D01*
X461066D01*
Y467732D01*
X461162D01*
Y467684D01*
X461209D01*
Y467636D01*
X461305D01*
Y467589D01*
X461400D01*
Y467541D01*
X461448D01*
Y467493D01*
X461544D01*
Y467446D01*
X461591D01*
Y467398D01*
X461639D01*
Y467350D01*
X461687D01*
Y467302D01*
X461782D01*
Y467255D01*
X461830D01*
Y467207D01*
X461878D01*
Y467159D01*
X461973D01*
Y467064D01*
X462069D01*
Y467016D01*
X462116D01*
Y466968D01*
X462164D01*
Y466921D01*
X462212D01*
Y466873D01*
X462259D01*
Y466825D01*
X462307D01*
Y466777D01*
X462355D01*
Y466730D01*
X462403D01*
Y466682D01*
X462450D01*
Y466634D01*
X462498D01*
Y466587D01*
X462546D01*
Y466539D01*
X462594D01*
Y466443D01*
X462689D01*
Y466348D01*
X462737D01*
Y466300D01*
X462785D01*
Y466252D01*
X462832D01*
Y466157D01*
X462880D01*
Y466109D01*
X462928D01*
Y466062D01*
X462976D01*
Y466014D01*
X463023D01*
Y465918D01*
X463071D01*
Y465871D01*
X463119D01*
Y465823D01*
X463166D01*
Y465680D01*
X463119D01*
Y465632D01*
X463071D01*
Y465584D01*
X463023D01*
Y465536D01*
X462928D01*
Y465441D01*
X462832D01*
Y465393D01*
X462785D01*
Y465346D01*
X462737D01*
Y465298D01*
X462689D01*
Y465250D01*
X462641D01*
Y465202D01*
X462546D01*
Y465155D01*
X462498D01*
Y465107D01*
X462450D01*
Y465059D01*
X462403D01*
Y465011D01*
X462355D01*
Y464964D01*
X462259D01*
Y464916D01*
X462212D01*
Y464868D01*
X462164D01*
Y464821D01*
X462116D01*
Y464773D01*
X462069D01*
Y464725D01*
X462021D01*
Y464677D01*
X461973D01*
Y464630D01*
X461878D01*
Y464582D01*
X461830D01*
Y464534D01*
X461782D01*
Y464487D01*
X461735D01*
Y464439D01*
X461687D01*
Y464391D01*
X461591D01*
Y464343D01*
X461544D01*
Y464296D01*
X461496D01*
Y464248D01*
X461448D01*
Y464200D01*
X461400D01*
Y464152D01*
X461305D01*
Y464105D01*
X461257D01*
Y464057D01*
X461209D01*
Y464009D01*
X461066D01*
Y464105D01*
X461018D01*
Y464152D01*
X460971D01*
Y464200D01*
X460923D01*
Y464296D01*
X460876D01*
Y464343D01*
X460828D01*
Y464391D01*
X460780D01*
Y464487D01*
X460732D01*
Y464534D01*
X460685D01*
Y464582D01*
X460637D01*
Y464630D01*
X460589D01*
Y464725D01*
X460541D01*
Y464773D01*
X460494D01*
Y464821D01*
X460446D01*
Y464868D01*
X460398D01*
Y464916D01*
X460350D01*
Y464964D01*
X460303D01*
Y465011D01*
X460255D01*
Y465059D01*
X460207D01*
Y465107D01*
X460159D01*
Y465155D01*
X460112D01*
Y465202D01*
X460064D01*
Y465250D01*
X460016D01*
Y465298D01*
X459921D01*
Y465346D01*
X459873D01*
Y465393D01*
X459826D01*
Y465441D01*
X459730D01*
Y465489D01*
X459682D01*
Y465536D01*
X459587D01*
Y465584D01*
X459491D01*
Y465632D01*
X459444D01*
Y465680D01*
X459348D01*
Y465727D01*
X459253D01*
Y465775D01*
X459109D01*
Y465823D01*
X459014D01*
Y465871D01*
X458871D01*
Y465918D01*
X458728D01*
Y465966D01*
X458585D01*
Y466014D01*
X458250D01*
Y466062D01*
X458012D01*
Y466109D01*
X456771D01*
Y466062D01*
X456532D01*
Y466014D01*
X456150D01*
Y465966D01*
X456007D01*
Y465918D01*
X455816D01*
Y465871D01*
X455625D01*
Y465823D01*
X455530D01*
Y465775D01*
X455387D01*
Y465727D01*
X455291D01*
Y465680D01*
X455148D01*
Y465632D01*
X455053D01*
Y465584D01*
X454957D01*
Y465536D01*
X454862D01*
Y465489D01*
X454766D01*
Y465441D01*
X454671D01*
Y465393D01*
X454575D01*
Y465346D01*
X454528D01*
Y465298D01*
X454432D01*
Y465250D01*
X454384D01*
Y465202D01*
X454289D01*
Y465155D01*
X454193D01*
Y465107D01*
X454146D01*
Y465059D01*
X454098D01*
Y465011D01*
X454002D01*
Y464964D01*
X453955D01*
Y464916D01*
X453907D01*
Y464868D01*
X453812D01*
Y464821D01*
X453764D01*
Y464773D01*
X453716D01*
Y464725D01*
X453621D01*
Y464630D01*
X453525D01*
Y464582D01*
X453477D01*
Y464534D01*
X453430D01*
Y464487D01*
X453382D01*
Y464439D01*
X453334D01*
Y464391D01*
X453287D01*
Y464343D01*
X453239D01*
Y464296D01*
X453191D01*
Y464248D01*
X453143D01*
Y464200D01*
X453096D01*
Y464152D01*
X453048D01*
Y464105D01*
X453000D01*
Y464057D01*
X452952D01*
Y463961D01*
X452905D01*
Y463914D01*
X452857D01*
Y463866D01*
X452809D01*
Y463818D01*
X452762D01*
Y463770D01*
X452714D01*
Y463675D01*
X452666D01*
Y463627D01*
X452618D01*
Y463532D01*
X452571D01*
Y463484D01*
X452523D01*
Y463436D01*
X452475D01*
Y463341D01*
X452427D01*
Y463293D01*
X452380D01*
Y463198D01*
X452332D01*
Y463150D01*
X452284D01*
Y463055D01*
X452236D01*
Y462959D01*
X452189D01*
Y462911D01*
X452141D01*
Y462816D01*
X452093D01*
Y462720D01*
X452046D01*
Y462625D01*
X451998D01*
Y462577D01*
X451950D01*
Y462482D01*
X451902D01*
Y462339D01*
X451855D01*
Y462291D01*
X451807D01*
Y462148D01*
X451759D01*
Y462100D01*
X451711D01*
Y461957D01*
X451664D01*
Y461861D01*
X451616D01*
Y461766D01*
X451568D01*
Y461623D01*
X451521D01*
Y461527D01*
X451473D01*
Y461384D01*
X451425D01*
Y461289D01*
X451377D01*
Y461145D01*
X451330D01*
Y461002D01*
X451282D01*
Y460907D01*
X451234D01*
Y460716D01*
X451186D01*
Y460620D01*
X451139D01*
Y460429D01*
X451091D01*
Y460286D01*
X451043D01*
Y460143D01*
X450996D01*
Y459905D01*
X450948D01*
Y459761D01*
X450900D01*
Y459523D01*
X450852D01*
Y459332D01*
X450805D01*
Y459141D01*
X450757D01*
Y458854D01*
X450709D01*
Y458663D01*
X450662D01*
Y458282D01*
X450614D01*
Y458091D01*
X450566D01*
Y457757D01*
X450518D01*
Y457375D01*
X450471D01*
Y456945D01*
X450423D01*
Y455132D01*
X450471D01*
Y454893D01*
X450518D01*
Y454607D01*
X450566D01*
Y454368D01*
X450614D01*
Y454225D01*
X450662D01*
Y454034D01*
X450709D01*
Y453938D01*
X450757D01*
Y453795D01*
X450805D01*
Y453700D01*
X450852D01*
Y453604D01*
X450900D01*
Y453461D01*
X450948D01*
Y453413D01*
X450996D01*
Y453318D01*
X451043D01*
Y453223D01*
X451091D01*
Y453175D01*
X451139D01*
Y453079D01*
X451186D01*
Y453032D01*
X451234D01*
Y452936D01*
X451282D01*
Y452888D01*
X451330D01*
Y452841D01*
X451377D01*
Y452745D01*
X451425D01*
Y452697D01*
X451473D01*
Y452650D01*
X451521D01*
Y452602D01*
X451568D01*
Y452554D01*
X451616D01*
Y452507D01*
X451664D01*
Y452459D01*
X451711D01*
Y452411D01*
X451759D01*
Y452363D01*
X451855D01*
Y452316D01*
X451902D01*
Y452268D01*
X451950D01*
Y452220D01*
X451998D01*
Y452172D01*
X452093D01*
Y452125D01*
X452141D01*
Y452077D01*
X452236D01*
Y452029D01*
X452332D01*
Y451982D01*
X452380D01*
Y451934D01*
X452475D01*
Y451886D01*
X452571D01*
Y451838D01*
X452666D01*
Y451791D01*
X452809D01*
Y451743D01*
X452905D01*
Y451695D01*
X453048D01*
Y451647D01*
X453191D01*
Y451600D01*
X453382D01*
Y451552D01*
X453573D01*
Y451504D01*
X453812D01*
Y451456D01*
X455339D01*
Y451504D01*
X455625D01*
Y451552D01*
X455816D01*
Y451600D01*
X456055D01*
Y451647D01*
X456150D01*
Y451695D01*
X456389D01*
Y451743D01*
X456484D01*
Y451791D01*
X456628D01*
Y451838D01*
X456723D01*
Y451886D01*
X456819D01*
Y451934D01*
X456962D01*
Y451982D01*
X457009D01*
Y452029D01*
X457105D01*
Y452077D01*
X457200D01*
Y452125D01*
X457296D01*
Y452172D01*
X457391D01*
Y452220D01*
X457439D01*
Y452268D01*
X457534D01*
Y452316D01*
X457582D01*
Y452363D01*
X457677D01*
Y452411D01*
X457725D01*
Y452459D01*
X457773D01*
Y452507D01*
X457869D01*
Y452554D01*
X457916D01*
Y452602D01*
X458012D01*
Y452650D01*
X458060D01*
Y452697D01*
X458107D01*
Y452745D01*
X458155D01*
Y452793D01*
X458203D01*
Y452841D01*
X458298D01*
Y452888D01*
X458346D01*
Y452936D01*
X458394D01*
Y452984D01*
X458441D01*
Y453032D01*
X458489D01*
Y453079D01*
X458537D01*
Y453127D01*
X458585D01*
Y453175D01*
X458680D01*
Y453270D01*
X458775D01*
Y453318D01*
X458823D01*
Y453413D01*
X458919D01*
Y453509D01*
X459014D01*
Y453604D01*
X459205D01*
Y453557D01*
X459253D01*
Y453461D01*
X459300D01*
Y453413D01*
X459348D01*
Y453366D01*
X459396D01*
Y453318D01*
X459444D01*
Y453270D01*
X459491D01*
Y453175D01*
X459539D01*
Y453127D01*
X459587D01*
Y453079D01*
X459635D01*
Y453032D01*
X459682D01*
Y452936D01*
X459730D01*
Y452888D01*
X459778D01*
Y452841D01*
X459826D01*
Y452745D01*
X459921D01*
Y452650D01*
X459969D01*
Y452602D01*
X460016D01*
Y452554D01*
X460064D01*
Y452507D01*
X460112D01*
Y452459D01*
X460159D01*
Y452363D01*
X460207D01*
Y452316D01*
X460255D01*
Y452268D01*
X460303D01*
Y452172D01*
X460350D01*
Y452125D01*
X460398D01*
Y452077D01*
X460446D01*
Y452029D01*
X460494D01*
Y451982D01*
X460541D01*
Y451886D01*
X460589D01*
Y451838D01*
X460637D01*
Y451791D01*
X460685D01*
Y451743D01*
X460732D01*
Y451600D01*
X460685D01*
Y451552D01*
X460637D01*
Y451504D01*
X460589D01*
Y451456D01*
X460541D01*
Y451409D01*
X460494D01*
Y451361D01*
X460398D01*
Y451266D01*
X460303D01*
Y451218D01*
X460255D01*
Y451170D01*
X460207D01*
Y451122D01*
X460159D01*
Y451075D01*
X460112D01*
Y451027D01*
X460016D01*
Y450979D01*
X459969D01*
Y450932D01*
X459921D01*
Y450884D01*
X459826D01*
Y450788D01*
X459730D01*
Y450741D01*
X459682D01*
Y450693D01*
X459587D01*
Y450645D01*
X459539D01*
Y450597D01*
X459491D01*
Y450550D01*
X459396D01*
Y450502D01*
X459348D01*
Y450454D01*
X459253D01*
Y450406D01*
X459205D01*
Y450359D01*
X459109D01*
Y450311D01*
X459014D01*
Y450263D01*
X458966D01*
Y450216D01*
X458871D01*
Y450168D01*
X458823D01*
Y450120D01*
X458728D01*
Y450072D01*
X458632D01*
Y450025D01*
X458585D01*
Y449977D01*
X458441D01*
Y449929D01*
X458394D01*
Y449881D01*
X458250D01*
Y449834D01*
X458155D01*
Y449786D01*
X458107D01*
Y449738D01*
X457964D01*
Y449691D01*
X457869D01*
Y449643D01*
X457725D01*
Y449595D01*
X457630D01*
Y449547D01*
X457487D01*
Y449500D01*
X457343D01*
Y449452D01*
X457248D01*
Y449404D01*
X457057D01*
Y449356D01*
X456962D01*
Y449309D01*
X456723D01*
Y449261D01*
X456580D01*
Y449213D01*
X456437D01*
Y449166D01*
X456150D01*
Y449118D01*
X455959D01*
Y449070D01*
X455578D01*
Y449022D01*
X455291D01*
Y448975D01*
X453477D01*
Y449022D01*
X453191D01*
Y449070D01*
X452762D01*
Y449118D01*
X452618D01*
Y449166D01*
X452332D01*
Y449213D01*
X452141D01*
Y449261D01*
X452046D01*
Y449309D01*
X451855D01*
Y449356D01*
X451759D01*
Y449404D01*
X451568D01*
Y449452D01*
X451473D01*
Y449500D01*
X451330D01*
Y449547D01*
X451234D01*
Y449595D01*
X451139D01*
Y449643D01*
X450996D01*
Y449691D01*
X450948D01*
Y449738D01*
X450805D01*
Y449786D01*
X450757D01*
Y449834D01*
X450662D01*
Y449881D01*
X450566D01*
Y449929D01*
X450518D01*
Y449977D01*
X450423D01*
Y450025D01*
X450327D01*
Y450072D01*
X450280D01*
Y450120D01*
X450184D01*
Y450168D01*
X450136D01*
Y450216D01*
X450089D01*
Y450263D01*
X450041D01*
Y450311D01*
X449945D01*
Y450359D01*
X449898D01*
Y450406D01*
X449850D01*
Y450454D01*
X449755D01*
Y450502D01*
X449707D01*
Y450550D01*
X449659D01*
Y450597D01*
X449611D01*
Y450645D01*
X449564D01*
Y450693D01*
X449516D01*
Y450741D01*
X449468D01*
Y450788D01*
X449420D01*
Y450836D01*
X449373D01*
Y450884D01*
X449325D01*
Y450932D01*
X449277D01*
Y450979D01*
X449230D01*
Y451027D01*
X449182D01*
Y451122D01*
X449134D01*
Y451170D01*
X449086D01*
Y451218D01*
X449039D01*
Y451266D01*
X448991D01*
Y451361D01*
X448943D01*
Y451409D01*
X448895D01*
Y451456D01*
X448848D01*
Y451552D01*
X448800D01*
Y451600D01*
X448752D01*
Y451695D01*
X448704D01*
Y451791D01*
X448657D01*
Y451838D01*
X448609D01*
Y451934D01*
X448561D01*
Y451982D01*
X448514D01*
Y452077D01*
X448466D01*
Y452172D01*
X448418D01*
Y452220D01*
X448370D01*
Y452363D01*
X448323D01*
Y452459D01*
X448275D01*
Y452602D01*
X448227D01*
Y452697D01*
X448180D01*
Y452793D01*
X448132D01*
Y452936D01*
X448084D01*
Y453032D01*
X448036D01*
Y453223D01*
X447989D01*
Y453366D01*
X447941D01*
Y453509D01*
X447893D01*
Y453700D01*
X447845D01*
Y453891D01*
X447798D01*
Y454177D01*
X447750D01*
Y454368D01*
X447702D01*
Y454798D01*
X447654D01*
Y455514D01*
X447607D01*
Y456420D01*
X447654D01*
Y457232D01*
X447702D01*
Y457709D01*
X447750D01*
Y458043D01*
X447798D01*
Y458425D01*
X447845D01*
Y458663D01*
X447893D01*
Y458998D01*
X447941D01*
Y459188D01*
X447989D01*
Y459380D01*
X448036D01*
Y459666D01*
X448084D01*
Y459809D01*
X448132D01*
Y460048D01*
X448180D01*
Y460191D01*
X448227D01*
Y460382D01*
X448275D01*
Y460573D01*
X448323D01*
Y460716D01*
X448370D01*
Y460907D01*
X448418D01*
Y461050D01*
X448466D01*
Y461241D01*
X448514D01*
Y461336D01*
X448561D01*
Y461479D01*
X448609D01*
Y461670D01*
X448657D01*
Y461718D01*
X448704D01*
Y461909D01*
X448752D01*
Y462005D01*
X448800D01*
Y462148D01*
X448848D01*
Y462243D01*
X448895D01*
Y462339D01*
X448943D01*
Y462482D01*
X448991D01*
Y462577D01*
X449039D01*
Y462720D01*
X449086D01*
Y462816D01*
X449134D01*
Y462911D01*
X449182D01*
Y463007D01*
X449230D01*
Y463102D01*
X449277D01*
Y463198D01*
X449325D01*
Y463293D01*
X449373D01*
Y463389D01*
X449420D01*
Y463484D01*
X449468D01*
Y463532D01*
X449516D01*
Y463675D01*
X449564D01*
Y463723D01*
X449611D01*
Y463818D01*
X449659D01*
Y463914D01*
X449707D01*
Y463961D01*
X449755D01*
Y464105D01*
X449802D01*
Y464152D01*
X449850D01*
Y464248D01*
X449898D01*
Y464296D01*
X449945D01*
Y464391D01*
X449993D01*
Y464439D01*
X450041D01*
Y464534D01*
X450089D01*
Y464630D01*
X450136D01*
Y464677D01*
X450184D01*
Y464725D01*
X450232D01*
Y464773D01*
X450280D01*
Y464868D01*
X450327D01*
Y464964D01*
X450375D01*
Y465011D01*
X450423D01*
Y465059D01*
X450471D01*
Y465107D01*
X450518D01*
Y465155D01*
X450566D01*
Y465250D01*
X450614D01*
Y465298D01*
X450662D01*
Y465346D01*
X450709D01*
Y465393D01*
X450757D01*
Y465489D01*
X450805D01*
Y465536D01*
X450852D01*
Y465584D01*
X450900D01*
Y465632D01*
X450948D01*
Y465680D01*
X450996D01*
Y465727D01*
X451043D01*
Y465775D01*
X451091D01*
Y465823D01*
X451139D01*
Y465918D01*
X451234D01*
Y466014D01*
X451330D01*
Y466109D01*
X451425D01*
Y466157D01*
X451473D01*
Y466252D01*
X451568D01*
Y466300D01*
X451616D01*
Y466348D01*
X451664D01*
Y466396D01*
X451711D01*
Y466443D01*
X451759D01*
Y466491D01*
X451807D01*
Y466539D01*
X451855D01*
Y466587D01*
X451950D01*
Y466634D01*
X451998D01*
Y466682D01*
X452046D01*
Y466730D01*
X452093D01*
Y466777D01*
X452189D01*
Y466825D01*
X452236D01*
Y466873D01*
X452284D01*
Y466921D01*
X452380D01*
Y466968D01*
X452427D01*
Y467016D01*
X452475D01*
Y467064D01*
X452571D01*
Y467112D01*
X452618D01*
Y467159D01*
X452714D01*
Y467207D01*
X452762D01*
Y467255D01*
X452857D01*
Y467302D01*
X452952D01*
Y467350D01*
X453000D01*
Y467398D01*
X453096D01*
Y467446D01*
X453143D01*
Y467493D01*
X453287D01*
Y467541D01*
X453334D01*
Y467589D01*
X453430D01*
Y467636D01*
X453525D01*
Y467684D01*
X453621D01*
Y467732D01*
X453764D01*
Y467780D01*
X453812D01*
Y467827D01*
X453955D01*
Y467875D01*
X454050D01*
Y467923D01*
X454146D01*
Y467971D01*
X454337D01*
Y468018D01*
X454384D01*
Y468066D01*
X454575D01*
Y468114D01*
X454671D01*
Y468162D01*
X454814D01*
Y468209D01*
X455005D01*
Y468257D01*
X455148D01*
Y468305D01*
X455387D01*
Y468353D01*
X455530D01*
Y468400D01*
X455816D01*
Y468448D01*
X456055D01*
Y468496D01*
X456341D01*
Y468543D01*
X457009D01*
Y468591D01*
X458250D01*
Y468543D01*
D02*
G37*
G36*
X419829Y468018D02*
X419781D01*
Y467827D01*
X419733D01*
Y467493D01*
X419686D01*
Y467350D01*
X419638D01*
Y467064D01*
X419590D01*
Y466825D01*
X419542D01*
Y466634D01*
X419495D01*
Y466300D01*
X419447D01*
Y466157D01*
X419399D01*
Y465823D01*
X419351D01*
Y465632D01*
X419304D01*
Y465441D01*
X419256D01*
Y465107D01*
X419208D01*
Y464964D01*
X419160D01*
Y464630D01*
X419113D01*
Y464439D01*
X419065D01*
Y464200D01*
X419017D01*
Y463961D01*
X418970D01*
Y463770D01*
X418922D01*
Y463436D01*
X418874D01*
Y463293D01*
X418826D01*
Y462959D01*
X418779D01*
Y462768D01*
X418731D01*
Y462530D01*
X418683D01*
Y462243D01*
X418635D01*
Y462100D01*
X418588D01*
Y461814D01*
Y461766D01*
X418540D01*
Y461575D01*
X418492D01*
Y461289D01*
X418445D01*
Y461050D01*
X418397D01*
Y460859D01*
X418349D01*
Y460573D01*
X418301D01*
Y460382D01*
X418254D01*
Y460095D01*
X418206D01*
Y459857D01*
X418158D01*
Y459666D01*
X418111D01*
Y459380D01*
X418063D01*
Y459188D01*
X418015D01*
Y458854D01*
X417967D01*
Y458711D01*
X417920D01*
Y458425D01*
X417872D01*
Y458186D01*
X417824D01*
Y457995D01*
X417776D01*
Y457661D01*
X417729D01*
Y457518D01*
X417681D01*
Y457184D01*
X417633D01*
Y456993D01*
X417585D01*
Y456754D01*
X417538D01*
Y456468D01*
X417490D01*
Y456325D01*
X417442D01*
Y455991D01*
X417394D01*
Y455800D01*
X417347D01*
Y455561D01*
X417299D01*
Y455275D01*
X417252D01*
Y455132D01*
X417204D01*
Y454798D01*
X417156D01*
Y454607D01*
X417108D01*
Y454320D01*
X417061D01*
Y454129D01*
X417013D01*
Y453891D01*
X416965D01*
Y453604D01*
X416917D01*
Y453413D01*
X416870D01*
Y453127D01*
X416822D01*
Y452936D01*
X416774D01*
Y452650D01*
X416726D01*
Y452411D01*
X416679D01*
Y452220D01*
X416631D01*
Y451934D01*
X416583D01*
Y451743D01*
X416535D01*
Y451409D01*
X416488D01*
Y451218D01*
X416440D01*
Y451027D01*
X416392D01*
Y450741D01*
X416345D01*
Y450550D01*
X416297D01*
Y450216D01*
X416249D01*
Y450072D01*
X416201D01*
Y449786D01*
X416154D01*
Y449547D01*
X416106D01*
Y449356D01*
X416058D01*
Y449213D01*
X416011D01*
Y449166D01*
X413338D01*
Y449547D01*
X413385D01*
Y449738D01*
X413433D01*
Y450072D01*
X413481D01*
Y450263D01*
X413529D01*
Y450597D01*
X413576D01*
Y450836D01*
X413624D01*
Y450979D01*
X413672D01*
Y451122D01*
X413529D01*
Y451027D01*
X413481D01*
Y450979D01*
X413433D01*
Y450932D01*
X413385D01*
Y450884D01*
X413338D01*
Y450836D01*
X413290D01*
Y450788D01*
X413194D01*
Y450693D01*
X413099D01*
Y450645D01*
X413051D01*
Y450597D01*
X413003D01*
Y450550D01*
X412908D01*
Y450502D01*
X412860D01*
Y450454D01*
X412813D01*
Y450406D01*
X412765D01*
Y450359D01*
X412717D01*
Y450311D01*
X412622D01*
Y450263D01*
X412574D01*
Y450216D01*
X412479D01*
Y450168D01*
X412431D01*
Y450120D01*
X412335D01*
Y450072D01*
X412287D01*
Y450025D01*
X412192D01*
Y449977D01*
X412097D01*
Y449929D01*
X412049D01*
Y449881D01*
X411954D01*
Y449834D01*
X411858D01*
Y449786D01*
X411763D01*
Y449738D01*
X411667D01*
Y449691D01*
X411619D01*
Y449643D01*
X411428D01*
Y449595D01*
X411381D01*
Y449547D01*
X411237D01*
Y449500D01*
X411142D01*
Y449452D01*
X411047D01*
Y449404D01*
X410856D01*
Y449356D01*
X410760D01*
Y449309D01*
X410522D01*
Y449261D01*
X410378D01*
Y449213D01*
X410235D01*
Y449166D01*
X409949D01*
Y449118D01*
X409806D01*
Y449070D01*
X409376D01*
Y449022D01*
X409090D01*
Y448975D01*
X407372D01*
Y449022D01*
X407133D01*
Y449070D01*
X406799D01*
Y449118D01*
X406656D01*
Y449166D01*
X406417D01*
Y449213D01*
X406274D01*
Y449261D01*
X406178D01*
Y449309D01*
X405987D01*
Y449356D01*
X405892D01*
Y449404D01*
X405749D01*
Y449452D01*
X405701D01*
Y449500D01*
X405558D01*
Y449547D01*
X405462D01*
Y449595D01*
X405415D01*
Y449643D01*
X405271D01*
Y449691D01*
X405224D01*
Y449738D01*
X405128D01*
Y449786D01*
X405081D01*
Y449834D01*
X404985D01*
Y449881D01*
X404937D01*
Y449929D01*
X404890D01*
Y449977D01*
X404794D01*
Y450025D01*
X404746D01*
Y450072D01*
X404651D01*
Y450120D01*
X404603D01*
Y450168D01*
X404556D01*
Y450216D01*
X404508D01*
Y450263D01*
X404460D01*
Y450311D01*
X404412D01*
Y450359D01*
X404365D01*
Y450406D01*
X404317D01*
Y450454D01*
X404269D01*
Y450502D01*
X404221D01*
Y450550D01*
X404174D01*
Y450597D01*
X404126D01*
Y450645D01*
X404078D01*
Y450693D01*
X404030D01*
Y450741D01*
X403983D01*
Y450788D01*
X403935D01*
Y450884D01*
X403887D01*
Y450932D01*
X403840D01*
Y451027D01*
X403792D01*
Y451075D01*
X403744D01*
Y451122D01*
X403696D01*
Y451218D01*
X403649D01*
Y451266D01*
X403601D01*
Y451361D01*
X403553D01*
Y451456D01*
X403506D01*
Y451552D01*
X403458D01*
Y451647D01*
X403410D01*
Y451695D01*
X403362D01*
Y451838D01*
X403315D01*
Y451934D01*
X403267D01*
Y452029D01*
X403219D01*
Y452172D01*
X403171D01*
Y452268D01*
X403124D01*
Y452507D01*
X403076D01*
Y452602D01*
X403028D01*
Y452841D01*
X402980D01*
Y453032D01*
X402933D01*
Y453223D01*
X402885D01*
Y453652D01*
X402837D01*
Y454225D01*
X402790D01*
Y454559D01*
X402837D01*
Y455084D01*
X402885D01*
Y455514D01*
X402933D01*
Y455752D01*
X402980D01*
Y456039D01*
X403028D01*
Y456325D01*
X403076D01*
Y456516D01*
X403124D01*
Y456850D01*
X403171D01*
Y456993D01*
X403219D01*
Y457280D01*
X403267D01*
Y457518D01*
X403315D01*
Y457709D01*
X403362D01*
Y458043D01*
X403410D01*
Y458186D01*
X403458D01*
Y458520D01*
X403506D01*
Y458711D01*
X403553D01*
Y458902D01*
X403601D01*
Y459188D01*
X403649D01*
Y459380D01*
X403696D01*
Y459714D01*
X403744D01*
Y459857D01*
X403792D01*
Y460143D01*
X403840D01*
Y460382D01*
X403887D01*
Y460573D01*
X403935D01*
Y460907D01*
X403983D01*
Y461050D01*
X404030D01*
Y461384D01*
X404078D01*
Y461575D01*
X404126D01*
Y461814D01*
X404174D01*
Y462100D01*
X404221D01*
Y462243D01*
X404269D01*
Y462577D01*
X404317D01*
Y462720D01*
X404365D01*
Y463007D01*
X404412D01*
Y463246D01*
X404460D01*
Y463436D01*
X404508D01*
Y463770D01*
X404556D01*
Y463914D01*
X404603D01*
Y464248D01*
X404651D01*
Y464439D01*
X404699D01*
Y464677D01*
X404746D01*
Y464964D01*
X404794D01*
Y465107D01*
X404842D01*
Y465441D01*
X404890D01*
Y465632D01*
X404937D01*
Y465918D01*
X404985D01*
Y466109D01*
X405033D01*
Y466300D01*
X405081D01*
Y466634D01*
X405128D01*
Y466777D01*
X405176D01*
Y467112D01*
X405224D01*
Y467302D01*
X405271D01*
Y467541D01*
X405319D01*
Y467827D01*
X405367D01*
Y467971D01*
X405415D01*
Y468305D01*
X405462D01*
Y468353D01*
X408231D01*
Y468162D01*
X408183D01*
Y467875D01*
X408135D01*
Y467684D01*
X408088D01*
Y467493D01*
X408040D01*
Y467159D01*
X407992D01*
Y467016D01*
X407944D01*
Y466682D01*
X407897D01*
Y466491D01*
X407849D01*
Y466252D01*
X407801D01*
Y465966D01*
X407753D01*
Y465823D01*
X407706D01*
Y465489D01*
X407658D01*
Y465346D01*
X407610D01*
Y465059D01*
X407562D01*
Y464821D01*
X407515D01*
Y464630D01*
X407467D01*
Y464296D01*
X407419D01*
Y464152D01*
X407372D01*
Y463818D01*
X407324D01*
Y463627D01*
X407276D01*
Y463436D01*
X407228D01*
Y463150D01*
X407181D01*
Y462959D01*
X407133D01*
Y462625D01*
X407085D01*
Y462482D01*
X407038D01*
Y462195D01*
X406990D01*
Y461957D01*
X406942D01*
Y461766D01*
X406894D01*
Y461432D01*
X406847D01*
Y461289D01*
X406799D01*
Y460955D01*
X406751D01*
Y460764D01*
X406703D01*
Y460573D01*
X406656D01*
Y460286D01*
X406608D01*
Y460095D01*
X406560D01*
Y459809D01*
X406512D01*
Y459618D01*
X406465D01*
Y459332D01*
X406417D01*
Y459093D01*
X406369D01*
Y458902D01*
X406322D01*
Y458616D01*
X406274D01*
Y458425D01*
X406226D01*
Y458139D01*
X406178D01*
Y457948D01*
X406131D01*
Y457709D01*
X406083D01*
Y457422D01*
X406035D01*
Y457232D01*
X405987D01*
Y456945D01*
X405940D01*
Y456754D01*
X405892D01*
Y456468D01*
X405844D01*
Y456182D01*
X405796D01*
Y455943D01*
X405749D01*
Y455370D01*
X405701D01*
Y454272D01*
X405749D01*
Y453843D01*
X405796D01*
Y453700D01*
X405844D01*
Y453557D01*
X405892D01*
Y453366D01*
X405940D01*
Y453270D01*
X405987D01*
Y453127D01*
X406035D01*
Y453079D01*
X406083D01*
Y452984D01*
X406131D01*
Y452888D01*
X406178D01*
Y452841D01*
X406226D01*
Y452745D01*
X406274D01*
Y452697D01*
X406322D01*
Y452602D01*
X406369D01*
Y452554D01*
X406417D01*
Y452507D01*
X406465D01*
Y452411D01*
X406512D01*
Y452363D01*
X406560D01*
Y452316D01*
X406608D01*
Y452268D01*
X406703D01*
Y452220D01*
X406751D01*
Y452172D01*
X406799D01*
Y452125D01*
X406847D01*
Y452077D01*
X406942D01*
Y452029D01*
X406990D01*
Y451982D01*
X407038D01*
Y451934D01*
X407181D01*
Y451886D01*
X407228D01*
Y451838D01*
X407324D01*
Y451791D01*
X407419D01*
Y451743D01*
X407515D01*
Y451695D01*
X407706D01*
Y451647D01*
X407801D01*
Y451600D01*
X407992D01*
Y451552D01*
X408183D01*
Y451504D01*
X408422D01*
Y451456D01*
X409806D01*
Y451504D01*
X410044D01*
Y451552D01*
X410235D01*
Y451600D01*
X410522D01*
Y451647D01*
X410617D01*
Y451695D01*
X410808D01*
Y451743D01*
X410904D01*
Y451791D01*
X411047D01*
Y451838D01*
X411190D01*
Y451886D01*
X411285D01*
Y451934D01*
X411428D01*
Y451982D01*
X411476D01*
Y452029D01*
X411619D01*
Y452077D01*
X411667D01*
Y452125D01*
X411763D01*
Y452172D01*
X411858D01*
Y452220D01*
X411906D01*
Y452268D01*
X412001D01*
Y452316D01*
X412049D01*
Y452363D01*
X412145D01*
Y452411D01*
X412240D01*
Y452459D01*
X412287D01*
Y452507D01*
X412383D01*
Y452554D01*
X412431D01*
Y452602D01*
X412479D01*
Y452650D01*
X412526D01*
Y452697D01*
X412574D01*
Y452745D01*
X412669D01*
Y452793D01*
X412717D01*
Y452841D01*
X412765D01*
Y452888D01*
X412813D01*
Y452936D01*
X412860D01*
Y452984D01*
X412908D01*
Y453032D01*
X412956D01*
Y453079D01*
X413003D01*
Y453127D01*
X413051D01*
Y453175D01*
X413099D01*
Y453223D01*
X413147D01*
Y453270D01*
X413194D01*
Y453366D01*
X413242D01*
Y453413D01*
X413290D01*
Y453461D01*
X413338D01*
Y453509D01*
X413385D01*
Y453557D01*
X413433D01*
Y453652D01*
X413481D01*
Y453700D01*
X413529D01*
Y453795D01*
X413576D01*
Y453843D01*
X413624D01*
Y453891D01*
X413672D01*
Y453986D01*
X413719D01*
Y454082D01*
X413767D01*
Y454177D01*
X413815D01*
Y454225D01*
X413863D01*
Y454320D01*
X413910D01*
Y454416D01*
X413958D01*
Y454464D01*
X414006D01*
Y454607D01*
X414053D01*
Y454702D01*
X414101D01*
Y454798D01*
X414149D01*
Y454893D01*
X414197D01*
Y454989D01*
X414244D01*
Y455179D01*
X414292D01*
Y455227D01*
X414340D01*
Y455418D01*
X414388D01*
Y455514D01*
X414435D01*
Y455657D01*
X414483D01*
Y455848D01*
X414531D01*
Y455943D01*
X414579D01*
Y456230D01*
X414626D01*
Y456373D01*
X414674D01*
Y456611D01*
X414722D01*
Y456850D01*
X414770D01*
Y457041D01*
X414817D01*
Y457327D01*
X414865D01*
Y457518D01*
X414913D01*
Y457852D01*
X414960D01*
Y457995D01*
X415008D01*
Y458234D01*
X415056D01*
Y458520D01*
X415103D01*
Y458711D01*
X415151D01*
Y459045D01*
X415199D01*
Y459188D01*
X415247D01*
Y459475D01*
X415294D01*
Y459714D01*
X415342D01*
Y459905D01*
X415390D01*
Y460238D01*
X415438D01*
Y460382D01*
X415485D01*
Y460716D01*
X415533D01*
Y460907D01*
X415581D01*
Y461145D01*
X415629D01*
Y461432D01*
X415676D01*
Y461575D01*
X415724D01*
Y461909D01*
X415772D01*
Y462100D01*
X415820D01*
Y462386D01*
X415867D01*
Y462577D01*
X415915D01*
Y462816D01*
X415963D01*
Y463102D01*
X416011D01*
Y463293D01*
X416058D01*
Y463580D01*
X416106D01*
Y463770D01*
X416154D01*
Y464009D01*
X416201D01*
Y464296D01*
X416249D01*
Y464487D01*
X416297D01*
Y464821D01*
X416345D01*
Y464964D01*
X416392D01*
Y465250D01*
X416440D01*
Y465489D01*
X416488D01*
Y465680D01*
X416535D01*
Y466014D01*
X416583D01*
Y466157D01*
X416631D01*
Y466491D01*
X416679D01*
Y466682D01*
X416726D01*
Y466921D01*
X416774D01*
Y467207D01*
X416822D01*
Y467350D01*
X416870D01*
Y467684D01*
X416917D01*
Y467875D01*
X416965D01*
Y468162D01*
X417013D01*
Y468305D01*
X417061D01*
Y468353D01*
X419829D01*
Y468018D01*
D02*
G37*
G36*
X472808Y477087D02*
X472855D01*
Y476944D01*
X472808D01*
Y476753D01*
X472760D01*
Y476466D01*
X472712D01*
Y476275D01*
X472664D01*
Y475989D01*
X472617D01*
Y475798D01*
X472569D01*
Y475607D01*
X472521D01*
Y475273D01*
X472473D01*
Y475130D01*
X472426D01*
Y474796D01*
X472378D01*
Y474605D01*
X472330D01*
Y474366D01*
X472283D01*
Y474128D01*
X472235D01*
Y473937D01*
X472187D01*
Y473651D01*
X472139D01*
Y473460D01*
X472092D01*
Y473173D01*
X472044D01*
Y472982D01*
X471996D01*
Y472743D01*
X471949D01*
Y472457D01*
X471901D01*
Y472314D01*
X471853D01*
Y471980D01*
X471805D01*
Y471789D01*
X471758D01*
Y471550D01*
X471710D01*
Y471312D01*
X471662D01*
Y471121D01*
X471614D01*
Y470834D01*
X471567D01*
Y470644D01*
X471519D01*
Y470357D01*
X471471D01*
Y470118D01*
X471423D01*
Y469928D01*
X471376D01*
Y469641D01*
X471328D01*
Y469498D01*
X471280D01*
Y469164D01*
X471233D01*
Y468973D01*
X471185D01*
Y468734D01*
X471137D01*
Y468496D01*
X471089D01*
Y468305D01*
X471042D01*
Y467971D01*
X470994D01*
Y467827D01*
X470946D01*
Y467541D01*
X470898D01*
Y467302D01*
X470851D01*
Y467112D01*
X470803D01*
Y466825D01*
X470755D01*
Y466682D01*
X470708D01*
Y466491D01*
X470803D01*
Y466587D01*
X470898D01*
Y466634D01*
X470946D01*
Y466682D01*
X470994D01*
Y466730D01*
X471042D01*
Y466777D01*
X471089D01*
Y466825D01*
X471137D01*
Y466873D01*
X471185D01*
Y466921D01*
X471233D01*
Y466968D01*
X471280D01*
Y467016D01*
X471328D01*
Y467064D01*
X471423D01*
Y467112D01*
X471471D01*
Y467159D01*
X471519D01*
Y467207D01*
X471567D01*
Y467255D01*
X471662D01*
Y467302D01*
X471710D01*
Y467350D01*
X471758D01*
Y467398D01*
X471853D01*
Y467446D01*
X471901D01*
Y467493D01*
X471996D01*
Y467541D01*
X472092D01*
Y467589D01*
X472139D01*
Y467636D01*
X472283D01*
Y467684D01*
X472330D01*
Y467732D01*
X472426D01*
Y467780D01*
X472521D01*
Y467827D01*
X472617D01*
Y467875D01*
X472712D01*
Y467923D01*
X472808D01*
Y467971D01*
X472951D01*
Y468018D01*
X472999D01*
Y468066D01*
X473189D01*
Y468114D01*
X473285D01*
Y468162D01*
X473428D01*
Y468209D01*
X473571D01*
Y468257D01*
X473714D01*
Y468305D01*
X473953D01*
Y468353D01*
X474096D01*
Y468400D01*
X474383D01*
Y468448D01*
X474621D01*
Y468496D01*
X474860D01*
Y468543D01*
X475624D01*
Y468591D01*
X476674D01*
Y468543D01*
X477198D01*
Y468496D01*
X477389D01*
Y468448D01*
X477580D01*
Y468400D01*
X477819D01*
Y468353D01*
X477962D01*
Y468305D01*
X478153D01*
Y468257D01*
X478249D01*
Y468209D01*
X478392D01*
Y468162D01*
X478487D01*
Y468114D01*
X478583D01*
Y468066D01*
X478726D01*
Y468018D01*
X478774D01*
Y467971D01*
X478869D01*
Y467923D01*
X478965D01*
Y467875D01*
X479012D01*
Y467827D01*
X479155D01*
Y467780D01*
X479203D01*
Y467732D01*
X479299D01*
Y467684D01*
X479347D01*
Y467636D01*
X479394D01*
Y467589D01*
X479490D01*
Y467541D01*
X479537D01*
Y467493D01*
X479585D01*
Y467446D01*
X479633D01*
Y467398D01*
X479728D01*
Y467350D01*
X479776D01*
Y467302D01*
X479824D01*
Y467255D01*
X479871D01*
Y467207D01*
X479919D01*
Y467159D01*
X479967D01*
Y467112D01*
X480015D01*
Y467064D01*
X480062D01*
Y467016D01*
X480110D01*
Y466968D01*
X480158D01*
Y466921D01*
X480205D01*
Y466825D01*
X480301D01*
Y466730D01*
X480349D01*
Y466682D01*
X480396D01*
Y466634D01*
X480444D01*
Y466539D01*
X480492D01*
Y466491D01*
X480540D01*
Y466396D01*
X480587D01*
Y466348D01*
X480635D01*
Y466300D01*
X480683D01*
Y466157D01*
X480731D01*
Y466109D01*
X480778D01*
Y466014D01*
X480826D01*
Y465918D01*
X480874D01*
Y465823D01*
X480922D01*
Y465727D01*
X480969D01*
Y465632D01*
X481017D01*
Y465489D01*
X481065D01*
Y465441D01*
X481112D01*
Y465250D01*
X481160D01*
Y465107D01*
X481208D01*
Y464964D01*
X481256D01*
Y464773D01*
X481303D01*
Y464630D01*
X481351D01*
Y464296D01*
X481399D01*
Y464057D01*
X481446D01*
Y463341D01*
X481494D01*
Y462864D01*
X481446D01*
Y462148D01*
X481399D01*
Y461861D01*
X481351D01*
Y461479D01*
X481303D01*
Y461289D01*
X481256D01*
Y460955D01*
X481208D01*
Y460764D01*
X481160D01*
Y460573D01*
X481112D01*
Y460286D01*
X481065D01*
Y460095D01*
X481017D01*
Y459809D01*
X480969D01*
Y459618D01*
X480922D01*
Y459380D01*
X480874D01*
Y459093D01*
X480826D01*
Y458950D01*
X480778D01*
Y458616D01*
X480731D01*
Y458425D01*
X480683D01*
Y458139D01*
X480635D01*
Y457948D01*
X480587D01*
Y457757D01*
X480540D01*
Y457422D01*
X480492D01*
Y457280D01*
X480444D01*
Y456945D01*
X480396D01*
Y456802D01*
X480349D01*
Y456563D01*
X480301D01*
Y456277D01*
X480253D01*
Y456086D01*
X480205D01*
Y455800D01*
X480158D01*
Y455609D01*
X480110D01*
Y455323D01*
X480062D01*
Y455132D01*
X480015D01*
Y454941D01*
X479967D01*
Y454607D01*
X479919D01*
Y454464D01*
X479871D01*
Y454129D01*
X479824D01*
Y453938D01*
X479776D01*
Y453700D01*
X479728D01*
Y453461D01*
X479680D01*
Y453270D01*
X479633D01*
Y452936D01*
X479585D01*
Y452793D01*
X479537D01*
Y452507D01*
X479490D01*
Y452268D01*
X479442D01*
Y452077D01*
X479394D01*
Y451791D01*
X479347D01*
Y451600D01*
X479299D01*
Y451313D01*
X479251D01*
Y451122D01*
X479203D01*
Y450884D01*
X479155D01*
Y450645D01*
X479108D01*
Y450454D01*
X479060D01*
Y450120D01*
X479012D01*
Y449977D01*
X478965D01*
Y449691D01*
X478917D01*
Y449452D01*
X478869D01*
Y449261D01*
X478821D01*
Y449166D01*
X476101D01*
Y449213D01*
X476053D01*
Y449356D01*
X476101D01*
Y449643D01*
X476149D01*
Y449786D01*
X476196D01*
Y450120D01*
X476244D01*
Y450263D01*
X476292D01*
Y450550D01*
X476339D01*
Y450788D01*
X476387D01*
Y450979D01*
X476435D01*
Y451313D01*
X476483D01*
Y451456D01*
X476530D01*
Y451791D01*
X476578D01*
Y451982D01*
X476626D01*
Y452172D01*
X476674D01*
Y452459D01*
X476721D01*
Y452650D01*
X476769D01*
Y452984D01*
X476817D01*
Y453127D01*
X476865D01*
Y453413D01*
X476912D01*
Y453652D01*
X476960D01*
Y453843D01*
X477008D01*
Y454129D01*
X477056D01*
Y454320D01*
X477103D01*
Y454607D01*
X477151D01*
Y454798D01*
X477198D01*
Y455036D01*
X477246D01*
Y455323D01*
X477294D01*
Y455514D01*
X477342D01*
Y455800D01*
X477389D01*
Y455991D01*
X477437D01*
Y456277D01*
X477485D01*
Y456516D01*
X477533D01*
Y456707D01*
X477580D01*
Y456993D01*
X477628D01*
Y457184D01*
X477676D01*
Y457470D01*
X477724D01*
Y457661D01*
X477771D01*
Y457900D01*
X477819D01*
Y458186D01*
X477867D01*
Y458377D01*
X477915D01*
Y458663D01*
X477962D01*
Y458854D01*
X478010D01*
Y459141D01*
X478058D01*
Y459380D01*
X478105D01*
Y459570D01*
X478153D01*
Y459857D01*
X478201D01*
Y460048D01*
X478249D01*
Y460334D01*
X478296D01*
Y460525D01*
X478344D01*
Y460764D01*
X478392D01*
Y461050D01*
X478439D01*
Y461241D01*
X478487D01*
Y461670D01*
X478535D01*
Y461957D01*
X478583D01*
Y463484D01*
X478535D01*
Y463675D01*
X478487D01*
Y463914D01*
X478439D01*
Y464057D01*
X478392D01*
Y464200D01*
X478344D01*
Y464296D01*
X478296D01*
Y464391D01*
X478249D01*
Y464534D01*
X478201D01*
Y464582D01*
X478153D01*
Y464677D01*
X478105D01*
Y464773D01*
X478058D01*
Y464821D01*
X478010D01*
Y464916D01*
X477962D01*
Y464964D01*
X477915D01*
Y465011D01*
X477867D01*
Y465059D01*
X477819D01*
Y465155D01*
X477771D01*
Y465202D01*
X477724D01*
Y465250D01*
X477676D01*
Y465298D01*
X477580D01*
Y465346D01*
X477533D01*
Y465393D01*
X477485D01*
Y465441D01*
X477437D01*
Y465489D01*
X477342D01*
Y465536D01*
X477294D01*
Y465584D01*
X477198D01*
Y465632D01*
X477151D01*
Y465680D01*
X477008D01*
Y465727D01*
X476960D01*
Y465775D01*
X476817D01*
Y465823D01*
X476721D01*
Y465871D01*
X476626D01*
Y465918D01*
X476435D01*
Y465966D01*
X476292D01*
Y466014D01*
X476006D01*
Y466062D01*
X475767D01*
Y466109D01*
X474669D01*
Y466062D01*
X474430D01*
Y466014D01*
X474096D01*
Y465966D01*
X473953D01*
Y465918D01*
X473714D01*
Y465871D01*
X473571D01*
Y465823D01*
X473476D01*
Y465775D01*
X473285D01*
Y465727D01*
X473189D01*
Y465680D01*
X473046D01*
Y465632D01*
X472951D01*
Y465584D01*
X472855D01*
Y465536D01*
X472760D01*
Y465489D01*
X472664D01*
Y465441D01*
X472569D01*
Y465393D01*
X472473D01*
Y465346D01*
X472378D01*
Y465298D01*
X472330D01*
Y465250D01*
X472283D01*
Y465202D01*
X472187D01*
Y465155D01*
X472139D01*
Y465107D01*
X472044D01*
Y465059D01*
X471949D01*
Y465011D01*
X471901D01*
Y464964D01*
X471853D01*
Y464916D01*
X471805D01*
Y464868D01*
X471710D01*
Y464821D01*
X471662D01*
Y464773D01*
X471614D01*
Y464725D01*
X471567D01*
Y464677D01*
X471519D01*
Y464630D01*
X471471D01*
Y464582D01*
X471423D01*
Y464534D01*
X471376D01*
Y464487D01*
X471328D01*
Y464439D01*
X471280D01*
Y464391D01*
X471233D01*
Y464343D01*
X471185D01*
Y464296D01*
X471137D01*
Y464248D01*
X471089D01*
Y464200D01*
X471042D01*
Y464105D01*
X470994D01*
Y464057D01*
X470946D01*
Y464009D01*
X470898D01*
Y463961D01*
X470851D01*
Y463914D01*
X470803D01*
Y463818D01*
X470755D01*
Y463770D01*
X470708D01*
Y463675D01*
X470660D01*
Y463627D01*
X470612D01*
Y463532D01*
X470564D01*
Y463436D01*
X470517D01*
Y463389D01*
X470469D01*
Y463293D01*
X470421D01*
Y463246D01*
X470373D01*
Y463102D01*
X470326D01*
Y463055D01*
X470278D01*
Y462959D01*
X470230D01*
Y462816D01*
X470182D01*
Y462768D01*
X470135D01*
Y462625D01*
X470087D01*
Y462530D01*
X470039D01*
Y462386D01*
X469992D01*
Y462291D01*
X469944D01*
Y462195D01*
X469896D01*
Y461957D01*
X469848D01*
Y461909D01*
X469801D01*
Y461670D01*
X469753D01*
Y461527D01*
X469705D01*
Y461384D01*
X469658D01*
Y461098D01*
X469610D01*
Y460955D01*
X469562D01*
Y460668D01*
X469514D01*
Y460477D01*
X469467D01*
Y460238D01*
X469419D01*
Y459952D01*
X469371D01*
Y459809D01*
X469323D01*
Y459475D01*
X469276D01*
Y459284D01*
X469228D01*
Y458998D01*
X469180D01*
Y458759D01*
X469132D01*
Y458568D01*
X469085D01*
Y458282D01*
X469037D01*
Y458091D01*
X468989D01*
Y457757D01*
X468942D01*
Y457566D01*
X468894D01*
Y457327D01*
X468846D01*
Y457089D01*
X468798D01*
Y456898D01*
X468751D01*
Y456563D01*
X468703D01*
Y456420D01*
X468655D01*
Y456086D01*
X468607D01*
Y455895D01*
X468560D01*
Y455704D01*
X468512D01*
Y455370D01*
X468464D01*
Y455227D01*
X468417D01*
Y454893D01*
X468369D01*
Y454702D01*
X468321D01*
Y454464D01*
X468273D01*
Y454177D01*
X468226D01*
Y454034D01*
X468178D01*
Y453700D01*
X468130D01*
Y453509D01*
X468082D01*
Y453223D01*
X468035D01*
Y452984D01*
X467987D01*
Y452793D01*
X467939D01*
Y452507D01*
X467892D01*
Y452316D01*
X467844D01*
Y451982D01*
X467796D01*
Y451838D01*
X467748D01*
Y451552D01*
X467701D01*
Y451313D01*
X467653D01*
Y451122D01*
X467605D01*
Y450788D01*
X467557D01*
Y450645D01*
X467510D01*
Y450311D01*
X467462D01*
Y450120D01*
X467414D01*
Y449929D01*
X467366D01*
Y449595D01*
X467319D01*
Y449452D01*
X467271D01*
Y449213D01*
X467223D01*
Y449166D01*
X464550D01*
Y449213D01*
X464455D01*
Y449309D01*
X464503D01*
Y449547D01*
X464550D01*
Y449786D01*
X464598D01*
Y449977D01*
X464646D01*
Y450263D01*
X464694D01*
Y450454D01*
X464741D01*
Y450741D01*
X464789D01*
Y450932D01*
X464837D01*
Y451170D01*
X464885D01*
Y451456D01*
X464932D01*
Y451600D01*
X464980D01*
Y451934D01*
X465028D01*
Y452125D01*
X465075D01*
Y452411D01*
X465123D01*
Y452602D01*
X465171D01*
Y452841D01*
X465219D01*
Y453127D01*
X465266D01*
Y453270D01*
X465314D01*
Y453604D01*
X465362D01*
Y453795D01*
X465410D01*
Y454034D01*
X465457D01*
Y454320D01*
X465505D01*
Y454464D01*
X465553D01*
Y454798D01*
X465601D01*
Y454941D01*
X465648D01*
Y455275D01*
X465696D01*
Y455466D01*
X465744D01*
Y455657D01*
X465791D01*
Y455991D01*
X465839D01*
Y456134D01*
X465887D01*
Y456468D01*
X465935D01*
Y456659D01*
X465982D01*
Y456898D01*
X466030D01*
Y457136D01*
X466078D01*
Y457327D01*
X466126D01*
Y457661D01*
X466173D01*
Y457804D01*
X466221D01*
Y458091D01*
X466269D01*
Y458330D01*
X466316D01*
Y458520D01*
X466364D01*
Y458807D01*
X466412D01*
Y458998D01*
X466460D01*
Y459332D01*
X466507D01*
Y459475D01*
X466555D01*
Y459761D01*
X466603D01*
Y460000D01*
X466651D01*
Y460191D01*
X466698D01*
Y460525D01*
X466746D01*
Y460668D01*
X466794D01*
Y460955D01*
X466842D01*
Y461193D01*
X466889D01*
Y461384D01*
X466937D01*
Y461670D01*
X466985D01*
Y461861D01*
X467032D01*
Y462148D01*
X467080D01*
Y462339D01*
X467128D01*
Y462577D01*
X467176D01*
Y462864D01*
X467223D01*
Y463007D01*
X467271D01*
Y463341D01*
X467319D01*
Y463532D01*
X467366D01*
Y463818D01*
X467414D01*
Y464009D01*
X467462D01*
Y464248D01*
X467510D01*
Y464534D01*
X467557D01*
Y464677D01*
X467605D01*
Y465011D01*
X467653D01*
Y465202D01*
X467701D01*
Y465441D01*
X467748D01*
Y465680D01*
X467796D01*
Y465871D01*
X467844D01*
Y466205D01*
X467892D01*
Y466348D01*
X467939D01*
Y466682D01*
X467987D01*
Y466873D01*
X468035D01*
Y467064D01*
X468082D01*
Y467398D01*
X468130D01*
Y467541D01*
X468178D01*
Y467875D01*
X468226D01*
Y468066D01*
X468273D01*
Y468305D01*
X468321D01*
Y468543D01*
X468369D01*
Y468734D01*
X468417D01*
Y469068D01*
X468464D01*
Y469212D01*
X468512D01*
Y469546D01*
X468560D01*
Y469737D01*
X468607D01*
Y469928D01*
X468655D01*
Y470214D01*
X468703D01*
Y470405D01*
X468751D01*
Y470739D01*
X468798D01*
Y470882D01*
X468846D01*
Y471169D01*
X468894D01*
Y471407D01*
X468942D01*
Y471598D01*
X468989D01*
Y471884D01*
X469037D01*
Y472075D01*
X469085D01*
Y472362D01*
X469132D01*
Y472553D01*
X469180D01*
Y472791D01*
X469228D01*
Y473078D01*
X469276D01*
Y473269D01*
X469323D01*
Y473555D01*
X469371D01*
Y473746D01*
X469419D01*
Y474032D01*
X469467D01*
Y474271D01*
X469514D01*
Y474414D01*
X469562D01*
Y474748D01*
X469610D01*
Y474939D01*
X469658D01*
Y475225D01*
X469705D01*
Y475416D01*
X469753D01*
Y475655D01*
X469801D01*
Y475941D01*
X469848D01*
Y476085D01*
X469896D01*
Y476419D01*
X469944D01*
Y476609D01*
X469992D01*
Y476848D01*
X470039D01*
Y477087D01*
X470135D01*
Y477135D01*
X472808D01*
Y477087D01*
D02*
G37*
G36*
X444839Y468305D02*
X444886D01*
Y468209D01*
X444839D01*
Y467971D01*
X444791D01*
Y467732D01*
X444743D01*
Y467541D01*
X444695D01*
Y467207D01*
X444648D01*
Y467064D01*
X444600D01*
Y466730D01*
X444552D01*
Y466539D01*
X444505D01*
Y466300D01*
X444457D01*
Y466014D01*
X444409D01*
Y465871D01*
X444361D01*
Y465536D01*
X444314D01*
Y465346D01*
X444266D01*
Y465107D01*
X444218D01*
Y464821D01*
X444170D01*
Y464677D01*
X444123D01*
Y464343D01*
X444075D01*
Y464152D01*
X444027D01*
Y463866D01*
X443979D01*
Y463627D01*
X443932D01*
Y463436D01*
X443884D01*
Y463150D01*
X443836D01*
Y462959D01*
X443788D01*
Y462625D01*
X443741D01*
Y462482D01*
X443693D01*
Y462195D01*
X443645D01*
Y461957D01*
X443598D01*
Y461766D01*
X443550D01*
Y461432D01*
X443502D01*
Y461289D01*
X443455D01*
Y460955D01*
X443407D01*
Y460764D01*
X443359D01*
Y460573D01*
X443311D01*
Y460238D01*
X443264D01*
Y460095D01*
X443216D01*
Y459761D01*
X443168D01*
Y459570D01*
X443120D01*
Y459332D01*
X443073D01*
Y459045D01*
X443025D01*
Y458902D01*
X442977D01*
Y458568D01*
X442929D01*
Y458377D01*
X442882D01*
Y458091D01*
X442834D01*
Y457900D01*
X442786D01*
Y457661D01*
X442739D01*
Y457375D01*
X442691D01*
Y457184D01*
X442643D01*
Y456898D01*
X442595D01*
Y456707D01*
X442548D01*
Y456420D01*
X442500D01*
Y456182D01*
X442452D01*
Y455991D01*
X442404D01*
Y455704D01*
X442357D01*
Y455514D01*
X442309D01*
Y455227D01*
X442261D01*
Y454989D01*
X442214D01*
Y454798D01*
X442166D01*
Y454511D01*
X442118D01*
Y454320D01*
X442070D01*
Y453986D01*
X442023D01*
Y453795D01*
X441975D01*
Y453557D01*
X441927D01*
Y453318D01*
X441879D01*
Y453127D01*
X441832D01*
Y452793D01*
X441784D01*
Y452650D01*
X441736D01*
Y452316D01*
X441688D01*
Y452125D01*
X441641D01*
Y451886D01*
X441593D01*
Y451600D01*
X441545D01*
Y451456D01*
X441498D01*
Y451122D01*
X441450D01*
Y450932D01*
X441402D01*
Y450645D01*
X441354D01*
Y450406D01*
X441307D01*
Y450216D01*
X441259D01*
Y449929D01*
X441211D01*
Y449738D01*
X441163D01*
Y449452D01*
X441116D01*
Y449261D01*
X441068D01*
Y449213D01*
X441020D01*
Y449166D01*
X438347D01*
Y449213D01*
X438300D01*
Y449356D01*
X438347D01*
Y449547D01*
X438395D01*
Y449881D01*
X438443D01*
Y450072D01*
X438491D01*
Y450311D01*
X438538D01*
Y450550D01*
X438586D01*
Y450741D01*
X438634D01*
Y451075D01*
X438682D01*
Y451218D01*
X438729D01*
Y451504D01*
X438777D01*
Y451743D01*
X438825D01*
Y451934D01*
X438873D01*
Y452220D01*
X438920D01*
Y452411D01*
X438968D01*
Y452745D01*
X439016D01*
Y452888D01*
X439063D01*
Y453127D01*
X439111D01*
Y453413D01*
X439159D01*
Y453604D01*
X439207D01*
Y453891D01*
X439254D01*
Y454082D01*
X439302D01*
Y454368D01*
X439350D01*
Y454559D01*
X439398D01*
Y454798D01*
X439445D01*
Y455084D01*
X439493D01*
Y455227D01*
X439541D01*
Y455561D01*
X439588D01*
Y455752D01*
X439636D01*
Y455991D01*
X439684D01*
Y456277D01*
X439732D01*
Y456420D01*
X439779D01*
Y456754D01*
X439827D01*
Y456945D01*
X439875D01*
Y457232D01*
X439923D01*
Y457422D01*
X439970D01*
Y457613D01*
X440018D01*
Y457948D01*
X440066D01*
Y458091D01*
X440113D01*
Y458425D01*
X440161D01*
Y458616D01*
X440209D01*
Y458854D01*
X440257D01*
Y459093D01*
X440304D01*
Y459284D01*
X440352D01*
Y459618D01*
X440400D01*
Y459761D01*
X440448D01*
Y460048D01*
X440495D01*
Y460286D01*
X440543D01*
Y460477D01*
X440591D01*
Y460764D01*
X440639D01*
Y460955D01*
X440686D01*
Y461289D01*
X440734D01*
Y461432D01*
X440782D01*
Y461670D01*
X440829D01*
Y461957D01*
X440877D01*
Y462148D01*
X440925D01*
Y462434D01*
X440973D01*
Y462625D01*
X441020D01*
Y462911D01*
X441068D01*
Y463102D01*
X441116D01*
Y463341D01*
X441163D01*
Y463627D01*
X441211D01*
Y463818D01*
X441259D01*
Y464105D01*
X441307D01*
Y464296D01*
X441354D01*
Y464534D01*
X441402D01*
Y464821D01*
X441450D01*
Y464964D01*
X441498D01*
Y465298D01*
X441545D01*
Y465441D01*
X441593D01*
Y465775D01*
X441641D01*
Y465966D01*
X441688D01*
Y466157D01*
X441736D01*
Y466491D01*
X441784D01*
Y466634D01*
X441832D01*
Y466968D01*
X441879D01*
Y467159D01*
X441927D01*
Y467398D01*
X441975D01*
Y467636D01*
X442023D01*
Y467827D01*
X442070D01*
Y468162D01*
X442118D01*
Y468305D01*
X442166D01*
Y468353D01*
X444839D01*
Y468305D01*
D02*
G37*
G36*
X400976Y468018D02*
X400928D01*
Y467732D01*
X400881D01*
Y467589D01*
X400833D01*
Y467255D01*
X400785D01*
Y467112D01*
X400737D01*
Y466825D01*
X400690D01*
Y466587D01*
X400642D01*
Y466396D01*
X400594D01*
Y466062D01*
X400546D01*
Y466014D01*
X400499D01*
Y465918D01*
X400451D01*
Y465871D01*
X400403D01*
Y465823D01*
X400355D01*
Y465775D01*
X400308D01*
Y465727D01*
X400260D01*
Y465680D01*
X400212D01*
Y465632D01*
X400164D01*
Y465536D01*
X400117D01*
Y465489D01*
X400069D01*
Y465441D01*
X400022D01*
Y465393D01*
X399974D01*
Y465346D01*
X399926D01*
Y465298D01*
X399878D01*
Y465250D01*
X399830D01*
Y465202D01*
X399783D01*
Y465107D01*
X399735D01*
Y465059D01*
X399687D01*
Y465011D01*
X399640D01*
Y464964D01*
X399592D01*
Y464916D01*
X399544D01*
Y464868D01*
X399496D01*
Y464821D01*
X399449D01*
Y464773D01*
X399401D01*
Y464725D01*
X399353D01*
Y464630D01*
X399305D01*
Y464582D01*
X399258D01*
Y464534D01*
X399210D01*
Y464487D01*
X399162D01*
Y464439D01*
X399114D01*
Y464391D01*
X399067D01*
Y464343D01*
X399019D01*
Y464248D01*
X398971D01*
Y464200D01*
X398923D01*
Y464152D01*
X398876D01*
Y464105D01*
X398828D01*
Y464057D01*
X398780D01*
Y464009D01*
X398733D01*
Y463961D01*
X398685D01*
Y463914D01*
X398637D01*
Y463818D01*
X398589D01*
Y463770D01*
X398542D01*
Y463723D01*
X398494D01*
Y463675D01*
X398446D01*
Y463627D01*
X398399D01*
Y463580D01*
X398351D01*
Y463532D01*
X398303D01*
Y463436D01*
X398255D01*
Y463389D01*
X398208D01*
Y463341D01*
X398160D01*
Y463293D01*
X398112D01*
Y463246D01*
X398064D01*
Y463198D01*
X398017D01*
Y463150D01*
X397969D01*
Y463055D01*
X397873D01*
Y462959D01*
X397826D01*
Y462911D01*
X397778D01*
Y462864D01*
X397730D01*
Y462816D01*
X397683D01*
Y462768D01*
X397635D01*
Y462720D01*
X397587D01*
Y462673D01*
X397539D01*
Y462625D01*
X397492D01*
Y462530D01*
X397444D01*
Y462482D01*
X397396D01*
Y462434D01*
X397349D01*
Y462386D01*
X397301D01*
Y462339D01*
X397253D01*
Y462291D01*
X397205D01*
Y462243D01*
X397158D01*
Y462148D01*
X397110D01*
Y462100D01*
X397062D01*
Y462052D01*
X397014D01*
Y462005D01*
X396967D01*
Y461957D01*
X396919D01*
Y461909D01*
X396871D01*
Y461861D01*
X396824D01*
Y461814D01*
X396776D01*
Y461766D01*
X396728D01*
Y461670D01*
X396680D01*
Y461623D01*
X396632D01*
Y461575D01*
X396585D01*
Y461527D01*
X396537D01*
Y461479D01*
X396489D01*
Y461432D01*
X396442D01*
Y461384D01*
X396394D01*
Y461289D01*
X396346D01*
Y461241D01*
X396298D01*
Y461193D01*
X396251D01*
Y461145D01*
X396203D01*
Y461098D01*
X396155D01*
Y461050D01*
X396107D01*
Y461002D01*
X396060D01*
Y460955D01*
X396012D01*
Y460859D01*
X395965D01*
Y460811D01*
X395917D01*
Y460764D01*
X395869D01*
Y460716D01*
X395821D01*
Y460668D01*
X395774D01*
Y460620D01*
X395726D01*
Y460573D01*
X395678D01*
Y460477D01*
X395630D01*
Y460429D01*
X395583D01*
Y460382D01*
X395535D01*
Y460334D01*
X395487D01*
Y460286D01*
X395439D01*
Y460238D01*
X395392D01*
Y460191D01*
X395344D01*
Y460095D01*
X395296D01*
Y460048D01*
X395248D01*
Y460000D01*
X395201D01*
Y459952D01*
X395153D01*
Y459905D01*
X395105D01*
Y459857D01*
X395057D01*
Y459809D01*
X395010D01*
Y459761D01*
X394962D01*
Y459714D01*
X394914D01*
Y459666D01*
X394867D01*
Y459570D01*
X394819D01*
Y459523D01*
X394771D01*
Y459475D01*
X394724D01*
Y459427D01*
X394676D01*
Y459380D01*
X394628D01*
Y459332D01*
X394580D01*
Y459284D01*
X394533D01*
Y459188D01*
X394485D01*
Y459141D01*
X394437D01*
Y459093D01*
X394389D01*
Y459045D01*
X394342D01*
Y458998D01*
X394294D01*
Y458950D01*
X394246D01*
Y458902D01*
X394198D01*
Y458807D01*
X394103D01*
Y458711D01*
X394055D01*
Y458663D01*
X394007D01*
Y458616D01*
X393960D01*
Y458568D01*
X393912D01*
Y458520D01*
X393864D01*
Y458473D01*
X393817D01*
Y458425D01*
X393769D01*
Y458330D01*
X393721D01*
Y458282D01*
X393673D01*
Y458234D01*
X393626D01*
Y458186D01*
X393578D01*
Y458139D01*
X393530D01*
Y458091D01*
X393483D01*
Y457995D01*
X393387D01*
Y457900D01*
X393339D01*
Y457852D01*
X393292D01*
Y457804D01*
X393244D01*
Y457757D01*
X393196D01*
Y457709D01*
X393148D01*
Y457661D01*
X393101D01*
Y457613D01*
X393053D01*
Y457518D01*
X393005D01*
Y457470D01*
X392958D01*
Y457422D01*
X392910D01*
Y457375D01*
X392862D01*
Y457327D01*
X392814D01*
Y457280D01*
X392767D01*
Y457232D01*
X392719D01*
Y457136D01*
X392671D01*
Y457089D01*
X392623D01*
Y457041D01*
X392576D01*
Y456993D01*
X392528D01*
Y456945D01*
X392480D01*
Y456898D01*
X392433D01*
Y456850D01*
X392385D01*
Y456802D01*
X392337D01*
Y456754D01*
X392289D01*
Y456707D01*
X392242D01*
Y456611D01*
X392194D01*
Y456563D01*
X392146D01*
Y456516D01*
X392098D01*
Y456468D01*
X392051D01*
Y456420D01*
X392003D01*
Y456373D01*
X391955D01*
Y456325D01*
X391907D01*
Y456230D01*
X391860D01*
Y456182D01*
X391812D01*
Y456134D01*
X391764D01*
Y456086D01*
X391717D01*
Y456039D01*
X391669D01*
Y455991D01*
X391621D01*
Y455943D01*
X391573D01*
Y455848D01*
X391526D01*
Y455800D01*
X391478D01*
Y455752D01*
X391430D01*
Y455704D01*
X391382D01*
Y455657D01*
X391335D01*
Y455609D01*
X391287D01*
Y455561D01*
X391239D01*
Y455514D01*
X391192D01*
Y455466D01*
X391144D01*
Y455418D01*
X391096D01*
Y455323D01*
X391048D01*
Y455275D01*
X391001D01*
Y455227D01*
X390953D01*
Y455179D01*
X390905D01*
Y455132D01*
X390858D01*
Y455036D01*
X390762D01*
Y454941D01*
X390714D01*
Y454893D01*
X390667D01*
Y454845D01*
X390619D01*
Y454798D01*
X390571D01*
Y454750D01*
X390523D01*
Y454702D01*
X390476D01*
Y454654D01*
X390428D01*
Y454559D01*
X390380D01*
Y454511D01*
X390332D01*
Y454464D01*
X390285D01*
Y454416D01*
X390237D01*
Y454368D01*
X390189D01*
Y454320D01*
X390141D01*
Y454272D01*
X390094D01*
Y454225D01*
X390046D01*
Y454129D01*
X389998D01*
Y454082D01*
X389951D01*
Y454034D01*
X389903D01*
Y453986D01*
X389855D01*
Y453938D01*
X389807D01*
Y453891D01*
X389760D01*
Y453843D01*
X389712D01*
Y453795D01*
X389664D01*
Y453748D01*
X389616D01*
Y453652D01*
X389569D01*
Y453604D01*
X389521D01*
Y453557D01*
X389473D01*
Y453509D01*
X389426D01*
Y453461D01*
X389378D01*
Y453413D01*
X389330D01*
Y453366D01*
X389282D01*
Y453270D01*
X389235D01*
Y453223D01*
X389187D01*
Y453175D01*
X389139D01*
Y453127D01*
X389091D01*
Y453079D01*
X389044D01*
Y453032D01*
X388996D01*
Y452984D01*
X388948D01*
Y452936D01*
X388901D01*
Y452841D01*
X388853D01*
Y452793D01*
X388805D01*
Y452745D01*
X388757D01*
Y452697D01*
X388710D01*
Y452650D01*
X388662D01*
Y452602D01*
X388614D01*
Y452554D01*
X388566D01*
Y452507D01*
X388519D01*
Y452459D01*
X388471D01*
Y452363D01*
X388423D01*
Y452316D01*
X388375D01*
Y452268D01*
X388328D01*
Y452220D01*
X388280D01*
Y452172D01*
X388232D01*
Y452077D01*
X388185D01*
Y452029D01*
X388137D01*
Y451982D01*
X388089D01*
Y451934D01*
X388041D01*
Y451886D01*
X387994D01*
Y451838D01*
X387946D01*
Y451791D01*
X387898D01*
Y451695D01*
X397826D01*
Y451647D01*
X397921D01*
Y451552D01*
X397873D01*
Y451266D01*
X397826D01*
Y451027D01*
X397778D01*
Y450836D01*
X397730D01*
Y450502D01*
X397683D01*
Y450311D01*
X397635D01*
Y450025D01*
X397587D01*
Y449834D01*
X397539D01*
Y449547D01*
X397492D01*
Y449261D01*
X397444D01*
Y449213D01*
X397349D01*
Y449166D01*
X384032D01*
Y449213D01*
X383937D01*
Y449356D01*
X383984D01*
Y449643D01*
X384032D01*
Y449834D01*
X384080D01*
Y450072D01*
X384128D01*
Y450359D01*
X384175D01*
Y450502D01*
X384223D01*
Y450836D01*
X384271D01*
Y450979D01*
X384319D01*
Y451266D01*
X384366D01*
Y451504D01*
X384414D01*
Y451552D01*
X384462D01*
Y451647D01*
X384510D01*
Y451695D01*
X384557D01*
Y451743D01*
X384605D01*
Y451791D01*
X384653D01*
Y451838D01*
X384700D01*
Y451886D01*
X384748D01*
Y451934D01*
X384796D01*
Y452029D01*
X384843D01*
Y452077D01*
X384891D01*
Y452125D01*
X384939D01*
Y452172D01*
X384987D01*
Y452220D01*
X385034D01*
Y452268D01*
X385082D01*
Y452316D01*
X385130D01*
Y452363D01*
X385178D01*
Y452411D01*
X385225D01*
Y452507D01*
X385273D01*
Y452554D01*
X385321D01*
Y452602D01*
X385369D01*
Y452650D01*
X385416D01*
Y452697D01*
X385464D01*
Y452745D01*
X385512D01*
Y452841D01*
X385560D01*
Y452888D01*
X385607D01*
Y452936D01*
X385655D01*
Y452984D01*
X385703D01*
Y453032D01*
X385750D01*
Y453079D01*
X385798D01*
Y453127D01*
X385846D01*
Y453175D01*
X385894D01*
Y453223D01*
X385941D01*
Y453318D01*
X385989D01*
Y453366D01*
X386037D01*
Y453413D01*
X386085D01*
Y453461D01*
X386132D01*
Y453509D01*
X386180D01*
Y453557D01*
X386228D01*
Y453604D01*
X386275D01*
Y453700D01*
X386323D01*
Y453748D01*
X386371D01*
Y453795D01*
X386419D01*
Y453843D01*
X386466D01*
Y453891D01*
X386514D01*
Y453938D01*
X386562D01*
Y453986D01*
X386609D01*
Y454082D01*
X386657D01*
Y454129D01*
X386705D01*
Y454177D01*
X386753D01*
Y454225D01*
X386800D01*
Y454272D01*
X386848D01*
Y454320D01*
X386896D01*
Y454368D01*
X386944D01*
Y454416D01*
X386991D01*
Y454511D01*
X387039D01*
Y454559D01*
X387087D01*
Y454607D01*
X387135D01*
Y454654D01*
X387182D01*
Y454702D01*
X387230D01*
Y454750D01*
X387278D01*
Y454798D01*
X387326D01*
Y454893D01*
X387421D01*
Y454989D01*
X387469D01*
Y455036D01*
X387516D01*
Y455084D01*
X387564D01*
Y455132D01*
X387612D01*
Y455179D01*
X387660D01*
Y455227D01*
X387707D01*
Y455275D01*
X387755D01*
Y455370D01*
X387803D01*
Y455418D01*
X387850D01*
Y455466D01*
X387898D01*
Y455514D01*
X387946D01*
Y455561D01*
X387994D01*
Y455609D01*
X388041D01*
Y455657D01*
X388089D01*
Y455752D01*
X388137D01*
Y455800D01*
X388185D01*
Y455848D01*
X388232D01*
Y455895D01*
X388280D01*
Y455943D01*
X388328D01*
Y455991D01*
X388375D01*
Y456039D01*
X388423D01*
Y456086D01*
X388471D01*
Y456182D01*
X388566D01*
Y456277D01*
X388614D01*
Y456325D01*
X388662D01*
Y456373D01*
X388710D01*
Y456420D01*
X388757D01*
Y456468D01*
X388805D01*
Y456563D01*
X388853D01*
Y456611D01*
X388901D01*
Y456659D01*
X388948D01*
Y456707D01*
X388996D01*
Y456754D01*
X389044D01*
Y456802D01*
X389091D01*
Y456850D01*
X389139D01*
Y456945D01*
X389187D01*
Y456993D01*
X389235D01*
Y457041D01*
X389282D01*
Y457089D01*
X389330D01*
Y457136D01*
X389378D01*
Y457184D01*
X389426D01*
Y457232D01*
X389473D01*
Y457280D01*
X389521D01*
Y457327D01*
X389569D01*
Y457422D01*
X389616D01*
Y457470D01*
X389664D01*
Y457518D01*
X389712D01*
Y457566D01*
X389760D01*
Y457613D01*
X389807D01*
Y457661D01*
X389855D01*
Y457757D01*
X389951D01*
Y457852D01*
X389998D01*
Y457900D01*
X390046D01*
Y457948D01*
X390094D01*
Y457995D01*
X390141D01*
Y458043D01*
X390189D01*
Y458091D01*
X390237D01*
Y458139D01*
X390285D01*
Y458234D01*
X390332D01*
Y458282D01*
X390380D01*
Y458330D01*
X390428D01*
Y458377D01*
X390476D01*
Y458425D01*
X390523D01*
Y458473D01*
X390571D01*
Y458520D01*
X390619D01*
Y458616D01*
X390667D01*
Y458663D01*
X390714D01*
Y458711D01*
X390762D01*
Y458759D01*
X390810D01*
Y458807D01*
X390858D01*
Y458854D01*
X390905D01*
Y458902D01*
X390953D01*
Y458950D01*
X391001D01*
Y459045D01*
X391096D01*
Y459141D01*
X391144D01*
Y459188D01*
X391192D01*
Y459236D01*
X391239D01*
Y459284D01*
X391287D01*
Y459332D01*
X391335D01*
Y459427D01*
X391382D01*
Y459475D01*
X391430D01*
Y459523D01*
X391478D01*
Y459570D01*
X391526D01*
Y459618D01*
X391573D01*
Y459666D01*
X391621D01*
Y459714D01*
X391669D01*
Y459809D01*
X391764D01*
Y459905D01*
X391812D01*
Y459952D01*
X391860D01*
Y460000D01*
X391907D01*
Y460048D01*
X391955D01*
Y460095D01*
X392003D01*
Y460143D01*
X392051D01*
Y460191D01*
X392098D01*
Y460238D01*
X392146D01*
Y460334D01*
X392194D01*
Y460382D01*
X392242D01*
Y460429D01*
X392289D01*
Y460477D01*
X392337D01*
Y460525D01*
X392385D01*
Y460573D01*
X392433D01*
Y460620D01*
X392480D01*
Y460716D01*
X392528D01*
Y460764D01*
X392576D01*
Y460811D01*
X392623D01*
Y460859D01*
X392671D01*
Y460907D01*
X392719D01*
Y460955D01*
X392767D01*
Y461002D01*
X392814D01*
Y461098D01*
X392910D01*
Y461193D01*
X392958D01*
Y461241D01*
X393005D01*
Y461289D01*
X393053D01*
Y461336D01*
X393101D01*
Y461384D01*
X393148D01*
Y461432D01*
X393196D01*
Y461527D01*
X393244D01*
Y461575D01*
X393292D01*
Y461623D01*
X393339D01*
Y461670D01*
X393387D01*
Y461718D01*
X393435D01*
Y461766D01*
X393483D01*
Y461814D01*
X393530D01*
Y461861D01*
X393578D01*
Y461909D01*
X393626D01*
Y462005D01*
X393673D01*
Y462052D01*
X393721D01*
Y462100D01*
X393769D01*
Y462148D01*
X393817D01*
Y462195D01*
X393864D01*
Y462243D01*
X393912D01*
Y462291D01*
X393960D01*
Y462386D01*
X394007D01*
Y462434D01*
X394055D01*
Y462482D01*
X394103D01*
Y462530D01*
X394151D01*
Y462577D01*
X394198D01*
Y462673D01*
X394294D01*
Y462768D01*
X394342D01*
Y462816D01*
X394389D01*
Y462864D01*
X394437D01*
Y462911D01*
X394485D01*
Y462959D01*
X394533D01*
Y463007D01*
X394580D01*
Y463055D01*
X394628D01*
Y463102D01*
X394676D01*
Y463198D01*
X394724D01*
Y463246D01*
X394771D01*
Y463293D01*
X394819D01*
Y463341D01*
X394867D01*
Y463389D01*
X394914D01*
Y463436D01*
X394962D01*
Y463484D01*
X395010D01*
Y463580D01*
X395057D01*
Y463627D01*
X395105D01*
Y463675D01*
X395153D01*
Y463723D01*
X395201D01*
Y463770D01*
X395248D01*
Y463818D01*
X395296D01*
Y463866D01*
X395344D01*
Y463914D01*
X395392D01*
Y463961D01*
X395439D01*
Y464057D01*
X395487D01*
Y464105D01*
X395535D01*
Y464152D01*
X395583D01*
Y464200D01*
X395630D01*
Y464248D01*
X395678D01*
Y464296D01*
X395726D01*
Y464343D01*
X395774D01*
Y464439D01*
X395821D01*
Y464487D01*
X395869D01*
Y464534D01*
X395917D01*
Y464582D01*
X395965D01*
Y464630D01*
X396012D01*
Y464677D01*
X396060D01*
Y464725D01*
X396107D01*
Y464773D01*
X396155D01*
Y464868D01*
X396203D01*
Y464916D01*
X396251D01*
Y464964D01*
X396298D01*
Y465011D01*
X396346D01*
Y465059D01*
X396394D01*
Y465107D01*
X396442D01*
Y465155D01*
X396489D01*
Y465250D01*
X396537D01*
Y465298D01*
X396585D01*
Y465346D01*
X396632D01*
Y465393D01*
X396680D01*
Y465441D01*
X396728D01*
Y465489D01*
X396776D01*
Y465536D01*
X396824D01*
Y465632D01*
X396871D01*
Y465680D01*
X396919D01*
Y465727D01*
X396967D01*
Y465775D01*
X397014D01*
Y465823D01*
X397062D01*
Y465871D01*
X387612D01*
Y465918D01*
X387564D01*
Y466062D01*
X387612D01*
Y466205D01*
X387660D01*
Y466539D01*
X387707D01*
Y466730D01*
X387755D01*
Y467016D01*
X387803D01*
Y467255D01*
X387850D01*
Y467446D01*
X387898D01*
Y467780D01*
X387946D01*
Y467923D01*
X387994D01*
Y468257D01*
X388041D01*
Y468353D01*
X400976D01*
Y468018D01*
D02*
G37*
G36*
X325783Y347424D02*
X325924Y347283D01*
X326000Y347099D01*
Y347000D01*
Y345000D01*
Y344901D01*
X325924Y344717D01*
X325783Y344576D01*
X325600Y344500D01*
X318901D01*
X318717Y344576D01*
X318576Y344717D01*
X318500Y344901D01*
Y345000D01*
Y347000D01*
Y347099D01*
X318576Y347283D01*
X318717Y347424D01*
X318901Y347500D01*
X325600D01*
X325783Y347424D01*
D02*
G37*
G36*
X301283D02*
X301424Y347283D01*
X301500Y347099D01*
Y347000D01*
Y345000D01*
Y344901D01*
X301424Y344717D01*
X301283Y344576D01*
X301099Y344500D01*
X294401D01*
X294217Y344576D01*
X294076Y344717D01*
X294000Y344901D01*
Y345000D01*
Y347000D01*
Y347099D01*
X294076Y347283D01*
X294217Y347424D01*
X294401Y347500D01*
X301099D01*
X301283Y347424D01*
D02*
G37*
G36*
X325783Y339424D02*
X325924Y339283D01*
X326000Y339099D01*
Y339000D01*
Y337000D01*
Y336900D01*
X325924Y336717D01*
X325783Y336576D01*
X325600Y336500D01*
X318901D01*
X318717Y336576D01*
X318576Y336717D01*
X318500Y336900D01*
Y337000D01*
Y339000D01*
Y339099D01*
X318576Y339283D01*
X318717Y339424D01*
X318901Y339500D01*
X325600D01*
X325783Y339424D01*
D02*
G37*
G36*
X301283D02*
X301424Y339283D01*
X301500Y339099D01*
Y339000D01*
Y337000D01*
Y336900D01*
X301424Y336717D01*
X301283Y336576D01*
X301099Y336500D01*
X294401D01*
X294217Y336576D01*
X294076Y336717D01*
X294000Y336900D01*
Y337000D01*
Y339000D01*
Y339099D01*
X294076Y339283D01*
X294217Y339424D01*
X294401Y339500D01*
X301099D01*
X301283Y339424D01*
D02*
G37*
G36*
X325783Y331424D02*
X325924Y331283D01*
X326000Y331099D01*
Y331000D01*
Y329000D01*
Y328900D01*
X325924Y328717D01*
X325783Y328576D01*
X325600Y328500D01*
X318901D01*
X318717Y328576D01*
X318576Y328717D01*
X318500Y328900D01*
Y329000D01*
Y331000D01*
Y331099D01*
X318576Y331283D01*
X318717Y331424D01*
X318901Y331500D01*
X325600D01*
X325783Y331424D01*
D02*
G37*
G36*
X301283D02*
X301424Y331283D01*
X301500Y331099D01*
Y331000D01*
Y329000D01*
Y328900D01*
X301424Y328717D01*
X301283Y328576D01*
X301099Y328500D01*
X294401D01*
X294217Y328576D01*
X294076Y328717D01*
X294000Y328900D01*
Y329000D01*
Y331000D01*
Y331099D01*
X294076Y331283D01*
X294217Y331424D01*
X294401Y331500D01*
X301099D01*
X301283Y331424D01*
D02*
G37*
G36*
X325783Y323424D02*
X325924Y323283D01*
X326000Y323099D01*
Y323000D01*
Y321000D01*
Y320900D01*
X325924Y320717D01*
X325783Y320576D01*
X325600Y320500D01*
X318901D01*
X318717Y320576D01*
X318576Y320717D01*
X318500Y320900D01*
Y321000D01*
Y323000D01*
Y323099D01*
X318576Y323283D01*
X318717Y323424D01*
X318901Y323500D01*
X325600D01*
X325783Y323424D01*
D02*
G37*
G36*
X301283D02*
X301424Y323283D01*
X301500Y323099D01*
Y323000D01*
Y321000D01*
Y320900D01*
X301424Y320717D01*
X301283Y320576D01*
X301099Y320500D01*
X294401D01*
X294217Y320576D01*
X294076Y320717D01*
X294000Y320900D01*
Y321000D01*
Y323000D01*
Y323099D01*
X294076Y323283D01*
X294217Y323424D01*
X294401Y323500D01*
X301099D01*
X301283Y323424D01*
D02*
G37*
G36*
X325783Y315424D02*
X325924Y315283D01*
X326000Y315099D01*
Y315000D01*
Y313000D01*
Y312901D01*
X325924Y312717D01*
X325783Y312576D01*
X325600Y312500D01*
X318901D01*
X318717Y312576D01*
X318576Y312717D01*
X318500Y312901D01*
Y313000D01*
Y315000D01*
Y315099D01*
X318576Y315283D01*
X318717Y315424D01*
X318901Y315500D01*
X325600D01*
X325783Y315424D01*
D02*
G37*
G36*
X301283D02*
X301424Y315283D01*
X301500Y315099D01*
Y315000D01*
Y313000D01*
Y312901D01*
X301424Y312717D01*
X301283Y312576D01*
X301099Y312500D01*
X294401D01*
X294217Y312576D01*
X294076Y312717D01*
X294000Y312901D01*
Y313000D01*
Y315000D01*
Y315099D01*
X294076Y315283D01*
X294217Y315424D01*
X294401Y315500D01*
X301099D01*
X301283Y315424D01*
D02*
G37*
G36*
X311783Y350424D02*
X311924Y350283D01*
X312000Y350099D01*
Y350000D01*
Y310000D01*
Y309900D01*
X311924Y309717D01*
X311783Y309576D01*
X311600Y309500D01*
X311500D01*
Y309500D01*
X308500Y309500D01*
X308401D01*
X308217Y309576D01*
X308076Y309717D01*
X308000Y309900D01*
Y310000D01*
Y350000D01*
Y350099D01*
X308076Y350283D01*
X308217Y350424D01*
X308401Y350500D01*
X311600D01*
X311783Y350424D01*
D02*
G37*
D15*
X222500Y35250D02*
D03*
X227500D02*
D03*
X232500D02*
D03*
X237500D02*
D03*
X242500D02*
D03*
X247500D02*
D03*
X252500D02*
D03*
X257500D02*
D03*
X262500D02*
D03*
X267500D02*
D03*
X272500D02*
D03*
X277500D02*
D03*
X282500D02*
D03*
X287500D02*
D03*
X292500D02*
D03*
X297500D02*
D03*
X302500D02*
D03*
X307500D02*
D03*
X312500D02*
D03*
X317500D02*
D03*
X322500D02*
D03*
X327500D02*
D03*
X332500D02*
D03*
X337500D02*
D03*
D16*
X214600Y8750D02*
D03*
X345400D02*
D03*
D17*
X243250Y55000D02*
D03*
X248750D02*
D03*
X231250D02*
D03*
X236750D02*
D03*
D18*
X324000Y290000D02*
D03*
X296000D02*
D03*
X324000Y370000D02*
D03*
X296000D02*
D03*
D19*
X530000Y460000D02*
D03*
Y30000D02*
D03*
X30000Y460000D02*
D03*
Y30000D02*
D03*
D20*
X40000Y105700D02*
D03*
Y80300D02*
D03*
X520000Y377300D02*
D03*
Y402700D02*
D03*
X520000Y247300D02*
D03*
Y272700D02*
D03*
D21*
X70000Y190000D02*
D03*
Y290000D02*
D03*
X70000Y390000D02*
D03*
X460000Y272700D02*
D03*
X129000Y27300D02*
D03*
X270000Y320000D02*
D03*
D22*
X70000Y164600D02*
D03*
Y264600D02*
D03*
X70000Y364600D02*
D03*
X460000Y247300D02*
D03*
X437300Y410000D02*
D03*
X462700Y370000D02*
D03*
X129000Y52700D02*
D03*
X270000Y294600D02*
D03*
X266468Y151868D02*
D03*
D23*
X130000Y190000D02*
D03*
X104600Y215400D02*
D03*
Y164600D02*
D03*
X155400D02*
D03*
Y215400D02*
D03*
X130000Y290000D02*
D03*
X104600Y264600D02*
D03*
X155400D02*
D03*
Y315400D02*
D03*
X104600D02*
D03*
X130000Y390000D02*
D03*
X104600Y415400D02*
D03*
Y364600D02*
D03*
X155400D02*
D03*
Y415400D02*
D03*
X291868Y211868D02*
D03*
X266468Y237268D02*
D03*
Y186468D02*
D03*
X317268D02*
D03*
Y237268D02*
D03*
D24*
X462700Y410000D02*
D03*
X437300Y370000D02*
D03*
X291868Y151868D02*
D03*
D25*
X130000Y110000D02*
D03*
X104600D02*
D03*
X155400D02*
D03*
M02*
