G04*
G04 #@! TF.GenerationSoftware,Altium Limited,Altium Designer,25.0.2 (28)*
G04*
G04 Layer_Physical_Order=2*
G04 Layer_Color=16711680*
%FSLAX44Y44*%
%MOMM*%
G71*
G04*
G04 #@! TF.SameCoordinates,03372A04-C462-4CF8-ACA0-C5B6D0AAF50A*
G04*
G04*
G04 #@! TF.FilePolarity,Positive*
G04*
G01*
G75*
%ADD11C,0.2500*%
%ADD19C,4.5000*%
%ADD20O,2.5000X1.7500*%
%ADD21R,1.5200X1.5200*%
%ADD22C,1.5200*%
%ADD23C,2.3000*%
%ADD24R,1.5200X1.5200*%
%ADD25C,2.0000*%
%ADD33C,0.6000*%
G36*
X558918Y1082D02*
X265000D01*
Y90000D01*
X240000Y115000D01*
Y488918D01*
X558918D01*
Y1082D01*
D02*
G37*
G36*
X229000Y116000D02*
X259000Y86000D01*
Y1082D01*
X1082D01*
Y488918D01*
X229000D01*
Y116000D01*
D02*
G37*
%LPC*%
G36*
X532462Y485000D02*
X531250D01*
Y461250D01*
X555000D01*
Y462462D01*
X554039Y467292D01*
X552155Y471842D01*
X549419Y475937D01*
X545937Y479419D01*
X541842Y482155D01*
X537292Y484039D01*
X532462Y485000D01*
D02*
G37*
G36*
X528750D02*
X527538D01*
X522708Y484039D01*
X518158Y482155D01*
X514063Y479419D01*
X510581Y475937D01*
X507845Y471842D01*
X505961Y467292D01*
X505000Y462462D01*
Y461250D01*
X528750D01*
Y485000D01*
D02*
G37*
G36*
X555000Y458750D02*
X531250D01*
Y435000D01*
X532462D01*
X537292Y435961D01*
X541842Y437845D01*
X545937Y440581D01*
X549419Y444063D01*
X552155Y448158D01*
X554039Y452708D01*
X555000Y457538D01*
Y458750D01*
D02*
G37*
G36*
X528750D02*
X505000D01*
Y457538D01*
X505961Y452708D01*
X507845Y448158D01*
X510581Y444063D01*
X514063Y440581D01*
X518158Y437845D01*
X522708Y435961D01*
X527538Y435000D01*
X528750D01*
Y458750D01*
D02*
G37*
G36*
X472300Y419600D02*
X453100D01*
Y400400D01*
X472300D01*
Y419600D01*
D02*
G37*
G36*
X438564D02*
X436036D01*
X433595Y418946D01*
X431405Y417682D01*
X429618Y415895D01*
X428354Y413705D01*
X427700Y411264D01*
Y408736D01*
X428354Y406295D01*
X429618Y404105D01*
X431405Y402318D01*
X433595Y401054D01*
X436036Y400400D01*
X438564D01*
X441005Y401054D01*
X443195Y402318D01*
X444982Y404105D01*
X446246Y406295D01*
X446900Y408736D01*
Y411264D01*
X446246Y413705D01*
X444982Y415895D01*
X443195Y417682D01*
X441005Y418946D01*
X438564Y419600D01*
D02*
G37*
G36*
X523750Y413543D02*
X516250D01*
X513444Y413173D01*
X510829Y412090D01*
X508583Y410367D01*
X506860Y408121D01*
X505777Y405506D01*
X505407Y402700D01*
X505777Y399894D01*
X506860Y397279D01*
X508583Y395033D01*
X510829Y393310D01*
X513444Y392227D01*
X516250Y391857D01*
X523750D01*
X526556Y392227D01*
X529171Y393310D01*
X531417Y395033D01*
X533140Y397279D01*
X534223Y399894D01*
X534593Y402700D01*
X534223Y405506D01*
X533140Y408121D01*
X531417Y410367D01*
X529171Y412090D01*
X526556Y413173D01*
X523750Y413543D01*
D02*
G37*
G36*
X447400Y380100D02*
X438550D01*
Y371250D01*
X447400D01*
Y380100D01*
D02*
G37*
G36*
X436050D02*
X427200D01*
Y371250D01*
X436050D01*
Y380100D01*
D02*
G37*
G36*
X523750Y388143D02*
X516250D01*
X513444Y387773D01*
X510829Y386690D01*
X508583Y384967D01*
X506860Y382721D01*
X505777Y380106D01*
X505407Y377300D01*
X505777Y374494D01*
X506860Y371879D01*
X508583Y369633D01*
X510829Y367910D01*
X513444Y366827D01*
X516250Y366457D01*
X523750D01*
X526556Y366827D01*
X529171Y367910D01*
X531417Y369633D01*
X533140Y371879D01*
X534223Y374494D01*
X534593Y377300D01*
X534223Y380106D01*
X533140Y382721D01*
X531417Y384967D01*
X529171Y386690D01*
X526556Y387773D01*
X523750Y388143D01*
D02*
G37*
G36*
X463964Y379600D02*
X461436D01*
X458994Y378946D01*
X456805Y377682D01*
X455018Y375895D01*
X453754Y373705D01*
X453100Y371264D01*
Y368736D01*
X453754Y366295D01*
X455018Y364105D01*
X456805Y362318D01*
X458994Y361054D01*
X461436Y360400D01*
X463964D01*
X466405Y361054D01*
X468595Y362318D01*
X470382Y364105D01*
X471646Y366295D01*
X472300Y368736D01*
Y371264D01*
X471646Y373705D01*
X470382Y375895D01*
X468595Y377682D01*
X466405Y378946D01*
X463964Y379600D01*
D02*
G37*
G36*
X447400Y368750D02*
X438550D01*
Y359900D01*
X447400D01*
Y368750D01*
D02*
G37*
G36*
X436050D02*
X427200D01*
Y359900D01*
X436050D01*
Y368750D01*
D02*
G37*
G36*
X326050Y327659D02*
X324369Y327659D01*
X315257Y327659D01*
X313550Y327659D01*
X313451Y327659D01*
X313450Y327659D01*
X313431Y327651D01*
X313409D01*
X313409Y327650D01*
X313225Y327575D01*
X313210Y327559D01*
X313190Y327551D01*
X313050Y327410D01*
X313041Y327391D01*
X313026Y327375D01*
X312950Y327192D01*
X312950Y327192D01*
X312950Y327170D01*
X312942Y327150D01*
X312942Y327150D01*
X312942Y327051D01*
X312942Y325370D01*
X312942Y325369D01*
X312942Y325344D01*
Y309451D01*
X312950Y309431D01*
Y309410D01*
X313026Y309226D01*
X313041Y309211D01*
X313050Y309191D01*
X313190Y309050D01*
X313210Y309042D01*
X313225Y309027D01*
X313409Y308951D01*
X313431D01*
X313451Y308942D01*
X313550D01*
X313550Y308942D01*
X317150D01*
X317169Y308951D01*
X317191D01*
X317375Y309027D01*
X317390Y309042D01*
X317410Y309050D01*
X317550Y309191D01*
X317559Y309211D01*
X317574Y309226D01*
X317650Y309410D01*
Y309431D01*
X317658Y309451D01*
Y309551D01*
X317658Y309551D01*
Y314107D01*
X319994Y316442D01*
X326149Y316442D01*
X326150Y316442D01*
X326169Y316451D01*
X326191D01*
X326191Y316451D01*
X326375Y316527D01*
X326390Y316542D01*
X326410Y316550D01*
X326550Y316691D01*
X326559Y316711D01*
X326574Y316726D01*
X326650Y316910D01*
X326650Y316910D01*
X326650Y316931D01*
X326658Y316951D01*
X326658Y316951D01*
X326658Y317050D01*
X326658Y317051D01*
X326658Y319150D01*
X326650Y319170D01*
Y319191D01*
X326574Y319375D01*
X326559Y319390D01*
X326550Y319410D01*
X326410Y319551D01*
X326390Y319559D01*
X326375Y319574D01*
X326191Y319651D01*
X326169D01*
X326149Y319659D01*
X326050D01*
X326050Y319659D01*
X318055D01*
X317979Y319666D01*
X317833Y319727D01*
X317726Y319834D01*
X317666Y319980D01*
X317658Y320056D01*
Y322107D01*
X319994Y324442D01*
X326149Y324442D01*
X326150Y324442D01*
X326169Y324451D01*
X326191D01*
X326191Y324451D01*
X326375Y324527D01*
X326390Y324542D01*
X326410Y324550D01*
X326550Y324691D01*
X326559Y324711D01*
X326574Y324726D01*
X326650Y324910D01*
X326650Y324910D01*
X326650Y324915D01*
D01*
X326650Y324931D01*
X326658Y324951D01*
X326658Y324951D01*
X326658Y325050D01*
X326658Y325051D01*
X326658Y326594D01*
Y327150D01*
X326658Y327150D01*
X326651Y327166D01*
X326650Y327191D01*
X326650Y327192D01*
X326574Y327375D01*
X326574Y327375D01*
X326559Y327390D01*
X326550Y327410D01*
X326550Y327410D01*
X326410Y327551D01*
X326410Y327551D01*
X326390Y327559D01*
X326375Y327574D01*
X326375Y327575D01*
X326191Y327650D01*
X326191Y327651D01*
X326169Y327651D01*
X326150Y327659D01*
X326149Y327659D01*
X326050Y327659D01*
X326050Y327659D01*
D02*
G37*
G36*
X312994Y362000D02*
X311005D01*
X309168Y361239D01*
X307761Y359832D01*
X307000Y357995D01*
Y356005D01*
X307761Y354168D01*
X309168Y352761D01*
X311005Y352000D01*
X311367D01*
X311686Y351680D01*
Y339534D01*
X308084Y335931D01*
X307482Y335811D01*
X306407Y335093D01*
X296627Y325314D01*
X290757D01*
X289832Y326239D01*
X287994Y327000D01*
X286005D01*
X284168Y326239D01*
X282761Y324832D01*
X282156Y323371D01*
X282000Y322995D01*
X279600Y323236D01*
Y329600D01*
X260400D01*
Y310400D01*
X279600D01*
Y320764D01*
X282000Y321005D01*
X282156Y320629D01*
X282761Y319168D01*
X284168Y317761D01*
X286005Y317000D01*
X287994D01*
X289832Y317761D01*
X290757Y318686D01*
X298000D01*
X299268Y318939D01*
X300343Y319657D01*
X310255Y329569D01*
X310857Y329689D01*
X311932Y330407D01*
X317343Y335818D01*
X318061Y336893D01*
X318314Y338161D01*
Y353053D01*
X318061Y354321D01*
X317343Y355396D01*
X316922Y355817D01*
X317000Y356005D01*
Y357995D01*
X316239Y359832D01*
X314832Y361239D01*
X312994Y362000D01*
D02*
G37*
G36*
X271330Y304700D02*
X271250D01*
Y295850D01*
X280100D01*
Y295930D01*
X279412Y298498D01*
X278082Y300802D01*
X276201Y302682D01*
X273898Y304012D01*
X271330Y304700D01*
D02*
G37*
G36*
X268750D02*
X268670D01*
X266102Y304012D01*
X263799Y302682D01*
X261918Y300802D01*
X260588Y298498D01*
X259900Y295930D01*
Y295850D01*
X268750D01*
Y304700D01*
D02*
G37*
G36*
X280100Y293350D02*
X271250D01*
Y284500D01*
X271330D01*
X273898Y285188D01*
X276201Y286518D01*
X278082Y288398D01*
X279412Y290702D01*
X280100Y293270D01*
Y293350D01*
D02*
G37*
G36*
X268750D02*
X259900D01*
Y293270D01*
X260588Y290702D01*
X261918Y288398D01*
X263799Y286518D01*
X266102Y285188D01*
X268670Y284500D01*
X268750D01*
Y293350D01*
D02*
G37*
G36*
X469600Y282300D02*
X450400D01*
Y263100D01*
X469600D01*
Y282300D01*
D02*
G37*
G36*
X523750Y283543D02*
X516250D01*
X513444Y283173D01*
X510829Y282090D01*
X508583Y280367D01*
X506860Y278121D01*
X505777Y275506D01*
X505407Y272700D01*
X505777Y269894D01*
X506860Y267279D01*
X508583Y265033D01*
X510829Y263310D01*
X513444Y262227D01*
X516250Y261857D01*
X523750D01*
X526556Y262227D01*
X529171Y263310D01*
X531417Y265033D01*
X533140Y267279D01*
X534223Y269894D01*
X534593Y272700D01*
X534223Y275506D01*
X533140Y278121D01*
X531417Y280367D01*
X529171Y282090D01*
X526556Y283173D01*
X523750Y283543D01*
D02*
G37*
G36*
X461330Y257400D02*
X461250D01*
Y248550D01*
X470100D01*
Y248630D01*
X469412Y251198D01*
X468082Y253501D01*
X466202Y255382D01*
X463898Y256712D01*
X461330Y257400D01*
D02*
G37*
G36*
X458750D02*
X458670D01*
X456101Y256712D01*
X453798Y255382D01*
X451918Y253501D01*
X450588Y251198D01*
X449900Y248630D01*
Y248550D01*
X458750D01*
Y257400D01*
D02*
G37*
G36*
X523750Y258647D02*
X521250D01*
Y248550D01*
X534933D01*
X534710Y250237D01*
X533577Y252973D01*
X531774Y255324D01*
X529423Y257127D01*
X526687Y258260D01*
X523750Y258647D01*
D02*
G37*
G36*
X518750D02*
X516250D01*
X513313Y258260D01*
X510576Y257127D01*
X508226Y255324D01*
X506423Y252973D01*
X505289Y250237D01*
X505067Y248550D01*
X518750D01*
Y258647D01*
D02*
G37*
G36*
X319111Y251268D02*
X318518D01*
Y238518D01*
X331268D01*
Y239111D01*
X330314Y242672D01*
X328471Y245865D01*
X325864Y248471D01*
X322672Y250314D01*
X319111Y251268D01*
D02*
G37*
G36*
X268311D02*
X267718D01*
Y238518D01*
X280468D01*
Y239111D01*
X279514Y242672D01*
X277671Y245865D01*
X275065Y248471D01*
X271872Y250314D01*
X268311Y251268D01*
D02*
G37*
G36*
X316018D02*
X315425D01*
X311864Y250314D01*
X308672Y248471D01*
X306066Y245865D01*
X304222Y242672D01*
X303268Y239111D01*
Y238518D01*
X316018D01*
Y251268D01*
D02*
G37*
G36*
X265218D02*
X264625D01*
X261064Y250314D01*
X257872Y248471D01*
X255266Y245865D01*
X253422Y242672D01*
X252468Y239111D01*
Y238518D01*
X265218D01*
Y251268D01*
D02*
G37*
G36*
X470100Y246050D02*
X461250D01*
Y237200D01*
X461330D01*
X463898Y237888D01*
X466202Y239218D01*
X468082Y241098D01*
X469412Y243402D01*
X470100Y245970D01*
Y246050D01*
D02*
G37*
G36*
X458750D02*
X449900D01*
Y245970D01*
X450588Y243402D01*
X451918Y241098D01*
X453798Y239218D01*
X456101Y237888D01*
X458670Y237200D01*
X458750D01*
Y246050D01*
D02*
G37*
G36*
X534933Y246050D02*
X521250D01*
Y235953D01*
X523750D01*
X526687Y236340D01*
X529423Y237473D01*
X531774Y239276D01*
X533577Y241626D01*
X534710Y244363D01*
X534933Y246050D01*
D02*
G37*
G36*
X518750D02*
X505067D01*
X505289Y244363D01*
X506423Y241626D01*
X508226Y239276D01*
X510576Y237473D01*
X513313Y236340D01*
X516250Y235953D01*
X518750D01*
Y246050D01*
D02*
G37*
G36*
X331268Y236018D02*
X318518D01*
Y223268D01*
X319111D01*
X322672Y224222D01*
X325864Y226066D01*
X328471Y228672D01*
X330314Y231864D01*
X331268Y235425D01*
Y236018D01*
D02*
G37*
G36*
X316018D02*
X303268D01*
Y235425D01*
X304222Y231864D01*
X306066Y228672D01*
X308672Y226066D01*
X311864Y224222D01*
X315425Y223268D01*
X316018D01*
Y236018D01*
D02*
G37*
G36*
X280468D02*
X267718D01*
Y223268D01*
X268311D01*
X271872Y224222D01*
X275065Y226066D01*
X277671Y228672D01*
X279514Y231864D01*
X280468Y235425D01*
Y236018D01*
D02*
G37*
G36*
X265218D02*
X252468D01*
Y235425D01*
X253422Y231864D01*
X255266Y228672D01*
X257872Y226066D01*
X261064Y224222D01*
X264625Y223268D01*
X265218D01*
Y236018D01*
D02*
G37*
G36*
X293646Y225368D02*
X290091D01*
X286658Y224448D01*
X283579Y222671D01*
X281066Y220157D01*
X279288Y217079D01*
X278368Y213646D01*
Y210091D01*
X279288Y206657D01*
X281066Y203579D01*
X283579Y201066D01*
X286658Y199288D01*
X290091Y198368D01*
X293646D01*
X297079Y199288D01*
X300158Y201066D01*
X302671Y203579D01*
X304448Y206657D01*
X305368Y210091D01*
Y213646D01*
X304448Y217079D01*
X302671Y220157D01*
X300158Y222671D01*
X297079Y224448D01*
X293646Y225368D01*
D02*
G37*
G36*
X319111Y200468D02*
X318518D01*
Y187718D01*
X331268D01*
Y188311D01*
X330314Y191872D01*
X328471Y195065D01*
X325864Y197671D01*
X322672Y199514D01*
X319111Y200468D01*
D02*
G37*
G36*
X268311D02*
X267718D01*
Y187718D01*
X280468D01*
Y188311D01*
X279514Y191872D01*
X277671Y195065D01*
X275065Y197671D01*
X271872Y199514D01*
X268311Y200468D01*
D02*
G37*
G36*
X316018D02*
X315425D01*
X311864Y199514D01*
X308672Y197671D01*
X306066Y195065D01*
X304222Y191872D01*
X303268Y188311D01*
Y187718D01*
X316018D01*
Y200468D01*
D02*
G37*
G36*
X265218D02*
X264625D01*
X261064Y199514D01*
X257872Y197671D01*
X255266Y195065D01*
X253422Y191872D01*
X252468Y188311D01*
Y187718D01*
X265218D01*
Y200468D01*
D02*
G37*
G36*
X331268Y185218D02*
X318518D01*
Y172468D01*
X319111D01*
X322672Y173422D01*
X325864Y175266D01*
X328471Y177872D01*
X330314Y181064D01*
X331268Y184625D01*
Y185218D01*
D02*
G37*
G36*
X316018D02*
X303268D01*
Y184625D01*
X304222Y181064D01*
X306066Y177872D01*
X308672Y175266D01*
X311864Y173422D01*
X315425Y172468D01*
X316018D01*
Y185218D01*
D02*
G37*
G36*
X280468D02*
X267718D01*
Y172468D01*
X268311D01*
X271872Y173422D01*
X275065Y175266D01*
X277671Y177872D01*
X279514Y181064D01*
X280468Y184625D01*
Y185218D01*
D02*
G37*
G36*
X265218D02*
X252468D01*
Y184625D01*
X253422Y181064D01*
X255266Y177872D01*
X257872Y175266D01*
X261064Y173422D01*
X264625Y172468D01*
X265218D01*
Y185218D01*
D02*
G37*
G36*
X267798Y161968D02*
X267718D01*
Y153118D01*
X276568D01*
Y153198D01*
X275880Y155767D01*
X274550Y158070D01*
X272670Y159950D01*
X270367Y161280D01*
X267798Y161968D01*
D02*
G37*
G36*
X265218D02*
X265139D01*
X262570Y161280D01*
X260267Y159950D01*
X258386Y158070D01*
X257057Y155767D01*
X256368Y153198D01*
Y153118D01*
X265218D01*
Y161968D01*
D02*
G37*
G36*
X301468Y161468D02*
X282268D01*
Y142268D01*
X301468D01*
Y161468D01*
D02*
G37*
G36*
X276568Y150618D02*
X267718D01*
Y141768D01*
X267798D01*
X270367Y142457D01*
X272670Y143786D01*
X274550Y145667D01*
X275880Y147970D01*
X276568Y150539D01*
Y150618D01*
D02*
G37*
G36*
X265218D02*
X256368D01*
Y150539D01*
X257057Y147970D01*
X258386Y145667D01*
X260267Y143786D01*
X262570Y142457D01*
X265139Y141768D01*
X265218D01*
Y150618D01*
D02*
G37*
G36*
X532462Y55000D02*
X531250D01*
Y31250D01*
X555000D01*
Y32462D01*
X554039Y37292D01*
X552155Y41842D01*
X549419Y45937D01*
X545937Y49419D01*
X541842Y52155D01*
X537292Y54039D01*
X532462Y55000D01*
D02*
G37*
G36*
X528750D02*
X527538D01*
X522708Y54039D01*
X518158Y52155D01*
X514063Y49419D01*
X510581Y45937D01*
X507845Y41842D01*
X505961Y37292D01*
X505000Y32462D01*
Y31250D01*
X528750D01*
Y55000D01*
D02*
G37*
G36*
X555000Y28750D02*
X531250D01*
Y5000D01*
X532462D01*
X537292Y5961D01*
X541842Y7845D01*
X545937Y10581D01*
X549419Y14063D01*
X552155Y18158D01*
X554039Y22708D01*
X555000Y27538D01*
Y28750D01*
D02*
G37*
G36*
X528750D02*
X505000D01*
Y27538D01*
X505961Y22708D01*
X507845Y18158D01*
X510581Y14063D01*
X514063Y10581D01*
X518158Y7845D01*
X522708Y5961D01*
X527538Y5000D01*
X528750D01*
Y28750D01*
D02*
G37*
G36*
X32462Y485000D02*
X31250D01*
Y461250D01*
X55000D01*
Y462462D01*
X54039Y467292D01*
X52155Y471842D01*
X49419Y475937D01*
X45937Y479419D01*
X41842Y482155D01*
X37292Y484039D01*
X32462Y485000D01*
D02*
G37*
G36*
X28750D02*
X27538D01*
X22708Y484039D01*
X18158Y482155D01*
X14063Y479419D01*
X10581Y475937D01*
X7845Y471842D01*
X5961Y467292D01*
X5000Y462462D01*
Y461250D01*
X28750D01*
Y485000D01*
D02*
G37*
G36*
X55000Y458750D02*
X31250D01*
Y435000D01*
X32462D01*
X37292Y435961D01*
X41842Y437845D01*
X45937Y440581D01*
X49419Y444063D01*
X52155Y448158D01*
X54039Y452708D01*
X55000Y457538D01*
Y458750D01*
D02*
G37*
G36*
X28750D02*
X5000D01*
Y457538D01*
X5961Y452708D01*
X7845Y448158D01*
X10581Y444063D01*
X14063Y440581D01*
X18158Y437845D01*
X22708Y435961D01*
X27538Y435000D01*
X28750D01*
Y458750D01*
D02*
G37*
G36*
X157243Y429400D02*
X156650D01*
Y416650D01*
X169400D01*
Y417243D01*
X168446Y420804D01*
X166603Y423996D01*
X163996Y426603D01*
X160804Y428446D01*
X157243Y429400D01*
D02*
G37*
G36*
X106443D02*
X105850D01*
Y416650D01*
X118600D01*
Y417243D01*
X117646Y420804D01*
X115803Y423996D01*
X113196Y426603D01*
X110004Y428446D01*
X106443Y429400D01*
D02*
G37*
G36*
X154150D02*
X153557D01*
X149996Y428446D01*
X146804Y426603D01*
X144197Y423996D01*
X142354Y420804D01*
X141400Y417243D01*
Y416650D01*
X154150D01*
Y429400D01*
D02*
G37*
G36*
X103350D02*
X102757D01*
X99196Y428446D01*
X96004Y426603D01*
X93397Y423996D01*
X91554Y420804D01*
X90600Y417243D01*
Y416650D01*
X103350D01*
Y429400D01*
D02*
G37*
G36*
X169400Y414150D02*
X156650D01*
Y401400D01*
X157243D01*
X160804Y402354D01*
X163996Y404197D01*
X166603Y406804D01*
X168446Y409996D01*
X169400Y413557D01*
Y414150D01*
D02*
G37*
G36*
X154150D02*
X141400D01*
Y413557D01*
X142354Y409996D01*
X144197Y406804D01*
X146804Y404197D01*
X149996Y402354D01*
X153557Y401400D01*
X154150D01*
Y414150D01*
D02*
G37*
G36*
X118600D02*
X105850D01*
Y401400D01*
X106443D01*
X110004Y402354D01*
X113196Y404197D01*
X115803Y406804D01*
X117646Y409996D01*
X118600Y413557D01*
Y414150D01*
D02*
G37*
G36*
X103350D02*
X90600D01*
Y413557D01*
X91554Y409996D01*
X93397Y406804D01*
X96004Y404197D01*
X99196Y402354D01*
X102757Y401400D01*
X103350D01*
Y414150D01*
D02*
G37*
G36*
X79600Y399600D02*
X60400D01*
Y380400D01*
X79600D01*
Y399600D01*
D02*
G37*
G36*
X131777Y403500D02*
X128223D01*
X124789Y402580D01*
X121711Y400803D01*
X119197Y398289D01*
X117420Y395211D01*
X116500Y391777D01*
Y388223D01*
X117420Y384789D01*
X119197Y381711D01*
X121711Y379197D01*
X124789Y377420D01*
X128223Y376500D01*
X131777D01*
X135211Y377420D01*
X138289Y379197D01*
X140803Y381711D01*
X142580Y384789D01*
X143500Y388223D01*
Y391777D01*
X142580Y395211D01*
X140803Y398289D01*
X138289Y400803D01*
X135211Y402580D01*
X131777Y403500D01*
D02*
G37*
G36*
X71330Y374700D02*
X71250D01*
Y365850D01*
X80100D01*
Y365930D01*
X79412Y368498D01*
X78082Y370802D01*
X76202Y372682D01*
X73898Y374012D01*
X71330Y374700D01*
D02*
G37*
G36*
X68750D02*
X68670D01*
X66101Y374012D01*
X63798Y372682D01*
X61918Y370802D01*
X60588Y368498D01*
X59900Y365930D01*
Y365850D01*
X68750D01*
Y374700D01*
D02*
G37*
G36*
X157243Y378600D02*
X156650D01*
Y365850D01*
X169400D01*
Y366443D01*
X168446Y370004D01*
X166603Y373196D01*
X163996Y375803D01*
X160804Y377646D01*
X157243Y378600D01*
D02*
G37*
G36*
X106443D02*
X105850D01*
Y365850D01*
X118600D01*
Y366443D01*
X117646Y370004D01*
X115803Y373196D01*
X113196Y375803D01*
X110004Y377646D01*
X106443Y378600D01*
D02*
G37*
G36*
X154150D02*
X153557D01*
X149996Y377646D01*
X146804Y375803D01*
X144197Y373196D01*
X142354Y370004D01*
X141400Y366443D01*
Y365850D01*
X154150D01*
Y378600D01*
D02*
G37*
G36*
X103350D02*
X102757D01*
X99196Y377646D01*
X96004Y375803D01*
X93397Y373196D01*
X91554Y370004D01*
X90600Y366443D01*
Y365850D01*
X103350D01*
Y378600D01*
D02*
G37*
G36*
X80100Y363350D02*
X71250D01*
Y354500D01*
X71330D01*
X73898Y355188D01*
X76202Y356518D01*
X78082Y358399D01*
X79412Y360702D01*
X80100Y363270D01*
Y363350D01*
D02*
G37*
G36*
X68750D02*
X59900D01*
Y363270D01*
X60588Y360702D01*
X61918Y358399D01*
X63798Y356518D01*
X66101Y355188D01*
X68670Y354500D01*
X68750D01*
Y363350D01*
D02*
G37*
G36*
X169400Y363350D02*
X156650D01*
Y350600D01*
X157243D01*
X160804Y351554D01*
X163996Y353397D01*
X166603Y356004D01*
X168446Y359196D01*
X169400Y362757D01*
Y363350D01*
D02*
G37*
G36*
X154150D02*
X141400D01*
Y362757D01*
X142354Y359196D01*
X144197Y356004D01*
X146804Y353397D01*
X149996Y351554D01*
X153557Y350600D01*
X154150D01*
Y363350D01*
D02*
G37*
G36*
X118600D02*
X105850D01*
Y350600D01*
X106443D01*
X110004Y351554D01*
X113196Y353397D01*
X115803Y356004D01*
X117646Y359196D01*
X118600Y362757D01*
Y363350D01*
D02*
G37*
G36*
X103350D02*
X90600D01*
Y362757D01*
X91554Y359196D01*
X93397Y356004D01*
X96004Y353397D01*
X99196Y351554D01*
X102757Y350600D01*
X103350D01*
Y363350D01*
D02*
G37*
G36*
X157243Y329400D02*
X156650D01*
Y316650D01*
X169400D01*
Y317243D01*
X168446Y320804D01*
X166603Y323996D01*
X163996Y326603D01*
X160804Y328446D01*
X157243Y329400D01*
D02*
G37*
G36*
X154150D02*
X153557D01*
X149996Y328446D01*
X146804Y326603D01*
X144197Y323996D01*
X142354Y320804D01*
X141400Y317243D01*
Y316650D01*
X154150D01*
Y329400D01*
D02*
G37*
G36*
X106443D02*
X105850D01*
Y316650D01*
X118600D01*
Y317243D01*
X117646Y320804D01*
X115803Y323996D01*
X113196Y326603D01*
X110004Y328446D01*
X106443Y329400D01*
D02*
G37*
G36*
X103350D02*
X102757D01*
X99196Y328446D01*
X96004Y326603D01*
X93397Y323996D01*
X91554Y320804D01*
X90600Y317243D01*
Y316650D01*
X103350D01*
Y329400D01*
D02*
G37*
G36*
X169400Y314150D02*
X156650D01*
Y301400D01*
X157243D01*
X160804Y302354D01*
X163996Y304197D01*
X166603Y306804D01*
X168446Y309996D01*
X169400Y313557D01*
Y314150D01*
D02*
G37*
G36*
X154150D02*
X141400D01*
Y313557D01*
X142354Y309996D01*
X144197Y306804D01*
X146804Y304197D01*
X149996Y302354D01*
X153557Y301400D01*
X154150D01*
Y314150D01*
D02*
G37*
G36*
X118600D02*
X105850D01*
Y301400D01*
X106443D01*
X110004Y302354D01*
X113196Y304197D01*
X115803Y306804D01*
X117646Y309996D01*
X118600Y313557D01*
Y314150D01*
D02*
G37*
G36*
X103350D02*
X90600D01*
Y313557D01*
X91554Y309996D01*
X93397Y306804D01*
X96004Y304197D01*
X99196Y302354D01*
X102757Y301400D01*
X103350D01*
Y314150D01*
D02*
G37*
G36*
X79600Y299600D02*
X60400D01*
Y280400D01*
X79600D01*
Y299600D01*
D02*
G37*
G36*
X131777Y303500D02*
X128223D01*
X124789Y302580D01*
X121711Y300803D01*
X119197Y298289D01*
X117420Y295211D01*
X116500Y291777D01*
Y288223D01*
X117420Y284789D01*
X119197Y281711D01*
X121711Y279197D01*
X124789Y277420D01*
X128223Y276500D01*
X131777D01*
X135211Y277420D01*
X138289Y279197D01*
X140803Y281711D01*
X142580Y284789D01*
X143500Y288223D01*
Y291777D01*
X142580Y295211D01*
X140803Y298289D01*
X138289Y300803D01*
X135211Y302580D01*
X131777Y303500D01*
D02*
G37*
G36*
X71330Y274700D02*
X71250D01*
Y265850D01*
X80100D01*
Y265930D01*
X79412Y268498D01*
X78082Y270802D01*
X76202Y272682D01*
X73899Y274012D01*
X71330Y274700D01*
D02*
G37*
G36*
X157243Y278600D02*
X156650D01*
Y265850D01*
X169400D01*
Y266443D01*
X168446Y270004D01*
X166603Y273196D01*
X163996Y275803D01*
X160804Y277646D01*
X157243Y278600D01*
D02*
G37*
G36*
X154150D02*
X153557D01*
X149996Y277646D01*
X146804Y275803D01*
X144197Y273196D01*
X142354Y270004D01*
X141400Y266443D01*
Y265850D01*
X154150D01*
Y278600D01*
D02*
G37*
G36*
X106443D02*
X105850D01*
Y265850D01*
X118600D01*
Y266443D01*
X117646Y270004D01*
X115803Y273196D01*
X113196Y275803D01*
X110004Y277646D01*
X106443Y278600D01*
D02*
G37*
G36*
X103350D02*
X102757D01*
X99196Y277646D01*
X96004Y275803D01*
X93397Y273196D01*
X91554Y270004D01*
X90600Y266443D01*
Y265850D01*
X103350D01*
Y278600D01*
D02*
G37*
G36*
X68750Y274700D02*
X68670D01*
X66102Y274012D01*
X63798Y272682D01*
X61918Y270802D01*
X60588Y268498D01*
X59900Y265930D01*
Y265850D01*
X68750D01*
Y274700D01*
D02*
G37*
G36*
X80100Y263350D02*
X71250D01*
Y254500D01*
X71330D01*
X73899Y255188D01*
X76202Y256518D01*
X78082Y258398D01*
X79412Y260702D01*
X80100Y263270D01*
Y263350D01*
D02*
G37*
G36*
X68750D02*
X59900D01*
Y263270D01*
X60588Y260702D01*
X61918Y258398D01*
X63798Y256518D01*
X66102Y255188D01*
X68670Y254500D01*
X68750D01*
Y263350D01*
D02*
G37*
G36*
X169400D02*
X156650D01*
Y250600D01*
X157243D01*
X160804Y251554D01*
X163996Y253397D01*
X166603Y256004D01*
X168446Y259196D01*
X169400Y262757D01*
Y263350D01*
D02*
G37*
G36*
X154150D02*
X141400D01*
Y262757D01*
X142354Y259196D01*
X144197Y256004D01*
X146804Y253397D01*
X149996Y251554D01*
X153557Y250600D01*
X154150D01*
Y263350D01*
D02*
G37*
G36*
X118600D02*
X105850D01*
Y250600D01*
X106443D01*
X110004Y251554D01*
X113196Y253397D01*
X115803Y256004D01*
X117646Y259196D01*
X118600Y262757D01*
Y263350D01*
D02*
G37*
G36*
X103350D02*
X90600D01*
Y262757D01*
X91554Y259196D01*
X93397Y256004D01*
X96004Y253397D01*
X99196Y251554D01*
X102757Y250600D01*
X103350D01*
Y263350D01*
D02*
G37*
G36*
X157243Y229400D02*
X156650D01*
Y216650D01*
X169400D01*
Y217243D01*
X168446Y220804D01*
X166603Y223996D01*
X163996Y226603D01*
X160804Y228446D01*
X157243Y229400D01*
D02*
G37*
G36*
X106443D02*
X105850D01*
Y216650D01*
X118600D01*
Y217243D01*
X117646Y220804D01*
X115803Y223996D01*
X113196Y226603D01*
X110004Y228446D01*
X106443Y229400D01*
D02*
G37*
G36*
X154150D02*
X153557D01*
X149996Y228446D01*
X146804Y226603D01*
X144197Y223996D01*
X142354Y220804D01*
X141400Y217243D01*
Y216650D01*
X154150D01*
Y229400D01*
D02*
G37*
G36*
X103350D02*
X102757D01*
X99196Y228446D01*
X96004Y226603D01*
X93397Y223996D01*
X91554Y220804D01*
X90600Y217243D01*
Y216650D01*
X103350D01*
Y229400D01*
D02*
G37*
G36*
X169400Y214150D02*
X156650D01*
Y201400D01*
X157243D01*
X160804Y202354D01*
X163996Y204197D01*
X166603Y206804D01*
X168446Y209996D01*
X169400Y213557D01*
Y214150D01*
D02*
G37*
G36*
X154150D02*
X141400D01*
Y213557D01*
X142354Y209996D01*
X144197Y206804D01*
X146804Y204197D01*
X149996Y202354D01*
X153557Y201400D01*
X154150D01*
Y214150D01*
D02*
G37*
G36*
X118600D02*
X105850D01*
Y201400D01*
X106443D01*
X110004Y202354D01*
X113196Y204197D01*
X115803Y206804D01*
X117646Y209996D01*
X118600Y213557D01*
Y214150D01*
D02*
G37*
G36*
X103350D02*
X90600D01*
Y213557D01*
X91554Y209996D01*
X93397Y206804D01*
X96004Y204197D01*
X99196Y202354D01*
X102757Y201400D01*
X103350D01*
Y214150D01*
D02*
G37*
G36*
X79600Y199600D02*
X60400D01*
Y180400D01*
X79600D01*
Y199600D01*
D02*
G37*
G36*
X131777Y203500D02*
X128223D01*
X124789Y202580D01*
X121711Y200803D01*
X119197Y198289D01*
X117420Y195211D01*
X116500Y191777D01*
Y188223D01*
X117420Y184789D01*
X119197Y181711D01*
X121711Y179197D01*
X124789Y177420D01*
X128223Y176500D01*
X131777D01*
X135211Y177420D01*
X138289Y179197D01*
X140803Y181711D01*
X142580Y184789D01*
X143500Y188223D01*
Y191777D01*
X142580Y195211D01*
X140803Y198289D01*
X138289Y200803D01*
X135211Y202580D01*
X131777Y203500D01*
D02*
G37*
G36*
X157243Y178600D02*
X156650D01*
Y165850D01*
X169400D01*
Y166443D01*
X168446Y170004D01*
X166603Y173196D01*
X163996Y175803D01*
X160804Y177646D01*
X157243Y178600D01*
D02*
G37*
G36*
X106443D02*
X105850D01*
Y165850D01*
X118600D01*
Y166443D01*
X117646Y170004D01*
X115803Y173196D01*
X113196Y175803D01*
X110004Y177646D01*
X106443Y178600D01*
D02*
G37*
G36*
X71330Y174700D02*
X71250D01*
Y165850D01*
X80100D01*
Y165930D01*
X79412Y168498D01*
X78082Y170802D01*
X76202Y172682D01*
X73899Y174012D01*
X71330Y174700D01*
D02*
G37*
G36*
X68750D02*
X68670D01*
X66102Y174012D01*
X63798Y172682D01*
X61918Y170802D01*
X60588Y168498D01*
X59900Y165930D01*
Y165850D01*
X68750D01*
Y174700D01*
D02*
G37*
G36*
X154150Y178600D02*
X153557D01*
X149996Y177646D01*
X146804Y175803D01*
X144197Y173196D01*
X142354Y170004D01*
X141400Y166443D01*
Y165850D01*
X154150D01*
Y178600D01*
D02*
G37*
G36*
X103350D02*
X102757D01*
X99196Y177646D01*
X96004Y175803D01*
X93397Y173196D01*
X91554Y170004D01*
X90600Y166443D01*
Y165850D01*
X103350D01*
Y178600D01*
D02*
G37*
G36*
X80100Y163350D02*
X71250D01*
Y154500D01*
X71330D01*
X73899Y155188D01*
X76202Y156518D01*
X78082Y158399D01*
X79412Y160702D01*
X80100Y163270D01*
Y163350D01*
D02*
G37*
G36*
X68750D02*
X59900D01*
Y163270D01*
X60588Y160702D01*
X61918Y158399D01*
X63798Y156518D01*
X66102Y155188D01*
X68670Y154500D01*
X68750D01*
Y163350D01*
D02*
G37*
G36*
X169400D02*
X156650D01*
Y150600D01*
X157243D01*
X160804Y151554D01*
X163996Y153397D01*
X166603Y156004D01*
X168446Y159196D01*
X169400Y162757D01*
Y163350D01*
D02*
G37*
G36*
X154150D02*
X141400D01*
Y162757D01*
X142354Y159196D01*
X144197Y156004D01*
X146804Y153397D01*
X149996Y151554D01*
X153557Y150600D01*
X154150D01*
Y163350D01*
D02*
G37*
G36*
X118600D02*
X105850D01*
Y150600D01*
X106443D01*
X110004Y151554D01*
X113196Y153397D01*
X115803Y156004D01*
X117646Y159196D01*
X118600Y162757D01*
Y163350D01*
D02*
G37*
G36*
X103350D02*
X90600D01*
Y162757D01*
X91554Y159196D01*
X93397Y156004D01*
X96004Y153397D01*
X99196Y151554D01*
X102757Y150600D01*
X103350D01*
Y163350D01*
D02*
G37*
G36*
X154150Y122500D02*
X153754D01*
X150575Y121648D01*
X147725Y120002D01*
X145398Y117675D01*
X143752Y114825D01*
X143735Y114763D01*
X141441Y114645D01*
X141134Y114715D01*
X139602Y117368D01*
X137368Y119602D01*
X134632Y121182D01*
X131580Y122000D01*
X128420D01*
X125368Y121182D01*
X122632Y119602D01*
X120398Y117368D01*
X118818Y114632D01*
X118594Y113797D01*
X116006D01*
X115782Y114632D01*
X114202Y117368D01*
X111968Y119602D01*
X109232Y121182D01*
X106180Y122000D01*
X103020D01*
X99968Y121182D01*
X97232Y119602D01*
X94998Y117368D01*
X93418Y114632D01*
X92600Y111580D01*
Y108420D01*
X93418Y105368D01*
X94998Y102632D01*
X97232Y100398D01*
X99968Y98818D01*
X103020Y98000D01*
X106180D01*
X109232Y98818D01*
X111968Y100398D01*
X114202Y102632D01*
X115782Y105368D01*
X116006Y106203D01*
X118594D01*
X118818Y105368D01*
X120398Y102632D01*
X122632Y100398D01*
X125368Y98818D01*
X128420Y98000D01*
X131580D01*
X134632Y98818D01*
X137368Y100398D01*
X139602Y102632D01*
X141134Y105285D01*
X141441Y105355D01*
X143735Y105237D01*
X143752Y105175D01*
X145398Y102325D01*
X147725Y99998D01*
X150575Y98352D01*
X153754Y97500D01*
X154150D01*
Y110000D01*
Y122500D01*
D02*
G37*
G36*
X157046D02*
X156650D01*
Y111250D01*
X167900D01*
Y111646D01*
X167048Y114825D01*
X165403Y117675D01*
X163075Y120002D01*
X160225Y121648D01*
X157046Y122500D01*
D02*
G37*
G36*
X43750Y117047D02*
X42000D01*
Y107700D01*
X54834D01*
X54710Y108637D01*
X53577Y111374D01*
X51774Y113724D01*
X49423Y115527D01*
X46687Y116660D01*
X43750Y117047D01*
D02*
G37*
G36*
X38000D02*
X36250D01*
X33313Y116660D01*
X30576Y115527D01*
X28226Y113724D01*
X26423Y111374D01*
X25290Y108637D01*
X25166Y107700D01*
X38000D01*
Y117047D01*
D02*
G37*
G36*
X167900Y108750D02*
X156650D01*
Y97500D01*
X157046D01*
X160225Y98352D01*
X163075Y99998D01*
X165403Y102325D01*
X167048Y105175D01*
X167900Y108354D01*
Y108750D01*
D02*
G37*
G36*
X54834Y103700D02*
X42000D01*
Y94353D01*
X43750D01*
X46687Y94740D01*
X49423Y95873D01*
X51774Y97676D01*
X53577Y100027D01*
X54710Y102763D01*
X54834Y103700D01*
D02*
G37*
G36*
X38000D02*
X25166D01*
X25290Y102763D01*
X26423Y100027D01*
X28226Y97676D01*
X30576Y95873D01*
X33313Y94740D01*
X36250Y94353D01*
X38000D01*
Y103700D01*
D02*
G37*
G36*
X43750Y91143D02*
X36250D01*
X33444Y90773D01*
X30829Y89690D01*
X28583Y87967D01*
X26860Y85721D01*
X25777Y83106D01*
X25407Y80300D01*
X25777Y77494D01*
X26860Y74879D01*
X28583Y72633D01*
X30829Y70910D01*
X33444Y69827D01*
X36250Y69457D01*
X43750D01*
X46556Y69827D01*
X49171Y70910D01*
X51417Y72633D01*
X53140Y74879D01*
X54223Y77494D01*
X54593Y80300D01*
X54223Y83106D01*
X53140Y85721D01*
X51417Y87967D01*
X49171Y89690D01*
X46556Y90773D01*
X43750Y91143D01*
D02*
G37*
G36*
X130330Y62800D02*
X130250D01*
Y53950D01*
X139100D01*
Y54030D01*
X138412Y56598D01*
X137082Y58902D01*
X135202Y60782D01*
X132898Y62112D01*
X130330Y62800D01*
D02*
G37*
G36*
X127750D02*
X127670D01*
X125102Y62112D01*
X122799Y60782D01*
X120918Y58902D01*
X119588Y56598D01*
X118900Y54030D01*
Y53950D01*
X127750D01*
Y62800D01*
D02*
G37*
G36*
X139100Y51450D02*
X130250D01*
Y42600D01*
X130330D01*
X132898Y43288D01*
X135202Y44618D01*
X137082Y46498D01*
X138412Y48802D01*
X139100Y51370D01*
Y51450D01*
D02*
G37*
G36*
X127750D02*
X118900D01*
Y51370D01*
X119588Y48802D01*
X120918Y46498D01*
X122799Y44618D01*
X125102Y43288D01*
X127670Y42600D01*
X127750D01*
Y51450D01*
D02*
G37*
G36*
X32462Y55000D02*
X31250D01*
Y31250D01*
X55000D01*
Y32462D01*
X54039Y37292D01*
X52155Y41842D01*
X49419Y45937D01*
X45937Y49419D01*
X41842Y52155D01*
X37292Y54039D01*
X32462Y55000D01*
D02*
G37*
G36*
X28750D02*
X27538D01*
X22708Y54039D01*
X18158Y52155D01*
X14063Y49419D01*
X10581Y45937D01*
X7845Y41842D01*
X5961Y37292D01*
X5000Y32462D01*
Y31250D01*
X28750D01*
Y55000D01*
D02*
G37*
G36*
X138600Y36900D02*
X119400D01*
Y17700D01*
X138600D01*
Y36900D01*
D02*
G37*
G36*
X55000Y28750D02*
X31250D01*
Y5000D01*
X32462D01*
X37292Y5961D01*
X41842Y7845D01*
X45937Y10581D01*
X49419Y14063D01*
X52155Y18158D01*
X54039Y22708D01*
X55000Y27538D01*
Y28750D01*
D02*
G37*
G36*
X28750D02*
X5000D01*
Y27538D01*
X5961Y22708D01*
X7845Y18158D01*
X10581Y14063D01*
X14063Y10581D01*
X18158Y7845D01*
X22708Y5961D01*
X27538Y5000D01*
X28750D01*
Y28750D01*
D02*
G37*
%LPD*%
D11*
X230521Y49521D02*
Y50079D01*
X309589Y332750D02*
X315000Y338161D01*
X312000Y356053D02*
X315000Y353053D01*
Y338161D02*
Y353053D01*
X308750Y332750D02*
X309589D01*
X287000Y322000D02*
X298000D01*
X308750Y332750D01*
X312000Y356053D02*
Y357000D01*
D19*
X530000Y460000D02*
D03*
Y30000D02*
D03*
X30000Y460000D02*
D03*
Y30000D02*
D03*
D20*
X40000Y105700D02*
D03*
Y80300D02*
D03*
X520000Y377300D02*
D03*
Y402700D02*
D03*
X520000Y247300D02*
D03*
Y272700D02*
D03*
D21*
X70000Y190000D02*
D03*
Y290000D02*
D03*
X70000Y390000D02*
D03*
X460000Y272700D02*
D03*
X129000Y27300D02*
D03*
X270000Y320000D02*
D03*
D22*
X70000Y164600D02*
D03*
Y264600D02*
D03*
X70000Y364600D02*
D03*
X460000Y247300D02*
D03*
X437300Y410000D02*
D03*
X462700Y370000D02*
D03*
X129000Y52700D02*
D03*
X270000Y294600D02*
D03*
X266468Y151868D02*
D03*
D23*
X130000Y190000D02*
D03*
X104600Y215400D02*
D03*
Y164600D02*
D03*
X155400D02*
D03*
Y215400D02*
D03*
X130000Y290000D02*
D03*
X104600Y264600D02*
D03*
X155400D02*
D03*
Y315400D02*
D03*
X104600D02*
D03*
X130000Y390000D02*
D03*
X104600Y415400D02*
D03*
Y364600D02*
D03*
X155400D02*
D03*
Y415400D02*
D03*
X291868Y211868D02*
D03*
X266468Y237268D02*
D03*
Y186468D02*
D03*
X317268D02*
D03*
Y237268D02*
D03*
D24*
X462700Y410000D02*
D03*
X437300Y370000D02*
D03*
X291868Y151868D02*
D03*
D25*
X130000Y110000D02*
D03*
X104600D02*
D03*
X155400D02*
D03*
D33*
X310300Y282000D02*
D03*
Y298500D02*
D03*
X257367Y119733D02*
D03*
X287278Y108548D02*
D03*
X488098Y220679D02*
D03*
X408520Y416730D02*
D03*
X482799Y463500D02*
D03*
X490300Y478500D02*
D03*
X475299D02*
D03*
X460299D02*
D03*
X445299D02*
D03*
X430299D02*
D03*
X257800Y463500D02*
D03*
X265300Y478500D02*
D03*
X250300D02*
D03*
X280300D02*
D03*
X295300D02*
D03*
X310300D02*
D03*
X325300D02*
D03*
X340299D02*
D03*
X355299D02*
D03*
X370299D02*
D03*
X385299D02*
D03*
X400299D02*
D03*
X415299D02*
D03*
X272800Y463500D02*
D03*
X287800D02*
D03*
X302800D02*
D03*
X191099Y478500D02*
D03*
X206099D02*
D03*
X221099D02*
D03*
X131099D02*
D03*
X146099D02*
D03*
X161099D02*
D03*
X176099D02*
D03*
X71099D02*
D03*
X86099D02*
D03*
X101099D02*
D03*
X116099D02*
D03*
X183599Y463500D02*
D03*
X198599D02*
D03*
X213599D02*
D03*
X123599D02*
D03*
X138599D02*
D03*
X153599D02*
D03*
X168599D02*
D03*
X78599D02*
D03*
X93599D02*
D03*
X108599D02*
D03*
X266000Y92140D02*
D03*
Y79427D02*
D03*
Y66713D02*
D03*
Y54000D02*
D03*
X243599Y13500D02*
D03*
X221099Y448500D02*
D03*
X213599Y433500D02*
D03*
X221099Y418500D02*
D03*
X213599Y403500D02*
D03*
X221099Y388500D02*
D03*
X213599Y373500D02*
D03*
X221099Y358500D02*
D03*
Y58500D02*
D03*
X198599Y433500D02*
D03*
X206099Y418500D02*
D03*
X198599Y403500D02*
D03*
X206099Y388500D02*
D03*
X198599Y373500D02*
D03*
Y313500D02*
D03*
Y283500D02*
D03*
X183599Y433500D02*
D03*
X191099Y418500D02*
D03*
X183599Y403500D02*
D03*
X191099Y388500D02*
D03*
X183599Y343500D02*
D03*
X191099Y328500D02*
D03*
X183599Y313500D02*
D03*
X191099Y298500D02*
D03*
X183599Y73500D02*
D03*
X191099Y58500D02*
D03*
X183599Y43500D02*
D03*
Y13500D02*
D03*
X168599Y433500D02*
D03*
X176099Y418500D02*
D03*
X168599Y403500D02*
D03*
Y343500D02*
D03*
X176099Y328500D02*
D03*
X168599Y253500D02*
D03*
Y193500D02*
D03*
Y43500D02*
D03*
Y13500D02*
D03*
X161099Y448500D02*
D03*
X153599Y433500D02*
D03*
Y343500D02*
D03*
X161099Y238500D02*
D03*
X153599Y133500D02*
D03*
X161099Y88500D02*
D03*
X153599Y73500D02*
D03*
X161099Y58500D02*
D03*
X153599Y43500D02*
D03*
Y13500D02*
D03*
X146099Y448500D02*
D03*
X138599Y433500D02*
D03*
Y343500D02*
D03*
Y253500D02*
D03*
X146099Y238500D02*
D03*
X138599Y223500D02*
D03*
X146099Y148500D02*
D03*
X138599Y133500D02*
D03*
Y73500D02*
D03*
X146099Y58500D02*
D03*
X138599Y13500D02*
D03*
X131099Y448500D02*
D03*
X123599Y433500D02*
D03*
X131099Y418500D02*
D03*
Y358500D02*
D03*
X123599Y343500D02*
D03*
X131099Y328500D02*
D03*
X123599Y253500D02*
D03*
X131099Y238500D02*
D03*
X123599Y223500D02*
D03*
X131099Y208500D02*
D03*
X123599Y163500D02*
D03*
X131099Y148500D02*
D03*
X123599Y133500D02*
D03*
X131099Y88500D02*
D03*
X123599Y73500D02*
D03*
Y13500D02*
D03*
X108599Y343500D02*
D03*
X116099Y328500D02*
D03*
Y178500D02*
D03*
Y148500D02*
D03*
X108599Y133500D02*
D03*
X116099Y88500D02*
D03*
X108599Y73500D02*
D03*
Y13500D02*
D03*
X93599Y343500D02*
D03*
Y133500D02*
D03*
X101099Y88500D02*
D03*
X93599Y73500D02*
D03*
Y13500D02*
D03*
X86099Y448500D02*
D03*
X78599Y433500D02*
D03*
Y403500D02*
D03*
X86099Y358500D02*
D03*
X78599Y343500D02*
D03*
Y313500D02*
D03*
X86099Y268500D02*
D03*
X78599Y253500D02*
D03*
X86099Y238500D02*
D03*
Y208500D02*
D03*
Y178500D02*
D03*
Y148500D02*
D03*
X78599Y133500D02*
D03*
X86099Y118500D02*
D03*
X78599Y103500D02*
D03*
X86099Y88500D02*
D03*
X78599Y73500D02*
D03*
X86099Y58500D02*
D03*
X78599Y43500D02*
D03*
Y13500D02*
D03*
X71099Y448500D02*
D03*
X63599Y433500D02*
D03*
Y403500D02*
D03*
Y343500D02*
D03*
X71099Y238500D02*
D03*
Y208500D02*
D03*
Y148500D02*
D03*
X63599Y133500D02*
D03*
X71099Y118500D02*
D03*
Y88500D02*
D03*
X63599Y73500D02*
D03*
X71099Y58500D02*
D03*
X56099Y418500D02*
D03*
X48599Y403500D02*
D03*
X56099Y388500D02*
D03*
X48599Y373500D02*
D03*
X56099Y358500D02*
D03*
X48599Y343500D02*
D03*
Y313500D02*
D03*
Y283500D02*
D03*
X56099Y268500D02*
D03*
X48599Y253500D02*
D03*
X56099Y238500D02*
D03*
X48599Y223500D02*
D03*
X56099Y208500D02*
D03*
Y178500D02*
D03*
Y148500D02*
D03*
X48599Y133500D02*
D03*
X56099Y118500D02*
D03*
X33599Y403500D02*
D03*
Y373500D02*
D03*
X41099Y358500D02*
D03*
X33599Y343500D02*
D03*
X41099Y328500D02*
D03*
X33599Y313500D02*
D03*
X41099Y298500D02*
D03*
X33599Y283500D02*
D03*
Y253500D02*
D03*
X41099Y238500D02*
D03*
X33599Y223500D02*
D03*
X41099Y208500D02*
D03*
Y178500D02*
D03*
Y148500D02*
D03*
X18599Y403500D02*
D03*
Y373500D02*
D03*
X26099Y358500D02*
D03*
X18599Y343500D02*
D03*
X26099Y328500D02*
D03*
X18599Y313500D02*
D03*
X26099Y298500D02*
D03*
X18599Y283500D02*
D03*
Y253500D02*
D03*
X26099Y238500D02*
D03*
X18599Y223500D02*
D03*
X26099Y208500D02*
D03*
Y178500D02*
D03*
Y148500D02*
D03*
Y118500D02*
D03*
X18599Y103500D02*
D03*
Y73500D02*
D03*
X243000Y456000D02*
D03*
Y436000D02*
D03*
Y416000D02*
D03*
Y396000D02*
D03*
Y376000D02*
D03*
Y356000D02*
D03*
Y336000D02*
D03*
Y316000D02*
D03*
Y296000D02*
D03*
Y276000D02*
D03*
Y256000D02*
D03*
Y236000D02*
D03*
Y216000D02*
D03*
Y196000D02*
D03*
Y176000D02*
D03*
Y156000D02*
D03*
Y136000D02*
D03*
Y116000D02*
D03*
X542799Y193500D02*
D03*
Y433500D02*
D03*
X550299Y418500D02*
D03*
X542799Y403500D02*
D03*
X550299Y388500D02*
D03*
X542799Y373500D02*
D03*
X550299Y358500D02*
D03*
Y328500D02*
D03*
Y298500D02*
D03*
Y268500D02*
D03*
Y238500D02*
D03*
Y208500D02*
D03*
Y178500D02*
D03*
X542799Y163500D02*
D03*
X550299Y148500D02*
D03*
X542799Y133500D02*
D03*
X550299Y118500D02*
D03*
X542799Y103500D02*
D03*
X550299Y88500D02*
D03*
X542799Y73500D02*
D03*
X550299Y58500D02*
D03*
X535299Y418500D02*
D03*
Y388500D02*
D03*
Y358500D02*
D03*
Y238500D02*
D03*
Y208500D02*
D03*
X527799Y193500D02*
D03*
X535299Y178500D02*
D03*
X527799Y163500D02*
D03*
X535299Y148500D02*
D03*
X527799Y133500D02*
D03*
X535299Y118500D02*
D03*
X527799Y103500D02*
D03*
X535299Y88500D02*
D03*
X527799Y73500D02*
D03*
X512799Y433500D02*
D03*
X520299Y418500D02*
D03*
Y358500D02*
D03*
Y208500D02*
D03*
X512799Y193500D02*
D03*
X520299Y178500D02*
D03*
X512799Y163500D02*
D03*
X520299Y148500D02*
D03*
X512799Y133500D02*
D03*
X520299Y118500D02*
D03*
X512799Y103500D02*
D03*
X520299Y88500D02*
D03*
X512799Y73500D02*
D03*
X497799Y433500D02*
D03*
X505299Y418500D02*
D03*
Y388500D02*
D03*
Y358500D02*
D03*
Y208500D02*
D03*
X497799Y193500D02*
D03*
X505299Y178500D02*
D03*
X497799Y163500D02*
D03*
X505299Y148500D02*
D03*
X497799Y133500D02*
D03*
X505299Y118500D02*
D03*
X497799Y103500D02*
D03*
X505299Y88500D02*
D03*
X497799Y73500D02*
D03*
X505299Y58500D02*
D03*
X497799Y43500D02*
D03*
Y13500D02*
D03*
X482799Y433500D02*
D03*
X490299Y418500D02*
D03*
Y388500D02*
D03*
Y358500D02*
D03*
X482799Y13500D02*
D03*
X475299Y448500D02*
D03*
X467799Y433500D02*
D03*
X475299Y388500D02*
D03*
Y358500D02*
D03*
X467799Y13500D02*
D03*
X460299Y448500D02*
D03*
X452800Y13500D02*
D03*
X445299Y448500D02*
D03*
X437800Y13500D02*
D03*
X430299Y448500D02*
D03*
X422800Y13500D02*
D03*
X415300Y448500D02*
D03*
X407800Y13500D02*
D03*
X400300Y448500D02*
D03*
X392800Y13500D02*
D03*
X385300Y448500D02*
D03*
X377800Y433500D02*
D03*
X385300Y418500D02*
D03*
X377800Y403500D02*
D03*
Y13500D02*
D03*
X370300Y448500D02*
D03*
X362800Y433500D02*
D03*
X370300Y418500D02*
D03*
X362800Y403500D02*
D03*
Y13500D02*
D03*
X355300Y448500D02*
D03*
X347800Y433500D02*
D03*
X355300Y418500D02*
D03*
X347800Y403500D02*
D03*
X355300Y388500D02*
D03*
X340300Y448500D02*
D03*
X332800Y433500D02*
D03*
X340300Y418500D02*
D03*
X332800Y403500D02*
D03*
Y13500D02*
D03*
X325300Y448500D02*
D03*
X317800Y433500D02*
D03*
X325300Y418500D02*
D03*
X317800Y403500D02*
D03*
X325300Y268500D02*
D03*
Y208500D02*
D03*
X317800Y163500D02*
D03*
X325300Y148500D02*
D03*
X317800Y133500D02*
D03*
X325300Y118500D02*
D03*
X317800Y103500D02*
D03*
Y13500D02*
D03*
X310300Y448500D02*
D03*
X302800Y433500D02*
D03*
X310300Y418500D02*
D03*
X302800Y253500D02*
D03*
X310300Y208500D02*
D03*
Y148500D02*
D03*
X302800Y133500D02*
D03*
X310300Y118500D02*
D03*
X302800Y103500D02*
D03*
X310300Y88500D02*
D03*
X302800Y13500D02*
D03*
X295300Y448500D02*
D03*
X287800Y433500D02*
D03*
X295300Y418500D02*
D03*
X287800Y403500D02*
D03*
Y343500D02*
D03*
Y253500D02*
D03*
X295300Y238500D02*
D03*
X287800Y133500D02*
D03*
Y73500D02*
D03*
Y13500D02*
D03*
X272800Y433500D02*
D03*
X280300Y418500D02*
D03*
X272800Y403500D02*
D03*
X280300Y388500D02*
D03*
X272800Y373500D02*
D03*
X280300Y358500D02*
D03*
X272800Y343500D02*
D03*
Y163500D02*
D03*
Y13500D02*
D03*
X257800Y433500D02*
D03*
X265300Y418500D02*
D03*
X257800Y403500D02*
D03*
X265300Y388500D02*
D03*
X257800Y373500D02*
D03*
X265300Y358500D02*
D03*
X257800Y283500D02*
D03*
X265300Y268500D02*
D03*
Y208500D02*
D03*
X257800Y133500D02*
D03*
Y103500D02*
D03*
X437744Y429098D02*
D03*
X429244D02*
D03*
X420763Y428519D02*
D03*
X414530Y422740D02*
D03*
X390489Y398698D02*
D03*
X384478Y392688D02*
D03*
X378468Y386678D02*
D03*
X372458Y380667D02*
D03*
X366447Y374657D02*
D03*
X358710Y371137D02*
D03*
X350210D02*
D03*
X341710D02*
D03*
X335598Y377044D02*
D03*
X335155Y385532D02*
D03*
X327227Y388598D02*
D03*
X318727D02*
D03*
X312402Y382920D02*
D03*
Y374420D02*
D03*
X311034Y366031D02*
D03*
X286095Y313941D02*
D03*
X336643Y356863D02*
D03*
X342899Y351108D02*
D03*
X336888Y345098D02*
D03*
X334902Y336833D02*
D03*
Y328333D02*
D03*
Y319833D02*
D03*
Y311333D02*
D03*
X337000Y301000D02*
D03*
Y292000D02*
D03*
Y281000D02*
D03*
X334902Y268833D02*
D03*
Y260333D02*
D03*
Y251833D02*
D03*
Y243333D02*
D03*
Y234834D02*
D03*
Y226334D02*
D03*
Y217833D02*
D03*
Y209334D02*
D03*
Y200834D02*
D03*
Y192334D02*
D03*
Y183834D02*
D03*
Y175334D02*
D03*
Y166834D02*
D03*
Y158334D02*
D03*
Y149834D02*
D03*
Y141334D02*
D03*
Y132834D02*
D03*
Y124334D02*
D03*
Y115834D02*
D03*
Y107334D02*
D03*
X330930Y99890D02*
D03*
X324920Y93879D02*
D03*
X318909Y87869D02*
D03*
X312899Y81858D02*
D03*
X306888Y75848D02*
D03*
X300878Y69838D02*
D03*
X294868Y63827D02*
D03*
X288857Y57817D02*
D03*
X297868Y80858D02*
D03*
X347246Y26652D02*
D03*
X355746D02*
D03*
X364246D02*
D03*
X372746D02*
D03*
X381246D02*
D03*
X389746D02*
D03*
X398246D02*
D03*
X406746D02*
D03*
X415246D02*
D03*
X423746D02*
D03*
X432246D02*
D03*
X440746D02*
D03*
X449246D02*
D03*
X457746D02*
D03*
X466246D02*
D03*
X474746D02*
D03*
X483246Y26701D02*
D03*
X488098Y33680D02*
D03*
Y42180D02*
D03*
Y50680D02*
D03*
Y59180D02*
D03*
Y67680D02*
D03*
Y76180D02*
D03*
Y84680D02*
D03*
Y93180D02*
D03*
Y101680D02*
D03*
Y110180D02*
D03*
Y118680D02*
D03*
Y127180D02*
D03*
Y135680D02*
D03*
Y144180D02*
D03*
Y152680D02*
D03*
Y161180D02*
D03*
Y169680D02*
D03*
Y178180D02*
D03*
Y186680D02*
D03*
Y195180D02*
D03*
Y203680D02*
D03*
Y212180D02*
D03*
Y237680D02*
D03*
Y246179D02*
D03*
X491649Y253902D02*
D03*
X500149D02*
D03*
X539098Y260842D02*
D03*
X538841Y269338D02*
D03*
X539098Y277835D02*
D03*
Y286335D02*
D03*
Y294835D02*
D03*
Y303335D02*
D03*
Y311835D02*
D03*
Y320335D02*
D03*
Y328834D02*
D03*
Y337335D02*
D03*
X535160Y344867D02*
D03*
X526663Y345098D02*
D03*
X518163D02*
D03*
X509663D02*
D03*
X501163D02*
D03*
X492663D02*
D03*
X484163D02*
D03*
X475663D02*
D03*
X467163D02*
D03*
X458663D02*
D03*
X455098Y352814D02*
D03*
Y386814D02*
D03*
Y395314D02*
D03*
X451951Y428710D02*
D03*
X215000Y35250D02*
D03*
X125694Y406043D02*
D03*
X118318Y401817D02*
D03*
X117930Y378540D02*
D03*
X125156Y374064D02*
D03*
X133650Y373739D02*
D03*
X141189Y377664D02*
D03*
X148279Y382353D02*
D03*
X156779D02*
D03*
X174837Y364349D02*
D03*
X180847Y358338D02*
D03*
X186858Y352328D02*
D03*
X192868Y346317D02*
D03*
X198878Y340307D02*
D03*
X204889Y334297D02*
D03*
X208353Y326535D02*
D03*
Y318035D02*
D03*
Y309535D02*
D03*
Y301035D02*
D03*
Y292535D02*
D03*
Y284035D02*
D03*
Y275535D02*
D03*
Y267035D02*
D03*
Y258535D02*
D03*
Y250035D02*
D03*
Y241535D02*
D03*
Y233035D02*
D03*
Y224535D02*
D03*
Y216035D02*
D03*
Y207535D02*
D03*
Y199035D02*
D03*
Y190535D02*
D03*
Y182035D02*
D03*
Y173535D02*
D03*
Y165035D02*
D03*
Y156535D02*
D03*
Y148035D02*
D03*
Y139535D02*
D03*
Y131035D02*
D03*
Y122535D02*
D03*
X256000Y20000D02*
D03*
X256701Y49781D02*
D03*
X256040Y58255D02*
D03*
X255201Y66713D02*
D03*
X255863Y75188D02*
D03*
X256659Y83650D02*
D03*
X250907Y89908D02*
D03*
X244896Y95918D02*
D03*
X238886Y101929D02*
D03*
X232875Y107939D02*
D03*
X226865Y113949D02*
D03*
X223647Y121817D02*
D03*
Y130317D02*
D03*
Y138817D02*
D03*
Y147317D02*
D03*
Y155817D02*
D03*
Y164317D02*
D03*
Y172817D02*
D03*
Y181317D02*
D03*
Y189816D02*
D03*
Y198316D02*
D03*
Y206817D02*
D03*
Y215317D02*
D03*
Y223817D02*
D03*
Y232316D02*
D03*
Y240816D02*
D03*
Y249316D02*
D03*
Y257816D02*
D03*
Y266316D02*
D03*
Y274816D02*
D03*
Y283316D02*
D03*
Y291816D02*
D03*
Y300316D02*
D03*
Y308816D02*
D03*
Y317316D02*
D03*
Y325816D02*
D03*
X223584Y334316D02*
D03*
X219210Y341604D02*
D03*
X213200Y347615D02*
D03*
X207189Y353625D02*
D03*
X201179Y359635D02*
D03*
X195168Y365646D02*
D03*
X189158Y371656D02*
D03*
X183148Y377667D02*
D03*
X177137Y383677D02*
D03*
X171127Y389687D02*
D03*
X165059Y395640D02*
D03*
X156799Y397647D02*
D03*
X148299D02*
D03*
X141203Y402325D02*
D03*
X133667Y406258D02*
D03*
X123434Y305246D02*
D03*
X116749Y299996D02*
D03*
X108580Y297647D02*
D03*
X100080D02*
D03*
X91580D02*
D03*
X83080D02*
D03*
X76244Y302698D02*
D03*
X67744D02*
D03*
X59321Y301556D02*
D03*
X61594Y277462D02*
D03*
X70092Y277302D02*
D03*
X78590Y277499D02*
D03*
X85568Y282353D02*
D03*
X94068D02*
D03*
X102568D02*
D03*
X111067D02*
D03*
X118413Y278075D02*
D03*
X125824Y273914D02*
D03*
X134324Y273961D02*
D03*
X141694Y278197D02*
D03*
X149108Y282353D02*
D03*
X157608D02*
D03*
X165347Y278838D02*
D03*
X171358Y272828D02*
D03*
X177368Y266817D02*
D03*
X183353Y260782D02*
D03*
Y252282D02*
D03*
Y243782D02*
D03*
Y235282D02*
D03*
Y226782D02*
D03*
Y218282D02*
D03*
Y209782D02*
D03*
Y201282D02*
D03*
Y192782D02*
D03*
Y184282D02*
D03*
Y175782D02*
D03*
Y167282D02*
D03*
Y158782D02*
D03*
Y150282D02*
D03*
Y141782D02*
D03*
Y133282D02*
D03*
Y124782D02*
D03*
Y116282D02*
D03*
X184147Y107819D02*
D03*
X189754Y101431D02*
D03*
X195765Y95421D02*
D03*
X201775Y89410D02*
D03*
X207785Y83400D02*
D03*
X213796Y77390D02*
D03*
X219806Y71379D02*
D03*
X242500Y23000D02*
D03*
X250874Y27025D02*
D03*
X239506Y73309D02*
D03*
X233495Y79319D02*
D03*
X227485Y85330D02*
D03*
X221474Y91340D02*
D03*
X215464Y97350D02*
D03*
X209454Y103361D02*
D03*
X203443Y109371D02*
D03*
X198647Y116389D02*
D03*
Y124888D02*
D03*
Y133389D02*
D03*
Y141889D02*
D03*
Y150388D02*
D03*
Y158889D02*
D03*
Y167388D02*
D03*
Y175888D02*
D03*
Y184388D02*
D03*
Y192888D02*
D03*
Y201388D02*
D03*
Y209888D02*
D03*
Y218388D02*
D03*
Y226888D02*
D03*
Y235388D02*
D03*
Y243888D02*
D03*
Y252388D02*
D03*
Y260888D02*
D03*
X196589Y269135D02*
D03*
X190624Y275191D02*
D03*
X184613Y281201D02*
D03*
X178603Y287211D02*
D03*
X172593Y293222D02*
D03*
X165299Y297587D02*
D03*
X156799Y297647D02*
D03*
X148299D02*
D03*
X141203Y302325D02*
D03*
X133667Y306258D02*
D03*
X244000Y49000D02*
D03*
X230521Y50079D02*
D03*
X337500Y27500D02*
D03*
X327500D02*
D03*
X317500D02*
D03*
X307500D02*
D03*
X297500D02*
D03*
X287500D02*
D03*
X267500D02*
D03*
X277500D02*
D03*
X296000Y363000D02*
D03*
Y378000D02*
D03*
Y283000D02*
D03*
Y298000D02*
D03*
X309000Y310000D02*
D03*
X317000Y331000D02*
D03*
X307000Y339000D02*
D03*
X309000Y320000D02*
D03*
X302000Y348000D02*
D03*
X312000Y357000D02*
D03*
X287000Y322000D02*
D03*
M02*
