G04*
G04 #@! TF.GenerationSoftware,Altium Limited,Altium Designer,25.0.2 (28)*
G04*
G04 Layer_Color=8421504*
%FSLAX44Y44*%
%MOMM*%
G71*
G04*
G04 #@! TF.SameCoordinates,03372A04-C462-4CF8-ACA0-C5B6D0AAF50A*
G04*
G04*
G04 #@! TF.FilePolarity,Positive*
G04*
G01*
G75*
%ADD15R,0.3000X0.7000*%
%ADD16R,0.3000X1.0000*%
%ADD17R,0.3500X0.3500*%
%ADD18R,1.3000X2.7000*%
G36*
X325783Y347424D02*
X325924Y347283D01*
X326000Y347099D01*
Y347000D01*
Y345000D01*
Y344901D01*
X325924Y344717D01*
X325783Y344576D01*
X325600Y344500D01*
X318901D01*
X318717Y344576D01*
X318576Y344717D01*
X318500Y344901D01*
Y345000D01*
Y347000D01*
Y347099D01*
X318576Y347283D01*
X318717Y347424D01*
X318901Y347500D01*
X325600D01*
X325783Y347424D01*
D02*
G37*
G36*
X301283D02*
X301424Y347283D01*
X301500Y347099D01*
Y347000D01*
Y345000D01*
Y344901D01*
X301424Y344717D01*
X301283Y344576D01*
X301099Y344500D01*
X294401D01*
X294217Y344576D01*
X294076Y344717D01*
X294000Y344901D01*
Y345000D01*
Y347000D01*
Y347099D01*
X294076Y347283D01*
X294217Y347424D01*
X294401Y347500D01*
X301099D01*
X301283Y347424D01*
D02*
G37*
G36*
X311783Y348924D02*
X311924Y348783D01*
X312000Y348599D01*
Y348500D01*
Y341500D01*
Y341400D01*
X311924Y341217D01*
X311783Y341076D01*
X311600Y341000D01*
X308401D01*
X308217Y341076D01*
X308076Y341217D01*
X308000Y341400D01*
Y341500D01*
Y348500D01*
Y348599D01*
X308076Y348783D01*
X308217Y348924D01*
X308401Y349000D01*
X311600D01*
X311783Y348924D01*
D02*
G37*
G36*
X325783Y339424D02*
X325924Y339283D01*
X326000Y339099D01*
Y339000D01*
Y337000D01*
Y336900D01*
X325924Y336717D01*
X325783Y336576D01*
X325600Y336500D01*
X318901D01*
X318717Y336576D01*
X318576Y336717D01*
X318500Y336900D01*
Y337000D01*
Y339000D01*
Y339099D01*
X318576Y339283D01*
X318717Y339424D01*
X318901Y339500D01*
X325600D01*
X325783Y339424D01*
D02*
G37*
G36*
X301283D02*
X301424Y339283D01*
X301500Y339099D01*
Y339000D01*
Y337000D01*
Y336900D01*
X301424Y336717D01*
X301283Y336576D01*
X301099Y336500D01*
X294401D01*
X294217Y336576D01*
X294076Y336717D01*
X294000Y336900D01*
Y337000D01*
Y339000D01*
Y339099D01*
X294076Y339283D01*
X294217Y339424D01*
X294401Y339500D01*
X301099D01*
X301283Y339424D01*
D02*
G37*
G36*
X311783Y338924D02*
X311924Y338783D01*
X312000Y338599D01*
Y338500D01*
Y331500D01*
Y331400D01*
X311924Y331217D01*
X311783Y331076D01*
X311600Y331000D01*
X308401D01*
X308217Y331076D01*
X308076Y331217D01*
X308000Y331400D01*
Y331500D01*
Y338500D01*
Y338599D01*
X308076Y338783D01*
X308217Y338924D01*
X308401Y339000D01*
X311600D01*
X311783Y338924D01*
D02*
G37*
G36*
X325783Y331424D02*
X325924Y331283D01*
X326000Y331099D01*
Y331000D01*
Y329000D01*
Y328900D01*
X325924Y328717D01*
X325783Y328576D01*
X325600Y328500D01*
X318901D01*
X318717Y328576D01*
X318576Y328717D01*
X318500Y328900D01*
Y329000D01*
Y331000D01*
Y331099D01*
X318576Y331283D01*
X318717Y331424D01*
X318901Y331500D01*
X325600D01*
X325783Y331424D01*
D02*
G37*
G36*
X301283D02*
X301424Y331283D01*
X301500Y331099D01*
Y331000D01*
Y329000D01*
Y328900D01*
X301424Y328717D01*
X301283Y328576D01*
X301099Y328500D01*
X294401D01*
X294217Y328576D01*
X294076Y328717D01*
X294000Y328900D01*
Y329000D01*
Y331000D01*
Y331099D01*
X294076Y331283D01*
X294217Y331424D01*
X294401Y331500D01*
X301099D01*
X301283Y331424D01*
D02*
G37*
G36*
X311783Y328924D02*
X311924Y328783D01*
X312000Y328599D01*
Y328500D01*
Y321500D01*
Y321400D01*
X311924Y321217D01*
X311783Y321076D01*
X311600Y321000D01*
X308401D01*
X308217Y321076D01*
X308076Y321217D01*
X308000Y321400D01*
Y321500D01*
Y328500D01*
Y328599D01*
X308076Y328783D01*
X308217Y328924D01*
X308401Y329000D01*
X311600D01*
X311783Y328924D01*
D02*
G37*
G36*
X325783Y323424D02*
X325924Y323283D01*
X326000Y323099D01*
Y323000D01*
Y321000D01*
Y320900D01*
X325924Y320717D01*
X325783Y320576D01*
X325600Y320500D01*
X318901D01*
X318717Y320576D01*
X318576Y320717D01*
X318500Y320900D01*
Y321000D01*
Y323000D01*
Y323099D01*
X318576Y323283D01*
X318717Y323424D01*
X318901Y323500D01*
X325600D01*
X325783Y323424D01*
D02*
G37*
G36*
X301283D02*
X301424Y323283D01*
X301500Y323099D01*
Y323000D01*
Y321000D01*
Y320900D01*
X301424Y320717D01*
X301283Y320576D01*
X301099Y320500D01*
X294401D01*
X294217Y320576D01*
X294076Y320717D01*
X294000Y320900D01*
Y321000D01*
Y323000D01*
Y323099D01*
X294076Y323283D01*
X294217Y323424D01*
X294401Y323500D01*
X301099D01*
X301283Y323424D01*
D02*
G37*
G36*
X325783Y315424D02*
X325924Y315283D01*
X326000Y315099D01*
Y315000D01*
Y313000D01*
Y312901D01*
X325924Y312717D01*
X325783Y312576D01*
X325600Y312500D01*
X318901D01*
X318717Y312576D01*
X318576Y312717D01*
X318500Y312901D01*
Y313000D01*
Y315000D01*
Y315099D01*
X318576Y315283D01*
X318717Y315424D01*
X318901Y315500D01*
X325600D01*
X325783Y315424D01*
D02*
G37*
G36*
X301283D02*
X301424Y315283D01*
X301500Y315099D01*
Y315000D01*
Y313000D01*
Y312901D01*
X301424Y312717D01*
X301283Y312576D01*
X301099Y312500D01*
X294401D01*
X294217Y312576D01*
X294076Y312717D01*
X294000Y312901D01*
Y313000D01*
Y315000D01*
Y315099D01*
X294076Y315283D01*
X294217Y315424D01*
X294401Y315500D01*
X301099D01*
X301283Y315424D01*
D02*
G37*
G36*
X311783Y318924D02*
X311924Y318783D01*
X312000Y318599D01*
Y318500D01*
Y311500D01*
Y311401D01*
X311924Y311217D01*
X311783Y311076D01*
X311600Y311000D01*
X308401D01*
X308217Y311076D01*
X308076Y311217D01*
X308000Y311401D01*
Y311500D01*
Y318500D01*
Y318599D01*
X308076Y318783D01*
X308217Y318924D01*
X308401Y319000D01*
X311600D01*
X311783Y318924D01*
D02*
G37*
D15*
X222500Y35250D02*
D03*
X227500D02*
D03*
X232500D02*
D03*
X237500D02*
D03*
X242500D02*
D03*
X247500D02*
D03*
X252500D02*
D03*
X257500D02*
D03*
X262500D02*
D03*
X267500D02*
D03*
X272500D02*
D03*
X277500D02*
D03*
X282500D02*
D03*
X287500D02*
D03*
X292500D02*
D03*
X297500D02*
D03*
X302500D02*
D03*
X307500D02*
D03*
X312500D02*
D03*
X317500D02*
D03*
X322500D02*
D03*
X327500D02*
D03*
X332500D02*
D03*
X337500D02*
D03*
D16*
X214600Y8750D02*
D03*
X345400D02*
D03*
D17*
X243250Y55000D02*
D03*
X248750D02*
D03*
X231250D02*
D03*
X236750D02*
D03*
D18*
X324000Y290000D02*
D03*
X296000D02*
D03*
X324000Y370000D02*
D03*
X296000D02*
D03*
M02*
