G04*
G04 #@! TF.GenerationSoftware,Altium Limited,Altium Designer,25.0.2 (28)*
G04*
G04 Layer_Physical_Order=3*
G04 Layer_Color=36540*
%FSLAX44Y44*%
%MOMM*%
G71*
G04*
G04 #@! TF.SameCoordinates,9294F1C2-9D63-464E-A418-A043A43F256C*
G04*
G04*
G04 #@! TF.FilePolarity,Positive*
G04*
G01*
G75*
%ADD10C,0.2000*%
%ADD22C,3.5000*%
%ADD23C,2.6000*%
%ADD24C,2.3000*%
%ADD25C,1.5200*%
%ADD26R,1.5200X1.5200*%
%ADD27C,2.0000*%
%ADD29O,1.7500X2.5000*%
%ADD30C,0.6000*%
%ADD35C,0.5000*%
%ADD36C,0.4000*%
%ADD37C,0.3000*%
%ADD38C,0.3287*%
%ADD40C,1.0000*%
G36*
X53507Y521717D02*
X52981Y520491D01*
X52516Y519221D01*
X52114Y517906D01*
X51495Y515141D01*
X51279Y513692D01*
X51031Y510658D01*
X51000Y509073D01*
X41000D01*
X40969Y510658D01*
X40722Y513692D01*
X40505Y515141D01*
X39886Y517906D01*
X39484Y519221D01*
X39019Y520491D01*
X38493Y521717D01*
X37905Y522897D01*
X54095D01*
X53507Y521717D01*
D02*
G37*
G36*
X51026Y485670D02*
X51411Y481170D01*
X51642Y480070D01*
X51925Y479170D01*
X52259Y478470D01*
X52645Y477970D01*
X53081Y477669D01*
X53569Y477570D01*
X38431D01*
X38919Y477669D01*
X39355Y477970D01*
X39741Y478470D01*
X40075Y479170D01*
X40358Y480070D01*
X40589Y481170D01*
X40769Y482469D01*
X40974Y485670D01*
X41000Y487570D01*
X51000D01*
X51026Y485670D01*
D02*
G37*
G36*
X53004Y475795D02*
X52721Y474876D01*
Y473815D01*
X53004Y472613D01*
X53569Y471269D01*
X54418Y469784D01*
X55549Y468158D01*
X56964Y466390D01*
X60641Y462430D01*
X53569Y455359D01*
X51519Y457339D01*
X47842Y460451D01*
X46216Y461582D01*
X44731Y462430D01*
X43387Y462996D01*
X42185Y463279D01*
X41124D01*
X40205Y462996D01*
X39427Y462430D01*
X53569Y476573D01*
X53004Y475795D01*
D02*
G37*
G36*
X118573Y399380D02*
X117858Y400079D01*
X116469Y401255D01*
X115794Y401733D01*
X115132Y402138D01*
X114484Y402468D01*
X113848Y402726D01*
X113225Y402910D01*
X112616Y403020D01*
X112020Y403057D01*
Y406343D01*
X112616Y406380D01*
X113225Y406490D01*
X113848Y406674D01*
X114484Y406931D01*
X115132Y407262D01*
X115794Y407667D01*
X116469Y408145D01*
X117157Y408696D01*
X117858Y409321D01*
X118573Y410020D01*
Y399380D01*
D02*
G37*
G36*
X79606Y411600D02*
X81847Y409523D01*
X82902Y408680D01*
X83914Y407966D01*
X84882Y407382D01*
X85807Y406927D01*
X86689Y406603D01*
X87527Y406408D01*
X88321Y406343D01*
X88235Y403057D01*
X87465Y402994D01*
X86638Y402804D01*
X85755Y402488D01*
X84816Y402046D01*
X83821Y401477D01*
X82769Y400782D01*
X81662Y399961D01*
X79277Y397939D01*
X78000Y396739D01*
X78420Y412833D01*
X79606Y411600D01*
D02*
G37*
G36*
X153944Y318555D02*
X155426Y317300D01*
X156133Y316791D01*
X156817Y316361D01*
X157479Y316010D01*
X158118Y315739D01*
X158735Y315547D01*
X159329Y315434D01*
X159900Y315399D01*
X150000Y305500D01*
X149966Y306071D01*
X149853Y306665D01*
X149661Y307282D01*
X149390Y307921D01*
X149039Y308583D01*
X148609Y309267D01*
X148100Y309974D01*
X147512Y310704D01*
X146098Y312231D01*
X153169Y319302D01*
X153944Y318555D01*
D02*
G37*
G36*
X59179Y294081D02*
X59250Y294064D01*
X59354Y294049D01*
X59665Y294025D01*
X60694Y294001D01*
X61036Y294000D01*
Y290000D01*
X59142Y289900D01*
Y294100D01*
X59179Y294081D01*
D02*
G37*
G36*
X113794Y287900D02*
X112757Y287890D01*
X110885Y287747D01*
X110049Y287613D01*
X109280Y287439D01*
X108578Y287223D01*
X107943Y286965D01*
X107374Y286667D01*
X106873Y286327D01*
X106438Y285947D01*
X104316Y288068D01*
X104697Y288503D01*
X105037Y289004D01*
X105335Y289573D01*
X105592Y290208D01*
X105808Y290910D01*
X105983Y291679D01*
X106117Y292515D01*
X106209Y293418D01*
X106270Y295424D01*
X113794Y287900D01*
D02*
G37*
G36*
X61263Y285986D02*
X61413Y285884D01*
X61585Y285794D01*
X61778Y285716D01*
X61993Y285650D01*
X62229Y285596D01*
X62487Y285554D01*
X62767Y285524D01*
X63390Y285500D01*
Y282500D01*
X63068Y282494D01*
X62487Y282446D01*
X62229Y282404D01*
X61993Y282350D01*
X61778Y282284D01*
X61585Y282206D01*
X61413Y282116D01*
X61263Y282014D01*
X61135Y281900D01*
Y286100D01*
X61263Y285986D01*
D02*
G37*
G36*
X88639Y280391D02*
X88701Y279371D01*
X88730Y279201D01*
X88764Y279065D01*
X88803Y278964D01*
X88847Y278896D01*
X88896Y278863D01*
X85181Y277026D01*
X84636Y280472D01*
X88636Y280732D01*
X88639Y280391D01*
D02*
G37*
G36*
X337497Y217667D02*
X337525Y217376D01*
X337572Y217095D01*
X337640Y216825D01*
X337728Y216566D01*
X337836Y216318D01*
X337964Y216081D01*
X338113Y215854D01*
X338282Y215639D01*
X338470Y215434D01*
X337056Y214020D01*
X336852Y214209D01*
X336636Y214378D01*
X336410Y214526D01*
X336173Y214655D01*
X335925Y214763D01*
X335666Y214851D01*
X335396Y214918D01*
X335115Y214966D01*
X334823Y214993D01*
X334521Y215000D01*
X337491Y217970D01*
X337497Y217667D01*
D02*
G37*
G36*
X340765Y159104D02*
X340798Y158833D01*
X340853Y158568D01*
X340930Y158309D01*
X341029Y158057D01*
X341150Y157812D01*
X341293Y157573D01*
X341458Y157341D01*
X341645Y157116D01*
X341854Y156897D01*
X337654D01*
X337863Y157116D01*
X338050Y157341D01*
X338215Y157573D01*
X338358Y157812D01*
X338479Y158057D01*
X338578Y158309D01*
X338655Y158568D01*
X338710Y158833D01*
X338743Y159104D01*
X338754Y159383D01*
X340754D01*
X340765Y159104D01*
D02*
G37*
G36*
X370000Y545000D02*
Y470000D01*
X355000Y455000D01*
X275000D01*
X250000Y430000D01*
Y215000D01*
X310000Y155000D01*
Y115000D01*
X333547Y91453D01*
Y37000D01*
X326264D01*
X325075Y39000D01*
X325201Y39304D01*
Y40696D01*
X324668Y41983D01*
X323684Y42967D01*
X322397Y43500D01*
X321005D01*
X319719Y42967D01*
X318734Y41983D01*
X318201Y40696D01*
Y39304D01*
X318327Y39000D01*
X317138Y37000D01*
X306264D01*
X305075Y39000D01*
X305201Y39304D01*
Y40696D01*
X304668Y41983D01*
X303684Y42967D01*
X302397Y43500D01*
X301005D01*
X299719Y42967D01*
X298734Y41983D01*
X298201Y40696D01*
Y39304D01*
X298327Y39000D01*
X297138Y37000D01*
X286264D01*
X285075Y39000D01*
X285201Y39304D01*
Y40696D01*
X284668Y41983D01*
X283684Y42967D01*
X282397Y43500D01*
X281005D01*
X279719Y42967D01*
X278734Y41983D01*
X278201Y40696D01*
Y39304D01*
X278327Y39000D01*
X277138Y37000D01*
X266264D01*
X265075Y39000D01*
X265201Y39304D01*
Y40696D01*
X264668Y41983D01*
X263684Y42967D01*
X262397Y43500D01*
X261005D01*
X259600Y45000D01*
X261005Y46500D01*
X262397D01*
X263684Y47033D01*
X264668Y48017D01*
X265201Y49304D01*
Y50696D01*
X264668Y51983D01*
X263684Y52967D01*
X262397Y53500D01*
X261005D01*
X259600Y55000D01*
X261005Y56500D01*
X262397D01*
X263684Y57033D01*
X264668Y58017D01*
X265201Y59304D01*
Y60696D01*
X264668Y61983D01*
X263684Y62967D01*
X262397Y63500D01*
X261005D01*
X259544Y65060D01*
Y110456D01*
X166000Y204000D01*
Y249993D01*
X166001Y249995D01*
X166989Y251705D01*
X167500Y253613D01*
Y255587D01*
X166989Y257495D01*
X166001Y259205D01*
X166000Y259207D01*
Y275393D01*
X166001Y275395D01*
X166989Y277105D01*
X167500Y279013D01*
Y280987D01*
X166989Y282895D01*
X166001Y284605D01*
X166000Y284607D01*
Y294977D01*
X167650Y296079D01*
X169321Y297750D01*
X170634Y299716D01*
X171539Y301900D01*
X172000Y304218D01*
Y306582D01*
X171539Y308900D01*
X170634Y311084D01*
X169321Y313050D01*
X167650Y314721D01*
X166000Y315823D01*
Y349875D01*
X167304Y351500D01*
X168696D01*
X169983Y352033D01*
X170967Y353017D01*
X171500Y354304D01*
Y355696D01*
X170967Y356983D01*
X170300Y357650D01*
X170117Y358825D01*
X170300Y360000D01*
X170967Y360667D01*
X171500Y361954D01*
Y363346D01*
X170967Y364633D01*
X170300Y365300D01*
X170117Y366475D01*
X170300Y367650D01*
X170967Y368317D01*
X171500Y369604D01*
Y370996D01*
X170967Y372283D01*
X169983Y373267D01*
X168696Y373800D01*
X167304D01*
X166000Y375425D01*
Y426000D01*
X225000Y485000D01*
X225000Y505000D01*
X275000Y555000D01*
X360000D01*
X370000Y545000D01*
D02*
G37*
%LPC*%
G36*
X296600Y550806D02*
Y537400D01*
X310006D01*
X309505Y539921D01*
X308336Y542742D01*
X306640Y545281D01*
X304481Y547440D01*
X301942Y549136D01*
X299121Y550304D01*
X296600Y550806D01*
D02*
G37*
G36*
X347400D02*
Y537400D01*
X360806D01*
X360304Y539921D01*
X359136Y542742D01*
X357440Y545281D01*
X355281Y547440D01*
X352742Y549136D01*
X349921Y550304D01*
X347400Y550806D01*
D02*
G37*
G36*
X292600D02*
X290079Y550304D01*
X287258Y549136D01*
X284719Y547440D01*
X282561Y545281D01*
X280864Y542742D01*
X279696Y539921D01*
X279194Y537400D01*
X292600D01*
Y550806D01*
D02*
G37*
G36*
X343400D02*
X340879Y550304D01*
X338058Y549136D01*
X335519Y547440D01*
X333360Y545281D01*
X331664Y542742D01*
X330496Y539921D01*
X329994Y537400D01*
X343400D01*
Y550806D01*
D02*
G37*
G36*
X360806Y533400D02*
X347400D01*
Y519994D01*
X349921Y520496D01*
X352742Y521664D01*
X355281Y523360D01*
X357440Y525519D01*
X359136Y528058D01*
X360304Y530879D01*
X360806Y533400D01*
D02*
G37*
G36*
X310006D02*
X296600D01*
Y519994D01*
X299121Y520496D01*
X301942Y521664D01*
X304481Y523360D01*
X306640Y525519D01*
X308336Y528058D01*
X309505Y530879D01*
X310006Y533400D01*
D02*
G37*
G36*
X343400D02*
X329994D01*
X330496Y530879D01*
X331664Y528058D01*
X333360Y525519D01*
X335519Y523360D01*
X338058Y521664D01*
X340879Y520496D01*
X343400Y519994D01*
Y533400D01*
D02*
G37*
G36*
X292600D02*
X279194D01*
X279696Y530879D01*
X280864Y528058D01*
X282561Y525519D01*
X284719Y523360D01*
X287258Y521664D01*
X290079Y520496D01*
X292600Y519994D01*
Y533400D01*
D02*
G37*
G36*
X296600Y500006D02*
Y486600D01*
X310006D01*
X309505Y489121D01*
X308336Y491942D01*
X306640Y494481D01*
X304481Y496640D01*
X301942Y498336D01*
X299121Y499504D01*
X296600Y500006D01*
D02*
G37*
G36*
X347400D02*
Y486600D01*
X360806D01*
X360304Y489121D01*
X359136Y491942D01*
X357440Y494481D01*
X355281Y496640D01*
X352742Y498336D01*
X349921Y499504D01*
X347400Y500006D01*
D02*
G37*
G36*
X292600D02*
X290079Y499504D01*
X287258Y498336D01*
X284719Y496640D01*
X282561Y494481D01*
X280864Y491942D01*
X279696Y489121D01*
X279194Y486600D01*
X292600D01*
Y500006D01*
D02*
G37*
G36*
X343400D02*
X340879Y499504D01*
X338058Y498336D01*
X335519Y496640D01*
X333360Y494481D01*
X331664Y491942D01*
X330496Y489121D01*
X329994Y486600D01*
X343400D01*
Y500006D01*
D02*
G37*
G36*
X360806Y482600D02*
X347400D01*
Y469194D01*
X349921Y469696D01*
X352742Y470864D01*
X355281Y472560D01*
X357440Y474719D01*
X359136Y477258D01*
X360304Y480079D01*
X360806Y482600D01*
D02*
G37*
G36*
X310006D02*
X296600D01*
Y469194D01*
X299121Y469696D01*
X301942Y470864D01*
X304481Y472560D01*
X306640Y474719D01*
X308336Y477258D01*
X309505Y480079D01*
X310006Y482600D01*
D02*
G37*
G36*
X343400D02*
X329994D01*
X330496Y480079D01*
X331664Y477258D01*
X333360Y474719D01*
X335519Y472560D01*
X338058Y470864D01*
X340879Y469696D01*
X343400Y469194D01*
Y482600D01*
D02*
G37*
G36*
X292600D02*
X279194D01*
X279696Y480079D01*
X280864Y477258D01*
X282561Y474719D01*
X284719Y472560D01*
X287258Y470864D01*
X290079Y469696D01*
X292600Y469194D01*
Y482600D01*
D02*
G37*
G36*
X229896Y373800D02*
X228504D01*
X227217Y373267D01*
X226233Y372283D01*
X225700Y370996D01*
Y369604D01*
X226233Y368317D01*
X226900Y367650D01*
X227083Y366475D01*
X226900Y365300D01*
X226233Y364633D01*
X225700Y363346D01*
Y361954D01*
X226233Y360667D01*
X226900Y360000D01*
X227083Y358825D01*
X226900Y357650D01*
X226233Y356983D01*
X225700Y355696D01*
Y354304D01*
X226233Y353017D01*
X227217Y352033D01*
X228504Y351500D01*
X229896D01*
X231183Y352033D01*
X232167Y353017D01*
X232700Y354304D01*
Y355696D01*
X232167Y356983D01*
X231500Y357650D01*
X231317Y358825D01*
X231500Y360000D01*
X232167Y360667D01*
X232700Y361954D01*
Y363346D01*
X232167Y364633D01*
X231500Y365300D01*
X231317Y366475D01*
X231500Y367650D01*
X232167Y368317D01*
X232700Y369604D01*
Y370996D01*
X232167Y372283D01*
X231183Y373267D01*
X229896Y373800D01*
D02*
G37*
G36*
X214596D02*
X213204D01*
X211917Y373267D01*
X210933Y372283D01*
X210400Y370996D01*
Y369604D01*
X210933Y368317D01*
X211600Y367650D01*
X211783Y366475D01*
X211600Y365300D01*
X210933Y364633D01*
X210400Y363346D01*
Y361954D01*
X210933Y360667D01*
X211600Y360000D01*
X211783Y358825D01*
X211600Y357650D01*
X210933Y356983D01*
X210400Y355696D01*
Y354304D01*
X210933Y353017D01*
X211917Y352033D01*
X213204Y351500D01*
X214596D01*
X215883Y352033D01*
X216867Y353017D01*
X217400Y354304D01*
Y355696D01*
X216867Y356983D01*
X216200Y357650D01*
X216017Y358825D01*
X216200Y360000D01*
X216867Y360667D01*
X217400Y361954D01*
Y363346D01*
X216867Y364633D01*
X216200Y365300D01*
X216017Y366475D01*
X216200Y367650D01*
X216867Y368317D01*
X217400Y369604D01*
Y370996D01*
X216867Y372283D01*
X215883Y373267D01*
X214596Y373800D01*
D02*
G37*
G36*
X199296D02*
X197904D01*
X196617Y373267D01*
X195633Y372283D01*
X195100Y370996D01*
Y369604D01*
X195633Y368317D01*
X196300Y367650D01*
X196483Y366475D01*
X196300Y365300D01*
X195633Y364633D01*
X195100Y363346D01*
Y361954D01*
X195633Y360667D01*
X196300Y360000D01*
X196483Y358825D01*
X196300Y357650D01*
X195633Y356983D01*
X195100Y355696D01*
Y354304D01*
X195633Y353017D01*
X196617Y352033D01*
X197904Y351500D01*
X199296D01*
X200583Y352033D01*
X201567Y353017D01*
X202100Y354304D01*
Y355696D01*
X201567Y356983D01*
X200900Y357650D01*
X200717Y358825D01*
X200900Y360000D01*
X201567Y360667D01*
X202100Y361954D01*
Y363346D01*
X201567Y364633D01*
X200900Y365300D01*
X200717Y366475D01*
X200900Y367650D01*
X201567Y368317D01*
X202100Y369604D01*
Y370996D01*
X201567Y372283D01*
X200583Y373267D01*
X199296Y373800D01*
D02*
G37*
G36*
X183996D02*
X182604D01*
X181317Y373267D01*
X180333Y372283D01*
X179800Y370996D01*
Y369604D01*
X180333Y368317D01*
X181000Y367650D01*
X181183Y366475D01*
X181000Y365300D01*
X180333Y364633D01*
X179800Y363346D01*
Y361954D01*
X180333Y360667D01*
X181000Y360000D01*
X181183Y358825D01*
X181000Y357650D01*
X180333Y356983D01*
X179800Y355696D01*
Y354304D01*
X180333Y353017D01*
X181317Y352033D01*
X182604Y351500D01*
X183996D01*
X185283Y352033D01*
X186267Y353017D01*
X186800Y354304D01*
Y355696D01*
X186267Y356983D01*
X185600Y357650D01*
X185417Y358825D01*
X185600Y360000D01*
X186267Y360667D01*
X186800Y361954D01*
Y363346D01*
X186267Y364633D01*
X185600Y365300D01*
X185417Y366475D01*
X185600Y367650D01*
X186267Y368317D01*
X186800Y369604D01*
Y370996D01*
X186267Y372283D01*
X185283Y373267D01*
X183996Y373800D01*
D02*
G37*
G36*
X200987Y312900D02*
X199013D01*
X197105Y312389D01*
X195395Y311402D01*
X193999Y310005D01*
X193011Y308295D01*
X192500Y306387D01*
Y304413D01*
X193011Y302505D01*
X193999Y300795D01*
X195395Y299398D01*
X197105Y298411D01*
X199013Y297900D01*
X200987D01*
X202895Y298411D01*
X204605Y299398D01*
X206001Y300795D01*
X206989Y302505D01*
X207500Y304413D01*
Y306387D01*
X206989Y308295D01*
X206001Y310005D01*
X204605Y311402D01*
X202895Y312389D01*
X200987Y312900D01*
D02*
G37*
G36*
Y287500D02*
X199013D01*
X197105Y286989D01*
X195395Y286001D01*
X193999Y284605D01*
X193011Y282895D01*
X192500Y280987D01*
Y279013D01*
X193011Y277105D01*
X193999Y275395D01*
X195395Y273999D01*
X197105Y273011D01*
X199013Y272500D01*
X200987D01*
X202895Y273011D01*
X204605Y273999D01*
X206001Y275395D01*
X206989Y277105D01*
X207500Y279013D01*
Y280987D01*
X206989Y282895D01*
X206001Y284605D01*
X204605Y286001D01*
X202895Y286989D01*
X200987Y287500D01*
D02*
G37*
G36*
Y262100D02*
X199013D01*
X197105Y261589D01*
X195395Y260602D01*
X193999Y259205D01*
X193011Y257495D01*
X192500Y255587D01*
Y253613D01*
X193011Y251705D01*
X193999Y249995D01*
X195395Y248598D01*
X197105Y247611D01*
X199013Y247100D01*
X200987D01*
X202895Y247611D01*
X204605Y248598D01*
X206001Y249995D01*
X206989Y251705D01*
X207500Y253613D01*
Y255587D01*
X206989Y257495D01*
X206001Y259205D01*
X204605Y260602D01*
X202895Y261589D01*
X200987Y262100D01*
D02*
G37*
G36*
X322397Y63500D02*
X321005D01*
X319719Y62967D01*
X318734Y61983D01*
X318201Y60696D01*
Y59304D01*
X318734Y58017D01*
X319719Y57033D01*
X321005Y56500D01*
X322397D01*
X323684Y57033D01*
X324668Y58017D01*
X325201Y59304D01*
Y60696D01*
X324668Y61983D01*
X323684Y62967D01*
X322397Y63500D01*
D02*
G37*
G36*
X302397D02*
X301005D01*
X299719Y62967D01*
X298734Y61983D01*
X298201Y60696D01*
Y59304D01*
X298734Y58017D01*
X299719Y57033D01*
X301005Y56500D01*
X302397D01*
X303684Y57033D01*
X304668Y58017D01*
X305201Y59304D01*
Y60696D01*
X304668Y61983D01*
X303684Y62967D01*
X302397Y63500D01*
D02*
G37*
G36*
X282397D02*
X281005D01*
X279719Y62967D01*
X278734Y61983D01*
X278201Y60696D01*
Y59304D01*
X278734Y58017D01*
X279719Y57033D01*
X281005Y56500D01*
X282397D01*
X283684Y57033D01*
X284668Y58017D01*
X285201Y59304D01*
Y60696D01*
X284668Y61983D01*
X283684Y62967D01*
X282397Y63500D01*
D02*
G37*
G36*
X322397Y53500D02*
X321005D01*
X319719Y52967D01*
X318734Y51983D01*
X318201Y50696D01*
Y49304D01*
X318734Y48017D01*
X319719Y47033D01*
X321005Y46500D01*
X322397D01*
X323684Y47033D01*
X324668Y48017D01*
X325201Y49304D01*
Y50696D01*
X324668Y51983D01*
X323684Y52967D01*
X322397Y53500D01*
D02*
G37*
G36*
X302397D02*
X301005D01*
X299719Y52967D01*
X298734Y51983D01*
X298201Y50696D01*
Y49304D01*
X298734Y48017D01*
X299719Y47033D01*
X301005Y46500D01*
X302397D01*
X303684Y47033D01*
X304668Y48017D01*
X305201Y49304D01*
Y50696D01*
X304668Y51983D01*
X303684Y52967D01*
X302397Y53500D01*
D02*
G37*
G36*
X282397D02*
X281005D01*
X279719Y52967D01*
X278734Y51983D01*
X278201Y50696D01*
Y49304D01*
X278734Y48017D01*
X279719Y47033D01*
X281005Y46500D01*
X282397D01*
X283684Y47033D01*
X284668Y48017D01*
X285201Y49304D01*
Y50696D01*
X284668Y51983D01*
X283684Y52967D01*
X282397Y53500D01*
D02*
G37*
%LPD*%
D10*
X339754Y154754D02*
Y212736D01*
X334491Y218000D02*
X339754Y212736D01*
X108765Y223765D02*
X110937D01*
X108000Y223000D02*
X108765Y223765D01*
X110937D02*
X111172Y224000D01*
D22*
X146402Y41000D02*
D03*
X387000D02*
D03*
D23*
X195400Y484600D02*
D03*
Y535400D02*
D03*
X144600D02*
D03*
Y484600D02*
D03*
X345400D02*
D03*
Y535400D02*
D03*
X294600D02*
D03*
Y484600D02*
D03*
D24*
X70000Y405000D02*
D03*
D25*
X113870Y295500D02*
D03*
X124000Y404700D02*
D03*
D26*
X46000Y470000D02*
D03*
D27*
X160000Y305400D02*
D03*
D29*
X46000Y530000D02*
D03*
D30*
X58992Y284000D02*
D03*
X88000Y276000D02*
D03*
X57000Y292000D02*
D03*
X200000Y331000D02*
D03*
X334491Y218000D02*
D03*
X331701Y60000D02*
D03*
Y50000D02*
D03*
Y40000D02*
D03*
X311701Y60000D02*
D03*
Y50000D02*
D03*
Y40000D02*
D03*
X291701Y60000D02*
D03*
Y50000D02*
D03*
Y40000D02*
D03*
X271701Y60000D02*
D03*
Y50000D02*
D03*
Y40000D02*
D03*
X339754Y154754D02*
D03*
X108000Y223000D02*
D03*
D35*
X331701Y60000D02*
Y68299D01*
Y50000D02*
Y60000D01*
Y40000D02*
Y50000D01*
X311701D02*
Y60000D01*
Y40000D02*
Y50000D01*
Y60000D02*
Y70000D01*
X291701Y40000D02*
Y50000D01*
Y60000D01*
Y70000D01*
X271701Y40000D02*
Y50000D01*
Y60000D02*
Y70000D01*
Y50000D02*
Y60000D01*
D36*
X86636Y277364D02*
X87000Y277000D01*
X57000Y292000D02*
X76899D01*
X86636Y277364D02*
Y282263D01*
X76899Y292000D02*
X86636Y282263D01*
D37*
X80308Y269500D02*
X91500D01*
X65808Y284000D02*
X80308Y269500D01*
X99789Y277789D02*
Y281419D01*
X91500Y269500D02*
X99789Y277789D01*
Y281419D02*
X113870Y295500D01*
X58992Y284000D02*
X65808D01*
D38*
X70000Y405000D02*
X70300Y404700D01*
X124000D01*
D40*
X145000Y320400D02*
Y406963D01*
Y320400D02*
X160000Y305400D01*
X101963Y450000D02*
X145000Y406963D01*
X66000Y450000D02*
X101963D01*
X46000Y470000D02*
X66000Y450000D01*
X46000Y470000D02*
Y530000D01*
M02*
