G04*
G04 #@! TF.GenerationSoftware,Altium Limited,Altium Designer,25.0.2 (28)*
G04*
G04 Layer_Color=16711935*
%FSLAX44Y44*%
%MOMM*%
G71*
G04*
G04 #@! TF.SameCoordinates,9294F1C2-9D63-464E-A418-A043A43F256C*
G04*
G04*
G04 #@! TF.FilePolarity,Positive*
G04*
G01*
G75*
%ADD10C,0.2000*%
D10*
X368000Y-6000D02*
G03*
X381657Y-343I0J19314D01*
G01*
X429343Y47343D02*
G03*
X435000Y61000I-13657J13657D01*
G01*
X439000Y175000D02*
G03*
X435000Y165343I9657J-9657D01*
G01*
X439000Y175000D02*
G03*
X506000Y336752I-161752J161752D01*
G01*
Y569000D02*
G03*
X493000Y582000I-13000J0D01*
G01*
X41000D02*
G03*
X28000Y569000I0J-13000D01*
G01*
Y336752D02*
G03*
X95000Y175000I228752J0D01*
G01*
X99000Y165343D02*
G03*
X95000Y175000I-13657J0D01*
G01*
X99000Y61000D02*
G03*
X104657Y47343I19314J0D01*
G01*
X152343Y-343D02*
G03*
X166000Y-6000I13657J13657D01*
G01*
X381657Y-343D02*
X429343Y47343D01*
X435000Y61000D02*
Y165343D01*
X506000Y336752D02*
Y569000D01*
X283000Y582000D02*
X493000D01*
X267000Y-6000D02*
X368000D01*
X166000D02*
X267000D01*
X41000Y582000D02*
X284000D01*
X28000Y336752D02*
Y569000D01*
X99000Y61000D02*
Y165343D01*
X104657Y47343D02*
X152343Y-343D01*
M02*
