G04*
G04 #@! TF.GenerationSoftware,Altium Limited,Altium Designer,25.0.2 (28)*
G04*
G04 Layer_Physical_Order=4*
G04 Layer_Color=16440176*
%FSLAX44Y44*%
%MOMM*%
G71*
G04*
G04 #@! TF.SameCoordinates,9294F1C2-9D63-464E-A418-A043A43F256C*
G04*
G04*
G04 #@! TF.FilePolarity,Positive*
G04*
G01*
G75*
%ADD10C,0.2000*%
%ADD22C,3.5000*%
%ADD23C,2.6000*%
%ADD25C,1.5200*%
%ADD28R,1.5200X1.5200*%
%ADD30C,0.6000*%
%ADD35C,0.5000*%
G36*
X467259Y392430D02*
X467094Y392535D01*
X466903Y392584D01*
X466686Y392579D01*
X466443Y392520D01*
X466173Y392406D01*
X465877Y392237D01*
X465555Y392014D01*
X465206Y391736D01*
X464832Y391403D01*
X464431Y391016D01*
X462816Y392230D01*
X463221Y392650D01*
X463856Y393397D01*
X464085Y393725D01*
X464255Y394023D01*
X464368Y394291D01*
X464421Y394528D01*
X464416Y394735D01*
X464353Y394912D01*
X464230Y395059D01*
X467259Y392430D01*
D02*
G37*
G36*
X301689Y399415D02*
X302162Y396337D01*
X302361Y395501D01*
X302581Y394760D01*
X302821Y394114D01*
X303083Y393563D01*
X303365Y393107D01*
X303668Y392746D01*
X302387Y391199D01*
X301980Y391542D01*
X301495Y391837D01*
X300931Y392083D01*
X300288Y392280D01*
X299567Y392428D01*
X298767Y392528D01*
X297889Y392579D01*
X296932Y392582D01*
X294783Y392440D01*
X301574Y400631D01*
X301689Y399415D01*
D02*
G37*
G36*
X395524Y392400D02*
X394357Y392395D01*
X391378Y392164D01*
X390557Y392016D01*
X389824Y391832D01*
X389177Y391613D01*
X388616Y391358D01*
X388143Y391067D01*
X387755Y390741D01*
X386341Y392155D01*
X386667Y392543D01*
X386958Y393016D01*
X387213Y393577D01*
X387432Y394224D01*
X387616Y394957D01*
X387764Y395778D01*
X387877Y396684D01*
X387995Y398758D01*
X388000Y399924D01*
X395524Y392400D01*
D02*
G37*
G36*
X422340Y392519D02*
X421075Y392281D01*
X417059Y391293D01*
X416316Y391036D01*
X415677Y390776D01*
X415143Y390512D01*
X414713Y390244D01*
X414387Y389973D01*
X412702Y391117D01*
X413059Y391539D01*
X413356Y392032D01*
X413591Y392595D01*
X413767Y393229D01*
X413881Y393933D01*
X413936Y394708D01*
X413929Y395553D01*
X413862Y396469D01*
X413735Y397455D01*
X413547Y398511D01*
X422340Y392519D01*
D02*
G37*
G36*
X448165Y392608D02*
X446869Y392289D01*
X442054Y390817D01*
X441424Y390546D01*
X440904Y390284D01*
X440495Y390030D01*
X440198Y389783D01*
X438427Y390841D01*
X438791Y391271D01*
X439087Y391767D01*
X439316Y392327D01*
X439479Y392954D01*
X439574Y393646D01*
X439602Y394403D01*
X439563Y395226D01*
X439458Y396114D01*
X439285Y397068D01*
X439044Y398088D01*
X448165Y392608D01*
D02*
G37*
G36*
X374446Y393697D02*
X367198Y388484D01*
X365258Y389372D01*
X365656Y389833D01*
X365950Y390314D01*
X366139Y390817D01*
X366224Y391340D01*
X366205Y391885D01*
X366081Y392450D01*
X365854Y393037D01*
X365522Y393645D01*
X365085Y394273D01*
X364545Y394923D01*
X374446Y393697D01*
D02*
G37*
G36*
X334011Y316350D02*
X334044Y316078D01*
X334099Y315813D01*
X334176Y315555D01*
X334275Y315303D01*
X334396Y315058D01*
X334539Y314819D01*
X334704Y314587D01*
X334891Y314361D01*
X335100Y314142D01*
X330900D01*
X331109Y314361D01*
X331296Y314587D01*
X331461Y314819D01*
X331604Y315058D01*
X331725Y315303D01*
X331824Y315555D01*
X331901Y315813D01*
X331956Y316078D01*
X331989Y316350D01*
X332000Y316628D01*
X334000D01*
X334011Y316350D01*
D02*
G37*
G36*
X462124Y287588D02*
X461821Y287581D01*
X461529Y287554D01*
X461249Y287507D01*
X460979Y287439D01*
X460719Y287351D01*
X460471Y287243D01*
X460234Y287115D01*
X460008Y286966D01*
X459792Y286797D01*
X459588Y286608D01*
X458174Y288022D01*
X458363Y288227D01*
X458531Y288442D01*
X458680Y288669D01*
X458808Y288906D01*
X458916Y289154D01*
X459004Y289413D01*
X459072Y289683D01*
X459119Y289964D01*
X459147Y290256D01*
X459154Y290558D01*
X462124Y287588D01*
D02*
G37*
G36*
X439713Y287605D02*
X439407Y287564D01*
X439112Y287507D01*
X438829Y287433D01*
X438559Y287344D01*
X438299Y287239D01*
X438052Y287117D01*
X437816Y286979D01*
X437592Y286825D01*
X437380Y286655D01*
X437180Y286469D01*
X435593Y287710D01*
X435784Y287918D01*
X435951Y288136D01*
X436095Y288363D01*
X436214Y288599D01*
X436309Y288845D01*
X436380Y289100D01*
X436427Y289365D01*
X436450Y289639D01*
X436449Y289922D01*
X436423Y290215D01*
X439713Y287605D01*
D02*
G37*
G36*
X405077Y289652D02*
X405054Y289379D01*
X405058Y289113D01*
X405089Y288856D01*
X405147Y288606D01*
X405232Y288364D01*
X405344Y288130D01*
X405483Y287904D01*
X405649Y287686D01*
X405842Y287475D01*
X404106Y286383D01*
X403910Y286567D01*
X403702Y286738D01*
X403481Y286896D01*
X403249Y287041D01*
X403005Y287174D01*
X402749Y287295D01*
X402481Y287402D01*
X402200Y287497D01*
X401603Y287648D01*
X405128Y289933D01*
X405077Y289652D01*
D02*
G37*
G36*
X412091Y288227D02*
X411904Y288001D01*
X411739Y287769D01*
X411596Y287530D01*
X411475Y287285D01*
X411376Y287033D01*
X411299Y286775D01*
X411244Y286510D01*
X411211Y286238D01*
X411200Y285960D01*
X409200D01*
X409189Y286238D01*
X409156Y286510D01*
X409101Y286775D01*
X409024Y287033D01*
X408925Y287285D01*
X408804Y287530D01*
X408661Y287769D01*
X408496Y288001D01*
X408309Y288227D01*
X408100Y288446D01*
X412300D01*
X412091Y288227D01*
D02*
G37*
G36*
X325917Y243654D02*
X325770Y243161D01*
X325682Y242685D01*
X325653Y242225D01*
X325682Y241782D01*
X325770Y241356D01*
X325916Y240946D01*
X326121Y240553D01*
X326385Y240176D01*
X326707Y239816D01*
X325293Y238402D01*
X324903Y238757D01*
X324493Y239065D01*
X324062Y239324D01*
X323609Y239536D01*
X323136Y239700D01*
X322642Y239817D01*
X322127Y239885D01*
X321591Y239906D01*
X321034Y239879D01*
X320456Y239804D01*
X326122Y244163D01*
X325917Y243654D01*
D02*
G37*
G36*
X348456Y240710D02*
X348122Y240411D01*
X347828Y240086D01*
X347573Y239738D01*
X347357Y239365D01*
X347180Y238968D01*
X347043Y238546D01*
X346945Y238100D01*
X346886Y237629D01*
X346866Y237134D01*
X344866D01*
X344844Y237565D01*
X344779Y237964D01*
X344669Y238329D01*
X344516Y238660D01*
X344320Y238958D01*
X344079Y239223D01*
X343795Y239454D01*
X343467Y239651D01*
X343096Y239816D01*
X342681Y239946D01*
X348829Y240985D01*
X348456Y240710D01*
D02*
G37*
G36*
X298827Y241600D02*
X297986Y240833D01*
X296569Y239381D01*
X295994Y238696D01*
X295507Y238039D01*
X295108Y237409D01*
X294798Y236806D01*
X294577Y236231D01*
X294444Y235684D01*
X294400Y235164D01*
X292400Y235270D01*
X292358Y235756D01*
X292232Y236287D01*
X292022Y236863D01*
X291728Y237485D01*
X291350Y238151D01*
X290889Y238863D01*
X289713Y240421D01*
X288999Y241268D01*
X288202Y242160D01*
X298827Y241600D01*
D02*
G37*
G36*
X393891Y221639D02*
X393704Y221413D01*
X393539Y221181D01*
X393396Y220942D01*
X393275Y220697D01*
X393176Y220445D01*
X393099Y220187D01*
X393044Y219922D01*
X393011Y219650D01*
X393000Y219372D01*
X391000D01*
X390989Y219650D01*
X390956Y219922D01*
X390901Y220187D01*
X390824Y220445D01*
X390725Y220697D01*
X390604Y220942D01*
X390461Y221181D01*
X390296Y221413D01*
X390109Y221639D01*
X389900Y221858D01*
X394100D01*
X393891Y221639D01*
D02*
G37*
G36*
X384891D02*
X384704Y221413D01*
X384539Y221181D01*
X384396Y220942D01*
X384275Y220697D01*
X384176Y220445D01*
X384099Y220187D01*
X384044Y219922D01*
X384011Y219650D01*
X384000Y219372D01*
X382000D01*
X381989Y219650D01*
X381956Y219922D01*
X381901Y220187D01*
X381824Y220445D01*
X381725Y220697D01*
X381604Y220942D01*
X381461Y221181D01*
X381296Y221413D01*
X381109Y221639D01*
X380900Y221858D01*
X385100D01*
X384891Y221639D01*
D02*
G37*
G36*
X375891D02*
X375704Y221413D01*
X375539Y221181D01*
X375396Y220942D01*
X375275Y220697D01*
X375176Y220445D01*
X375099Y220187D01*
X375044Y219922D01*
X375011Y219650D01*
X375000Y219372D01*
X373000D01*
X372989Y219650D01*
X372956Y219922D01*
X372901Y220187D01*
X372824Y220445D01*
X372725Y220697D01*
X372604Y220942D01*
X372461Y221181D01*
X372296Y221413D01*
X372109Y221639D01*
X371900Y221858D01*
X376100D01*
X375891Y221639D01*
D02*
G37*
G36*
X366891D02*
X366704Y221413D01*
X366539Y221181D01*
X366396Y220942D01*
X366275Y220697D01*
X366176Y220445D01*
X366099Y220187D01*
X366044Y219922D01*
X366011Y219650D01*
X366000Y219372D01*
X364000D01*
X363989Y219650D01*
X363956Y219922D01*
X363901Y220187D01*
X363824Y220445D01*
X363725Y220697D01*
X363604Y220942D01*
X363461Y221181D01*
X363296Y221413D01*
X363109Y221639D01*
X362900Y221858D01*
X367100D01*
X366891Y221639D01*
D02*
G37*
G36*
X401891Y221639D02*
X401704Y221413D01*
X401539Y221181D01*
X401396Y220942D01*
X401275Y220697D01*
X401176Y220445D01*
X401099Y220187D01*
X401044Y219921D01*
X401011Y219650D01*
X401000Y219372D01*
X399000D01*
X398989Y219650D01*
X398956Y219921D01*
X398901Y220187D01*
X398824Y220445D01*
X398725Y220697D01*
X398604Y220942D01*
X398461Y221181D01*
X398296Y221413D01*
X398109Y221639D01*
X397900Y221858D01*
X402100D01*
X401891Y221639D01*
D02*
G37*
G36*
X109891Y220639D02*
X109704Y220413D01*
X109539Y220181D01*
X109396Y219942D01*
X109275Y219697D01*
X109176Y219445D01*
X109099Y219187D01*
X109044Y218922D01*
X109011Y218650D01*
X109000Y218372D01*
X107000D01*
X106989Y218650D01*
X106956Y218922D01*
X106901Y219187D01*
X106824Y219445D01*
X106725Y219697D01*
X106604Y219942D01*
X106461Y220181D01*
X106296Y220413D01*
X106109Y220639D01*
X105900Y220858D01*
X110100D01*
X109891Y220639D01*
D02*
G37*
G36*
X294400Y220453D02*
X294410Y220181D01*
X294439Y219911D01*
X294487Y219644D01*
X294555Y219379D01*
X294642Y219117D01*
X294748Y218857D01*
X294874Y218600D01*
X295019Y218345D01*
X295183Y218093D01*
X295367Y217843D01*
X291204Y218403D01*
X291432Y218587D01*
X291635Y218783D01*
X291814Y218989D01*
X291970Y219206D01*
X292101Y219434D01*
X292209Y219673D01*
X292292Y219923D01*
X292352Y220184D01*
X292388Y220456D01*
X292400Y220739D01*
X294400Y220453D01*
D02*
G37*
G36*
X115083Y213202D02*
X114842Y213094D01*
X114626Y212965D01*
X114436Y212816D01*
X114271Y212647D01*
X114131Y212458D01*
X114017Y212248D01*
X113929Y212018D01*
X113865Y211768D01*
X113827Y211497D01*
X113814Y211206D01*
X111814Y211444D01*
X111809Y211835D01*
X111720Y212942D01*
X111667Y213289D01*
X111526Y213950D01*
X111438Y214264D01*
X111226Y214859D01*
X115083Y213202D01*
D02*
G37*
G36*
X121891Y207639D02*
X121704Y207413D01*
X121539Y207181D01*
X121396Y206942D01*
X121275Y206697D01*
X121176Y206445D01*
X121099Y206187D01*
X121044Y205921D01*
X121011Y205650D01*
X121000Y205372D01*
X119000D01*
X118989Y205650D01*
X118956Y205921D01*
X118901Y206187D01*
X118824Y206445D01*
X118725Y206697D01*
X118604Y206942D01*
X118461Y207181D01*
X118296Y207413D01*
X118109Y207639D01*
X117900Y207858D01*
X122100D01*
X121891Y207639D01*
D02*
G37*
G36*
X127891Y200639D02*
X127704Y200413D01*
X127539Y200181D01*
X127396Y199942D01*
X127275Y199697D01*
X127176Y199445D01*
X127099Y199187D01*
X127044Y198922D01*
X127011Y198650D01*
X127000Y198372D01*
X125000D01*
X124989Y198650D01*
X124956Y198922D01*
X124901Y199187D01*
X124824Y199445D01*
X124725Y199697D01*
X124604Y199942D01*
X124461Y200181D01*
X124296Y200413D01*
X124109Y200639D01*
X123900Y200858D01*
X128100D01*
X127891Y200639D01*
D02*
G37*
G36*
X305400Y195411D02*
X305409Y195140D01*
X305438Y194870D01*
X305484Y194603D01*
X305550Y194337D01*
X305634Y194073D01*
X305737Y193811D01*
X305859Y193551D01*
X306000Y193293D01*
X306159Y193036D01*
X306337Y192781D01*
X302190Y193449D01*
X302420Y193626D01*
X302626Y193815D01*
X302807Y194016D01*
X302964Y194229D01*
X303098Y194453D01*
X303207Y194690D01*
X303291Y194938D01*
X303352Y195198D01*
X303388Y195470D01*
X303400Y195754D01*
X305400Y195411D01*
D02*
G37*
G36*
X133891Y194639D02*
X133704Y194413D01*
X133539Y194181D01*
X133396Y193942D01*
X133275Y193697D01*
X133176Y193445D01*
X133099Y193187D01*
X133044Y192922D01*
X133011Y192650D01*
X133000Y192372D01*
X131000D01*
X130989Y192650D01*
X130956Y192922D01*
X130901Y193187D01*
X130824Y193445D01*
X130725Y193697D01*
X130604Y193942D01*
X130461Y194181D01*
X130296Y194413D01*
X130109Y194639D01*
X129900Y194858D01*
X134100D01*
X133891Y194639D01*
D02*
G37*
G36*
X321891Y193639D02*
X321704Y193413D01*
X321539Y193181D01*
X321396Y192942D01*
X321275Y192697D01*
X321176Y192445D01*
X321099Y192187D01*
X321044Y191922D01*
X321011Y191650D01*
X321000Y191372D01*
X319000D01*
X318989Y191650D01*
X318956Y191922D01*
X318901Y192187D01*
X318824Y192445D01*
X318725Y192697D01*
X318604Y192942D01*
X318461Y193181D01*
X318296Y193413D01*
X318109Y193639D01*
X317900Y193858D01*
X322100D01*
X321891Y193639D01*
D02*
G37*
G36*
X139266Y188280D02*
X139025Y188153D01*
X138810Y188008D01*
X138620Y187845D01*
X138456Y187665D01*
X138316Y187466D01*
X138202Y187248D01*
X138114Y187013D01*
X138051Y186760D01*
X138013Y186489D01*
X138000Y186200D01*
X136000Y186964D01*
X135993Y187225D01*
X135938Y187754D01*
X135889Y188022D01*
X135750Y188566D01*
X135660Y188841D01*
X135438Y189398D01*
X135306Y189680D01*
X139266Y188280D01*
D02*
G37*
G36*
X333891Y186329D02*
X333704Y186103D01*
X333539Y185871D01*
X333396Y185632D01*
X333275Y185387D01*
X333176Y185135D01*
X333099Y184877D01*
X333044Y184612D01*
X333011Y184340D01*
X333000Y184062D01*
X331000D01*
X330989Y184340D01*
X330956Y184612D01*
X330901Y184877D01*
X330824Y185135D01*
X330725Y185387D01*
X330604Y185632D01*
X330461Y185871D01*
X330296Y186103D01*
X330109Y186329D01*
X329900Y186548D01*
X334100D01*
X333891Y186329D01*
D02*
G37*
G36*
X145891Y181639D02*
X145704Y181413D01*
X145539Y181181D01*
X145396Y180942D01*
X145275Y180697D01*
X145176Y180445D01*
X145099Y180187D01*
X145044Y179921D01*
X145011Y179650D01*
X145000Y179372D01*
X143000D01*
X142989Y179650D01*
X142956Y179921D01*
X142901Y180187D01*
X142824Y180445D01*
X142725Y180697D01*
X142604Y180942D01*
X142461Y181181D01*
X142296Y181413D01*
X142109Y181639D01*
X141900Y181858D01*
X146100D01*
X145891Y181639D01*
D02*
G37*
G36*
X349491Y181625D02*
X349500Y181355D01*
X349527Y181086D01*
X349573Y180818D01*
X349637Y180552D01*
X349719Y180287D01*
X349819Y180023D01*
X349938Y179760D01*
X350075Y179499D01*
X350231Y179240D01*
X350404Y178981D01*
X346271Y179729D01*
X346503Y179901D01*
X346710Y180085D01*
X346893Y180282D01*
X347052Y180491D01*
X347186Y180713D01*
X347295Y180948D01*
X347381Y181195D01*
X347442Y181454D01*
X347478Y181726D01*
X347491Y182010D01*
X349491Y181625D01*
D02*
G37*
G36*
X155891Y174639D02*
X155704Y174413D01*
X155539Y174181D01*
X155396Y173942D01*
X155275Y173697D01*
X155176Y173445D01*
X155099Y173187D01*
X155044Y172922D01*
X155011Y172650D01*
X155000Y172372D01*
X153000D01*
X152989Y172650D01*
X152956Y172922D01*
X152901Y173187D01*
X152824Y173445D01*
X152725Y173697D01*
X152604Y173942D01*
X152461Y174181D01*
X152296Y174413D01*
X152109Y174639D01*
X151900Y174858D01*
X156100D01*
X155891Y174639D01*
D02*
G37*
G36*
X327011Y170350D02*
X327044Y170079D01*
X327099Y169813D01*
X327176Y169555D01*
X327275Y169303D01*
X327396Y169058D01*
X327539Y168819D01*
X327704Y168587D01*
X327891Y168361D01*
X328100Y168142D01*
X323900D01*
X324109Y168361D01*
X324296Y168587D01*
X324461Y168819D01*
X324604Y169058D01*
X324725Y169303D01*
X324824Y169555D01*
X324901Y169813D01*
X324956Y170079D01*
X324989Y170350D01*
X325000Y170628D01*
X327000D01*
X327011Y170350D01*
D02*
G37*
G36*
X366011Y167845D02*
X366044Y167574D01*
X366099Y167309D01*
X366176Y167050D01*
X366275Y166798D01*
X366396Y166553D01*
X366539Y166314D01*
X366704Y166082D01*
X366891Y165857D01*
X367100Y165638D01*
X362900D01*
X363109Y165857D01*
X363296Y166082D01*
X363461Y166314D01*
X363604Y166553D01*
X363725Y166798D01*
X363824Y167050D01*
X363901Y167309D01*
X363956Y167574D01*
X363989Y167845D01*
X364000Y168124D01*
X366000D01*
X366011Y167845D01*
D02*
G37*
G36*
X168891Y163696D02*
X168704Y163470D01*
X168539Y163238D01*
X168396Y163000D01*
X168275Y162754D01*
X168176Y162502D01*
X168099Y162244D01*
X168044Y161979D01*
X168011Y161707D01*
X168000Y161429D01*
X166000Y161429D01*
X165989Y161707D01*
X165956Y161979D01*
X165901Y162244D01*
X165824Y162502D01*
X165725Y162754D01*
X165604Y162999D01*
X165461Y163238D01*
X165296Y163470D01*
X165109Y163696D01*
X164900Y163915D01*
X169100Y163915D01*
X168891Y163696D01*
D02*
G37*
G36*
X373554Y159969D02*
X373359Y159758D01*
X373194Y159539D01*
X373057Y159314D01*
X372948Y159081D01*
X372868Y158842D01*
X372816Y158596D01*
X372793Y158343D01*
X372798Y158083D01*
X372831Y157816D01*
X372893Y157542D01*
X369264Y159656D01*
X369565Y159739D01*
X370132Y159939D01*
X370398Y160055D01*
X370651Y160182D01*
X370893Y160321D01*
X371123Y160470D01*
X371340Y160630D01*
X371546Y160802D01*
X371740Y160984D01*
X373554Y159969D01*
D02*
G37*
G36*
X331011Y152350D02*
X331044Y152079D01*
X331099Y151813D01*
X331176Y151555D01*
X331275Y151303D01*
X331396Y151058D01*
X331539Y150819D01*
X331704Y150587D01*
X331891Y150361D01*
X332100Y150142D01*
X327900D01*
X328109Y150361D01*
X328296Y150587D01*
X328461Y150819D01*
X328604Y151058D01*
X328725Y151303D01*
X328824Y151555D01*
X328901Y151813D01*
X328956Y152079D01*
X328989Y152350D01*
X329000Y152628D01*
X331000D01*
X331011Y152350D01*
D02*
G37*
G36*
X378980Y152566D02*
X378791Y152361D01*
X378622Y152146D01*
X378474Y151919D01*
X378345Y151682D01*
X378237Y151434D01*
X378149Y151175D01*
X378082Y150905D01*
X378034Y150624D01*
X378007Y150333D01*
X378000Y150030D01*
X375030Y153000D01*
X375333Y153007D01*
X375624Y153034D01*
X375905Y153082D01*
X376175Y153149D01*
X376434Y153237D01*
X376682Y153345D01*
X376919Y153474D01*
X377146Y153622D01*
X377361Y153791D01*
X377566Y153980D01*
X378980Y152566D01*
D02*
G37*
G36*
X383980Y145818D02*
X383791Y145613D01*
X383622Y145398D01*
X383474Y145172D01*
X383345Y144935D01*
X383237Y144686D01*
X383149Y144427D01*
X383082Y144157D01*
X383034Y143877D01*
X383007Y143585D01*
X383000Y143282D01*
X380030Y146252D01*
X380333Y146259D01*
X380624Y146286D01*
X380905Y146334D01*
X381175Y146402D01*
X381434Y146489D01*
X381682Y146598D01*
X381919Y146726D01*
X382146Y146875D01*
X382361Y147043D01*
X382566Y147232D01*
X383980Y145818D01*
D02*
G37*
G36*
X322011Y144350D02*
X322044Y144079D01*
X322099Y143813D01*
X322176Y143555D01*
X322275Y143303D01*
X322396Y143058D01*
X322539Y142819D01*
X322704Y142587D01*
X322891Y142361D01*
X323100Y142142D01*
X318900D01*
X319109Y142361D01*
X319296Y142587D01*
X319461Y142819D01*
X319604Y143058D01*
X319725Y143303D01*
X319824Y143555D01*
X319901Y143813D01*
X319956Y144079D01*
X319989Y144350D01*
X320000Y144628D01*
X322000D01*
X322011Y144350D01*
D02*
G37*
G36*
X388980Y139318D02*
X388791Y139114D01*
X388622Y138898D01*
X388474Y138672D01*
X388345Y138434D01*
X388237Y138186D01*
X388149Y137927D01*
X388082Y137657D01*
X388034Y137377D01*
X388007Y137085D01*
X388000Y136782D01*
X385030Y139752D01*
X385333Y139759D01*
X385624Y139787D01*
X385905Y139834D01*
X386175Y139902D01*
X386434Y139990D01*
X386682Y140098D01*
X386919Y140226D01*
X387146Y140374D01*
X387361Y140543D01*
X387566Y140732D01*
X388980Y139318D01*
D02*
G37*
G36*
X149011Y134350D02*
X149044Y134079D01*
X149099Y133813D01*
X149176Y133555D01*
X149275Y133303D01*
X149396Y133058D01*
X149539Y132819D01*
X149704Y132587D01*
X149891Y132361D01*
X150100Y132142D01*
X145900D01*
X146109Y132361D01*
X146296Y132587D01*
X146461Y132819D01*
X146604Y133058D01*
X146725Y133303D01*
X146824Y133555D01*
X146901Y133813D01*
X146956Y134079D01*
X146989Y134350D01*
X147000Y134628D01*
X149000D01*
X149011Y134350D01*
D02*
G37*
G36*
X392980Y131566D02*
X392791Y131361D01*
X392622Y131146D01*
X392474Y130919D01*
X392345Y130682D01*
X392237Y130434D01*
X392149Y130175D01*
X392082Y129905D01*
X392034Y129624D01*
X392007Y129333D01*
X392000Y129030D01*
X389030Y132000D01*
X389333Y132007D01*
X389624Y132034D01*
X389905Y132082D01*
X390175Y132149D01*
X390434Y132237D01*
X390682Y132345D01*
X390919Y132474D01*
X391146Y132622D01*
X391361Y132791D01*
X391566Y132980D01*
X392980Y131566D01*
D02*
G37*
G36*
X152119Y124220D02*
X151933Y124020D01*
X151763Y123808D01*
X151609Y123584D01*
X151471Y123348D01*
X151349Y123101D01*
X151244Y122842D01*
X151155Y122570D01*
X151081Y122288D01*
X151025Y121993D01*
X150984Y121687D01*
X148373Y124977D01*
X148666Y124951D01*
X148949Y124950D01*
X149223Y124973D01*
X149488Y125020D01*
X149743Y125091D01*
X149989Y125186D01*
X150226Y125305D01*
X150453Y125449D01*
X150670Y125616D01*
X150878Y125807D01*
X152119Y124220D01*
D02*
G37*
G36*
X392980Y122818D02*
X392791Y122613D01*
X392622Y122398D01*
X392474Y122172D01*
X392345Y121934D01*
X392237Y121686D01*
X392149Y121427D01*
X392082Y121158D01*
X392034Y120877D01*
X392007Y120585D01*
X392000Y120282D01*
X389030Y123252D01*
X389333Y123259D01*
X389624Y123287D01*
X389905Y123334D01*
X390175Y123402D01*
X390434Y123490D01*
X390682Y123598D01*
X390919Y123726D01*
X391146Y123875D01*
X391361Y124043D01*
X391566Y124232D01*
X392980Y122818D01*
D02*
G37*
G36*
X418011Y121103D02*
X418044Y120831D01*
X418099Y120566D01*
X418176Y120307D01*
X418275Y120055D01*
X418396Y119810D01*
X418539Y119571D01*
X418704Y119339D01*
X418891Y119114D01*
X419100Y118895D01*
X414900D01*
X415109Y119114D01*
X415296Y119339D01*
X415461Y119571D01*
X415604Y119810D01*
X415725Y120055D01*
X415824Y120307D01*
X415901Y120566D01*
X415956Y120831D01*
X415989Y121103D01*
X416000Y121381D01*
X418000D01*
X418011Y121103D01*
D02*
G37*
G36*
X152119Y116220D02*
X151933Y116020D01*
X151763Y115808D01*
X151609Y115584D01*
X151471Y115348D01*
X151349Y115101D01*
X151244Y114842D01*
X151155Y114571D01*
X151081Y114288D01*
X151025Y113993D01*
X150984Y113687D01*
X148373Y116977D01*
X148666Y116952D01*
X148949Y116950D01*
X149223Y116973D01*
X149488Y117020D01*
X149743Y117091D01*
X149989Y117186D01*
X150226Y117305D01*
X150452Y117449D01*
X150670Y117616D01*
X150878Y117807D01*
X152119Y116220D01*
D02*
G37*
G36*
X425980Y112818D02*
X425791Y112613D01*
X425622Y112398D01*
X425474Y112172D01*
X425345Y111934D01*
X425237Y111686D01*
X425149Y111427D01*
X425082Y111158D01*
X425034Y110877D01*
X425007Y110585D01*
X425000Y110282D01*
X422030Y113252D01*
X422333Y113259D01*
X422624Y113287D01*
X422905Y113334D01*
X423175Y113402D01*
X423434Y113490D01*
X423682Y113598D01*
X423919Y113726D01*
X424146Y113875D01*
X424361Y114043D01*
X424566Y114232D01*
X425980Y112818D01*
D02*
G37*
G36*
X165627Y109023D02*
X165334Y109049D01*
X165051Y109050D01*
X164776Y109027D01*
X164512Y108980D01*
X164256Y108909D01*
X164011Y108814D01*
X163774Y108695D01*
X163547Y108552D01*
X163330Y108384D01*
X163122Y108193D01*
X161881Y109780D01*
X162067Y109980D01*
X162237Y110192D01*
X162391Y110416D01*
X162529Y110652D01*
X162650Y110899D01*
X162756Y111159D01*
X162845Y111430D01*
X162918Y111712D01*
X162976Y112007D01*
X163016Y112313D01*
X165627Y109023D01*
D02*
G37*
G36*
X429980Y104318D02*
X429791Y104114D01*
X429622Y103898D01*
X429474Y103672D01*
X429345Y103434D01*
X429237Y103186D01*
X429149Y102927D01*
X429082Y102657D01*
X429034Y102377D01*
X429007Y102085D01*
X429000Y101782D01*
X426030Y104752D01*
X426333Y104759D01*
X426624Y104787D01*
X426905Y104834D01*
X427175Y104902D01*
X427434Y104990D01*
X427682Y105098D01*
X427919Y105226D01*
X428146Y105374D01*
X428361Y105543D01*
X428566Y105732D01*
X429980Y104318D01*
D02*
G37*
G36*
X340011Y102350D02*
X340044Y102079D01*
X340099Y101813D01*
X340176Y101555D01*
X340275Y101303D01*
X340396Y101058D01*
X340539Y100819D01*
X340704Y100587D01*
X340891Y100361D01*
X341100Y100142D01*
X336900D01*
X337109Y100361D01*
X337296Y100587D01*
X337461Y100819D01*
X337604Y101058D01*
X337725Y101303D01*
X337824Y101555D01*
X337901Y101813D01*
X337956Y102079D01*
X337989Y102350D01*
X338000Y102628D01*
X340000D01*
X340011Y102350D01*
D02*
G37*
G36*
X163858Y93900D02*
X163639Y94109D01*
X163413Y94296D01*
X163181Y94461D01*
X162942Y94604D01*
X162697Y94725D01*
X162445Y94824D01*
X162187Y94901D01*
X161922Y94956D01*
X161650Y94989D01*
X161372Y95000D01*
Y97000D01*
X161650Y97011D01*
X161922Y97044D01*
X162187Y97099D01*
X162445Y97176D01*
X162697Y97275D01*
X162942Y97396D01*
X163181Y97539D01*
X163413Y97704D01*
X163639Y97891D01*
X163858Y98100D01*
Y93900D01*
D02*
G37*
G36*
X346754Y96234D02*
X346763Y95968D01*
X346787Y95701D01*
X346828Y95434D01*
X346885Y95166D01*
X346959Y94897D01*
X347048Y94628D01*
X347155Y94358D01*
X347416Y93817D01*
X347571Y93546D01*
X343506Y94602D01*
X343743Y94753D01*
X343955Y94918D01*
X344143Y95100D01*
X344305Y95296D01*
X344442Y95507D01*
X344555Y95733D01*
X344642Y95975D01*
X344704Y96231D01*
X344742Y96503D01*
X344754Y96790D01*
X346754Y96234D01*
D02*
G37*
G36*
X352011Y90350D02*
X352044Y90078D01*
X352099Y89813D01*
X352176Y89555D01*
X352275Y89303D01*
X352396Y89058D01*
X352539Y88819D01*
X352704Y88587D01*
X352891Y88361D01*
X353100Y88142D01*
X348900D01*
X349109Y88361D01*
X349296Y88587D01*
X349461Y88819D01*
X349604Y89058D01*
X349725Y89303D01*
X349824Y89555D01*
X349901Y89813D01*
X349956Y90078D01*
X349989Y90350D01*
X350000Y90628D01*
X352000D01*
X352011Y90350D01*
D02*
G37*
G36*
X143639Y91791D02*
X143854Y91622D01*
X144081Y91474D01*
X144318Y91345D01*
X144566Y91237D01*
X144825Y91149D01*
X145095Y91082D01*
X145376Y91034D01*
X145667Y91007D01*
X145970Y91000D01*
X143000Y88030D01*
X142993Y88333D01*
X142966Y88624D01*
X142918Y88905D01*
X142851Y89175D01*
X142763Y89434D01*
X142655Y89682D01*
X142526Y89919D01*
X142378Y90146D01*
X142209Y90361D01*
X142020Y90566D01*
X143434Y91980D01*
X143639Y91791D01*
D02*
G37*
G36*
X358011Y84350D02*
X358044Y84079D01*
X358099Y83813D01*
X358176Y83555D01*
X358275Y83303D01*
X358396Y83058D01*
X358539Y82819D01*
X358704Y82587D01*
X358891Y82361D01*
X359100Y82142D01*
X354900D01*
X355109Y82361D01*
X355296Y82587D01*
X355461Y82819D01*
X355604Y83058D01*
X355725Y83303D01*
X355824Y83555D01*
X355901Y83813D01*
X355956Y84079D01*
X355989Y84350D01*
X356000Y84628D01*
X358000D01*
X358011Y84350D01*
D02*
G37*
G36*
X143330Y83616D02*
X143547Y83448D01*
X143774Y83305D01*
X144011Y83186D01*
X144257Y83091D01*
X144512Y83020D01*
X144776Y82973D01*
X145051Y82950D01*
X145334Y82951D01*
X145627Y82977D01*
X143016Y79687D01*
X142976Y79993D01*
X142919Y80288D01*
X142845Y80570D01*
X142756Y80842D01*
X142650Y81101D01*
X142529Y81348D01*
X142391Y81584D01*
X142237Y81808D01*
X142067Y82020D01*
X141881Y82220D01*
X143122Y83807D01*
X143330Y83616D01*
D02*
G37*
G36*
X363765Y77226D02*
X363770Y76895D01*
X363835Y76052D01*
X363875Y75820D01*
X363923Y75614D01*
X363979Y75433D01*
X364045Y75276D01*
X364119Y75144D01*
X364202Y75037D01*
X361090Y75859D01*
X361218Y75912D01*
X361333Y75984D01*
X361434Y76077D01*
X361522Y76189D01*
X361596Y76322D01*
X361657Y76474D01*
X361705Y76645D01*
X361738Y76837D01*
X361759Y77049D01*
X361765Y77280D01*
X363765Y77226D01*
D02*
G37*
G36*
X143330Y75616D02*
X143547Y75448D01*
X143774Y75305D01*
X144011Y75186D01*
X144257Y75091D01*
X144512Y75020D01*
X144776Y74973D01*
X145051Y74950D01*
X145334Y74952D01*
X145627Y74977D01*
X143016Y71687D01*
X142976Y71993D01*
X142919Y72288D01*
X142845Y72571D01*
X142756Y72842D01*
X142650Y73101D01*
X142529Y73348D01*
X142391Y73584D01*
X142237Y73808D01*
X142067Y74020D01*
X141881Y74220D01*
X143122Y75807D01*
X143330Y75616D01*
D02*
G37*
G36*
X370000Y545000D02*
Y470000D01*
X355000Y455000D01*
X275000D01*
X250000Y430000D01*
Y384326D01*
X249027Y383353D01*
X248364Y382361D01*
X248131Y381190D01*
X248131Y381190D01*
Y312484D01*
X248131Y312484D01*
X248364Y311313D01*
X249027Y310321D01*
X250000Y309348D01*
Y215000D01*
X310000Y155000D01*
Y115000D01*
X333547Y91453D01*
Y37000D01*
X326264D01*
X325075Y39000D01*
X325201Y39304D01*
Y40696D01*
X324668Y41983D01*
X323684Y42967D01*
X322397Y43500D01*
X321005D01*
X319719Y42967D01*
X318734Y41983D01*
X318201Y40696D01*
Y39304D01*
X318327Y39000D01*
X317138Y37000D01*
X306264D01*
X305075Y39000D01*
X305201Y39304D01*
Y40696D01*
X304668Y41983D01*
X303684Y42967D01*
X302397Y43500D01*
X301005D01*
X299719Y42967D01*
X298734Y41983D01*
X298201Y40696D01*
Y39304D01*
X298327Y39000D01*
X297138Y37000D01*
X286264D01*
X285075Y39000D01*
X285201Y39304D01*
Y40696D01*
X284668Y41983D01*
X283684Y42967D01*
X282397Y43500D01*
X281005D01*
X279719Y42967D01*
X278734Y41983D01*
X278201Y40696D01*
Y39304D01*
X278327Y39000D01*
X277138Y37000D01*
X266264D01*
X265075Y39000D01*
X265201Y39304D01*
Y40696D01*
X264668Y41983D01*
X263684Y42967D01*
X262397Y43500D01*
X261005D01*
X259600Y45000D01*
X261005Y46500D01*
X262397D01*
X263684Y47033D01*
X264668Y48017D01*
X265201Y49304D01*
Y50696D01*
X264668Y51983D01*
X263684Y52967D01*
X262397Y53500D01*
X261005D01*
X259600Y55000D01*
X261005Y56500D01*
X262397D01*
X263684Y57033D01*
X264668Y58017D01*
X265201Y59304D01*
Y60696D01*
X264668Y61983D01*
X263684Y62967D01*
X262397Y63500D01*
X261005D01*
X259544Y65060D01*
Y110456D01*
X166000Y204000D01*
Y249993D01*
X166001Y249995D01*
X166989Y251705D01*
X167500Y253613D01*
Y255587D01*
X166989Y257495D01*
X166001Y259205D01*
X166000Y259207D01*
Y275393D01*
X166001Y275395D01*
X166989Y277105D01*
X167500Y279013D01*
Y280987D01*
X166989Y282895D01*
X166001Y284605D01*
X166000Y284607D01*
Y300793D01*
X166001Y300795D01*
X166989Y302505D01*
X167500Y304413D01*
Y306387D01*
X166989Y308295D01*
X166001Y310005D01*
X166000Y310007D01*
Y349875D01*
X167304Y351500D01*
X168696D01*
X169983Y352033D01*
X170967Y353017D01*
X171500Y354304D01*
Y355696D01*
X170967Y356983D01*
X170300Y357650D01*
X170117Y358825D01*
X170300Y360000D01*
X170967Y360667D01*
X171500Y361954D01*
Y363346D01*
X170967Y364633D01*
X170300Y365300D01*
X170117Y366475D01*
X170300Y367650D01*
X170967Y368317D01*
X171500Y369604D01*
Y370996D01*
X170967Y372283D01*
X169983Y373267D01*
X168696Y373800D01*
X167304D01*
X166000Y375425D01*
Y426000D01*
X225000Y485000D01*
X225000Y505000D01*
X275000Y555000D01*
X360000D01*
X370000Y545000D01*
D02*
G37*
%LPC*%
G36*
X296600Y550806D02*
Y537400D01*
X310006D01*
X309505Y539921D01*
X308336Y542742D01*
X306640Y545281D01*
X304481Y547440D01*
X301942Y549136D01*
X299121Y550304D01*
X296600Y550806D01*
D02*
G37*
G36*
X347400D02*
Y537400D01*
X360806D01*
X360304Y539921D01*
X359136Y542742D01*
X357440Y545281D01*
X355281Y547440D01*
X352742Y549136D01*
X349921Y550304D01*
X347400Y550806D01*
D02*
G37*
G36*
X292600D02*
X290079Y550304D01*
X287258Y549136D01*
X284719Y547440D01*
X282561Y545281D01*
X280864Y542742D01*
X279696Y539921D01*
X279194Y537400D01*
X292600D01*
Y550806D01*
D02*
G37*
G36*
X343400D02*
X340879Y550304D01*
X338058Y549136D01*
X335519Y547440D01*
X333360Y545281D01*
X331664Y542742D01*
X330496Y539921D01*
X329994Y537400D01*
X343400D01*
Y550806D01*
D02*
G37*
G36*
X360806Y533400D02*
X347400D01*
Y519994D01*
X349921Y520496D01*
X352742Y521664D01*
X355281Y523360D01*
X357440Y525519D01*
X359136Y528058D01*
X360304Y530879D01*
X360806Y533400D01*
D02*
G37*
G36*
X310006D02*
X296600D01*
Y519994D01*
X299121Y520496D01*
X301942Y521664D01*
X304481Y523360D01*
X306640Y525519D01*
X308336Y528058D01*
X309505Y530879D01*
X310006Y533400D01*
D02*
G37*
G36*
X343400D02*
X329994D01*
X330496Y530879D01*
X331664Y528058D01*
X333360Y525519D01*
X335519Y523360D01*
X338058Y521664D01*
X340879Y520496D01*
X343400Y519994D01*
Y533400D01*
D02*
G37*
G36*
X292600D02*
X279194D01*
X279696Y530879D01*
X280864Y528058D01*
X282561Y525519D01*
X284719Y523360D01*
X287258Y521664D01*
X290079Y520496D01*
X292600Y519994D01*
Y533400D01*
D02*
G37*
G36*
X296600Y500006D02*
Y486600D01*
X310006D01*
X309505Y489121D01*
X308336Y491942D01*
X306640Y494481D01*
X304481Y496640D01*
X301942Y498336D01*
X299121Y499504D01*
X296600Y500006D01*
D02*
G37*
G36*
X347400D02*
Y486600D01*
X360806D01*
X360304Y489121D01*
X359136Y491942D01*
X357440Y494481D01*
X355281Y496640D01*
X352742Y498336D01*
X349921Y499504D01*
X347400Y500006D01*
D02*
G37*
G36*
X292600D02*
X290079Y499504D01*
X287258Y498336D01*
X284719Y496640D01*
X282561Y494481D01*
X280864Y491942D01*
X279696Y489121D01*
X279194Y486600D01*
X292600D01*
Y500006D01*
D02*
G37*
G36*
X343400D02*
X340879Y499504D01*
X338058Y498336D01*
X335519Y496640D01*
X333360Y494481D01*
X331664Y491942D01*
X330496Y489121D01*
X329994Y486600D01*
X343400D01*
Y500006D01*
D02*
G37*
G36*
X360806Y482600D02*
X347400D01*
Y469194D01*
X349921Y469696D01*
X352742Y470864D01*
X355281Y472560D01*
X357440Y474719D01*
X359136Y477258D01*
X360304Y480079D01*
X360806Y482600D01*
D02*
G37*
G36*
X310006D02*
X296600D01*
Y469194D01*
X299121Y469696D01*
X301942Y470864D01*
X304481Y472560D01*
X306640Y474719D01*
X308336Y477258D01*
X309505Y480079D01*
X310006Y482600D01*
D02*
G37*
G36*
X343400D02*
X329994D01*
X330496Y480079D01*
X331664Y477258D01*
X333360Y474719D01*
X335519Y472560D01*
X338058Y470864D01*
X340879Y469696D01*
X343400Y469194D01*
Y482600D01*
D02*
G37*
G36*
X292600D02*
X279194D01*
X279696Y480079D01*
X280864Y477258D01*
X282561Y474719D01*
X284719Y472560D01*
X287258Y470864D01*
X290079Y469696D01*
X292600Y469194D01*
Y482600D01*
D02*
G37*
G36*
X229896Y373800D02*
X228504D01*
X227217Y373267D01*
X226233Y372283D01*
X225700Y370996D01*
Y369604D01*
X226233Y368317D01*
X226900Y367650D01*
X227083Y366475D01*
X226900Y365300D01*
X226233Y364633D01*
X225700Y363346D01*
Y361954D01*
X226233Y360667D01*
X226900Y360000D01*
X227083Y358825D01*
X226900Y357650D01*
X226233Y356983D01*
X225700Y355696D01*
Y354304D01*
X226233Y353017D01*
X227217Y352033D01*
X228504Y351500D01*
X229896D01*
X231183Y352033D01*
X232167Y353017D01*
X232700Y354304D01*
Y355696D01*
X232167Y356983D01*
X231500Y357650D01*
X231317Y358825D01*
X231500Y360000D01*
X232167Y360667D01*
X232700Y361954D01*
Y363346D01*
X232167Y364633D01*
X231500Y365300D01*
X231317Y366475D01*
X231500Y367650D01*
X232167Y368317D01*
X232700Y369604D01*
Y370996D01*
X232167Y372283D01*
X231183Y373267D01*
X229896Y373800D01*
D02*
G37*
G36*
X214596D02*
X213204D01*
X211917Y373267D01*
X210933Y372283D01*
X210400Y370996D01*
Y369604D01*
X210933Y368317D01*
X211600Y367650D01*
X211783Y366475D01*
X211600Y365300D01*
X210933Y364633D01*
X210400Y363346D01*
Y361954D01*
X210933Y360667D01*
X211600Y360000D01*
X211783Y358825D01*
X211600Y357650D01*
X210933Y356983D01*
X210400Y355696D01*
Y354304D01*
X210933Y353017D01*
X211917Y352033D01*
X213204Y351500D01*
X214596D01*
X215883Y352033D01*
X216867Y353017D01*
X217400Y354304D01*
Y355696D01*
X216867Y356983D01*
X216200Y357650D01*
X216017Y358825D01*
X216200Y360000D01*
X216867Y360667D01*
X217400Y361954D01*
Y363346D01*
X216867Y364633D01*
X216200Y365300D01*
X216017Y366475D01*
X216200Y367650D01*
X216867Y368317D01*
X217400Y369604D01*
Y370996D01*
X216867Y372283D01*
X215883Y373267D01*
X214596Y373800D01*
D02*
G37*
G36*
X199296D02*
X197904D01*
X196617Y373267D01*
X195633Y372283D01*
X195100Y370996D01*
Y369604D01*
X195633Y368317D01*
X196300Y367650D01*
X196483Y366475D01*
X196300Y365300D01*
X195633Y364633D01*
X195100Y363346D01*
Y361954D01*
X195633Y360667D01*
X196300Y360000D01*
X196483Y358825D01*
X196300Y357650D01*
X195633Y356983D01*
X195100Y355696D01*
Y354304D01*
X195633Y353017D01*
X196617Y352033D01*
X197904Y351500D01*
X199296D01*
X200583Y352033D01*
X201567Y353017D01*
X202100Y354304D01*
Y355696D01*
X201567Y356983D01*
X200900Y357650D01*
X200717Y358825D01*
X200900Y360000D01*
X201567Y360667D01*
X202100Y361954D01*
Y363346D01*
X201567Y364633D01*
X200900Y365300D01*
X200717Y366475D01*
X200900Y367650D01*
X201567Y368317D01*
X202100Y369604D01*
Y370996D01*
X201567Y372283D01*
X200583Y373267D01*
X199296Y373800D01*
D02*
G37*
G36*
X183996D02*
X182604D01*
X181317Y373267D01*
X180333Y372283D01*
X179800Y370996D01*
Y369604D01*
X180333Y368317D01*
X181000Y367650D01*
X181183Y366475D01*
X181000Y365300D01*
X180333Y364633D01*
X179800Y363346D01*
Y361954D01*
X180333Y360667D01*
X181000Y360000D01*
X181183Y358825D01*
X181000Y357650D01*
X180333Y356983D01*
X179800Y355696D01*
Y354304D01*
X180333Y353017D01*
X181317Y352033D01*
X182604Y351500D01*
X183996D01*
X185283Y352033D01*
X186267Y353017D01*
X186800Y354304D01*
Y355696D01*
X186267Y356983D01*
X185600Y357650D01*
X185417Y358825D01*
X185600Y360000D01*
X186267Y360667D01*
X186800Y361954D01*
Y363346D01*
X186267Y364633D01*
X185600Y365300D01*
X185417Y366475D01*
X185600Y367650D01*
X186267Y368317D01*
X186800Y369604D01*
Y370996D01*
X186267Y372283D01*
X185283Y373267D01*
X183996Y373800D01*
D02*
G37*
G36*
X200987Y312900D02*
X199013D01*
X197105Y312389D01*
X195395Y311402D01*
X193999Y310005D01*
X193011Y308295D01*
X192500Y306387D01*
Y304413D01*
X193011Y302505D01*
X193999Y300795D01*
X195395Y299398D01*
X197105Y298411D01*
X199013Y297900D01*
X200987D01*
X202895Y298411D01*
X204605Y299398D01*
X206001Y300795D01*
X206989Y302505D01*
X207500Y304413D01*
Y306387D01*
X206989Y308295D01*
X206001Y310005D01*
X204605Y311402D01*
X202895Y312389D01*
X200987Y312900D01*
D02*
G37*
G36*
Y287500D02*
X199013D01*
X197105Y286989D01*
X195395Y286001D01*
X193999Y284605D01*
X193011Y282895D01*
X192500Y280987D01*
Y279013D01*
X193011Y277105D01*
X193999Y275395D01*
X195395Y273999D01*
X197105Y273011D01*
X199013Y272500D01*
X200987D01*
X202895Y273011D01*
X204605Y273999D01*
X206001Y275395D01*
X206989Y277105D01*
X207500Y279013D01*
Y280987D01*
X206989Y282895D01*
X206001Y284605D01*
X204605Y286001D01*
X202895Y286989D01*
X200987Y287500D01*
D02*
G37*
G36*
Y262100D02*
X199013D01*
X197105Y261589D01*
X195395Y260602D01*
X193999Y259205D01*
X193011Y257495D01*
X192500Y255587D01*
Y253613D01*
X193011Y251705D01*
X193999Y249995D01*
X195395Y248598D01*
X197105Y247611D01*
X199013Y247100D01*
X200987D01*
X202895Y247611D01*
X204605Y248598D01*
X206001Y249995D01*
X206989Y251705D01*
X207500Y253613D01*
Y255587D01*
X206989Y257495D01*
X206001Y259205D01*
X204605Y260602D01*
X202895Y261589D01*
X200987Y262100D01*
D02*
G37*
G36*
X322397Y63500D02*
X321005D01*
X319719Y62967D01*
X318734Y61983D01*
X318201Y60696D01*
Y59304D01*
X318734Y58017D01*
X319719Y57033D01*
X321005Y56500D01*
X322397D01*
X323684Y57033D01*
X324668Y58017D01*
X325201Y59304D01*
Y60696D01*
X324668Y61983D01*
X323684Y62967D01*
X322397Y63500D01*
D02*
G37*
G36*
X302397D02*
X301005D01*
X299719Y62967D01*
X298734Y61983D01*
X298201Y60696D01*
Y59304D01*
X298734Y58017D01*
X299719Y57033D01*
X301005Y56500D01*
X302397D01*
X303684Y57033D01*
X304668Y58017D01*
X305201Y59304D01*
Y60696D01*
X304668Y61983D01*
X303684Y62967D01*
X302397Y63500D01*
D02*
G37*
G36*
X282397D02*
X281005D01*
X279719Y62967D01*
X278734Y61983D01*
X278201Y60696D01*
Y59304D01*
X278734Y58017D01*
X279719Y57033D01*
X281005Y56500D01*
X282397D01*
X283684Y57033D01*
X284668Y58017D01*
X285201Y59304D01*
Y60696D01*
X284668Y61983D01*
X283684Y62967D01*
X282397Y63500D01*
D02*
G37*
G36*
X322397Y53500D02*
X321005D01*
X319719Y52967D01*
X318734Y51983D01*
X318201Y50696D01*
Y49304D01*
X318734Y48017D01*
X319719Y47033D01*
X321005Y46500D01*
X322397D01*
X323684Y47033D01*
X324668Y48017D01*
X325201Y49304D01*
Y50696D01*
X324668Y51983D01*
X323684Y52967D01*
X322397Y53500D01*
D02*
G37*
G36*
X302397D02*
X301005D01*
X299719Y52967D01*
X298734Y51983D01*
X298201Y50696D01*
Y49304D01*
X298734Y48017D01*
X299719Y47033D01*
X301005Y46500D01*
X302397D01*
X303684Y47033D01*
X304668Y48017D01*
X305201Y49304D01*
Y50696D01*
X304668Y51983D01*
X303684Y52967D01*
X302397Y53500D01*
D02*
G37*
G36*
X282397D02*
X281005D01*
X279719Y52967D01*
X278734Y51983D01*
X278201Y50696D01*
Y49304D01*
X278734Y48017D01*
X279719Y47033D01*
X281005Y46500D01*
X282397D01*
X283684Y47033D01*
X284668Y48017D01*
X285201Y49304D01*
Y50696D01*
X284668Y51983D01*
X283684Y52967D01*
X282397Y53500D01*
D02*
G37*
%LPD*%
D10*
X286914Y347451D02*
X291000Y351537D01*
X283200Y273555D02*
X286914Y277269D01*
Y347451D01*
X270984Y342333D02*
Y367016D01*
X279000Y284567D02*
X282752Y288320D01*
Y330565D01*
X268600Y374600D02*
X271126Y372074D01*
Y367157D02*
Y372074D01*
X270984Y342333D02*
X282752Y330565D01*
X269724Y368276D02*
X270984Y367016D01*
X283200Y217315D02*
X290000Y210515D01*
X283200Y217315D02*
Y273555D01*
X268600Y398600D02*
Y400000D01*
X251190Y381190D02*
X268600Y398600D01*
X251190Y312484D02*
Y381190D01*
Y312484D02*
X259500Y304174D01*
X257800Y240796D02*
Y272692D01*
X259500Y274392D01*
X279000Y209000D02*
Y284567D01*
X290000Y207000D02*
Y210515D01*
X286000Y203000D02*
X290000Y207000D01*
X291000Y367000D02*
X292236Y368236D01*
X291000Y351537D02*
Y367000D01*
X262400Y211558D02*
Y236196D01*
X259500Y274392D02*
Y304174D01*
X262400Y211558D02*
X277575Y196383D01*
X406200Y355441D02*
Y383200D01*
X421000Y398000D02*
Y400000D01*
X406200Y383200D02*
X421000Y398000D01*
X144000Y167505D02*
X149000Y162505D01*
X148000Y146092D02*
X149000Y147092D01*
X144000Y167505D02*
Y184000D01*
X132000Y155505D02*
X132815Y154691D01*
X137000Y188918D02*
X138000Y189918D01*
X137000Y116515D02*
Y188918D01*
X124815Y109185D02*
Y151377D01*
X137000Y116515D02*
X145515Y108000D01*
X138000Y189918D02*
Y191000D01*
X120000Y156192D02*
X124815Y151377D01*
X126000Y155848D02*
X128814Y153034D01*
Y113387D02*
Y153034D01*
X132000Y155505D02*
Y197000D01*
X132815Y115043D02*
Y154691D01*
X126000Y155848D02*
Y203000D01*
X112815Y213732D02*
X114000Y214918D01*
X112815Y109927D02*
X120988Y101754D01*
X123760D02*
X145515Y80000D01*
X132815Y115043D02*
X143858Y104000D01*
X133015Y84500D02*
Y86318D01*
X114000Y214918D02*
Y216000D01*
X108000Y109085D02*
X119331Y97754D01*
X108000Y109085D02*
Y223000D01*
X120988Y101754D02*
X123760D01*
X112815Y109927D02*
Y213732D01*
X124815Y109185D02*
X146000Y88000D01*
X120000Y156192D02*
Y210000D01*
X121579Y97754D02*
X133015Y86318D01*
X128814Y113387D02*
X146201Y96000D01*
X133015Y84500D02*
X145515Y72000D01*
X119331Y97754D02*
X121579D01*
X430000Y197774D02*
X456800Y224574D01*
X430000Y105752D02*
Y197774D01*
X426000Y101752D02*
X430000Y105752D01*
X426000Y199431D02*
X435400Y208831D01*
X426000Y114252D02*
Y199431D01*
X422000Y110252D02*
X426000Y114252D01*
X417000Y164801D02*
X422000Y159801D01*
X417000Y196088D02*
X431400Y210488D01*
X417000Y123515D02*
X422000Y128515D01*
X417000Y116752D02*
Y123515D01*
X422000Y128515D02*
Y159801D01*
X417000Y164801D02*
Y196088D01*
X431600Y370209D02*
Y382600D01*
X446400Y397400D02*
Y400000D01*
X431600Y382600D02*
X446400Y397400D01*
X465200Y393400D02*
X466927Y395127D01*
X457200Y385200D02*
X465200Y393200D01*
X442009Y385200D02*
X457200D01*
X466927Y395127D02*
X467127D01*
X465200Y393200D02*
Y393400D01*
X355400Y294009D02*
X431600Y370209D01*
X435800Y378991D02*
X442009Y385200D01*
X359400Y292353D02*
X435800Y368753D01*
Y378991D01*
X320000Y391900D02*
Y400000D01*
X314000Y136000D02*
X339000Y111000D01*
X308600Y203286D02*
X314000Y197887D01*
Y136000D02*
Y197887D01*
X339000Y98000D02*
Y111000D01*
X304400Y379191D02*
Y390600D01*
X304600Y370209D02*
Y378991D01*
X304400Y379191D02*
X304600Y378991D01*
X294461Y400539D02*
X304400Y390600D01*
Y191477D02*
Y370009D01*
X304600Y370209D01*
X359000Y154000D02*
Y241053D01*
X359400Y241453D01*
X355400Y243109D02*
Y294009D01*
X308600Y203286D02*
Y279115D01*
X330000Y238967D02*
Y284897D01*
X380800Y335697D02*
Y385200D01*
X394113Y398513D01*
X396313D01*
X333000Y312000D02*
Y378900D01*
X320000Y391900D02*
X333000Y378900D01*
X330000Y161515D02*
X332000Y163515D01*
X330000Y148000D02*
Y161515D01*
X345866Y237134D02*
Y246034D01*
X348491Y177781D02*
Y234509D01*
X345866Y237134D02*
X348491Y234509D01*
X330000Y238967D02*
X340491Y228476D01*
Y188695D02*
Y228476D01*
X334000Y240624D02*
X344491Y230133D01*
Y187039D02*
Y230133D01*
X344600Y247300D02*
X345866Y246034D01*
X362765Y77280D02*
X363000Y77515D01*
Y150000D01*
X355000Y152343D02*
Y242709D01*
X362765Y73765D02*
Y77280D01*
X355400Y325915D02*
Y378100D01*
X330000Y284897D02*
X380800Y335697D01*
X334000Y283241D02*
X406200Y355441D01*
X293000Y216000D02*
X293400Y216400D01*
X337956Y165038D02*
X345754Y157240D01*
X337956Y186161D02*
X340491Y188695D01*
X326000Y166000D02*
Y239109D01*
X341956Y166695D02*
X351000Y157651D01*
X341956Y184504D02*
X344491Y187039D01*
X341956Y166695D02*
Y184504D01*
X332000Y163515D02*
Y188690D01*
X347956Y177247D02*
X348491Y177781D01*
X345754Y92754D02*
Y157240D01*
X334000Y240624D02*
Y283241D01*
X351000Y86000D02*
Y157651D01*
X320000Y163515D02*
X321000Y162515D01*
Y140000D02*
Y162515D01*
X320000Y163515D02*
Y196000D01*
X355400Y378100D02*
X370000Y392700D01*
X308600Y279115D02*
X355400Y325915D01*
X319200Y245909D02*
Y247300D01*
X355000Y152343D02*
X357000Y150343D01*
X359000Y154000D02*
X363000Y150000D01*
X362000Y73000D02*
X362765Y73765D01*
X257800Y240796D02*
X262400Y236196D01*
X431400Y210488D02*
Y290588D01*
X456800Y224574D02*
Y285235D01*
X435400Y208831D02*
Y286103D01*
X303923Y191000D02*
X304400Y191477D01*
X293400Y246900D02*
X293800Y247300D01*
X293400Y216400D02*
Y246900D01*
X268400Y224000D02*
Y247300D01*
Y224000D02*
X268400Y224000D01*
X319200Y245909D02*
X326000Y239109D01*
X167000Y132515D02*
Y166057D01*
X167000Y166057D02*
X167000Y166057D01*
X148485Y114000D02*
X167000Y132515D01*
X148000Y114000D02*
X148485D01*
X154000Y127515D02*
Y177000D01*
X148485Y122000D02*
X154000Y127515D01*
X148000Y122000D02*
X148485D01*
X148000Y130000D02*
Y146092D01*
X149000Y147092D02*
Y162505D01*
X143858Y104000D02*
X166000D01*
X165515Y112000D02*
X166000D01*
X145515Y108000D02*
X161515D01*
X165515Y112000D01*
X146201Y96000D02*
X166000D01*
X145515Y80000D02*
X146000D01*
X145515Y72000D02*
X146000D01*
X337956Y165038D02*
Y186161D01*
X345000Y92000D02*
X345754Y92754D01*
X359400Y241453D02*
Y292353D01*
X355000Y242709D02*
X355400Y243109D01*
X357000Y80000D02*
Y150343D01*
X410200Y141452D02*
Y290588D01*
X402200Y289703D02*
X406000Y285903D01*
X439400Y290103D02*
Y290588D01*
X389000Y129000D02*
X406000Y146000D01*
X402200Y289703D02*
Y290588D01*
X435400Y286103D02*
X439400Y290103D01*
X456800Y285235D02*
X462154Y290588D01*
X389000Y120252D02*
X410200Y141452D01*
X406000Y146000D02*
Y285903D01*
X385000Y136752D02*
X400000Y151752D01*
Y224000D01*
X370000Y157830D02*
X374000Y161830D01*
X392000Y155252D02*
Y224000D01*
X365000Y163495D02*
Y224000D01*
X370000Y156748D02*
Y157830D01*
X383000Y158000D02*
Y224000D01*
X380000Y143252D02*
X392000Y155252D01*
X375000Y150000D02*
X383000Y158000D01*
X374000Y161830D02*
Y224000D01*
D22*
X146402Y41000D02*
D03*
X387000D02*
D03*
D23*
X195400Y484600D02*
D03*
Y535400D02*
D03*
X144600D02*
D03*
Y484600D02*
D03*
X345400D02*
D03*
Y535400D02*
D03*
X294600D02*
D03*
Y484600D02*
D03*
D25*
X344600Y247300D02*
D03*
X319200D02*
D03*
X293800D02*
D03*
X268400D02*
D03*
X446400Y400000D02*
D03*
X421000D02*
D03*
X395600D02*
D03*
X370200D02*
D03*
X319400D02*
D03*
X294000D02*
D03*
Y374600D02*
D03*
X268600Y400000D02*
D03*
Y374600D02*
D03*
D28*
X471800Y400000D02*
D03*
D30*
X200000Y331000D02*
D03*
X330000Y148000D02*
D03*
X333000Y312000D02*
D03*
X332000Y188690D02*
D03*
X321000Y140000D02*
D03*
X326000Y166000D02*
D03*
X320000Y196000D02*
D03*
X331701Y60000D02*
D03*
Y50000D02*
D03*
Y40000D02*
D03*
X311701Y60000D02*
D03*
Y50000D02*
D03*
Y40000D02*
D03*
X291701Y60000D02*
D03*
Y50000D02*
D03*
Y40000D02*
D03*
X271701Y60000D02*
D03*
Y50000D02*
D03*
Y40000D02*
D03*
X347956Y177247D02*
D03*
X277575Y196383D02*
D03*
X286000Y203000D02*
D03*
X279000Y209000D02*
D03*
X293000Y216000D02*
D03*
X167000Y166057D02*
D03*
X154000Y177000D02*
D03*
X144000Y184000D02*
D03*
X303923Y191000D02*
D03*
X138000D02*
D03*
X132000Y197000D02*
D03*
X126000Y203000D02*
D03*
X120000Y210000D02*
D03*
X114000Y216000D02*
D03*
X166000Y96000D02*
D03*
Y104000D02*
D03*
Y112000D02*
D03*
X108000Y223000D02*
D03*
X268400Y224000D02*
D03*
X462154Y290588D02*
D03*
X439400D02*
D03*
X402200D02*
D03*
X410200D02*
D03*
X431400D02*
D03*
X339000Y98000D02*
D03*
X351000Y86000D02*
D03*
X345000Y92000D02*
D03*
X362000Y73000D02*
D03*
X357000Y80000D02*
D03*
X400000Y224000D02*
D03*
X392000Y224000D02*
D03*
X365000D02*
D03*
X374000D02*
D03*
X383000D02*
D03*
X422000Y110252D02*
D03*
X426000Y101752D02*
D03*
X417000Y116752D02*
D03*
X389000Y120252D02*
D03*
Y129000D02*
D03*
X365000Y163495D02*
D03*
X370000Y156748D02*
D03*
X375000Y150000D02*
D03*
X385000Y136752D02*
D03*
X380000Y143252D02*
D03*
X148000Y114000D02*
D03*
Y122000D02*
D03*
Y130000D02*
D03*
X146000Y88000D02*
D03*
Y80000D02*
D03*
Y72000D02*
D03*
D35*
X271701Y40000D02*
Y50000D01*
Y60000D01*
Y70000D01*
X291701Y40000D02*
Y50000D01*
Y60000D01*
Y70000D01*
X311701Y40000D02*
Y50000D01*
Y60000D01*
Y70000D01*
X331701Y40000D02*
Y50000D01*
Y60000D01*
Y68299D01*
M02*
