G04*
G04 #@! TF.GenerationSoftware,Altium Limited,Altium Designer,25.0.2 (28)*
G04*
G04 Layer_Color=8388736*
%FSLAX44Y44*%
%MOMM*%
G71*
G04*
G04 #@! TF.SameCoordinates,9294F1C2-9D63-464E-A418-A043A43F256C*
G04*
G04*
G04 #@! TF.FilePolarity,Negative*
G04*
G01*
G75*
%ADD14R,1.3000X2.7000*%
%ADD15R,1.6800X2.9500*%
%ADD16R,7.6200X2.9500*%
%ADD17R,1.4000X0.3000*%
%ADD18R,1.0000X0.3000*%
%ADD19R,0.3500X0.3500*%
%ADD20R,0.4000X2.0000*%
%ADD21R,2.0000X1.3000*%
%ADD22C,3.5000*%
%ADD23C,2.6000*%
%ADD24C,2.3000*%
%ADD25C,1.5200*%
%ADD26R,1.5200X1.5200*%
%ADD27C,2.0000*%
%ADD28R,1.5200X1.5200*%
%ADD29O,1.7500X2.5000*%
%ADD30C,0.6000*%
G36*
X92783Y309424D02*
X92924Y309283D01*
X93000Y309099D01*
Y309000D01*
Y307000D01*
Y306901D01*
X92924Y306717D01*
X92783Y306576D01*
X92599Y306500D01*
X85900D01*
X85717Y306576D01*
X85576Y306717D01*
X85500Y306901D01*
Y307000D01*
Y309000D01*
Y309099D01*
X85576Y309283D01*
X85717Y309424D01*
X85900Y309500D01*
X92599D01*
X92783Y309424D01*
D02*
G37*
G36*
X68283D02*
X68424Y309283D01*
X68500Y309099D01*
Y309000D01*
Y307000D01*
Y306901D01*
X68424Y306717D01*
X68283Y306576D01*
X68099Y306500D01*
X61400D01*
X61217Y306576D01*
X61076Y306717D01*
X61000Y306901D01*
Y307000D01*
Y309000D01*
Y309099D01*
X61076Y309283D01*
X61217Y309424D01*
X61400Y309500D01*
X68099D01*
X68283Y309424D01*
D02*
G37*
G36*
X92783Y301424D02*
X92924Y301283D01*
X93000Y301099D01*
Y301000D01*
Y299000D01*
Y298901D01*
X92924Y298717D01*
X92783Y298576D01*
X92599Y298500D01*
X85900D01*
X85717Y298576D01*
X85576Y298717D01*
X85500Y298901D01*
Y299000D01*
Y301000D01*
Y301099D01*
X85576Y301283D01*
X85717Y301424D01*
X85900Y301500D01*
X92599D01*
X92783Y301424D01*
D02*
G37*
G36*
X68283D02*
X68424Y301283D01*
X68500Y301099D01*
Y301000D01*
Y299000D01*
Y298901D01*
X68424Y298717D01*
X68283Y298576D01*
X68099Y298500D01*
X61400D01*
X61217Y298576D01*
X61076Y298717D01*
X61000Y298901D01*
Y299000D01*
Y301000D01*
Y301099D01*
X61076Y301283D01*
X61217Y301424D01*
X61400Y301500D01*
X68099D01*
X68283Y301424D01*
D02*
G37*
G36*
X92783Y293424D02*
X92924Y293283D01*
X93000Y293099D01*
Y293000D01*
Y291000D01*
Y290900D01*
X92924Y290717D01*
X92783Y290576D01*
X92599Y290500D01*
X85900D01*
X85717Y290576D01*
X85576Y290717D01*
X85500Y290900D01*
Y291000D01*
Y293000D01*
Y293099D01*
X85576Y293283D01*
X85717Y293424D01*
X85900Y293500D01*
X92599D01*
X92783Y293424D01*
D02*
G37*
G36*
X68283D02*
X68424Y293283D01*
X68500Y293099D01*
Y293000D01*
Y291000D01*
Y290900D01*
X68424Y290717D01*
X68283Y290576D01*
X68099Y290500D01*
X61400D01*
X61217Y290576D01*
X61076Y290717D01*
X61000Y290900D01*
Y291000D01*
Y293000D01*
Y293099D01*
X61076Y293283D01*
X61217Y293424D01*
X61400Y293500D01*
X68099D01*
X68283Y293424D01*
D02*
G37*
G36*
X92783Y285424D02*
X92924Y285283D01*
X93000Y285099D01*
Y285000D01*
Y283000D01*
Y282901D01*
X92924Y282717D01*
X92783Y282576D01*
X92599Y282500D01*
X85900D01*
X85717Y282576D01*
X85576Y282717D01*
X85500Y282901D01*
Y283000D01*
Y285000D01*
Y285099D01*
X85576Y285283D01*
X85717Y285424D01*
X85900Y285500D01*
X92599D01*
X92783Y285424D01*
D02*
G37*
G36*
X68283D02*
X68424Y285283D01*
X68500Y285099D01*
Y285000D01*
Y283000D01*
Y282901D01*
X68424Y282717D01*
X68283Y282576D01*
X68099Y282500D01*
X61400D01*
X61217Y282576D01*
X61076Y282717D01*
X61000Y282901D01*
Y283000D01*
Y285000D01*
Y285099D01*
X61076Y285283D01*
X61217Y285424D01*
X61400Y285500D01*
X68099D01*
X68283Y285424D01*
D02*
G37*
G36*
X92783Y277424D02*
X92924Y277283D01*
X93000Y277099D01*
Y277000D01*
Y275000D01*
Y274900D01*
X92924Y274717D01*
X92783Y274576D01*
X92599Y274500D01*
X85900D01*
X85717Y274576D01*
X85576Y274717D01*
X85500Y274900D01*
Y275000D01*
Y277000D01*
Y277099D01*
X85576Y277283D01*
X85717Y277424D01*
X85900Y277500D01*
X92599D01*
X92783Y277424D01*
D02*
G37*
G36*
X68283D02*
X68424Y277283D01*
X68500Y277099D01*
Y277000D01*
Y275000D01*
Y274900D01*
X68424Y274717D01*
X68283Y274576D01*
X68099Y274500D01*
X61400D01*
X61217Y274576D01*
X61076Y274717D01*
X61000Y274900D01*
Y275000D01*
Y277000D01*
Y277099D01*
X61076Y277283D01*
X61217Y277424D01*
X61400Y277500D01*
X68099D01*
X68283Y277424D01*
D02*
G37*
G36*
X78783Y312424D02*
X78924Y312283D01*
X79000Y312099D01*
Y312000D01*
Y272000D01*
Y271901D01*
X78924Y271717D01*
X78783Y271576D01*
X78599Y271500D01*
X78500D01*
Y271500D01*
X75500Y271500D01*
X75401D01*
X75217Y271576D01*
X75076Y271717D01*
X75000Y271901D01*
Y272000D01*
Y312000D01*
Y312099D01*
X75076Y312283D01*
X75217Y312424D01*
X75401Y312500D01*
X78599D01*
X78783Y312424D01*
D02*
G37*
D14*
X63000Y332000D02*
D03*
X91000D02*
D03*
X63000Y252000D02*
D03*
X91000D02*
D03*
D15*
X148850Y362650D02*
D03*
Y437350D02*
D03*
D16*
X201450Y362650D02*
D03*
Y437350D02*
D03*
D17*
X130170Y76754D02*
D03*
Y91754D02*
D03*
Y86754D02*
D03*
Y81754D02*
D03*
Y71754D02*
D03*
Y156754D02*
D03*
Y151754D02*
D03*
Y146754D02*
D03*
Y141754D02*
D03*
Y136754D02*
D03*
Y131754D02*
D03*
Y126754D02*
D03*
Y121754D02*
D03*
Y116754D02*
D03*
Y111754D02*
D03*
Y106754D02*
D03*
Y101754D02*
D03*
Y96754D02*
D03*
X403234Y131752D02*
D03*
Y126752D02*
D03*
Y121752D02*
D03*
Y116752D02*
D03*
Y111752D02*
D03*
Y106752D02*
D03*
Y101752D02*
D03*
Y96752D02*
D03*
Y91752D02*
D03*
Y86752D02*
D03*
Y81752D02*
D03*
Y76752D02*
D03*
Y71752D02*
D03*
Y156752D02*
D03*
Y146752D02*
D03*
Y141752D02*
D03*
Y136752D02*
D03*
Y151752D02*
D03*
D18*
X106670Y164654D02*
D03*
Y63854D02*
D03*
X426735Y164652D02*
D03*
Y63852D02*
D03*
D19*
X247000Y104250D02*
D03*
Y109750D02*
D03*
D20*
X311701Y50000D02*
D03*
X301701D02*
D03*
X291701D02*
D03*
X281701D02*
D03*
X271701D02*
D03*
X261701D02*
D03*
X251701D02*
D03*
X241701D02*
D03*
X231701D02*
D03*
X221701D02*
D03*
X211701D02*
D03*
X201701D02*
D03*
X331701D02*
D03*
X321701D02*
D03*
D21*
X173701Y18000D02*
D03*
X359701D02*
D03*
D22*
X146402Y41000D02*
D03*
X387000D02*
D03*
D23*
X195400Y484600D02*
D03*
Y535400D02*
D03*
X144600D02*
D03*
Y484600D02*
D03*
X345400D02*
D03*
Y535400D02*
D03*
X294600D02*
D03*
Y484600D02*
D03*
D24*
X44600Y430400D02*
D03*
X95400D02*
D03*
Y379600D02*
D03*
X44600D02*
D03*
X70000Y405000D02*
D03*
X446450Y505500D02*
D03*
X421050Y480100D02*
D03*
X471850D02*
D03*
Y530900D02*
D03*
X421050D02*
D03*
D25*
X71400Y470000D02*
D03*
X471600Y247300D02*
D03*
X446200Y272700D02*
D03*
X420800D02*
D03*
X395400D02*
D03*
X370000D02*
D03*
X344600D02*
D03*
X319200D02*
D03*
X293800D02*
D03*
X446200Y247300D02*
D03*
X420800D02*
D03*
X395400D02*
D03*
X370000D02*
D03*
X344600D02*
D03*
X319200D02*
D03*
X293800D02*
D03*
X268400Y272700D02*
D03*
Y247300D02*
D03*
X471800Y374600D02*
D03*
X446400Y400000D02*
D03*
X421000D02*
D03*
X395600D02*
D03*
X370200D02*
D03*
X344800D02*
D03*
X319400D02*
D03*
X294000D02*
D03*
X446400Y374600D02*
D03*
X421000D02*
D03*
X395600D02*
D03*
X370200D02*
D03*
X344800D02*
D03*
X319400D02*
D03*
X294000D02*
D03*
X268600Y400000D02*
D03*
Y374600D02*
D03*
X113870Y295500D02*
D03*
X200000Y120800D02*
D03*
Y95400D02*
D03*
X124000Y404700D02*
D03*
D26*
X46000Y470000D02*
D03*
X225400Y120800D02*
D03*
Y95400D02*
D03*
D27*
X200000Y280000D02*
D03*
Y305400D02*
D03*
Y254600D02*
D03*
X160000Y280000D02*
D03*
Y305400D02*
D03*
Y254600D02*
D03*
D28*
X471600Y272700D02*
D03*
X471800Y400000D02*
D03*
X113870Y320900D02*
D03*
X124000Y379300D02*
D03*
D29*
X71400Y530000D02*
D03*
X46000D02*
D03*
D30*
X77000Y302000D02*
D03*
Y282000D02*
D03*
M02*
