G04*
G04 #@! TF.GenerationSoftware,Altium Limited,Altium Designer,25.0.2 (28)*
G04*
G04 Layer_Physical_Order=5*
G04 Layer_Color=16737945*
%FSLAX44Y44*%
%MOMM*%
G71*
G04*
G04 #@! TF.SameCoordinates,9294F1C2-9D63-464E-A418-A043A43F256C*
G04*
G04*
G04 #@! TF.FilePolarity,Positive*
G04*
G01*
G75*
%ADD22C,3.5000*%
%ADD23C,2.6000*%
%ADD24C,2.3000*%
%ADD25C,1.5200*%
%ADD27C,2.0000*%
%ADD28R,1.5200X1.5200*%
%ADD29O,1.7500X2.5000*%
%ADD30C,0.6000*%
%ADD35C,0.5000*%
G36*
X496476Y580460D02*
X498645Y579561D01*
X500597Y578257D01*
X502257Y576597D01*
X503561Y574645D01*
X504460Y572476D01*
X504918Y570174D01*
Y569000D01*
Y336752D01*
Y329299D01*
X503943Y314424D01*
X501997Y299646D01*
X499089Y285026D01*
X495231Y270628D01*
X490439Y256512D01*
X484735Y242741D01*
X478142Y229372D01*
X470689Y216462D01*
X462408Y204069D01*
X453333Y192243D01*
X443505Y181036D01*
X438235Y175765D01*
X438224Y175739D01*
X438198Y175727D01*
X437298Y174734D01*
X437270Y174655D01*
X437200Y174608D01*
X435713Y172382D01*
X435691Y172273D01*
X435613Y172195D01*
X434588Y169722D01*
Y169611D01*
X434527Y169519D01*
X434004Y166893D01*
X434021Y166811D01*
X433985Y166735D01*
X433919Y165396D01*
X433929Y165369D01*
X433918Y165343D01*
Y61000D01*
Y59204D01*
X433217Y55682D01*
X431843Y52364D01*
X429848Y49378D01*
X428578Y48108D01*
X428578Y48108D01*
X380892Y422D01*
X380892Y422D01*
X379622Y-848D01*
X376636Y-2843D01*
X373318Y-4217D01*
X369796Y-4918D01*
X164204D01*
X160682Y-4217D01*
X157364Y-2843D01*
X154378Y-848D01*
X153108Y422D01*
X153108Y422D01*
X105422Y48108D01*
X105422Y48108D01*
X104152Y49378D01*
X102157Y52364D01*
X100783Y55682D01*
X100082Y59204D01*
Y61000D01*
Y165343D01*
X100071Y165369D01*
X100081Y165396D01*
X100015Y166735D01*
X99979Y166811D01*
X99996Y166893D01*
X99473Y169519D01*
X99412Y169611D01*
Y169722D01*
X98387Y172195D01*
X98309Y172274D01*
X98287Y172382D01*
X96800Y174608D01*
X96730Y174655D01*
X96702Y174734D01*
X95802Y175727D01*
X95776Y175739D01*
X95765Y175765D01*
X90495Y181036D01*
X80667Y192243D01*
X71592Y204069D01*
X63311Y216462D01*
X55858Y229372D01*
X49265Y242741D01*
X43560Y256513D01*
X38769Y270628D01*
X34911Y285026D01*
X32003Y299646D01*
X30057Y314425D01*
X29082Y329299D01*
Y336752D01*
Y569000D01*
Y570174D01*
X29540Y572476D01*
X30439Y574645D01*
X31743Y576597D01*
X33403Y578257D01*
X35355Y579561D01*
X37524Y580460D01*
X39826Y580918D01*
X494174D01*
X496476Y580460D01*
D02*
G37*
%LPC*%
G36*
X473850Y544776D02*
Y532900D01*
X485727D01*
X485312Y534983D01*
X484257Y537531D01*
X482725Y539824D01*
X480775Y541774D01*
X478482Y543306D01*
X475934Y544362D01*
X473850Y544776D01*
D02*
G37*
G36*
X469850D02*
X467767Y544362D01*
X465219Y543306D01*
X462926Y541774D01*
X460976Y539824D01*
X459444Y537531D01*
X458388Y534983D01*
X457974Y532900D01*
X469850D01*
Y544776D01*
D02*
G37*
G36*
X423050D02*
Y532900D01*
X434927D01*
X434512Y534983D01*
X433457Y537531D01*
X431925Y539824D01*
X429975Y541774D01*
X427682Y543306D01*
X425134Y544362D01*
X423050Y544776D01*
D02*
G37*
G36*
X419050D02*
X416967Y544362D01*
X414419Y543306D01*
X412126Y541774D01*
X410176Y539824D01*
X408644Y537531D01*
X407588Y534983D01*
X407174Y532900D01*
X419050D01*
Y544776D01*
D02*
G37*
G36*
X73400Y544834D02*
Y532000D01*
X82747D01*
Y533750D01*
X82360Y536687D01*
X81227Y539423D01*
X79424Y541774D01*
X77074Y543577D01*
X74337Y544710D01*
X73400Y544834D01*
D02*
G37*
G36*
X69400D02*
X68463Y544710D01*
X65726Y543577D01*
X63376Y541774D01*
X61573Y539423D01*
X60440Y536687D01*
X60053Y533750D01*
Y532000D01*
X69400D01*
Y544834D01*
D02*
G37*
G36*
X46987Y537500D02*
X45013D01*
X43105Y536989D01*
X41395Y536002D01*
X39999Y534605D01*
X39011Y532895D01*
X38500Y530987D01*
Y529013D01*
X39011Y527105D01*
X39999Y525395D01*
X41395Y523998D01*
X43105Y523011D01*
X45013Y522500D01*
X46987D01*
X48895Y523011D01*
X50605Y523998D01*
X52002Y525395D01*
X52989Y527105D01*
X53500Y529013D01*
Y530987D01*
X52989Y532895D01*
X52002Y534605D01*
X50605Y536002D01*
X48895Y536989D01*
X46987Y537500D01*
D02*
G37*
G36*
X346878Y550400D02*
X343923D01*
X341025Y549823D01*
X338295Y548693D01*
X335838Y547051D01*
X333749Y544962D01*
X332107Y542505D01*
X330977Y539775D01*
X330400Y536877D01*
Y533923D01*
X330977Y531025D01*
X332107Y528295D01*
X333749Y525838D01*
X335838Y523749D01*
X338295Y522107D01*
X341025Y520976D01*
X343923Y520400D01*
X346878D01*
X349775Y520976D01*
X352505Y522107D01*
X354962Y523749D01*
X357051Y525838D01*
X358693Y528295D01*
X359824Y531025D01*
X360400Y533923D01*
Y536877D01*
X359824Y539775D01*
X358693Y542505D01*
X357051Y544962D01*
X354962Y547051D01*
X352505Y548693D01*
X349775Y549823D01*
X346878Y550400D01*
D02*
G37*
G36*
X296077D02*
X293123D01*
X290225Y549823D01*
X287495Y548693D01*
X285038Y547051D01*
X282949Y544962D01*
X281307Y542505D01*
X280177Y539775D01*
X279600Y536877D01*
Y533923D01*
X280177Y531025D01*
X281307Y528295D01*
X282949Y525838D01*
X285038Y523749D01*
X287495Y522107D01*
X290225Y520976D01*
X293123Y520400D01*
X296077D01*
X298975Y520976D01*
X301705Y522107D01*
X304162Y523749D01*
X306251Y525838D01*
X307893Y528295D01*
X309024Y531025D01*
X309600Y533923D01*
Y536877D01*
X309024Y539775D01*
X307893Y542505D01*
X306251Y544962D01*
X304162Y547051D01*
X301705Y548693D01*
X298975Y549823D01*
X296077Y550400D01*
D02*
G37*
G36*
X196877D02*
X193923D01*
X191025Y549823D01*
X188295Y548693D01*
X185838Y547051D01*
X183749Y544962D01*
X182107Y542505D01*
X180976Y539775D01*
X180400Y536877D01*
Y533923D01*
X180976Y531025D01*
X182107Y528295D01*
X183749Y525838D01*
X185838Y523749D01*
X188295Y522107D01*
X191025Y520976D01*
X193923Y520400D01*
X196877D01*
X199775Y520976D01*
X202505Y522107D01*
X204962Y523749D01*
X207051Y525838D01*
X208693Y528295D01*
X209823Y531025D01*
X210400Y533923D01*
Y536877D01*
X209823Y539775D01*
X208693Y542505D01*
X207051Y544962D01*
X204962Y547051D01*
X202505Y548693D01*
X199775Y549823D01*
X196877Y550400D01*
D02*
G37*
G36*
X146077D02*
X143123D01*
X140225Y549823D01*
X137495Y548693D01*
X135038Y547051D01*
X132949Y544962D01*
X131307Y542505D01*
X130176Y539775D01*
X129600Y536877D01*
Y533923D01*
X130176Y531025D01*
X131307Y528295D01*
X132949Y525838D01*
X135038Y523749D01*
X137495Y522107D01*
X140225Y520976D01*
X143123Y520400D01*
X146077D01*
X148975Y520976D01*
X151705Y522107D01*
X154162Y523749D01*
X156251Y525838D01*
X157893Y528295D01*
X159024Y531025D01*
X159600Y533923D01*
Y536877D01*
X159024Y539775D01*
X157893Y542505D01*
X156251Y544962D01*
X154162Y547051D01*
X151705Y548693D01*
X148975Y549823D01*
X146077Y550400D01*
D02*
G37*
G36*
X485727Y528900D02*
X473850D01*
Y517023D01*
X475934Y517438D01*
X478482Y518493D01*
X480775Y520025D01*
X482725Y521975D01*
X484257Y524268D01*
X485312Y526816D01*
X485727Y528900D01*
D02*
G37*
G36*
X469850D02*
X457974D01*
X458388Y526816D01*
X459444Y524268D01*
X460976Y521975D01*
X462926Y520025D01*
X465219Y518493D01*
X467767Y517438D01*
X469850Y517023D01*
Y528900D01*
D02*
G37*
G36*
X434927D02*
X423050D01*
Y517023D01*
X425134Y517438D01*
X427682Y518493D01*
X429975Y520025D01*
X431925Y521975D01*
X433457Y524268D01*
X434512Y526816D01*
X434927Y528900D01*
D02*
G37*
G36*
X419050D02*
X407174D01*
X407588Y526816D01*
X408644Y524268D01*
X410176Y521975D01*
X412126Y520025D01*
X414419Y518493D01*
X416967Y517438D01*
X419050Y517023D01*
Y528900D01*
D02*
G37*
G36*
X82747Y528000D02*
X73400D01*
Y515166D01*
X74337Y515290D01*
X77074Y516423D01*
X79424Y518226D01*
X81227Y520577D01*
X82360Y523313D01*
X82747Y526250D01*
Y528000D01*
D02*
G37*
G36*
X69400D02*
X60053D01*
Y526250D01*
X60440Y523313D01*
X61573Y520577D01*
X63376Y518226D01*
X65726Y516423D01*
X68463Y515290D01*
X69400Y515166D01*
Y528000D01*
D02*
G37*
G36*
X447701Y515000D02*
X445200D01*
X442784Y514352D01*
X440617Y513102D01*
X438848Y511333D01*
X437598Y509167D01*
X436950Y506750D01*
Y504249D01*
X437598Y501833D01*
X438848Y499667D01*
X440617Y497898D01*
X442784Y496647D01*
X445200Y496000D01*
X447701D01*
X450117Y496647D01*
X452284Y497898D01*
X454052Y499667D01*
X455303Y501833D01*
X455950Y504249D01*
Y506750D01*
X455303Y509167D01*
X454052Y511333D01*
X452284Y513102D01*
X450117Y514352D01*
X447701Y515000D01*
D02*
G37*
G36*
X473850Y493976D02*
Y482100D01*
X485727D01*
X485312Y484184D01*
X484257Y486731D01*
X482725Y489024D01*
X480775Y490974D01*
X478482Y492506D01*
X475934Y493562D01*
X473850Y493976D01*
D02*
G37*
G36*
X469850D02*
X467767Y493562D01*
X465219Y492506D01*
X462926Y490974D01*
X460976Y489024D01*
X459444Y486731D01*
X458388Y484184D01*
X457974Y482100D01*
X469850D01*
Y493976D01*
D02*
G37*
G36*
X423050D02*
Y482100D01*
X434927D01*
X434512Y484184D01*
X433457Y486731D01*
X431925Y489024D01*
X429975Y490974D01*
X427682Y492506D01*
X425134Y493562D01*
X423050Y493976D01*
D02*
G37*
G36*
X419050D02*
X416967Y493562D01*
X414419Y492506D01*
X412126Y490974D01*
X410176Y489024D01*
X408644Y486731D01*
X407588Y484184D01*
X407174Y482100D01*
X419050D01*
Y493976D01*
D02*
G37*
G36*
X73400Y479920D02*
Y472000D01*
X81320D01*
X80812Y473898D01*
X79482Y476202D01*
X77601Y478082D01*
X75299Y479412D01*
X73400Y479920D01*
D02*
G37*
G36*
X69400D02*
X67502Y479412D01*
X65198Y478082D01*
X63318Y476202D01*
X61988Y473898D01*
X61480Y472000D01*
X69400D01*
Y479920D01*
D02*
G37*
G36*
X346878Y499600D02*
X343923D01*
X341025Y499024D01*
X338295Y497893D01*
X335838Y496251D01*
X333749Y494162D01*
X332107Y491705D01*
X330977Y488975D01*
X330400Y486077D01*
Y483123D01*
X330977Y480225D01*
X332107Y477495D01*
X333749Y475038D01*
X335838Y472949D01*
X338295Y471307D01*
X341025Y470176D01*
X343923Y469600D01*
X346878D01*
X349775Y470176D01*
X352505Y471307D01*
X354962Y472949D01*
X357051Y475038D01*
X358693Y477495D01*
X359824Y480225D01*
X360400Y483123D01*
Y486077D01*
X359824Y488975D01*
X358693Y491705D01*
X357051Y494162D01*
X354962Y496251D01*
X352505Y497893D01*
X349775Y499024D01*
X346878Y499600D01*
D02*
G37*
G36*
X296077D02*
X293123D01*
X290225Y499024D01*
X287495Y497893D01*
X285038Y496251D01*
X282949Y494162D01*
X281307Y491705D01*
X280177Y488975D01*
X279600Y486077D01*
Y483123D01*
X280177Y480225D01*
X281307Y477495D01*
X282949Y475038D01*
X285038Y472949D01*
X287495Y471307D01*
X290225Y470176D01*
X293123Y469600D01*
X296077D01*
X298975Y470176D01*
X301705Y471307D01*
X304162Y472949D01*
X306251Y475038D01*
X307893Y477495D01*
X309024Y480225D01*
X309600Y483123D01*
Y486077D01*
X309024Y488975D01*
X307893Y491705D01*
X306251Y494162D01*
X304162Y496251D01*
X301705Y497893D01*
X298975Y499024D01*
X296077Y499600D01*
D02*
G37*
G36*
X196877D02*
X193923D01*
X191025Y499024D01*
X188295Y497893D01*
X185838Y496251D01*
X183749Y494162D01*
X182107Y491705D01*
X180976Y488975D01*
X180400Y486077D01*
Y483123D01*
X180976Y480225D01*
X182107Y477495D01*
X183749Y475038D01*
X185838Y472949D01*
X188295Y471307D01*
X191025Y470176D01*
X193923Y469600D01*
X196877D01*
X199775Y470176D01*
X202505Y471307D01*
X204962Y472949D01*
X207051Y475038D01*
X208693Y477495D01*
X209823Y480225D01*
X210400Y483123D01*
Y486077D01*
X209823Y488975D01*
X208693Y491705D01*
X207051Y494162D01*
X204962Y496251D01*
X202505Y497893D01*
X199775Y499024D01*
X196877Y499600D01*
D02*
G37*
G36*
X146077D02*
X143123D01*
X140225Y499024D01*
X137495Y497893D01*
X135038Y496251D01*
X132949Y494162D01*
X131307Y491705D01*
X130176Y488975D01*
X129600Y486077D01*
Y483123D01*
X130176Y480225D01*
X131307Y477495D01*
X132949Y475038D01*
X135038Y472949D01*
X137495Y471307D01*
X140225Y470176D01*
X143123Y469600D01*
X146077D01*
X148975Y470176D01*
X151705Y471307D01*
X154162Y472949D01*
X156251Y475038D01*
X157893Y477495D01*
X159024Y480225D01*
X159600Y483123D01*
Y486077D01*
X159024Y488975D01*
X157893Y491705D01*
X156251Y494162D01*
X154162Y496251D01*
X151705Y497893D01*
X148975Y499024D01*
X146077Y499600D01*
D02*
G37*
G36*
X485727Y478100D02*
X473850D01*
Y466223D01*
X475934Y466638D01*
X478482Y467693D01*
X480775Y469225D01*
X482725Y471175D01*
X484257Y473468D01*
X485312Y476016D01*
X485727Y478100D01*
D02*
G37*
G36*
X469850D02*
X457974D01*
X458388Y476016D01*
X459444Y473468D01*
X460976Y471175D01*
X462926Y469225D01*
X465219Y467693D01*
X467767Y466638D01*
X469850Y466223D01*
Y478100D01*
D02*
G37*
G36*
X434927D02*
X423050D01*
Y466223D01*
X425134Y466638D01*
X427682Y467693D01*
X429975Y469225D01*
X431925Y471175D01*
X433457Y473468D01*
X434512Y476016D01*
X434927Y478100D01*
D02*
G37*
G36*
X419050D02*
X407174D01*
X407588Y476016D01*
X408644Y473468D01*
X410176Y471175D01*
X412126Y469225D01*
X414419Y467693D01*
X416967Y466638D01*
X419050Y466223D01*
Y478100D01*
D02*
G37*
G36*
X46935Y477100D02*
X45065D01*
X43260Y476616D01*
X41641Y475681D01*
X40319Y474360D01*
X39384Y472741D01*
X38900Y470935D01*
Y469065D01*
X39384Y467259D01*
X40319Y465640D01*
X41641Y464319D01*
X43260Y463384D01*
X45065Y462900D01*
X46935D01*
X48741Y463384D01*
X50360Y464319D01*
X51681Y465640D01*
X52616Y467259D01*
X53100Y469065D01*
Y470935D01*
X52616Y472741D01*
X51681Y474360D01*
X50360Y475681D01*
X48741Y476616D01*
X46935Y477100D01*
D02*
G37*
G36*
X81320Y468000D02*
X73400D01*
Y460080D01*
X75299Y460588D01*
X77601Y461918D01*
X79482Y463798D01*
X80812Y466102D01*
X81320Y468000D01*
D02*
G37*
G36*
X69400D02*
X61480D01*
X61988Y466102D01*
X63318Y463798D01*
X65198Y461918D01*
X67502Y460588D01*
X69400Y460080D01*
Y468000D01*
D02*
G37*
G36*
X96716Y440400D02*
X94083D01*
X91540Y439719D01*
X89260Y438402D01*
X87398Y436540D01*
X86081Y434260D01*
X85400Y431716D01*
Y429083D01*
X86081Y426540D01*
X87398Y424260D01*
X89260Y422398D01*
X91540Y421082D01*
X94083Y420400D01*
X96716D01*
X99260Y421082D01*
X101540Y422398D01*
X103402Y424260D01*
X104719Y426540D01*
X105400Y429083D01*
Y431716D01*
X104719Y434260D01*
X103402Y436540D01*
X101540Y438402D01*
X99260Y439719D01*
X96716Y440400D01*
D02*
G37*
G36*
X45917D02*
X43284D01*
X40740Y439719D01*
X38460Y438402D01*
X36598Y436540D01*
X35282Y434260D01*
X34600Y431716D01*
Y429083D01*
X35282Y426540D01*
X36598Y424260D01*
X38460Y422398D01*
X40740Y421082D01*
X43284Y420400D01*
X45917D01*
X48460Y421082D01*
X50740Y422398D01*
X52602Y424260D01*
X53918Y426540D01*
X54600Y429083D01*
Y431716D01*
X53918Y434260D01*
X52602Y436540D01*
X50740Y438402D01*
X48460Y439719D01*
X45917Y440400D01*
D02*
G37*
G36*
X124935Y411800D02*
X123065D01*
X121259Y411316D01*
X119641Y410381D01*
X118319Y409059D01*
X117384Y407440D01*
X116900Y405635D01*
Y403765D01*
X117384Y401959D01*
X118319Y400340D01*
X119641Y399019D01*
X121259Y398084D01*
X123065Y397600D01*
X124935D01*
X126741Y398084D01*
X128359Y399019D01*
X129681Y400340D01*
X130616Y401959D01*
X131100Y403765D01*
Y405635D01*
X130616Y407440D01*
X129681Y409059D01*
X128359Y410381D01*
X126741Y411316D01*
X124935Y411800D01*
D02*
G37*
G36*
X71251Y414500D02*
X68749D01*
X66333Y413853D01*
X64167Y412602D01*
X62398Y410833D01*
X61147Y408667D01*
X60500Y406251D01*
Y403749D01*
X61147Y401333D01*
X62398Y399167D01*
X64167Y397398D01*
X66333Y396147D01*
X68749Y395500D01*
X71251D01*
X73667Y396147D01*
X75833Y397398D01*
X77602Y399167D01*
X78853Y401333D01*
X79500Y403749D01*
Y406251D01*
X78853Y408667D01*
X77602Y410833D01*
X75833Y412602D01*
X73667Y413853D01*
X71251Y414500D01*
D02*
G37*
G36*
X472735Y407100D02*
X470865D01*
X469059Y406616D01*
X467440Y405681D01*
X466119Y404360D01*
X465184Y402741D01*
X464700Y400935D01*
Y399065D01*
X465184Y397259D01*
X466119Y395640D01*
X467440Y394319D01*
X469059Y393384D01*
X470865Y392900D01*
X472735D01*
X474540Y393384D01*
X476160Y394319D01*
X477481Y395640D01*
X478416Y397259D01*
X478900Y399065D01*
Y400935D01*
X478416Y402741D01*
X477481Y404360D01*
X476160Y405681D01*
X474540Y406616D01*
X472735Y407100D01*
D02*
G37*
G36*
X447335D02*
X445465D01*
X443660Y406616D01*
X442040Y405681D01*
X440719Y404360D01*
X439784Y402741D01*
X439300Y400935D01*
Y399065D01*
X439784Y397259D01*
X440719Y395640D01*
X442040Y394319D01*
X443660Y393384D01*
X445465Y392900D01*
X447335D01*
X449141Y393384D01*
X450760Y394319D01*
X452081Y395640D01*
X453016Y397259D01*
X453500Y399065D01*
Y400935D01*
X453016Y402741D01*
X452081Y404360D01*
X450760Y405681D01*
X449141Y406616D01*
X447335Y407100D01*
D02*
G37*
G36*
X421935D02*
X420065D01*
X418260Y406616D01*
X416641Y405681D01*
X415319Y404360D01*
X414384Y402741D01*
X413900Y400935D01*
Y399065D01*
X414384Y397259D01*
X415319Y395640D01*
X416641Y394319D01*
X418260Y393384D01*
X420065Y392900D01*
X421935D01*
X423741Y393384D01*
X425359Y394319D01*
X426681Y395640D01*
X427616Y397259D01*
X428100Y399065D01*
Y400935D01*
X427616Y402741D01*
X426681Y404360D01*
X425359Y405681D01*
X423741Y406616D01*
X421935Y407100D01*
D02*
G37*
G36*
X396535D02*
X394665D01*
X392859Y406616D01*
X391241Y405681D01*
X389919Y404360D01*
X388984Y402741D01*
X388500Y400935D01*
Y399065D01*
X388984Y397259D01*
X389919Y395640D01*
X391241Y394319D01*
X392859Y393384D01*
X394665Y392900D01*
X396535D01*
X398340Y393384D01*
X399959Y394319D01*
X401281Y395640D01*
X402216Y397259D01*
X402700Y399065D01*
Y400935D01*
X402216Y402741D01*
X401281Y404360D01*
X399959Y405681D01*
X398340Y406616D01*
X396535Y407100D01*
D02*
G37*
G36*
X371135D02*
X369265D01*
X367459Y406616D01*
X365840Y405681D01*
X364519Y404360D01*
X363584Y402741D01*
X363100Y400935D01*
Y399065D01*
X363584Y397259D01*
X364519Y395640D01*
X365840Y394319D01*
X367459Y393384D01*
X369265Y392900D01*
X371135D01*
X372940Y393384D01*
X374560Y394319D01*
X375881Y395640D01*
X376816Y397259D01*
X377300Y399065D01*
Y400935D01*
X376816Y402741D01*
X375881Y404360D01*
X374560Y405681D01*
X372940Y406616D01*
X371135Y407100D01*
D02*
G37*
G36*
X345735D02*
X343865D01*
X342060Y406616D01*
X340440Y405681D01*
X339119Y404360D01*
X338184Y402741D01*
X337700Y400935D01*
Y399065D01*
X338184Y397259D01*
X339119Y395640D01*
X340440Y394319D01*
X342060Y393384D01*
X343865Y392900D01*
X345735D01*
X347541Y393384D01*
X349160Y394319D01*
X350481Y395640D01*
X351416Y397259D01*
X351900Y399065D01*
Y400935D01*
X351416Y402741D01*
X350481Y404360D01*
X349160Y405681D01*
X347541Y406616D01*
X345735Y407100D01*
D02*
G37*
G36*
X320335D02*
X318465D01*
X316660Y406616D01*
X315040Y405681D01*
X313719Y404360D01*
X312784Y402741D01*
X312300Y400935D01*
Y399065D01*
X312784Y397259D01*
X313719Y395640D01*
X315040Y394319D01*
X316660Y393384D01*
X318465Y392900D01*
X320335D01*
X322141Y393384D01*
X323759Y394319D01*
X325081Y395640D01*
X326016Y397259D01*
X326500Y399065D01*
Y400935D01*
X326016Y402741D01*
X325081Y404360D01*
X323759Y405681D01*
X322141Y406616D01*
X320335Y407100D01*
D02*
G37*
G36*
X294935D02*
X293065D01*
X291259Y406616D01*
X289641Y405681D01*
X288319Y404360D01*
X287384Y402741D01*
X286900Y400935D01*
Y399065D01*
X287384Y397259D01*
X288319Y395640D01*
X289641Y394319D01*
X291259Y393384D01*
X293065Y392900D01*
X294935D01*
X296740Y393384D01*
X298360Y394319D01*
X299681Y395640D01*
X300616Y397259D01*
X301100Y399065D01*
Y400935D01*
X300616Y402741D01*
X299681Y404360D01*
X298360Y405681D01*
X296740Y406616D01*
X294935Y407100D01*
D02*
G37*
G36*
X269535D02*
X267665D01*
X265860Y406616D01*
X264240Y405681D01*
X262919Y404360D01*
X261984Y402741D01*
X261500Y400935D01*
Y399065D01*
X261984Y397259D01*
X262919Y395640D01*
X264240Y394319D01*
X265860Y393384D01*
X267665Y392900D01*
X269535D01*
X271341Y393384D01*
X272959Y394319D01*
X274281Y395640D01*
X275216Y397259D01*
X275700Y399065D01*
Y400935D01*
X275216Y402741D01*
X274281Y404360D01*
X272959Y405681D01*
X271341Y406616D01*
X269535Y407100D01*
D02*
G37*
G36*
X124935Y386400D02*
X123065D01*
X121259Y385916D01*
X119641Y384981D01*
X118319Y383660D01*
X117384Y382040D01*
X116900Y380235D01*
Y378365D01*
X117384Y376559D01*
X118319Y374940D01*
X119641Y373619D01*
X121259Y372684D01*
X123065Y372200D01*
X124935D01*
X126741Y372684D01*
X128359Y373619D01*
X129681Y374940D01*
X130616Y376559D01*
X131100Y378365D01*
Y380235D01*
X130616Y382040D01*
X129681Y383660D01*
X128359Y384981D01*
X126741Y385916D01*
X124935Y386400D01*
D02*
G37*
G36*
X96716Y389600D02*
X94083D01*
X91540Y388918D01*
X89260Y387602D01*
X87398Y385740D01*
X86081Y383460D01*
X85400Y380916D01*
Y378283D01*
X86081Y375740D01*
X87398Y373460D01*
X89260Y371598D01*
X91540Y370281D01*
X94083Y369600D01*
X96716D01*
X99260Y370281D01*
X101540Y371598D01*
X103402Y373460D01*
X104719Y375740D01*
X105400Y378283D01*
Y380916D01*
X104719Y383460D01*
X103402Y385740D01*
X101540Y387602D01*
X99260Y388918D01*
X96716Y389600D01*
D02*
G37*
G36*
X45917D02*
X43284D01*
X40740Y388918D01*
X38460Y387602D01*
X36598Y385740D01*
X35282Y383460D01*
X34600Y380916D01*
Y378283D01*
X35282Y375740D01*
X36598Y373460D01*
X38460Y371598D01*
X40740Y370281D01*
X43284Y369600D01*
X45917D01*
X48460Y370281D01*
X50740Y371598D01*
X52602Y373460D01*
X53918Y375740D01*
X54600Y378283D01*
Y380916D01*
X53918Y383460D01*
X52602Y385740D01*
X50740Y387602D01*
X48460Y388918D01*
X45917Y389600D01*
D02*
G37*
G36*
X472735Y381700D02*
X470865D01*
X469059Y381216D01*
X467440Y380281D01*
X466119Y378960D01*
X465184Y377341D01*
X464700Y375535D01*
Y373665D01*
X465184Y371860D01*
X466119Y370241D01*
X467440Y368919D01*
X469059Y367984D01*
X470865Y367500D01*
X472735D01*
X474540Y367984D01*
X476160Y368919D01*
X477481Y370241D01*
X478416Y371860D01*
X478900Y373665D01*
Y375535D01*
X478416Y377341D01*
X477481Y378960D01*
X476160Y380281D01*
X474540Y381216D01*
X472735Y381700D01*
D02*
G37*
G36*
X447335D02*
X445465D01*
X443660Y381216D01*
X442040Y380281D01*
X440719Y378960D01*
X439784Y377341D01*
X439300Y375535D01*
Y373665D01*
X439784Y371860D01*
X440719Y370241D01*
X442040Y368919D01*
X443660Y367984D01*
X445465Y367500D01*
X447335D01*
X449141Y367984D01*
X450760Y368919D01*
X452081Y370241D01*
X453016Y371860D01*
X453500Y373665D01*
Y375535D01*
X453016Y377341D01*
X452081Y378960D01*
X450760Y380281D01*
X449141Y381216D01*
X447335Y381700D01*
D02*
G37*
G36*
X421935D02*
X420065D01*
X418260Y381216D01*
X416641Y380281D01*
X415319Y378960D01*
X414384Y377341D01*
X413900Y375535D01*
Y373665D01*
X414384Y371860D01*
X415319Y370241D01*
X416641Y368919D01*
X418260Y367984D01*
X420065Y367500D01*
X421935D01*
X423741Y367984D01*
X425359Y368919D01*
X426681Y370241D01*
X427616Y371860D01*
X428100Y373665D01*
Y375535D01*
X427616Y377341D01*
X426681Y378960D01*
X425359Y380281D01*
X423741Y381216D01*
X421935Y381700D01*
D02*
G37*
G36*
X396535D02*
X394665D01*
X392859Y381216D01*
X391241Y380281D01*
X389919Y378960D01*
X388984Y377341D01*
X388500Y375535D01*
Y373665D01*
X388984Y371860D01*
X389919Y370241D01*
X391241Y368919D01*
X392859Y367984D01*
X394665Y367500D01*
X396535D01*
X398340Y367984D01*
X399959Y368919D01*
X401281Y370241D01*
X402216Y371860D01*
X402700Y373665D01*
Y375535D01*
X402216Y377341D01*
X401281Y378960D01*
X399959Y380281D01*
X398340Y381216D01*
X396535Y381700D01*
D02*
G37*
G36*
X371135D02*
X369265D01*
X367459Y381216D01*
X365840Y380281D01*
X364519Y378960D01*
X363584Y377341D01*
X363100Y375535D01*
Y373665D01*
X363584Y371860D01*
X364519Y370241D01*
X365840Y368919D01*
X367459Y367984D01*
X369265Y367500D01*
X371135D01*
X372940Y367984D01*
X374560Y368919D01*
X375881Y370241D01*
X376816Y371860D01*
X377300Y373665D01*
Y375535D01*
X376816Y377341D01*
X375881Y378960D01*
X374560Y380281D01*
X372940Y381216D01*
X371135Y381700D01*
D02*
G37*
G36*
X345735D02*
X343865D01*
X342060Y381216D01*
X340440Y380281D01*
X339119Y378960D01*
X338184Y377341D01*
X337700Y375535D01*
Y373665D01*
X338184Y371860D01*
X339119Y370241D01*
X340440Y368919D01*
X342060Y367984D01*
X343865Y367500D01*
X345735D01*
X347541Y367984D01*
X349160Y368919D01*
X350481Y370241D01*
X351416Y371860D01*
X351900Y373665D01*
Y375535D01*
X351416Y377341D01*
X350481Y378960D01*
X349160Y380281D01*
X347541Y381216D01*
X345735Y381700D01*
D02*
G37*
G36*
X320335D02*
X318465D01*
X316660Y381216D01*
X315040Y380281D01*
X313719Y378960D01*
X312784Y377341D01*
X312300Y375535D01*
Y373665D01*
X312784Y371860D01*
X313719Y370241D01*
X315040Y368919D01*
X316660Y367984D01*
X318465Y367500D01*
X320335D01*
X322141Y367984D01*
X323759Y368919D01*
X325081Y370241D01*
X326016Y371860D01*
X326500Y373665D01*
Y375535D01*
X326016Y377341D01*
X325081Y378960D01*
X323759Y380281D01*
X322141Y381216D01*
X320335Y381700D01*
D02*
G37*
G36*
X294935D02*
X293065D01*
X291259Y381216D01*
X289641Y380281D01*
X288319Y378960D01*
X287384Y377341D01*
X286900Y375535D01*
Y373665D01*
X287384Y371860D01*
X288319Y370241D01*
X289641Y368919D01*
X291259Y367984D01*
X293065Y367500D01*
X294935D01*
X296740Y367984D01*
X298360Y368919D01*
X299681Y370241D01*
X300616Y371860D01*
X301100Y373665D01*
Y375535D01*
X300616Y377341D01*
X299681Y378960D01*
X298360Y380281D01*
X296740Y381216D01*
X294935Y381700D01*
D02*
G37*
G36*
X269535D02*
X267665D01*
X265860Y381216D01*
X264240Y380281D01*
X262919Y378960D01*
X261984Y377341D01*
X261500Y375535D01*
Y373665D01*
X261984Y371860D01*
X262919Y370241D01*
X264240Y368919D01*
X265860Y367984D01*
X267665Y367500D01*
X269535D01*
X271341Y367984D01*
X272959Y368919D01*
X274281Y370241D01*
X275216Y371860D01*
X275700Y373665D01*
Y375535D01*
X275216Y377341D01*
X274281Y378960D01*
X272959Y380281D01*
X271341Y381216D01*
X269535Y381700D01*
D02*
G37*
G36*
X200696Y334500D02*
X199304D01*
X198017Y333967D01*
X197033Y332983D01*
X196500Y331696D01*
Y330304D01*
X197033Y329017D01*
X198017Y328033D01*
X199304Y327500D01*
X200696D01*
X201983Y328033D01*
X202967Y329017D01*
X203500Y330304D01*
Y331696D01*
X202967Y332983D01*
X201983Y333967D01*
X200696Y334500D01*
D02*
G37*
G36*
X114804Y328000D02*
X112935D01*
X111129Y327516D01*
X109510Y326581D01*
X108188Y325259D01*
X107254Y323640D01*
X106770Y321835D01*
Y319965D01*
X107254Y318159D01*
X108188Y316540D01*
X109510Y315219D01*
X111129Y314284D01*
X112935Y313800D01*
X114804D01*
X116610Y314284D01*
X118229Y315219D01*
X119551Y316540D01*
X120486Y318159D01*
X120970Y319965D01*
Y321835D01*
X120486Y323640D01*
X119551Y325259D01*
X118229Y326581D01*
X116610Y327516D01*
X114804Y328000D01*
D02*
G37*
G36*
X333696Y315500D02*
X332304D01*
X331017Y314967D01*
X330033Y313983D01*
X329500Y312696D01*
Y311304D01*
X330033Y310017D01*
X331017Y309033D01*
X332304Y308500D01*
X333696D01*
X334983Y309033D01*
X335967Y310017D01*
X336500Y311304D01*
Y312696D01*
X335967Y313983D01*
X334983Y314967D01*
X333696Y315500D01*
D02*
G37*
G36*
X267921Y333443D02*
X265459D01*
X265262Y333404D01*
X265061D01*
X262646Y332924D01*
X262461Y332847D01*
X262264Y332808D01*
X259989Y331865D01*
X259822Y331754D01*
X259636Y331677D01*
X257589Y330309D01*
X257447Y330167D01*
X257280Y330055D01*
X255539Y328314D01*
X255427Y328147D01*
X255285Y328005D01*
X253917Y325958D01*
X253840Y325772D01*
X253729Y325605D01*
X252787Y323330D01*
X252747Y323134D01*
X252671Y322948D01*
X252190Y320533D01*
Y320332D01*
X252151Y320135D01*
Y317673D01*
X252190Y317476D01*
Y317275D01*
X252671Y314860D01*
X252747Y314675D01*
X252787Y314478D01*
X253729Y312203D01*
X253840Y312036D01*
X253917Y311850D01*
X255285Y309803D01*
X255427Y309661D01*
X255539Y309494D01*
X257280Y307753D01*
X257447Y307641D01*
X257589Y307499D01*
X259636Y306131D01*
X259822Y306054D01*
X259989Y305943D01*
X262264Y305000D01*
X262461Y304961D01*
X262646Y304884D01*
X265061Y304404D01*
X265262D01*
X265459Y304365D01*
X267921D01*
X268118Y304404D01*
X268319D01*
X270734Y304884D01*
X270920Y304961D01*
X271117Y305000D01*
X273391Y305943D01*
X273559Y306054D01*
X273744Y306131D01*
X275791Y307499D01*
X275933Y307641D01*
X276100Y307753D01*
X277841Y309494D01*
X277953Y309661D01*
X278095Y309803D01*
X279463Y311850D01*
X279540Y312036D01*
X279652Y312203D01*
X280594Y314478D01*
X280633Y314675D01*
X280710Y314860D01*
X281190Y317275D01*
Y317476D01*
X281229Y317673D01*
Y320135D01*
X281190Y320332D01*
Y320533D01*
X280710Y322948D01*
X280633Y323134D01*
X280594Y323330D01*
X279652Y325605D01*
X279540Y325772D01*
X279463Y325958D01*
X278095Y328005D01*
X277953Y328147D01*
X277841Y328314D01*
X276100Y330055D01*
X275933Y330167D01*
X275791Y330309D01*
X273744Y331677D01*
X273559Y331754D01*
X273391Y331865D01*
X271117Y332808D01*
X270920Y332847D01*
X270734Y332924D01*
X268319Y333404D01*
X268118D01*
X267921Y333443D01*
D02*
G37*
G36*
X200987Y312900D02*
X199013D01*
X197105Y312389D01*
X195395Y311402D01*
X193999Y310005D01*
X193011Y308295D01*
X192500Y306387D01*
Y304413D01*
X193011Y302505D01*
X193999Y300795D01*
X195395Y299398D01*
X197105Y298411D01*
X199013Y297900D01*
X200987D01*
X202895Y298411D01*
X204605Y299398D01*
X206001Y300795D01*
X206989Y302505D01*
X207500Y304413D01*
Y306387D01*
X206989Y308295D01*
X206001Y310005D01*
X204605Y311402D01*
X202895Y312389D01*
X200987Y312900D01*
D02*
G37*
G36*
X160987D02*
X159013D01*
X157105Y312389D01*
X155395Y311402D01*
X153998Y310005D01*
X153011Y308295D01*
X152500Y306387D01*
Y304413D01*
X153011Y302505D01*
X153998Y300795D01*
X155395Y299398D01*
X157105Y298411D01*
X159013Y297900D01*
X160987D01*
X162895Y298411D01*
X164605Y299398D01*
X166001Y300795D01*
X166989Y302505D01*
X167500Y304413D01*
Y306387D01*
X166989Y308295D01*
X166001Y310005D01*
X164605Y311402D01*
X162895Y312389D01*
X160987Y312900D01*
D02*
G37*
G36*
X440096Y294088D02*
X438704D01*
X437417Y293555D01*
X436433Y292571D01*
X436212Y292037D01*
X434588D01*
X434367Y292571D01*
X433383Y293555D01*
X432096Y294088D01*
X430704D01*
X429417Y293555D01*
X428433Y292571D01*
X427900Y291284D01*
Y289892D01*
X428433Y288606D01*
X429417Y287621D01*
X430704Y287088D01*
X432096D01*
X433383Y287621D01*
X434367Y288606D01*
X434588Y289139D01*
X436212D01*
X436433Y288606D01*
X437417Y287621D01*
X438704Y287088D01*
X440096D01*
X441383Y287621D01*
X442367Y288606D01*
X442900Y289892D01*
Y291284D01*
X442367Y292571D01*
X441383Y293555D01*
X440096Y294088D01*
D02*
G37*
G36*
X410896D02*
X409504D01*
X408217Y293555D01*
X407233Y292571D01*
X407012Y292037D01*
X405388D01*
X405167Y292571D01*
X404183Y293555D01*
X402896Y294088D01*
X401504D01*
X400217Y293555D01*
X399233Y292571D01*
X398700Y291284D01*
Y289892D01*
X399233Y288606D01*
X400217Y287621D01*
X401504Y287088D01*
X402896D01*
X404183Y287621D01*
X405167Y288606D01*
X405388Y289139D01*
X407012D01*
X407233Y288606D01*
X408217Y287621D01*
X409504Y287088D01*
X410896D01*
X412183Y287621D01*
X413167Y288606D01*
X413700Y289892D01*
Y291284D01*
X413167Y292571D01*
X412183Y293555D01*
X410896Y294088D01*
D02*
G37*
G36*
X114804Y302600D02*
X112935D01*
X111129Y302116D01*
X109510Y301181D01*
X108188Y299859D01*
X107254Y298240D01*
X106770Y296435D01*
Y294565D01*
X107254Y292759D01*
X108188Y291140D01*
X109510Y289818D01*
X111129Y288884D01*
X112935Y288400D01*
X114804D01*
X116610Y288884D01*
X118229Y289818D01*
X119551Y291140D01*
X120486Y292759D01*
X120970Y294565D01*
Y296435D01*
X120486Y298240D01*
X119551Y299859D01*
X118229Y301181D01*
X116610Y302116D01*
X114804Y302600D01*
D02*
G37*
G36*
X462850Y294088D02*
X461457D01*
X460171Y293555D01*
X459186Y292571D01*
X458654Y291284D01*
Y289892D01*
X459186Y288606D01*
X460171Y287621D01*
X461457Y287088D01*
X462850D01*
X464136Y287621D01*
X465121Y288606D01*
X465654Y289892D01*
Y291284D01*
X465121Y292571D01*
X464136Y293555D01*
X462850Y294088D01*
D02*
G37*
G36*
X255696Y293500D02*
X254304D01*
X253017Y292967D01*
X252033Y291983D01*
X251500Y290696D01*
Y289304D01*
X252033Y288017D01*
X253017Y287033D01*
X254304Y286500D01*
X255696D01*
X256983Y287033D01*
X257967Y288017D01*
X258500Y289304D01*
Y290696D01*
X257967Y291983D01*
X256983Y292967D01*
X255696Y293500D01*
D02*
G37*
G36*
X481700Y282800D02*
X473600D01*
Y274700D01*
X481700D01*
Y282800D01*
D02*
G37*
G36*
X469600D02*
X461500D01*
Y274700D01*
X469600D01*
Y282800D01*
D02*
G37*
G36*
X448200Y282620D02*
Y274700D01*
X456120D01*
X455612Y276598D01*
X454282Y278902D01*
X452402Y280782D01*
X450098Y282112D01*
X448200Y282620D01*
D02*
G37*
G36*
X422800D02*
Y274700D01*
X430720D01*
X430212Y276598D01*
X428882Y278902D01*
X427001Y280782D01*
X424698Y282112D01*
X422800Y282620D01*
D02*
G37*
G36*
X397400D02*
Y274700D01*
X405320D01*
X404812Y276598D01*
X403482Y278902D01*
X401601Y280782D01*
X399298Y282112D01*
X397400Y282620D01*
D02*
G37*
G36*
X372000D02*
Y274700D01*
X379920D01*
X379412Y276598D01*
X378082Y278902D01*
X376202Y280782D01*
X373898Y282112D01*
X372000Y282620D01*
D02*
G37*
G36*
X346600D02*
Y274700D01*
X354520D01*
X354012Y276598D01*
X352682Y278902D01*
X350802Y280782D01*
X348498Y282112D01*
X346600Y282620D01*
D02*
G37*
G36*
X321200D02*
Y274700D01*
X329120D01*
X328612Y276598D01*
X327282Y278902D01*
X325401Y280782D01*
X323098Y282112D01*
X321200Y282620D01*
D02*
G37*
G36*
X295800D02*
Y274700D01*
X303720D01*
X303212Y276598D01*
X301882Y278902D01*
X300002Y280782D01*
X297698Y282112D01*
X295800Y282620D01*
D02*
G37*
G36*
X270400D02*
Y274700D01*
X278320D01*
X277812Y276598D01*
X276482Y278902D01*
X274601Y280782D01*
X272298Y282112D01*
X270400Y282620D01*
D02*
G37*
G36*
X317200D02*
X315302Y282112D01*
X312999Y280782D01*
X311118Y278902D01*
X309788Y276598D01*
X309280Y274700D01*
X317200D01*
Y282620D01*
D02*
G37*
G36*
X342600D02*
X340702Y282112D01*
X338399Y280782D01*
X336518Y278902D01*
X335188Y276598D01*
X334680Y274700D01*
X342600D01*
Y282620D01*
D02*
G37*
G36*
X418800D02*
X416902Y282112D01*
X414599Y280782D01*
X412718Y278902D01*
X411388Y276598D01*
X410880Y274700D01*
X418800D01*
Y282620D01*
D02*
G37*
G36*
X291800D02*
X289902Y282112D01*
X287598Y280782D01*
X285718Y278902D01*
X284388Y276598D01*
X283880Y274700D01*
X291800D01*
Y282620D01*
D02*
G37*
G36*
X444200D02*
X442302Y282112D01*
X439999Y280782D01*
X438118Y278902D01*
X436788Y276598D01*
X436280Y274700D01*
X444200D01*
Y282620D01*
D02*
G37*
G36*
X368000D02*
X366102Y282112D01*
X363798Y280782D01*
X361918Y278902D01*
X360588Y276598D01*
X360080Y274700D01*
X368000D01*
Y282620D01*
D02*
G37*
G36*
X393400D02*
X391502Y282112D01*
X389198Y280782D01*
X387318Y278902D01*
X385988Y276598D01*
X385480Y274700D01*
X393400D01*
Y282620D01*
D02*
G37*
G36*
X266400D02*
X264502Y282112D01*
X262199Y280782D01*
X260318Y278902D01*
X258988Y276598D01*
X258480Y274700D01*
X266400D01*
Y282620D01*
D02*
G37*
G36*
X200987Y287500D02*
X199013D01*
X197105Y286989D01*
X195395Y286001D01*
X193999Y284605D01*
X193011Y282895D01*
X192500Y280987D01*
Y279013D01*
X193011Y277105D01*
X193999Y275395D01*
X195395Y273999D01*
X197105Y273011D01*
X199013Y272500D01*
X200987D01*
X202895Y273011D01*
X204605Y273999D01*
X206001Y275395D01*
X206989Y277105D01*
X207500Y279013D01*
Y280987D01*
X206989Y282895D01*
X206001Y284605D01*
X204605Y286001D01*
X202895Y286989D01*
X200987Y287500D01*
D02*
G37*
G36*
X160987D02*
X159013D01*
X157105Y286989D01*
X155395Y286001D01*
X153998Y284605D01*
X153011Y282895D01*
X152500Y280987D01*
Y279013D01*
X153011Y277105D01*
X153998Y275395D01*
X155395Y273999D01*
X157105Y273011D01*
X159013Y272500D01*
X160987D01*
X162895Y273011D01*
X164605Y273999D01*
X166001Y275395D01*
X166989Y277105D01*
X167500Y279013D01*
Y280987D01*
X166989Y282895D01*
X166001Y284605D01*
X164605Y286001D01*
X162895Y286989D01*
X160987Y287500D01*
D02*
G37*
G36*
X88696Y279500D02*
X87304D01*
X86017Y278967D01*
X85033Y277983D01*
X84500Y276696D01*
Y275304D01*
X85033Y274017D01*
X86017Y273033D01*
X87304Y272500D01*
X88696D01*
X89983Y273033D01*
X90967Y274017D01*
X91500Y275304D01*
Y276696D01*
X90967Y277983D01*
X89983Y278967D01*
X88696Y279500D01*
D02*
G37*
G36*
X57696Y295500D02*
X56304D01*
X55017Y294967D01*
X54033Y293983D01*
X53500Y292696D01*
Y291304D01*
X54033Y290017D01*
X55017Y289033D01*
X56304Y288500D01*
X56791D01*
X57089Y287000D01*
X57010Y286967D01*
X56025Y285982D01*
X55492Y284696D01*
Y283304D01*
X56025Y282017D01*
X57010Y281033D01*
X57562Y280804D01*
Y279181D01*
X57046Y278967D01*
X56062Y277983D01*
X55529Y276696D01*
Y275304D01*
X56062Y274017D01*
X57046Y273033D01*
X58333Y272500D01*
X59725D01*
X61012Y273033D01*
X61996Y274017D01*
X62529Y275304D01*
Y276696D01*
X61996Y277983D01*
X61012Y278967D01*
X60460Y279196D01*
Y280819D01*
X60975Y281033D01*
X61960Y282017D01*
X62492Y283304D01*
Y284696D01*
X61960Y285982D01*
X60975Y286967D01*
X59689Y287500D01*
X59202D01*
X58903Y289000D01*
X58983Y289033D01*
X59967Y290017D01*
X60500Y291304D01*
Y292696D01*
X59967Y293983D01*
X58983Y294967D01*
X57696Y295500D01*
D02*
G37*
G36*
X405320Y270700D02*
X397400D01*
Y262780D01*
X399298Y263288D01*
X401601Y264618D01*
X403482Y266499D01*
X404812Y268801D01*
X405320Y270700D01*
D02*
G37*
G36*
X278320D02*
X270400D01*
Y262780D01*
X272298Y263288D01*
X274601Y264618D01*
X276482Y266499D01*
X277812Y268801D01*
X278320Y270700D01*
D02*
G37*
G36*
X456120D02*
X448200D01*
Y262780D01*
X450098Y263288D01*
X452402Y264618D01*
X454282Y266499D01*
X455612Y268801D01*
X456120Y270700D01*
D02*
G37*
G36*
X379920D02*
X372000D01*
Y262780D01*
X373898Y263288D01*
X376202Y264618D01*
X378082Y266499D01*
X379412Y268801D01*
X379920Y270700D01*
D02*
G37*
G36*
X430720D02*
X422800D01*
Y262780D01*
X424698Y263288D01*
X427001Y264618D01*
X428882Y266499D01*
X430212Y268801D01*
X430720Y270700D01*
D02*
G37*
G36*
X303720D02*
X295800D01*
Y262780D01*
X297698Y263288D01*
X300002Y264618D01*
X301882Y266499D01*
X303212Y268801D01*
X303720Y270700D01*
D02*
G37*
G36*
X354520D02*
X346600D01*
Y262780D01*
X348498Y263288D01*
X350802Y264618D01*
X352682Y266499D01*
X354012Y268801D01*
X354520Y270700D01*
D02*
G37*
G36*
X329120D02*
X321200D01*
Y262780D01*
X323098Y263288D01*
X325401Y264618D01*
X327282Y266499D01*
X328612Y268801D01*
X329120Y270700D01*
D02*
G37*
G36*
X317200D02*
X309280D01*
X309788Y268801D01*
X311118Y266499D01*
X312999Y264618D01*
X315302Y263288D01*
X317200Y262780D01*
Y270700D01*
D02*
G37*
G36*
X342600D02*
X334680D01*
X335188Y268801D01*
X336518Y266499D01*
X338399Y264618D01*
X340702Y263288D01*
X342600Y262780D01*
Y270700D01*
D02*
G37*
G36*
X418800D02*
X410880D01*
X411388Y268801D01*
X412718Y266499D01*
X414599Y264618D01*
X416902Y263288D01*
X418800Y262780D01*
Y270700D01*
D02*
G37*
G36*
X291800D02*
X283880D01*
X284388Y268801D01*
X285718Y266499D01*
X287598Y264618D01*
X289902Y263288D01*
X291800Y262780D01*
Y270700D01*
D02*
G37*
G36*
X444200D02*
X436280D01*
X436788Y268801D01*
X438118Y266499D01*
X439999Y264618D01*
X442302Y263288D01*
X444200Y262780D01*
Y270700D01*
D02*
G37*
G36*
X368000D02*
X360080D01*
X360588Y268801D01*
X361918Y266499D01*
X363798Y264618D01*
X366102Y263288D01*
X368000Y262780D01*
Y270700D01*
D02*
G37*
G36*
X393400D02*
X385480D01*
X385988Y268801D01*
X387318Y266499D01*
X389198Y264618D01*
X391502Y263288D01*
X393400Y262780D01*
Y270700D01*
D02*
G37*
G36*
X266400D02*
X258480D01*
X258988Y268801D01*
X260318Y266499D01*
X262199Y264618D01*
X264502Y263288D01*
X266400Y262780D01*
Y270700D01*
D02*
G37*
G36*
X481700Y270700D02*
X473600D01*
Y262600D01*
X481700D01*
Y270700D01*
D02*
G37*
G36*
X469600D02*
X461500D01*
Y262600D01*
X469600D01*
Y270700D01*
D02*
G37*
G36*
X202000Y266947D02*
Y256600D01*
X212347D01*
X212020Y258246D01*
X211077Y260521D01*
X209709Y262568D01*
X207968Y264309D01*
X205921Y265677D01*
X203646Y266620D01*
X202000Y266947D01*
D02*
G37*
G36*
X198000D02*
X196354Y266620D01*
X194079Y265677D01*
X192032Y264309D01*
X190291Y262568D01*
X188923Y260521D01*
X187980Y258246D01*
X187653Y256600D01*
X198000D01*
Y266947D01*
D02*
G37*
G36*
X162000D02*
Y256600D01*
X172347D01*
X172020Y258246D01*
X171077Y260521D01*
X169709Y262568D01*
X167968Y264309D01*
X165921Y265677D01*
X163646Y266620D01*
X162000Y266947D01*
D02*
G37*
G36*
X158000D02*
X156354Y266620D01*
X154079Y265677D01*
X152032Y264309D01*
X150291Y262568D01*
X148923Y260521D01*
X147980Y258246D01*
X147653Y256600D01*
X158000D01*
Y266947D01*
D02*
G37*
G36*
X212347Y252600D02*
X202000D01*
Y242253D01*
X203646Y242580D01*
X205921Y243523D01*
X207968Y244891D01*
X209709Y246632D01*
X211077Y248679D01*
X212020Y250954D01*
X212347Y252600D01*
D02*
G37*
G36*
X198000D02*
X187653D01*
X187980Y250954D01*
X188923Y248679D01*
X190291Y246632D01*
X192032Y244891D01*
X194079Y243523D01*
X196354Y242580D01*
X198000Y242253D01*
Y252600D01*
D02*
G37*
G36*
X172347D02*
X162000D01*
Y242253D01*
X163646Y242580D01*
X165921Y243523D01*
X167968Y244891D01*
X169709Y246632D01*
X171077Y248679D01*
X172020Y250954D01*
X172347Y252600D01*
D02*
G37*
G36*
X158000D02*
X147653D01*
X147980Y250954D01*
X148923Y248679D01*
X150291Y246632D01*
X152032Y244891D01*
X154079Y243523D01*
X156354Y242580D01*
X158000Y242253D01*
Y252600D01*
D02*
G37*
G36*
X472535Y254400D02*
X470665D01*
X468859Y253916D01*
X467240Y252981D01*
X465919Y251660D01*
X464984Y250040D01*
X464500Y248235D01*
Y246365D01*
X464984Y244559D01*
X465919Y242941D01*
X467240Y241619D01*
X468859Y240684D01*
X470665Y240200D01*
X472535D01*
X474341Y240684D01*
X475960Y241619D01*
X477281Y242941D01*
X478216Y244559D01*
X478700Y246365D01*
Y248235D01*
X478216Y250040D01*
X477281Y251660D01*
X475960Y252981D01*
X474341Y253916D01*
X472535Y254400D01*
D02*
G37*
G36*
X447135D02*
X445265D01*
X443460Y253916D01*
X441841Y252981D01*
X440519Y251660D01*
X439584Y250040D01*
X439100Y248235D01*
Y246365D01*
X439584Y244559D01*
X440519Y242941D01*
X441841Y241619D01*
X443460Y240684D01*
X445265Y240200D01*
X447135D01*
X448941Y240684D01*
X450560Y241619D01*
X451881Y242941D01*
X452816Y244559D01*
X453300Y246365D01*
Y248235D01*
X452816Y250040D01*
X451881Y251660D01*
X450560Y252981D01*
X448941Y253916D01*
X447135Y254400D01*
D02*
G37*
G36*
X421735D02*
X419865D01*
X418060Y253916D01*
X416441Y252981D01*
X415119Y251660D01*
X414184Y250040D01*
X413700Y248235D01*
Y246365D01*
X414184Y244559D01*
X415119Y242941D01*
X416441Y241619D01*
X418060Y240684D01*
X419865Y240200D01*
X421735D01*
X423540Y240684D01*
X425159Y241619D01*
X426481Y242941D01*
X427416Y244559D01*
X427900Y246365D01*
Y248235D01*
X427416Y250040D01*
X426481Y251660D01*
X425159Y252981D01*
X423540Y253916D01*
X421735Y254400D01*
D02*
G37*
G36*
X396335D02*
X394465D01*
X392659Y253916D01*
X391040Y252981D01*
X389719Y251660D01*
X388784Y250040D01*
X388300Y248235D01*
Y246365D01*
X388784Y244559D01*
X389719Y242941D01*
X391040Y241619D01*
X392659Y240684D01*
X394465Y240200D01*
X396335D01*
X398140Y240684D01*
X399759Y241619D01*
X401081Y242941D01*
X402016Y244559D01*
X402500Y246365D01*
Y248235D01*
X402016Y250040D01*
X401081Y251660D01*
X399759Y252981D01*
X398140Y253916D01*
X396335Y254400D01*
D02*
G37*
G36*
X370935D02*
X369065D01*
X367259Y253916D01*
X365640Y252981D01*
X364319Y251660D01*
X363384Y250040D01*
X362900Y248235D01*
Y246365D01*
X363384Y244559D01*
X364319Y242941D01*
X365640Y241619D01*
X367259Y240684D01*
X369065Y240200D01*
X370935D01*
X372741Y240684D01*
X374360Y241619D01*
X375681Y242941D01*
X376616Y244559D01*
X377100Y246365D01*
Y248235D01*
X376616Y250040D01*
X375681Y251660D01*
X374360Y252981D01*
X372741Y253916D01*
X370935Y254400D01*
D02*
G37*
G36*
X345535D02*
X343665D01*
X341860Y253916D01*
X340241Y252981D01*
X338919Y251660D01*
X337984Y250040D01*
X337500Y248235D01*
Y246365D01*
X337984Y244559D01*
X338919Y242941D01*
X340241Y241619D01*
X341860Y240684D01*
X343665Y240200D01*
X345535D01*
X347341Y240684D01*
X348960Y241619D01*
X350281Y242941D01*
X351216Y244559D01*
X351700Y246365D01*
Y248235D01*
X351216Y250040D01*
X350281Y251660D01*
X348960Y252981D01*
X347341Y253916D01*
X345535Y254400D01*
D02*
G37*
G36*
X320135D02*
X318265D01*
X316460Y253916D01*
X314841Y252981D01*
X313519Y251660D01*
X312584Y250040D01*
X312100Y248235D01*
Y246365D01*
X312584Y244559D01*
X313519Y242941D01*
X314841Y241619D01*
X316460Y240684D01*
X318265Y240200D01*
X320135D01*
X321940Y240684D01*
X323559Y241619D01*
X324881Y242941D01*
X325816Y244559D01*
X326300Y246365D01*
Y248235D01*
X325816Y250040D01*
X324881Y251660D01*
X323559Y252981D01*
X321940Y253916D01*
X320135Y254400D01*
D02*
G37*
G36*
X294735D02*
X292865D01*
X291059Y253916D01*
X289440Y252981D01*
X288119Y251660D01*
X287184Y250040D01*
X286700Y248235D01*
Y246365D01*
X287184Y244559D01*
X288119Y242941D01*
X289440Y241619D01*
X291059Y240684D01*
X292865Y240200D01*
X294735D01*
X296541Y240684D01*
X298160Y241619D01*
X299481Y242941D01*
X300416Y244559D01*
X300900Y246365D01*
Y248235D01*
X300416Y250040D01*
X299481Y251660D01*
X298160Y252981D01*
X296541Y253916D01*
X294735Y254400D01*
D02*
G37*
G36*
X269335D02*
X267465D01*
X265660Y253916D01*
X264041Y252981D01*
X262719Y251660D01*
X261784Y250040D01*
X261300Y248235D01*
Y246365D01*
X261784Y244559D01*
X262719Y242941D01*
X264041Y241619D01*
X265660Y240684D01*
X267465Y240200D01*
X269335D01*
X271140Y240684D01*
X272759Y241619D01*
X274081Y242941D01*
X275016Y244559D01*
X275500Y246365D01*
Y248235D01*
X275016Y250040D01*
X274081Y251660D01*
X272759Y252981D01*
X271140Y253916D01*
X269335Y254400D01*
D02*
G37*
G36*
X255339Y241089D02*
X253947D01*
X252661Y240556D01*
X251676Y239571D01*
X251143Y238285D01*
Y236892D01*
X251676Y235606D01*
X252661Y234622D01*
X253947Y234089D01*
X255339D01*
X256626Y234622D01*
X257610Y235606D01*
X258143Y236892D01*
Y238285D01*
X257610Y239571D01*
X256626Y240556D01*
X255339Y241089D01*
D02*
G37*
G36*
X383696Y227500D02*
X382304D01*
X381017Y226967D01*
X380033Y225983D01*
X379500Y224696D01*
Y223304D01*
X380033Y222017D01*
X381017Y221033D01*
X382304Y220500D01*
X383696D01*
X384983Y221033D01*
X385967Y222017D01*
X386500Y223304D01*
Y224696D01*
X385967Y225983D01*
X384983Y226967D01*
X383696Y227500D01*
D02*
G37*
G36*
X374696D02*
X373304D01*
X372017Y226967D01*
X371033Y225983D01*
X370500Y224696D01*
Y223304D01*
X371033Y222017D01*
X372017Y221033D01*
X373304Y220500D01*
X374696D01*
X375983Y221033D01*
X376967Y222017D01*
X377500Y223304D01*
Y224696D01*
X376967Y225983D01*
X375983Y226967D01*
X374696Y227500D01*
D02*
G37*
G36*
X365696D02*
X364304D01*
X363017Y226967D01*
X362033Y225983D01*
X361500Y224696D01*
Y223304D01*
X362033Y222017D01*
X363017Y221033D01*
X364304Y220500D01*
X365696D01*
X366983Y221033D01*
X367967Y222017D01*
X368500Y223304D01*
Y224696D01*
X367967Y225983D01*
X366983Y226967D01*
X365696Y227500D01*
D02*
G37*
G36*
X392696D02*
X391304D01*
X390018Y226967D01*
X389033Y225983D01*
X388500Y224696D01*
Y223304D01*
X389033Y222017D01*
X390018Y221033D01*
X391304Y220500D01*
X392696D01*
X393983Y221033D01*
X394967Y222017D01*
X395188Y222551D01*
X396812D01*
X397033Y222017D01*
X398017Y221033D01*
X399304Y220500D01*
X400696D01*
X401983Y221033D01*
X402967Y222017D01*
X403500Y223304D01*
Y224696D01*
X402967Y225983D01*
X401983Y226967D01*
X400696Y227500D01*
X399304D01*
X398017Y226967D01*
X397033Y225983D01*
X396812Y225449D01*
X395188D01*
X394967Y225983D01*
X393983Y226967D01*
X392696Y227500D01*
D02*
G37*
G36*
X269096Y227500D02*
X267704D01*
X266417Y226967D01*
X265433Y225983D01*
X264900Y224696D01*
Y223304D01*
X265433Y222017D01*
X266417Y221033D01*
X267704Y220500D01*
X269096D01*
X270383Y221033D01*
X271367Y222017D01*
X271900Y223304D01*
Y224696D01*
X271367Y225983D01*
X270383Y226967D01*
X269096Y227500D01*
D02*
G37*
G36*
X108696Y226500D02*
X107304D01*
X106017Y225967D01*
X105033Y224983D01*
X104500Y223696D01*
Y222304D01*
X105033Y221017D01*
X106017Y220033D01*
X107304Y219500D01*
X108696D01*
X109983Y220033D01*
X110967Y221017D01*
X111500Y222304D01*
Y223696D01*
X110967Y224983D01*
X109983Y225967D01*
X108696Y226500D01*
D02*
G37*
G36*
X335187Y221500D02*
X333794D01*
X332508Y220967D01*
X331524Y219983D01*
X330991Y218696D01*
Y217304D01*
X331524Y216017D01*
X332508Y215033D01*
X333794Y214500D01*
X335187D01*
X336473Y215033D01*
X337458Y216017D01*
X337991Y217304D01*
Y218696D01*
X337458Y219983D01*
X336473Y220967D01*
X335187Y221500D01*
D02*
G37*
G36*
X293696Y219500D02*
X292304D01*
X291017Y218967D01*
X290033Y217983D01*
X289500Y216696D01*
Y215304D01*
X290033Y214017D01*
X291017Y213033D01*
X292304Y212500D01*
X293696D01*
X294983Y213033D01*
X295967Y214017D01*
X296500Y215304D01*
Y216696D01*
X295967Y217983D01*
X294983Y218967D01*
X293696Y219500D01*
D02*
G37*
G36*
X114696D02*
X113304D01*
X112017Y218967D01*
X111033Y217983D01*
X110500Y216696D01*
Y215304D01*
X111033Y214017D01*
X112017Y213033D01*
X113304Y212500D01*
X114696D01*
X115983Y213033D01*
X117033Y211983D01*
X116500Y210696D01*
Y209304D01*
X117033Y208017D01*
X118017Y207033D01*
X119304Y206500D01*
X120696D01*
X121983Y207033D01*
X122967Y208017D01*
X123500Y209304D01*
Y210696D01*
X122967Y211983D01*
X121983Y212967D01*
X120696Y213500D01*
X119304D01*
X118017Y212967D01*
X116967Y214018D01*
X117500Y215304D01*
Y216696D01*
X116967Y217983D01*
X115983Y218967D01*
X114696Y219500D01*
D02*
G37*
G36*
X279696Y212500D02*
X278304D01*
X277017Y211967D01*
X276033Y210983D01*
X275500Y209696D01*
Y208304D01*
X276033Y207017D01*
X277017Y206033D01*
X278304Y205500D01*
X279696D01*
X280983Y206033D01*
X281967Y207017D01*
X282500Y208304D01*
Y209696D01*
X281967Y210983D01*
X280983Y211967D01*
X279696Y212500D01*
D02*
G37*
G36*
X286696Y206500D02*
X285304D01*
X284017Y205967D01*
X283033Y204983D01*
X282500Y203696D01*
Y202304D01*
X283033Y201017D01*
X284017Y200033D01*
X285304Y199500D01*
X286696D01*
X287983Y200033D01*
X288967Y201017D01*
X289500Y202304D01*
Y203696D01*
X288967Y204983D01*
X287983Y205967D01*
X286696Y206500D01*
D02*
G37*
G36*
X278271Y199883D02*
X276879D01*
X275592Y199350D01*
X274608Y198366D01*
X274075Y197079D01*
Y195687D01*
X274608Y194401D01*
X275592Y193416D01*
X276879Y192883D01*
X278271D01*
X279557Y193416D01*
X280542Y194401D01*
X281075Y195687D01*
Y197079D01*
X280542Y198366D01*
X279557Y199350D01*
X278271Y199883D01*
D02*
G37*
G36*
X320696Y199500D02*
X319304D01*
X318017Y198967D01*
X317033Y197983D01*
X316500Y196696D01*
Y195304D01*
X317033Y194017D01*
X318017Y193033D01*
X319304Y192500D01*
X320696D01*
X321983Y193033D01*
X322967Y194017D01*
X323500Y195304D01*
Y196696D01*
X322967Y197983D01*
X321983Y198967D01*
X320696Y199500D01*
D02*
G37*
G36*
X304619Y194500D02*
X303226D01*
X301940Y193967D01*
X300955Y192983D01*
X300423Y191696D01*
Y190304D01*
X300955Y189017D01*
X301940Y188033D01*
X303226Y187500D01*
X304619D01*
X305905Y188033D01*
X306890Y189017D01*
X307423Y190304D01*
Y191696D01*
X306890Y192983D01*
X305905Y193967D01*
X304619Y194500D01*
D02*
G37*
G36*
X126696Y206500D02*
X125304D01*
X124017Y205967D01*
X123033Y204983D01*
X122500Y203696D01*
Y202304D01*
X123033Y201017D01*
X124017Y200033D01*
X125304Y199500D01*
X126696D01*
X127983Y200033D01*
X129033Y198983D01*
X128500Y197696D01*
Y196304D01*
X129033Y195017D01*
X130017Y194033D01*
X131304Y193500D01*
X132696D01*
X133982Y194033D01*
X135033Y192983D01*
X134500Y191696D01*
Y190304D01*
X135033Y189017D01*
X136017Y188033D01*
X137304Y187500D01*
X138696D01*
X139983Y188033D01*
X140967Y189017D01*
X141500Y190304D01*
Y191696D01*
X140967Y192983D01*
X139983Y193967D01*
X138696Y194500D01*
X137304D01*
X136018Y193967D01*
X134967Y195018D01*
X135500Y196304D01*
Y197696D01*
X134967Y198983D01*
X133983Y199967D01*
X132696Y200500D01*
X131304D01*
X130017Y199967D01*
X128967Y201017D01*
X129500Y202304D01*
Y203696D01*
X128967Y204983D01*
X127983Y205967D01*
X126696Y206500D01*
D02*
G37*
G36*
X332696Y192190D02*
X331304D01*
X330017Y191657D01*
X329033Y190673D01*
X328500Y189386D01*
Y187994D01*
X329033Y186707D01*
X330017Y185723D01*
X331304Y185190D01*
X332696D01*
X333983Y185723D01*
X334967Y186707D01*
X335500Y187994D01*
Y189386D01*
X334967Y190673D01*
X333983Y191657D01*
X332696Y192190D01*
D02*
G37*
G36*
X144696Y187500D02*
X143304D01*
X142017Y186967D01*
X141033Y185983D01*
X140500Y184696D01*
Y183304D01*
X141033Y182017D01*
X142017Y181033D01*
X143304Y180500D01*
X144696D01*
X145983Y181033D01*
X146967Y182017D01*
X147500Y183304D01*
Y184696D01*
X146967Y185983D01*
X145983Y186967D01*
X144696Y187500D01*
D02*
G37*
G36*
X348652Y180747D02*
X347260D01*
X345974Y180214D01*
X344989Y179230D01*
X344456Y177943D01*
Y176551D01*
X344989Y175264D01*
X345974Y174280D01*
X347260Y173747D01*
X348652D01*
X349939Y174280D01*
X350923Y175264D01*
X351456Y176551D01*
Y177943D01*
X350923Y179230D01*
X349939Y180214D01*
X348652Y180747D01*
D02*
G37*
G36*
X154696Y180500D02*
X153304D01*
X152017Y179967D01*
X151033Y178983D01*
X150500Y177696D01*
Y176304D01*
X151033Y175017D01*
X152017Y174033D01*
X153304Y173500D01*
X154696D01*
X155983Y174033D01*
X156967Y175017D01*
X157500Y176304D01*
Y177696D01*
X156967Y178983D01*
X155983Y179967D01*
X154696Y180500D01*
D02*
G37*
G36*
X167696Y169557D02*
X166304D01*
X165017Y169024D01*
X164033Y168040D01*
X163500Y166754D01*
Y165361D01*
X164033Y164075D01*
X165017Y163090D01*
X166304Y162557D01*
X167696D01*
X168983Y163090D01*
X169967Y164075D01*
X170500Y165361D01*
Y166754D01*
X169967Y168040D01*
X168983Y169024D01*
X167696Y169557D01*
D02*
G37*
G36*
X326696Y169500D02*
X325304D01*
X324017Y168967D01*
X323033Y167983D01*
X322500Y166696D01*
Y165304D01*
X323033Y164017D01*
X324017Y163033D01*
X325304Y162500D01*
X326696D01*
X327983Y163033D01*
X328967Y164017D01*
X329500Y165304D01*
Y166696D01*
X328967Y167983D01*
X327983Y168967D01*
X326696Y169500D01*
D02*
G37*
G36*
X340451Y158254D02*
X339058D01*
X337772Y157722D01*
X336787Y156737D01*
X336254Y155450D01*
Y154058D01*
X336787Y152772D01*
X337772Y151787D01*
X339058Y151254D01*
X340451D01*
X341737Y151787D01*
X342721Y152772D01*
X343254Y154058D01*
Y155450D01*
X342721Y156737D01*
X341737Y157722D01*
X340451Y158254D01*
D02*
G37*
G36*
X330696Y151500D02*
X329304D01*
X328017Y150967D01*
X327033Y149983D01*
X326500Y148696D01*
Y147304D01*
X327033Y146017D01*
X328017Y145033D01*
X329304Y144500D01*
X330696D01*
X331983Y145033D01*
X332967Y146017D01*
X333500Y147304D01*
Y148696D01*
X332967Y149983D01*
X331983Y150967D01*
X330696Y151500D01*
D02*
G37*
G36*
X321696Y143500D02*
X320304D01*
X319017Y142967D01*
X318033Y141983D01*
X317500Y140696D01*
Y139304D01*
X318033Y138017D01*
X319017Y137033D01*
X320304Y136500D01*
X321696D01*
X322983Y137033D01*
X323967Y138017D01*
X324500Y139304D01*
Y140696D01*
X323967Y141983D01*
X322983Y142967D01*
X321696Y143500D01*
D02*
G37*
G36*
X161696Y158254D02*
X160304D01*
X159017Y157722D01*
X158033Y156737D01*
X157500Y155450D01*
Y154058D01*
X158033Y152772D01*
X159017Y151787D01*
X159551Y151566D01*
Y149943D01*
X159017Y149721D01*
X158033Y148737D01*
X157500Y147451D01*
Y146058D01*
X158033Y144772D01*
X159017Y143787D01*
X159551Y143566D01*
Y141943D01*
X159017Y141721D01*
X158033Y140737D01*
X157500Y139451D01*
Y138058D01*
X158033Y136772D01*
X159017Y135787D01*
X160304Y135254D01*
X161696D01*
X162983Y135787D01*
X163967Y136772D01*
X164500Y138058D01*
Y139451D01*
X163967Y140737D01*
X162983Y141721D01*
X162449Y141943D01*
Y143566D01*
X162983Y143787D01*
X163967Y144772D01*
X164500Y146058D01*
Y147451D01*
X163967Y148737D01*
X162983Y149721D01*
X162449Y149943D01*
Y151566D01*
X162983Y151787D01*
X163967Y152772D01*
X164500Y154058D01*
Y155450D01*
X163967Y156737D01*
X162983Y157722D01*
X161696Y158254D01*
D02*
G37*
G36*
X365696Y166995D02*
X364304D01*
X363017Y166462D01*
X362033Y165478D01*
X361500Y164191D01*
Y162799D01*
X362033Y161513D01*
X363017Y160528D01*
X364304Y159995D01*
X365696D01*
X366421Y160295D01*
X366516Y160335D01*
X367366Y159063D01*
X367321Y159018D01*
X367033Y158730D01*
X366500Y157444D01*
Y156052D01*
X367033Y154765D01*
X368017Y153780D01*
X369304Y153248D01*
X370696D01*
X371421Y153548D01*
X371516Y153587D01*
X372366Y152316D01*
X372321Y152271D01*
X372033Y151983D01*
X371500Y150696D01*
Y149304D01*
X372033Y148017D01*
X373017Y147033D01*
X374304Y146500D01*
X375696D01*
X376421Y146800D01*
X376516Y146840D01*
X377366Y145568D01*
X377321Y145523D01*
X377033Y145235D01*
X376500Y143949D01*
Y142556D01*
X377033Y141270D01*
X378017Y140285D01*
X379304Y139752D01*
X380696D01*
X381093Y139917D01*
X381896Y138907D01*
X382007Y138672D01*
X381500Y137449D01*
Y136056D01*
X382033Y134770D01*
X383017Y133785D01*
X384304Y133252D01*
X385696D01*
X386983Y133785D01*
X387967Y134770D01*
X388500Y136056D01*
Y137449D01*
X387967Y138735D01*
X386983Y139719D01*
X385696Y140252D01*
X384304D01*
X383907Y140088D01*
X383104Y141098D01*
X382993Y141333D01*
X383500Y142556D01*
Y143949D01*
X382967Y145235D01*
X381983Y146220D01*
X380696Y146752D01*
X379304D01*
X378579Y146452D01*
X378484Y146413D01*
X377634Y147684D01*
X377679Y147729D01*
X377967Y148017D01*
X378500Y149304D01*
Y150696D01*
X377967Y151983D01*
X376983Y152967D01*
X375696Y153500D01*
X374304D01*
X373579Y153200D01*
X373484Y153160D01*
X372634Y154432D01*
X372679Y154477D01*
X372967Y154765D01*
X373500Y156052D01*
Y157444D01*
X372967Y158730D01*
X371983Y159715D01*
X370696Y160248D01*
X369304D01*
X368579Y159948D01*
X368484Y159908D01*
X367634Y161180D01*
X367679Y161225D01*
X367967Y161513D01*
X368500Y162799D01*
Y164191D01*
X367967Y165478D01*
X366983Y166462D01*
X365696Y166995D01*
D02*
G37*
G36*
X389696Y132500D02*
X388304D01*
X387017Y131967D01*
X386033Y130983D01*
X385500Y129696D01*
Y128304D01*
X386033Y127017D01*
X387017Y126033D01*
X388304Y125500D01*
X389696D01*
X390983Y126033D01*
X391967Y127017D01*
X392500Y128304D01*
Y129696D01*
X391967Y130983D01*
X390983Y131967D01*
X389696Y132500D01*
D02*
G37*
G36*
X202000Y130720D02*
Y122800D01*
X209920D01*
X209412Y124698D01*
X208082Y127002D01*
X206201Y128882D01*
X203898Y130212D01*
X202000Y130720D01*
D02*
G37*
G36*
X198000Y130720D02*
X196102Y130212D01*
X193799Y128882D01*
X191918Y127002D01*
X190588Y124698D01*
X190080Y122800D01*
X198000D01*
Y130720D01*
D02*
G37*
G36*
X389696Y123752D02*
X388304D01*
X387017Y123219D01*
X386033Y122235D01*
X385500Y120949D01*
Y119556D01*
X386033Y118270D01*
X387017Y117285D01*
X388304Y116752D01*
X389696D01*
X390983Y117285D01*
X391967Y118270D01*
X392500Y119556D01*
Y120949D01*
X391967Y122235D01*
X390983Y123219D01*
X389696Y123752D01*
D02*
G37*
G36*
X226335Y127900D02*
X224465D01*
X222659Y127416D01*
X221040Y126481D01*
X219719Y125160D01*
X218784Y123540D01*
X218300Y121735D01*
Y119865D01*
X218784Y118060D01*
X219719Y116440D01*
X221040Y115119D01*
X222659Y114184D01*
X224465Y113700D01*
X226335D01*
X228141Y114184D01*
X229760Y115119D01*
X231081Y116440D01*
X232016Y118060D01*
X232500Y119865D01*
Y121735D01*
X232016Y123540D01*
X231081Y125160D01*
X229760Y126481D01*
X228141Y127416D01*
X226335Y127900D01*
D02*
G37*
G36*
X198000Y118800D02*
X190080D01*
X190588Y116902D01*
X191918Y114599D01*
X193799Y112718D01*
X196102Y111388D01*
X198000Y110880D01*
Y118800D01*
D02*
G37*
G36*
X209920D02*
X202000D01*
Y110880D01*
X203898Y111388D01*
X206201Y112718D01*
X208082Y114599D01*
X209412Y116902D01*
X209920Y118800D01*
D02*
G37*
G36*
X148696Y133500D02*
X147304D01*
X146017Y132967D01*
X145033Y131983D01*
X144500Y130696D01*
Y129304D01*
X145033Y128017D01*
X146017Y127033D01*
X146551Y126812D01*
Y125188D01*
X146017Y124967D01*
X145033Y123983D01*
X144500Y122696D01*
Y121304D01*
X145033Y120017D01*
X146017Y119033D01*
X146551Y118812D01*
Y117188D01*
X146017Y116967D01*
X145033Y115983D01*
X144500Y114696D01*
Y113304D01*
X145033Y112017D01*
X146017Y111033D01*
X147304Y110500D01*
X148696D01*
X149983Y111033D01*
X150967Y112017D01*
X151500Y113304D01*
Y114696D01*
X150967Y115983D01*
X149983Y116967D01*
X149449Y117188D01*
Y118812D01*
X149983Y119033D01*
X150967Y120017D01*
X151500Y121304D01*
Y122696D01*
X150967Y123983D01*
X149983Y124967D01*
X149449Y125188D01*
Y126812D01*
X149983Y127033D01*
X150967Y128017D01*
X151500Y129304D01*
Y130696D01*
X150967Y131983D01*
X149983Y132967D01*
X148696Y133500D01*
D02*
G37*
G36*
X417696Y120252D02*
X416304D01*
X415017Y119719D01*
X414033Y118735D01*
X413500Y117449D01*
Y116056D01*
X414033Y114770D01*
X415017Y113785D01*
X416304Y113252D01*
X417696D01*
X418093Y113417D01*
X418896Y112407D01*
X419007Y112172D01*
X418500Y110949D01*
Y109556D01*
X419033Y108270D01*
X420017Y107285D01*
X421304Y106752D01*
X422696D01*
X423983Y107285D01*
X424967Y108270D01*
X425500Y109556D01*
Y110949D01*
X424967Y112235D01*
X423983Y113219D01*
X422696Y113752D01*
X421304D01*
X420906Y113588D01*
X420104Y114598D01*
X419993Y114833D01*
X420500Y116056D01*
Y117449D01*
X419967Y118735D01*
X418983Y119719D01*
X417696Y120252D01*
D02*
G37*
G36*
X426696Y105252D02*
X425304D01*
X424017Y104719D01*
X423033Y103735D01*
X422500Y102449D01*
Y101056D01*
X423033Y99770D01*
X424017Y98785D01*
X425304Y98252D01*
X426696D01*
X427983Y98785D01*
X428967Y99770D01*
X429500Y101056D01*
Y102449D01*
X428967Y103735D01*
X427983Y104719D01*
X426696Y105252D01*
D02*
G37*
G36*
X202000Y105320D02*
Y97400D01*
X209920D01*
X209412Y99298D01*
X208082Y101602D01*
X206201Y103482D01*
X203898Y104812D01*
X202000Y105320D01*
D02*
G37*
G36*
X198000Y105320D02*
X196102Y104812D01*
X193799Y103482D01*
X191918Y101602D01*
X190588Y99298D01*
X190080Y97400D01*
X198000D01*
Y105320D01*
D02*
G37*
G36*
X166696Y115500D02*
X165304D01*
X164017Y114967D01*
X163033Y113983D01*
X162500Y112696D01*
Y111304D01*
X163033Y110017D01*
X164017Y109033D01*
X164551Y108812D01*
Y107188D01*
X164017Y106967D01*
X163033Y105983D01*
X162500Y104696D01*
Y103304D01*
X163033Y102017D01*
X164017Y101033D01*
X164551Y100812D01*
Y99188D01*
X164017Y98967D01*
X163033Y97983D01*
X162500Y96696D01*
Y95304D01*
X163033Y94017D01*
X164017Y93033D01*
X165304Y92500D01*
X166696D01*
X167983Y93033D01*
X168967Y94017D01*
X169500Y95304D01*
Y96696D01*
X168967Y97983D01*
X167983Y98967D01*
X167449Y99188D01*
Y100812D01*
X167983Y101033D01*
X168967Y102017D01*
X169500Y103304D01*
Y104696D01*
X168967Y105983D01*
X167983Y106967D01*
X167449Y107188D01*
Y108812D01*
X167983Y109033D01*
X168967Y110017D01*
X169500Y111304D01*
Y112696D01*
X168967Y113983D01*
X167983Y114967D01*
X166696Y115500D01*
D02*
G37*
G36*
X226335Y102500D02*
X224465D01*
X222659Y102016D01*
X221040Y101081D01*
X219719Y99760D01*
X218784Y98140D01*
X218300Y96335D01*
Y94465D01*
X218784Y92660D01*
X219719Y91040D01*
X221040Y89719D01*
X222659Y88784D01*
X224465Y88300D01*
X226335D01*
X228141Y88784D01*
X229760Y89719D01*
X231081Y91040D01*
X232016Y92660D01*
X232500Y94465D01*
Y96335D01*
X232016Y98140D01*
X231081Y99760D01*
X229760Y101081D01*
X228141Y102016D01*
X226335Y102500D01*
D02*
G37*
G36*
X198000Y93400D02*
X190080D01*
X190588Y91502D01*
X191918Y89199D01*
X193799Y87318D01*
X196102Y85988D01*
X198000Y85480D01*
Y93400D01*
D02*
G37*
G36*
X209920D02*
X202000D01*
Y85480D01*
X203898Y85988D01*
X206201Y87318D01*
X208082Y89199D01*
X209412Y91502D01*
X209920Y93400D01*
D02*
G37*
G36*
X252397Y76799D02*
X251005D01*
X249719Y76266D01*
X248734Y75281D01*
X248201Y73995D01*
Y72603D01*
X248734Y71316D01*
X249719Y70332D01*
X251005Y69799D01*
X252397D01*
X253684Y70332D01*
X254668Y71316D01*
X255201Y72603D01*
Y73995D01*
X254668Y75281D01*
X253684Y76266D01*
X252397Y76799D01*
D02*
G37*
G36*
X339696Y101500D02*
X338304D01*
X337017Y100967D01*
X336033Y99983D01*
X335500Y98696D01*
Y97304D01*
X336033Y96017D01*
X337017Y95033D01*
X338304Y94500D01*
X339696D01*
X340983Y95033D01*
X342033Y93982D01*
X341500Y92696D01*
Y91304D01*
X342033Y90017D01*
X343017Y89033D01*
X344304Y88500D01*
X345696D01*
X346983Y89033D01*
X348033Y87983D01*
X347500Y86696D01*
Y85304D01*
X348033Y84017D01*
X349017Y83033D01*
X350304Y82500D01*
X351696D01*
X352983Y83033D01*
X354033Y81982D01*
X353500Y80696D01*
Y79304D01*
X354033Y78017D01*
X355017Y77033D01*
X356304Y76500D01*
X357696D01*
X358983Y77033D01*
X360008Y75957D01*
X359033Y74983D01*
X358500Y73696D01*
Y72304D01*
X359033Y71017D01*
X360017Y70033D01*
X361304Y69500D01*
X362696D01*
X363983Y70033D01*
X364967Y71017D01*
X365500Y72304D01*
Y73696D01*
X364967Y74983D01*
X363983Y75967D01*
X362696Y76500D01*
X361304D01*
X360017Y75967D01*
X358992Y77043D01*
X359967Y78017D01*
X360500Y79304D01*
Y80696D01*
X359967Y81983D01*
X358983Y82967D01*
X357696Y83500D01*
X356304D01*
X355018Y82967D01*
X353967Y84017D01*
X354500Y85304D01*
Y86696D01*
X353967Y87983D01*
X352983Y88967D01*
X351696Y89500D01*
X350304D01*
X349017Y88967D01*
X347967Y90017D01*
X348500Y91304D01*
Y92696D01*
X347967Y93983D01*
X346983Y94967D01*
X345696Y95500D01*
X344304D01*
X343018Y94967D01*
X341967Y96018D01*
X342500Y97304D01*
Y98696D01*
X341967Y99983D01*
X340983Y100967D01*
X339696Y101500D01*
D02*
G37*
G36*
X146696Y91500D02*
X145304D01*
X144017Y90967D01*
X143033Y89983D01*
X142500Y88696D01*
Y87304D01*
X143033Y86017D01*
X144017Y85033D01*
X144551Y84812D01*
Y83188D01*
X144017Y82967D01*
X143033Y81983D01*
X142500Y80696D01*
Y79304D01*
X143033Y78017D01*
X144017Y77033D01*
X144551Y76812D01*
Y75188D01*
X144017Y74967D01*
X143033Y73983D01*
X142500Y72696D01*
Y71304D01*
X143033Y70017D01*
X144017Y69033D01*
X145304Y68500D01*
X146696D01*
X147983Y69033D01*
X148967Y70017D01*
X149500Y71304D01*
Y72696D01*
X148967Y73983D01*
X147983Y74967D01*
X147449Y75188D01*
Y76812D01*
X147983Y77033D01*
X148967Y78017D01*
X149500Y79304D01*
Y80696D01*
X148967Y81983D01*
X147983Y82967D01*
X147449Y83188D01*
Y84812D01*
X147983Y85033D01*
X148967Y86017D01*
X149500Y87304D01*
Y88696D01*
X148967Y89983D01*
X147983Y90967D01*
X146696Y91500D01*
D02*
G37*
G36*
X332397Y63500D02*
X331005D01*
X329719Y62967D01*
X328734Y61983D01*
X328201Y60696D01*
Y59304D01*
X328734Y58017D01*
X329719Y57033D01*
X331005Y56500D01*
X332397D01*
X333684Y57033D01*
X334668Y58017D01*
X335201Y59304D01*
Y60696D01*
X334668Y61983D01*
X333684Y62967D01*
X332397Y63500D01*
D02*
G37*
G36*
X312397D02*
X311005D01*
X309719Y62967D01*
X308734Y61983D01*
X308201Y60696D01*
Y59304D01*
X308734Y58017D01*
X309719Y57033D01*
X311005Y56500D01*
X312397D01*
X313684Y57033D01*
X314668Y58017D01*
X315201Y59304D01*
Y60696D01*
X314668Y61983D01*
X313684Y62967D01*
X312397Y63500D01*
D02*
G37*
G36*
X292397D02*
X291005D01*
X289719Y62967D01*
X288734Y61983D01*
X288201Y60696D01*
Y59304D01*
X288734Y58017D01*
X289719Y57033D01*
X291005Y56500D01*
X292397D01*
X293684Y57033D01*
X294668Y58017D01*
X295201Y59304D01*
Y60696D01*
X294668Y61983D01*
X293684Y62967D01*
X292397Y63500D01*
D02*
G37*
G36*
X272397D02*
X271005D01*
X269719Y62967D01*
X268734Y61983D01*
X268201Y60696D01*
Y59304D01*
X268734Y58017D01*
X269719Y57033D01*
X271005Y56500D01*
X272397D01*
X273684Y57033D01*
X274668Y58017D01*
X275201Y59304D01*
Y60696D01*
X274668Y61983D01*
X273684Y62967D01*
X272397Y63500D01*
D02*
G37*
G36*
X332397Y53500D02*
X331005D01*
X329719Y52967D01*
X328734Y51983D01*
X328201Y50696D01*
Y49304D01*
X328734Y48017D01*
X329719Y47033D01*
X331005Y46500D01*
X332397D01*
X333684Y47033D01*
X334668Y48017D01*
X335201Y49304D01*
Y50696D01*
X334668Y51983D01*
X333684Y52967D01*
X332397Y53500D01*
D02*
G37*
G36*
X312397D02*
X311005D01*
X309719Y52967D01*
X308734Y51983D01*
X308201Y50696D01*
Y49304D01*
X308734Y48017D01*
X309719Y47033D01*
X311005Y46500D01*
X312397D01*
X313684Y47033D01*
X314668Y48017D01*
X315201Y49304D01*
Y50696D01*
X314668Y51983D01*
X313684Y52967D01*
X312397Y53500D01*
D02*
G37*
G36*
X292397D02*
X291005D01*
X289719Y52967D01*
X288734Y51983D01*
X288201Y50696D01*
Y49304D01*
X288734Y48017D01*
X289719Y47033D01*
X291005Y46500D01*
X292397D01*
X293684Y47033D01*
X294668Y48017D01*
X295201Y49304D01*
Y50696D01*
X294668Y51983D01*
X293684Y52967D01*
X292397Y53500D01*
D02*
G37*
G36*
X272397D02*
X271005D01*
X269719Y52967D01*
X268734Y51983D01*
X268201Y50696D01*
Y49304D01*
X268734Y48017D01*
X269719Y47033D01*
X271005Y46500D01*
X272397D01*
X273684Y47033D01*
X274668Y48017D01*
X275201Y49304D01*
Y50696D01*
X274668Y51983D01*
X273684Y52967D01*
X272397Y53500D01*
D02*
G37*
G36*
X148402Y60994D02*
Y43000D01*
X166396D01*
X165634Y46834D01*
X164126Y50473D01*
X161937Y53749D01*
X159152Y56535D01*
X155876Y58724D01*
X152236Y60231D01*
X148402Y60994D01*
D02*
G37*
G36*
X389000D02*
Y43000D01*
X406994D01*
X406231Y46834D01*
X404724Y50473D01*
X402535Y53749D01*
X399749Y56535D01*
X396474Y58724D01*
X392834Y60231D01*
X389000Y60994D01*
D02*
G37*
G36*
X385000D02*
X381166Y60231D01*
X377526Y58724D01*
X374251Y56535D01*
X371465Y53749D01*
X369276Y50473D01*
X367769Y46834D01*
X367006Y43000D01*
X385000D01*
Y60994D01*
D02*
G37*
G36*
X144402Y60994D02*
X140569Y60231D01*
X136929Y58724D01*
X133653Y56535D01*
X130867Y53749D01*
X128679Y50473D01*
X127171Y46834D01*
X126408Y43000D01*
X144402D01*
Y60994D01*
D02*
G37*
G36*
X332397Y43500D02*
X331005D01*
X329719Y42967D01*
X328734Y41983D01*
X328201Y40696D01*
Y39304D01*
X328734Y38017D01*
X329719Y37033D01*
X331005Y36500D01*
X332397D01*
X333684Y37033D01*
X334668Y38017D01*
X335201Y39304D01*
Y40696D01*
X334668Y41983D01*
X333684Y42967D01*
X332397Y43500D01*
D02*
G37*
G36*
X312397D02*
X311005D01*
X309719Y42967D01*
X308734Y41983D01*
X308201Y40696D01*
Y39304D01*
X308734Y38017D01*
X309719Y37033D01*
X311005Y36500D01*
X312397D01*
X313684Y37033D01*
X314668Y38017D01*
X315201Y39304D01*
Y40696D01*
X314668Y41983D01*
X313684Y42967D01*
X312397Y43500D01*
D02*
G37*
G36*
X292397D02*
X291005D01*
X289719Y42967D01*
X288734Y41983D01*
X288201Y40696D01*
Y39304D01*
X288734Y38017D01*
X289719Y37033D01*
X291005Y36500D01*
X292397D01*
X293684Y37033D01*
X294668Y38017D01*
X295201Y39304D01*
Y40696D01*
X294668Y41983D01*
X293684Y42967D01*
X292397Y43500D01*
D02*
G37*
G36*
X272397D02*
X271005D01*
X269719Y42967D01*
X268734Y41983D01*
X268201Y40696D01*
Y39304D01*
X268734Y38017D01*
X269719Y37033D01*
X271005Y36500D01*
X272397D01*
X273684Y37033D01*
X274668Y38017D01*
X275201Y39304D01*
Y40696D01*
X274668Y41983D01*
X273684Y42967D01*
X272397Y43500D01*
D02*
G37*
G36*
X144402Y39000D02*
X126408D01*
X127171Y35166D01*
X128679Y31527D01*
X130867Y28251D01*
X133653Y25465D01*
X136929Y23276D01*
X140569Y21769D01*
X144402Y21006D01*
Y39000D01*
D02*
G37*
G36*
X406994D02*
X389000D01*
Y21006D01*
X392834Y21769D01*
X396474Y23276D01*
X399749Y25465D01*
X402535Y28251D01*
X404724Y31527D01*
X406231Y35166D01*
X406994Y39000D01*
D02*
G37*
G36*
X385000D02*
X367006D01*
X367769Y35166D01*
X369276Y31527D01*
X371465Y28251D01*
X374251Y25465D01*
X377526Y23276D01*
X381166Y21769D01*
X385000Y21006D01*
Y39000D01*
D02*
G37*
G36*
X166396D02*
X148402D01*
Y21006D01*
X152236Y21769D01*
X155876Y23276D01*
X159152Y25465D01*
X161937Y28251D01*
X164126Y31527D01*
X165634Y35166D01*
X166396Y39000D01*
D02*
G37*
%LPD*%
D22*
X146402Y41000D02*
D03*
X387000D02*
D03*
D23*
X195400Y484600D02*
D03*
Y535400D02*
D03*
X144600D02*
D03*
Y484600D02*
D03*
X345400D02*
D03*
Y535400D02*
D03*
X294600D02*
D03*
Y484600D02*
D03*
D24*
X421050Y480100D02*
D03*
X471850D02*
D03*
Y530900D02*
D03*
X421050D02*
D03*
D25*
X71400Y470000D02*
D03*
X446200Y272700D02*
D03*
X420800D02*
D03*
X395400D02*
D03*
X370000D02*
D03*
X344600D02*
D03*
X319200D02*
D03*
X293800D02*
D03*
X268400D02*
D03*
X200000Y120800D02*
D03*
Y95400D02*
D03*
D27*
Y254600D02*
D03*
X160000D02*
D03*
D28*
X471600Y272700D02*
D03*
D29*
X71400Y530000D02*
D03*
D30*
X77000Y302000D02*
D03*
Y282000D02*
D03*
X143000Y158000D02*
D03*
X118814Y136754D02*
D03*
Y112413D02*
D03*
X119094Y91754D02*
D03*
X117000Y72000D02*
D03*
X416000Y131000D02*
D03*
X391174Y101752D02*
D03*
X392000Y68500D02*
D03*
X492801Y568501D02*
D03*
Y528501D02*
D03*
Y488501D02*
D03*
Y448501D02*
D03*
Y408501D02*
D03*
Y368501D02*
D03*
Y328501D02*
D03*
Y288500D02*
D03*
X472801Y568501D02*
D03*
X482801Y548501D02*
D03*
Y508501D02*
D03*
X472801Y448501D02*
D03*
X482801Y428501D02*
D03*
Y348501D02*
D03*
Y308501D02*
D03*
X472801Y288500D02*
D03*
X452801Y568501D02*
D03*
X462801Y548501D02*
D03*
X452801Y528501D02*
D03*
X462801Y508501D02*
D03*
X452801Y448501D02*
D03*
X462801Y428501D02*
D03*
Y348501D02*
D03*
X452801Y328501D02*
D03*
X462801Y308501D02*
D03*
Y228500D02*
D03*
X452801Y208500D02*
D03*
X432801Y568501D02*
D03*
X442801Y548501D02*
D03*
Y428501D02*
D03*
X432801Y408501D02*
D03*
Y328501D02*
D03*
X442801Y188500D02*
D03*
X412801Y568501D02*
D03*
X422801Y548501D02*
D03*
Y508501D02*
D03*
Y428501D02*
D03*
X412801Y328501D02*
D03*
X422801Y308501D02*
D03*
X412801Y48500D02*
D03*
X392801Y568501D02*
D03*
X402801Y548501D02*
D03*
X392801Y528501D02*
D03*
X402801Y508501D02*
D03*
X392801Y488501D02*
D03*
X402801Y468501D02*
D03*
Y428501D02*
D03*
Y388501D02*
D03*
X392801Y288500D02*
D03*
X372801Y568501D02*
D03*
X382801Y548501D02*
D03*
Y508501D02*
D03*
Y468501D02*
D03*
Y428501D02*
D03*
X372801Y288500D02*
D03*
X382801Y268500D02*
D03*
X372801Y128500D02*
D03*
X382801Y108500D02*
D03*
Y68500D02*
D03*
X352801Y568501D02*
D03*
X362801Y428501D02*
D03*
X352801Y48500D02*
D03*
X332801Y568501D02*
D03*
X342801Y428501D02*
D03*
X332801Y408501D02*
D03*
X342801Y348501D02*
D03*
X332801Y128500D02*
D03*
X342801Y68500D02*
D03*
Y28500D02*
D03*
X332801Y8500D02*
D03*
X312801Y568501D02*
D03*
X322801Y428501D02*
D03*
Y308501D02*
D03*
Y28500D02*
D03*
X312801Y8500D02*
D03*
X292801Y568501D02*
D03*
X302801Y428501D02*
D03*
X292801Y328501D02*
D03*
Y288500D02*
D03*
X302801Y28500D02*
D03*
X292801Y8500D02*
D03*
X272801Y568501D02*
D03*
X282801Y428501D02*
D03*
Y388501D02*
D03*
X272801Y288500D02*
D03*
X282801Y28500D02*
D03*
X272801Y8500D02*
D03*
X252801Y568501D02*
D03*
X262801Y428501D02*
D03*
Y28500D02*
D03*
X252801Y8500D02*
D03*
X232801Y568501D02*
D03*
X242801Y548501D02*
D03*
Y68500D02*
D03*
Y28500D02*
D03*
X232801Y8500D02*
D03*
X212801Y568501D02*
D03*
X222801Y68500D02*
D03*
Y28500D02*
D03*
X212801Y8500D02*
D03*
X192801Y568501D02*
D03*
X202801Y68500D02*
D03*
X192801Y48500D02*
D03*
X202801Y28500D02*
D03*
X192801Y8500D02*
D03*
X172801Y568501D02*
D03*
Y128500D02*
D03*
Y88500D02*
D03*
Y48500D02*
D03*
X152801Y568501D02*
D03*
X162801Y68500D02*
D03*
X152801Y8500D02*
D03*
X132801Y568501D02*
D03*
Y448501D02*
D03*
Y288500D02*
D03*
X142801Y268500D02*
D03*
X112801Y568501D02*
D03*
Y528501D02*
D03*
Y488501D02*
D03*
X122801Y468501D02*
D03*
Y348501D02*
D03*
X112801Y248500D02*
D03*
Y88500D02*
D03*
Y48500D02*
D03*
X92801Y568501D02*
D03*
X102801Y548501D02*
D03*
X92801Y528501D02*
D03*
X102801Y508501D02*
D03*
X92801Y488501D02*
D03*
X102801Y468501D02*
D03*
Y348501D02*
D03*
Y268500D02*
D03*
X92801Y208500D02*
D03*
X72800Y568501D02*
D03*
X82801Y548501D02*
D03*
Y508501D02*
D03*
X72800Y488501D02*
D03*
Y368501D02*
D03*
X82801Y228500D02*
D03*
X72800Y208500D02*
D03*
X52800Y568501D02*
D03*
X62800Y548501D02*
D03*
Y508501D02*
D03*
X52800Y448501D02*
D03*
Y408501D02*
D03*
X62800Y388501D02*
D03*
Y228500D02*
D03*
X32801Y568501D02*
D03*
X42800Y548501D02*
D03*
X32801Y488501D02*
D03*
Y448501D02*
D03*
Y408501D02*
D03*
X42800Y348501D02*
D03*
X32801Y328501D02*
D03*
X42800Y308501D02*
D03*
Y268500D02*
D03*
X488626Y459974D02*
D03*
Y419974D02*
D03*
X478626Y359974D02*
D03*
X488626Y339974D02*
D03*
X458626Y519974D02*
D03*
X468626Y419974D02*
D03*
Y219974D02*
D03*
X438626Y479974D02*
D03*
Y439974D02*
D03*
X448626Y419974D02*
D03*
Y299974D02*
D03*
X428626Y419974D02*
D03*
X418626Y79974D02*
D03*
X408626Y419974D02*
D03*
X378626Y519974D02*
D03*
Y479974D02*
D03*
X388626Y419974D02*
D03*
X368626D02*
D03*
X358626Y-26D02*
D03*
X348626Y419974D02*
D03*
Y339974D02*
D03*
Y259974D02*
D03*
X338626Y119974D02*
D03*
X328626Y419974D02*
D03*
X318626Y319974D02*
D03*
X308626Y419974D02*
D03*
X288626D02*
D03*
X268626D02*
D03*
Y259974D02*
D03*
X178626Y-26D02*
D03*
X158626Y399974D02*
D03*
Y79974D02*
D03*
X148626Y459974D02*
D03*
X118626Y359974D02*
D03*
X108626Y99974D02*
D03*
X78626Y319974D02*
D03*
Y239974D02*
D03*
X58626Y479974D02*
D03*
Y359974D02*
D03*
X321701Y60000D02*
D03*
Y50000D02*
D03*
Y40000D02*
D03*
X301701Y60000D02*
D03*
Y50000D02*
D03*
Y40000D02*
D03*
X281701Y60000D02*
D03*
Y50000D02*
D03*
Y40000D02*
D03*
X261701Y60000D02*
D03*
Y50000D02*
D03*
Y40000D02*
D03*
X241701Y60000D02*
D03*
Y50000D02*
D03*
Y40000D02*
D03*
X221701Y60000D02*
D03*
Y50000D02*
D03*
Y40000D02*
D03*
X229200Y370300D02*
D03*
Y362650D02*
D03*
Y355000D02*
D03*
X213900Y370300D02*
D03*
Y362650D02*
D03*
Y355000D02*
D03*
X198600Y370300D02*
D03*
Y362650D02*
D03*
Y355000D02*
D03*
X183300Y370300D02*
D03*
Y362650D02*
D03*
Y355000D02*
D03*
X168000Y370300D02*
D03*
Y362650D02*
D03*
Y355000D02*
D03*
D35*
X261701Y40000D02*
Y50000D01*
Y60000D01*
Y68299D01*
X281701Y40000D02*
Y50000D01*
Y60000D01*
Y70000D01*
X301701Y40000D02*
Y50000D01*
Y60000D01*
Y73299D01*
X321701Y40000D02*
Y50000D01*
Y60000D01*
Y70000D01*
X301701Y30000D02*
Y40000D01*
X281701Y30000D02*
Y40000D01*
X261701Y35000D02*
Y40000D01*
X321701Y30000D02*
Y40000D01*
X221701Y50000D02*
Y60000D01*
Y40000D02*
Y50000D01*
X241701D02*
Y60000D01*
Y40000D02*
Y50000D01*
M02*
