G04*
G04 #@! TF.GenerationSoftware,Altium Limited,Altium Designer,25.0.2 (28)*
G04*
G04 Layer_Color=255*
%FSLAX44Y44*%
%MOMM*%
G71*
G04*
G04 #@! TF.SameCoordinates,9294F1C2-9D63-464E-A418-A043A43F256C*
G04*
G04*
G04 #@! TF.FilePolarity,Positive*
G04*
G01*
G75*
%ADD22C,3.5000*%
%ADD23C,2.6000*%
%ADD24C,2.3000*%
%ADD25C,1.5200*%
%ADD26R,1.5200X1.5200*%
%ADD27C,2.0000*%
%ADD28R,1.5200X1.5200*%
%ADD29O,1.7500X2.5000*%
D22*
X146402Y41000D02*
D03*
X387000D02*
D03*
D23*
X195400Y484600D02*
D03*
Y535400D02*
D03*
X144600D02*
D03*
Y484600D02*
D03*
X345400D02*
D03*
Y535400D02*
D03*
X294600D02*
D03*
Y484600D02*
D03*
D24*
X44600Y430400D02*
D03*
X95400D02*
D03*
Y379600D02*
D03*
X44600D02*
D03*
X70000Y405000D02*
D03*
X446450Y505500D02*
D03*
X421050Y480100D02*
D03*
X471850D02*
D03*
Y530900D02*
D03*
X421050D02*
D03*
D25*
X71400Y470000D02*
D03*
X471600Y247300D02*
D03*
X446200Y272700D02*
D03*
X420800D02*
D03*
X395400D02*
D03*
X370000D02*
D03*
X344600D02*
D03*
X319200D02*
D03*
X293800D02*
D03*
X446200Y247300D02*
D03*
X420800D02*
D03*
X395400D02*
D03*
X370000D02*
D03*
X344600D02*
D03*
X319200D02*
D03*
X293800D02*
D03*
X268400Y272700D02*
D03*
Y247300D02*
D03*
X471800Y374600D02*
D03*
X446400Y400000D02*
D03*
X421000D02*
D03*
X395600D02*
D03*
X370200D02*
D03*
X344800D02*
D03*
X319400D02*
D03*
X294000D02*
D03*
X446400Y374600D02*
D03*
X421000D02*
D03*
X395600D02*
D03*
X370200D02*
D03*
X344800D02*
D03*
X319400D02*
D03*
X294000D02*
D03*
X268600Y400000D02*
D03*
Y374600D02*
D03*
X113870Y295500D02*
D03*
X200000Y120800D02*
D03*
Y95400D02*
D03*
X124000Y404700D02*
D03*
D26*
X46000Y470000D02*
D03*
X225400Y120800D02*
D03*
Y95400D02*
D03*
D27*
X200000Y280000D02*
D03*
Y305400D02*
D03*
Y254600D02*
D03*
X160000Y280000D02*
D03*
Y305400D02*
D03*
Y254600D02*
D03*
D28*
X471600Y272700D02*
D03*
X471800Y400000D02*
D03*
X113870Y320900D02*
D03*
X124000Y379300D02*
D03*
D29*
X71400Y530000D02*
D03*
X46000D02*
D03*
M02*
