M48
;Layer_Color=9474304
;FILE_FORMAT=4:4
METRIC,LZ
;TYPE=PLATED
T01F00S00C0.3000
T02F00S00C1.0200
T03F00S00C1.1000
T04F00S00C1.1000
T05F00S00C1.5000
T06F00S00C1.6000
T07F00S00C3.3000
%
T01
X002728Y000135
X002878
X002875Y000275
X002975
X003075
X003175
X003275
X003375
X00347246Y00026652
X00355746
X00364246
X00372746
X00381246
X00389746
X00398246
X00406746
X00415246
X00423746
X00432246
X00440746
X00449246
X00457746
X00466246
X00474746
X00483246Y00026701
X00488098Y0003368
Y0004218
Y0005068
Y0005918
Y0006768
Y0007618
Y0008468
Y0009318
Y0010168
X00505299Y000885
X00520299
X00535299
X00550299
X00542799Y000735
X00527799
X00512799
X00497799
X00505299Y000585
X00497799Y000435
Y000135
X00482799
X00467799
X004528
X004378
X004228
X004078
X003928
X003778
X003628
X003328
X003178
X003028
X002775Y000275
X002675
X00266Y00054
Y00066713
Y00079427
Y0009214
X002878Y000735
X00300878Y00069838
X00306888Y00075848
X00312899Y00081858
X003103Y000885
X00318909Y00087869
X0032492Y00093879
X0033093Y0009989
X00297868Y00080858
X00294868Y00063827
X00288857Y00057817
X00550299Y000585
X0025604Y00058255
X00256701Y00049781
X00244Y00049
X00230521Y00050079
X00221099Y000585
X00219806Y00071379
X00213796Y0007739
X00207785Y000834
X00201775Y0008941
X00195765Y00095421
X00189754Y00101431
X00215464Y0009735
X00221474Y0009134
X00227485Y0008533
X00233495Y00079319
X00239506Y00073309
X00255863Y00075188
X00255201Y00066713
X00256659Y0008365
X00250907Y00089908
X00244896Y00095918
X00238886Y00101929
X002425Y00023
X00243599Y000135
X00256Y0002
X00250874Y00027025
X00215Y0003525
X00183599Y000435
X00168599
X00153599
X00161099Y000585
X00146099
X00138599Y000735
X00153599
X00161099Y000885
X00131099
X00116099
X00101099
X00086099
X00071099
X00063599Y000735
X00078599
X00093599
X00108599
X00123599
X00086099Y000585
X00071099
X00078599Y000435
Y000135
X00093599
X00108599
X00123599
X00138599
X00153599
X00168599
X00183599
X00191099Y000585
X00183599Y000735
X00018599
Y001035
X00026099Y001185
X00056099
X00071099
X00086099
X00078599Y001335
X00093599
X00108599
X00123599
X00138599
X00153599
X00146099Y001485
X00131099
X00116099
X00123599Y001635
X00116099Y001785
X00086099
Y002085
X00071099
X00056099
X00041099
X00026099
X00018599Y002235
X00033599
X00048599
X00056099Y002385
X00071099
X00086099
X00078599Y002535
X00086099Y002685
X00085568Y00282353
X00094068
X00102568
X00111067
X00118413Y00278075
X00125824Y00273914
X00134324Y00273961
X00141694Y00278197
X00149108Y00282353
X00157608
X00165347Y00278838
X00171358Y00272828
X00177368Y00266817
X00183353Y00260782
Y00252282
Y00243782
Y00235282
Y00226782
Y00218282
Y00209782
Y00201282
Y00192782
Y00184282
Y00175782
Y00167282
Y00158782
Y00150282
Y00141782
Y00133282
Y00124782
Y00116282
X00184147Y00107819
X00203443Y00109371
X00198647Y00116389
Y00124888
Y00133389
Y00141889
Y00150388
Y00158889
Y00167388
Y00175888
Y00184388
Y00192888
Y00201388
Y00209888
Y00218388
Y00226888
Y00235388
Y00243888
Y00252388
Y00260888
X00196589Y00269135
X00190624Y00275191
X00184613Y00281201
X00178603Y00287211
X00172593Y00293222
X00165299Y00297587
X00156799Y00297647
X00148299
X00141203Y00302325
X00133667Y00306258
X00123434Y00305246
X00116749Y00299996
X0010858Y00297647
X0010008
X0009158
X0008308
X00076244Y00302698
X00067744
X00059321Y00301556
X00041099Y002985
X00026099
X00018599Y003135
X00033599
X00048599
X00041099Y003285
X00026099
X00018599Y003435
X00033599
X00048599
X00063599
X00078599
X00093599
X00108599
X00123599
X00138599
X00153599
X00168599
X00183599
X00186858Y00352328
X00180847Y00358338
X00174837Y00364349
X00195168Y00365646
X00198599Y003735
X00189158Y00371656
X00183148Y00377667
X00177137Y00383677
X00171127Y00389687
X00165059Y0039564
X00156799Y00397647
X00148299
X00141203Y00402325
X00133667Y00406258
X00125694Y00406043
X00118318Y00401817
X0011793Y0037854
X00125156Y00374064
X0013365Y00373739
X00141189Y00377664
X00148279Y00382353
X00156779
X00168599Y004035
X00183599
X00198599
X00213599
X00221099Y004185
X00206099
X00191099
X00176099
X00168599Y004335
X00183599
X00198599
X00213599
X00221099Y004485
X00213599Y004635
X00198599
X00183599
X00168599
X00153599
X00138599
X00123599
X00108599
X00093599
X00078599
X00086099Y004785
X00071099
X00101099
X00116099
X00131099
X00146099
X00161099
X00176099
X00191099
X00206099
X00221099
X002503
X002578Y004635
X00243Y00456
Y00436
X002578Y004335
Y004035
X00243Y00396
Y00416
Y00376
X002578Y003735
X00243Y00356
Y00336
Y00316
Y00296
Y00276
Y00256
Y00236
Y00216
Y00196
Y00176
Y00156
X00223647Y00155817
Y00147317
Y00138817
Y00130317
Y00121817
X00226865Y00113949
X00232875Y00107939
X00243Y00116
X00257367Y00119733
X002578Y001335
X00243Y00136
X00208353Y00139535
Y00148035
Y00156535
Y00165035
Y00173535
Y00182035
Y00190535
Y00199035
Y00207535
Y00216035
Y00224535
Y00233035
Y00241535
Y00250035
Y00258535
Y00267035
Y00275535
Y00284035
Y00292535
Y00301035
Y00309535
Y00318035
Y00326535
X00204889Y00334297
X00198878Y00340307
X00192868Y00346317
X00191099Y003285
X00176099
X00183599Y003135
X00198599
X00191099Y002985
X00198599Y002835
X00223647Y00283316
Y00274816
Y00266316
Y00257816
Y00249316
Y00240816
Y00232316
Y00223817
Y00215317
Y00206817
Y00198316
Y00189816
Y00181317
Y00172817
Y00164317
X00208353Y00131035
Y00122535
X00209454Y00103361
X002578Y001035
X00168599Y001935
X00161099Y002385
X00146099
X00131099
X00123599Y002535
X00138599
X00168599
X00138599Y002235
X00123599
X00131099Y002085
X00086099Y001485
X00071099
X00056099
X00041099
X00026099
Y001785
X00041099
X00056099
X00048599Y001335
X00063599
X00078599Y001035
X00041099Y002385
X00026099
X00018599Y002535
X00033599
X00048599
X00056099Y002685
X00061594Y00277462
X00070092Y00277302
X0007859Y00277499
X00048599Y002835
X00033599
X00018599
X00026099Y003585
X00041099
X00056099
X00048599Y003735
X00033599
X00018599
Y004035
X00033599
X00048599
X00063599
X00078599
Y004335
X00063599
X00071099Y004485
X00086099
X00131099
X00146099
X00161099
X00153599Y004335
X00138599
X00123599
X00131099Y004185
Y003585
Y003285
X00116099
X00078599Y003135
X00086099Y003585
X00056099Y003885
Y004185
X00191099Y003885
X00206099
X00221099
X00213599Y003735
X00221099Y003585
X0021921Y00341604
X00223584Y00334316
X00223647Y00325816
Y00317316
Y00308816
Y00300316
Y00291816
X002578Y002835
X002132Y00347615
X00207189Y00353625
X00201179Y00359635
X002653Y003585
X002803
X00296Y00363
Y00378
X00312402Y0037442
Y0038292
X00318727Y00388598
X00327227
X00335155Y00385532
X00335598Y00377044
X0034171Y00371137
X0035021
X0035871
X00366447Y00374657
X00372458Y00380667
X00378468Y00386678
X00384478Y00392688
X00390489Y00398698
X003778Y004035
X003628
X003478
X003328
X003178
X003253Y004185
X003403
X003553
X003703
X003853
X003778Y004335
X003628
X003478
X003328
X003178
X003028
X002878
X002728
X002803Y004185
X002953
X003103
Y004485
X003253
X003403
X003553
X003703
X003853
X004003
X004153
X00430299
X00445299
X00460299
X00475299
X00467799Y004335
X00482799
X00497799
X00512799
X00520299Y004185
X00535299
X00550299
X00542799Y004335
Y004035
X00550299Y003885
X00535299
X00542799Y003735
X00550299Y003585
X00535299
X0053516Y00344867
X00526663Y00345098
X00518163
X00509663
X00501163
X00492663
X00484163
X00475663
X00467163
X00458663
X00455098Y00352814
X00475299Y003585
X00490299
X00505299
X00520299
X00539098Y00337335
Y00328834
Y00320335
Y00311835
Y00303335
Y00294835
Y00286335
Y00277835
X00538841Y00269338
X00539098Y00260842
X00550299Y002685
Y002985
Y003285
Y002385
X00535299
Y002085
X00550299
X00542799Y001935
X00527799
X00512799
X00497799
X00488098Y0019518
Y0018668
Y0017818
Y0016968
Y0016118
Y0015268
Y0014418
Y0013568
Y0012718
Y0011868
Y0011018
X00497799Y001035
X00512799
X00527799
X00542799
X00550299Y001185
X00535299
X00520299
X00505299
X00497799Y001335
X00512799
X00527799
X00542799
X00550299Y001485
X00535299
X00520299
X00505299
X00497799Y001635
X00512799
X00527799
X00542799
X00550299Y001785
X00535299
X00520299
X00505299
Y002085
X00520299
X00488098Y0021218
Y00220679
Y0020368
Y0023768
Y00246179
X00491649Y00253902
X00500149
X00505299Y003885
X00490299
X00475299
X00455098Y00386814
Y00395314
X00451951Y0042871
X00437744Y00429098
X00429244
X00420763Y00428519
X0041453Y0042274
X0040852Y0041673
X00415299Y004785
X00430299
X00445299
X00460299
X00475299
X004903
X00482799Y004635
X00490299Y004185
X00505299
X00400299Y004785
X00385299
X00370299
X00355299
X00340299
X003253
X003103
X002953
X002803
X002653
X002728Y004635
X002878
X003028
X002953Y004485
X002878Y004035
X002728
X002803Y003885
X002653
X002728Y003735
Y003435
X002878
X00302Y00348
X00307Y00339
X00317Y00331
X00309Y0032
Y0031
X003103Y002985
X00296Y00298
Y00283
X003103Y00282
X00337Y00281
Y00292
Y00301
X00334902Y00311333
Y00319833
Y00328333
Y00336833
X00336888Y00345098
X00336643Y00356863
X00342899Y00351108
X00312Y00357
X00311034Y00366031
X003553Y003885
X002653Y004185
X00287Y00322
X00286095Y00313941
X002878Y002535
X003028
X002953Y002385
X00334902Y00234834
Y00243333
Y00251833
Y00260333
Y00268833
X003253Y002685
X00334902Y00226334
Y00217833
Y00209334
Y00200834
Y00192334
Y00183834
Y00175334
Y00166834
Y00158334
Y00149834
Y00141334
Y00132834
Y00124334
Y00115834
Y00107334
X003253Y001185
X003103
X003028Y001335
X003178
X003253Y001485
X003103
X003178Y001635
X002728
X002878Y001335
X00287278Y00108548
X003028Y001035
X003178
X003253Y002085
X003103
X002653
Y002685
T02
X00129Y000273
Y000527
X0007Y001646
Y0019
Y002646
Y0029
X0007Y003646
Y0039
X0027Y0032
Y002946
X00266468Y00151868
X00291868
X0046Y002473
Y002727
X004627Y0037
X004373
Y0041
X004627
T03
X001046Y0011
X0013
X001554
T04
X0004Y000803
Y001057
X0052Y002473
Y002727
X0052Y003773
Y004027
T05
X0013Y0019
Y0029
Y0039
X00291868Y00211868
T06
X001046Y001646
Y002154
Y002646
X001554
Y002154
Y001646
Y003154
Y003646
X001046
Y003154
Y004154
X001554
X00266468Y00237268
Y00186468
X00317268
Y00237268
T07
X0053Y0003
X0003
Y0046
X0053
M30
