M48
;Layer_Color=9474304
;FILE_FORMAT=4:4
METRIC,LZ
;TYPE=PLATED
T01F00S00C0.1500
T02F00S00C0.2000
%
T01
X000136Y0008675
X00023512Y00144458
Y00147458
X00023634Y0015043
Y0015343
Y0015643
Y0015943
X00020634Y0015968
X00017032Y00159886
X00028954Y0015668
X00032636Y00163801
X000436Y001633
Y001663
Y001693
Y001723
X000451Y001748
X000421
X000436Y001773
X000466
X000506
X000536
X000566
X000551Y001748
X000521
X000536Y001723
Y001693
Y001663
Y001633
Y001598
X0004335Y0016005
X000406Y001773
X000416Y001923
X000386
X000401Y001948
X000431
X000461
X000491
X000521
X000506Y001923
X000476
X000446
X000446Y001973
X000416
X000386
X000356
X000371Y001948
X000476Y001973
X000506
X000536
X0006075Y0018975
Y0018675
Y0018375
Y0018075
X0006325Y0018225
Y0018525
Y0018825
Y0019125
X0006575Y0018975
Y0018675
Y0018375
Y0018075
X0006825Y0018225
Y0018525
Y0018825
Y0019125
Y0019425
X0007075Y0019575
Y0019275
Y0018975
Y0018675
Y0018375
X0007375Y001775
X0007625Y00179
Y00176
X0007875Y001775
Y001805
X0008125Y00179
Y00176
X00088
Y00179
X000905Y001805
Y001775
X00093Y00176
Y00179
Y00182
X000965Y00181
X00099Y00179
Y00176
X001015Y001775
Y001805
X0010075Y001835
X001015Y001865
X0010075Y001895
X0009825Y0019425
Y0019725
X0009575Y0019575
Y0019275
X0009325Y0019425
Y0019725
X0009075Y0019575
Y0019275
X0009325Y0019125
X0008825
Y0019425
Y0019725
X0008575Y0019575
Y0019275
X0008325Y0019125
Y0019425
Y0019725
X0008075Y0019575
Y0019275
X0007825Y0019425
Y0019725
X0007575Y0019575
Y0019275
X0007325Y0019125
Y0019425
Y0019725
X000855Y00181
X00087Y0016375
X000835Y0016375
X0008175Y0016125
X0008525Y0016125
X0008875Y0016125
X0009225Y0016125
X000905Y0016375
X00105Y0016375
X001085Y0016375
X00112Y0016375
X001135Y0016125
X0011025Y0016125
X0010675Y0016125
X0010325Y0016125
X001005Y0015025
X000975
Y0014625
X001005
X001035
X001065
Y0013825
X001035
X001005
X000975
Y0013425
X001005
X001035
X001065
Y0012625
X001035
X001005
X000975
X000715
X000685
X000655
X000625
Y0013425
X000655
X000685
X000715
Y0013825
X000685
X000655
X000625
Y0014625
X000655
X000685
X000715
Y0015025
X000685
X0006725Y0016125
X0006375Y0016125
X000655Y0016375
X00069Y0016375
X0007075Y0016125
X00104Y00176
Y00179
X0010925Y001755
X001125
X001155
T02
X00074386Y00037741
X00080386Y00043741
X00086386Y00049741
Y00037741
X00092386Y00043741
X00098386Y00049741
X00099Y00038
X00105Y00044
X00111Y0005
X00105Y00056
X00099Y00062
X00087
X00081Y00068
Y0008
X00093
X00099Y00086
X00111
X00105Y0008
Y00068
X00117
X00116741Y00056614
X00117614Y0004426
X00111614Y0003826
X00111Y00074
X00099
X00087Y00086
X00075
X00080386Y00091741
X00078Y00112
X00084
X0009
X00102
X00108
Y00105
X00114
Y00099
X00108
X00102
Y00105
X00105Y00092
X00117
X0012Y00112
X00066
X0006
X00048
X0006Y00099
X00063Y00086
X00068386Y00079741
X0005726Y00079386
X00075Y00074
X00078Y00118
X00084
X0009
X00102
X00108
X0012
X00066
X0006
X00048
M30
