M48
;Layer_Color=9474304
;FILE_FORMAT=4:4
METRIC,LZ
;TYPE=PLATED
T02F00S00C0.2000
%
T02
X0001275Y000045
Y000105
Y000165
X0000675
X0000475Y000225
Y000285
Y000345
Y000405
X00004Y00047
X00008878Y00051234
X000163Y000557
X00029
X000315Y00073
X00043Y0007275
X0004425Y0006625
X00047Y000615
X0004525Y0008665
X000503Y0008625
X00048Y00099
X00054
Y00105
X0006
X00066
Y00099
X00072
X00078
X00084
X0009
X00096
Y00105
X0009
X00084
X00078
X00072
Y00112
X00054
X00048Y00105
X0004125Y00107
Y00099
X0003975Y00091
X000285Y00092
X000305Y000995
X00031Y0010575
X000215Y0010775
X000129Y00108
X000079Y0010475
X00002987Y00099445
X000055Y0009625
X00003Y00086
X000035Y0007
Y00064
X0002225Y00083423
X0002375Y00041
X0002875Y0003375
X00034Y0002575
X0003625Y0004125
X00059Y0003875
Y0003275
Y0002775
Y0002275
X00056825Y000165
X00062825
X00068825Y000225
Y000275
Y000325
X00078825
Y000275
Y000225
X00074825Y000165
Y000045
X00062825
X00056825
Y000105
X0004875Y000105
X0004275
Y000165
X0004875
Y000045
X0004275
X0003675
Y000105
X0003075
X0002475
X0001875
Y000045
X0002475
X0003075
X00068825Y000105
X00080825
X00092825
X00098825Y000165
Y000225
Y000275
Y000325
X00105Y00032
Y00026
Y0002
X00111
Y00032
X00117Y00026
Y00014
Y00008
X00123
X00129
Y00014
Y0002
X00123
Y00032
Y00038
Y00044
X00129
Y00038
Y00032
Y00026
Y0005
Y00056
Y00062
Y00068
Y00074
Y0008
Y00086
X00123
Y0008
X00118Y0008
X001135
X00123Y00074
Y00068
Y00062
Y00056
Y0005
X0011675Y000615
X0011125
X0009275Y00067
X00089Y00071
X0008825Y0005425
X0009275
X00088825Y000325
Y000275
Y000225
X00086825Y000165
Y000045
X00098825
X00092493Y00094868
X00096Y00112
X00114
X0012Y00105
X00126
Y00099
X0012
X00123Y00092
X00129
X0013Y00102
X0007915Y0008625
X0006915
X00064Y000735
X00072Y00118
X00080441Y00124697
X00084441
X00088441
Y00136197
Y00139697
X00084441
Y00136197
X00080441
Y00139697
X00081Y00152
Y001555
X00085
Y00152
X00089
Y001555
X0009465Y0016345
X0009775Y0016175
X0010085Y0016345
X00109249Y001695
X0011275
X0011625
X0011565Y001637
X0011475Y00156
X0011125
X0011825
X0011625Y00151
Y00147
Y00143
Y00139
Y00135
Y00131
Y00127
X0012025
Y00131
Y00135
X0012425
X0012575Y0013
X00127Y00122
X00114Y00118
X00096
X0010025Y0013025
X0010375
X00104Y0014225
X001
X001065Y0015025
X0012025Y00151
Y00147
Y00143
Y00139
X00107Y00178
X0010425Y0018225
X00104Y00189
X00096Y001775
X0008475
X0008825Y001695
X0009175
X0007935Y0016345
X0007625Y0016175
X0007315Y0016345
X0007175Y001695
X0006725
X0005875Y0017125
Y0016775
Y0016425
X000587Y0016075
X0005875Y0015725
X000665Y0015625
X00062381Y0015025
X00064881Y0014225
X00068881
X00068631Y0013025
X00065131
X000526Y0013105
Y0013505
Y0013905
Y0014305
Y0014705
Y0015105
X000486
Y0014705
Y0014305
Y0013905
Y0013505
Y0013105
Y0012705
X000526
X00054Y00118
X0004125Y00115
Y00123
Y00131
Y00139
X0003775Y0014475
X0003825Y0015225
X000435Y0014975
X000486Y0015705
Y0016055
Y0016405
Y0016755
Y0017105
X0003825Y0016625
X0001746Y00165016
X0001875Y001745
X0002775Y00179
X00029Y001515
Y00148
Y001445
X0002875Y00141
X000265Y00138
X00023
X000195
X0001325Y0013925
X00017Y0014375
Y0014725
Y0015075
Y0015425
X0001875Y0011725
X0002325
X000275Y0011725
X00031Y001285
X00013Y001165
X0000425Y0011325
X00064Y00197
M30
