M48
;Layer_Color=9474304
;FILE_FORMAT=4:4
METRIC,LZ
;TYPE=PLATED
T01F00S00C0.1500
T02F00S00C0.2000
%
T01
X0002225Y00072
X0003625Y0007675
X00077Y0008025
X00083Y00054
X00071382Y0012625
X00068381
X00065381
X00062381
Y0013425
X00065381
X00068381
X00071382
Y0013825
X00068381
X00065381
X00062381
Y0014625
X00065381
X00068381
X00071382
Y0015025
X00068381
X0006725Y0016125
X0007075Y0016125
X00069Y0016375
X000655Y0016375
X0006375Y0016125
X000536Y001598
Y001633
Y001663
Y001693
Y001723
X000521Y001748
X000551
X000536Y001773
X000506
X000466
X000436
X000406
X000421Y001748
X000451
X000436Y001723
Y001693
Y001663
Y001633
Y001598
X00022222Y00158972
Y00155972
Y00152972
Y00149972
X000221Y00147
Y00144
X00034986Y00140228
X00019222Y00158972
X0001587Y00159178
X00021564Y00163867
X000386Y001923
X000416
X000446
X000476
X000506
X000521Y001948
X000491
X000461
X000431
X000401
X000371
X000386Y001973
X000356
X000416
X000446
X000476
X000506
X000536
X0006075Y0018975
Y0018675
Y0018375
Y0018075
X0006325Y0018225
Y0018525
Y0018825
Y0019125
X0006575Y0018975
Y0018675
Y0018375
Y0018075
X0006825Y0018225
Y0018525
Y0018825
Y0019125
Y0019425
X0007075Y0019575
Y0019275
Y0018975
Y0018675
Y0018375
X0007175Y0017575
X0007425Y001775
X0007675Y00176
Y00179
X0007925Y001775
Y001805
X0008175Y00179
Y00176
X0008775
Y00179
X0009025Y001775
Y001805
X0009275Y00179
Y00176
Y00182
X00096Y0018075
X00099Y00179
Y00176
X001015Y001775
Y001805
X0010075Y001835
X001015Y001865
X001005Y0018925
X0009825Y0019425
Y0019725
X0009575Y0019575
Y0019275
X0009325Y0019425
Y0019725
X0009075Y0019575
Y0019275
X0009325Y0019125
X0008825
Y0019425
Y0019725
X0008575Y0019575
Y0019275
X0008325Y0019125
Y0019425
Y0019725
X0008075Y0019575
Y0019275
X0007825Y0019425
Y0019725
X0007575Y0019575
X0007325Y0019725
Y0019425
X0008525Y00181
X000835Y0016375
X00087Y0016375
X000905Y0016375
X0009225Y0016125
X0008875Y0016125
X0008525Y0016125
X0008175Y0016125
X0010325Y0016125
X0010675Y0016125
X0011025Y0016125
X001135Y0016125
X00112Y0016375
X001085Y0016375
X00105Y0016375
X00104Y00176
Y00179
X00109Y001755
X00112
X00115
X001065Y0014625
X001035
X001005
X000975
Y0015025
X001005
Y0013825
X000975
Y0013425
X001005
X001035
X001065
Y0013825
X001035
Y0012625
X001005
X000975
X001065
X000566Y001773
T02
X00073825Y000255
Y000305
Y000355
X00083825
Y000305
Y000255
X00093825
Y000305
Y000355
X00092Y00049
X00097
X00102
X00107
X00112
X00114Y00089
Y00093
X0011
Y00089
X00106
Y00093
X00102
Y00089
X00098
Y00093
X00092678Y00079822
X0009Y00112
X00084
X00078
X00066
X0006
X00048
X000564Y0009175
X0005675Y00074
X00102Y00112
X00108
X0012
Y00118
X00108
X00102
X0009
X00084
X00078
X00066
X0006
X00048
M30
