M48
;Layer_Color=9474304
;FILE_FORMAT=4:4
METRIC,LZ
;TYPE=PLATED
T01F00S00C0.2000
%
T01
X021135Y0008225
X021185Y0008525
X021235Y0008225
X021285Y0008525
X021335Y0008225
X021385Y0008525
X021435Y0008225
X021485Y0008525
X021535Y0008225
X021585Y0008525
X021635Y0008225
X021685Y0008525
X021735Y0008225
X021785Y0008525
X021835Y0008225
X021885Y0008525
X021935Y0008225
X021985Y0008525
X021985Y00099
Y00106
X021785
Y00099
X021685Y00103
Y0011
X021585Y00106
Y00099
X021535Y00103
Y0011
X021435
Y00103
X021335
Y0011
X021235
Y00103
X021135
Y0011
X02168Y00127
X0217825Y00127
X023685Y0011
Y00103
X023785
Y0011
X023885
Y00103
X023985
Y0011
X024085
Y00103
X024135Y00106
Y00099
X024235Y00103
Y0011
X024335Y00106
Y00099
X024335Y00085
X024285Y00082
X024235Y00085
X024185Y00082
X024135Y00085
X024085Y00082
X024035Y00085
X023985Y00082
X023935Y00085
X023885Y00082
X023835Y00085
X023785Y00082
X023735Y00085
X023685Y00082
X024385
X024435Y00085
X024485Y00082
X024535Y00085
X024535Y00099
Y00106
X0243325Y00127
X02423Y00127
X0192325Y00127
X01913Y00127
X019135Y0011
Y00103
X019035Y00106
Y00099
X018985Y00103
Y0011
X018885
Y00103
X018785
Y0011
X018685
Y00103
X018585
Y0011
X018585Y0008225
X018635Y0008525
X018685Y0008225
X018735Y0008525
X018785Y0008225
X018835Y0008525
X018885Y0008225
X018935Y0008525
X018985Y0008225
X019035Y0008525
X019085Y0008225
X019135Y0008525
X019185Y0008225
X019235Y0008525
X019285Y0008225
X019335Y0008525
X019385Y0008225
X019435Y0008525
X019435Y00099
Y00106
X019235
Y00099
X016885
Y00106
X016685
Y00099
X016685Y0008525
X016635Y0008225
X016735
X016785Y0008525
X016835Y0008225
X016885Y0008525
X0166825Y00127
X01658Y00127
X016585Y0011
Y00103
X016485Y00106
Y00099
X016435Y00103
Y0011
X016335
Y00103
X016235
Y0011
X016135
Y00103
X016035
Y0011
X016035Y0008225
X016085Y0008525
X016135Y0008225
X016185Y0008525
X016235Y0008225
X016285Y0008525
X016335Y0008225
X016385Y0008525
X016435Y0008225
X016485Y0008525
X016535Y0008225
X016585Y0008525
X014335
X014285Y0008225
X014235Y0008525
X014185Y0008225
X014135Y0008525
X014085Y0008225
X014035Y0008525
X013985Y0008225
X013935Y0008525
X013885Y0008225
X013835Y0008525
X013785Y0008225
X013735Y0008525
X013685Y0008225
X013635Y0008525
X013585Y0008225
X013535Y0008525
X013485Y0008225
X013485Y00103
Y0011
X013585
Y00103
X013685
Y0011
X013785
Y00103
X013885
Y0011
X013935Y00106
Y00099
X014035Y00103
Y0011
X014135Y00106
Y00099
X014335
Y00106
X0141325Y00127
X01403Y00127
X0115825Y00127
X01148Y00127
X011485Y0011
Y00103
X011385Y00106
Y00099
X011335Y00103
Y0011
X011235
Y00103
X011135
Y0011
X011035
Y00103
X010935
Y0011
X010935Y0008225
X010985Y0008525
X011035Y0008225
X011085Y0008525
X011135Y0008225
X011185Y0008525
X011235Y0008225
X011285Y0008525
X011335Y0008225
X011385Y0008525
X011435Y0008225
X011485Y0008525
X011535Y0008225
X011585Y0008525
X011635Y0008225
X011685Y0008525
X011735Y0008225
X011785Y0008525
X011785Y00099
Y00106
X011585
Y00099
X009235
Y00106
X009035
Y00099
X009035Y0008525
X008985Y0008225
X008935Y0008525
X008885Y0008225
X008835Y0008525
X008785Y0008225
X008735Y0008525
X008685Y0008225
X008685Y00103
Y0011
X008785
Y00103
X008835Y00106
Y00099
X008935Y00103
Y0011
X00893Y00127
X0090325Y00127
X009085Y0008225
X009135Y0008525
X009185Y0008225
X009235Y0008525
X008635
X008585Y0008225
X008535Y0008525
X008485Y0008225
X008435Y0008525
X008385Y0008225
X008385Y00103
Y0011
X008485
Y00103
X008585
Y0011
X006685Y00106
Y00099
X006685Y0008525
X006635Y0008225
X006585Y0008525
X006535Y0008225
X006485Y0008525
X006435Y0008225
X006385Y0008525
X006335Y0008225
X006285Y0008525
X006235Y0008225
X006185Y0008525
X006135Y0008225
X006085Y0008525
X006035Y0008225
X005985Y0008525
X005935Y0008225
X005885Y0008525
X005835Y0008225
X005835Y00103
Y0011
X005935
Y00103
X006035
Y0011
X006135
Y00103
X006235
Y0011
X006285Y00106
Y00099
X006385Y00103
Y0011
X006485Y00106
Y00099
X0064825Y00127
X00638Y00127
X0039325Y00127
X00383Y00127
X003835Y0011
Y00103
X003735Y00106
Y00099
X003685Y00103
Y0011
X003585
Y00103
X003485
Y0011
X003385
Y00103
X003285
Y0011
X003285Y0008225
X003335Y0008525
X003385Y0008225
X003435Y0008525
X003485Y0008225
X003535Y0008525
X003585Y0008225
X003635Y0008525
X003685Y0008225
X003735Y0008525
X003785Y0008225
X003835Y0008525
X003885Y0008225
X003935Y0008525
X003985Y0008225
X004035Y0008525
X004085Y0008225
X004135Y0008525
X004135Y00099
Y00106
X003935
Y00099
X0039325Y001695
X00383Y001695
Y00212
X0039325Y00212
Y002545
X00383Y002545
Y00297
X0039325Y00297001
Y00339501
X00383Y00339501
Y00382001
X0039325Y00382001
Y0041
X00383Y0041
X00411Y00409
X00412Y0042
X00426
Y00433
X0041882Y00433454
X00409186
X0041Y00446
X00418
X0042725Y0044625
X00428Y0045925
X004285Y0047175
X004115
X0041175Y0045925
X00395Y0046525
X0038675Y0048775
X00414Y00497
X004285
X0042425Y0052025
X0042925Y0052525
X0041925
X0040925
X0041425Y0052025
X00411Y0053505
X00426
X0045Y0053
X0047
X0046Y005
X0046825Y00472
X0045325Y00464
X0046Y0044
X0047Y0041
X00463Y00379
X00425Y00408
X00393037Y00435452
X00331068Y00434382
Y00408882
X003115Y004081
X002965Y00408
X00296999Y004208
Y004335
X002965Y004461
Y004588
X003115Y004589
Y004462
X00277Y004469
X00262195Y00446913
X00236078Y00447005
X00212672Y00447108
Y00421608
Y00396108
X0026025Y004
X00252Y004125
X0028075Y004125
X0028075Y00395
X00266749Y003805
X00252Y0038
X0029625Y0038025
X00317Y00392
X00330894Y00466194
X0033Y00485
X00332Y005
X003115Y0049705
X0031475Y0050675
X0030975Y0051175
Y0052025
X0031475Y0052525
Y0053215
X0030475Y0052525
X0029475
Y0053215
X00294Y00538
X0027775Y0054
X00267195Y00539663
Y00516663
X0027775Y00517
Y00494
X00267195Y00493663
X00266695Y00476163
X0026Y00478
X00285794Y00478423
X00285Y0049
X002965Y0049695
X0029475Y0050675
X0030475
X0029975Y0051175
Y0052025
X00328Y0052685
X00326293Y0054
X00347Y00534
X00368Y00538
X0039Y0054
X0028675Y0055025
X00236578Y00540505
Y00517505
Y00494505
X00252Y0049798
X00212672Y00497859
Y00523109
Y00548609
Y00472608
X00236578Y00471505
X00279Y00467
X00491578Y00471505
Y00494505
X0048Y005
X00507Y0049798
X00522195Y00493663
X0053275Y00494
X0054Y0049
X00540794Y00478423
X00534Y00467
X00521695Y00476163
X00515Y00478
X00517195Y00446913
X00532Y004469
X005515Y004461
Y004588
X005665Y004589
Y004462
X00551999Y004335
Y004208
X005515Y00408
X005665Y004081
X00586068Y00408882
Y00434382
X00585894Y00466194
X00585Y00485
X00587Y005
X005665Y0049705
X0056975Y0050675
X0056475Y0051175
Y0052025
X0056975Y0052525
Y0053215
X0055975Y0052525
X0054975
Y0053215
X00549Y00538
X0053275Y0054
X00522195Y00539663
Y00516663
X0053275Y00517
X0055475Y0052025
Y0051175
X0055975Y0050675
X0054975
X005515Y0049695
X00583Y0052685
X00581293Y0054
X00602Y00534
X00623Y00538
X00645Y0054
X00666Y0053505
X0066425Y0052525
X0067425
X0068425
X0067925Y0052025
X0066925
X00669Y00497
X006835
Y0047175
X00683Y0045925
X0068225Y0044625
X00673Y00446
X00665
X00664186Y00433454
X0067382
X00681Y00433
Y0042
X0068Y00408
X00666Y00409
X00667Y0042
X0064825Y0041
X00638Y0041
Y00382001
X0064825Y00382001
Y00339501
X00638Y00339501
Y00297
X0064825Y00297001
Y002545
X00638Y002545
Y00212
X0064825Y00212
Y001695
X00638Y001695
X00648037Y00435452
X0065Y0046525
X0066675Y0045925
X006665Y0047175
X0064175Y0048775
X00715Y005
X00735
X00746578Y00494505
X00762Y0049798
X00777195Y00493663
X0078775Y00494
X00795Y0049
X00795794Y00478423
X00789Y00467
X00776695Y00476163
X0077Y00478
X00746578Y00471505
X0072325Y00472
X0070825Y00464
X00715Y0044
X00735
X00746078Y00447005
X00772195Y00446913
X00787Y004469
X008065Y004461
Y004588
X008215Y004589
Y004462
X00806999Y004335
Y004208
X008065Y00408
X008215Y004081
X00841068Y00408882
Y00434382
X00840894Y00466194
X0084Y00485
X00842Y005
X008215Y0049705
X0082475Y0050675
X0081475
X0080475
X0080975Y0051175
Y0052025
X0081975
Y0051175
X0081475Y0052525
X0080475
Y0053215
X00804Y00538
X0078775Y0054
X00777195Y00539663
Y00516663
X0078775Y00517
X008065Y0049695
X0082475Y0052525
Y0053215
X00838Y0052685
X00836293Y0054
X00857Y00534
X0079675Y0055025
X00746578Y00540505
X00735Y0054
X00725Y0053
X00705
X00681Y0053505
X00746578Y00517505
X00762Y004125
X0077025Y004
X0079075Y00395
X0079075Y004125
X00776749Y003805
X00762Y0038
X00733
X00718Y00379
X00725Y0041
X0080625Y0038025
X00827Y00392
X00572
X0055125Y0038025
X00521749Y003805
X00507Y0038
X0051525Y004
X00507Y004125
X0053575Y004125
X0053575Y00395
X00478Y0038
X0048Y0044
X00491078Y00447005
X00491578Y00517505
Y00540505
X0048Y0054
X0054175Y0055025
X00878Y00538
X009Y0054
X00921Y0053505
X0091925Y0052525
X0092425Y0052025
X0092925Y0052525
X0093425Y0052025
X0093925Y0052525
X00936Y0053505
X0096Y0053
X0098
X0099Y0054
X01001578Y00540505
Y00517505
Y00494505
X0099Y005
X0097
X009385Y00497
X00924
X009215Y0047175
X0092175Y0045925
X0092Y00446
X00928
X0093725Y0044625
X00938Y0045925
X009385Y0047175
X0096325Y00464
X0097825Y00472
X01001578Y00471505
X01001078Y00447005
X0099Y0044
X0097
X0098Y0041
X00973Y00379
X00988Y0038
X01017
X01031749Y003805
X0102525Y004
X01017Y004125
X0104575Y004125
X0104575Y00395
X010615Y00408
X01061999Y004208
Y004335
X010615Y004461
Y004588
X010765Y004589
Y004462
X01096068Y00434382
Y00408882
X010765Y004081
X01082Y00392
X0106125Y0038025
X01042Y004469
X01027195Y00446913
X01025Y00478
X01031695Y00476163
X01032195Y00493663
X0104275Y00494
X0105Y0049
X01050794Y00478423
X01044Y00467
X010615Y0049695
X0105975Y0050675
X0106475Y0051175
Y0052025
X0105975Y0052525
Y0053215
X01059Y00538
X0104275Y0054
X01032195Y00539663
Y00516663
X0104275Y00517
X0106975Y0052525
X0107975
Y0053215
X0107475Y0052025
Y0051175
X0107975Y0050675
X0106975
X010765Y0049705
X01097Y005
X01095Y00485
X01095894Y00466194
X01093Y0052685
X01091293Y0054
X01112Y00534
X01133Y00538
X01155Y0054
X01176Y0053505
X0117425Y0052525
X0118425
X0119425
X0118925Y0052025
X0117925
X01179Y00497
X011935
Y0047175
X01193Y0045925
X0119225Y0044625
X01183Y00446
X01175
X01174186Y00433454
X0118382
X01191Y00433
Y0042
X0119Y00408
X01176Y00409
X01177Y0042
X0115825Y0041
X01148Y0041
Y00382001
X0115825Y00382001
Y00339501
X01148Y00339501
Y00297
X0115825Y00297001
Y002545
X01148Y002545
Y00212
X0115825Y00212
Y001695
X01148Y001695
X0090325Y001695
X00893Y001695
Y00212
X0090325Y00212
Y002545
X00893Y002545
Y00297
X0090325Y00297001
Y00339501
X00893Y00339501
Y00382001
X0090325Y00382001
Y0041
X00893Y0041
X00921Y00409
X00922Y0042
X00936
Y00433
X0092882Y00433454
X00919186
X00903037Y00435452
X00905Y0046525
X0089675Y0048775
X00935Y00408
X01017Y0049798
X0105175Y0055025
X01191Y0053505
X01215Y0053
X01235
X01245Y0054
X01256578Y00540505
Y00517505
Y00494505
X01245Y005
X01225
X0123325Y00472
X0121825Y00464
X01225Y0044
X01245
X01256078Y00447005
X01256578Y00471505
X011765Y0047175
X0117675Y0045925
X0116Y0046525
X0115175Y0048775
X01158037Y00435452
X01235Y0041
X01243Y0038
X01228Y00379
X01272Y0038
X0128675Y003805
X0128025Y004
X01272Y004125
X0130075Y004125
X0130075Y00395
X013165Y00408
X01316999Y004208
Y004335
X013165Y004461
Y004588
X013315Y004589
Y004462
X01351068Y00434382
Y00408882
X013315Y004081
X01337Y00392
X0131625Y0038025
X01297Y004469
X01282195Y00446913
X0128Y00478
X01286695Y00476163
X01287195Y00493663
X0129775Y00494
X01305Y0049
X01305794Y00478423
X01299Y00467
X013165Y0049695
X0131475Y0050675
X0131975Y0051175
Y0052025
X0131475Y0052525
Y0053215
X01314Y00538
X0129775Y0054
X01287195Y00539663
Y00516663
X0129775Y00517
X0132475Y0052525
X0133475
Y0053215
X0132975Y0052025
Y0051175
X0133475Y0050675
X0132475
X013315Y0049705
X01352Y005
X0135Y00485
X01350894Y00466194
X01348Y0052685
X01346293Y0054
X01367Y00534
X01388Y00538
X0141Y0054
X01431Y0053505
X0142925Y0052525
X0143925
X0144925
X0144425Y0052025
X0143425
X01434Y00497
X014485
Y0047175
X01448Y0045925
X0144725Y0044625
X01438Y00446
X0143
X01429186Y00433454
X0143882
X01446Y00433
Y0042
X01445Y00408
X01431Y00409
X01432Y0042
X0141325Y0041
X01403Y0041
Y00382001
X0141325Y00382001
Y00339501
X01403Y00339501
Y00297
X0141325Y00297001
Y002545
X01403Y002545
Y00212
X0141325Y00212
Y001695
X01403Y001695
X01658
Y00212
Y002545
Y00297
Y00339501
Y00382001
Y0041
X01606068Y00408882
X015865Y004081
X015715Y00408
X01571999Y004208
Y004335
X015715Y004461
Y004588
X015865Y004589
Y004462
X01606068Y00434382
X01605894Y00466194
X01605Y00485
X01607Y005
X015865Y0049705
X0158975Y0050675
X0158475Y0051175
Y0052025
X0158975Y0052525
Y0053215
X0157975Y0052525
X0156975
Y0053215
X01569Y00538
X0155275Y0054
X01542195Y00539663
Y00516663
X0155275Y00517
Y00494
X01542195Y00493663
X01541695Y00476163
X01535Y00478
X01560794Y00478423
X0156Y0049
X015715Y0049695
X0156975Y0050675
X0157475Y0051175
Y0052025
X0157975Y0050675
X01603Y0052685
X01601293Y0054
X01622Y00534
X01643Y00538
X0166175Y0048775
X01554Y00467
X01552Y004469
X01537195Y00446913
X01511078Y00447005
X015Y0044
X0148
X0147325Y00464
X0148825Y00472
X01511578Y00471505
Y00494505
X015Y005
X0148
X0149Y0053
X0147
X01446Y0053505
X015Y0054
X01511578Y00540505
Y00517505
X01527Y0049798
Y004125
X0153525Y004
X0155575Y00395
X0155575Y004125
X0154175Y003805
X01527Y0038
X01498
X01483Y00379
X0149Y0041
X01413037Y00435452
X01415Y0046525
X0143175Y0045925
X014315Y0047175
X0140675Y0048775
X01272Y0049798
X0130275Y0055025
X0156175
X0157125Y0038025
X01592Y00392
X0166825Y00382001
Y0041
X01686Y00409
X01687Y0042
X01701
Y00433
X0169382Y00433454
X01684186
X01685Y00446
X01693
X0170225Y0044625
X01703Y0045925
X017035Y0047175
X016865
X0168675Y0045925
X0167Y0046525
X01668037Y00435452
X017Y00408
X01745Y0041
X01753Y0038
X01738Y00379
X01782Y0038
X0179675Y003805
X0179025Y004
X01782Y004125
X0181075Y004125
X0181075Y00395
X018265Y00408
X01826999Y004208
Y004335
X018265Y004461
Y004588
X018415Y004589
Y004462
X01861068Y00434382
Y00408882
X018415Y004081
X01847Y00392
X0182625Y0038025
X01807Y004469
X01792195Y00446913
X01766078Y00447005
X01755Y0044
X01735
X0172825Y00464
X0174325Y00472
X01766578Y00471505
Y00494505
X01755Y005
X01735
X017035Y00497
X01689
X0168925Y0052025
X0169925
X0170425Y0052525
X0169425
X0168425
X01686Y0053505
X01701
X01725Y0053
X01745
X01755Y0054
X01766578Y00540505
Y00517505
X01797195Y00516663
X0180775Y00517
Y0054
X01797195Y00539663
X01824Y00538
X0182475Y0053215
Y0052525
X0183475
X0184475
Y0053215
X0183975Y0052025
Y0051175
X0182975
Y0052025
X0183475Y0050675
X0184475
X018415Y0049705
X018265Y0049695
X0182475Y0050675
X01815Y0049
X0180775Y00494
X01797195Y00493663
X01796695Y00476163
X0179Y00478
X01815794Y00478423
X01809Y00467
X01860894Y00466194
X0186Y00485
X01862Y005
X01858Y0052685
X01856293Y0054
X01877Y00534
X01898Y00538
X0192Y0054
X01941Y0053505
X0193925Y0052525
X0194925
X0195925
X0195425Y0052025
X0194425
X01944Y00497
X019585
Y0047175
X01958Y0045925
X0195725Y0044625
X01948Y00446
X0194
X01939186Y00433454
X0194882
X01956Y00433
Y0042
X01955Y00408
X01941Y00409
X01942Y0042
X0192325Y0041
X01913Y0041
Y00382001
X0192325Y00382001
Y00339501
X01913Y00339501
Y00297
X0192325Y00297001
Y002545
X01913Y002545
Y00212
X0192325Y00212
Y001695
X01913Y001695
X0166825Y001695
Y00212
Y002545
Y00297001
Y00339501
X01665Y0054
X01782Y0049798
X0181675Y0055025
X01956Y0053505
X0198Y0053
X02
X0201Y0054
X02021578Y00540505
Y00517505
Y00494505
X0201Y005
X0199
X0199825Y00472
X0198325Y00464
X0199Y0044
X0201
X02021078Y00447005
X02021578Y00471505
X02045Y00478
X02051695Y00476163
X02052195Y00493663
X02037Y0049798
X02052195Y00516663
Y00539663
X02047195Y00446913
X02037Y004125
X0204525Y004
X0205175Y003805
X02037Y0038
X02008
X01993Y00379
X02Y0041
X01923037Y00435452
X01925Y0046525
X0194175Y0045925
X019415Y0047175
X0191675Y0048775
X0206275Y00494
X0207Y0049
X02070794Y00478423
X02064Y00467
X02062Y004469
X020815Y004461
Y004588
X020965Y004589
Y004462
X02081999Y004335
Y004208
X020815Y00408
X020965Y004081
X02116068Y00408882
Y00434382
X02115894Y00466194
X02115Y00485
X02117Y005
X020965Y0049705
X0209975Y0050675
X0208975
X0207975
X0208475Y0051175
Y0052025
X0209475
Y0051175
X0209975Y0052525
Y0053215
X0208975Y0052525
X0207975
Y0053215
X02079Y00538
X0206275Y0054
X0207175Y0055025
X0206275Y00517
X020815Y0049695
X02113Y0052685
X02111293Y0054
X02132Y00534
X02153Y00538
X02175Y0054
X02196Y0053505
X0219425Y0052525
X0219925Y0052025
X0220425Y0052525
X0220925Y0052025
X0221425Y0052525
X02211Y0053505
X02235Y0053
X02255
X02265Y0054
X02276578Y00540505
Y00517505
Y00494505
X02265Y005
X02245
X022135Y00497
X02199
X021965Y0047175
X0219675Y0045925
X02195Y00446
X02203
X0221225Y0044625
X02213Y0045925
X022135Y0047175
X0223825Y00464
X0225325Y00472
X02276578Y00471505
X02276078Y00447005
X02265Y0044
X02245
X02255Y0041
X02263Y0038
X02248Y00379
X02292Y0038
X0230675Y003805
X0230025Y004
X02292Y004125
X0232075Y004125
X0232075Y00395
X023365Y00408
X02336999Y004208
Y004335
X023365Y004461
Y004588
X023515Y004589
Y004462
X02371068Y00434382
Y00408882
X023515Y004081
X02357Y00392
X0233625Y0038025
X02317Y004469
X02302195Y00446913
X023Y00478
X02306695Y00476163
X02307195Y00493663
X0231775Y00494
X02325Y0049
X02325794Y00478423
X02319Y00467
X023365Y0049695
X0233475Y0050675
X0233975Y0051175
Y0052025
X0233475Y0052525
Y0053215
X02334Y00538
X0231775Y0054
X02307195Y00539663
Y00516663
X0231775Y00517
X0234475Y0052525
X0235475
Y0053215
X0234975Y0052025
Y0051175
X0235475Y0050675
X0234475
X023515Y0049705
X02372Y005
X0237Y00485
X02370894Y00466194
X02368Y0052685
X02366293Y0054
X02387Y00534
X02408Y00538
X0243Y0054
X02451Y0053505
X0244925Y0052525
X0245425Y0052025
X02454Y00497
X024515Y0047175
X0245175Y0045925
X0245Y00446
X02449186Y00433454
X02452Y0042
X02451Y00409
X0243325Y0041
X02423Y0041
Y00382001
X0243325Y00382001
Y00339501
X02423Y00339501
Y00297
X0243325Y00297001
Y002545
X02423Y002545
Y00212
X0243325Y00212
Y001695
X02423Y001695
X0217825Y001695
X02168Y001695
Y00212
X0217825Y00212
Y002545
X02168Y002545
Y00297
X0217825Y00297001
Y00339501
X02168Y00339501
Y00382001
X0217825Y00382001
Y0041
X02168Y0041
X02196Y00409
X02197Y0042
X02211
Y00433
X0220382Y00433454
X02194186
X02178037Y00435452
X0218Y0046525
X0217175Y0048775
X0221Y00408
X02102Y00392
X0208125Y0038025
X0206575Y00395
X0206575Y004125
X02292Y0049798
X0232675Y0055025
X0242675Y0048775
X02435Y0046525
X02433037Y00435452
X0245882Y00433454
X02466Y00433
Y0042
X02465Y00408
X0246725Y0044625
X02458Y00446
X02468Y0045925
X024685Y0047175
Y00497
X0246425Y0052025
X0246925Y0052525
X0245925
X02466Y0053505
X0249Y0053
X02508158Y00531831
X02522818Y00540482
X0254125Y00550001
Y00524501
Y0049925
X02520633Y00502055
X02500964Y00502146
X02512711Y00472279
X02490857Y00468091
X025Y0044
X02520086Y00442048
X0254125Y004485
X025415Y0042675
X0254125Y003975
X02518Y0038
X02503Y00379
X025095Y0040825
X0254125Y00474
Y00575501
Y00601001
Y00626501
Y00652001
X02541328Y00673642
X02500954Y00595723
X02485813Y00595526
X02456715Y00595625
X02475958Y00569905
X0244936Y00566085
X02417302Y00561679
X02417556Y00595773
X02397878Y00595674
X02373317Y00595773
X02353716Y00586923
X02344051Y00595505
X02324Y005915
X023235Y0058325
X0231775Y0058425
X02307195Y00584913
X02305703Y00591286
X02313375Y0059275
X0231625Y006015
X0230725
X02306361Y00607579
X02306Y00621
Y00638
Y00655
Y00672
X023Y00668
X02296Y00678
X02291Y00673
X02285Y00663
X0228Y00656
X0228498Y00649698
X02285Y00638
Y00621
X02286239Y00607506
X02287Y006015
Y005925
X0228675Y0058575
X02277Y00586
X02272Y0058475
Y005925
X02277
Y006015
X02272Y0060175
X02248Y0058975
X02232Y005925
Y0060175
X02219Y0058975
X02226Y0058275
X02197
X02192Y005925
Y0060175
X02182Y00583
X02174Y0058875
X02167Y00583
X02152Y0058275
Y005925
Y0060175
X0213Y0058975
X02112Y005925
Y0060175
X02101Y0059
X02089201Y00590028
X02084201
X02079201Y00582028
X020685Y0058325
X0206275Y0058425
X02069Y005915
X02072Y0060175
X0206125Y006015
X02093201Y00583028
X0209375Y005721
X0208675
X0208275Y005671
X0209075
X0209775
X02108Y0058275
X02281499Y005615
X0228675Y005555
X023065Y0055575
X0230675Y0056125
X0233775Y005671
X0234575
X0235275
X0234875Y005721
X0234175
X02365805Y00557532
X0244192Y00595773
X02058375Y0059275
X02051Y00592
X02052195Y00584913
X0205225Y006015
X02052Y00612
X0205125Y006215
Y006385
X02051Y00651
X0203725Y0064875
X0203Y00642
Y00636
Y00621
X02032Y00607
X02022Y006015
X02017Y0060175
Y005925
X02022
Y00586
X02017Y0058275
X02032Y00584
Y00591
X02026499Y005615
X0203175Y005555
X01993Y0058975
X01977Y005925
Y0060175
X01964Y0058975
X01971Y0058275
X01942
X01937Y005925
Y0060175
X01927Y00583
X01919Y0058875
X01912Y00583
X01897Y0058275
Y005925
Y0060175
X01875Y0058975
X01857Y005925
Y0060175
X01846Y0059
X01834201Y00590028
X01829201
X01824201Y00582028
X018135Y0058325
X0180775Y0058425
X01797195Y00585913
X01803375Y0059275
X0180625Y006015
X0179725
X01797Y00612
Y00621
Y0063
Y00638
X01776
Y00631
Y00621
Y00608
X01777Y006015
Y005925
X0177675Y0058575
X01767Y00586
X01762Y0058475
Y005925
X01767
Y006015
X01762Y0060175
X01738Y0058975
X01722Y005925
Y0060175
X01709Y0058975
X01716Y0058275
X01687
X01682Y005925
Y0060175
X01672Y00583
X01664Y0058875
X01771499Y005615
X0177675Y005555
X0182775Y005671
X0183575
X0184275
X0183875Y005721
X0183175
X01838201Y00583028
X01853Y0058275
X01814Y005915
X01817Y0060175
X01786Y00652
X01775Y00651
X0179Y00663
X01782Y00675
X02040689Y00673
X02045Y00662
X01642Y0060175
Y005925
Y0058275
X01657Y00583
X0162Y0058975
X01602Y005925
Y0060175
X01591Y0059
X01579201Y00590028
X01574201
X01569201Y00582028
X015585Y0058325
X0155275Y0058425
X01542195Y00585913
X01548375Y0059275
X0155125Y006015
X0154225
X01541525Y00612721
X01541777Y00629556
X01541336Y00646391
X01541712Y00663698
X01535Y00669029
X0153116Y00657
X01520712Y00663698
X01520336Y00646391
X01520777Y00629556
X01520525Y00612721
X01522Y006015
Y005925
X0152175Y0058575
X01514Y00584
X01507Y0058275
Y005925
X01512
Y006015
X01507Y0060175
X01483Y0058975
X01467Y005925
Y0060175
X01454Y0058975
X01461Y0058275
X0143225Y0057425
X0142525
X0141825
X0141125
X0140725Y0056925
X0141525
X0142225
X0142925
X0143625
X01433Y00618
X01426
X01419
X01412
X01416Y00623
X01423
X0143
X01437
X01408
X01387Y0060175
Y005925
Y0058275
X01365Y0058975
X01347Y005925
Y0060175
X01344Y0058275
X01336Y0059
X01324201Y00590028
X01319201
X01314201Y00582028
X01328201Y00583028
X0132875Y005721
X0132175
X0131775Y005671
X0132575
X0133275
X0129775Y0058425
X01287195Y00585913
X01293375Y0059275
X0129925Y006015
X01299Y00607
X0130625Y006095
X01314Y0062
X013Y00626
X01287
Y00619
Y00607
X0128725Y006015
X01276Y00614311
X0128Y006335
X01287Y00639
X012725Y006385
X01276228Y00646707
X01284452Y00655017
X01295903Y00654553
X01296883Y00668062
X01306922Y00676394
X01314502Y00671447
X0132349Y00661586
X01339Y00678
X01330012Y00687861
X01319011Y00689234
X01333862Y00700263
X01335Y0071175
X01345Y0070625
X01354566Y00702072
X01352865Y00689503
X01353243Y00672209
X0135381Y00655105
X01341369Y00642236
X01333715Y00638018
X01306Y00645
X01284452Y00680492
X01289848Y00688551
X01299751Y00697634
X01315Y0072075
X01325Y0072067
X01335Y0073675
X01355Y0073675
X01355228Y00719082
X01375Y0071175
Y0073675
Y0076175
X01355Y0076175
X01335Y0076175
Y0078675
X01355Y0078675
X01375Y0078675
X01395Y0078875
X01415
X01435
Y0082
X01415
X01395
Y00844249
X01415
X01435
X01375Y0083675
X01355Y0083675
X01335Y0083675
Y0081175
X01355Y0081175
X01375Y0081175
X01485Y00885
Y00905
Y0091
Y0093
X01505
Y0091
Y00905
Y00885
X0152725Y0068075
X01562Y0060175
X01559Y005915
X01583201Y00583028
X0158375Y005721
X0157675
X0157275Y005671
X0158075
X0158775
X01598Y0058275
X01516499Y005615
X0152175Y005555
X01266749
X01274891Y00672091
X01275Y0091
Y0094
X01255
Y0091
X01232916Y00676142
X01233036Y00659537
X01262665Y00658978
X01256228Y00646707
X01255Y00628
X01255Y0062
X01245Y00621
X01245318Y00628268
X01238Y00625
X01230839Y00621277
X01236Y00605
X01245Y0060175
X01249Y00606
X01255Y00609
Y00603
X01245Y005925
Y0058475
X01228Y0058975
X01212Y005925
Y0060175
X01199Y0058975
X01206Y0058175
X01177
X01162Y00582
X01154Y0058875
X01147Y00582
X01132Y0058175
Y005925
Y0060175
X0111Y0058975
X01092Y005925
Y0060175
X01081Y0059
X01069201Y00590028
X01064201
X01059201Y00581028
X010485Y0058325
X0104275Y0058425
X01032195Y00585913
X01038375Y0059275
X0104125Y006015
X0103225
X01031Y00613
Y0063
X0101
Y00613
X01012Y006015
Y005925
X0101175Y0058575
X01002Y00586
X00997Y0058475
Y005925
X01002
Y006015
X00997Y0060175
X00973Y0058975
X00957Y005925
Y0060175
X00944Y0058975
X00951Y0058175
X00922
X00907Y00582
X00899Y0058875
X00892Y00582
X00877Y0058175
Y005925
Y0060175
X00917
Y005925
X009175Y006645
X00921Y006705
X0091675Y0067575
X009235Y0068075
X0086975Y0068125
X00874978Y0067078
X0101Y00658
X0101725Y0066425
X01031Y00658
X01021Y006465
X01025Y0068
X01033Y00685
X01012
X01052Y0060175
X01049Y005915
X01073201Y00583028
X0107375Y005721
X0106675
X0106275Y005671
X0107075
X0107775
X01088Y0058175
X01172Y005925
Y0060175
X01261499Y0056175
X01006499Y0056125
X01011749Y005555
X00855Y0058975
X00837Y005925
Y0060175
X00826Y0059
X00814201Y00590028
X00809201
X00804201Y00581028
X007935Y0058325
X0078775Y0058425
X00777195Y00585913
X00783375Y0059275
X0078625Y006015
X0077725
X00797Y0060175
X00794Y005915
X00818201Y00583028
X0081875Y005721
X0081175
X0081575Y005671
X0082275
X0080775
X00833Y0058175
X0075675Y0058575
X00757Y005925
Y006015
X00747
X00742Y0060175
Y005925
X00747
Y00586
X00742Y0058475
X00718Y0058975
X00702Y005925
Y0060175
X00689Y0058975
X00696Y0058175
X00667
X00652Y00582
X00644Y0058875
X00637Y00582
X00622Y0058175
Y005925
Y0060175
X006Y0058975
X00582Y005925
Y0060175
X00571Y0059
X00559201Y00590028
X00554201
X00549201Y00581028
X005385Y0058325
X0053275Y0058425
X00522195Y00585913
X00528375Y0059275
X0053125Y006015
X0052225
X00520579Y00607923
X00520411Y00617573
X00520579Y0062479
X00521Y00637
X00511Y00646
X005
Y00637
X00499579Y0062479
X00499411Y00617573
X00499579Y00607923
X00502Y006015
Y005925
X0050175Y0058575
X00492Y00586
X00487Y0058475
Y005925
X00492
Y006015
X00487Y0060175
X00496499Y0056125
X00501749Y005555
X0055275Y005671
X0056075
X0056775
X0056375Y005721
X0055675
X00563201Y00583028
X00578Y0058175
X00539Y005915
X00542Y0060175
X00521Y00657
X0051511Y00661799
X00501712Y00657198
X00507182Y00673742
X00662Y0060175
Y005925
X00751499Y0056175
X00756749Y005555
X00755Y00621
Y00638
X00766Y0064225
X00776Y00638
Y00621
X00769825Y00656774
X007625Y00671
X0084Y00677
X0084525Y00682
X00463Y0058975
X00447Y005925
Y0060175
X00434Y0058975
X00441Y0058175
X00412
X00397Y00582
X00389Y0058875
X00382Y00582
X00367Y0058175
Y005925
Y0060175
X00345Y0058975
X00327Y005925
Y0060175
X00316Y0059
X00304201Y00590028
X00299201
X00294201Y00581028
X002835Y0058325
X0027775Y0058425
X00267195Y00585913
X00273375Y0059275
X0027625Y006015
X0026725
Y006105
Y006195
Y006285
Y006375
Y006465
X00265Y00659
X0026Y0066575
X00258Y00673
X0025225Y0068075
X002475Y0067675
X0024725Y0065975
X0025575Y00652
X002465Y0064425
X00246Y00621
X0024725Y006005
Y0059175
X00232738Y00591314
X00232537Y00599956
X00212672Y00599609
Y00625109
Y00650609
X0021275Y0067225
X00212672Y00574109
X002465Y005735
X00241499Y0056125
X00246749Y005555
X0029775Y005671
X0030575
X0031275
X0030875Y005721
X0030175
X00308201Y00583028
X00323Y0058175
X00284Y005915
X00287Y0060175
X00407
Y005925
X01255Y0097
X01275
X01485
Y0095
X01505
Y0097
M30
