G04*
G04 #@! TF.GenerationSoftware,Altium Limited,Altium Designer,25.0.2 (28)*
G04*
G04 Layer_Color=32768*
%FSLAX44Y44*%
%MOMM*%
G71*
G04*
G04 #@! TF.SameCoordinates,54A35FAF-5F68-4BCB-90B9-8CF1E0348433*
G04*
G04*
G04 #@! TF.FilePolarity,Positive*
G04*
G01*
G75*
%ADD10C,0.1000*%
D10*
X48600Y163800D02*
Y168800D01*
X46100Y166300D02*
X51100D01*
X17500Y99250D02*
Y104250D01*
X15000Y101750D02*
X20000D01*
X117000Y106500D02*
Y111500D01*
X114500Y109000D02*
X119500D01*
X103800Y106500D02*
Y111500D01*
X101300Y109000D02*
X106300D01*
X90600Y106500D02*
Y111500D01*
X88100Y109000D02*
X93100D01*
X77400Y106500D02*
Y111500D01*
X74900Y109000D02*
X79900D01*
X64200Y106500D02*
Y111500D01*
X61700Y109000D02*
X66700D01*
X51000Y106500D02*
Y111500D01*
X48500Y109000D02*
X53500D01*
X20500Y138000D02*
X25500D01*
X23000Y135500D02*
Y140500D01*
X22250Y117250D02*
X27250D01*
X24750Y114750D02*
Y119750D01*
X28000Y169000D02*
X33000D01*
X30500Y166500D02*
Y171500D01*
X28000Y174000D02*
X33000D01*
X30500Y171500D02*
Y176500D01*
X28250Y134100D02*
X33250D01*
X30750Y131600D02*
Y136600D01*
X31500Y147000D02*
X36500D01*
X34000Y144500D02*
Y149500D01*
X28500Y159000D02*
Y164000D01*
X26000Y161500D02*
X31000D01*
X15000Y162250D02*
X20000D01*
X17500Y159750D02*
Y164750D01*
X15250Y91250D02*
Y96250D01*
X12750Y93750D02*
X17750D01*
X12500Y77250D02*
Y82250D01*
X10000Y79750D02*
X15000D01*
X14500Y86750D02*
X19500D01*
X17000Y84250D02*
Y89250D01*
X44750Y186500D02*
Y191500D01*
X42250Y189000D02*
X47250D01*
X55500Y138000D02*
X60500D01*
X58000Y135500D02*
Y140500D01*
X55500Y128000D02*
X60500D01*
X58000Y125500D02*
Y130500D01*
X65500Y166000D02*
X70500D01*
X68000Y163500D02*
Y168500D01*
X76500Y166000D02*
X81500D01*
X79000Y163500D02*
Y168500D01*
X112000Y156500D02*
Y161500D01*
X109500Y159000D02*
X114500D01*
X112000Y163500D02*
Y168500D01*
X109500Y166000D02*
X114500D01*
X101000Y156500D02*
Y161500D01*
X98500Y159000D02*
X103500D01*
X90000Y156500D02*
Y161500D01*
X87500Y159000D02*
X92500D01*
X89250Y186500D02*
Y191500D01*
X86750Y189000D02*
X91750D01*
X111000Y135500D02*
Y140500D01*
X108500Y138000D02*
X113500D01*
X111000Y125500D02*
Y130500D01*
X108500Y128000D02*
X113500D01*
X93000Y145500D02*
Y150500D01*
X90500Y148000D02*
X95500D01*
X111000Y145500D02*
Y150500D01*
X108500Y148000D02*
X113500D01*
X58000Y145500D02*
Y150500D01*
X55500Y148000D02*
X60500D01*
X76000Y135500D02*
Y140500D01*
X73500Y138000D02*
X78500D01*
X76000Y145500D02*
Y150500D01*
X73500Y148000D02*
X78500D01*
X76000Y125500D02*
Y130500D01*
X73500Y128000D02*
X78500D01*
X93000Y135500D02*
Y140500D01*
X90500Y138000D02*
X95500D01*
X93000Y125500D02*
Y130500D01*
X90500Y128000D02*
X95500D01*
X87500Y166000D02*
X92500D01*
X90000Y163500D02*
Y168500D01*
X98500Y166000D02*
X103500D01*
X101000Y163500D02*
Y168500D01*
X87500Y173000D02*
X92500D01*
X90000Y170500D02*
Y175500D01*
X109500Y173000D02*
X114500D01*
X112000Y170500D02*
Y175500D01*
X76500Y173000D02*
X81500D01*
X79000Y170500D02*
Y175500D01*
X98500Y173000D02*
X103500D01*
X101000Y170500D02*
Y175500D01*
X65500Y173000D02*
X70500D01*
X68000Y170500D02*
Y175500D01*
X65500Y159000D02*
X70500D01*
X68000Y156500D02*
Y161500D01*
X76500Y159000D02*
X81500D01*
X79000Y156500D02*
Y161500D01*
X18000Y151000D02*
X23000D01*
X20500Y148500D02*
Y153500D01*
X26750Y148500D02*
Y153500D01*
X24250Y151000D02*
X29250D01*
X10500Y122750D02*
X15500D01*
X13000Y120250D02*
Y125250D01*
M02*
