G04*
G04 #@! TF.GenerationSoftware,Altium Limited,Altium Designer,25.0.2 (28)*
G04*
G04 Layer_Physical_Order=5*
G04 Layer_Color=16737945*
%FSLAX44Y44*%
%MOMM*%
G71*
G04*
G04 #@! TF.SameCoordinates,54A35FAF-5F68-4BCB-90B9-8CF1E0348433*
G04*
G04*
G04 #@! TF.FilePolarity,Positive*
G04*
G01*
G75*
%ADD22C,0.3500*%
%ADD39C,0.2000*%
%ADD40C,0.1500*%
%ADD41C,0.3000*%
%ADD42C,0.4000*%
G36*
X103750Y198000D02*
Y194750D01*
X100520Y192550D01*
X99843D01*
X98631Y192048D01*
X98418Y191835D01*
X97666D01*
X96964Y191696D01*
X96854Y191622D01*
X96009Y191272D01*
X95703Y191211D01*
X95374Y191146D01*
X95373Y191146D01*
X95373Y191146D01*
X94993Y190891D01*
X94778Y190748D01*
X94778Y190748D01*
X94778Y190748D01*
X94696Y190625D01*
X94079Y190008D01*
X93262Y189670D01*
X93140Y189646D01*
X92987Y189543D01*
X92817Y189472D01*
X86627Y185303D01*
X80914Y185335D01*
X80754Y185305D01*
X80592Y185309D01*
X80406Y185237D01*
X80211Y185200D01*
X80075Y185110D01*
X79924Y185052D01*
X72409Y180309D01*
X72381Y180298D01*
X72364Y180281D01*
X70060Y178827D01*
X67257Y177250D01*
X60548D01*
X60540Y178144D01*
X60469Y178486D01*
X60401Y178830D01*
X60396Y178837D01*
X60395Y178845D01*
X60198Y179133D01*
X60003Y179426D01*
X59508Y179920D01*
X59285Y180459D01*
Y181041D01*
X59495Y181548D01*
X59635Y182250D01*
Y182250D01*
X59495Y182952D01*
X59285Y183459D01*
Y184041D01*
X59495Y184548D01*
X59635Y185250D01*
Y185250D01*
X59495Y185952D01*
X59285Y186459D01*
Y187041D01*
X59495Y187548D01*
X59635Y188250D01*
Y188250D01*
X59495Y188952D01*
X59285Y189459D01*
Y190041D01*
X59451Y190442D01*
X59591Y191144D01*
X59451Y191847D01*
X59525Y192154D01*
X63296Y194261D01*
X63443Y194200D01*
X64557D01*
X65586Y194626D01*
X66374Y195414D01*
X66679Y196152D01*
X71629Y198918D01*
X103357D01*
X103750Y198000D01*
D02*
G37*
G36*
X106418Y190000D02*
Y183000D01*
X106735Y182235D01*
X111485Y177485D01*
X111485Y177485D01*
X112250Y177168D01*
X112250Y177168D01*
X116582D01*
X117548Y173368D01*
X117287Y172992D01*
X116509Y172300D01*
X115693D01*
X114663Y171874D01*
X114500Y171710D01*
X114336Y171874D01*
X113306Y172300D01*
X112192D01*
X111163Y171874D01*
X110999Y171710D01*
X110836Y171874D01*
X109806Y172300D01*
X108693D01*
X107663Y171874D01*
X106876Y171086D01*
X106449Y170057D01*
Y168943D01*
X106876Y167914D01*
X107663Y167126D01*
X108693Y166700D01*
X109806D01*
X110836Y167126D01*
X110999Y167290D01*
X111163Y167126D01*
X112192Y166700D01*
X113306D01*
X114336Y167126D01*
X114500Y167290D01*
X114663Y167126D01*
X115693Y166700D01*
X116806D01*
X117836Y167126D01*
X119234Y166729D01*
X120838Y160415D01*
X119764Y159486D01*
X119005Y159800D01*
X117494D01*
X116500Y159388D01*
X115506Y159800D01*
X113994D01*
X113000Y159388D01*
X112006Y159800D01*
X110494D01*
X109097Y159221D01*
X108028Y158153D01*
X107450Y156756D01*
Y155244D01*
X108028Y153848D01*
X109097Y152779D01*
X110494Y152200D01*
X111277D01*
X112128Y151878D01*
X112450Y151027D01*
Y150244D01*
X112965Y149000D01*
X112450Y147756D01*
Y146244D01*
X112965Y145000D01*
X112450Y143756D01*
Y142244D01*
X112965Y141000D01*
X112450Y139756D01*
Y138244D01*
X112965Y137000D01*
X112450Y135756D01*
Y134244D01*
X112965Y133000D01*
X112450Y131756D01*
Y130244D01*
X112965Y129000D01*
X112450Y127756D01*
Y126244D01*
X113028Y124847D01*
X114097Y123779D01*
X115494Y123200D01*
X117006D01*
X118250Y123715D01*
X119494Y123200D01*
X121006D01*
X121730Y123500D01*
X123000Y122717D01*
Y109140D01*
X122816Y108941D01*
X121730Y108396D01*
X120756Y108800D01*
X119244D01*
X117847Y108222D01*
X116778Y107153D01*
X116200Y105756D01*
Y104244D01*
X116778Y102847D01*
X117626Y102000D01*
X116778Y101152D01*
X116200Y99756D01*
Y98244D01*
X116778Y96847D01*
X117847Y95779D01*
X119093Y95263D01*
X119390Y94782D01*
X119686Y93930D01*
X119200Y92756D01*
Y91244D01*
X119778Y89847D01*
X120626Y89000D01*
X119778Y88153D01*
X119715Y88000D01*
X95000D01*
X93105Y89895D01*
X93588Y91208D01*
X94646Y91646D01*
X95715Y92715D01*
X96293Y94112D01*
Y95200D01*
X96756D01*
X98152Y95779D01*
X99221Y96847D01*
X99800Y98244D01*
Y99756D01*
X99221Y101152D01*
X98374Y102000D01*
X99221Y102847D01*
X99800Y104244D01*
Y105756D01*
X99221Y107153D01*
X98152Y108222D01*
X96756Y108800D01*
X95244D01*
X93847Y108222D01*
X93000Y107374D01*
X92152Y108222D01*
X90756Y108800D01*
X89244D01*
X87847Y108222D01*
X87000Y107374D01*
X86152Y108222D01*
X84756Y108800D01*
X83244D01*
X81847Y108222D01*
X81000Y107374D01*
X80153Y108222D01*
X78756Y108800D01*
X77244D01*
X75847Y108222D01*
X75313Y107687D01*
X73572Y109428D01*
X46000D01*
Y122000D01*
X59000D01*
Y153700D01*
X59456D01*
X60761Y154241D01*
X61760Y155239D01*
X62300Y156544D01*
Y157956D01*
X61843Y159060D01*
X62250Y160044D01*
Y161456D01*
X61843Y162440D01*
X62300Y163544D01*
Y164956D01*
X61868Y166000D01*
X62300Y167044D01*
Y168456D01*
X61868Y169500D01*
X62300Y170544D01*
Y171956D01*
X61760Y173261D01*
X61290Y173730D01*
X61816Y175000D01*
X67000D01*
X71000Y177250D01*
X80903Y183500D01*
X87182Y183465D01*
X93842Y187950D01*
X93906D01*
X95119Y188452D01*
X96047Y189381D01*
X96076Y189450D01*
X96406D01*
X97619Y189953D01*
X97666Y190000D01*
X106418Y190000D01*
D02*
G37*
G36*
X37143Y176162D02*
X39487Y172254D01*
Y170155D01*
X39147Y169928D01*
X39765Y169485D01*
Y161750D01*
X39487D01*
Y158495D01*
X39195Y158414D01*
X38987Y158310D01*
X38766Y158235D01*
X38265Y157946D01*
X38069Y157774D01*
X37856Y157625D01*
X37801Y157540D01*
X37726Y157474D01*
X37611Y157241D01*
X37471Y157021D01*
X37453Y156922D01*
X37409Y156832D01*
X37392Y156572D01*
X37346Y156316D01*
X37377Y154919D01*
X36664Y154624D01*
X35876Y153836D01*
X35450Y152807D01*
Y151693D01*
X35876Y150664D01*
X36664Y149876D01*
X37190Y149658D01*
X37165Y149530D01*
Y147538D01*
X36164Y147124D01*
X35376Y146336D01*
X34950Y145307D01*
Y144193D01*
X34505Y143528D01*
X34330D01*
X33117Y143025D01*
X32189Y142097D01*
X31686Y140884D01*
Y139571D01*
X32189Y138358D01*
X32386Y138161D01*
Y134104D01*
X30332Y132050D01*
X30294D01*
X28989Y131510D01*
X27991Y130511D01*
X27450Y129206D01*
Y127794D01*
X27991Y126489D01*
X28989Y125491D01*
X30294Y124950D01*
X31706D01*
X33011Y125491D01*
X34009Y126489D01*
X34550Y127794D01*
Y128914D01*
X35730Y130094D01*
X37000Y129568D01*
Y93624D01*
X36529Y93153D01*
X35950Y91756D01*
Y90244D01*
X36529Y88848D01*
X37000Y88376D01*
Y83500D01*
X50665Y69835D01*
Y64452D01*
X49681Y63469D01*
X49062Y62543D01*
X48845Y61450D01*
Y48989D01*
X49062Y47896D01*
X49681Y46970D01*
X50645Y46006D01*
Y43250D01*
X50665Y43151D01*
Y39167D01*
X50696Y39010D01*
X50693Y38849D01*
X50905Y37644D01*
X50920Y37606D01*
X50921Y37565D01*
X51000Y37385D01*
Y1082D01*
X1150D01*
Y111713D01*
X12663Y155832D01*
X12689Y155864D01*
X13355Y156253D01*
X13888Y156358D01*
X14107Y156336D01*
X14276Y156266D01*
X14710Y155994D01*
X14855Y155939D01*
X14983Y155852D01*
X15186Y155812D01*
X15379Y155739D01*
X15534Y155743D01*
X15686Y155713D01*
X15888Y155753D01*
X16095Y155759D01*
X16236Y155822D01*
X16388Y155852D01*
X16449Y155878D01*
X16526D01*
X16736Y155965D01*
X17341D01*
X17971Y155704D01*
X18454Y155221D01*
X18715Y154591D01*
Y153909D01*
X18422Y153202D01*
X18282Y152500D01*
X18422Y151798D01*
X18715Y151091D01*
Y150409D01*
X18422Y149702D01*
X18282Y149000D01*
X18422Y148298D01*
X18715Y147591D01*
Y146909D01*
X18422Y146202D01*
X18282Y145500D01*
X18422Y144798D01*
X18715Y144091D01*
Y143393D01*
X18705Y143377D01*
X18678Y143219D01*
X18615Y143061D01*
X18613Y143050D01*
X18616Y142884D01*
X18585Y142731D01*
X18590Y142707D01*
X18584Y142671D01*
X18622Y142505D01*
X18624Y142334D01*
X18698Y142164D01*
X18725Y142029D01*
X18732Y142018D01*
X18742Y141973D01*
X19430Y140430D01*
X19624Y140157D01*
X19809Y139879D01*
X19830Y139865D01*
X19844Y139845D01*
X20127Y139667D01*
X20404Y139481D01*
X20548Y139422D01*
X21250Y139282D01*
X21952Y139422D01*
X22659Y139715D01*
X23432D01*
X23567Y139658D01*
X23750Y139658D01*
X23930Y139622D01*
X24105Y139657D01*
X24283Y139656D01*
X25553Y139905D01*
X25723Y139975D01*
X25902Y140011D01*
X26050Y140110D01*
X26215Y140177D01*
X26345Y140307D01*
X26498Y140408D01*
X26597Y140557D01*
X26723Y140682D01*
X26794Y140851D01*
X26896Y141004D01*
X27423Y142277D01*
X27460Y142332D01*
X27600Y143035D01*
X27460Y143737D01*
X27460Y143737D01*
X27285Y144159D01*
Y144841D01*
X27578Y145548D01*
X27718Y146250D01*
X27578Y146952D01*
X27285Y147659D01*
Y148341D01*
X27578Y149048D01*
X27718Y149750D01*
X27578Y150452D01*
X27285Y151159D01*
Y151841D01*
X27681Y152796D01*
X27696Y152818D01*
X27835Y153520D01*
Y162000D01*
X27696Y162702D01*
X27298Y163298D01*
X26702Y163696D01*
X26000Y163835D01*
X24362D01*
X24359Y163835D01*
X24356Y163835D01*
X24014Y163766D01*
X23660Y163696D01*
X23657Y163694D01*
X23654Y163693D01*
X23361Y163496D01*
X23064Y163298D01*
X23063Y163295D01*
X23060Y163293D01*
X23058Y163290D01*
X22393Y162626D01*
X21855Y162403D01*
X21272D01*
X20734Y162626D01*
X20264Y163095D01*
X19669Y163493D01*
X18966Y163633D01*
X18264Y163493D01*
X17802Y163302D01*
X17119D01*
X16388Y163605D01*
X16042Y163673D01*
X15696Y163744D01*
X15691Y163743D01*
X15686Y163744D01*
X15339Y163675D01*
X15315Y163671D01*
X14215Y164501D01*
X15987Y171507D01*
X16406Y171728D01*
X17426Y172018D01*
X18193Y171700D01*
X19307D01*
X20336Y172126D01*
X21124Y172914D01*
X21550Y173943D01*
Y175057D01*
X21202Y175898D01*
X21598Y176906D01*
X21750Y177168D01*
X22515Y177485D01*
X23531Y178500D01*
X24950D01*
Y178443D01*
X25376Y177414D01*
X26164Y176626D01*
X27193Y176200D01*
X28307D01*
X29336Y176626D01*
X30124Y177414D01*
X30550Y178443D01*
Y178500D01*
X34805D01*
X37143Y176162D01*
D02*
G37*
G36*
X26000Y153520D02*
X25991Y153511D01*
X25450Y152206D01*
Y150794D01*
X25882Y149750D01*
X25450Y148706D01*
Y147294D01*
X25882Y146250D01*
X25450Y145206D01*
Y143794D01*
X25764Y143035D01*
X25740Y143011D01*
X25200Y141706D01*
X23930Y141457D01*
X23706Y141550D01*
X22294D01*
X21250Y141118D01*
X21107Y141177D01*
X20419Y142720D01*
X20420Y142731D01*
X20550Y143044D01*
Y144456D01*
X20118Y145500D01*
X20550Y146544D01*
Y147956D01*
X20118Y149000D01*
X20550Y150044D01*
Y151456D01*
X20118Y152500D01*
X20550Y153544D01*
Y154956D01*
X20010Y156261D01*
X19011Y157260D01*
X17706Y157800D01*
X16294D01*
X15686Y157548D01*
X14416Y158345D01*
Y161391D01*
X15686Y161909D01*
X16754Y161467D01*
X18167D01*
X18966Y161798D01*
X19694Y161070D01*
X20907Y160567D01*
X22220D01*
X23433Y161070D01*
X24361Y161998D01*
X24362Y162000D01*
X26000D01*
Y153520D01*
D02*
G37*
G36*
X56600Y192300D02*
X57756Y191144D01*
X57450Y190406D01*
Y189094D01*
X57800Y188250D01*
X57450Y187407D01*
Y186094D01*
X57800Y185250D01*
X57450Y184406D01*
Y183094D01*
X57800Y182250D01*
X57450Y181406D01*
Y180093D01*
X57952Y178881D01*
X58705Y178128D01*
X58722Y176202D01*
X57380Y174525D01*
X56739Y174259D01*
X55740Y173261D01*
X55200Y171956D01*
Y170544D01*
X55600Y169578D01*
Y169422D01*
X55200Y168456D01*
Y167044D01*
X55600Y166078D01*
Y165922D01*
X55200Y164956D01*
Y163544D01*
X55600Y162578D01*
Y162543D01*
X55150Y161456D01*
Y160044D01*
X55207Y159907D01*
X53995Y158695D01*
X52906Y158780D01*
X52150Y159844D01*
Y161256D01*
X51718Y162300D01*
X52150Y163344D01*
Y164756D01*
X51718Y165800D01*
X52150Y166844D01*
Y168256D01*
X51718Y169300D01*
X52150Y170344D01*
Y171756D01*
X51610Y173061D01*
X50611Y174059D01*
X49306Y174600D01*
X47894D01*
X46589Y174059D01*
X45591Y173061D01*
X45050Y171756D01*
Y170344D01*
X45483Y169300D01*
X45050Y168256D01*
Y166844D01*
X45483Y165800D01*
X45050Y164756D01*
Y163344D01*
X45483Y162300D01*
X45050Y161256D01*
Y159844D01*
X45164Y159570D01*
X44323Y158300D01*
X41600D01*
Y165061D01*
X41800Y165544D01*
Y166956D01*
X41600Y167439D01*
Y172300D01*
X38600Y177300D01*
X33600Y182300D01*
Y198918D01*
X56600D01*
Y192300D01*
D02*
G37*
G36*
X59378Y172755D02*
X59633Y172663D01*
X59925Y172491D01*
X59986Y172443D01*
X59993Y172432D01*
X60204Y172221D01*
X60465Y171591D01*
Y170909D01*
X60172Y170202D01*
X60032Y169500D01*
X60172Y168798D01*
X60465Y168091D01*
Y167409D01*
X60172Y166702D01*
X60032Y166000D01*
X60172Y165298D01*
X60465Y164591D01*
Y163909D01*
X60147Y163142D01*
X60007Y162440D01*
Y162440D01*
X60147Y161737D01*
X60415Y161091D01*
Y160409D01*
X60147Y159763D01*
X60007Y159060D01*
X60147Y158358D01*
X60465Y157591D01*
Y156909D01*
X60204Y156279D01*
X59721Y155796D01*
X59091Y155535D01*
X59000D01*
X58298Y155396D01*
X57702Y154998D01*
X57305Y154402D01*
X57165Y153700D01*
Y123835D01*
X46000D01*
X45298Y123696D01*
X44702Y123298D01*
X44304Y122702D01*
X44165Y122000D01*
Y109428D01*
X44304Y108725D01*
X44702Y108130D01*
X45298Y107732D01*
X46000Y107592D01*
X72812D01*
X74015Y106389D01*
X74611Y105991D01*
X75313Y105852D01*
X76015Y105991D01*
X76611Y106389D01*
X76887Y106666D01*
X77609Y106965D01*
X78391D01*
X79113Y106666D01*
X79702Y106076D01*
X80298Y105679D01*
X81000Y105539D01*
X81702Y105679D01*
X82298Y106076D01*
X82887Y106666D01*
X83609Y106965D01*
X84391D01*
X85113Y106666D01*
X85702Y106076D01*
X86298Y105679D01*
X87000Y105539D01*
X87702Y105679D01*
X88298Y106076D01*
X88887Y106666D01*
X89609Y106965D01*
X90391D01*
X91113Y106666D01*
X91702Y106076D01*
X92298Y105679D01*
X93000Y105539D01*
X93702Y105679D01*
X94298Y106076D01*
X94887Y106666D01*
X95609Y106965D01*
X96391D01*
X97113Y106666D01*
X97666Y106113D01*
X97965Y105391D01*
Y104609D01*
X97666Y103887D01*
X97076Y103298D01*
X96678Y102702D01*
X96539Y102000D01*
X96678Y101298D01*
X97076Y100702D01*
X97666Y100113D01*
X97965Y99391D01*
Y98609D01*
X97666Y97887D01*
X97113Y97334D01*
X96391Y97035D01*
X96293D01*
X95591Y96896D01*
X94996Y96498D01*
X94598Y95902D01*
X94458Y95200D01*
Y94477D01*
X94159Y93755D01*
X93606Y93202D01*
X92886Y92904D01*
X92854Y92883D01*
X92817Y92874D01*
X92557Y92684D01*
X92290Y92506D01*
X92269Y92474D01*
X92238Y92452D01*
X92071Y92178D01*
X91892Y91910D01*
X91885Y91873D01*
X91865Y91841D01*
X91383Y90527D01*
X91333Y90210D01*
X91270Y89895D01*
X91278Y89857D01*
X91272Y89820D01*
X91347Y89507D01*
X91410Y89192D01*
X91431Y89161D01*
X91440Y89124D01*
X91629Y88864D01*
X91808Y88597D01*
X93702Y86702D01*
X94298Y86305D01*
X95000Y86165D01*
X95815D01*
X95989Y85990D01*
X97294Y85450D01*
X98706D01*
X100000Y85986D01*
X101294Y85450D01*
X102706D01*
X104000Y85986D01*
X105294Y85450D01*
X106706D01*
X108000Y85986D01*
X109294Y85450D01*
X110706D01*
X112000Y85986D01*
X113294Y85450D01*
X114706D01*
X116011Y85990D01*
X116185Y86165D01*
X119715D01*
X120418Y86305D01*
X121013Y86702D01*
X121193Y86972D01*
X121924Y87702D01*
X122322Y88298D01*
X122461Y89000D01*
X122322Y89702D01*
X121924Y90298D01*
X121334Y90887D01*
X121035Y91609D01*
Y92391D01*
X121382Y93228D01*
X121442Y93528D01*
X121519Y93825D01*
X121511Y93877D01*
X121522Y93930D01*
X121462Y94230D01*
X121419Y94534D01*
X121123Y95386D01*
X121021Y95559D01*
X120951Y95747D01*
X120654Y96227D01*
X120509Y96383D01*
X120390Y96560D01*
X120267Y96643D01*
X120166Y96751D01*
X119972Y96840D01*
X119795Y96958D01*
X118887Y97334D01*
X118334Y97887D01*
X118035Y98609D01*
Y99391D01*
X118334Y100113D01*
X118924Y100702D01*
X119321Y101298D01*
X119461Y102000D01*
X119321Y102702D01*
X118924Y103298D01*
X118334Y103887D01*
X118035Y104609D01*
Y105391D01*
X118334Y106113D01*
X118887Y106666D01*
X119609Y106965D01*
X120391D01*
X121028Y106701D01*
X121093Y106688D01*
X121152Y106655D01*
X121442Y106618D01*
X121730Y106561D01*
X121796Y106574D01*
X121862Y106566D01*
X122145Y106644D01*
X122432Y106701D01*
X122488Y106738D01*
X122552Y106756D01*
X123639Y107300D01*
X123898Y107502D01*
X124165Y107697D01*
X124349Y107896D01*
X124517Y108171D01*
X124696Y108438D01*
X124703Y108475D01*
X124722Y108507D01*
X124773Y108825D01*
X124835Y109140D01*
Y122717D01*
X124794Y122927D01*
X124786Y123140D01*
X124724Y123274D01*
X124696Y123419D01*
X124577Y123597D01*
X124488Y123791D01*
X124380Y123892D01*
X124298Y124014D01*
X124120Y124133D01*
X123963Y124279D01*
X122693Y125062D01*
X122555Y125114D01*
X122432Y125196D01*
X122223Y125237D01*
X122022Y125312D01*
X121875Y125307D01*
X121730Y125335D01*
X121520Y125294D01*
X121307Y125286D01*
X121173Y125224D01*
X121028Y125196D01*
X120641Y125035D01*
X119859D01*
X118952Y125411D01*
X118250Y125551D01*
X117548Y125411D01*
X116641Y125035D01*
X115859D01*
X115137Y125334D01*
X114584Y125887D01*
X114285Y126609D01*
Y127391D01*
X114661Y128298D01*
X114801Y129000D01*
X114661Y129702D01*
X114285Y130609D01*
Y131391D01*
X114661Y132298D01*
X114801Y133000D01*
X114661Y133702D01*
X114285Y134609D01*
Y135391D01*
X114661Y136298D01*
X114801Y137000D01*
X114661Y137702D01*
X114285Y138609D01*
Y139391D01*
X114661Y140298D01*
X114801Y141000D01*
X114661Y141702D01*
X114285Y142609D01*
Y143391D01*
X114661Y144298D01*
X114801Y145000D01*
X114661Y145702D01*
X114285Y146609D01*
Y147391D01*
X114661Y148298D01*
X114801Y149000D01*
X114661Y149702D01*
X114285Y150609D01*
Y151027D01*
X114221Y151351D01*
X114166Y151677D01*
X113844Y152528D01*
X113813Y152577D01*
X113801Y152632D01*
X113625Y152879D01*
X113464Y153135D01*
X113418Y153169D01*
X113385Y153215D01*
X113128Y153375D01*
X112881Y153551D01*
X112826Y153564D01*
X112777Y153594D01*
X111926Y153916D01*
X111600Y153971D01*
X111277Y154035D01*
X110859D01*
X110137Y154334D01*
X109584Y154887D01*
X109285Y155609D01*
Y156391D01*
X109584Y157113D01*
X110137Y157666D01*
X110823Y157950D01*
X110906D01*
X110942Y157965D01*
X111640D01*
X112297Y157693D01*
X113000Y157553D01*
X113702Y157693D01*
X114359Y157965D01*
X115140D01*
X115797Y157693D01*
X116500Y157553D01*
X117202Y157693D01*
X117859Y157965D01*
X118640D01*
X119062Y157790D01*
X119349Y157733D01*
X119632Y157655D01*
X119698Y157664D01*
X119764Y157651D01*
X120052Y157708D01*
X120343Y157744D01*
X120943Y157475D01*
X121504Y157103D01*
X121745Y156844D01*
X128000Y132223D01*
Y131538D01*
X130538Y122000D01*
X131846Y117082D01*
X132951Y112733D01*
X132965Y112715D01*
Y1082D01*
X57000D01*
Y23750D01*
X59000D01*
Y37750D01*
X53917D01*
X52712Y37962D01*
X52500Y39167D01*
Y48596D01*
X52797Y48690D01*
X54004Y48930D01*
X54450Y48054D01*
X54495Y47997D01*
X54521Y47929D01*
X55034Y47091D01*
X55083Y47038D01*
X55114Y46971D01*
X55691Y46177D01*
X55745Y46127D01*
X55780Y46063D01*
X56418Y45317D01*
X56476Y45271D01*
X56516Y45211D01*
X57211Y44516D01*
X57271Y44476D01*
X57316Y44418D01*
X58064Y43780D01*
X58127Y43745D01*
X58177Y43691D01*
X58971Y43114D01*
X59038Y43083D01*
X59091Y43034D01*
X59929Y42520D01*
X59997Y42495D01*
X60054Y42450D01*
X60929Y42004D01*
X61000Y41984D01*
X61060Y41944D01*
X61968Y41568D01*
X62039Y41554D01*
X62103Y41518D01*
X63037Y41215D01*
X63110Y41206D01*
X63176Y41175D01*
X64131Y40946D01*
X64204Y40943D01*
X64272Y40918D01*
X65243Y40764D01*
X65315Y40767D01*
X65386Y40747D01*
X66365Y40670D01*
X66437Y40679D01*
X66509Y40665D01*
X67491D01*
X67563Y40679D01*
X67635Y40670D01*
X68614Y40747D01*
X68685Y40767D01*
X68757Y40764D01*
X69728Y40918D01*
X69796Y40943D01*
X69869Y40946D01*
X70218Y41030D01*
X70979Y39670D01*
X70702Y39393D01*
X70304Y38798D01*
X70165Y38095D01*
Y34112D01*
X70304Y33409D01*
X70540Y32841D01*
Y32159D01*
X70304Y31591D01*
X70165Y30888D01*
Y29112D01*
X70304Y28409D01*
X70540Y27841D01*
Y27159D01*
X70304Y26591D01*
X70165Y25888D01*
Y24112D01*
X70304Y23409D01*
X70540Y22841D01*
Y22490D01*
X70680Y21788D01*
X71077Y21193D01*
X71673Y20795D01*
X72375Y20655D01*
X75275D01*
X75978Y20795D01*
X76573Y21193D01*
X76971Y21788D01*
X77110Y22490D01*
Y22841D01*
X77511Y23809D01*
X77651Y24511D01*
Y25489D01*
X77511Y26191D01*
X77110Y27159D01*
Y27841D01*
X77511Y28809D01*
X77651Y29511D01*
Y30489D01*
X77511Y31191D01*
X77110Y32159D01*
Y32841D01*
X77372Y33471D01*
X77854Y33954D01*
X78484Y34215D01*
X79166D01*
X79797Y33954D01*
X80279Y33471D01*
X80540Y32841D01*
Y32159D01*
X80150Y31218D01*
X80119Y31171D01*
X79979Y30469D01*
Y29531D01*
X80119Y28829D01*
X80150Y28782D01*
X80540Y27841D01*
Y27159D01*
X80150Y26218D01*
X80119Y26171D01*
X79979Y25469D01*
Y24531D01*
X80119Y23829D01*
X80150Y23782D01*
X80540Y22841D01*
Y22490D01*
X80680Y21788D01*
X81077Y21193D01*
X81673Y20795D01*
X82375Y20655D01*
X85275D01*
X85977Y20795D01*
X86573Y21193D01*
X86971Y21788D01*
X87110Y22490D01*
Y22841D01*
X87500Y23782D01*
X87532Y23829D01*
X87671Y24531D01*
Y25469D01*
X87532Y26171D01*
X87500Y26218D01*
X87110Y27159D01*
Y27841D01*
X87500Y28782D01*
X87532Y28829D01*
X87671Y29531D01*
Y30469D01*
X87532Y31171D01*
X87500Y31218D01*
X87110Y32159D01*
Y32841D01*
X87372Y33471D01*
X87854Y33954D01*
X88484Y34215D01*
X89166D01*
X89796Y33954D01*
X90279Y33471D01*
X90540Y32841D01*
Y32159D01*
X90139Y31191D01*
X89999Y30489D01*
Y29511D01*
X90139Y28809D01*
X90540Y27841D01*
Y27159D01*
X90139Y26191D01*
X89999Y25489D01*
Y24511D01*
X90139Y23809D01*
X90540Y22841D01*
Y21950D01*
X90680Y21248D01*
X91077Y20652D01*
X91673Y20254D01*
X92375Y20115D01*
X94531D01*
X95234Y20254D01*
X95829Y20652D01*
X96573Y21396D01*
X96971Y21992D01*
X97110Y22694D01*
Y22841D01*
X97511Y23809D01*
X97651Y24511D01*
Y25489D01*
X97511Y26191D01*
X97110Y27159D01*
Y27841D01*
X97511Y28809D01*
X97651Y29511D01*
Y30489D01*
X97511Y31191D01*
X97110Y32159D01*
Y32841D01*
X97372Y33471D01*
X97854Y33954D01*
X98389Y34175D01*
X98984Y34573D01*
X101576Y37165D01*
X110000D01*
X110702Y37304D01*
X111298Y37702D01*
X117298Y43702D01*
X117696Y44298D01*
X117835Y45000D01*
Y50500D01*
X117696Y51202D01*
X117298Y51798D01*
X115048Y54048D01*
X114452Y54446D01*
X113750Y54585D01*
X95971D01*
X95269Y54446D01*
X94673Y54048D01*
X94276Y53452D01*
X94204Y53279D01*
X93721Y52796D01*
X93091Y52535D01*
X92742D01*
X92706Y52550D01*
X92374D01*
X91754Y52807D01*
X91501Y52976D01*
X91202Y53175D01*
X90500Y53315D01*
X90500D01*
X89798Y53175D01*
X89246Y52807D01*
X88591Y52535D01*
X87909D01*
X87279Y52796D01*
X86990Y53085D01*
X86395Y53483D01*
X86300Y53502D01*
Y54656D01*
X85855Y55731D01*
Y60637D01*
X85638Y61730D01*
X85019Y62656D01*
X79855Y67820D01*
Y78519D01*
X80300Y79594D01*
Y80907D01*
X79798Y82120D01*
X78869Y83048D01*
X77656Y83550D01*
X76344D01*
X75131Y83048D01*
X74202Y82120D01*
X73700Y80907D01*
Y79594D01*
X74145Y78519D01*
Y69132D01*
X73640Y68597D01*
X72645Y68178D01*
X72032Y68432D01*
X71961Y68446D01*
X71897Y68482D01*
X70963Y68785D01*
X70890Y68794D01*
X70824Y68825D01*
X69869Y69054D01*
X69796Y69057D01*
X69728Y69082D01*
X68757Y69236D01*
X68685Y69233D01*
X68614Y69253D01*
X67635Y69330D01*
X67563Y69321D01*
X67491Y69335D01*
X66509D01*
X66437Y69321D01*
X66365Y69330D01*
X65386Y69253D01*
X65315Y69233D01*
X65243Y69236D01*
X64272Y69082D01*
X64204Y69057D01*
X64131Y69054D01*
X63176Y68825D01*
X63110Y68794D01*
X63037Y68785D01*
X62103Y68482D01*
X62039Y68446D01*
X61968Y68432D01*
X61060Y68056D01*
X61000Y68016D01*
X60929Y67996D01*
X60054Y67550D01*
X59997Y67505D01*
X59929Y67479D01*
X59091Y66966D01*
X59037Y66917D01*
X58971Y66886D01*
X58177Y66309D01*
X58127Y66255D01*
X58064Y66220D01*
X57316Y65582D01*
X57271Y65524D01*
X57211Y65484D01*
X56516Y64789D01*
X56476Y64729D01*
X56418Y64683D01*
X55780Y63937D01*
X55745Y63873D01*
X55691Y63823D01*
X55114Y63029D01*
X55083Y62962D01*
X55034Y62909D01*
X54521Y62071D01*
X54495Y62003D01*
X54450Y61946D01*
X54004Y61070D01*
X52798Y61309D01*
X52500Y61405D01*
Y70750D01*
X39000Y84250D01*
Y142237D01*
X39336Y142376D01*
X40124Y143164D01*
X40550Y144193D01*
Y145307D01*
X40124Y146336D01*
X39336Y147124D01*
X39000Y147263D01*
Y149530D01*
X39836Y149876D01*
X40624Y150664D01*
X41050Y151693D01*
Y152807D01*
X40624Y153836D01*
X39836Y154624D01*
X39213Y154882D01*
X39181Y156356D01*
X39683Y156645D01*
X40500Y156870D01*
X40898Y156604D01*
X41600Y156465D01*
X44323D01*
X44505Y156501D01*
X44689Y156502D01*
X44852Y156570D01*
X45026Y156604D01*
X45179Y156707D01*
X45350Y156779D01*
X45474Y156904D01*
X45621Y157002D01*
X45724Y157156D01*
X45854Y157287D01*
X46048Y157581D01*
X46398Y157931D01*
X46596Y158408D01*
X46694Y158557D01*
X46761Y158721D01*
X46859Y158868D01*
X46895Y159049D01*
X46965Y159220D01*
X46964Y159397D01*
X46999Y159570D01*
X46963Y159751D01*
X46962Y159936D01*
X46900Y160084D01*
Y160456D01*
X46885Y160492D01*
Y160891D01*
X47178Y161598D01*
X47318Y162300D01*
X47178Y163002D01*
X46900Y163673D01*
Y163956D01*
X46885Y163992D01*
Y164391D01*
X47178Y165098D01*
X47318Y165800D01*
X47178Y166502D01*
X46885Y167209D01*
Y167891D01*
X47178Y168598D01*
X47318Y169300D01*
X47178Y170002D01*
X46885Y170709D01*
Y171391D01*
X47147Y172021D01*
X47629Y172504D01*
X48259Y172765D01*
X48941D01*
X49571Y172504D01*
X50054Y172021D01*
X50315Y171391D01*
Y170709D01*
X50022Y170002D01*
X49882Y169300D01*
X50022Y168598D01*
X50315Y167891D01*
Y167209D01*
X50022Y166502D01*
X49882Y165800D01*
X50022Y165098D01*
X50315Y164391D01*
Y163992D01*
X50300Y163956D01*
Y163673D01*
X50022Y163002D01*
X49882Y162300D01*
X50022Y161598D01*
X50315Y160891D01*
Y160492D01*
X50300Y160456D01*
Y159144D01*
X50802Y157931D01*
X51731Y157002D01*
X52944Y156500D01*
X54257D01*
X55469Y157002D01*
X56398Y157931D01*
X56900Y159144D01*
Y159201D01*
X56902Y159204D01*
X57042Y159907D01*
Y159907D01*
X56985Y160192D01*
Y161091D01*
X57296Y161840D01*
X57435Y162543D01*
Y162578D01*
X57296Y163281D01*
X57035Y163909D01*
Y164591D01*
X57296Y165220D01*
X57435Y165922D01*
Y166078D01*
X57296Y166780D01*
X57035Y167409D01*
Y168091D01*
X57296Y168720D01*
X57435Y169422D01*
Y169578D01*
X57296Y170280D01*
X57035Y170909D01*
Y171591D01*
X57296Y172221D01*
X57779Y172704D01*
X58082Y172829D01*
X58168Y172886D01*
X58352Y172905D01*
X59378Y172755D01*
D02*
G37*
G36*
X116000Y50500D02*
Y45000D01*
X110000Y39000D01*
Y39000D01*
X100816D01*
X97686Y35871D01*
X96814Y35510D01*
X95816Y34511D01*
X95275Y33206D01*
Y31794D01*
X95816Y30489D01*
Y29511D01*
X95275Y28206D01*
Y26794D01*
X95816Y25489D01*
Y24511D01*
X95275Y23206D01*
Y22694D01*
X94531Y21950D01*
X92375D01*
Y23206D01*
X91835Y24511D01*
Y25489D01*
X92375Y26794D01*
Y28206D01*
X91835Y29511D01*
Y30489D01*
X92375Y31794D01*
Y33206D01*
X91835Y34511D01*
X90836Y35510D01*
X89531Y36050D01*
X88119D01*
X86814Y35510D01*
X85816Y34511D01*
X85275Y33206D01*
Y31794D01*
X85816Y30489D01*
X85836Y30469D01*
Y29531D01*
X85816Y29511D01*
X85275Y28206D01*
Y26794D01*
X85816Y25489D01*
X85836Y25469D01*
Y24531D01*
X85816Y24511D01*
X85275Y23206D01*
Y22490D01*
X82375D01*
Y23206D01*
X81835Y24511D01*
X81814Y24531D01*
Y25469D01*
X81835Y25489D01*
X82375Y26794D01*
Y28206D01*
X81835Y29511D01*
X81814Y29531D01*
Y30469D01*
X81835Y30489D01*
X82375Y31794D01*
Y33206D01*
X81835Y34511D01*
X80836Y35510D01*
X79531Y36050D01*
X78119D01*
X76814Y35510D01*
X75816Y34511D01*
X75275Y33206D01*
Y31794D01*
X75816Y30489D01*
Y29511D01*
X75275Y28206D01*
Y26794D01*
X75816Y25489D01*
Y24511D01*
X75275Y23206D01*
Y22490D01*
X72375D01*
Y23206D01*
X72000Y24112D01*
Y25888D01*
X72375Y26794D01*
Y28206D01*
X72000Y29112D01*
Y30888D01*
X72375Y31794D01*
Y33206D01*
X72000Y34112D01*
Y38095D01*
X85692Y51788D01*
X86239Y51241D01*
X87544Y50700D01*
X88956D01*
X90261Y51241D01*
X90500Y51480D01*
X90739Y51241D01*
X92044Y50700D01*
X93456D01*
X94761Y51241D01*
X95759Y52239D01*
X95971Y52750D01*
X113750D01*
X116000Y50500D01*
D02*
G37*
%LPC*%
G36*
X92307Y172300D02*
X91193D01*
X90164Y171874D01*
X90000Y171710D01*
X89836Y171874D01*
X88807Y172300D01*
X87693D01*
X86664Y171874D01*
X85876Y171086D01*
X85450Y170057D01*
Y168943D01*
X85876Y167914D01*
X86664Y167126D01*
X87693Y166700D01*
X88807D01*
X89836Y167126D01*
X90000Y167290D01*
X90164Y167126D01*
X91193Y166700D01*
X92307D01*
X93336Y167126D01*
X94123Y167914D01*
X94550Y168943D01*
Y170057D01*
X94123Y171086D01*
X93336Y171874D01*
X92307Y172300D01*
D02*
G37*
G36*
X72307D02*
X71193D01*
X70164Y171874D01*
X69500Y171210D01*
X68836Y171874D01*
X67807Y172300D01*
X66693D01*
X65664Y171874D01*
X64876Y171086D01*
X64450Y170057D01*
Y168943D01*
X64876Y167914D01*
X65664Y167126D01*
X66693Y166700D01*
X67807D01*
X68836Y167126D01*
X69500Y167790D01*
X70164Y167126D01*
X71193Y166700D01*
X72307D01*
X73336Y167126D01*
X74124Y167914D01*
X74550Y168943D01*
Y170057D01*
X74124Y171086D01*
X73336Y171874D01*
X72307Y172300D01*
D02*
G37*
G36*
X89557Y158300D02*
X88443D01*
X87414Y157874D01*
X87000Y157460D01*
X86586Y157874D01*
X85557Y158300D01*
X84443D01*
X83414Y157874D01*
X83000Y157460D01*
X82586Y157874D01*
X81557Y158300D01*
X80443D01*
X79414Y157874D01*
X78626Y157086D01*
X78200Y156057D01*
Y154943D01*
X78626Y153914D01*
X78790Y153750D01*
X78626Y153586D01*
X78200Y152557D01*
Y151443D01*
X78626Y150414D01*
X79414Y149626D01*
X80443Y149200D01*
X81557D01*
X82586Y149626D01*
X83000Y150040D01*
X83414Y149626D01*
X84443Y149200D01*
X85557D01*
X86586Y149626D01*
X87000Y150040D01*
X87414Y149626D01*
X88443Y149200D01*
X89557D01*
X90586Y149626D01*
X91374Y150414D01*
X91800Y151443D01*
Y152557D01*
X91374Y153586D01*
X91210Y153750D01*
X91374Y153914D01*
X91800Y154943D01*
Y156057D01*
X91374Y157086D01*
X90586Y157874D01*
X89557Y158300D01*
D02*
G37*
G36*
X67057Y159050D02*
X65943D01*
X64914Y158624D01*
X64126Y157836D01*
X63700Y156807D01*
Y155693D01*
X64126Y154664D01*
X64914Y153876D01*
X65943Y153450D01*
X67057D01*
X68086Y153876D01*
X68874Y154664D01*
X69300Y155693D01*
Y156807D01*
X68874Y157836D01*
X68086Y158624D01*
X67057Y159050D01*
D02*
G37*
G36*
X88998Y142497D02*
X87884D01*
X86855Y142071D01*
X86441Y141657D01*
X86027Y142071D01*
X84998Y142497D01*
X83884D01*
X82855Y142071D01*
X82441Y141657D01*
X82027Y142071D01*
X80998Y142497D01*
X79884D01*
X78855Y142071D01*
X78067Y141283D01*
X77641Y140254D01*
Y139140D01*
X78067Y138111D01*
X78231Y137947D01*
X78067Y137783D01*
X77641Y136754D01*
Y135640D01*
X78067Y134611D01*
X78855Y133823D01*
X79884Y133397D01*
X80998D01*
X82027Y133823D01*
X82441Y134237D01*
X82855Y133823D01*
X83884Y133397D01*
X84998D01*
X86027Y133823D01*
X86441Y134237D01*
X86855Y133823D01*
X87884Y133397D01*
X88998D01*
X90027Y133823D01*
X90815Y134611D01*
X91241Y135640D01*
Y136754D01*
X90815Y137783D01*
X90651Y137947D01*
X90815Y138111D01*
X91241Y139140D01*
Y140254D01*
X90815Y141283D01*
X90027Y142071D01*
X88998Y142497D01*
D02*
G37*
G36*
Y127497D02*
X87884D01*
X86855Y127071D01*
X86441Y126657D01*
X86027Y127071D01*
X84998Y127497D01*
X83884D01*
X82855Y127071D01*
X82441Y126657D01*
X82027Y127071D01*
X80998Y127497D01*
X79884D01*
X78855Y127071D01*
X78067Y126283D01*
X77641Y125254D01*
Y124140D01*
X78067Y123111D01*
X78855Y122323D01*
X79884Y121897D01*
X80998D01*
X82027Y122323D01*
X82441Y122737D01*
X82855Y122323D01*
X83884Y121897D01*
X84998D01*
X86027Y122323D01*
X86441Y122737D01*
X86855Y122323D01*
X87884Y121897D01*
X88998D01*
X90027Y122323D01*
X90815Y123111D01*
X91241Y124140D01*
Y125254D01*
X90815Y126283D01*
X90027Y127071D01*
X88998Y127497D01*
D02*
G37*
G36*
X13807Y142050D02*
X12693D01*
X11664Y141624D01*
X10876Y140836D01*
X10450Y139807D01*
Y138693D01*
X10876Y137664D01*
X11664Y136876D01*
X12693Y136450D01*
X13807D01*
X14836Y136876D01*
X15624Y137664D01*
X16050Y138693D01*
Y139807D01*
X15624Y140836D01*
X14836Y141624D01*
X13807Y142050D01*
D02*
G37*
G36*
X22057Y110550D02*
X20943D01*
X19914Y110124D01*
X19126Y109336D01*
X18700Y108307D01*
Y107193D01*
X19126Y106164D01*
X19914Y105376D01*
X20943Y104950D01*
X22057D01*
X23086Y105376D01*
X23874Y106164D01*
X24300Y107193D01*
Y108307D01*
X23874Y109336D01*
X23086Y110124D01*
X22057Y110550D01*
D02*
G37*
G36*
X8457Y107550D02*
X7343D01*
X6314Y107124D01*
X5526Y106336D01*
X5100Y105307D01*
Y104193D01*
X5526Y103164D01*
X6314Y102376D01*
X7343Y101950D01*
X8457D01*
X9486Y102376D01*
X10274Y103164D01*
X10700Y104193D01*
Y105307D01*
X10274Y106336D01*
X9486Y107124D01*
X8457Y107550D01*
D02*
G37*
G36*
X29057Y94800D02*
X27943D01*
X26914Y94374D01*
X26126Y93586D01*
X25700Y92557D01*
Y91443D01*
X26126Y90414D01*
X26914Y89626D01*
X27943Y89200D01*
X29057D01*
X30086Y89626D01*
X30874Y90414D01*
X31300Y91443D01*
Y92557D01*
X30874Y93586D01*
X30086Y94374D01*
X29057Y94800D01*
D02*
G37*
G36*
X22807Y86223D02*
X21693D01*
X20664Y85797D01*
X19876Y85009D01*
X19450Y83980D01*
Y82866D01*
X19876Y81837D01*
X20664Y81050D01*
X21693Y80623D01*
X22807D01*
X23836Y81050D01*
X24624Y81837D01*
X25050Y82866D01*
Y83980D01*
X24624Y85009D01*
X23836Y85797D01*
X22807Y86223D01*
D02*
G37*
G36*
X36906Y80050D02*
X35594D01*
X34381Y79548D01*
X34183Y79350D01*
X27000D01*
X26005Y79152D01*
X25161Y78588D01*
X21873Y75300D01*
X21594D01*
X20381Y74798D01*
X19452Y73869D01*
X18950Y72656D01*
Y71344D01*
X19452Y70131D01*
X20381Y69202D01*
X21594Y68700D01*
X22906D01*
X24119Y69202D01*
X25048Y70131D01*
X25550Y71344D01*
Y71623D01*
X27430Y73503D01*
X28700Y72977D01*
Y72443D01*
X29126Y71414D01*
X29914Y70626D01*
X30943Y70200D01*
X32057D01*
X33086Y70626D01*
X33874Y71414D01*
X34300Y72443D01*
Y72611D01*
X35570Y73460D01*
X35594Y73450D01*
X36906D01*
X38119Y73952D01*
X39048Y74881D01*
X39550Y76094D01*
Y77406D01*
X39048Y78619D01*
X38119Y79548D01*
X36906Y80050D01*
D02*
G37*
G36*
X16857Y58500D02*
X15743D01*
X14714Y58074D01*
X13926Y57286D01*
X13500Y56257D01*
Y55143D01*
X13926Y54114D01*
X14714Y53326D01*
X15743Y52900D01*
X16857D01*
X17886Y53326D01*
X18674Y54114D01*
X19100Y55143D01*
Y56257D01*
X18674Y57286D01*
X17886Y58074D01*
X16857Y58500D01*
D02*
G37*
G36*
X9435Y54034D02*
X8321D01*
X7292Y53608D01*
X6504Y52820D01*
X6078Y51791D01*
Y50677D01*
X6504Y49648D01*
X7292Y48860D01*
X8321Y48434D01*
X9435D01*
X10464Y48860D01*
X11252Y49648D01*
X11678Y50677D01*
Y51791D01*
X11252Y52820D01*
X10464Y53608D01*
X9435Y54034D01*
D02*
G37*
G36*
X24307Y43800D02*
X23193D01*
X22164Y43374D01*
X21376Y42586D01*
X20950Y41557D01*
Y40443D01*
X21376Y39414D01*
X22164Y38626D01*
X23193Y38200D01*
X24307D01*
X25336Y38626D01*
X26124Y39414D01*
X26550Y40443D01*
Y41557D01*
X26124Y42586D01*
X25336Y43374D01*
X24307Y43800D01*
D02*
G37*
G36*
X29307Y36550D02*
X28193D01*
X27164Y36124D01*
X26376Y35336D01*
X25950Y34307D01*
Y33193D01*
X26376Y32164D01*
X27164Y31376D01*
X28193Y30950D01*
X29307D01*
X30336Y31376D01*
X31124Y32164D01*
X31550Y33193D01*
Y34307D01*
X31124Y35336D01*
X30336Y36124D01*
X29307Y36550D01*
D02*
G37*
G36*
X57106Y95300D02*
X55694D01*
X54389Y94760D01*
X53390Y93761D01*
X52850Y92456D01*
Y91044D01*
X53390Y89739D01*
X54150Y88980D01*
Y76421D01*
X53741Y76011D01*
X53200Y74706D01*
Y73294D01*
X53741Y71989D01*
X54739Y70991D01*
X56044Y70450D01*
X57456D01*
X58761Y70991D01*
X59760Y71989D01*
X60300Y73294D01*
Y74706D01*
X59760Y76011D01*
X59350Y76421D01*
Y89400D01*
X80923D01*
X89323Y81000D01*
X89128Y80528D01*
Y79116D01*
X89668Y77811D01*
X90667Y76813D01*
X91972Y76272D01*
X93384D01*
X94689Y76813D01*
X95687Y77811D01*
X96228Y79116D01*
Y80528D01*
X95687Y81833D01*
X94689Y82832D01*
X94579Y82877D01*
X94134Y83543D01*
X83838Y93838D01*
X82995Y94402D01*
X82000Y94600D01*
X58571D01*
X58411Y94760D01*
X57106Y95300D01*
D02*
G37*
%LPD*%
D22*
X38250Y166250D02*
D03*
X48600Y167550D02*
D03*
Y171050D02*
D03*
X31000Y105750D02*
D03*
X30500Y99500D02*
D03*
X34000Y25750D02*
D03*
X36250Y41250D02*
D03*
X92678Y79822D02*
D03*
X56750Y74000D02*
D03*
X64000Y73500D02*
D03*
X56400Y91750D02*
D03*
X118000Y80000D02*
D03*
X113500D02*
D03*
X29000Y55700D02*
D03*
X59000Y38750D02*
D03*
X4750Y40500D02*
D03*
Y34500D02*
D03*
Y28500D02*
D03*
Y22500D02*
D03*
X6750Y16500D02*
D03*
X12750D02*
D03*
Y10500D02*
D03*
X18750D02*
D03*
X24750D02*
D03*
X42750Y16500D02*
D03*
X30750Y10500D02*
D03*
X36750D02*
D03*
X42750D02*
D03*
X12750Y4500D02*
D03*
X18750D02*
D03*
X24750D02*
D03*
X30750D02*
D03*
X36750D02*
D03*
X42750D02*
D03*
X48750D02*
D03*
Y10500D02*
D03*
Y16500D02*
D03*
X92750Y54250D02*
D03*
X88250D02*
D03*
X116750Y61500D02*
D03*
X111250D02*
D03*
X60000Y118000D02*
D03*
X66000D02*
D03*
X78000D02*
D03*
X84000D02*
D03*
X90000D02*
D03*
X102000D02*
D03*
X108000D02*
D03*
X120000D02*
D03*
X48000Y112000D02*
D03*
X60000D02*
D03*
X66000D02*
D03*
X78000D02*
D03*
X84000D02*
D03*
X90000D02*
D03*
X102000D02*
D03*
X108000D02*
D03*
X120000D02*
D03*
X48000Y118000D02*
D03*
X59000Y32750D02*
D03*
X114000Y112000D02*
D03*
X96000D02*
D03*
X72000D02*
D03*
X54000D02*
D03*
X114000Y118000D02*
D03*
X96000D02*
D03*
X72000D02*
D03*
X54000D02*
D03*
X114000Y93000D02*
D03*
X110000D02*
D03*
X114000Y89000D02*
D03*
X110000D02*
D03*
X106000D02*
D03*
Y93000D02*
D03*
X102000Y89000D02*
D03*
X98000D02*
D03*
X102000Y93000D02*
D03*
X98000D02*
D03*
X59000Y27750D02*
D03*
Y22750D02*
D03*
X68825Y32500D02*
D03*
Y27500D02*
D03*
Y22500D02*
D03*
X78825Y32500D02*
D03*
Y27500D02*
D03*
Y22500D02*
D03*
X98825Y32500D02*
D03*
Y27500D02*
D03*
Y22500D02*
D03*
X88825D02*
D03*
Y27500D02*
D03*
Y32500D02*
D03*
X112000Y49000D02*
D03*
X107000D02*
D03*
X102000D02*
D03*
X92000D02*
D03*
X97000D02*
D03*
X73825Y25500D02*
D03*
Y30500D02*
D03*
Y35500D02*
D03*
X83825D02*
D03*
Y30500D02*
D03*
Y25500D02*
D03*
X93825D02*
D03*
Y30500D02*
D03*
Y35500D02*
D03*
X4000Y47000D02*
D03*
X2987Y99445D02*
D03*
X3000Y86000D02*
D03*
X3500Y70000D02*
D03*
Y64000D02*
D03*
X50300Y86250D02*
D03*
X92750Y67000D02*
D03*
X115650Y163700D02*
D03*
X17460Y165016D02*
D03*
X58750Y164250D02*
D03*
Y157250D02*
D03*
X58700Y160750D02*
D03*
X58750Y171250D02*
D03*
Y167750D02*
D03*
X47000Y61500D02*
D03*
X44250Y66250D02*
D03*
X4250Y113250D02*
D03*
X27500Y117250D02*
D03*
X38250Y166250D02*
D03*
X29000Y151500D02*
D03*
Y148000D02*
D03*
Y144500D02*
D03*
X5500Y96250D02*
D03*
X12900Y108000D02*
D03*
X13000Y116500D02*
D03*
X31000Y128500D02*
D03*
X28750Y141000D02*
D03*
X26500Y138000D02*
D03*
X19500D02*
D03*
X23000D02*
D03*
X17000Y143750D02*
D03*
Y147250D02*
D03*
Y150750D02*
D03*
Y154250D02*
D03*
X48600Y160550D02*
D03*
Y157050D02*
D03*
Y164050D02*
D03*
X23250Y117250D02*
D03*
D39*
X51700Y61450D02*
X55928Y65678D01*
X53500Y43250D02*
Y47189D01*
X51700Y48989D02*
Y61450D01*
Y48989D02*
X53500Y47189D01*
X83000Y54000D02*
Y60637D01*
X77000Y66638D02*
X83000Y60637D01*
X77000Y66638D02*
Y80250D01*
D40*
X92295Y80205D02*
X92678Y79822D01*
X92295Y80205D02*
Y81705D01*
X82000Y92000D02*
X92295Y81705D01*
X56400Y92000D02*
X82000D01*
X56400Y91750D02*
X56750Y91400D01*
Y74000D02*
Y91400D01*
X31000Y129041D02*
X34986Y133027D01*
Y140228D01*
X31000Y128500D02*
Y129041D01*
X22250Y72000D02*
X27000Y76750D01*
X36250D01*
D41*
X43600Y166300D02*
D03*
Y169300D02*
D03*
Y172300D02*
D03*
Y163300D02*
D03*
Y159800D02*
D03*
X53600D02*
D03*
Y163300D02*
D03*
Y172300D02*
D03*
Y169300D02*
D03*
Y166300D02*
D03*
X52100Y174800D02*
D03*
X45100D02*
D03*
X42100D02*
D03*
X55100D02*
D03*
X53600Y177300D02*
D03*
X50600D02*
D03*
X46600D02*
D03*
X43600D02*
D03*
X40600D02*
D03*
X56600D02*
D03*
X52100Y194800D02*
D03*
X49100D02*
D03*
X46100D02*
D03*
X43100D02*
D03*
X40100D02*
D03*
X38600Y192300D02*
D03*
X41600D02*
D03*
X44600D02*
D03*
X47600D02*
D03*
X50600D02*
D03*
X37100Y194800D02*
D03*
X38600Y197300D02*
D03*
X41600D02*
D03*
X44600D02*
D03*
X47600D02*
D03*
X50600D02*
D03*
X53600D02*
D03*
X35600D02*
D03*
X77000Y80250D02*
D03*
X22250Y72000D02*
D03*
X36250Y76750D02*
D03*
X34986Y140228D02*
D03*
X71382Y146250D02*
D03*
X68381D02*
D03*
X65381D02*
D03*
X62381D02*
D03*
X68381Y150250D02*
D03*
X71382D02*
D03*
X62381Y126250D02*
D03*
Y138250D02*
D03*
X65381D02*
D03*
X68381D02*
D03*
X71382D02*
D03*
X62381Y134250D02*
D03*
X65381D02*
D03*
X68381D02*
D03*
X71382D02*
D03*
X65381Y126250D02*
D03*
X68381D02*
D03*
X71382D02*
D03*
X105000Y163750D02*
D03*
X103250Y161250D02*
D03*
X106750Y161250D02*
D03*
X108500Y163750D02*
D03*
X110250Y161250D02*
D03*
X113500Y161250D02*
D03*
X112000Y163750D02*
D03*
X90500Y163750D02*
D03*
X92250Y161250D02*
D03*
X88750Y161250D02*
D03*
X87000Y163750D02*
D03*
X85250Y161250D02*
D03*
X81750Y161250D02*
D03*
X83500Y163750D02*
D03*
X69000D02*
D03*
X70750Y161250D02*
D03*
X67250Y161250D02*
D03*
X65500Y163750D02*
D03*
X63750Y161250D02*
D03*
X65750Y180750D02*
D03*
X83000Y54000D02*
D03*
X21564Y163867D02*
D03*
X22100Y144000D02*
D03*
Y147000D02*
D03*
X22222Y149972D02*
D03*
Y152972D02*
D03*
Y155972D02*
D03*
X15870Y159178D02*
D03*
X19222Y158972D02*
D03*
X22222D02*
D03*
X63250Y191250D02*
D03*
X97500Y126250D02*
D03*
X100500D02*
D03*
X103500D02*
D03*
X97500Y134250D02*
D03*
X100500D02*
D03*
X103500D02*
D03*
X106500D02*
D03*
X97500Y138250D02*
D03*
X100500D02*
D03*
X103500D02*
D03*
X106500D02*
D03*
Y126250D02*
D03*
X97500Y150250D02*
D03*
X100500D02*
D03*
X106500Y146250D02*
D03*
X103500D02*
D03*
X100500D02*
D03*
X97500D02*
D03*
X81750Y176000D02*
D03*
X79250Y177500D02*
D03*
X81750Y179000D02*
D03*
X87750Y176000D02*
D03*
X85250Y181000D02*
D03*
X87750Y179000D02*
D03*
X90250Y177500D02*
D03*
Y180500D02*
D03*
X92750Y179000D02*
D03*
Y176000D02*
D03*
X79250Y180500D02*
D03*
X100750Y183500D02*
D03*
X101500Y186500D02*
D03*
X100500Y189250D02*
D03*
X92750Y182000D02*
D03*
X96000Y180750D02*
D03*
X99000Y179000D02*
D03*
Y176000D02*
D03*
X101500Y177500D02*
D03*
Y180500D02*
D03*
X104000Y179000D02*
D03*
Y176000D02*
D03*
X109000Y175500D02*
D03*
X112000D02*
D03*
X115000D02*
D03*
X74250Y177500D02*
D03*
X76750Y176000D02*
D03*
Y179000D02*
D03*
X71750Y175750D02*
D03*
X98250Y194250D02*
D03*
Y197250D02*
D03*
X95750Y192750D02*
D03*
Y195750D02*
D03*
X93250Y197250D02*
D03*
Y194250D02*
D03*
Y191250D02*
D03*
X90750Y192750D02*
D03*
Y195750D02*
D03*
X88250Y197250D02*
D03*
Y191250D02*
D03*
X83250D02*
D03*
X88250Y194250D02*
D03*
X85750Y195750D02*
D03*
Y192750D02*
D03*
X83250Y197250D02*
D03*
Y194250D02*
D03*
X80750Y192750D02*
D03*
X78250Y194250D02*
D03*
X80750Y195750D02*
D03*
X78250Y197250D02*
D03*
X73250D02*
D03*
X75750Y195750D02*
D03*
X73250Y194250D02*
D03*
X70750Y195750D02*
D03*
X68250Y194250D02*
D03*
X70750Y192750D02*
D03*
Y189750D02*
D03*
Y186750D02*
D03*
Y183750D02*
D03*
X68250Y191250D02*
D03*
Y188250D02*
D03*
Y185250D02*
D03*
Y182250D02*
D03*
X65750Y183750D02*
D03*
Y186750D02*
D03*
Y189750D02*
D03*
X63250Y188250D02*
D03*
Y185250D02*
D03*
Y182250D02*
D03*
X60750Y189750D02*
D03*
Y186750D02*
D03*
Y183750D02*
D03*
Y180750D02*
D03*
D42*
X43000Y72750D02*
D03*
X45250Y86650D02*
D03*
X79150Y86250D02*
D03*
X69150D02*
D03*
X129000Y80000D02*
D03*
X123000Y86000D02*
D03*
X129000D02*
D03*
X123000Y80000D02*
D03*
Y38000D02*
D03*
X92825Y10500D02*
D03*
X62825Y16500D02*
D03*
X56825D02*
D03*
Y10500D02*
D03*
Y4500D02*
D03*
X62825D02*
D03*
X74825D02*
D03*
X80825Y10500D02*
D03*
X68825D02*
D03*
X74825Y16500D02*
D03*
X98825D02*
D03*
Y4500D02*
D03*
X86825D02*
D03*
Y16500D02*
D03*
X105000Y20000D02*
D03*
Y32000D02*
D03*
Y26000D02*
D03*
X111000Y20000D02*
D03*
Y32000D02*
D03*
X117000Y26000D02*
D03*
Y14000D02*
D03*
Y8000D02*
D03*
X123000D02*
D03*
X129000D02*
D03*
X123000Y20000D02*
D03*
X129000Y14000D02*
D03*
Y20000D02*
D03*
X123000Y32000D02*
D03*
X129000Y26000D02*
D03*
Y32000D02*
D03*
X123000Y44000D02*
D03*
X129000Y38000D02*
D03*
Y44000D02*
D03*
X130000Y102000D02*
D03*
X126000Y105000D02*
D03*
Y99000D02*
D03*
X129000Y74000D02*
D03*
Y68000D02*
D03*
Y62000D02*
D03*
Y56000D02*
D03*
Y50000D02*
D03*
X123000D02*
D03*
Y56000D02*
D03*
Y62000D02*
D03*
Y68000D02*
D03*
Y74000D02*
D03*
X129000Y92000D02*
D03*
X123000D02*
D03*
X92493Y94868D02*
D03*
X120000Y99000D02*
D03*
X96000D02*
D03*
X90000D02*
D03*
X84000D02*
D03*
X78000D02*
D03*
X72000D02*
D03*
X66000D02*
D03*
X54000D02*
D03*
X48000D02*
D03*
X120000Y105000D02*
D03*
X96000D02*
D03*
X90000D02*
D03*
X84000D02*
D03*
X78000D02*
D03*
X72000D02*
D03*
X66000D02*
D03*
X60000D02*
D03*
X54000D02*
D03*
X48000D02*
D03*
X89000Y71000D02*
D03*
X127000Y122000D02*
D03*
X68881Y142250D02*
D03*
X64881D02*
D03*
X62381Y150250D02*
D03*
X68631Y130250D02*
D03*
X65131D02*
D03*
X103750D02*
D03*
X100250D02*
D03*
X94650Y163450D02*
D03*
X97750Y161750D02*
D03*
X100850Y163450D02*
D03*
X79350Y163450D02*
D03*
X76250Y161750D02*
D03*
X73150Y163450D02*
D03*
X84750Y177500D02*
D03*
X104000Y189000D02*
D03*
X104250Y182250D02*
D03*
X18750Y117250D02*
D03*
X124250Y135000D02*
D03*
X43500Y149750D02*
D03*
X41250Y139000D02*
D03*
Y131000D02*
D03*
Y123000D02*
D03*
Y115000D02*
D03*
Y107000D02*
D03*
Y99000D02*
D03*
X39750Y91000D02*
D03*
X125750Y130000D02*
D03*
X116250Y151000D02*
D03*
Y147000D02*
D03*
Y139000D02*
D03*
Y143000D02*
D03*
Y135000D02*
D03*
Y127000D02*
D03*
Y131000D02*
D03*
X120250Y151000D02*
D03*
Y143000D02*
D03*
Y139000D02*
D03*
Y147000D02*
D03*
Y131000D02*
D03*
Y127000D02*
D03*
Y135000D02*
D03*
X106500Y150250D02*
D03*
X104000Y142250D02*
D03*
X100000D02*
D03*
X52600Y135050D02*
D03*
Y127050D02*
D03*
Y131050D02*
D03*
Y147050D02*
D03*
Y139050D02*
D03*
Y143050D02*
D03*
Y151050D02*
D03*
X48600Y131050D02*
D03*
Y127050D02*
D03*
Y135050D02*
D03*
Y143050D02*
D03*
Y139050D02*
D03*
Y147050D02*
D03*
Y151050D02*
D03*
X114750Y156000D02*
D03*
X111250D02*
D03*
X118250D02*
D03*
X107000Y178000D02*
D03*
X96000Y177500D02*
D03*
M02*
