G04*
G04 #@! TF.GenerationSoftware,Altium Limited,Altium Designer,25.0.2 (28)*
G04*
G04 Layer_Color=8388736*
%FSLAX44Y44*%
%MOMM*%
G71*
G04*
G04 #@! TF.SameCoordinates,54A35FAF-5F68-4BCB-90B9-8CF1E0348433*
G04*
G04*
G04 #@! TF.FilePolarity,Positive*
G04*
G01*
G75*
%ADD10C,0.1000*%
%ADD39C,0.2000*%
D10*
X61100Y158800D02*
Y173800D01*
X36100Y158800D02*
X61100D01*
X36100Y173800D02*
X61100D01*
X36100Y158800D02*
Y173800D01*
X20650Y100100D02*
Y103400D01*
X14350D02*
X20650D01*
X14350Y100100D02*
X20650D01*
X14350D02*
Y103400D01*
X121750Y100250D02*
Y117750D01*
X112250Y100250D02*
Y117750D01*
X121750D01*
X112250Y100250D02*
X121750D01*
X108550D02*
Y117750D01*
X99050Y100250D02*
Y117750D01*
X108550D01*
X99050Y100250D02*
X108550D01*
X95350D02*
Y117750D01*
X85850Y100250D02*
Y117750D01*
X95350D01*
X85850Y100250D02*
X95350D01*
X82150D02*
Y117750D01*
X72650Y100250D02*
Y117750D01*
X82150D01*
X72650Y100250D02*
X82150D01*
X68950D02*
Y117750D01*
X59450Y100250D02*
Y117750D01*
X68950D01*
X59450Y100250D02*
X68950D01*
X55750D02*
Y117750D01*
X46250Y100250D02*
Y117750D01*
X55750D01*
X46250Y100250D02*
X55750D01*
X33650Y167350D02*
Y170650D01*
X27350D02*
X33650D01*
X27350Y167350D02*
X33650D01*
X27350D02*
Y170650D01*
X33650Y172350D02*
Y175650D01*
X27350D02*
X33650D01*
X27350Y172350D02*
X33650D01*
X27350D02*
Y175650D01*
X29100Y130950D02*
X32400D01*
X29100D02*
Y137250D01*
X32400D01*
Y130950D02*
Y137250D01*
X37150Y145350D02*
Y148650D01*
X30850D02*
X37150D01*
X30850Y145350D02*
X37150D01*
X30850D02*
Y148650D01*
X22220Y165770D02*
X34770D01*
Y157220D02*
Y165770D01*
X22230Y160430D02*
X25440Y157220D01*
X22220D02*
X34770D01*
X22220D02*
Y165770D01*
X14500Y160750D02*
X20500D01*
Y163750D01*
X14500Y160750D02*
Y163750D01*
X20500D01*
X8300Y98200D02*
X22200D01*
X8300Y89300D02*
X22200D01*
Y98200D01*
X8300Y89300D02*
Y98200D01*
X7250Y77000D02*
Y82500D01*
Y77000D02*
X17750D01*
Y82500D01*
X7250D02*
X17750D01*
X13850Y88400D02*
X20150D01*
X13850Y85100D02*
Y88400D01*
Y85100D02*
X20150D01*
Y88400D01*
X49250Y133250D02*
X66750D01*
X49250Y142750D02*
X66750D01*
Y133250D02*
Y142750D01*
X49250Y133250D02*
Y142750D01*
Y123250D02*
X66750D01*
X49250Y132750D02*
X66750D01*
Y123250D02*
Y132750D01*
X49250Y123250D02*
Y132750D01*
X73000Y163400D02*
Y168600D01*
X63000D02*
X73000D01*
X63000Y163400D02*
Y168600D01*
Y163400D02*
X73000D01*
X84000D02*
Y168600D01*
X74000D02*
X84000D01*
X74000Y163400D02*
Y168600D01*
Y163400D02*
X84000D01*
X107000Y161600D02*
X117000D01*
Y156400D02*
Y161600D01*
X107000Y156400D02*
X117000D01*
X107000D02*
Y161600D01*
Y163400D02*
X117000D01*
X107000D02*
Y168600D01*
X117000D01*
Y163400D02*
Y168600D01*
X96000Y156400D02*
X106000D01*
X96000D02*
Y161600D01*
X106000D01*
Y156400D02*
Y161600D01*
X85000Y156400D02*
X95000D01*
X85000D02*
Y161600D01*
X95000D01*
Y156400D02*
Y161600D01*
X119750Y133250D02*
Y142750D01*
X102250Y133250D02*
Y142750D01*
Y133250D02*
X119750D01*
X102250Y142750D02*
X119750D01*
Y123250D02*
Y132750D01*
X102250Y123250D02*
Y132750D01*
Y123250D02*
X119750D01*
X102250Y132750D02*
X119750D01*
X84250Y143250D02*
Y152750D01*
X101750Y143250D02*
Y152750D01*
X84250D02*
X101750D01*
X84250Y143250D02*
X101750D01*
X119750Y143250D02*
Y152750D01*
X102250Y143250D02*
Y152750D01*
Y143250D02*
X119750D01*
X102250Y152750D02*
X119750D01*
X49250Y143250D02*
Y152750D01*
X66750Y143250D02*
Y152750D01*
X49250D02*
X66750D01*
X49250Y143250D02*
X66750D01*
X84750Y133250D02*
Y142750D01*
X67250Y133250D02*
Y142750D01*
Y133250D02*
X84750D01*
X67250Y142750D02*
X84750D01*
Y143250D02*
Y152750D01*
X67250Y143250D02*
Y152750D01*
Y143250D02*
X84750D01*
X67250Y152750D02*
X84750D01*
Y123250D02*
Y132750D01*
X67250Y123250D02*
Y132750D01*
Y123250D02*
X84750D01*
X67250Y132750D02*
X84750D01*
X84250Y133250D02*
Y142750D01*
X101750Y133250D02*
Y142750D01*
X84250D02*
X101750D01*
X84250Y133250D02*
X101750D01*
X84250Y123250D02*
Y132750D01*
X101750Y123250D02*
Y132750D01*
X84250D02*
X101750D01*
X84250Y123250D02*
X101750D01*
X95000Y163400D02*
Y168600D01*
X85000D02*
X95000D01*
X85000Y163400D02*
Y168600D01*
Y163400D02*
X95000D01*
X106000D02*
Y168600D01*
X96000D02*
X106000D01*
X96000Y163400D02*
Y168600D01*
Y163400D02*
X106000D01*
X85000Y170400D02*
Y175600D01*
Y170400D02*
X95000D01*
Y175600D01*
X85000D02*
X95000D01*
X107000Y170400D02*
Y175600D01*
Y170400D02*
X117000D01*
Y175600D01*
X107000D02*
X117000D01*
X84000Y170400D02*
Y175600D01*
X74000D02*
X84000D01*
X74000Y170400D02*
Y175600D01*
Y170400D02*
X84000D01*
X96000D02*
Y175600D01*
Y170400D02*
X106000D01*
Y175600D01*
X96000D02*
X106000D01*
X63000Y170400D02*
Y175600D01*
Y170400D02*
X73000D01*
Y175600D01*
X63000D02*
X73000D01*
X63000Y156400D02*
Y161600D01*
Y156400D02*
X73000D01*
Y161600D01*
X63000D02*
X73000D01*
X74000Y156400D02*
Y161600D01*
Y156400D02*
X84000D01*
Y161600D01*
X74000D02*
X84000D01*
X24150Y146000D02*
X29350D01*
Y156000D01*
X24150D02*
X29350D01*
X24150Y146000D02*
Y156000D01*
X8250Y114000D02*
X17750D01*
X8250Y131500D02*
X17750D01*
X8250Y114000D02*
Y131500D01*
X17750Y114000D02*
Y131500D01*
D39*
X27750Y130500D02*
Y145500D01*
X18250Y130500D02*
X27750D01*
X18250D02*
Y145500D01*
X27750D01*
X18250Y130500D02*
X27750D01*
Y145500D01*
X18250D02*
X27750D01*
X18250Y130500D02*
Y145500D01*
X20750Y109250D02*
Y125250D01*
X28750D01*
Y109250D02*
Y125250D01*
X20750Y109250D02*
X28750D01*
X32500Y177000D02*
Y201000D01*
Y177000D02*
X57000D01*
Y201000D01*
X32500D02*
X57000D01*
X77000Y177000D02*
Y201000D01*
Y177000D02*
X101500D01*
Y201000D01*
X77000D02*
X101500D01*
X16192Y145500D02*
X24658D01*
X16192D02*
Y156250D01*
X24658D01*
Y145500D02*
Y156250D01*
M02*
