G04*
G04 #@! TF.GenerationSoftware,Altium Limited,Altium Designer,25.0.2 (28)*
G04*
G04 Layer_Color=32896*
%FSLAX44Y44*%
%MOMM*%
G71*
G04*
G04 #@! TF.SameCoordinates,54A35FAF-5F68-4BCB-90B9-8CF1E0348433*
G04*
G04*
G04 #@! TF.FilePolarity,Positive*
G04*
G01*
G75*
%ADD10C,0.1000*%
%ADD39C,0.2000*%
D10*
X61100Y158800D02*
Y173800D01*
X36100D02*
X61100D01*
X36100Y158800D02*
X61100D01*
X36100D02*
Y173800D01*
X56300Y84600D02*
Y87900D01*
X50000D02*
X56300D01*
X50000Y84600D02*
Y87900D01*
Y84600D02*
X56300D01*
X58400Y76250D02*
Y96250D01*
X70900D01*
X64400D02*
X70900Y89750D01*
Y76250D02*
Y96250D01*
X58400Y76250D02*
X70900D01*
X100325Y35250D02*
X100325D01*
X100325D02*
X100325D01*
X8900Y68350D02*
Y71650D01*
X2600Y68350D02*
X8900D01*
X2600Y71650D02*
X8900D01*
X2600Y68350D02*
Y71650D01*
X8900Y62350D02*
Y65650D01*
X2600Y62350D02*
X8900D01*
X2600Y65650D02*
X8900D01*
X2600Y62350D02*
Y65650D01*
X86100Y65900D02*
X89400D01*
Y59600D02*
Y65900D01*
X86100Y59600D02*
Y65900D01*
Y59600D02*
X89400D01*
X91028Y78372D02*
X94328D01*
X91028Y72072D02*
Y78372D01*
Y72072D02*
X94328D01*
Y78372D01*
X80730Y83310D02*
X82850Y85430D01*
X80720Y73080D02*
Y85430D01*
Y73080D02*
X89070D01*
Y85430D01*
X80720D02*
X89070D01*
X92900Y86100D02*
Y89400D01*
X86600Y86100D02*
X92900D01*
X86600Y89400D02*
X92900D01*
X86600Y86100D02*
Y89400D01*
X93150Y91100D02*
Y94400D01*
X86850Y91100D02*
X93150D01*
X86850Y94400D02*
X93150D01*
X86850Y91100D02*
Y94400D01*
X43600Y92650D02*
X46900D01*
X43600Y86350D02*
Y92650D01*
Y86350D02*
X46900D01*
Y92650D01*
X110250Y48250D02*
X127750D01*
X110250Y57750D02*
X127750D01*
X110250Y48250D02*
Y57750D01*
X127750Y48250D02*
Y57750D01*
X110250Y65250D02*
X127750D01*
X110250Y74750D02*
X127750D01*
X110250Y65250D02*
Y74750D01*
X127750Y65250D02*
Y74750D01*
X110250Y84250D02*
X127750D01*
X110250Y93750D02*
X127750D01*
X110250Y84250D02*
Y93750D01*
X127750Y84250D02*
Y93750D01*
X112250Y100250D02*
Y117750D01*
X121750Y100250D02*
Y117750D01*
X112250D02*
X121750D01*
X112250Y100250D02*
X121750D01*
X46250D02*
X55750D01*
X46250Y117750D02*
X55750D01*
Y100250D02*
Y117750D01*
X46250Y100250D02*
Y117750D01*
X59450Y100250D02*
X68950D01*
X59450Y117750D02*
X68950D01*
Y100250D02*
Y117750D01*
X59450Y100250D02*
Y117750D01*
X72650Y100250D02*
X82150D01*
X72650Y117750D02*
X82150D01*
Y100250D02*
Y117750D01*
X72650Y100250D02*
Y117750D01*
X99050Y100250D02*
X108550D01*
X99050Y117750D02*
X108550D01*
Y100250D02*
Y117750D01*
X99050Y100250D02*
Y117750D01*
X85850Y100250D02*
X95350D01*
X85850Y117750D02*
X95350D01*
Y100250D02*
Y117750D01*
X85850Y100250D02*
Y117750D01*
X5890Y59669D02*
X7559Y58000D01*
X8000D01*
X1500Y56250D02*
X8000D01*
X1500D02*
Y59750D01*
X8000D01*
Y56250D02*
Y59750D01*
X91081Y62140D02*
X92750Y63809D01*
Y64250D01*
X94500Y57750D02*
Y64250D01*
X91000Y57750D02*
X94500D01*
X91000D02*
Y64250D01*
X94500D01*
X5890Y77669D02*
X7559Y76000D01*
X8000D01*
X1500Y74250D02*
X8000D01*
X1500D02*
Y77750D01*
X8000D01*
Y74250D02*
Y77750D01*
X16350Y166350D02*
X19650D01*
X16350D02*
Y172650D01*
X19650Y166350D02*
Y172650D01*
X16350D02*
X19650D01*
X85000Y161600D02*
X95000D01*
X85000Y156400D02*
Y161600D01*
Y156400D02*
X95000D01*
Y161600D01*
X13750Y160000D02*
X19750D01*
X13750D02*
Y163000D01*
X19750Y160000D02*
Y163000D01*
X13750D02*
X19750D01*
X20720Y157470D02*
X29270D01*
X20720D02*
Y170020D01*
Y160690D02*
X23930Y157480D01*
X20720Y170020D02*
X29270D01*
Y157470D02*
Y170020D01*
X31600Y169150D02*
X34900D01*
Y162850D02*
Y169150D01*
X31600Y162850D02*
Y169150D01*
Y162850D02*
X34900D01*
X96250Y92750D02*
X105750D01*
X96250Y75250D02*
X105750D01*
X96250D02*
Y92750D01*
X105750Y75250D02*
Y92750D01*
X96250Y67750D02*
X105750D01*
X96250Y50250D02*
X105750D01*
X96250D02*
Y67750D01*
X105750Y50250D02*
Y67750D01*
X27500Y85750D02*
Y91250D01*
X17000Y85750D02*
X27500D01*
X17000D02*
Y91250D01*
X27500D01*
X18900Y104600D02*
Y107900D01*
X12600D02*
X18900D01*
X12600Y104600D02*
Y107900D01*
Y104600D02*
X18900D01*
X8300Y94050D02*
Y102950D01*
X22200Y94050D02*
Y102950D01*
X8300D02*
X22200D01*
X8300Y94050D02*
X22200D01*
X15400Y85900D02*
Y91100D01*
X5100Y85900D02*
X15400D01*
X5100D02*
Y91100D01*
X15400D01*
X8250Y114500D02*
Y132000D01*
X17750Y114500D02*
Y132000D01*
X8250D02*
X17750D01*
X8250Y114500D02*
X17750D01*
X22100Y145000D02*
Y155000D01*
X16900D02*
X22100D01*
X16900Y145000D02*
Y155000D01*
Y145000D02*
X22100D01*
X31600Y161900D02*
X34900D01*
Y155600D02*
Y161900D01*
X31600Y155600D02*
Y161900D01*
Y155600D02*
X34900D01*
X102250Y133250D02*
X119750D01*
X102250Y142750D02*
X119750D01*
X102250Y133250D02*
Y142750D01*
X119750Y133250D02*
Y142750D01*
X102250Y123250D02*
X119750D01*
X102250Y132750D02*
X119750D01*
X102250Y123250D02*
Y132750D01*
X119750Y123250D02*
Y132750D01*
X106000Y156385D02*
Y161585D01*
X96000Y156385D02*
X106000D01*
X96000D02*
Y161585D01*
X106000D01*
X84000Y170385D02*
Y175585D01*
X74000Y170385D02*
X84000D01*
X74000D02*
Y175585D01*
X84000D01*
Y163385D02*
Y168585D01*
X74000Y163385D02*
X84000D01*
X74000D02*
Y168585D01*
X84000D01*
X74000Y156400D02*
Y161600D01*
X84000D01*
Y156400D02*
Y161600D01*
X74000Y156400D02*
X84000D01*
X102250Y143250D02*
X119750D01*
X102250Y152750D02*
X119750D01*
X102250Y143250D02*
Y152750D01*
X119750Y143250D02*
Y152750D01*
X67250Y123250D02*
X84750D01*
X67250Y132750D02*
X84750D01*
X67250Y123250D02*
Y132750D01*
X84750Y123250D02*
Y132750D01*
X84250Y132750D02*
X101750D01*
X84250Y123250D02*
X101750D01*
Y132750D01*
X84250Y123250D02*
Y132750D01*
Y152750D02*
X101750D01*
X84250Y143250D02*
X101750D01*
Y152750D01*
X84250Y143250D02*
Y152750D01*
Y142750D02*
X101750D01*
X84250Y133250D02*
X101750D01*
Y142750D01*
X84250Y133250D02*
Y142750D01*
X67250Y143250D02*
X84750D01*
X67250Y152750D02*
X84750D01*
X67250Y143250D02*
Y152750D01*
X84750Y143250D02*
Y152750D01*
X67250Y133250D02*
X84750D01*
X67250Y142750D02*
X84750D01*
X67250Y133250D02*
Y142750D01*
X84750Y133250D02*
Y142750D01*
X49250Y152750D02*
X66750D01*
X49250Y143250D02*
X66750D01*
Y152750D01*
X49250Y143250D02*
Y152750D01*
Y132750D02*
X66750D01*
X49250Y123250D02*
X66750D01*
Y132750D01*
X49250Y123250D02*
Y132750D01*
Y142750D02*
X66750D01*
X49250Y133250D02*
X66750D01*
Y142750D01*
X49250Y133250D02*
Y142750D01*
X96000Y163385D02*
X106000D01*
Y168585D01*
X96000D02*
X106000D01*
X96000Y163385D02*
Y168585D01*
X63000Y161600D02*
X73000D01*
X63000Y156400D02*
Y161600D01*
Y156400D02*
X73000D01*
Y161600D01*
X85000Y163385D02*
X95000D01*
Y168585D01*
X85000D02*
X95000D01*
X85000Y163385D02*
Y168585D01*
X96000Y175585D02*
X106000D01*
X96000Y170385D02*
Y175585D01*
Y170385D02*
X106000D01*
Y175585D01*
X63000Y175600D02*
X73000D01*
X63000Y170400D02*
Y175600D01*
Y170400D02*
X73000D01*
Y175600D01*
X107000Y170385D02*
X117000D01*
Y175585D01*
X107000D02*
X117000D01*
X107000Y170385D02*
Y175585D01*
X85000D02*
X95000D01*
X85000Y170385D02*
Y175585D01*
Y170385D02*
X95000D01*
Y175585D01*
X63000Y163400D02*
X73000D01*
Y168600D01*
X63000D02*
X73000D01*
X63000Y163400D02*
Y168600D01*
X107000Y161585D02*
X117000D01*
X107000Y156385D02*
Y161585D01*
Y156385D02*
X117000D01*
Y161585D01*
X107000Y163385D02*
X117000D01*
Y168585D01*
X107000D02*
X117000D01*
X107000Y163385D02*
Y168585D01*
X27950Y129950D02*
X36050D01*
Y138050D01*
X33950D02*
X36050Y135950D01*
X27950Y138050D02*
X36050D01*
X27950Y129950D02*
Y138050D01*
D39*
X100325Y35250D02*
X109325Y26250D01*
X2825Y-500D02*
Y35500D01*
X109825D01*
X2825Y-500D02*
X109825D01*
Y35500D01*
X18250Y130500D02*
Y145500D01*
Y130500D02*
X27750D01*
Y145500D01*
X18250D02*
X27750D01*
X18250Y130500D02*
X27750D01*
X18250D02*
Y145500D01*
X27750D01*
Y130500D02*
Y145500D01*
X21592Y144000D02*
Y154750D01*
X30058D01*
Y144000D02*
Y154750D01*
X21592Y144000D02*
X30058D01*
X28750Y109250D02*
Y125250D01*
X20750D02*
X28750D01*
X20750Y109250D02*
Y125250D01*
Y109250D02*
X28750D01*
X32500Y201000D02*
X57000D01*
X32500Y177000D02*
Y201000D01*
Y177000D02*
X57000D01*
Y201000D01*
X101500Y177000D02*
Y201000D01*
X77000Y177000D02*
X101500D01*
X77000D02*
Y201000D01*
X101500D01*
M02*
