G04*
G04 #@! TF.GenerationSoftware,Altium Limited,Altium Designer,25.0.2 (28)*
G04*
G04 Layer_Physical_Order=3*
G04 Layer_Color=36540*
%FSLAX44Y44*%
%MOMM*%
G71*
G04*
G04 #@! TF.SameCoordinates,54A35FAF-5F68-4BCB-90B9-8CF1E0348433*
G04*
G04*
G04 #@! TF.FilePolarity,Positive*
G04*
G01*
G75*
%ADD22C,0.3500*%
%ADD40C,0.1500*%
%ADD42C,0.4000*%
G36*
X106418Y192229D02*
X106198Y192003D01*
X105218Y191526D01*
X104557Y191800D01*
X103443D01*
X102414Y191374D01*
X101626Y190586D01*
X101200Y189557D01*
Y188443D01*
X101626Y187414D01*
X102414Y186626D01*
X103443Y186200D01*
X103572D01*
X103693Y185050D01*
X102664Y184624D01*
X101876Y183836D01*
X101450Y182807D01*
Y181693D01*
X101876Y180664D01*
X102664Y179876D01*
X103333Y179599D01*
X104200Y178557D01*
Y177443D01*
X104626Y176414D01*
X105414Y175626D01*
X106443Y175200D01*
X107557D01*
X108586Y175626D01*
X109374Y176414D01*
X109800Y177443D01*
X110946Y177602D01*
X111485Y177485D01*
X112250Y177168D01*
X112250Y177168D01*
X116582D01*
X128000Y132223D01*
Y131538D01*
X131846Y117082D01*
X132951Y112733D01*
X132965Y112715D01*
Y1082D01*
X56750D01*
Y18875D01*
X52500Y47250D01*
Y49411D01*
X53700Y49649D01*
X53944Y49060D01*
X53984Y49000D01*
X54004Y48930D01*
X54450Y48054D01*
X54495Y47997D01*
X54521Y47929D01*
X55034Y47091D01*
X55083Y47038D01*
X55114Y46971D01*
X55691Y46177D01*
X55745Y46127D01*
X55780Y46063D01*
X56418Y45317D01*
X56476Y45271D01*
X56516Y45211D01*
X57211Y44516D01*
X57271Y44476D01*
X57316Y44418D01*
X58064Y43780D01*
X58127Y43745D01*
X58177Y43691D01*
X58971Y43114D01*
X59038Y43083D01*
X59091Y43034D01*
X59929Y42520D01*
X59997Y42495D01*
X60054Y42450D01*
X60929Y42004D01*
X61000Y41984D01*
X61060Y41944D01*
X61968Y41568D01*
X62039Y41554D01*
X62103Y41518D01*
X63037Y41215D01*
X63110Y41206D01*
X63176Y41175D01*
X64131Y40946D01*
X64204Y40943D01*
X64272Y40918D01*
X65243Y40764D01*
X65315Y40767D01*
X65386Y40747D01*
X66365Y40670D01*
X66437Y40679D01*
X66509Y40665D01*
X67491D01*
X67563Y40679D01*
X67635Y40670D01*
X68614Y40747D01*
X68685Y40767D01*
X68757Y40764D01*
X69728Y40918D01*
X69796Y40943D01*
X69869Y40946D01*
X70824Y41175D01*
X70890Y41206D01*
X70963Y41215D01*
X71897Y41518D01*
X71961Y41554D01*
X72032Y41568D01*
X72940Y41944D01*
X73000Y41984D01*
X73071Y42004D01*
X73946Y42450D01*
X74003Y42495D01*
X74071Y42520D01*
X74909Y43034D01*
X74963Y43083D01*
X75029Y43114D01*
X75823Y43691D01*
X75873Y43745D01*
X75937Y43780D01*
X76684Y44418D01*
X76729Y44476D01*
X76789Y44516D01*
X77484Y45211D01*
X77524Y45271D01*
X77582Y45317D01*
X78220Y46063D01*
X78255Y46127D01*
X78309Y46177D01*
X78886Y46971D01*
X78917Y47038D01*
X78966Y47091D01*
X79479Y47929D01*
X79505Y47997D01*
X79550Y48054D01*
X79996Y48930D01*
X80016Y49000D01*
X80056Y49060D01*
X80432Y49968D01*
X80446Y50039D01*
X80482Y50103D01*
X80785Y51037D01*
X80794Y51110D01*
X80824Y51176D01*
X81054Y52131D01*
X81057Y52204D01*
X81082Y52272D01*
X81236Y53243D01*
X81233Y53316D01*
X81252Y53386D01*
X81330Y54365D01*
X81321Y54437D01*
X81335Y54509D01*
Y55491D01*
X81321Y55563D01*
X81330Y55635D01*
X81252Y56614D01*
X81233Y56684D01*
X81236Y56757D01*
X81082Y57728D01*
X81057Y57796D01*
X81054Y57869D01*
X80824Y58824D01*
X80794Y58890D01*
X80785Y58963D01*
X80482Y59897D01*
X80446Y59961D01*
X80432Y60032D01*
X80056Y60940D01*
X80016Y61000D01*
X79996Y61070D01*
X79550Y61946D01*
X79505Y62003D01*
X79479Y62071D01*
X78966Y62909D01*
X78917Y62962D01*
X78886Y63029D01*
X78309Y63823D01*
X78255Y63873D01*
X78220Y63937D01*
X77582Y64683D01*
X77524Y64728D01*
X77484Y64789D01*
X76789Y65484D01*
X76729Y65524D01*
X76684Y65582D01*
X75937Y66220D01*
X75873Y66255D01*
X75823Y66309D01*
X75029Y66886D01*
X74963Y66917D01*
X74909Y66966D01*
X74071Y67479D01*
X74003Y67505D01*
X73946Y67550D01*
X73071Y67996D01*
X73000Y68015D01*
X72940Y68056D01*
X72032Y68432D01*
X71961Y68446D01*
X71897Y68482D01*
X70963Y68785D01*
X70890Y68794D01*
X70824Y68825D01*
X69869Y69054D01*
X69796Y69057D01*
X69728Y69082D01*
X68757Y69236D01*
X68685Y69233D01*
X68614Y69253D01*
X67635Y69330D01*
X67563Y69321D01*
X67491Y69335D01*
X66509D01*
X66437Y69321D01*
X66365Y69330D01*
X65386Y69253D01*
X65315Y69233D01*
X65243Y69236D01*
X64272Y69082D01*
X64204Y69057D01*
X64131Y69054D01*
X63176Y68825D01*
X63110Y68794D01*
X63037Y68785D01*
X62103Y68482D01*
X62039Y68446D01*
X61968Y68432D01*
X61060Y68056D01*
X61000Y68016D01*
X60929Y67996D01*
X60054Y67550D01*
X59997Y67505D01*
X59929Y67479D01*
X59091Y66966D01*
X59037Y66917D01*
X58971Y66886D01*
X58177Y66309D01*
X58127Y66255D01*
X58064Y66220D01*
X57316Y65582D01*
X57271Y65524D01*
X57211Y65484D01*
X56516Y64789D01*
X56476Y64729D01*
X56418Y64683D01*
X55780Y63937D01*
X55745Y63873D01*
X55691Y63823D01*
X55114Y63029D01*
X55083Y62962D01*
X55034Y62909D01*
X54521Y62071D01*
X54495Y62003D01*
X54450Y61946D01*
X54004Y61070D01*
X53984Y61000D01*
X53944Y60940D01*
X53700Y60351D01*
X52500Y60589D01*
Y71250D01*
X39000Y84750D01*
X39000Y141425D01*
X39761Y141741D01*
X40760Y142739D01*
X41300Y144044D01*
Y145456D01*
X40760Y146761D01*
X39761Y147760D01*
X39000Y148075D01*
Y149530D01*
X39836Y149876D01*
X40624Y150664D01*
X41050Y151693D01*
Y152807D01*
X40624Y153836D01*
X39836Y154624D01*
X39000Y154970D01*
Y160500D01*
X38000Y161500D01*
X38015Y161536D01*
X36250D01*
Y170344D01*
Y173500D01*
X32750Y177000D01*
X31844D01*
X31177Y177998D01*
X31300Y178294D01*
Y179706D01*
X30760Y181011D01*
X29761Y182010D01*
X28660Y182466D01*
X27582Y183000D01*
X27582Y183000D01*
Y198918D01*
X106418D01*
Y192229D01*
D02*
G37*
G36*
X24315Y177704D02*
X24525Y177364D01*
X24476Y177121D01*
Y159696D01*
X24674Y158701D01*
X25238Y157857D01*
X30803Y152292D01*
Y149097D01*
X31001Y148102D01*
X31565Y147258D01*
X31699Y147124D01*
X32500Y146250D01*
X32500D01*
X32500Y146250D01*
Y133585D01*
X29617D01*
X28915Y133446D01*
X28320Y133048D01*
X27202Y131930D01*
X26804Y131335D01*
X26665Y130633D01*
Y124941D01*
X26706Y124735D01*
X26713Y124524D01*
X26775Y124387D01*
X26804Y124239D01*
X26922Y124064D01*
X27009Y123872D01*
X28940Y121178D01*
X28940Y118619D01*
X29080Y117917D01*
X29215Y117591D01*
Y116909D01*
X29080Y116583D01*
X28940Y115881D01*
X27927Y115285D01*
X18490Y115285D01*
X18254Y115238D01*
X18014Y115223D01*
X17348Y115044D01*
X17221Y114982D01*
X17084Y114951D01*
X16903Y114825D01*
X16706Y114727D01*
X16613Y114621D01*
X16497Y114541D01*
X15857Y113871D01*
X15819Y113811D01*
X15763Y113766D01*
X15627Y113511D01*
X15472Y113267D01*
X15460Y113197D01*
X15426Y113134D01*
X14435Y109863D01*
X14409Y109595D01*
X14356Y109331D01*
X14374Y109241D01*
X14365Y109151D01*
X14443Y108893D01*
X14496Y108629D01*
X14615Y108341D01*
Y107659D01*
X14354Y107029D01*
X13644Y106319D01*
X13573Y106271D01*
X13522Y106196D01*
X13452Y106138D01*
X13325Y105900D01*
X13175Y105676D01*
X13158Y105587D01*
X13115Y105506D01*
X9352Y93089D01*
X8244Y89432D01*
X8217Y89164D01*
X8165Y88900D01*
Y53969D01*
X7292Y53608D01*
X6504Y52820D01*
X6078Y51791D01*
Y50677D01*
X6504Y49648D01*
X7292Y48860D01*
X8165Y48499D01*
Y20430D01*
X8215Y20177D01*
X8237Y19920D01*
X8284Y19828D01*
X8304Y19727D01*
X8448Y19513D01*
X8566Y19284D01*
X8645Y19218D01*
X8702Y19132D01*
X8917Y18989D01*
X9114Y18823D01*
X10384Y18122D01*
X10482Y18091D01*
X10568Y18034D01*
X10821Y17984D01*
X11066Y17905D01*
X11169Y17914D01*
X11270Y17894D01*
X11523Y17945D01*
X11780Y17966D01*
X11871Y18014D01*
X11972Y18034D01*
X12409Y18215D01*
X13091D01*
X13721Y17954D01*
X14204Y17471D01*
X14465Y16841D01*
Y16000D01*
X14605Y15298D01*
X15002Y14702D01*
X15598Y14304D01*
X16300Y14165D01*
X39200D01*
X39902Y14304D01*
X40498Y14702D01*
X40896Y15298D01*
X41035Y16000D01*
Y16841D01*
X41296Y17471D01*
X41298Y17473D01*
X41695Y18068D01*
X41835Y18770D01*
Y38184D01*
X41695Y38886D01*
X41298Y39481D01*
X40702Y39879D01*
X39432Y40405D01*
X38730Y40545D01*
X38028Y40405D01*
X37432Y40007D01*
X37221Y39796D01*
X36591Y39535D01*
X35909D01*
X35279Y39796D01*
X34796Y40279D01*
X34535Y40909D01*
Y41591D01*
X34796Y42221D01*
X35279Y42704D01*
X35909Y42965D01*
X36591D01*
X37221Y42704D01*
X37432Y42493D01*
X38028Y42095D01*
X38730Y41955D01*
X39432Y42095D01*
X40702Y42621D01*
X41298Y43019D01*
X41695Y43614D01*
X41835Y44317D01*
Y70376D01*
X41695Y71078D01*
X41354Y71589D01*
X41035Y72359D01*
Y73141D01*
X41354Y73911D01*
X41695Y74422D01*
X41835Y75124D01*
Y76619D01*
X43105Y77145D01*
X50250Y70000D01*
Y1082D01*
X1150D01*
Y111713D01*
X13000Y157125D01*
Y159697D01*
X15987Y171507D01*
X16406Y171728D01*
X17426Y172018D01*
X18193Y171700D01*
X19307D01*
X20336Y172126D01*
X21124Y172914D01*
X21550Y173943D01*
Y175057D01*
X21202Y175898D01*
X21598Y176906D01*
X21750Y177168D01*
X22515Y177485D01*
X23027Y177996D01*
X24315Y177704D01*
D02*
G37*
G36*
X36250Y92480D02*
X35950Y91756D01*
Y90244D01*
X36250Y89521D01*
Y78000D01*
X40000D01*
Y75124D01*
X39778Y74903D01*
X39200Y73506D01*
Y71994D01*
X39778Y70598D01*
X40000Y70376D01*
Y44317D01*
X38730Y43790D01*
X38261Y44260D01*
X36956Y44800D01*
X35544D01*
X34239Y44260D01*
X33240Y43261D01*
X32700Y41956D01*
Y40544D01*
X33240Y39239D01*
X34239Y38240D01*
X35544Y37700D01*
X36956D01*
X38261Y38240D01*
X38730Y38710D01*
X40000Y38184D01*
Y18770D01*
X39741Y18511D01*
X39200Y17206D01*
Y16000D01*
X16300D01*
Y17206D01*
X15760Y18511D01*
X14761Y19510D01*
X13456Y20050D01*
X12044D01*
X11270Y19729D01*
X10000Y20430D01*
Y48668D01*
X10464Y48860D01*
X11252Y49648D01*
X11678Y50677D01*
Y51791D01*
X11252Y52820D01*
X10464Y53608D01*
X10000Y53800D01*
Y88900D01*
X11108Y92557D01*
X14871Y104974D01*
X14911Y104991D01*
X15910Y105989D01*
X16450Y107294D01*
Y108706D01*
X16191Y109331D01*
X17183Y112602D01*
X17823Y113271D01*
X18490Y113450D01*
X28750Y113450D01*
X28750Y113450D01*
X29149Y113494D01*
X29885Y113809D01*
X30444Y114382D01*
X30741Y115125D01*
X30775Y115525D01*
Y115881D01*
X31050Y116544D01*
Y117956D01*
X30775Y118619D01*
X30775Y121768D01*
X28500Y124941D01*
Y130633D01*
X29617Y131750D01*
X36250D01*
Y92480D01*
D02*
G37*
%LPC*%
G36*
X96557Y180300D02*
X95443D01*
X94414Y179874D01*
X93626Y179086D01*
X93200Y178057D01*
Y176943D01*
X93626Y175914D01*
X94414Y175126D01*
X95443Y174700D01*
X96557D01*
X97586Y175126D01*
X98374Y175914D01*
X98800Y176943D01*
Y178057D01*
X98374Y179086D01*
X97586Y179874D01*
X96557Y180300D01*
D02*
G37*
G36*
X85307D02*
X84193D01*
X83164Y179874D01*
X82376Y179086D01*
X81950Y178057D01*
Y176943D01*
X82376Y175914D01*
X83164Y175126D01*
X84193Y174700D01*
X85307D01*
X86336Y175126D01*
X87124Y175914D01*
X87550Y176943D01*
Y178057D01*
X87124Y179086D01*
X86336Y179874D01*
X85307Y180300D01*
D02*
G37*
G36*
X79907Y166250D02*
X78793D01*
X77764Y165824D01*
X76976Y165036D01*
X76834Y164692D01*
X75666D01*
X75524Y165036D01*
X74736Y165824D01*
X73707Y166250D01*
X72593D01*
X71564Y165824D01*
X70776Y165036D01*
X70350Y164007D01*
Y162893D01*
X70776Y161864D01*
X71564Y161076D01*
X72593Y160650D01*
X73675D01*
X73876Y160164D01*
X74664Y159376D01*
X75693Y158950D01*
X76807D01*
X77836Y159376D01*
X78624Y160164D01*
X78825Y160650D01*
X79907D01*
X80936Y161076D01*
X81724Y161864D01*
X82150Y162893D01*
Y164007D01*
X81724Y165036D01*
X80936Y165824D01*
X79907Y166250D01*
D02*
G37*
G36*
X101407Y166250D02*
X100293D01*
X99264Y165824D01*
X98476Y165036D01*
X98334Y164692D01*
X97166D01*
X97024Y165036D01*
X96236Y165824D01*
X95207Y166250D01*
X94093D01*
X93064Y165824D01*
X92276Y165036D01*
X91850Y164007D01*
Y162893D01*
X92276Y161864D01*
X93064Y161076D01*
X94093Y160650D01*
X95175D01*
X95376Y160164D01*
X96164Y159376D01*
X97193Y158950D01*
X98307D01*
X99336Y159376D01*
X100124Y160164D01*
X100325Y160650D01*
X101407D01*
X102436Y161076D01*
X103224Y161864D01*
X103650Y162893D01*
Y164007D01*
X103224Y165036D01*
X102436Y165824D01*
X101407Y166250D01*
D02*
G37*
G36*
X116207Y166500D02*
X115093D01*
X114064Y166073D01*
X113276Y165286D01*
X112850Y164257D01*
Y163143D01*
X113276Y162114D01*
X114064Y161326D01*
X115093Y160900D01*
X116207D01*
X117236Y161326D01*
X118024Y162114D01*
X118450Y163143D01*
Y164257D01*
X118024Y165286D01*
X117236Y166073D01*
X116207Y166500D01*
D02*
G37*
G36*
X107057Y153050D02*
X105943D01*
X104914Y152624D01*
X104126Y151836D01*
X103700Y150807D01*
Y149693D01*
X104126Y148664D01*
X104914Y147876D01*
X105943Y147450D01*
X107057D01*
X108086Y147876D01*
X108874Y148664D01*
X109300Y149693D01*
Y150807D01*
X108874Y151836D01*
X108086Y152624D01*
X107057Y153050D01*
D02*
G37*
G36*
X62938D02*
X61824D01*
X60795Y152624D01*
X60008Y151836D01*
X59581Y150807D01*
Y149693D01*
X60008Y148664D01*
X60795Y147876D01*
X61824Y147450D01*
X62938D01*
X63967Y147876D01*
X64755Y148664D01*
X65181Y149693D01*
Y150807D01*
X64755Y151836D01*
X63967Y152624D01*
X62938Y153050D01*
D02*
G37*
G36*
X104557Y145050D02*
X103443D01*
X102414Y144624D01*
X102000Y144210D01*
X101586Y144624D01*
X100557Y145050D01*
X99443D01*
X98414Y144624D01*
X97626Y143836D01*
X97200Y142807D01*
Y141693D01*
X97626Y140664D01*
X98414Y139876D01*
X99443Y139450D01*
X100557D01*
X101586Y139876D01*
X102000Y140290D01*
X102414Y139876D01*
X103443Y139450D01*
X104557D01*
X105586Y139876D01*
X106374Y140664D01*
X106800Y141693D01*
Y142807D01*
X106374Y143836D01*
X105586Y144624D01*
X104557Y145050D01*
D02*
G37*
G36*
X69438D02*
X68324D01*
X67295Y144624D01*
X66881Y144210D01*
X66467Y144624D01*
X65438Y145050D01*
X64324D01*
X63295Y144624D01*
X62508Y143836D01*
X62081Y142807D01*
Y141693D01*
X62508Y140664D01*
X63295Y139876D01*
X64324Y139450D01*
X65438D01*
X66467Y139876D01*
X66881Y140290D01*
X67295Y139876D01*
X68324Y139450D01*
X69438D01*
X70468Y139876D01*
X71255Y140664D01*
X71681Y141693D01*
Y142807D01*
X71255Y143836D01*
X70468Y144624D01*
X69438Y145050D01*
D02*
G37*
G36*
X104307Y133050D02*
X103193D01*
X102164Y132624D01*
X102000Y132460D01*
X101836Y132624D01*
X100807Y133050D01*
X99693D01*
X98664Y132624D01*
X97876Y131836D01*
X97450Y130807D01*
Y129693D01*
X97876Y128664D01*
X98664Y127876D01*
X99693Y127450D01*
X100807D01*
X101836Y127876D01*
X102000Y128040D01*
X102164Y127876D01*
X103193Y127450D01*
X104307D01*
X105336Y127876D01*
X106124Y128664D01*
X106550Y129693D01*
Y130807D01*
X106124Y131836D01*
X105336Y132624D01*
X104307Y133050D01*
D02*
G37*
G36*
X69188D02*
X68074D01*
X67045Y132624D01*
X66881Y132460D01*
X66717Y132624D01*
X65688Y133050D01*
X64574D01*
X63545Y132624D01*
X62758Y131836D01*
X62331Y130807D01*
Y129693D01*
X62758Y128664D01*
X63545Y127876D01*
X64574Y127450D01*
X65688D01*
X66717Y127876D01*
X66881Y128040D01*
X67045Y127876D01*
X68074Y127450D01*
X69188D01*
X70217Y127876D01*
X71005Y128664D01*
X71431Y129693D01*
Y130807D01*
X71005Y131836D01*
X70217Y132624D01*
X69188Y133050D01*
D02*
G37*
G36*
X114557Y120800D02*
X113443D01*
X112414Y120374D01*
X111626Y119586D01*
X111200Y118557D01*
Y117443D01*
X111626Y116414D01*
X112414Y115626D01*
Y114374D01*
X111626Y113586D01*
X111200Y112557D01*
Y111443D01*
X111626Y110414D01*
X112414Y109626D01*
X113443Y109200D01*
X114557D01*
X115586Y109626D01*
X116374Y110414D01*
X116800Y111443D01*
Y112557D01*
X116374Y113586D01*
X115586Y114374D01*
Y115626D01*
X116374Y116414D01*
X116800Y117443D01*
Y118557D01*
X116374Y119586D01*
X115586Y120374D01*
X114557Y120800D01*
D02*
G37*
G36*
X96557D02*
X95443D01*
X94414Y120374D01*
X93626Y119586D01*
X93200Y118557D01*
Y117443D01*
X93626Y116414D01*
X94414Y115626D01*
Y114374D01*
X93626Y113586D01*
X93200Y112557D01*
Y111443D01*
X93626Y110414D01*
X94414Y109626D01*
X95443Y109200D01*
X96557D01*
X97586Y109626D01*
X98374Y110414D01*
X98800Y111443D01*
Y112557D01*
X98374Y113586D01*
X97586Y114374D01*
Y115626D01*
X98374Y116414D01*
X98800Y117443D01*
Y118557D01*
X98374Y119586D01*
X97586Y120374D01*
X96557Y120800D01*
D02*
G37*
G36*
X72557D02*
X71443D01*
X70414Y120374D01*
X69626Y119586D01*
X69200Y118557D01*
Y117443D01*
X69626Y116414D01*
X70414Y115626D01*
Y114374D01*
X69626Y113586D01*
X69200Y112557D01*
Y111443D01*
X69626Y110414D01*
X70414Y109626D01*
X71443Y109200D01*
X72557D01*
X73586Y109626D01*
X74374Y110414D01*
X74800Y111443D01*
Y112557D01*
X74374Y113586D01*
X73586Y114374D01*
Y115626D01*
X74374Y116414D01*
X74800Y117443D01*
Y118557D01*
X74374Y119586D01*
X73586Y120374D01*
X72557Y120800D01*
D02*
G37*
G36*
X54557D02*
X53443D01*
X52414Y120374D01*
X51626Y119586D01*
X51200Y118557D01*
Y117443D01*
X51626Y116414D01*
X52414Y115626D01*
Y114374D01*
X51626Y113586D01*
X51200Y112557D01*
Y111443D01*
X51626Y110414D01*
X52414Y109626D01*
X53443Y109200D01*
X54557D01*
X55586Y109626D01*
X56374Y110414D01*
X56800Y111443D01*
Y112557D01*
X56374Y113586D01*
X55586Y114374D01*
Y115626D01*
X56374Y116414D01*
X56800Y117443D01*
Y118557D01*
X56374Y119586D01*
X55586Y120374D01*
X54557Y120800D01*
D02*
G37*
G36*
X13807Y142050D02*
X12693D01*
X11664Y141624D01*
X10876Y140836D01*
X10450Y139807D01*
Y138693D01*
X10876Y137664D01*
X11664Y136876D01*
X12693Y136450D01*
X13807D01*
X14836Y136876D01*
X15624Y137664D01*
X16050Y138693D01*
Y139807D01*
X15624Y140836D01*
X14836Y141624D01*
X13807Y142050D01*
D02*
G37*
G36*
X8457Y107550D02*
X7343D01*
X6314Y107124D01*
X5526Y106336D01*
X5100Y105307D01*
Y104193D01*
X5526Y103164D01*
X6314Y102376D01*
X7343Y101950D01*
X8457D01*
X9486Y102376D01*
X10274Y103164D01*
X10700Y104193D01*
Y105307D01*
X10274Y106336D01*
X9486Y107124D01*
X8457Y107550D01*
D02*
G37*
G36*
X31557Y108550D02*
X30443D01*
X29414Y108124D01*
X28626Y107336D01*
X28200Y106307D01*
Y105193D01*
X28626Y104164D01*
X29414Y103376D01*
X29318Y102041D01*
X28914Y101874D01*
X28126Y101086D01*
X27700Y100057D01*
Y98943D01*
X28126Y97914D01*
X28914Y97126D01*
X29943Y96700D01*
X31057D01*
X32086Y97126D01*
X32874Y97914D01*
X33300Y98943D01*
Y100057D01*
X32874Y101086D01*
X32086Y101874D01*
X32182Y103209D01*
X32586Y103376D01*
X33374Y104164D01*
X33800Y105193D01*
Y106307D01*
X33374Y107336D01*
X32586Y108124D01*
X31557Y108550D01*
D02*
G37*
G36*
X29057Y94800D02*
X27943D01*
X26914Y94374D01*
X26126Y93586D01*
X25700Y92557D01*
Y91443D01*
X26126Y90414D01*
X26914Y89626D01*
X27943Y89200D01*
X29057D01*
X30086Y89626D01*
X30874Y90414D01*
X31300Y91443D01*
Y92557D01*
X30874Y93586D01*
X30086Y94374D01*
X29057Y94800D01*
D02*
G37*
G36*
X32057Y75800D02*
X30943D01*
X29914Y75374D01*
X29126Y74586D01*
X28700Y73557D01*
Y72443D01*
X29126Y71414D01*
X29914Y70626D01*
X30943Y70200D01*
X32057D01*
X33086Y70626D01*
X33874Y71414D01*
X34300Y72443D01*
Y73557D01*
X33874Y74586D01*
X33086Y75374D01*
X32057Y75800D01*
D02*
G37*
G36*
X29557Y58500D02*
X28443D01*
X27414Y58074D01*
X26626Y57286D01*
X26200Y56257D01*
Y55143D01*
X26626Y54114D01*
X27414Y53326D01*
X28443Y52900D01*
X29557D01*
X30586Y53326D01*
X31374Y54114D01*
X31800Y55143D01*
Y56257D01*
X31374Y57286D01*
X30586Y58074D01*
X29557Y58500D01*
D02*
G37*
G36*
X24307Y43800D02*
X23193D01*
X22164Y43374D01*
X21376Y42586D01*
X20950Y41557D01*
Y40443D01*
X21376Y39414D01*
X22164Y38626D01*
X23193Y38200D01*
X24307D01*
X25336Y38626D01*
X26124Y39414D01*
X26550Y40443D01*
Y41557D01*
X26124Y42586D01*
X25336Y43374D01*
X24307Y43800D01*
D02*
G37*
G36*
X34557Y28550D02*
X33443D01*
X32414Y28124D01*
X31626Y27336D01*
X31200Y26307D01*
Y25193D01*
X31626Y24164D01*
X32414Y23376D01*
X33443Y22950D01*
X34557D01*
X35586Y23376D01*
X36374Y24164D01*
X36800Y25193D01*
Y26307D01*
X36374Y27336D01*
X35586Y28124D01*
X34557Y28550D01*
D02*
G37*
%LPD*%
D22*
X38250Y166250D02*
D03*
X48600Y167550D02*
D03*
Y171050D02*
D03*
X36250Y41250D02*
D03*
X64000Y73500D02*
D03*
X118000Y80000D02*
D03*
X113500D02*
D03*
X59000Y38750D02*
D03*
X4750Y40500D02*
D03*
Y34500D02*
D03*
Y28500D02*
D03*
Y22500D02*
D03*
X6750Y16500D02*
D03*
X12750D02*
D03*
Y10500D02*
D03*
X18750D02*
D03*
X24750D02*
D03*
X42750Y16500D02*
D03*
X30750Y10500D02*
D03*
X36750D02*
D03*
X42750D02*
D03*
X12750Y4500D02*
D03*
X18750D02*
D03*
X24750D02*
D03*
X30750D02*
D03*
X36750D02*
D03*
X42750D02*
D03*
X48750D02*
D03*
Y10500D02*
D03*
Y16500D02*
D03*
X92750Y54250D02*
D03*
X88250D02*
D03*
X116750Y61500D02*
D03*
X111250D02*
D03*
X59000Y32750D02*
D03*
Y27750D02*
D03*
Y22750D02*
D03*
X68825Y32500D02*
D03*
Y27500D02*
D03*
Y22500D02*
D03*
X78825Y32500D02*
D03*
Y27500D02*
D03*
Y22500D02*
D03*
X98825Y32500D02*
D03*
Y27500D02*
D03*
Y22500D02*
D03*
X88825D02*
D03*
Y27500D02*
D03*
Y32500D02*
D03*
X28750Y33750D02*
D03*
X16300Y55700D02*
D03*
X4000Y47000D02*
D03*
X2987Y99445D02*
D03*
X3000Y86000D02*
D03*
X3500Y70000D02*
D03*
Y64000D02*
D03*
X50300Y86250D02*
D03*
X92750Y67000D02*
D03*
X64000Y197000D02*
D03*
X17460Y165016D02*
D03*
X58750Y164250D02*
D03*
Y157250D02*
D03*
X58700Y160750D02*
D03*
X58750Y171250D02*
D03*
Y167750D02*
D03*
X47000Y61500D02*
D03*
X44250Y66250D02*
D03*
X4250Y113250D02*
D03*
X66500Y156250D02*
D03*
X21500Y107750D02*
D03*
X27500Y117250D02*
D03*
X38250Y166250D02*
D03*
X29000Y151500D02*
D03*
Y148000D02*
D03*
Y144500D02*
D03*
X22250Y83423D02*
D03*
X5500Y96250D02*
D03*
X12900Y108000D02*
D03*
X13000Y116500D02*
D03*
X31000Y128500D02*
D03*
X37750Y144750D02*
D03*
X27750Y179000D02*
D03*
X28750Y141000D02*
D03*
X26500Y138000D02*
D03*
X19500D02*
D03*
X23000D02*
D03*
X17000Y143750D02*
D03*
Y147250D02*
D03*
Y150750D02*
D03*
Y154250D02*
D03*
X48600Y160550D02*
D03*
Y157050D02*
D03*
Y164050D02*
D03*
X23250Y117250D02*
D03*
D40*
X33403Y149097D02*
Y153369D01*
Y149097D02*
X37750Y144750D01*
X27076Y159696D02*
X33403Y153369D01*
X27076Y159696D02*
Y177121D01*
Y179000D02*
X27367Y178709D01*
Y177412D02*
Y178709D01*
X27076Y177121D02*
X27367Y177412D01*
D42*
X43000Y72750D02*
D03*
X45250Y86650D02*
D03*
X79150Y86250D02*
D03*
X69150D02*
D03*
X129000Y80000D02*
D03*
X123000Y86000D02*
D03*
X129000D02*
D03*
X123000Y80000D02*
D03*
Y38000D02*
D03*
X92825Y10500D02*
D03*
X62825Y16500D02*
D03*
X56825D02*
D03*
Y10500D02*
D03*
Y4500D02*
D03*
X62825D02*
D03*
X74825D02*
D03*
X80825Y10500D02*
D03*
X68825D02*
D03*
X74825Y16500D02*
D03*
X98825D02*
D03*
Y4500D02*
D03*
X86825D02*
D03*
Y16500D02*
D03*
X105000Y20000D02*
D03*
Y32000D02*
D03*
Y26000D02*
D03*
X111000Y20000D02*
D03*
Y32000D02*
D03*
X117000Y26000D02*
D03*
Y14000D02*
D03*
Y8000D02*
D03*
X123000D02*
D03*
X129000D02*
D03*
X123000Y20000D02*
D03*
X129000Y14000D02*
D03*
Y20000D02*
D03*
X123000Y32000D02*
D03*
X129000Y26000D02*
D03*
Y32000D02*
D03*
X123000Y44000D02*
D03*
X129000Y38000D02*
D03*
Y44000D02*
D03*
X130000Y102000D02*
D03*
X126000Y105000D02*
D03*
Y99000D02*
D03*
X89000Y152000D02*
D03*
Y155500D02*
D03*
X85000Y152000D02*
D03*
Y155500D02*
D03*
X81000D02*
D03*
Y152000D02*
D03*
X129000Y74000D02*
D03*
Y68000D02*
D03*
Y62000D02*
D03*
Y56000D02*
D03*
Y50000D02*
D03*
X123000D02*
D03*
Y56000D02*
D03*
Y62000D02*
D03*
Y68000D02*
D03*
Y74000D02*
D03*
X129000Y92000D02*
D03*
X123000D02*
D03*
X92493Y94868D02*
D03*
X120000Y99000D02*
D03*
X96000D02*
D03*
X90000D02*
D03*
X84000D02*
D03*
X78000D02*
D03*
X72000D02*
D03*
X66000D02*
D03*
X54000D02*
D03*
X48000D02*
D03*
X120000Y105000D02*
D03*
X96000D02*
D03*
X90000D02*
D03*
X84000D02*
D03*
X78000D02*
D03*
X72000D02*
D03*
X66000D02*
D03*
X60000D02*
D03*
X54000D02*
D03*
X48000D02*
D03*
X89000Y71000D02*
D03*
X127000Y122000D02*
D03*
X67250Y169500D02*
D03*
X71750D02*
D03*
X91750D02*
D03*
X18750Y117250D02*
D03*
X124250Y135000D02*
D03*
X43500Y149750D02*
D03*
X41250Y139000D02*
D03*
Y131000D02*
D03*
Y123000D02*
D03*
Y115000D02*
D03*
Y107000D02*
D03*
Y99000D02*
D03*
X39750Y91000D02*
D03*
X125750Y130000D02*
D03*
X80441Y124697D02*
D03*
X116250Y151000D02*
D03*
Y147000D02*
D03*
Y139000D02*
D03*
Y143000D02*
D03*
Y135000D02*
D03*
Y127000D02*
D03*
Y131000D02*
D03*
X120250Y151000D02*
D03*
Y143000D02*
D03*
Y139000D02*
D03*
Y147000D02*
D03*
Y131000D02*
D03*
Y127000D02*
D03*
Y135000D02*
D03*
X80441Y136197D02*
D03*
Y139697D02*
D03*
X84441D02*
D03*
Y136197D02*
D03*
Y124697D02*
D03*
X88441Y139697D02*
D03*
Y124697D02*
D03*
Y136197D02*
D03*
X52600Y135050D02*
D03*
Y127050D02*
D03*
Y131050D02*
D03*
Y147050D02*
D03*
Y139050D02*
D03*
Y143050D02*
D03*
Y151050D02*
D03*
X48600Y131050D02*
D03*
Y127050D02*
D03*
Y135050D02*
D03*
Y143050D02*
D03*
Y139050D02*
D03*
Y147050D02*
D03*
Y151050D02*
D03*
X114750Y156000D02*
D03*
X111250D02*
D03*
X118250D02*
D03*
X116250Y169500D02*
D03*
X109249D02*
D03*
X112750D02*
D03*
X88250D02*
D03*
M02*
