G04*
G04 #@! TF.GenerationSoftware,Altium Limited,Altium Designer,25.0.2 (28)*
G04*
G04 Layer_Physical_Order=2*
G04 Layer_Color=16776960*
%FSLAX44Y44*%
%MOMM*%
G71*
G04*
G04 #@! TF.SameCoordinates,54A35FAF-5F68-4BCB-90B9-8CF1E0348433*
G04*
G04*
G04 #@! TF.FilePolarity,Positive*
G04*
G01*
G75*
%ADD22C,0.3500*%
%ADD40C,0.1500*%
%ADD41C,0.3000*%
%ADD42C,0.4000*%
G36*
X103750Y198000D02*
Y194750D01*
X100887Y192800D01*
X100093D01*
X98881Y192298D01*
X98418Y191835D01*
X97586D01*
X97467Y191812D01*
X97347Y191820D01*
X97119Y191742D01*
X96884Y191696D01*
X96783Y191628D01*
X96669Y191589D01*
X96315Y191385D01*
X95807Y191249D01*
X95705Y191249D01*
X95541Y191180D01*
X95367Y191146D01*
X95214Y191043D01*
X95044Y190972D01*
X94964Y190918D01*
X94924Y190878D01*
X94873Y190852D01*
X94794Y190762D01*
X94772Y190748D01*
X94744Y190705D01*
X94673Y190625D01*
X94460Y190410D01*
X94445Y190374D01*
X94149Y190078D01*
X93815Y189885D01*
X93472Y189793D01*
X93201Y189660D01*
X92922Y189543D01*
X86627Y185303D01*
X80914Y185335D01*
X80754Y185305D01*
X80592Y185309D01*
X80406Y185237D01*
X80211Y185200D01*
X80075Y185110D01*
X79924Y185052D01*
X77647Y183615D01*
X76881Y183298D01*
X76430Y182847D01*
X75505Y182263D01*
X74381Y181798D01*
X73720Y181136D01*
X73186Y180800D01*
X73094D01*
X71881Y180298D01*
X71009Y179426D01*
X70060Y178827D01*
X67257Y177250D01*
X59900D01*
Y177956D01*
X59585Y178717D01*
Y179369D01*
X59446Y180072D01*
X59285Y180459D01*
Y181041D01*
X59446Y181428D01*
X59585Y182131D01*
Y182369D01*
X59446Y183072D01*
X59285Y183459D01*
Y184041D01*
X59446Y184428D01*
X59585Y185131D01*
Y185369D01*
X59446Y186072D01*
X59285Y186459D01*
Y187041D01*
X59446Y187428D01*
X59585Y188131D01*
Y188369D01*
X59446Y189072D01*
X59285Y189459D01*
Y190041D01*
X59446Y190428D01*
X59585Y191131D01*
Y191150D01*
X59446Y191852D01*
X59517Y192149D01*
X63296Y194261D01*
X63443Y194200D01*
X64557D01*
X65586Y194626D01*
X66374Y195414D01*
X66679Y196152D01*
X71629Y198918D01*
X103357D01*
X103750Y198000D01*
D02*
G37*
G36*
X106418Y190000D02*
Y183000D01*
X106735Y182235D01*
X111485Y177485D01*
X111485Y177485D01*
X112250Y177168D01*
X112250Y177168D01*
X116582D01*
X117548Y173365D01*
X116668Y172357D01*
X116509Y172300D01*
X115881D01*
X115169Y172109D01*
X114530Y171741D01*
X114500Y171710D01*
X114469Y171741D01*
X113830Y172109D01*
X113118Y172300D01*
X112381D01*
X111669Y172109D01*
X111030Y171741D01*
X110999Y171710D01*
X110969Y171741D01*
X110330Y172109D01*
X109618Y172300D01*
X108881D01*
X108169Y172109D01*
X107530Y171741D01*
X107009Y171219D01*
X106640Y170581D01*
X106449Y169869D01*
Y169131D01*
X106640Y168419D01*
X107009Y167781D01*
X107530Y167259D01*
X108169Y166891D01*
X108881Y166700D01*
X109618D01*
X110330Y166891D01*
X110969Y167259D01*
X110999Y167290D01*
X111030Y167259D01*
X111669Y166891D01*
X112381Y166700D01*
X113118D01*
X113830Y166891D01*
X114469Y167259D01*
X114500Y167290D01*
X114530Y167259D01*
X115169Y166891D01*
X115881Y166700D01*
X116618D01*
X117330Y166891D01*
X117812Y167169D01*
X118471Y167049D01*
X119234Y166729D01*
X120853Y160358D01*
X120519Y159946D01*
X119764Y159486D01*
X119358Y159654D01*
X118624Y159800D01*
X117875D01*
X117141Y159654D01*
X116500Y159388D01*
X115858Y159654D01*
X115124Y159800D01*
X114375D01*
X113641Y159654D01*
X113000Y159388D01*
X112358Y159654D01*
X111624Y159800D01*
X110875D01*
X110141Y159654D01*
X109450Y159368D01*
X108827Y158952D01*
X108298Y158422D01*
X107882Y157800D01*
X107596Y157108D01*
X107450Y156374D01*
Y155626D01*
X107596Y154892D01*
X107882Y154200D01*
X108298Y153578D01*
X108827Y153048D01*
X109450Y152633D01*
X110141Y152346D01*
X110875Y152200D01*
X111319D01*
X111972Y151723D01*
X112450Y151069D01*
Y150626D01*
X112596Y149892D01*
X112882Y149200D01*
X113016Y149000D01*
X112882Y148800D01*
X112596Y148108D01*
X112450Y147374D01*
Y146626D01*
X112596Y145892D01*
X112882Y145200D01*
X113016Y145000D01*
X112882Y144800D01*
X112596Y144108D01*
X112450Y143374D01*
Y142626D01*
X112596Y141892D01*
X112882Y141200D01*
X113016Y141000D01*
X112882Y140800D01*
X112596Y140108D01*
X112450Y139374D01*
Y138626D01*
X112596Y137892D01*
X112882Y137200D01*
X113016Y137000D01*
X112882Y136800D01*
X112596Y136108D01*
X112450Y135374D01*
Y134626D01*
X112596Y133892D01*
X112882Y133200D01*
X113016Y133000D01*
X112882Y132800D01*
X112596Y132108D01*
X112450Y131374D01*
Y130626D01*
X112596Y129892D01*
X112882Y129200D01*
X113016Y129000D01*
X112882Y128800D01*
X112596Y128109D01*
X112450Y127374D01*
Y126626D01*
X112596Y125892D01*
X112882Y125200D01*
X113298Y124578D01*
X113828Y124048D01*
X114450Y123632D01*
X115142Y123346D01*
X115876Y123200D01*
X116624D01*
X117358Y123346D01*
X118050Y123632D01*
X118250Y123766D01*
X118450Y123632D01*
X119142Y123346D01*
X119876Y123200D01*
X120624D01*
X121358Y123346D01*
X121730Y123500D01*
X122622Y123095D01*
X123000Y122740D01*
Y108829D01*
X121800Y108368D01*
X121108Y108654D01*
X120374Y108800D01*
X119626D01*
X118891Y108654D01*
X118200Y108368D01*
X118024Y108250D01*
X115430D01*
X115035Y108413D01*
X114349Y108550D01*
X113650D01*
X112964Y108413D01*
X112570Y108250D01*
X109430D01*
X109035Y108413D01*
X108350Y108550D01*
X107650D01*
X106964Y108413D01*
X106570Y108250D01*
X103430D01*
X103035Y108413D01*
X102350Y108550D01*
X101650D01*
X100964Y108413D01*
X100570Y108250D01*
X97976D01*
X97800Y108368D01*
X97108Y108654D01*
X96374Y108800D01*
X95626D01*
X94892Y108654D01*
X94200Y108368D01*
X94024Y108250D01*
X91976D01*
X91800Y108368D01*
X91108Y108654D01*
X90374Y108800D01*
X89626D01*
X88891Y108654D01*
X88200Y108368D01*
X88024Y108250D01*
X85976D01*
X85800Y108368D01*
X85108Y108654D01*
X84374Y108800D01*
X83626D01*
X82892Y108654D01*
X82200Y108368D01*
X82024Y108250D01*
X79976D01*
X79800Y108368D01*
X79108Y108654D01*
X78374Y108800D01*
X77626D01*
X76891Y108654D01*
X76200Y108368D01*
X76024Y108250D01*
X73976D01*
X73800Y108368D01*
X73108Y108654D01*
X72374Y108800D01*
X71626D01*
X70892Y108654D01*
X70200Y108368D01*
X70024Y108250D01*
X67976D01*
X67800Y108368D01*
X67108Y108654D01*
X66374Y108800D01*
X65626D01*
X64892Y108654D01*
X64200Y108368D01*
X64024Y108250D01*
X61976D01*
X61800Y108368D01*
X61108Y108654D01*
X60374Y108800D01*
X59626D01*
X58892Y108654D01*
X58200Y108368D01*
X58024Y108250D01*
X55976D01*
X55800Y108368D01*
X55108Y108654D01*
X54374Y108800D01*
X53626D01*
X52892Y108654D01*
X52200Y108368D01*
X52024Y108250D01*
X49976D01*
X49800Y108368D01*
X49108Y108654D01*
X48374Y108800D01*
X47626D01*
X47270Y108729D01*
X46349Y109266D01*
X46000Y109659D01*
Y122000D01*
X59000D01*
Y153700D01*
X59100D01*
X59785Y153836D01*
X60431Y154104D01*
X61013Y154493D01*
X61507Y154987D01*
X61896Y155569D01*
X62164Y156215D01*
X62300Y156901D01*
Y157600D01*
X62164Y158286D01*
X61896Y158932D01*
X61825Y159038D01*
X61846Y159068D01*
X62114Y159715D01*
X62250Y160400D01*
Y161100D01*
X62114Y161786D01*
X61846Y162432D01*
X61825Y162463D01*
X61896Y162568D01*
X62164Y163215D01*
X62300Y163900D01*
Y164600D01*
X62164Y165285D01*
X61896Y165932D01*
X61850Y166000D01*
X61896Y166068D01*
X62164Y166714D01*
X62300Y167400D01*
Y168100D01*
X62164Y168785D01*
X61896Y169431D01*
X61850Y169500D01*
X61896Y169568D01*
X62164Y170215D01*
X62300Y170900D01*
Y171600D01*
X62164Y172285D01*
X61896Y172931D01*
X61650Y173299D01*
Y174900D01*
X61750Y175000D01*
X67000D01*
X71000Y177250D01*
X80903Y183500D01*
X87182Y183465D01*
X93947Y188021D01*
X94523Y188175D01*
X95276Y188610D01*
X95890Y189224D01*
X95990Y189396D01*
X96070Y189450D01*
X96184D01*
X97023Y189675D01*
X97586Y190000D01*
X106418Y190000D01*
D02*
G37*
G36*
X23572Y177987D02*
X24458Y177672D01*
X24604Y177318D01*
X24993Y176737D01*
X25487Y176243D01*
X26068Y175854D01*
X26715Y175586D01*
X27400Y175450D01*
X27663D01*
X30064Y173049D01*
Y165896D01*
X29995Y165827D01*
X29561Y165074D01*
X29336Y164235D01*
Y163366D01*
X29561Y162527D01*
X29995Y161774D01*
X30610Y161160D01*
X31362Y160725D01*
X32201Y160501D01*
X33070D01*
X33910Y160725D01*
X34662Y161160D01*
X35277Y161774D01*
X35554Y162255D01*
X35936Y162575D01*
Y165686D01*
Y168000D01*
X40000D01*
Y160250D01*
X39487D01*
Y156132D01*
X38619Y155050D01*
X37881D01*
X37169Y154859D01*
X36531Y154490D01*
X36010Y153969D01*
X35641Y153331D01*
X35450Y152619D01*
Y151881D01*
X35641Y151169D01*
X36010Y150531D01*
X36531Y150009D01*
X37169Y149641D01*
X37881Y149450D01*
X38444Y148324D01*
X38119Y147550D01*
X37381D01*
X36669Y147359D01*
X36031Y146991D01*
X35510Y146469D01*
X35141Y145831D01*
X34950Y145119D01*
Y144381D01*
X35141Y143669D01*
X35510Y143031D01*
X36031Y142509D01*
X36669Y142141D01*
X37163Y142009D01*
X37613Y141299D01*
X37833Y140680D01*
X37596Y140108D01*
X37450Y139374D01*
Y138626D01*
X37596Y137892D01*
X37883Y137200D01*
X38003Y137020D01*
X37462Y135831D01*
X37371Y135750D01*
X37000D01*
Y93624D01*
X36799Y93422D01*
X36383Y92800D01*
X36096Y92109D01*
X35950Y91374D01*
Y90626D01*
X36096Y89892D01*
X36383Y89200D01*
X36799Y88578D01*
X37000Y88376D01*
Y83250D01*
X51000Y69250D01*
Y1082D01*
X1981D01*
X1084Y1981D01*
X1150Y111713D01*
X12781Y156288D01*
X12913Y156417D01*
X12968Y156465D01*
X13118Y156558D01*
X14214Y156749D01*
X15047Y156192D01*
X15207Y156113D01*
X15361Y156024D01*
X15419Y156009D01*
X15472Y155982D01*
X15647Y155948D01*
X15819Y155901D01*
X15879D01*
X15937Y155890D01*
X16115Y155901D01*
X16293D01*
X16351Y155917D01*
X16410Y155921D01*
X16579Y155978D01*
X16603Y155984D01*
X17345D01*
X17982Y155720D01*
X17987Y155716D01*
X18363Y155428D01*
X18395Y155414D01*
X18735Y154595D01*
Y153905D01*
X18440Y153195D01*
X18318Y152737D01*
Y152500D01*
Y152263D01*
X18440Y151805D01*
X18735Y151095D01*
Y150405D01*
X18440Y149695D01*
X18318Y149237D01*
Y149000D01*
Y148763D01*
X18440Y148305D01*
X18735Y147595D01*
Y146905D01*
X18440Y146195D01*
X18318Y145737D01*
Y145500D01*
Y145263D01*
X18440Y144805D01*
X18735Y144095D01*
Y143394D01*
X18733Y143388D01*
X18723Y143370D01*
X18688Y143225D01*
X18635Y143057D01*
X18633Y143047D01*
X18630Y143005D01*
X18621Y142968D01*
Y142941D01*
X18613Y142909D01*
X18617Y142741D01*
X18609Y142573D01*
X18621Y142520D01*
Y142494D01*
X18624Y142480D01*
X18626Y142435D01*
X18673Y142274D01*
X18709Y142110D01*
X18740Y142049D01*
X18743Y142036D01*
X18745Y142034D01*
X18760Y141981D01*
X19448Y140438D01*
X19560Y140256D01*
X19666Y140072D01*
X19684Y140054D01*
X19696Y140034D01*
X19851Y139887D01*
X20001Y139737D01*
X20023Y139724D01*
X20040Y139708D01*
X20227Y139606D01*
X20412Y139500D01*
X20555Y139440D01*
X21013Y139318D01*
X21487Y139318D01*
X21945Y139440D01*
X22655Y139734D01*
X23368D01*
X23519Y139704D01*
X23693Y139657D01*
X23750D01*
X23806Y139646D01*
X23986Y139657D01*
X24167D01*
X24222Y139672D01*
X24279Y139676D01*
X25549Y139925D01*
X25720Y139982D01*
X25895Y140029D01*
X25944Y140057D01*
X25998Y140076D01*
X26149Y140175D01*
X26305Y140266D01*
X26346Y140306D01*
X26393Y140338D01*
X26513Y140473D01*
X26640Y140601D01*
X26669Y140650D01*
X26707Y140693D01*
X26787Y140855D01*
X26877Y141011D01*
X27392Y142254D01*
X27442Y142340D01*
X27473Y142455D01*
X27518Y142565D01*
X27534Y142683D01*
X27564Y142798D01*
Y142917D01*
X27580Y143035D01*
X27564Y143153D01*
Y143272D01*
X27534Y143387D01*
X27518Y143505D01*
X27473Y143615D01*
X27442Y143730D01*
X27266Y144155D01*
Y144845D01*
X27560Y145555D01*
X27682Y146013D01*
X27682Y146487D01*
X27560Y146945D01*
X27266Y147655D01*
Y148345D01*
X27560Y149055D01*
X27682Y149513D01*
X27682Y149987D01*
X27560Y150445D01*
X27266Y151155D01*
Y151845D01*
X27530Y152482D01*
X27868Y152821D01*
X28157Y153197D01*
X28338Y153635D01*
X28400Y154105D01*
Y154383D01*
X28338Y154853D01*
X28157Y155291D01*
X27868Y155667D01*
X27696Y155839D01*
X27470Y156385D01*
Y156975D01*
X27696Y157521D01*
X27868Y157693D01*
X28157Y158069D01*
X28338Y158507D01*
X28400Y158977D01*
X28338Y159447D01*
X28157Y159885D01*
X27868Y160261D01*
X23845Y164284D01*
X23819Y164304D01*
X23798Y164329D01*
X23632Y164448D01*
X23469Y164572D01*
X23439Y164585D01*
X23412Y164604D01*
X23220Y164675D01*
X23031Y164754D01*
X22999Y164758D01*
X22968Y164769D01*
X22764Y164789D01*
X22561Y164816D01*
X22529Y164811D01*
X22496Y164814D01*
X21967Y164795D01*
X20444D01*
X19974Y164734D01*
X19536Y164552D01*
X19160Y164264D01*
X18443Y163546D01*
X17805Y163282D01*
X17115D01*
X16965Y163344D01*
X16793Y163391D01*
X16624Y163448D01*
X16565Y163452D01*
X16507Y163467D01*
X16329D01*
X16151Y163479D01*
X16093Y163467D01*
X16033D01*
X15861Y163421D01*
X15687Y163386D01*
X15633Y163360D01*
X15575Y163344D01*
X15421Y163255D01*
X15261Y163177D01*
X15175Y163119D01*
X14064Y163904D01*
X15987Y171507D01*
X16276Y171716D01*
X17429Y172030D01*
X17669Y171891D01*
X18381Y171700D01*
X19119D01*
X19831Y171891D01*
X20469Y172259D01*
X20991Y172781D01*
X21359Y173419D01*
X21550Y174131D01*
Y174869D01*
X21359Y175581D01*
X21176Y175898D01*
X21614Y176999D01*
X21750Y177168D01*
X22515Y177485D01*
X23034Y178003D01*
X23572Y177987D01*
D02*
G37*
G36*
X26584Y158977D02*
X26156Y158549D01*
X25654Y157336D01*
Y156024D01*
X26156Y154811D01*
X26584Y154383D01*
Y154105D01*
X25991Y153511D01*
X25450Y152206D01*
Y150794D01*
X25882Y149750D01*
X25450Y148706D01*
Y147294D01*
X25882Y146250D01*
X25450Y145206D01*
Y143794D01*
X25764Y143035D01*
X25740Y143011D01*
X25200Y141706D01*
X23930Y141457D01*
X23706Y141550D01*
X22294D01*
X21250Y141118D01*
X21107Y141177D01*
X20419Y142720D01*
X20420Y142731D01*
X20550Y143044D01*
Y144456D01*
X20118Y145500D01*
X20550Y146544D01*
Y147956D01*
X20118Y149000D01*
X20550Y150044D01*
Y151456D01*
X20118Y152500D01*
X20550Y153544D01*
Y154956D01*
X20010Y156261D01*
X20000Y156270D01*
Y157000D01*
X19270D01*
X19011Y157260D01*
X17706Y157800D01*
X16294D01*
X16056Y157701D01*
X15000Y158407D01*
Y160819D01*
X16270Y161667D01*
X16754Y161467D01*
X18167D01*
X19471Y162007D01*
X20444Y162980D01*
X22000D01*
X22561Y163000D01*
X26584Y158977D01*
D02*
G37*
G36*
X56600Y192300D02*
X57750Y191150D01*
Y191131D01*
X57450Y190406D01*
Y189094D01*
X57750Y188369D01*
Y188131D01*
X57450Y187407D01*
Y186094D01*
X57750Y185369D01*
Y185131D01*
X57450Y184406D01*
Y183094D01*
X57750Y182369D01*
Y182131D01*
X57450Y181406D01*
Y180093D01*
X57750Y179369D01*
Y175131D01*
X57249Y174471D01*
X56739Y174259D01*
X55740Y173261D01*
X55200Y171956D01*
Y170544D01*
X55600Y169578D01*
Y169422D01*
X55200Y168456D01*
Y167044D01*
X55600Y166078D01*
Y165922D01*
X55200Y164956D01*
Y163544D01*
X55600Y162578D01*
Y162543D01*
X55150Y161456D01*
Y160044D01*
X55207Y159907D01*
X53995Y158695D01*
X52906Y158780D01*
X52150Y159844D01*
Y161256D01*
X51718Y162300D01*
X52150Y163344D01*
Y164756D01*
X51718Y165800D01*
X52150Y166844D01*
Y168256D01*
X51718Y169300D01*
X52150Y170344D01*
Y171756D01*
X51610Y173061D01*
X50611Y174059D01*
X49306Y174600D01*
X47894D01*
X46589Y174059D01*
X45591Y173061D01*
X45050Y171756D01*
Y170344D01*
X45483Y169300D01*
X45050Y168256D01*
Y166844D01*
X45483Y165800D01*
X45050Y164756D01*
Y163344D01*
X45483Y162300D01*
X45050Y161256D01*
Y159844D01*
X45164Y159570D01*
X44323Y158300D01*
X42059D01*
X41695Y159548D01*
X41835Y160250D01*
Y168000D01*
X41695Y168702D01*
X41600Y168845D01*
Y172300D01*
X38600Y177300D01*
X33600Y182300D01*
Y198918D01*
X56600D01*
Y192300D01*
D02*
G37*
G36*
X58570Y172894D02*
X59323Y172717D01*
X59653Y172613D01*
X60043Y172410D01*
X60114Y172344D01*
X60141Y172291D01*
X60287Y172071D01*
X60418Y171756D01*
X60484Y171421D01*
Y171079D01*
X60418Y170744D01*
X60257Y170355D01*
X60222Y170303D01*
X60184Y170190D01*
X60131Y170084D01*
X60108Y169967D01*
X60070Y169854D01*
X60062Y169736D01*
X60039Y169619D01*
X60046Y169500D01*
X60039Y169381D01*
X60062Y169265D01*
X60069Y169146D01*
X60108Y169033D01*
X60131Y168916D01*
X60184Y168810D01*
X60222Y168697D01*
X60257Y168645D01*
X60418Y168256D01*
X60484Y167921D01*
Y167579D01*
X60418Y167244D01*
X60257Y166855D01*
X60222Y166803D01*
X60184Y166690D01*
X60131Y166584D01*
X60108Y166467D01*
X60070Y166354D01*
X60062Y166236D01*
X60039Y166119D01*
X60046Y166000D01*
X60039Y165881D01*
X60062Y165765D01*
X60069Y165646D01*
X60108Y165533D01*
X60131Y165416D01*
X60184Y165310D01*
X60222Y165197D01*
X60257Y165145D01*
X60418Y164756D01*
X60484Y164421D01*
Y164079D01*
X60418Y163744D01*
X60257Y163355D01*
X60197Y163265D01*
X60159Y163153D01*
X60106Y163046D01*
X60083Y162929D01*
X60044Y162816D01*
X60037Y162698D01*
X60014Y162581D01*
X60021Y162462D01*
X60014Y162343D01*
X60037Y162227D01*
X60045Y162108D01*
X60083Y161995D01*
X60106Y161879D01*
X60159Y161772D01*
X60161Y161766D01*
X60169Y161737D01*
X60180Y161709D01*
X60197Y161660D01*
X60207Y161645D01*
X60368Y161256D01*
X60434Y160921D01*
Y160579D01*
X60368Y160244D01*
X60207Y159855D01*
X60197Y159840D01*
X60180Y159791D01*
X60169Y159763D01*
X60161Y159734D01*
X60159Y159728D01*
X60106Y159622D01*
X60083Y159505D01*
X60045Y159392D01*
X60037Y159273D01*
X60014Y159157D01*
X60021Y159038D01*
X60014Y158919D01*
X60037Y158802D01*
X60044Y158684D01*
X60083Y158571D01*
X60106Y158454D01*
X60159Y158348D01*
X60197Y158235D01*
X60257Y158145D01*
X60418Y157756D01*
X60484Y157421D01*
Y157079D01*
X60418Y156744D01*
X60287Y156428D01*
X60097Y156144D01*
X59856Y155903D01*
X59572Y155713D01*
X59256Y155582D01*
X58766Y155485D01*
X58530Y155454D01*
X58092Y155272D01*
X57716Y154984D01*
X57428Y154608D01*
X57246Y154170D01*
X57185Y153700D01*
Y123815D01*
X46000D01*
X45530Y123754D01*
X45092Y123572D01*
X44716Y123284D01*
X44428Y122908D01*
X44246Y122470D01*
X44184Y122000D01*
Y109659D01*
X44208Y109478D01*
X44221Y109295D01*
X44239Y109243D01*
X44246Y109189D01*
X44316Y109020D01*
X44376Y108847D01*
X44407Y108802D01*
X44428Y108751D01*
X44539Y108606D01*
X44642Y108455D01*
X44990Y108062D01*
X45029Y108028D01*
X45060Y107988D01*
X45207Y107873D01*
X45348Y107751D01*
X45394Y107729D01*
X45434Y107698D01*
X46356Y107161D01*
X46523Y107091D01*
X46687Y107010D01*
X46741Y106999D01*
X46793Y106978D01*
X46973Y106953D01*
X47151Y106918D01*
X47207Y106921D01*
X47263Y106914D01*
X47443Y106937D01*
X47624Y106949D01*
X47805Y106985D01*
X48195D01*
X48579Y106908D01*
X48940Y106759D01*
X48967Y106741D01*
X49021Y106714D01*
X49068Y106678D01*
X49233Y106610D01*
X49392Y106531D01*
X49451Y106519D01*
X49506Y106496D01*
X49682Y106473D01*
X49857Y106438D01*
X49917Y106442D01*
X49976Y106434D01*
X52024D01*
X52083Y106442D01*
X52143Y106438D01*
X52318Y106473D01*
X52494Y106496D01*
X52549Y106519D01*
X52608Y106531D01*
X52768Y106610D01*
X52932Y106678D01*
X52979Y106714D01*
X53033Y106741D01*
X53060Y106759D01*
X53421Y106908D01*
X53805Y106985D01*
X54195D01*
X54579Y106908D01*
X54940Y106759D01*
X54967Y106741D01*
X55021Y106714D01*
X55068Y106678D01*
X55233Y106610D01*
X55392Y106531D01*
X55451Y106519D01*
X55506Y106496D01*
X55682Y106473D01*
X55857Y106438D01*
X55917Y106442D01*
X55976Y106434D01*
X58024D01*
X58083Y106442D01*
X58143Y106438D01*
X58318Y106473D01*
X58494Y106496D01*
X58549Y106519D01*
X58608Y106531D01*
X58767Y106610D01*
X58932Y106678D01*
X58979Y106714D01*
X59033Y106741D01*
X59060Y106759D01*
X59421Y106908D01*
X59805Y106985D01*
X60195D01*
X60579Y106908D01*
X60940Y106759D01*
X60967Y106741D01*
X61021Y106714D01*
X61068Y106678D01*
X61233Y106610D01*
X61392Y106531D01*
X61451Y106519D01*
X61506Y106496D01*
X61682Y106473D01*
X61857Y106438D01*
X61917Y106442D01*
X61976Y106434D01*
X64024D01*
X64083Y106442D01*
X64143Y106438D01*
X64318Y106473D01*
X64494Y106496D01*
X64549Y106519D01*
X64608Y106531D01*
X64767Y106610D01*
X64932Y106678D01*
X64979Y106714D01*
X65033Y106741D01*
X65060Y106759D01*
X65421Y106908D01*
X65805Y106985D01*
X66195D01*
X66579Y106908D01*
X66940Y106759D01*
X66967Y106741D01*
X67021Y106714D01*
X67068Y106678D01*
X67233Y106610D01*
X67392Y106531D01*
X67451Y106519D01*
X67506Y106496D01*
X67682Y106473D01*
X67857Y106438D01*
X67917Y106442D01*
X67976Y106434D01*
X70024D01*
X70083Y106442D01*
X70143Y106438D01*
X70318Y106473D01*
X70494Y106496D01*
X70549Y106519D01*
X70608Y106531D01*
X70767Y106610D01*
X70932Y106678D01*
X70979Y106714D01*
X71033Y106741D01*
X71060Y106759D01*
X71421Y106908D01*
X71804Y106985D01*
X72195D01*
X72579Y106908D01*
X72940Y106759D01*
X72967Y106741D01*
X73021Y106714D01*
X73068Y106678D01*
X73233Y106610D01*
X73392Y106531D01*
X73451Y106519D01*
X73506Y106496D01*
X73682Y106473D01*
X73857Y106438D01*
X73917Y106442D01*
X73976Y106434D01*
X76024D01*
X76083Y106442D01*
X76143Y106438D01*
X76318Y106473D01*
X76494Y106496D01*
X76549Y106519D01*
X76608Y106531D01*
X76767Y106610D01*
X76932Y106678D01*
X76979Y106714D01*
X77033Y106741D01*
X77060Y106759D01*
X77421Y106908D01*
X77804Y106985D01*
X78195D01*
X78579Y106908D01*
X78940Y106759D01*
X78967Y106741D01*
X79021Y106714D01*
X79068Y106678D01*
X79233Y106610D01*
X79392Y106531D01*
X79451Y106519D01*
X79506Y106496D01*
X79682Y106473D01*
X79857Y106438D01*
X79917Y106442D01*
X79976Y106434D01*
X82024D01*
X82083Y106442D01*
X82143Y106438D01*
X82318Y106473D01*
X82494Y106496D01*
X82549Y106519D01*
X82608Y106531D01*
X82767Y106610D01*
X82932Y106678D01*
X82979Y106714D01*
X83033Y106741D01*
X83060Y106759D01*
X83421Y106908D01*
X83805Y106985D01*
X84195D01*
X84579Y106908D01*
X84940Y106759D01*
X84967Y106741D01*
X85021Y106714D01*
X85068Y106678D01*
X85232Y106610D01*
X85392Y106531D01*
X85451Y106519D01*
X85506Y106496D01*
X85682Y106473D01*
X85857Y106438D01*
X85917Y106442D01*
X85976Y106434D01*
X88024D01*
X88083Y106442D01*
X88143Y106438D01*
X88318Y106473D01*
X88494Y106496D01*
X88549Y106519D01*
X88608Y106531D01*
X88767Y106610D01*
X88932Y106678D01*
X88979Y106714D01*
X89033Y106741D01*
X89060Y106759D01*
X89421Y106908D01*
X89804Y106985D01*
X90195D01*
X90579Y106908D01*
X90940Y106759D01*
X90967Y106741D01*
X91021Y106714D01*
X91068Y106678D01*
X91233Y106610D01*
X91392Y106531D01*
X91451Y106519D01*
X91506Y106496D01*
X91682Y106473D01*
X91857Y106438D01*
X91917Y106442D01*
X91976Y106434D01*
X94024D01*
X94083Y106442D01*
X94143Y106438D01*
X94318Y106473D01*
X94494Y106496D01*
X94549Y106519D01*
X94608Y106531D01*
X94767Y106610D01*
X94932Y106678D01*
X94979Y106714D01*
X95033Y106741D01*
X95060Y106759D01*
X95421Y106908D01*
X95805Y106985D01*
X96195D01*
X96579Y106908D01*
X96940Y106759D01*
X96967Y106741D01*
X97021Y106714D01*
X97068Y106678D01*
X97233Y106610D01*
X97392Y106531D01*
X97451Y106519D01*
X97506Y106496D01*
X97682Y106473D01*
X97857Y106438D01*
X97916Y106442D01*
X97976Y106434D01*
X100570D01*
X100688Y106450D01*
X100807D01*
X100921Y106481D01*
X101039Y106496D01*
X101150Y106542D01*
X101264Y106573D01*
X101494Y106668D01*
X101829Y106735D01*
X102171D01*
X102506Y106668D01*
X102735Y106573D01*
X102850Y106542D01*
X102960Y106496D01*
X103078Y106481D01*
X103193Y106450D01*
X103312D01*
X103430Y106434D01*
X106570D01*
X106688Y106450D01*
X106807D01*
X106922Y106481D01*
X107039Y106496D01*
X107149Y106542D01*
X107264Y106573D01*
X107494Y106668D01*
X107829Y106735D01*
X108171D01*
X108506Y106668D01*
X108735Y106573D01*
X108850Y106542D01*
X108960Y106496D01*
X109078Y106481D01*
X109193Y106450D01*
X109312D01*
X109430Y106434D01*
X112570D01*
X112688Y106450D01*
X112807D01*
X112921Y106481D01*
X113040Y106496D01*
X113149Y106542D01*
X113264Y106573D01*
X113494Y106668D01*
X113829Y106735D01*
X114171D01*
X114506Y106668D01*
X114735Y106573D01*
X114850Y106542D01*
X114960Y106496D01*
X115078Y106481D01*
X115193Y106450D01*
X115312D01*
X115430Y106434D01*
X118024D01*
X118083Y106442D01*
X118143Y106438D01*
X118317Y106473D01*
X118494Y106496D01*
X118549Y106519D01*
X118608Y106531D01*
X118767Y106610D01*
X118932Y106678D01*
X118979Y106714D01*
X119033Y106741D01*
X119060Y106759D01*
X119421Y106908D01*
X119804Y106985D01*
X120195D01*
X120579Y106908D01*
X121105Y106690D01*
X121311Y106635D01*
X121517Y106574D01*
X121540Y106574D01*
X121563Y106567D01*
X121777D01*
X121990Y106562D01*
X122013Y106567D01*
X122037D01*
X122244Y106623D01*
X122451Y106673D01*
X123652Y107134D01*
X123776Y107202D01*
X123908Y107257D01*
X123984Y107315D01*
X124068Y107361D01*
X124171Y107459D01*
X124284Y107545D01*
X124342Y107621D01*
X124411Y107687D01*
X124486Y107808D01*
X124572Y107921D01*
X124609Y108010D01*
X124659Y108091D01*
X124699Y108228D01*
X124754Y108359D01*
X124766Y108454D01*
X124793Y108546D01*
X124797Y108688D01*
X124816Y108829D01*
Y122740D01*
X124812Y122768D01*
X124815Y122796D01*
X124781Y123003D01*
X124754Y123210D01*
X124743Y123236D01*
X124738Y123264D01*
X124652Y123455D01*
X124572Y123648D01*
X124555Y123670D01*
X124543Y123696D01*
X124411Y123857D01*
X124284Y124024D01*
X124261Y124041D01*
X124243Y124063D01*
X123865Y124418D01*
X123816Y124453D01*
X123775Y124497D01*
X123625Y124591D01*
X123481Y124694D01*
X123424Y124716D01*
X123373Y124748D01*
X122481Y125153D01*
X122451Y125162D01*
X122425Y125177D01*
X122225Y125231D01*
X122027Y125291D01*
X121996Y125292D01*
X121967Y125300D01*
X121761D01*
X121554Y125307D01*
X121524Y125300D01*
X121493D01*
X121294Y125247D01*
X121092Y125200D01*
X121065Y125185D01*
X121035Y125177D01*
X120829Y125092D01*
X120445Y125016D01*
X120055D01*
X119671Y125092D01*
X119310Y125241D01*
X119259Y125276D01*
X119152Y125328D01*
X119053Y125394D01*
X118940Y125433D01*
X118834Y125485D01*
X118717Y125508D01*
X118604Y125547D01*
X118485Y125555D01*
X118369Y125578D01*
X118250Y125570D01*
X118131Y125578D01*
X118015Y125555D01*
X117896Y125547D01*
X117783Y125508D01*
X117666Y125485D01*
X117560Y125433D01*
X117447Y125394D01*
X117348Y125328D01*
X117241Y125276D01*
X117190Y125241D01*
X116829Y125092D01*
X116445Y125016D01*
X116055D01*
X115671Y125092D01*
X115310Y125241D01*
X114985Y125459D01*
X114708Y125735D01*
X114491Y126060D01*
X114342Y126421D01*
X114265Y126805D01*
Y127196D01*
X114342Y127579D01*
X114491Y127940D01*
X114526Y127991D01*
X114578Y128098D01*
X114644Y128197D01*
X114683Y128310D01*
X114735Y128417D01*
X114759Y128533D01*
X114797Y128646D01*
X114805Y128765D01*
X114828Y128881D01*
X114820Y129000D01*
X114828Y129119D01*
X114805Y129235D01*
X114797Y129354D01*
X114759Y129467D01*
X114735Y129584D01*
X114683Y129690D01*
X114644Y129803D01*
X114578Y129902D01*
X114526Y130009D01*
X114491Y130060D01*
X114342Y130421D01*
X114265Y130805D01*
Y131195D01*
X114342Y131579D01*
X114491Y131940D01*
X114526Y131991D01*
X114578Y132098D01*
X114644Y132197D01*
X114683Y132310D01*
X114735Y132416D01*
X114759Y132533D01*
X114797Y132646D01*
X114805Y132765D01*
X114828Y132881D01*
X114820Y133000D01*
X114828Y133119D01*
X114805Y133235D01*
X114797Y133354D01*
X114759Y133467D01*
X114735Y133584D01*
X114683Y133690D01*
X114644Y133803D01*
X114578Y133902D01*
X114526Y134009D01*
X114491Y134060D01*
X114342Y134421D01*
X114265Y134805D01*
Y135196D01*
X114342Y135579D01*
X114491Y135940D01*
X114526Y135991D01*
X114578Y136098D01*
X114644Y136197D01*
X114683Y136310D01*
X114735Y136417D01*
X114759Y136533D01*
X114797Y136646D01*
X114805Y136765D01*
X114828Y136881D01*
X114820Y137000D01*
X114828Y137119D01*
X114805Y137235D01*
X114797Y137354D01*
X114759Y137467D01*
X114735Y137584D01*
X114683Y137690D01*
X114644Y137803D01*
X114578Y137902D01*
X114526Y138009D01*
X114491Y138060D01*
X114342Y138421D01*
X114265Y138805D01*
Y139195D01*
X114342Y139579D01*
X114491Y139940D01*
X114526Y139991D01*
X114578Y140098D01*
X114644Y140197D01*
X114683Y140310D01*
X114735Y140416D01*
X114759Y140533D01*
X114797Y140646D01*
X114805Y140765D01*
X114828Y140881D01*
X114820Y141000D01*
X114828Y141119D01*
X114805Y141235D01*
X114797Y141354D01*
X114759Y141467D01*
X114735Y141584D01*
X114683Y141690D01*
X114644Y141803D01*
X114578Y141902D01*
X114526Y142009D01*
X114491Y142060D01*
X114342Y142421D01*
X114265Y142805D01*
Y143195D01*
X114342Y143579D01*
X114491Y143940D01*
X114526Y143991D01*
X114578Y144098D01*
X114644Y144197D01*
X114683Y144310D01*
X114735Y144416D01*
X114759Y144533D01*
X114797Y144646D01*
X114805Y144765D01*
X114828Y144881D01*
X114820Y145000D01*
X114828Y145119D01*
X114805Y145235D01*
X114797Y145354D01*
X114759Y145467D01*
X114735Y145584D01*
X114683Y145690D01*
X114644Y145803D01*
X114578Y145902D01*
X114526Y146009D01*
X114491Y146060D01*
X114342Y146421D01*
X114265Y146805D01*
Y147195D01*
X114342Y147579D01*
X114491Y147940D01*
X114526Y147991D01*
X114578Y148098D01*
X114644Y148197D01*
X114683Y148310D01*
X114735Y148416D01*
X114759Y148533D01*
X114797Y148646D01*
X114805Y148765D01*
X114828Y148881D01*
X114820Y149000D01*
X114828Y149119D01*
X114805Y149235D01*
X114797Y149354D01*
X114759Y149467D01*
X114735Y149584D01*
X114683Y149690D01*
X114644Y149803D01*
X114578Y149902D01*
X114526Y150009D01*
X114491Y150060D01*
X114342Y150421D01*
X114265Y150805D01*
Y151069D01*
X114253Y151166D01*
X114255Y151264D01*
X114222Y151400D01*
X114204Y151539D01*
X114166Y151630D01*
X114143Y151725D01*
X114076Y151848D01*
X114022Y151977D01*
X113963Y152055D01*
X113916Y152141D01*
X113438Y152794D01*
X113408Y152825D01*
X113386Y152862D01*
X113245Y152997D01*
X113111Y153137D01*
X113074Y153159D01*
X113043Y153189D01*
X112390Y153666D01*
X112304Y153713D01*
X112227Y153772D01*
X112097Y153826D01*
X111974Y153893D01*
X111879Y153916D01*
X111789Y153954D01*
X111650Y153972D01*
X111514Y154005D01*
X111416Y154003D01*
X111319Y154016D01*
X111054D01*
X110671Y154092D01*
X110310Y154241D01*
X109985Y154459D01*
X109708Y154735D01*
X109491Y155060D01*
X109341Y155421D01*
X109265Y155805D01*
Y156195D01*
X109341Y156579D01*
X109491Y156940D01*
X109708Y157265D01*
X109985Y157542D01*
X110310Y157759D01*
X110671Y157908D01*
X111054Y157985D01*
X111445D01*
X111828Y157908D01*
X112305Y157711D01*
X112763Y157588D01*
X113237Y157588D01*
X113694Y157711D01*
X114171Y157908D01*
X114554Y157985D01*
X114945D01*
X115329Y157908D01*
X115805Y157711D01*
X116263Y157588D01*
X116737Y157588D01*
X117194Y157711D01*
X117671Y157908D01*
X118054Y157985D01*
X118445D01*
X118828Y157908D01*
X119069Y157809D01*
X119205Y157772D01*
X119337Y157721D01*
X119433Y157711D01*
X119527Y157686D01*
X119668D01*
X119808Y157671D01*
X119904Y157686D01*
X120001D01*
X121123Y157214D01*
X121594Y156860D01*
X121792Y156661D01*
X128112Y131782D01*
Y131422D01*
X130132Y123832D01*
X132918Y112865D01*
Y1082D01*
X57112D01*
Y23635D01*
X53603Y40684D01*
X52815Y44511D01*
Y46789D01*
X53067Y46958D01*
X54480Y47060D01*
X55130Y46983D01*
X55707Y46188D01*
X55757Y46136D01*
X55795Y46076D01*
X56433Y45329D01*
X56487Y45282D01*
X56530Y45225D01*
X57225Y44530D01*
X57281Y44486D01*
X57329Y44433D01*
X58076Y43795D01*
X58136Y43756D01*
X58188Y43707D01*
X58983Y43130D01*
X59046Y43096D01*
X59101Y43051D01*
X59939Y42537D01*
X60004Y42508D01*
X60063Y42468D01*
X60939Y42022D01*
X61006Y41998D01*
X61068Y41962D01*
X61975Y41586D01*
X62045Y41568D01*
X62109Y41537D01*
X63043Y41233D01*
X63114Y41220D01*
X63180Y41195D01*
X64136Y40965D01*
X64207Y40958D01*
X64275Y40938D01*
X65246Y40784D01*
X65317Y40782D01*
X65387Y40767D01*
X66366Y40690D01*
X66438Y40694D01*
X66509Y40684D01*
X67491D01*
X67562Y40694D01*
X67634Y40690D01*
X68613Y40767D01*
X68683Y40782D01*
X68754Y40784D01*
X69724Y40938D01*
X69793Y40958D01*
X69864Y40965D01*
X70820Y41195D01*
X70886Y41220D01*
X70957Y41233D01*
X71891Y41537D01*
X71955Y41568D01*
X72025Y41586D01*
X72932Y41962D01*
X72994Y41998D01*
X73061Y42022D01*
X73937Y42468D01*
X73996Y42508D01*
X74061Y42537D01*
X74899Y43051D01*
X74954Y43096D01*
X75017Y43130D01*
X75812Y43707D01*
X75864Y43756D01*
X75924Y43795D01*
X76671Y44433D01*
X76719Y44486D01*
X76775Y44530D01*
X77470Y45225D01*
X77513Y45282D01*
X77567Y45329D01*
X78205Y46076D01*
X78244Y46136D01*
X78293Y46188D01*
X78870Y46983D01*
X78904Y47046D01*
X78949Y47101D01*
X79463Y47939D01*
X79492Y48004D01*
X79532Y48063D01*
X79978Y48938D01*
X80002Y49006D01*
X80038Y49068D01*
X80414Y49975D01*
X80432Y50044D01*
X80463Y50109D01*
X80767Y51043D01*
X80780Y51114D01*
X80805Y51181D01*
X81035Y52136D01*
X81042Y52207D01*
X81062Y52276D01*
X81216Y53246D01*
X81218Y53317D01*
X81233Y53387D01*
X81310Y54366D01*
X81306Y54438D01*
X81315Y54509D01*
Y55491D01*
X81306Y55562D01*
X81310Y55634D01*
X81233Y56613D01*
X81218Y56683D01*
X81216Y56754D01*
X81062Y57724D01*
X81042Y57793D01*
X81035Y57864D01*
X80805Y58819D01*
X80780Y58886D01*
X80767Y58957D01*
X80463Y59891D01*
X80432Y59955D01*
X80414Y60024D01*
X80038Y60932D01*
X80002Y60994D01*
X79978Y61062D01*
X79532Y61937D01*
X79492Y61996D01*
X79463Y62061D01*
X78949Y62899D01*
X78904Y62954D01*
X78870Y63017D01*
X78293Y63812D01*
X78244Y63864D01*
X78205Y63924D01*
X77567Y64671D01*
X77513Y64718D01*
X77470Y64775D01*
X76775Y65470D01*
X76719Y65514D01*
X76671Y65567D01*
X75924Y66205D01*
X75864Y66244D01*
X75812Y66293D01*
X75017Y66870D01*
X74954Y66904D01*
X74899Y66949D01*
X74061Y67463D01*
X73996Y67492D01*
X73937Y67532D01*
X73061Y67978D01*
X72994Y68002D01*
X72932Y68038D01*
X72025Y68414D01*
X71955Y68432D01*
X71891Y68463D01*
X70957Y68767D01*
X70886Y68780D01*
X70820Y68805D01*
X69864Y69035D01*
X69793Y69042D01*
X69724Y69062D01*
X68754Y69216D01*
X68683Y69218D01*
X68613Y69233D01*
X67634Y69310D01*
X67562Y69306D01*
X67491Y69316D01*
X66509D01*
X66438Y69306D01*
X66366Y69310D01*
X65387Y69233D01*
X65317Y69218D01*
X65246Y69216D01*
X64275Y69062D01*
X64207Y69042D01*
X64136Y69035D01*
X63180Y68805D01*
X63114Y68780D01*
X63043Y68767D01*
X62109Y68463D01*
X62045Y68432D01*
X61975Y68414D01*
X61068Y68038D01*
X61006Y68002D01*
X60939Y67978D01*
X60063Y67532D01*
X60004Y67492D01*
X59939Y67463D01*
X59101Y66949D01*
X59046Y66904D01*
X58983Y66870D01*
X58188Y66293D01*
X58136Y66244D01*
X58076Y66205D01*
X57329Y65567D01*
X57281Y65514D01*
X57225Y65470D01*
X56530Y64775D01*
X56487Y64718D01*
X56433Y64671D01*
X55795Y63924D01*
X55756Y63864D01*
X55707Y63812D01*
X55130Y63017D01*
X54480Y62940D01*
X53067Y63042D01*
X52815Y63211D01*
Y69250D01*
X52754Y69720D01*
X52612Y70062D01*
Y74385D01*
X39112Y87885D01*
Y135075D01*
X39115Y135079D01*
X39656Y136268D01*
X39717Y136468D01*
X39784Y136666D01*
X39786Y136694D01*
X39794Y136722D01*
X39801Y136930D01*
X39815Y137139D01*
X39809Y137167D01*
X39810Y137195D01*
X39763Y137399D01*
X39722Y137604D01*
X39710Y137629D01*
X39703Y137657D01*
X39605Y137842D01*
X39513Y138029D01*
X39492Y138060D01*
X39342Y138421D01*
X39266Y138805D01*
Y139195D01*
X39342Y139579D01*
X39510Y139985D01*
X39560Y140170D01*
X39619Y140352D01*
X39621Y140398D01*
X39633Y140443D01*
Y140634D01*
X39643Y140825D01*
X39633Y140870D01*
Y140917D01*
X39584Y141102D01*
X39544Y141288D01*
X39324Y141907D01*
X39231Y142087D01*
X39146Y142271D01*
X39161Y142332D01*
X39469Y142509D01*
X39991Y143031D01*
X40359Y143669D01*
X40550Y144381D01*
Y145119D01*
X40359Y145831D01*
X39991Y146469D01*
X39728Y146732D01*
X39735Y146748D01*
X39793Y146847D01*
X40118Y147622D01*
X40136Y147688D01*
X40166Y147750D01*
X40198Y147916D01*
X40243Y148079D01*
X40243Y148148D01*
X40256Y148215D01*
X40244Y148384D01*
X40245Y148553D01*
X40227Y148619D01*
X40222Y148688D01*
X40167Y148848D01*
X40124Y149011D01*
X40090Y149071D01*
X40068Y149136D01*
X39707Y149858D01*
X39969Y150009D01*
X40491Y150531D01*
X40859Y151169D01*
X41050Y151881D01*
Y152619D01*
X40859Y153331D01*
X40491Y153969D01*
X40262Y154197D01*
X40903Y154995D01*
X40975Y155114D01*
X41060Y155224D01*
X41098Y155316D01*
X41149Y155400D01*
X41272Y155693D01*
X42059Y156484D01*
X44323D01*
X44504Y156508D01*
X44686Y156521D01*
X44738Y156539D01*
X44793Y156546D01*
X44961Y156616D01*
X45134Y156675D01*
X45180Y156706D01*
X45231Y156728D01*
X45375Y156839D01*
X45526Y156940D01*
X45563Y156982D01*
X45607Y157016D01*
X45718Y157161D01*
X45837Y157298D01*
X46678Y158568D01*
X46754Y158724D01*
X46841Y158875D01*
X46858Y158937D01*
X46885Y158994D01*
X46919Y159165D01*
X46964Y159333D01*
Y159397D01*
X46976Y159459D01*
X46964Y159633D01*
Y159807D01*
X46947Y159869D01*
X46943Y159932D01*
X46886Y160097D01*
X46866Y160172D01*
Y160895D01*
X47160Y161605D01*
X47283Y162063D01*
X47283Y162537D01*
X47160Y162995D01*
X46900Y163622D01*
Y163734D01*
X46866Y163863D01*
Y164395D01*
X47160Y165105D01*
X47283Y165563D01*
X47283Y166037D01*
X47160Y166495D01*
X46866Y167205D01*
Y167895D01*
X47160Y168605D01*
X47283Y169063D01*
X47283Y169537D01*
X47160Y169995D01*
X46866Y170705D01*
Y171395D01*
X47130Y172032D01*
X47618Y172520D01*
X48255Y172784D01*
X48945D01*
X49583Y172520D01*
X50071Y172032D01*
X50335Y171395D01*
Y170705D01*
X50040Y169995D01*
X49918Y169537D01*
X49918Y169063D01*
X50040Y168605D01*
X50335Y167895D01*
Y167205D01*
X50040Y166495D01*
X49918Y166037D01*
X49918Y165563D01*
X50040Y165105D01*
X50335Y164395D01*
Y163863D01*
X50300Y163734D01*
Y163622D01*
X50040Y162995D01*
X49918Y162537D01*
X49918Y162063D01*
X50040Y161605D01*
X50335Y160895D01*
Y160363D01*
X50300Y160234D01*
Y159366D01*
X50525Y158526D01*
X50960Y157774D01*
X51574Y157159D01*
X52326Y156725D01*
X53166Y156500D01*
X54035D01*
X54874Y156725D01*
X55626Y157159D01*
X56241Y157774D01*
X56675Y158526D01*
X56837Y159131D01*
X56884Y159212D01*
X56915Y159327D01*
X56961Y159437D01*
X56976Y159555D01*
X57007Y159670D01*
Y159789D01*
X57022Y159907D01*
X57007Y160025D01*
Y160144D01*
X56976Y160259D01*
X56965Y160338D01*
Y161095D01*
X57277Y161848D01*
X57308Y161963D01*
X57354Y162073D01*
X57369Y162191D01*
X57400Y162306D01*
Y162341D01*
X57400Y162341D01*
Y162425D01*
X57416Y162543D01*
Y162578D01*
X57400Y162696D01*
Y162780D01*
X57400Y162780D01*
Y162815D01*
X57369Y162930D01*
X57354Y163048D01*
X57308Y163158D01*
X57277Y163273D01*
X57016Y163905D01*
Y164595D01*
X57277Y165227D01*
X57308Y165342D01*
X57354Y165452D01*
X57369Y165570D01*
X57400Y165685D01*
Y165804D01*
X57416Y165922D01*
Y166078D01*
X57400Y166196D01*
Y166315D01*
X57369Y166430D01*
X57354Y166548D01*
X57308Y166658D01*
X57277Y166773D01*
X57016Y167405D01*
Y168095D01*
X57277Y168727D01*
X57308Y168842D01*
X57354Y168952D01*
X57369Y169070D01*
X57400Y169185D01*
Y169304D01*
X57416Y169422D01*
Y169578D01*
X57400Y169696D01*
Y169815D01*
X57369Y169930D01*
X57354Y170048D01*
X57308Y170158D01*
X57277Y170273D01*
X57016Y170905D01*
Y171595D01*
X57280Y172232D01*
X57768Y172720D01*
X57943Y172793D01*
X57947Y172796D01*
X57952Y172797D01*
X58152Y172914D01*
X58570Y172894D01*
D02*
G37*
%LPC*%
G36*
X72119Y172300D02*
X71381D01*
X70669Y172109D01*
X70031Y171741D01*
X68969D01*
X68331Y172109D01*
X67618Y172300D01*
X66881D01*
X66169Y172109D01*
X65531Y171741D01*
X65009Y171219D01*
X64641Y170581D01*
X64450Y169869D01*
Y169131D01*
X64641Y168419D01*
X65009Y167781D01*
X65531Y167259D01*
X66169Y166891D01*
X66881Y166700D01*
X67618D01*
X68331Y166891D01*
X68969Y167259D01*
X69500Y167772D01*
X70031Y167259D01*
X70669Y166891D01*
X71381Y166700D01*
X72119D01*
X72831Y166891D01*
X73469Y167259D01*
X73991Y167781D01*
X74359Y168419D01*
X74550Y169131D01*
Y169869D01*
X74359Y170581D01*
X73991Y171219D01*
X73469Y171741D01*
X72831Y172109D01*
X72119Y172300D01*
D02*
G37*
G36*
X92118D02*
X91381D01*
X90669Y172109D01*
X90030Y171741D01*
X90000Y171710D01*
X89969Y171741D01*
X89331Y172109D01*
X88618Y172300D01*
X87881D01*
X87169Y172109D01*
X86531Y171741D01*
X86009Y171219D01*
X85640Y170581D01*
X85450Y169869D01*
Y169131D01*
X85640Y168419D01*
X86009Y167781D01*
X86531Y167259D01*
X87169Y166891D01*
X87881Y166700D01*
X88618D01*
X89331Y166891D01*
X89969Y167259D01*
X90000Y167290D01*
X90030Y167259D01*
X90669Y166891D01*
X91381Y166700D01*
X92118D01*
X92830Y166891D01*
X93469Y167259D01*
X93990Y167781D01*
X94359Y168419D01*
X94550Y169131D01*
Y169869D01*
X94359Y170581D01*
X93990Y171219D01*
X93469Y171741D01*
X92830Y172109D01*
X92118Y172300D01*
D02*
G37*
G36*
X89369Y158300D02*
X88631D01*
X87919Y158109D01*
X87281Y157740D01*
X87000Y157460D01*
X86719Y157740D01*
X86081Y158109D01*
X85369Y158300D01*
X84631D01*
X83919Y158109D01*
X83281Y157740D01*
X83000Y157460D01*
X82719Y157740D01*
X82081Y158109D01*
X81369Y158300D01*
X80631D01*
X79919Y158109D01*
X79281Y157740D01*
X78759Y157219D01*
X78391Y156581D01*
X78200Y155869D01*
Y155131D01*
X78391Y154419D01*
X78759Y153781D01*
X78790Y153750D01*
X78759Y153719D01*
X78391Y153081D01*
X78200Y152369D01*
Y151631D01*
X78391Y150919D01*
X78759Y150281D01*
X79281Y149759D01*
X79919Y149391D01*
X80631Y149200D01*
X81369D01*
X82081Y149391D01*
X82719Y149759D01*
X83000Y150040D01*
X83281Y149759D01*
X83919Y149391D01*
X84631Y149200D01*
X85369D01*
X86081Y149391D01*
X86719Y149759D01*
X87000Y150040D01*
X87281Y149759D01*
X87919Y149391D01*
X88631Y149200D01*
X89369D01*
X90081Y149391D01*
X90719Y149759D01*
X91241Y150281D01*
X91609Y150919D01*
X91800Y151631D01*
Y152369D01*
X91609Y153081D01*
X91241Y153719D01*
X91210Y153750D01*
X91241Y153781D01*
X91609Y154419D01*
X91800Y155131D01*
Y155869D01*
X91609Y156581D01*
X91241Y157219D01*
X90719Y157740D01*
X90081Y158109D01*
X89369Y158300D01*
D02*
G37*
G36*
X66869Y159050D02*
X66131D01*
X65419Y158859D01*
X64781Y158491D01*
X64259Y157969D01*
X63891Y157331D01*
X63700Y156619D01*
Y155881D01*
X63891Y155169D01*
X64259Y154531D01*
X64781Y154009D01*
X65419Y153641D01*
X66131Y153450D01*
X66869D01*
X67581Y153641D01*
X68219Y154009D01*
X68741Y154531D01*
X69109Y155169D01*
X69300Y155881D01*
Y156619D01*
X69109Y157331D01*
X68741Y157969D01*
X68219Y158491D01*
X67581Y158859D01*
X66869Y159050D01*
D02*
G37*
G36*
X88809Y142497D02*
X88072D01*
X87360Y142306D01*
X86721Y141937D01*
X86441Y141657D01*
X86160Y141937D01*
X85521Y142306D01*
X84809Y142497D01*
X84072D01*
X83360Y142306D01*
X82722Y141937D01*
X82441Y141657D01*
X82160Y141937D01*
X81522Y142306D01*
X80809Y142497D01*
X80072D01*
X79360Y142306D01*
X78721Y141937D01*
X78200Y141416D01*
X77832Y140778D01*
X77641Y140065D01*
Y139328D01*
X77832Y138616D01*
X78200Y137978D01*
X78231Y137947D01*
X78200Y137916D01*
X77832Y137278D01*
X77641Y136566D01*
Y135828D01*
X77832Y135116D01*
X78200Y134478D01*
X78721Y133956D01*
X79360Y133588D01*
X80072Y133397D01*
X80809D01*
X81522Y133588D01*
X82160Y133956D01*
X82441Y134237D01*
X82722Y133956D01*
X83360Y133588D01*
X84072Y133397D01*
X84809D01*
X85521Y133588D01*
X86160Y133956D01*
X86441Y134237D01*
X86721Y133956D01*
X87360Y133588D01*
X88072Y133397D01*
X88809D01*
X89522Y133588D01*
X90160Y133956D01*
X90681Y134478D01*
X91050Y135116D01*
X91241Y135828D01*
Y136566D01*
X91050Y137278D01*
X90681Y137916D01*
X90651Y137947D01*
X90681Y137978D01*
X91050Y138616D01*
X91241Y139328D01*
Y140065D01*
X91050Y140778D01*
X90681Y141416D01*
X90160Y141937D01*
X89522Y142306D01*
X88809Y142497D01*
D02*
G37*
G36*
Y127497D02*
X88072D01*
X87360Y127306D01*
X86721Y126937D01*
X86441Y126657D01*
X86160Y126937D01*
X85521Y127306D01*
X84809Y127497D01*
X84072D01*
X83360Y127306D01*
X82722Y126937D01*
X82441Y126657D01*
X82160Y126937D01*
X81522Y127306D01*
X80809Y127497D01*
X80072D01*
X79360Y127306D01*
X78721Y126937D01*
X78200Y126416D01*
X77832Y125778D01*
X77641Y125065D01*
Y124328D01*
X77832Y123616D01*
X78200Y122978D01*
X78721Y122456D01*
X79360Y122088D01*
X80072Y121897D01*
X80809D01*
X81522Y122088D01*
X82160Y122456D01*
X82441Y122737D01*
X82722Y122456D01*
X83360Y122088D01*
X84072Y121897D01*
X84809D01*
X85521Y122088D01*
X86160Y122456D01*
X86441Y122737D01*
X86721Y122456D01*
X87360Y122088D01*
X88072Y121897D01*
X88809D01*
X89522Y122088D01*
X90160Y122456D01*
X90681Y122978D01*
X91050Y123616D01*
X91241Y124328D01*
Y125065D01*
X91050Y125778D01*
X90681Y126416D01*
X90160Y126937D01*
X89522Y127306D01*
X88809Y127497D01*
D02*
G37*
G36*
X13619Y142050D02*
X12881D01*
X12169Y141859D01*
X11531Y141490D01*
X11010Y140969D01*
X10641Y140331D01*
X10450Y139619D01*
Y138881D01*
X10641Y138169D01*
X11010Y137531D01*
X11531Y137009D01*
X12169Y136641D01*
X12881Y136450D01*
X13619D01*
X14331Y136641D01*
X14969Y137009D01*
X15491Y137531D01*
X15859Y138169D01*
X16050Y138881D01*
Y139619D01*
X15859Y140331D01*
X15491Y140969D01*
X14969Y141490D01*
X14331Y141859D01*
X13619Y142050D01*
D02*
G37*
G36*
X31369Y131300D02*
X30631D01*
X29919Y131109D01*
X29281Y130741D01*
X28760Y130219D01*
X28391Y129581D01*
X28200Y128869D01*
Y128131D01*
X28391Y127419D01*
X28760Y126781D01*
X29281Y126259D01*
X29919Y125891D01*
X30631Y125700D01*
X31369D01*
X32081Y125891D01*
X32719Y126259D01*
X33241Y126781D01*
X33609Y127419D01*
X33800Y128131D01*
Y128869D01*
X33609Y129581D01*
X33241Y130219D01*
X32719Y130741D01*
X32081Y131109D01*
X31369Y131300D01*
D02*
G37*
G36*
X21869Y110550D02*
X21131D01*
X20419Y110359D01*
X19781Y109991D01*
X19259Y109469D01*
X18891Y108831D01*
X18700Y108119D01*
Y107381D01*
X18891Y106669D01*
X19259Y106031D01*
X19781Y105509D01*
X20419Y105141D01*
X21131Y104950D01*
X21869D01*
X22581Y105141D01*
X23219Y105509D01*
X23741Y106031D01*
X24109Y106669D01*
X24300Y107381D01*
Y108119D01*
X24109Y108831D01*
X23741Y109469D01*
X23219Y109991D01*
X22581Y110359D01*
X21869Y110550D01*
D02*
G37*
G36*
X8269Y107550D02*
X7531D01*
X6819Y107359D01*
X6181Y106991D01*
X5659Y106469D01*
X5291Y105831D01*
X5100Y105119D01*
Y104381D01*
X5291Y103669D01*
X5659Y103031D01*
X6181Y102509D01*
X6819Y102141D01*
X7531Y101950D01*
X8269D01*
X8981Y102141D01*
X9619Y102509D01*
X10141Y103031D01*
X10509Y103669D01*
X10700Y104381D01*
Y105119D01*
X10509Y105831D01*
X10141Y106469D01*
X9619Y106991D01*
X8981Y107359D01*
X8269Y107550D01*
D02*
G37*
G36*
X28869Y94800D02*
X28131D01*
X27419Y94609D01*
X26781Y94241D01*
X26259Y93719D01*
X25891Y93081D01*
X25700Y92369D01*
Y91631D01*
X25891Y90919D01*
X26259Y90281D01*
X26781Y89759D01*
X27419Y89391D01*
X28131Y89200D01*
X28869D01*
X29581Y89391D01*
X30219Y89759D01*
X30741Y90281D01*
X31109Y90919D01*
X31300Y91631D01*
Y92369D01*
X31109Y93081D01*
X30741Y93719D01*
X30219Y94241D01*
X29581Y94609D01*
X28869Y94800D01*
D02*
G37*
G36*
X22619Y86223D02*
X21881D01*
X21169Y86032D01*
X20531Y85664D01*
X20010Y85143D01*
X19641Y84504D01*
X19450Y83792D01*
Y83055D01*
X19641Y82343D01*
X20010Y81704D01*
X20531Y81183D01*
X21169Y80814D01*
X21881Y80623D01*
X22619D01*
X23331Y80814D01*
X23969Y81183D01*
X24491Y81704D01*
X24859Y82343D01*
X25050Y83055D01*
Y83792D01*
X24859Y84504D01*
X24491Y85143D01*
X23969Y85664D01*
X23331Y86032D01*
X22619Y86223D01*
D02*
G37*
G36*
X31869Y75800D02*
X31131D01*
X30419Y75609D01*
X29781Y75241D01*
X29260Y74719D01*
X28891Y74081D01*
X28700Y73369D01*
Y72631D01*
X28891Y71919D01*
X29260Y71281D01*
X29781Y70759D01*
X30419Y70391D01*
X31131Y70200D01*
X31869D01*
X32581Y70391D01*
X33219Y70759D01*
X33741Y71281D01*
X34109Y71919D01*
X34300Y72631D01*
Y73369D01*
X34109Y74081D01*
X33741Y74719D01*
X33219Y75241D01*
X32581Y75609D01*
X31869Y75800D01*
D02*
G37*
G36*
X16669Y58500D02*
X15931D01*
X15219Y58309D01*
X14581Y57941D01*
X14059Y57419D01*
X13691Y56781D01*
X13500Y56069D01*
Y55331D01*
X13691Y54619D01*
X14059Y53981D01*
X14581Y53459D01*
X15219Y53091D01*
X15931Y52900D01*
X16669D01*
X17381Y53091D01*
X18019Y53459D01*
X18541Y53981D01*
X18909Y54619D01*
X19100Y55331D01*
Y56069D01*
X18909Y56781D01*
X18541Y57419D01*
X18019Y57941D01*
X17381Y58309D01*
X16669Y58500D01*
D02*
G37*
G36*
X9247Y54034D02*
X8509D01*
X7797Y53843D01*
X7159Y53475D01*
X6637Y52953D01*
X6269Y52315D01*
X6078Y51603D01*
Y50866D01*
X6269Y50153D01*
X6637Y49515D01*
X7159Y48994D01*
X7797Y48625D01*
X8509Y48434D01*
X9247D01*
X9959Y48625D01*
X10597Y48994D01*
X11118Y49515D01*
X11487Y50153D01*
X11678Y50866D01*
Y51603D01*
X11487Y52315D01*
X11118Y52953D01*
X10597Y53475D01*
X9959Y53843D01*
X9247Y54034D01*
D02*
G37*
G36*
X24119Y43800D02*
X23381D01*
X22669Y43609D01*
X22031Y43241D01*
X21509Y42719D01*
X21141Y42081D01*
X20950Y41369D01*
Y40631D01*
X21141Y39919D01*
X21509Y39281D01*
X22031Y38759D01*
X22669Y38391D01*
X23381Y38200D01*
X24119D01*
X24831Y38391D01*
X25469Y38759D01*
X25991Y39281D01*
X26359Y39919D01*
X26550Y40631D01*
Y41369D01*
X26359Y42081D01*
X25991Y42719D01*
X25469Y43241D01*
X24831Y43609D01*
X24119Y43800D01*
D02*
G37*
G36*
X29119Y36550D02*
X28381D01*
X27669Y36359D01*
X27031Y35991D01*
X26509Y35469D01*
X26141Y34831D01*
X25950Y34118D01*
Y33381D01*
X26141Y32669D01*
X26509Y32031D01*
X27031Y31509D01*
X27669Y31141D01*
X28381Y30950D01*
X29119D01*
X29831Y31141D01*
X30469Y31509D01*
X30991Y32031D01*
X31359Y32669D01*
X31550Y33381D01*
Y34118D01*
X31359Y34831D01*
X30991Y35469D01*
X30469Y35991D01*
X29831Y36359D01*
X29119Y36550D01*
D02*
G37*
%LPD*%
D22*
X38250Y166250D02*
D03*
X48600Y167550D02*
D03*
Y171050D02*
D03*
X31000Y105750D02*
D03*
X30500Y99500D02*
D03*
X34000Y25750D02*
D03*
X36250Y41250D02*
D03*
X64000Y73500D02*
D03*
X118000Y80000D02*
D03*
X113500D02*
D03*
X99000Y86000D02*
D03*
X111000D02*
D03*
X105000Y80000D02*
D03*
X93000D02*
D03*
X87000Y86000D02*
D03*
X81000Y80000D02*
D03*
X75000Y86000D02*
D03*
X29000Y55700D02*
D03*
X57260Y79386D02*
D03*
X68386Y79741D02*
D03*
X80386Y91741D02*
D03*
X116741Y56614D02*
D03*
X117614Y44260D02*
D03*
X111614Y38260D02*
D03*
X59000Y38750D02*
D03*
X74386Y37741D02*
D03*
X80386Y43741D02*
D03*
X86386Y49741D02*
D03*
Y37741D02*
D03*
X99000Y38000D02*
D03*
X105000Y44000D02*
D03*
X92386Y43741D02*
D03*
X87000Y62000D02*
D03*
X81000Y68000D02*
D03*
X75000Y74000D02*
D03*
X98386Y49741D02*
D03*
X111000Y50000D02*
D03*
X105000Y56000D02*
D03*
X99000Y62000D02*
D03*
X105000Y68000D02*
D03*
X117000D02*
D03*
X111000Y74000D02*
D03*
X99000D02*
D03*
X63000Y86000D02*
D03*
X105000Y92000D02*
D03*
X117000D02*
D03*
X4750Y40500D02*
D03*
Y34500D02*
D03*
Y28500D02*
D03*
Y22500D02*
D03*
X6750Y16500D02*
D03*
X12750D02*
D03*
Y10500D02*
D03*
X18750D02*
D03*
X24750D02*
D03*
X42750Y16500D02*
D03*
X30750Y10500D02*
D03*
X36750D02*
D03*
X42750D02*
D03*
X12750Y4500D02*
D03*
X18750D02*
D03*
X24750D02*
D03*
X30750D02*
D03*
X36750D02*
D03*
X42750D02*
D03*
X48750D02*
D03*
Y10500D02*
D03*
Y16500D02*
D03*
X92750Y54250D02*
D03*
X88250D02*
D03*
X116750Y61500D02*
D03*
X111250D02*
D03*
X60000Y99000D02*
D03*
X114000D02*
D03*
Y105000D02*
D03*
X108000Y99000D02*
D03*
Y105000D02*
D03*
X102000Y99000D02*
D03*
Y105000D02*
D03*
X48000Y118000D02*
D03*
X59000Y32750D02*
D03*
X120000Y112000D02*
D03*
X114000D02*
D03*
X108000D02*
D03*
X102000D02*
D03*
X96000D02*
D03*
X90000D02*
D03*
X84000D02*
D03*
X78000D02*
D03*
X72000D02*
D03*
X66000D02*
D03*
X60000D02*
D03*
X54000D02*
D03*
X48000D02*
D03*
X120000Y118000D02*
D03*
X114000D02*
D03*
X108000D02*
D03*
X102000D02*
D03*
X96000D02*
D03*
X90000D02*
D03*
X84000D02*
D03*
X78000D02*
D03*
X72000D02*
D03*
X66000D02*
D03*
X60000D02*
D03*
X54000D02*
D03*
X59000Y27750D02*
D03*
Y22750D02*
D03*
X68825Y32500D02*
D03*
Y27500D02*
D03*
Y22500D02*
D03*
X78825Y32500D02*
D03*
Y27500D02*
D03*
Y22500D02*
D03*
X98825Y32500D02*
D03*
Y27500D02*
D03*
Y22500D02*
D03*
X88825D02*
D03*
Y27500D02*
D03*
Y32500D02*
D03*
X4000Y47000D02*
D03*
X2987Y99445D02*
D03*
X3000Y86000D02*
D03*
X3500Y70000D02*
D03*
Y64000D02*
D03*
X50300Y86250D02*
D03*
X92750Y67000D02*
D03*
X115650Y163700D02*
D03*
X17460Y165016D02*
D03*
X58750Y164250D02*
D03*
Y157250D02*
D03*
X58700Y160750D02*
D03*
X58750Y171250D02*
D03*
Y167750D02*
D03*
X47000Y61500D02*
D03*
X44250Y66250D02*
D03*
X4250Y113250D02*
D03*
X27500Y117250D02*
D03*
X38250Y166250D02*
D03*
X29000Y151500D02*
D03*
Y148000D02*
D03*
Y144500D02*
D03*
X5500Y96250D02*
D03*
X12900Y108000D02*
D03*
X13000Y116500D02*
D03*
X27750Y179000D02*
D03*
X28750Y141000D02*
D03*
X26500Y138000D02*
D03*
X19500D02*
D03*
X23000D02*
D03*
X17000Y143750D02*
D03*
Y147250D02*
D03*
Y150750D02*
D03*
Y154250D02*
D03*
X48600Y160550D02*
D03*
Y157050D02*
D03*
Y164050D02*
D03*
X23250Y117250D02*
D03*
D40*
X27750Y179000D02*
X32636Y174114D01*
Y163801D02*
Y174114D01*
D41*
X52100Y194800D02*
D03*
X49100D02*
D03*
X46100D02*
D03*
X43100D02*
D03*
X40100D02*
D03*
X38600Y192300D02*
D03*
X41600D02*
D03*
X44600D02*
D03*
X47600D02*
D03*
X50600D02*
D03*
X37100Y194800D02*
D03*
X38600Y197300D02*
D03*
X41600D02*
D03*
X44600D02*
D03*
X47600D02*
D03*
X50600D02*
D03*
X53600D02*
D03*
X35600D02*
D03*
X43600Y166300D02*
D03*
Y169300D02*
D03*
Y172300D02*
D03*
Y163300D02*
D03*
X43350Y160050D02*
D03*
X53600Y159800D02*
D03*
Y163300D02*
D03*
Y172300D02*
D03*
Y169300D02*
D03*
Y166300D02*
D03*
X52100Y174800D02*
D03*
X45100D02*
D03*
X42100D02*
D03*
X55100D02*
D03*
X53600Y177300D02*
D03*
X50600D02*
D03*
X46600D02*
D03*
X43600D02*
D03*
X40600D02*
D03*
X56600D02*
D03*
X63750Y161250D02*
D03*
X65500Y163750D02*
D03*
X67250Y161250D02*
D03*
X70750Y161250D02*
D03*
X69000Y163750D02*
D03*
X83500D02*
D03*
X81750Y161250D02*
D03*
X85250Y161250D02*
D03*
X87000Y163750D02*
D03*
X88750Y161250D02*
D03*
X92250Y161250D02*
D03*
X90500Y163750D02*
D03*
X112000Y163750D02*
D03*
X113500Y161250D02*
D03*
X110250Y161250D02*
D03*
X108500Y163750D02*
D03*
X106750Y161250D02*
D03*
X103250Y161250D02*
D03*
X105000Y163750D02*
D03*
X13600Y86750D02*
D03*
X23512Y144458D02*
D03*
X17032Y159886D02*
D03*
X23634Y150430D02*
D03*
X20634Y159680D02*
D03*
X23634Y159430D02*
D03*
Y156430D02*
D03*
Y153430D02*
D03*
X23512Y147458D02*
D03*
X28954Y156680D02*
D03*
X32636Y163801D02*
D03*
X90500Y180500D02*
D03*
X78750D02*
D03*
X101500D02*
D03*
X100750Y189500D02*
D03*
X81250Y176000D02*
D03*
Y179000D02*
D03*
X115500Y175500D02*
D03*
X112500D02*
D03*
X109250D02*
D03*
X93000Y182000D02*
D03*
X101500Y186500D02*
D03*
X100750Y183500D02*
D03*
X97500Y146250D02*
D03*
X100500D02*
D03*
X103500D02*
D03*
X106500D02*
D03*
X100500Y150250D02*
D03*
X97500D02*
D03*
X106500Y138250D02*
D03*
X103500D02*
D03*
X100500D02*
D03*
X97500D02*
D03*
X106500Y134250D02*
D03*
X103500D02*
D03*
X100500D02*
D03*
X97500D02*
D03*
X106500Y126250D02*
D03*
X103500D02*
D03*
X100500D02*
D03*
X97500D02*
D03*
X62500D02*
D03*
X65500D02*
D03*
X68500D02*
D03*
X71500D02*
D03*
X62500Y134250D02*
D03*
X65500D02*
D03*
X68500D02*
D03*
X71500D02*
D03*
X62500Y138250D02*
D03*
X65500D02*
D03*
X68500D02*
D03*
X71500D02*
D03*
X68500Y150250D02*
D03*
X71500D02*
D03*
Y146250D02*
D03*
X68500D02*
D03*
X65500D02*
D03*
X62500D02*
D03*
X104000Y176000D02*
D03*
Y179000D02*
D03*
X101500Y177500D02*
D03*
X99000Y176000D02*
D03*
Y179000D02*
D03*
X96500Y181000D02*
D03*
X93000Y176000D02*
D03*
Y179000D02*
D03*
X90500Y177500D02*
D03*
X88000Y179000D02*
D03*
X85500Y181000D02*
D03*
X88000Y176000D02*
D03*
X78750Y177500D02*
D03*
X76250Y179000D02*
D03*
Y176000D02*
D03*
X73750Y177500D02*
D03*
X75750Y192750D02*
D03*
X73250Y191250D02*
D03*
X65750Y180750D02*
D03*
X63250Y191250D02*
D03*
X60750Y189750D02*
D03*
X98250Y194250D02*
D03*
Y197250D02*
D03*
X95750Y192750D02*
D03*
Y195750D02*
D03*
X93250Y197250D02*
D03*
Y194250D02*
D03*
Y191250D02*
D03*
X90750Y192750D02*
D03*
Y195750D02*
D03*
X88250Y197250D02*
D03*
Y191250D02*
D03*
X83250D02*
D03*
X88250Y194250D02*
D03*
X85750Y195750D02*
D03*
Y192750D02*
D03*
X83250Y197250D02*
D03*
Y194250D02*
D03*
X80750Y192750D02*
D03*
X78250Y194250D02*
D03*
X80750Y195750D02*
D03*
X78250Y197250D02*
D03*
X73250D02*
D03*
X75750Y195750D02*
D03*
X73250Y194250D02*
D03*
X70750Y195750D02*
D03*
X68250Y194250D02*
D03*
X70750Y192750D02*
D03*
Y189750D02*
D03*
Y186750D02*
D03*
Y183750D02*
D03*
X68250Y191250D02*
D03*
Y188250D02*
D03*
Y185250D02*
D03*
Y182250D02*
D03*
X65750Y183750D02*
D03*
Y186750D02*
D03*
Y189750D02*
D03*
X63250Y188250D02*
D03*
Y185250D02*
D03*
Y182250D02*
D03*
X60750Y186750D02*
D03*
Y183750D02*
D03*
Y180750D02*
D03*
D42*
X43000Y72750D02*
D03*
X45250Y86650D02*
D03*
X79150Y86250D02*
D03*
X69150D02*
D03*
X129000Y80000D02*
D03*
X123000Y86000D02*
D03*
X129000D02*
D03*
X123000Y80000D02*
D03*
Y38000D02*
D03*
X92825Y10500D02*
D03*
X62825Y16500D02*
D03*
X56825D02*
D03*
Y10500D02*
D03*
Y4500D02*
D03*
X62825D02*
D03*
X74825D02*
D03*
X80825Y10500D02*
D03*
X68825D02*
D03*
X74825Y16500D02*
D03*
X98825D02*
D03*
Y4500D02*
D03*
X86825D02*
D03*
Y16500D02*
D03*
X105000Y20000D02*
D03*
Y32000D02*
D03*
Y26000D02*
D03*
X111000Y20000D02*
D03*
Y32000D02*
D03*
X117000Y26000D02*
D03*
Y14000D02*
D03*
Y8000D02*
D03*
X123000D02*
D03*
X129000D02*
D03*
X123000Y20000D02*
D03*
X129000Y14000D02*
D03*
Y20000D02*
D03*
X123000Y32000D02*
D03*
X129000Y26000D02*
D03*
Y32000D02*
D03*
X123000Y44000D02*
D03*
X129000Y38000D02*
D03*
Y44000D02*
D03*
X130000Y102000D02*
D03*
X126000Y105000D02*
D03*
Y99000D02*
D03*
X129000Y74000D02*
D03*
Y68000D02*
D03*
Y62000D02*
D03*
Y56000D02*
D03*
Y50000D02*
D03*
X123000D02*
D03*
Y56000D02*
D03*
Y62000D02*
D03*
Y68000D02*
D03*
Y74000D02*
D03*
X129000Y92000D02*
D03*
X123000D02*
D03*
X92493Y94868D02*
D03*
X120000Y99000D02*
D03*
X96000D02*
D03*
X90000D02*
D03*
X84000D02*
D03*
X78000D02*
D03*
X72000D02*
D03*
X66000D02*
D03*
X54000D02*
D03*
X48000D02*
D03*
X120000Y105000D02*
D03*
X96000D02*
D03*
X90000D02*
D03*
X84000D02*
D03*
X78000D02*
D03*
X72000D02*
D03*
X66000D02*
D03*
X60000D02*
D03*
X54000D02*
D03*
X48000D02*
D03*
X89000Y71000D02*
D03*
X127000Y122000D02*
D03*
X68881Y142250D02*
D03*
X64881D02*
D03*
X62381Y150250D02*
D03*
X68631Y130250D02*
D03*
X65131D02*
D03*
X103750D02*
D03*
X100250D02*
D03*
X94650Y163450D02*
D03*
X97750Y161750D02*
D03*
X100850Y163450D02*
D03*
X79350Y163450D02*
D03*
X76250Y161750D02*
D03*
X73150Y163450D02*
D03*
X84750Y177500D02*
D03*
X104000Y189000D02*
D03*
X104250Y182250D02*
D03*
X18750Y117250D02*
D03*
X124250Y135000D02*
D03*
X43500Y149750D02*
D03*
X41250Y139000D02*
D03*
Y131000D02*
D03*
Y123000D02*
D03*
Y115000D02*
D03*
Y107000D02*
D03*
Y99000D02*
D03*
X39750Y91000D02*
D03*
X125750Y130000D02*
D03*
X116250Y151000D02*
D03*
Y147000D02*
D03*
Y139000D02*
D03*
Y143000D02*
D03*
Y135000D02*
D03*
Y127000D02*
D03*
Y131000D02*
D03*
X120250Y151000D02*
D03*
Y143000D02*
D03*
Y139000D02*
D03*
Y147000D02*
D03*
Y131000D02*
D03*
Y127000D02*
D03*
Y135000D02*
D03*
X106500Y150250D02*
D03*
X104000Y142250D02*
D03*
X100000D02*
D03*
X52600Y135050D02*
D03*
Y127050D02*
D03*
Y131050D02*
D03*
Y147050D02*
D03*
Y139050D02*
D03*
Y143050D02*
D03*
Y151050D02*
D03*
X48600Y131050D02*
D03*
Y127050D02*
D03*
Y135050D02*
D03*
Y143050D02*
D03*
Y139050D02*
D03*
Y147050D02*
D03*
Y151050D02*
D03*
X114750Y156000D02*
D03*
X111250D02*
D03*
X118250D02*
D03*
X107000Y178000D02*
D03*
X96000Y177500D02*
D03*
M02*
