G04*
G04 #@! TF.GenerationSoftware,Altium Limited,Altium Designer,25.0.2 (28)*
G04*
G04 Layer_Color=32896*
%FSLAX44Y44*%
%MOMM*%
G71*
G04*
G04 #@! TF.SameCoordinates,54A35FAF-5F68-4BCB-90B9-8CF1E0348433*
G04*
G04*
G04 #@! TF.FilePolarity,Positive*
G04*
G01*
G75*
%ADD10C,0.1000*%
D10*
X48600Y163800D02*
Y168800D01*
X46100Y166300D02*
X51100D01*
X53150Y83750D02*
Y88750D01*
X50650Y86250D02*
X55650D01*
X62150D02*
X67150D01*
X64650Y83750D02*
Y88750D01*
X53825Y18250D02*
X58825D01*
X56325Y15750D02*
Y20750D01*
X3250Y70000D02*
X8250D01*
X5750Y67500D02*
Y72500D01*
X3250Y64000D02*
X8250D01*
X5750Y61500D02*
Y66500D01*
X87750Y60250D02*
Y65250D01*
X85250Y62750D02*
X90250D01*
X90178Y75222D02*
X95178D01*
X92678Y72722D02*
Y77722D01*
X82400Y79250D02*
X87400D01*
X84900Y76750D02*
Y81750D01*
X87250Y87750D02*
X92250D01*
X89750Y85250D02*
Y90250D01*
X90000Y90250D02*
Y95250D01*
X87500Y92750D02*
X92500D01*
X42750Y89500D02*
X47750D01*
X45250Y87000D02*
Y92000D01*
X116500Y53000D02*
X121500D01*
X119000Y50500D02*
Y55500D01*
X116500Y70000D02*
X121500D01*
X119000Y67500D02*
Y72500D01*
X116500Y89000D02*
X121500D01*
X119000Y86500D02*
Y91500D01*
X117000Y106500D02*
Y111500D01*
X114500Y109000D02*
X119500D01*
X48500D02*
X53500D01*
X51000Y106500D02*
Y111500D01*
X61700Y109000D02*
X66700D01*
X64200Y106500D02*
Y111500D01*
X74900Y109000D02*
X79900D01*
X77400Y106500D02*
Y111500D01*
X101300Y109000D02*
X106300D01*
X103800Y106500D02*
Y111500D01*
X88100Y109000D02*
X93100D01*
X90600Y106500D02*
Y111500D01*
X3500Y58000D02*
X6000D01*
X4750Y56750D02*
Y59250D01*
X92750Y59750D02*
Y62250D01*
X91500Y61000D02*
X94000D01*
X3500Y76000D02*
X6000D01*
X4750Y74750D02*
Y77250D01*
X15500Y169500D02*
X20500D01*
X18000Y167000D02*
Y172000D01*
X90000Y156500D02*
Y161500D01*
X87500Y159000D02*
X92500D01*
X14250Y161500D02*
X19250D01*
X16750Y159000D02*
Y164000D01*
X25000Y161250D02*
Y166250D01*
X22500Y163750D02*
X27500D01*
X30750Y166000D02*
X35750D01*
X33250Y163500D02*
Y168500D01*
X98500Y84014D02*
X103500D01*
X101000Y81514D02*
Y86514D01*
X98500Y59014D02*
X103500D01*
X101000Y56514D02*
Y61514D01*
X22250Y86000D02*
Y91000D01*
X19750Y88500D02*
X24750D01*
X15750Y103750D02*
Y108750D01*
X13250Y106250D02*
X18250D01*
X12750Y98500D02*
X17750D01*
X15250Y96000D02*
Y101000D01*
X10250Y86000D02*
Y91000D01*
X7750Y88500D02*
X12750D01*
X13000Y120750D02*
Y125750D01*
X10500Y123250D02*
X15500D01*
X20500Y138000D02*
X25500D01*
X23000Y135500D02*
Y140500D01*
X17000Y150000D02*
X22000D01*
X19500Y147500D02*
Y152500D01*
X25750Y147000D02*
Y152000D01*
X23250Y149500D02*
X28250D01*
X22250Y117250D02*
X27250D01*
X24750Y114750D02*
Y119750D01*
X33250Y156250D02*
Y161250D01*
X30750Y158750D02*
X35750D01*
X42250Y189000D02*
X47250D01*
X44750Y186500D02*
Y191500D01*
X108500Y138000D02*
X113500D01*
X111000Y135500D02*
Y140500D01*
X108500Y128000D02*
X113500D01*
X111000Y125500D02*
Y130500D01*
X98500Y158985D02*
X103500D01*
X101000Y156485D02*
Y161485D01*
X76500Y172985D02*
X81500D01*
X79000Y170485D02*
Y175485D01*
X76500Y165985D02*
X81500D01*
X79000Y163485D02*
Y168485D01*
X76500Y159000D02*
X81500D01*
X79000Y156500D02*
Y161500D01*
X108500Y148000D02*
X113500D01*
X111000Y145500D02*
Y150500D01*
X73500Y128000D02*
X78500D01*
X76000Y125500D02*
Y130500D01*
X90500Y128000D02*
X95500D01*
X93000Y125500D02*
Y130500D01*
X90500Y148000D02*
X95500D01*
X93000Y145500D02*
Y150500D01*
X90500Y138000D02*
X95500D01*
X93000Y135500D02*
Y140500D01*
X73500Y148000D02*
X78500D01*
X76000Y145500D02*
Y150500D01*
X73500Y138000D02*
X78500D01*
X76000Y135500D02*
Y140500D01*
X55500Y148000D02*
X60500D01*
X58000Y145500D02*
Y150500D01*
X55500Y128000D02*
X60500D01*
X58000Y125500D02*
Y130500D01*
X55500Y138000D02*
X60500D01*
X58000Y135500D02*
Y140500D01*
X101000Y163485D02*
Y168485D01*
X98500Y165985D02*
X103500D01*
X68000Y156500D02*
Y161500D01*
X65500Y159000D02*
X70500D01*
X90000Y163485D02*
Y168485D01*
X87500Y165985D02*
X92500D01*
X101000Y170485D02*
Y175485D01*
X98500Y172985D02*
X103500D01*
X68000Y170500D02*
Y175500D01*
X65500Y173000D02*
X70500D01*
X112000Y170485D02*
Y175485D01*
X109500Y172985D02*
X114500D01*
X90000Y170485D02*
Y175485D01*
X87500Y172985D02*
X92500D01*
X68000Y163500D02*
Y168500D01*
X65500Y166000D02*
X70500D01*
X112000Y156485D02*
Y161485D01*
X109500Y158985D02*
X114500D01*
X112000Y163485D02*
Y168485D01*
X109500Y165985D02*
X114500D01*
X89250Y186500D02*
Y191500D01*
X86750Y189000D02*
X91750D01*
X29500Y134000D02*
X34500D01*
X32000Y131500D02*
Y136500D01*
M02*
