G04*
G04 #@! TF.GenerationSoftware,Altium Limited,Altium Designer,25.0.2 (28)*
G04*
G04 Layer_Color=8388736*
%FSLAX44Y44*%
%MOMM*%
G71*
G04*
G04 #@! TF.SameCoordinates,54A35FAF-5F68-4BCB-90B9-8CF1E0348433*
G04*
G04*
G04 #@! TF.FilePolarity,Positive*
G04*
G01*
G75*
%ADD57C,0.2000*%
D57*
X96000Y177500D02*
D03*
X107000Y178000D02*
D03*
X88250Y169500D02*
D03*
X112750D02*
D03*
X109249D02*
D03*
X116250D02*
D03*
X118250Y156000D02*
D03*
X111250D02*
D03*
X114750D02*
D03*
X48600Y151050D02*
D03*
Y147050D02*
D03*
Y139050D02*
D03*
Y143050D02*
D03*
Y135050D02*
D03*
Y127050D02*
D03*
Y131050D02*
D03*
X52600Y151050D02*
D03*
Y143050D02*
D03*
Y139050D02*
D03*
Y147050D02*
D03*
Y131050D02*
D03*
Y127050D02*
D03*
Y135050D02*
D03*
X100000Y142250D02*
D03*
X104000D02*
D03*
X106500Y150250D02*
D03*
X88441Y136197D02*
D03*
Y124697D02*
D03*
Y139697D02*
D03*
X84441Y124697D02*
D03*
Y136197D02*
D03*
Y139697D02*
D03*
X80441D02*
D03*
Y136197D02*
D03*
X120250Y135000D02*
D03*
Y127000D02*
D03*
Y131000D02*
D03*
Y147000D02*
D03*
Y139000D02*
D03*
Y143000D02*
D03*
Y151000D02*
D03*
X116250Y131000D02*
D03*
Y127000D02*
D03*
Y135000D02*
D03*
Y143000D02*
D03*
Y139000D02*
D03*
Y147000D02*
D03*
Y151000D02*
D03*
X80441Y124697D02*
D03*
X125750Y130000D02*
D03*
X39750Y91000D02*
D03*
X41250Y99000D02*
D03*
Y107000D02*
D03*
Y115000D02*
D03*
Y123000D02*
D03*
Y131000D02*
D03*
Y139000D02*
D03*
X43500Y149750D02*
D03*
X124250Y135000D02*
D03*
X23250Y117250D02*
D03*
X18750D02*
D03*
X48600Y164050D02*
D03*
Y157050D02*
D03*
Y160550D02*
D03*
X17000Y154250D02*
D03*
Y150750D02*
D03*
Y147250D02*
D03*
Y143750D02*
D03*
X23000Y138000D02*
D03*
X19500D02*
D03*
X26500D02*
D03*
X28750Y141000D02*
D03*
X27750Y179000D02*
D03*
X37750Y144750D02*
D03*
X31000Y128500D02*
D03*
X18750Y174500D02*
D03*
X13000Y116500D02*
D03*
X7900Y104750D02*
D03*
X12900Y108000D02*
D03*
X5500Y96250D02*
D03*
X22250Y83423D02*
D03*
X91750Y169500D02*
D03*
X38250Y152250D02*
D03*
X29000Y144500D02*
D03*
Y148000D02*
D03*
Y151500D02*
D03*
X38250Y166250D02*
D03*
X27500Y117250D02*
D03*
X21500Y107750D02*
D03*
X104250Y182250D02*
D03*
X104000Y189000D02*
D03*
X84750Y177500D02*
D03*
X73150Y163450D02*
D03*
X76250Y161750D02*
D03*
X79350Y163450D02*
D03*
X100850Y163450D02*
D03*
X97750Y161750D02*
D03*
X94650Y163450D02*
D03*
X71750Y169500D02*
D03*
X67250D02*
D03*
X66500Y156250D02*
D03*
X100250Y130250D02*
D03*
X103750D02*
D03*
X65131D02*
D03*
X68631D02*
D03*
X62381Y150250D02*
D03*
X64881Y142250D02*
D03*
X68881D02*
D03*
X4250Y113250D02*
D03*
X31500Y73000D02*
D03*
X44250Y66250D02*
D03*
X47000Y61500D02*
D03*
X13250Y139250D02*
D03*
X58750Y167750D02*
D03*
Y171250D02*
D03*
X58700Y160750D02*
D03*
X58750Y157250D02*
D03*
Y164250D02*
D03*
X17460Y165016D02*
D03*
X64000Y197000D02*
D03*
X115650Y163700D02*
D03*
X28500Y92000D02*
D03*
X23750Y41000D02*
D03*
X127000Y122000D02*
D03*
X92750Y67000D02*
D03*
X50300Y86250D02*
D03*
X89000Y71000D02*
D03*
X8878Y51234D02*
D03*
X3500Y64000D02*
D03*
Y70000D02*
D03*
X3000Y86000D02*
D03*
X2987Y99445D02*
D03*
X4000Y47000D02*
D03*
X16300Y55700D02*
D03*
X28750Y33750D02*
D03*
X88825Y32500D02*
D03*
Y27500D02*
D03*
Y22500D02*
D03*
X98825D02*
D03*
Y27500D02*
D03*
Y32500D02*
D03*
X78825Y22500D02*
D03*
Y27500D02*
D03*
Y32500D02*
D03*
X68825Y22500D02*
D03*
Y27500D02*
D03*
Y32500D02*
D03*
X59000Y22750D02*
D03*
Y27750D02*
D03*
X54000Y118000D02*
D03*
X72000D02*
D03*
X96000D02*
D03*
X114000D02*
D03*
X54000Y112000D02*
D03*
X72000D02*
D03*
X96000D02*
D03*
X114000D02*
D03*
X48000Y105000D02*
D03*
X54000D02*
D03*
X60000D02*
D03*
X66000D02*
D03*
X72000D02*
D03*
X78000D02*
D03*
X84000D02*
D03*
X90000D02*
D03*
X96000D02*
D03*
X120000D02*
D03*
X48000Y99000D02*
D03*
X54000D02*
D03*
X66000D02*
D03*
X72000D02*
D03*
X78000D02*
D03*
X84000D02*
D03*
X90000D02*
D03*
X96000D02*
D03*
X120000D02*
D03*
X92493Y94868D02*
D03*
X123000Y92000D02*
D03*
X129000D02*
D03*
X123000Y74000D02*
D03*
Y68000D02*
D03*
Y62000D02*
D03*
Y56000D02*
D03*
Y50000D02*
D03*
X129000D02*
D03*
Y56000D02*
D03*
Y62000D02*
D03*
Y68000D02*
D03*
Y74000D02*
D03*
X81000Y152000D02*
D03*
Y155500D02*
D03*
X85000D02*
D03*
Y152000D02*
D03*
X89000Y155500D02*
D03*
Y152000D02*
D03*
X126000Y99000D02*
D03*
Y105000D02*
D03*
X130000Y102000D02*
D03*
X59000Y32750D02*
D03*
X111250Y61500D02*
D03*
X116750D02*
D03*
X129000Y44000D02*
D03*
Y38000D02*
D03*
X123000Y44000D02*
D03*
X129000Y32000D02*
D03*
Y26000D02*
D03*
X123000Y32000D02*
D03*
X129000Y20000D02*
D03*
Y14000D02*
D03*
X123000Y20000D02*
D03*
X129000Y8000D02*
D03*
X123000D02*
D03*
X117000D02*
D03*
Y14000D02*
D03*
Y26000D02*
D03*
X111000Y32000D02*
D03*
Y20000D02*
D03*
X105000Y26000D02*
D03*
Y32000D02*
D03*
Y20000D02*
D03*
X88250Y54250D02*
D03*
X92750D02*
D03*
X48750Y16500D02*
D03*
Y10500D02*
D03*
Y4500D02*
D03*
X42750D02*
D03*
X36750D02*
D03*
X30750D02*
D03*
X24750D02*
D03*
X18750D02*
D03*
X12750D02*
D03*
X42750Y10500D02*
D03*
X36750D02*
D03*
X30750D02*
D03*
X42750Y16500D02*
D03*
X24750Y10500D02*
D03*
X18750D02*
D03*
X12750D02*
D03*
Y16500D02*
D03*
X6750D02*
D03*
X4750Y22500D02*
D03*
Y28500D02*
D03*
Y34500D02*
D03*
Y40500D02*
D03*
X86825Y16500D02*
D03*
Y4500D02*
D03*
X98825D02*
D03*
Y16500D02*
D03*
X74825D02*
D03*
X68825Y10500D02*
D03*
X80825D02*
D03*
X74825Y4500D02*
D03*
X62825D02*
D03*
X56825D02*
D03*
Y10500D02*
D03*
Y16500D02*
D03*
X62825D02*
D03*
X92825Y10500D02*
D03*
X123000Y38000D02*
D03*
X59000Y38750D02*
D03*
X29000Y55700D02*
D03*
X113500Y80000D02*
D03*
X118000D02*
D03*
X123000Y80000D02*
D03*
X129000Y86000D02*
D03*
X123000D02*
D03*
X129000Y80000D02*
D03*
X64000Y73500D02*
D03*
X69150Y86250D02*
D03*
X79150D02*
D03*
X45250Y86650D02*
D03*
X36250Y41250D02*
D03*
X34000Y25750D02*
D03*
X30500Y99500D02*
D03*
X31000Y105750D02*
D03*
X48600Y171050D02*
D03*
Y167550D02*
D03*
M02*
