G04*
G04 #@! TF.GenerationSoftware,Altium Limited,Altium Designer,25.0.2 (28)*
G04*
G04 Layer_Physical_Order=1*
G04 Layer_Color=255*
%FSLAX44Y44*%
%MOMM*%
G71*
G04*
G04 #@! TF.SameCoordinates,54A35FAF-5F68-4BCB-90B9-8CF1E0348433*
G04*
G04*
G04 #@! TF.FilePolarity,Positive*
G04*
G01*
G75*
G04:AMPARAMS|DCode=11|XSize=0.28mm|YSize=0.23mm|CornerRadius=0.115mm|HoleSize=0mm|Usage=FLASHONLY|Rotation=90.000|XOffset=0mm|YOffset=0mm|HoleType=Round|Shape=RoundedRectangle|*
%AMROUNDEDRECTD11*
21,1,0.2800,0.0000,0,0,90.0*
21,1,0.0500,0.2300,0,0,90.0*
1,1,0.2300,0.0000,0.0250*
1,1,0.2300,0.0000,-0.0250*
1,1,0.2300,0.0000,-0.0250*
1,1,0.2300,0.0000,0.0250*
%
%ADD11ROUNDEDRECTD11*%
G04:AMPARAMS|DCode=12|XSize=0.805mm|YSize=0.23mm|CornerRadius=0.115mm|HoleSize=0mm|Usage=FLASHONLY|Rotation=90.000|XOffset=0mm|YOffset=0mm|HoleType=Round|Shape=RoundedRectangle|*
%AMROUNDEDRECTD12*
21,1,0.8050,0.0000,0,0,90.0*
21,1,0.5750,0.2300,0,0,90.0*
1,1,0.2300,0.0000,0.2875*
1,1,0.2300,0.0000,-0.2875*
1,1,0.2300,0.0000,-0.2875*
1,1,0.2300,0.0000,0.2875*
%
%ADD12ROUNDEDRECTD12*%
G04:AMPARAMS|DCode=13|XSize=1.155mm|YSize=0.23mm|CornerRadius=0.115mm|HoleSize=0mm|Usage=FLASHONLY|Rotation=90.000|XOffset=0mm|YOffset=0mm|HoleType=Round|Shape=RoundedRectangle|*
%AMROUNDEDRECTD13*
21,1,1.1550,0.0000,0,0,90.0*
21,1,0.9250,0.2300,0,0,90.0*
1,1,0.2300,0.0000,0.4625*
1,1,0.2300,0.0000,-0.4625*
1,1,0.2300,0.0000,-0.4625*
1,1,0.2300,0.0000,0.4625*
%
%ADD13ROUNDEDRECTD13*%
G04:AMPARAMS|DCode=14|XSize=1.33mm|YSize=0.23mm|CornerRadius=0.115mm|HoleSize=0mm|Usage=FLASHONLY|Rotation=90.000|XOffset=0mm|YOffset=0mm|HoleType=Round|Shape=RoundedRectangle|*
%AMROUNDEDRECTD14*
21,1,1.3300,0.0000,0,0,90.0*
21,1,1.1000,0.2300,0,0,90.0*
1,1,0.2300,0.0000,0.5500*
1,1,0.2300,0.0000,-0.5500*
1,1,0.2300,0.0000,-0.5500*
1,1,0.2300,0.0000,0.5500*
%
%ADD14ROUNDEDRECTD14*%
%ADD15R,0.3500X0.3500*%
%ADD16R,1.0000X0.9000*%
%ADD17R,0.2500X0.2500*%
%ADD18R,0.3000X0.3000*%
%ADD19R,0.6000X0.6000*%
%ADD20R,1.2000X0.4000*%
G04:AMPARAMS|DCode=21|XSize=0.35mm|YSize=0.35mm|CornerRadius=0.0875mm|HoleSize=0mm|Usage=FLASHONLY|Rotation=90.000|XOffset=0mm|YOffset=0mm|HoleType=Round|Shape=RoundedRectangle|*
%AMROUNDEDRECTD21*
21,1,0.3500,0.1750,0,0,90.0*
21,1,0.1750,0.3500,0,0,90.0*
1,1,0.1750,0.0875,0.0875*
1,1,0.1750,0.0875,-0.0875*
1,1,0.1750,-0.0875,-0.0875*
1,1,0.1750,-0.0875,0.0875*
%
%ADD21ROUNDEDRECTD21*%
%ADD22C,0.3500*%
%ADD23R,0.3500X0.3500*%
%ADD24C,0.2200*%
G04:AMPARAMS|DCode=25|XSize=0.2064mm|YSize=0.5627mm|CornerRadius=0.0516mm|HoleSize=0mm|Usage=FLASHONLY|Rotation=270.000|XOffset=0mm|YOffset=0mm|HoleType=Round|Shape=RoundedRectangle|*
%AMROUNDEDRECTD25*
21,1,0.2064,0.4596,0,0,270.0*
21,1,0.1032,0.5627,0,0,270.0*
1,1,0.1032,-0.2298,-0.0516*
1,1,0.1032,-0.2298,0.0516*
1,1,0.1032,0.2298,0.0516*
1,1,0.1032,0.2298,-0.0516*
%
%ADD25ROUNDEDRECTD25*%
%ADD26R,0.5627X0.2064*%
%ADD27C,0.2500*%
%ADD28R,1.5500X0.3750*%
%ADD29R,0.3850X0.9500*%
%ADD30R,0.5600X0.7400*%
%ADD31R,0.9000X1.0000*%
%ADD32R,1.1200X0.3200*%
%ADD33R,1.1200X0.3230*%
%ADD34R,0.3850X0.8500*%
%ADD35R,1.0500X0.3200*%
%ADD36R,0.3250X1.1500*%
%ADD37R,0.3200X1.1200*%
%ADD38R,0.3230X1.1200*%
%ADD39C,0.2000*%
%ADD40C,0.1500*%
%ADD41C,0.3000*%
%ADD42C,0.4000*%
G36*
X105000Y194350D02*
X107000D01*
Y192850D01*
X98855D01*
X97000Y190995D01*
X72895D01*
X72825Y190925D01*
Y181517D01*
X68948Y180534D01*
X61500Y180600D01*
X30725D01*
Y190100D01*
X34575D01*
X36675Y188000D01*
X52825D01*
X54925Y190100D01*
X56850D01*
X58680Y191226D01*
X60500D01*
X61648Y191702D01*
X62124Y192850D01*
Y193119D01*
X63200Y193813D01*
X63354Y193750D01*
X64647D01*
X65841Y194245D01*
X66755Y195159D01*
X67250Y196353D01*
Y196502D01*
X71173Y198918D01*
X73500D01*
Y200350D01*
X105000D01*
Y194350D01*
D02*
G37*
G36*
X60500Y194350D02*
Y192850D01*
X27000D01*
Y194350D01*
X29000D01*
Y200350D01*
X60500D01*
Y194350D01*
D02*
G37*
G36*
X106418Y189602D02*
Y183000D01*
X106735Y182235D01*
X109000Y179969D01*
Y179400D01*
X109765Y179204D01*
X111485Y177485D01*
X111485Y177485D01*
X112250Y177168D01*
X112250Y177168D01*
X116582D01*
X117133Y175002D01*
X116353Y174000D01*
X62400D01*
Y177200D01*
X64932Y177842D01*
X65153Y177750D01*
X66347D01*
X67449Y178207D01*
X67815Y178572D01*
Y178572D01*
X75225Y180450D01*
Y188950D01*
X79075D01*
X82100Y188000D01*
X96400D01*
X99425Y190100D01*
X103275D01*
X105148Y190471D01*
X106418Y189602D01*
D02*
G37*
G36*
X29500Y172122D02*
X28625Y172297D01*
X26875D01*
X25948Y172112D01*
X25622Y171894D01*
X25600D01*
Y171879D01*
X25163Y171587D01*
X24864Y171140D01*
X24852Y171135D01*
X24838Y171101D01*
X24638Y170802D01*
X24568Y170448D01*
X24376Y169987D01*
Y167250D01*
X24376Y167250D01*
X24435Y167108D01*
X24403Y166959D01*
X24494Y166459D01*
X24540Y166388D01*
X24530Y166304D01*
X24809Y165328D01*
X24862Y165262D01*
X24860Y165177D01*
X25234Y164233D01*
X25292Y164172D01*
X25299Y164088D01*
X25600Y163503D01*
Y163500D01*
X23400D01*
X21729Y165171D01*
X21697Y165334D01*
X21251Y166001D01*
X21045Y166139D01*
X20875Y166549D01*
X20750Y167179D01*
X20750Y167500D01*
Y167500D01*
Y169232D01*
Y169997D01*
X21049Y171498D01*
X21634Y172912D01*
X22484Y174184D01*
X23025Y174725D01*
X23025Y174725D01*
X23269Y174969D01*
X23842Y175352D01*
X24479Y175616D01*
X25155Y175750D01*
X25500D01*
X25500Y175750D01*
X29500D01*
Y172122D01*
D02*
G37*
G36*
X37234Y173515D02*
X37375Y173388D01*
X37690Y173178D01*
X38039Y173033D01*
X38411Y172959D01*
X38600Y172950D01*
X38600D01*
X38600Y170240D01*
X38023Y170040D01*
X36941Y169474D01*
X35990Y168708D01*
X35207Y167771D01*
X34888Y167250D01*
Y167250D01*
X31500D01*
Y175750D01*
X35000D01*
X37234Y173515D01*
D02*
G37*
G36*
X29600Y163500D02*
X27483Y163500D01*
X27208Y163927D01*
X26744Y164830D01*
X26370Y165774D01*
X26091Y166750D01*
X26000Y167250D01*
X26000Y167250D01*
Y169987D01*
X29600D01*
Y163500D01*
D02*
G37*
G36*
X17986Y171299D02*
X19126Y169997D01*
Y167500D01*
X19126Y167179D01*
X19190Y167025D01*
X19158Y166862D01*
X19283Y166233D01*
X19375Y166094D01*
Y165928D01*
X19545Y165517D01*
X19880Y165182D01*
X19886Y165173D01*
X19901Y165099D01*
X20101Y164800D01*
X19663Y163493D01*
X19583Y163384D01*
X19252Y163000D01*
X15300D01*
X14194Y164420D01*
X15746Y170556D01*
X17809Y171372D01*
X17986Y171299D01*
D02*
G37*
G36*
X59051Y178207D02*
X59205Y176806D01*
X56992Y174039D01*
X56909Y174005D01*
X55995Y173091D01*
X55739Y172474D01*
X55600Y172300D01*
Y172138D01*
X55500Y171896D01*
Y170604D01*
X55600Y170362D01*
Y168638D01*
X55500Y168396D01*
Y167104D01*
X55600Y166862D01*
Y165138D01*
X55500Y164897D01*
Y163604D01*
X55600Y163362D01*
Y161759D01*
X55450Y161397D01*
Y160104D01*
X55600Y159741D01*
Y158300D01*
X51750D01*
Y159662D01*
X51850Y159904D01*
Y161196D01*
X51750Y161438D01*
Y163162D01*
X51850Y163403D01*
Y164696D01*
X51750Y164938D01*
Y166662D01*
X51850Y166903D01*
Y168196D01*
X51750Y168438D01*
Y170162D01*
X51850Y170403D01*
Y171696D01*
X51750Y171938D01*
Y172200D01*
X51600Y172300D01*
X51355Y172891D01*
X50441Y173805D01*
X50251Y173884D01*
X49634Y174296D01*
X48600Y174502D01*
X47566Y174296D01*
X46949Y173884D01*
X46759Y173805D01*
X45845Y172891D01*
X45600Y172300D01*
X45500Y172233D01*
Y172058D01*
X45350Y171696D01*
Y170403D01*
X45500Y170042D01*
Y168558D01*
X45350Y168196D01*
Y166903D01*
X45500Y166542D01*
Y165058D01*
X45350Y164696D01*
Y163403D01*
X45500Y163042D01*
Y161558D01*
X45350Y161196D01*
Y159904D01*
X45500Y159542D01*
Y158300D01*
X41600D01*
Y172300D01*
X38600Y177300D01*
Y178976D01*
X58281D01*
X59051Y178207D01*
D02*
G37*
G36*
X60900Y172692D02*
Y172500D01*
X62102D01*
X62400Y172376D01*
X116353D01*
X117185Y171987D01*
X118036Y171446D01*
X118835Y168300D01*
X117435Y166500D01*
X117382D01*
X116296Y166950D01*
X115003D01*
X113918Y166500D01*
X113200D01*
X112597Y166750D01*
X111403D01*
X110800Y166500D01*
X109700D01*
X109097Y166750D01*
X107903D01*
X107300Y166500D01*
X106200D01*
X105597Y166750D01*
X104403D01*
X103800Y166500D01*
X102632D01*
X101546Y166950D01*
X100154D01*
X99068Y166500D01*
X96432D01*
X95346Y166950D01*
X93954D01*
X92868Y166500D01*
X91700D01*
X91097Y166750D01*
X89903D01*
X89300Y166500D01*
X88200D01*
X87597Y166750D01*
X86403D01*
X85800Y166500D01*
X84700D01*
X84097Y166750D01*
X82903D01*
X82300Y166500D01*
X81133D01*
X80046Y166950D01*
X78654D01*
X77567Y166500D01*
X74933D01*
X73846Y166950D01*
X72454D01*
X71367Y166500D01*
X70200D01*
X69597Y166750D01*
X68403D01*
X67800Y166500D01*
X66700D01*
X66097Y166750D01*
X64903D01*
X64300Y166500D01*
X60900D01*
Y162209D01*
X60750Y161847D01*
Y160653D01*
X60900Y160291D01*
Y158500D01*
X62550D01*
X63153Y158250D01*
X64347D01*
X64950Y158500D01*
X66050D01*
X66653Y158250D01*
X67847D01*
X68450Y158500D01*
X69550D01*
X70153Y158250D01*
X71347D01*
X71950Y158500D01*
X74950D01*
X75554Y158250D01*
X76946D01*
X77550Y158500D01*
X80550D01*
X81153Y158250D01*
X82347D01*
X82914Y158485D01*
X84086D01*
X84653Y158250D01*
X85847D01*
X86414Y158485D01*
X87586D01*
X88153Y158250D01*
X89347D01*
X89914Y158485D01*
X91086D01*
X91653Y158250D01*
X92847D01*
X93414Y158485D01*
X96486D01*
X97054Y158250D01*
X98446D01*
X99014Y158485D01*
X102086D01*
X102653Y158250D01*
X103847D01*
X104415Y158485D01*
X105585D01*
X106153Y158250D01*
X107347Y158250D01*
X107667Y158350D01*
X108100Y158485D01*
X109653Y158250D01*
X109803Y158250D01*
X110847D01*
X111451Y158500D01*
X112299D01*
X112903Y158250D01*
X114097D01*
X114701Y158500D01*
X119100D01*
Y159947D01*
X120900Y160172D01*
X128000Y132223D01*
Y131538D01*
X131846Y117082D01*
X132951Y112733D01*
X132965Y112715D01*
Y1082D01*
X52624D01*
Y46182D01*
X52500Y46480D01*
Y47216D01*
X54140Y48274D01*
X54701Y48039D01*
X55214Y47202D01*
X55269Y47162D01*
X55285Y47096D01*
X55862Y46301D01*
X55920Y46266D01*
X55941Y46201D01*
X56579Y45454D01*
X56640Y45423D01*
X56666Y45360D01*
X57360Y44666D01*
X57423Y44640D01*
X57454Y44579D01*
X58201Y43941D01*
X58266Y43920D01*
X58301Y43862D01*
X59096Y43285D01*
X59162Y43269D01*
X59202Y43214D01*
X60039Y42701D01*
X60106Y42690D01*
X60150Y42639D01*
X61026Y42193D01*
X61093Y42188D01*
X61141Y42139D01*
X62049Y41764D01*
X62117D01*
X62168Y41719D01*
X63103Y41416D01*
X63170Y41421D01*
X63225Y41381D01*
X64180Y41152D01*
X64248Y41163D01*
X64306Y41127D01*
X65276Y40974D01*
X65342Y40989D01*
X65402Y40958D01*
X66382Y40881D01*
X66446Y40902D01*
X66509Y40876D01*
X67491D01*
X67554Y40902D01*
X67618Y40881D01*
X68598Y40958D01*
X68658Y40989D01*
X68724Y40974D01*
X69694Y41127D01*
X69752Y41163D01*
X69820Y41152D01*
X70775Y41381D01*
X70830Y41421D01*
X70897Y41416D01*
X71831Y41719D01*
X71883Y41764D01*
X71951D01*
X72859Y42139D01*
X72907Y42188D01*
X72974Y42193D01*
X73850Y42639D01*
X73894Y42690D01*
X73961Y42701D01*
X74798Y43214D01*
X74838Y43269D01*
X74904Y43285D01*
X75699Y43862D01*
X75735Y43920D01*
X75799Y43941D01*
X76546Y44579D01*
X76577Y44640D01*
X76640Y44666D01*
X77334Y45360D01*
X77360Y45423D01*
X77421Y45454D01*
X78059Y46201D01*
X78080Y46266D01*
X78138Y46301D01*
X78715Y47096D01*
X78731Y47162D01*
X78786Y47202D01*
X79299Y48039D01*
X79310Y48106D01*
X79361Y48150D01*
X79807Y49026D01*
X79812Y49093D01*
X79861Y49141D01*
X80236Y50049D01*
Y50117D01*
X80281Y50168D01*
X80584Y51103D01*
X80579Y51170D01*
X80619Y51225D01*
X80848Y52180D01*
X80837Y52248D01*
X80873Y52305D01*
X81026Y53276D01*
X81011Y53342D01*
X81041Y53402D01*
X81119Y54381D01*
X81098Y54446D01*
X81124Y54509D01*
Y55491D01*
X81098Y55554D01*
X81119Y55619D01*
X81041Y56598D01*
X81011Y56658D01*
X81026Y56724D01*
X80873Y57694D01*
X80837Y57752D01*
X80848Y57819D01*
X80619Y58775D01*
X80579Y58830D01*
X80584Y58897D01*
X80281Y59832D01*
X80236Y59883D01*
Y59951D01*
X79861Y60859D01*
X79812Y60907D01*
X79807Y60974D01*
X79361Y61849D01*
X79310Y61894D01*
X79299Y61961D01*
X78786Y62798D01*
X78731Y62838D01*
X78715Y62904D01*
X78138Y63699D01*
X78080Y63734D01*
X78059Y63799D01*
X77421Y64546D01*
X77360Y64577D01*
X77334Y64640D01*
X76640Y65334D01*
X76577Y65360D01*
X76546Y65421D01*
X75799Y66059D01*
X75735Y66080D01*
X75699Y66138D01*
X74904Y66715D01*
X74838Y66731D01*
X74798Y66786D01*
X73961Y67299D01*
X73894Y67310D01*
X73850Y67361D01*
X72974Y67807D01*
X72907Y67812D01*
X72859Y67860D01*
X71951Y68236D01*
X71883D01*
X71831Y68281D01*
X70897Y68584D01*
X70830Y68579D01*
X70775Y68619D01*
X69820Y68848D01*
X69752Y68837D01*
X69694Y68873D01*
X68724Y69026D01*
X68658Y69011D01*
X68598Y69042D01*
X67619Y69119D01*
X67554Y69098D01*
X67491Y69124D01*
X66509D01*
X66446Y69098D01*
X66382Y69119D01*
X65402Y69042D01*
X65342Y69011D01*
X65276Y69026D01*
X64306Y68873D01*
X64248Y68837D01*
X64180Y68848D01*
X63225Y68619D01*
X63170Y68579D01*
X63103Y68584D01*
X62168Y68281D01*
X62117Y68236D01*
X62049D01*
X61141Y67860D01*
X61093Y67812D01*
X61026Y67807D01*
X60150Y67361D01*
X60106Y67310D01*
X60039Y67299D01*
X59202Y66786D01*
X59162Y66731D01*
X59096Y66715D01*
X58301Y66138D01*
X58266Y66080D01*
X58201Y66059D01*
X57454Y65421D01*
X57423Y65360D01*
X57360Y65334D01*
X56666Y64640D01*
X56640Y64577D01*
X56579Y64546D01*
X55941Y63799D01*
X55920Y63734D01*
X55862Y63699D01*
X55285Y62904D01*
X55269Y62838D01*
X55214Y62798D01*
X54701Y61961D01*
X54140Y61726D01*
X52500Y62784D01*
Y64306D01*
X52624Y64605D01*
Y69250D01*
X52500Y69548D01*
Y71250D01*
X39000Y84750D01*
Y141750D01*
X39591Y141995D01*
X40505Y142909D01*
X41000Y144103D01*
Y145396D01*
X40505Y146591D01*
X40000Y147096D01*
Y149457D01*
X40091Y149495D01*
X41005Y150409D01*
X41500Y151603D01*
Y152896D01*
X41005Y154091D01*
X40706Y154390D01*
X40733Y155087D01*
X41600Y156676D01*
X45500D01*
X46648Y157152D01*
X47124Y158300D01*
Y159542D01*
X47000Y159840D01*
Y160163D01*
X46974Y160226D01*
Y160874D01*
X47000Y160937D01*
Y161260D01*
X47124Y161558D01*
Y163042D01*
X47000Y163340D01*
Y163663D01*
X46974Y163727D01*
Y164373D01*
X47000Y164437D01*
Y164760D01*
X47124Y165058D01*
Y166542D01*
X47000Y166840D01*
Y167163D01*
X46974Y167227D01*
Y167873D01*
X47000Y167937D01*
Y168260D01*
X47124Y168558D01*
Y170042D01*
X47000Y170340D01*
Y170663D01*
X46974Y170726D01*
Y171374D01*
X47000Y171437D01*
Y171579D01*
X47100Y171679D01*
X47221Y171971D01*
X47767Y172517D01*
X47851Y172534D01*
X48200Y172767D01*
X48600Y172846D01*
X49001Y172767D01*
X49349Y172534D01*
X49433Y172517D01*
X49979Y171971D01*
X50100Y171679D01*
X50226Y171552D01*
Y170403D01*
X50126Y170162D01*
Y168438D01*
X50226Y168196D01*
Y166903D01*
X50126Y166662D01*
Y164938D01*
X50226Y164696D01*
Y163403D01*
X50126Y163162D01*
Y161438D01*
X50226Y161196D01*
Y159904D01*
X50126Y159662D01*
Y158300D01*
X50602Y157152D01*
X51750Y156676D01*
X55600D01*
X56748Y157152D01*
X57224Y158300D01*
Y159741D01*
X57100Y160040D01*
Y160363D01*
X57074Y160427D01*
Y161074D01*
X57100Y161137D01*
Y161460D01*
X57224Y161759D01*
Y163362D01*
X57124Y163604D01*
Y164897D01*
X57224Y165138D01*
Y166862D01*
X57124Y167104D01*
Y168396D01*
X57224Y168638D01*
Y170362D01*
X57124Y170604D01*
Y171737D01*
X57239Y171853D01*
X57371Y172171D01*
X58057Y172857D01*
X59750Y173608D01*
X60900Y172692D01*
D02*
G37*
G36*
X22931Y161100D02*
X23258Y161100D01*
X23724Y161007D01*
X23983Y160900D01*
X24074D01*
X24503Y160722D01*
X25047Y160359D01*
X25278Y160128D01*
X25278Y160128D01*
X25390Y160016D01*
X25566Y159752D01*
X25688Y159458D01*
X25721Y159294D01*
X25701Y159196D01*
Y156772D01*
X25750Y156525D01*
Y156430D01*
X21665Y156430D01*
X21054Y157015D01*
X21000Y157052D01*
Y158250D01*
X19051D01*
X18118Y158652D01*
X16463Y158993D01*
X15618Y159036D01*
X15618Y159036D01*
X15186Y159036D01*
Y161100D01*
X22931Y161100D01*
D02*
G37*
G36*
X29757Y159573D02*
X29900Y159317D01*
Y158983D01*
X30296Y158027D01*
X30921Y157402D01*
Y156285D01*
X31096Y155407D01*
X31593Y154663D01*
X34206Y152050D01*
X33500Y150250D01*
X33500D01*
Y143750D01*
X33500D01*
X33131Y142749D01*
X32956Y141871D01*
Y134500D01*
X27500D01*
X26000Y135224D01*
Y136000D01*
X24798D01*
X24500Y136124D01*
X17265D01*
X16890Y136506D01*
X16218Y137924D01*
X16500Y138603D01*
Y139896D01*
X16005Y141091D01*
X15091Y142005D01*
X13896Y142500D01*
X12604D01*
X11409Y142005D01*
X10740Y141337D01*
X9466Y141741D01*
X9054Y142002D01*
X12886Y156689D01*
X14193Y157422D01*
X14800Y157573D01*
X15186Y157413D01*
X15262Y157413D01*
X15332Y157342D01*
X16435Y156885D01*
X17628D01*
X17876Y156988D01*
X18408Y156759D01*
X18742Y156754D01*
X19051Y156626D01*
X19493D01*
X19664Y156357D01*
X19852Y155904D01*
X19915Y155878D01*
X19932Y155841D01*
X20000Y155776D01*
Y143750D01*
Y140000D01*
X26000D01*
Y142703D01*
X26055Y142758D01*
X26512Y143861D01*
Y143900D01*
X27250D01*
Y156131D01*
X27374Y156430D01*
Y156525D01*
X27310Y156679D01*
X27342Y156842D01*
X27325Y156931D01*
Y158610D01*
X28648Y159757D01*
X28753Y159801D01*
X29081Y159887D01*
X29757Y159573D01*
D02*
G37*
G36*
X24500Y134500D02*
Y131500D01*
X27750Y128250D01*
X21750Y122250D01*
X18500Y125500D01*
X8000D01*
Y134500D01*
X24500Y134500D01*
D02*
G37*
G36*
X6500Y125202D02*
Y123500D01*
X18204D01*
X20250Y121454D01*
Y120750D01*
X21750Y120626D01*
X22048Y120750D01*
X22050Y120750D01*
X29250D01*
Y124513D01*
X30354Y125250D01*
X31646D01*
X32956Y123844D01*
Y94439D01*
X31646Y93979D01*
X31156Y93940D01*
X30341Y94755D01*
X29146Y95250D01*
X27854D01*
X27810Y95232D01*
X26044Y96997D01*
Y97700D01*
X25869Y98578D01*
X25372Y99322D01*
X23500Y101194D01*
Y104750D01*
X29250D01*
Y113750D01*
X20250D01*
Y110750D01*
X19659Y110505D01*
X18745Y109591D01*
X18250Y108397D01*
Y107104D01*
X18376Y106800D01*
X17302Y105000D01*
X11500D01*
X10705Y106471D01*
X10655Y106591D01*
X9741Y107505D01*
X8547Y108000D01*
X7254D01*
X6059Y107505D01*
X5145Y106591D01*
X4650Y105396D01*
Y104104D01*
X5145Y102909D01*
X6059Y101995D01*
X7254Y101500D01*
X7906D01*
X9278Y100128D01*
X10022Y99631D01*
X10900Y99456D01*
X11500Y98500D01*
X12500Y96797D01*
Y95703D01*
X12804Y94969D01*
X12608Y94695D01*
X11805Y93892D01*
X11531Y93696D01*
X10797Y94000D01*
X9703D01*
X8692Y93581D01*
X7919Y92808D01*
X7500Y91797D01*
Y91744D01*
X5378Y89622D01*
X4881Y88878D01*
X4706Y88000D01*
Y84250D01*
X2500D01*
X1275Y85542D01*
Y112189D01*
X4713Y125368D01*
X6500Y125202D01*
D02*
G37*
G36*
X51000Y69250D02*
Y64605D01*
X50198Y63802D01*
X49645Y62976D01*
X49451Y62000D01*
Y48787D01*
X49645Y47811D01*
X50198Y46984D01*
X51000Y46182D01*
Y1082D01*
X1275D01*
Y73958D01*
X2500Y75250D01*
X8256D01*
X12186Y71319D01*
X12931Y70822D01*
X13809Y70647D01*
X29257D01*
X29659Y70245D01*
X29692Y70231D01*
X30114Y68108D01*
X22128Y60122D01*
X21631Y59378D01*
X21456Y58500D01*
Y43302D01*
X20995Y42841D01*
X20500Y41646D01*
Y40353D01*
X20995Y39159D01*
X21909Y38245D01*
X23104Y37750D01*
X24397D01*
X25591Y38245D01*
X26505Y39159D01*
X27000Y40353D01*
Y41646D01*
X26505Y42841D01*
X26044Y43302D01*
Y57550D01*
X36872Y68378D01*
X37369Y69122D01*
X37544Y70000D01*
Y70352D01*
X37619Y70465D01*
X37794Y71343D01*
Y74657D01*
X37619Y75535D01*
X37544Y75648D01*
Y80354D01*
X39207Y81043D01*
X51000Y69250D01*
D02*
G37*
%LPC*%
G36*
X108750Y154624D02*
X95250D01*
X94952Y154500D01*
X93750D01*
Y153299D01*
X93626Y153000D01*
Y122624D01*
X75374D01*
Y153000D01*
X75250Y153299D01*
Y154500D01*
X74049D01*
X73750Y154624D01*
X60250D01*
X59952Y154500D01*
X58750D01*
Y153299D01*
X58626Y153000D01*
Y121874D01*
X46000D01*
X45701Y121750D01*
X44500D01*
Y120548D01*
X44376Y120250D01*
Y110000D01*
X44852Y108852D01*
X46000Y108376D01*
X122000D01*
X123148Y108852D01*
X123624Y110000D01*
Y120250D01*
X123500Y120548D01*
Y121750D01*
X122298D01*
X122000Y121874D01*
X110374D01*
Y153000D01*
X110250Y153299D01*
Y154500D01*
X109049D01*
X108750Y154624D01*
D02*
G37*
%LPD*%
G36*
Y120250D02*
X122000D01*
Y110000D01*
X46000D01*
Y120250D01*
X60250D01*
Y153000D01*
X73750D01*
Y121000D01*
X95250D01*
Y153000D01*
X108750D01*
Y120250D01*
D02*
G37*
%LPC*%
G36*
X16946Y58950D02*
X15654D01*
X14459Y58455D01*
X13545Y57541D01*
X13050Y56346D01*
Y55054D01*
X13545Y53859D01*
X14459Y52945D01*
X15654Y52450D01*
X16946D01*
X18141Y52945D01*
X19055Y53859D01*
X19550Y55054D01*
Y56346D01*
X19055Y57541D01*
X18141Y58455D01*
X16946Y58950D01*
D02*
G37*
G36*
X9524Y54484D02*
X8231D01*
X7037Y53989D01*
X6123Y53075D01*
X5628Y51881D01*
Y50588D01*
X6123Y49393D01*
X7037Y48479D01*
X8231Y47984D01*
X9524D01*
X10719Y48479D01*
X11633Y49393D01*
X12128Y50588D01*
Y51881D01*
X11633Y53075D01*
X10719Y53989D01*
X9524Y54484D01*
D02*
G37*
G36*
X29397Y37000D02*
X28104D01*
X26909Y36505D01*
X25995Y35591D01*
X25500Y34396D01*
Y33103D01*
X25995Y31909D01*
X26909Y30995D01*
X28104Y30500D01*
X29397D01*
X30591Y30995D01*
X31505Y31909D01*
X32000Y33103D01*
Y34396D01*
X31505Y35591D01*
X30591Y36505D01*
X29397Y37000D01*
D02*
G37*
%LPD*%
D11*
X38600Y171550D02*
D03*
D12*
Y163680D02*
D03*
D13*
X43600Y166300D02*
D03*
X53600D02*
D03*
D14*
X48600D02*
D03*
X58600D02*
D03*
D15*
X14750Y101750D02*
D03*
X20250D02*
D03*
X33250Y169000D02*
D03*
X27750Y174000D02*
D03*
X33250D02*
D03*
X31250Y147000D02*
D03*
X36750D02*
D03*
X14150Y86750D02*
D03*
X19850D02*
D03*
D16*
X117000Y115750D02*
D03*
Y102250D02*
D03*
X103800Y115750D02*
D03*
Y102250D02*
D03*
X90600Y115750D02*
D03*
Y102250D02*
D03*
X77400Y115750D02*
D03*
Y102250D02*
D03*
X64200Y115750D02*
D03*
Y102250D02*
D03*
X51000Y115750D02*
D03*
Y102250D02*
D03*
X13000Y116000D02*
D03*
Y129500D02*
D03*
D17*
X20500Y138000D02*
D03*
X25500D02*
D03*
D18*
X23000Y143000D02*
D03*
Y133000D02*
D03*
D19*
X24750Y125250D02*
D03*
Y109250D02*
D03*
X18000Y79750D02*
D03*
X7000D02*
D03*
D20*
X24750Y117250D02*
D03*
D21*
X27750Y169000D02*
D03*
D22*
X38250Y166250D02*
D03*
X48600Y167550D02*
D03*
Y171050D02*
D03*
X31000Y105750D02*
D03*
X30500Y99500D02*
D03*
X34000Y25750D02*
D03*
X36250Y41250D02*
D03*
X64000Y73500D02*
D03*
X118000Y80000D02*
D03*
X113500D02*
D03*
X99000Y86000D02*
D03*
X111000D02*
D03*
X105000Y80000D02*
D03*
X93000D02*
D03*
X87000Y86000D02*
D03*
X81000Y80000D02*
D03*
X75000Y86000D02*
D03*
X29000Y55700D02*
D03*
X57260Y79386D02*
D03*
X68386Y79741D02*
D03*
X80386Y91741D02*
D03*
X116741Y56614D02*
D03*
X117614Y44260D02*
D03*
X111614Y38260D02*
D03*
X59000Y38750D02*
D03*
X74386Y37741D02*
D03*
X80386Y43741D02*
D03*
X86386Y49741D02*
D03*
Y37741D02*
D03*
X99000Y38000D02*
D03*
X105000Y44000D02*
D03*
X92386Y43741D02*
D03*
X87000Y62000D02*
D03*
X81000Y68000D02*
D03*
X75000Y74000D02*
D03*
X98386Y49741D02*
D03*
X111000Y50000D02*
D03*
X105000Y56000D02*
D03*
X99000Y62000D02*
D03*
X105000Y68000D02*
D03*
X117000D02*
D03*
X111000Y74000D02*
D03*
X99000D02*
D03*
X63000Y86000D02*
D03*
X105000Y92000D02*
D03*
X117000D02*
D03*
X4750Y40500D02*
D03*
Y34500D02*
D03*
Y28500D02*
D03*
Y22500D02*
D03*
X6750Y16500D02*
D03*
X12750D02*
D03*
Y10500D02*
D03*
X18750D02*
D03*
X24750D02*
D03*
X42750Y16500D02*
D03*
X30750Y10500D02*
D03*
X36750D02*
D03*
X42750D02*
D03*
X12750Y4500D02*
D03*
X18750D02*
D03*
X24750D02*
D03*
X30750D02*
D03*
X36750D02*
D03*
X42750D02*
D03*
X48750D02*
D03*
Y10500D02*
D03*
Y16500D02*
D03*
X92750Y54250D02*
D03*
X88250D02*
D03*
X116750Y61500D02*
D03*
X111250D02*
D03*
X60000Y99000D02*
D03*
X114000D02*
D03*
Y105000D02*
D03*
X108000Y99000D02*
D03*
Y105000D02*
D03*
X102000Y99000D02*
D03*
Y105000D02*
D03*
X48000Y118000D02*
D03*
X59000Y32750D02*
D03*
X120000Y112000D02*
D03*
X114000D02*
D03*
X108000D02*
D03*
X102000D02*
D03*
X96000D02*
D03*
X90000D02*
D03*
X84000D02*
D03*
X78000D02*
D03*
X72000D02*
D03*
X66000D02*
D03*
X60000D02*
D03*
X54000D02*
D03*
X48000D02*
D03*
X120000Y118000D02*
D03*
X114000D02*
D03*
X108000D02*
D03*
X102000D02*
D03*
X96000D02*
D03*
X90000D02*
D03*
X84000D02*
D03*
X78000D02*
D03*
X72000D02*
D03*
X66000D02*
D03*
X60000D02*
D03*
X54000D02*
D03*
X59000Y27750D02*
D03*
Y22750D02*
D03*
X68825Y32500D02*
D03*
Y27500D02*
D03*
Y22500D02*
D03*
X78825Y32500D02*
D03*
Y27500D02*
D03*
Y22500D02*
D03*
X98825Y32500D02*
D03*
Y27500D02*
D03*
Y22500D02*
D03*
X88825D02*
D03*
Y27500D02*
D03*
Y32500D02*
D03*
X28750Y33750D02*
D03*
X16300Y55700D02*
D03*
X4000Y47000D02*
D03*
X2987Y99445D02*
D03*
X3000Y86000D02*
D03*
X3500Y70000D02*
D03*
Y64000D02*
D03*
X8878Y51234D02*
D03*
X50300Y86250D02*
D03*
X92750Y67000D02*
D03*
X23750Y41000D02*
D03*
X28500Y92000D02*
D03*
X115650Y163700D02*
D03*
X64000Y197000D02*
D03*
X17460Y165016D02*
D03*
X58750Y164250D02*
D03*
Y157250D02*
D03*
X58700Y160750D02*
D03*
X58750Y171250D02*
D03*
Y167750D02*
D03*
X13250Y139250D02*
D03*
X47000Y61500D02*
D03*
X44250Y66250D02*
D03*
X31500Y73000D02*
D03*
X4250Y113250D02*
D03*
X66500Y156250D02*
D03*
X21500Y107750D02*
D03*
X27500Y117250D02*
D03*
X38250Y166250D02*
D03*
X29000Y151500D02*
D03*
Y148000D02*
D03*
Y144500D02*
D03*
X38250Y152250D02*
D03*
X22250Y83423D02*
D03*
X5500Y96250D02*
D03*
X12900Y108000D02*
D03*
X7900Y104750D02*
D03*
X13000Y116500D02*
D03*
X18750Y174500D02*
D03*
X31000Y128500D02*
D03*
X37750Y144750D02*
D03*
X27750Y179000D02*
D03*
X28750Y141000D02*
D03*
X26500Y138000D02*
D03*
X19500D02*
D03*
X23000D02*
D03*
X17000Y143750D02*
D03*
Y147250D02*
D03*
Y150750D02*
D03*
Y154250D02*
D03*
X48600Y160550D02*
D03*
Y157050D02*
D03*
Y164050D02*
D03*
X23250Y117250D02*
D03*
D23*
X30750Y131250D02*
D03*
Y136950D02*
D03*
D24*
X24500Y159500D02*
D03*
Y163500D02*
D03*
X28500Y159500D02*
D03*
Y163500D02*
D03*
X32500Y159500D02*
D03*
Y163500D02*
D03*
D25*
X17500Y164032D02*
D03*
D26*
Y160468D02*
D03*
D27*
X20250Y96250D02*
D03*
Y91250D02*
D03*
X15250Y96250D02*
D03*
X10250D02*
D03*
Y91250D02*
D03*
D28*
X44750Y192870D02*
D03*
X89250Y192870D02*
D03*
D29*
X56850Y185350D02*
D03*
X32650D02*
D03*
X101350Y185350D02*
D03*
D30*
X49100Y184300D02*
D03*
X40400D02*
D03*
X93600Y184300D02*
D03*
X84900D02*
D03*
D31*
X64750Y138000D02*
D03*
X51250D02*
D03*
X64750Y128000D02*
D03*
X51250D02*
D03*
X117750Y138000D02*
D03*
X104250D02*
D03*
X117750Y128000D02*
D03*
X104250D02*
D03*
X86250Y148000D02*
D03*
X99750D02*
D03*
X117750D02*
D03*
X104250D02*
D03*
X51250D02*
D03*
X64750D02*
D03*
X82750Y138000D02*
D03*
X69250D02*
D03*
X82750Y148000D02*
D03*
X69250D02*
D03*
X82750Y128000D02*
D03*
X69250D02*
D03*
X86250Y138000D02*
D03*
X99750D02*
D03*
X86250Y128000D02*
D03*
X99750D02*
D03*
D32*
X68000Y163400D02*
D03*
X79000D02*
D03*
X112000Y161600D02*
D03*
Y163400D02*
D03*
X101000Y156400D02*
D03*
X90000D02*
D03*
Y163400D02*
D03*
X101000D02*
D03*
X90000Y175600D02*
D03*
X79000Y170400D02*
D03*
X101000Y175600D02*
D03*
X68000D02*
D03*
X68000Y161600D02*
D03*
X79000D02*
D03*
D33*
X68000Y168600D02*
D03*
X79000D02*
D03*
X112000Y156400D02*
D03*
Y168600D02*
D03*
X101000Y161600D02*
D03*
X90000D02*
D03*
Y168600D02*
D03*
X101000D02*
D03*
X90000Y170400D02*
D03*
X112000D02*
D03*
X79000Y175600D02*
D03*
X101000Y170400D02*
D03*
X68000D02*
D03*
X68000Y156400D02*
D03*
X79000D02*
D03*
D34*
X77150Y184700D02*
D03*
D35*
X111400Y175600D02*
D03*
D36*
X23125Y151000D02*
D03*
X17875D02*
D03*
D37*
X24150D02*
D03*
D38*
X29350D02*
D03*
D39*
X52000Y62000D02*
X57000Y67000D01*
Y68000D01*
X52000Y48787D02*
Y62000D01*
Y48787D02*
X59000Y41787D01*
Y38750D02*
Y41787D01*
X28500Y159446D02*
Y159500D01*
X28250Y159196D02*
X28500Y159446D01*
X28735Y155600D02*
X29350Y154985D01*
X28735Y155600D02*
Y156287D01*
X28250Y156772D02*
X28735Y156287D01*
X28250Y156772D02*
Y159196D01*
X23125Y151000D02*
X23750Y151625D01*
Y158696D01*
X24500Y159446D01*
Y159500D01*
X29350Y151000D02*
Y154985D01*
X35393Y171143D02*
X36372D01*
X36529Y171300D01*
X38600Y171439D02*
Y171550D01*
X38461Y171300D02*
X38600Y171439D01*
X36529Y171300D02*
X38461D01*
X33250Y169000D02*
X35393Y171143D01*
Y171857D01*
X33250Y174000D02*
X35393Y171857D01*
D40*
X35250Y71093D02*
X35500Y71343D01*
X35250Y74907D02*
Y141871D01*
Y70000D02*
Y71093D01*
X23750Y58500D02*
X35250Y70000D01*
X35500Y71343D02*
Y74657D01*
X35250Y74907D02*
X35500Y74657D01*
X35250Y141871D02*
X37750Y144371D01*
X23750Y41000D02*
Y58500D01*
X21250Y100200D02*
Y100750D01*
X23750Y96047D02*
Y97700D01*
X20250Y101750D02*
X21250Y100750D01*
Y100200D02*
X23750Y97700D01*
Y96047D02*
X27414Y92383D01*
X28117D01*
X28500Y92000D01*
X14731Y101683D02*
X15250Y101164D01*
Y96250D02*
Y101164D01*
X7900Y104750D02*
X7900D01*
X10900Y101750D02*
X14750D01*
X7900Y104750D02*
X10900Y101750D01*
X37750Y144371D02*
Y144750D01*
X13000Y129500D02*
Y137959D01*
X12250Y138709D02*
Y139250D01*
Y138709D02*
X13000Y137959D01*
X31441Y72941D02*
X31500Y73000D01*
X13809Y72941D02*
X31441D01*
X7000Y79750D02*
X13809Y72941D01*
X7000Y88000D02*
X10250Y91250D01*
X7000Y79750D02*
Y88000D01*
X33215Y156285D02*
Y158596D01*
X32500Y159311D02*
X33215Y158596D01*
Y156285D02*
X37500Y152000D01*
X32500Y159311D02*
Y159500D01*
X18000Y79750D02*
X21291Y83041D01*
X21867D01*
X22250Y83423D01*
X21867Y83806D02*
X22250Y83423D01*
X21867Y83806D02*
Y84733D01*
X19850Y86750D02*
X21867Y84733D01*
X19850Y86750D02*
Y90579D01*
X20250Y90979D01*
Y91250D01*
X5500Y96250D02*
X10250D01*
X28983Y137617D02*
X30000Y136600D01*
X26883Y137617D02*
X28983D01*
X26500Y138000D02*
X26883Y137617D01*
D41*
X52100Y194800D02*
D03*
X49100D02*
D03*
X46100D02*
D03*
X43100D02*
D03*
X40100D02*
D03*
X38600Y192300D02*
D03*
X41600D02*
D03*
X44600D02*
D03*
X47600D02*
D03*
X50600D02*
D03*
X37100Y194800D02*
D03*
X38600Y197300D02*
D03*
X41600D02*
D03*
X44600D02*
D03*
X47600D02*
D03*
X50600D02*
D03*
X53600D02*
D03*
X35600D02*
D03*
X43600Y166300D02*
D03*
Y169300D02*
D03*
Y172300D02*
D03*
Y163300D02*
D03*
X43350Y160050D02*
D03*
X53600Y159800D02*
D03*
Y163300D02*
D03*
Y172300D02*
D03*
Y169300D02*
D03*
Y166300D02*
D03*
X52100Y174800D02*
D03*
X45100D02*
D03*
X42100D02*
D03*
X55100D02*
D03*
X53600Y177300D02*
D03*
X50600D02*
D03*
X46600D02*
D03*
X43600D02*
D03*
X40600D02*
D03*
X56600D02*
D03*
X63750Y161250D02*
D03*
X65500Y163750D02*
D03*
X67250Y161250D02*
D03*
X70750Y161250D02*
D03*
X69000Y163750D02*
D03*
X83500D02*
D03*
X81750Y161250D02*
D03*
X85250Y161250D02*
D03*
X87000Y163750D02*
D03*
X88750Y161250D02*
D03*
X92250Y161250D02*
D03*
X90500Y163750D02*
D03*
X112000Y163750D02*
D03*
X113500Y161250D02*
D03*
X110250Y161250D02*
D03*
X108500Y163750D02*
D03*
X106750Y161250D02*
D03*
X103250Y161250D02*
D03*
X105000Y163750D02*
D03*
X13600Y86750D02*
D03*
X23512Y144458D02*
D03*
X17032Y159886D02*
D03*
X23634Y150430D02*
D03*
X20634Y159680D02*
D03*
X23634Y159430D02*
D03*
Y156430D02*
D03*
Y153430D02*
D03*
X23512Y147458D02*
D03*
X28954Y156680D02*
D03*
X32636Y163801D02*
D03*
X90500Y180500D02*
D03*
X78750D02*
D03*
X101500D02*
D03*
X100750Y189500D02*
D03*
X81250Y176000D02*
D03*
Y179000D02*
D03*
X115500Y175500D02*
D03*
X112500D02*
D03*
X109250D02*
D03*
X93000Y182000D02*
D03*
X101500Y186500D02*
D03*
X100750Y183500D02*
D03*
X97500Y146250D02*
D03*
X100500D02*
D03*
X103500D02*
D03*
X106500D02*
D03*
X100500Y150250D02*
D03*
X97500D02*
D03*
X106500Y138250D02*
D03*
X103500D02*
D03*
X100500D02*
D03*
X97500D02*
D03*
X106500Y134250D02*
D03*
X103500D02*
D03*
X100500D02*
D03*
X97500D02*
D03*
X106500Y126250D02*
D03*
X103500D02*
D03*
X100500D02*
D03*
X97500D02*
D03*
X62500D02*
D03*
X65500D02*
D03*
X68500D02*
D03*
X71500D02*
D03*
X62500Y134250D02*
D03*
X65500D02*
D03*
X68500D02*
D03*
X71500D02*
D03*
X62500Y138250D02*
D03*
X65500D02*
D03*
X68500D02*
D03*
X71500D02*
D03*
X68500Y150250D02*
D03*
X71500D02*
D03*
Y146250D02*
D03*
X68500D02*
D03*
X65500D02*
D03*
X62500D02*
D03*
X104000Y176000D02*
D03*
Y179000D02*
D03*
X101500Y177500D02*
D03*
X99000Y176000D02*
D03*
Y179000D02*
D03*
X96500Y181000D02*
D03*
X93000Y176000D02*
D03*
Y179000D02*
D03*
X90500Y177500D02*
D03*
X88000Y179000D02*
D03*
X85500Y181000D02*
D03*
X88000Y176000D02*
D03*
X78750Y177500D02*
D03*
X76250Y179000D02*
D03*
Y176000D02*
D03*
X73750Y177500D02*
D03*
X75750Y192750D02*
D03*
X73250Y191250D02*
D03*
X65750Y180750D02*
D03*
X63250Y191250D02*
D03*
X60750Y189750D02*
D03*
X98250Y194250D02*
D03*
Y197250D02*
D03*
X95750Y192750D02*
D03*
Y195750D02*
D03*
X93250Y197250D02*
D03*
Y194250D02*
D03*
Y191250D02*
D03*
X90750Y192750D02*
D03*
Y195750D02*
D03*
X88250Y197250D02*
D03*
Y191250D02*
D03*
X83250D02*
D03*
X88250Y194250D02*
D03*
X85750Y195750D02*
D03*
Y192750D02*
D03*
X83250Y197250D02*
D03*
Y194250D02*
D03*
X80750Y192750D02*
D03*
X78250Y194250D02*
D03*
X80750Y195750D02*
D03*
X78250Y197250D02*
D03*
X73250D02*
D03*
X75750Y195750D02*
D03*
X73250Y194250D02*
D03*
X70750Y195750D02*
D03*
X68250Y194250D02*
D03*
X70750Y192750D02*
D03*
Y189750D02*
D03*
Y186750D02*
D03*
Y183750D02*
D03*
X68250Y191250D02*
D03*
Y188250D02*
D03*
Y185250D02*
D03*
Y182250D02*
D03*
X65750Y183750D02*
D03*
Y186750D02*
D03*
Y189750D02*
D03*
X63250Y188250D02*
D03*
Y185250D02*
D03*
Y182250D02*
D03*
X60750Y186750D02*
D03*
Y183750D02*
D03*
Y180750D02*
D03*
D42*
X43000Y72750D02*
D03*
X45250Y86650D02*
D03*
X79150Y86250D02*
D03*
X69150D02*
D03*
X129000Y80000D02*
D03*
X123000Y86000D02*
D03*
X129000D02*
D03*
X123000Y80000D02*
D03*
Y38000D02*
D03*
X92825Y10500D02*
D03*
X62825Y16500D02*
D03*
X56825D02*
D03*
Y10500D02*
D03*
Y4500D02*
D03*
X62825D02*
D03*
X74825D02*
D03*
X80825Y10500D02*
D03*
X68825D02*
D03*
X74825Y16500D02*
D03*
X98825D02*
D03*
Y4500D02*
D03*
X86825D02*
D03*
Y16500D02*
D03*
X105000Y20000D02*
D03*
Y32000D02*
D03*
Y26000D02*
D03*
X111000Y20000D02*
D03*
Y32000D02*
D03*
X117000Y26000D02*
D03*
Y14000D02*
D03*
Y8000D02*
D03*
X123000D02*
D03*
X129000D02*
D03*
X123000Y20000D02*
D03*
X129000Y14000D02*
D03*
Y20000D02*
D03*
X123000Y32000D02*
D03*
X129000Y26000D02*
D03*
Y32000D02*
D03*
X123000Y44000D02*
D03*
X129000Y38000D02*
D03*
Y44000D02*
D03*
X130000Y102000D02*
D03*
X126000Y105000D02*
D03*
Y99000D02*
D03*
X89000Y152000D02*
D03*
Y155500D02*
D03*
X85000Y152000D02*
D03*
Y155500D02*
D03*
X81000D02*
D03*
Y152000D02*
D03*
X129000Y74000D02*
D03*
Y68000D02*
D03*
Y62000D02*
D03*
Y56000D02*
D03*
Y50000D02*
D03*
X123000D02*
D03*
Y56000D02*
D03*
Y62000D02*
D03*
Y68000D02*
D03*
Y74000D02*
D03*
X129000Y92000D02*
D03*
X123000D02*
D03*
X92493Y94868D02*
D03*
X120000Y99000D02*
D03*
X96000D02*
D03*
X90000D02*
D03*
X84000D02*
D03*
X78000D02*
D03*
X72000D02*
D03*
X66000D02*
D03*
X54000D02*
D03*
X48000D02*
D03*
X120000Y105000D02*
D03*
X96000D02*
D03*
X90000D02*
D03*
X84000D02*
D03*
X78000D02*
D03*
X72000D02*
D03*
X66000D02*
D03*
X60000D02*
D03*
X54000D02*
D03*
X48000D02*
D03*
X89000Y71000D02*
D03*
X127000Y122000D02*
D03*
X68881Y142250D02*
D03*
X64881D02*
D03*
X62381Y150250D02*
D03*
X68631Y130250D02*
D03*
X65131D02*
D03*
X103750D02*
D03*
X100250D02*
D03*
X67250Y169500D02*
D03*
X71750D02*
D03*
X94650Y163450D02*
D03*
X97750Y161750D02*
D03*
X100850Y163450D02*
D03*
X79350Y163450D02*
D03*
X76250Y161750D02*
D03*
X73150Y163450D02*
D03*
X84750Y177500D02*
D03*
X104000Y189000D02*
D03*
X104250Y182250D02*
D03*
X91750Y169500D02*
D03*
X18750Y117250D02*
D03*
X124250Y135000D02*
D03*
X43500Y149750D02*
D03*
X41250Y139000D02*
D03*
Y131000D02*
D03*
Y123000D02*
D03*
Y115000D02*
D03*
Y107000D02*
D03*
Y99000D02*
D03*
X39750Y91000D02*
D03*
X125750Y130000D02*
D03*
X80441Y124697D02*
D03*
X116250Y151000D02*
D03*
Y147000D02*
D03*
Y139000D02*
D03*
Y143000D02*
D03*
Y135000D02*
D03*
Y127000D02*
D03*
Y131000D02*
D03*
X120250Y151000D02*
D03*
Y143000D02*
D03*
Y139000D02*
D03*
Y147000D02*
D03*
Y131000D02*
D03*
Y127000D02*
D03*
Y135000D02*
D03*
X80441Y136197D02*
D03*
Y139697D02*
D03*
X84441D02*
D03*
Y136197D02*
D03*
Y124697D02*
D03*
X88441Y139697D02*
D03*
Y124697D02*
D03*
Y136197D02*
D03*
X106500Y150250D02*
D03*
X104000Y142250D02*
D03*
X100000D02*
D03*
X52600Y135050D02*
D03*
Y127050D02*
D03*
Y131050D02*
D03*
Y147050D02*
D03*
Y139050D02*
D03*
Y143050D02*
D03*
Y151050D02*
D03*
X48600Y131050D02*
D03*
Y127050D02*
D03*
Y135050D02*
D03*
Y143050D02*
D03*
Y139050D02*
D03*
Y147050D02*
D03*
Y151050D02*
D03*
X114750Y156000D02*
D03*
X111250D02*
D03*
X118250D02*
D03*
X116250Y169500D02*
D03*
X109249D02*
D03*
X112750D02*
D03*
X88250D02*
D03*
X107000Y178000D02*
D03*
X96000Y177500D02*
D03*
M02*
