G04*
G04 #@! TF.GenerationSoftware,Altium Limited,Altium Designer,25.0.2 (28)*
G04*
G04 Layer_Color=32896*
%FSLAX44Y44*%
%MOMM*%
G71*
G04*
G04 #@! TF.SameCoordinates,54A35FAF-5F68-4BCB-90B9-8CF1E0348433*
G04*
G04*
G04 #@! TF.FilePolarity,Positive*
G04*
G01*
G75*
%ADD10C,0.1000*%
%ADD39C,0.2000*%
G36*
X29737Y126701D02*
X29775Y126618D01*
X29869Y126463D01*
X29969Y126324D01*
X30074Y126202D01*
X30124Y126147D01*
X30168Y126103D01*
X30207Y126059D01*
X30246Y126025D01*
X30274Y125998D01*
X30296Y125981D01*
X30312Y125970D01*
X30318Y125964D01*
X30484Y125843D01*
X30639Y125743D01*
X30778Y125660D01*
X30899Y125599D01*
X30955Y125571D01*
X31005Y125549D01*
X31043Y125533D01*
X31082Y125516D01*
X31110Y125505D01*
X31132Y125499D01*
X31143Y125494D01*
X31149D01*
Y124602D01*
X31016Y124652D01*
X30888Y124702D01*
X30761Y124757D01*
X30645Y124818D01*
X30534Y124879D01*
X30429Y124940D01*
X30335Y125001D01*
X30246Y125062D01*
X30163Y125117D01*
X30096Y125173D01*
X30030Y125222D01*
X29980Y125261D01*
X29941Y125294D01*
X29908Y125322D01*
X29892Y125339D01*
X29886Y125344D01*
Y121662D01*
X28906D01*
Y126789D01*
X29703D01*
X29737Y126701D01*
D02*
G37*
G36*
X35750Y120250D02*
X31680D01*
Y120887D01*
X35750D01*
Y120250D01*
D02*
G37*
G36*
X11103Y149034D02*
X11225Y149023D01*
X11341Y149006D01*
X11446Y148984D01*
X11551Y148956D01*
X11645Y148929D01*
X11729Y148896D01*
X11812Y148862D01*
X11884Y148829D01*
X11945Y148796D01*
X12000Y148768D01*
X12044Y148740D01*
X12077Y148718D01*
X12105Y148702D01*
X12122Y148691D01*
X12127Y148685D01*
X12210Y148613D01*
X12282Y148535D01*
X12349Y148447D01*
X12404Y148353D01*
X12454Y148259D01*
X12498Y148159D01*
X12537Y148065D01*
X12570Y147971D01*
X12598Y147882D01*
X12620Y147799D01*
X12637Y147722D01*
X12648Y147655D01*
X12659Y147600D01*
X12664Y147556D01*
X12670Y147533D01*
Y147522D01*
X11695Y147428D01*
X11690Y147506D01*
X11679Y147578D01*
X11651Y147705D01*
X11618Y147810D01*
X11585Y147893D01*
X11546Y147960D01*
X11518Y148004D01*
X11496Y148026D01*
X11490Y148037D01*
X11418Y148098D01*
X11336Y148148D01*
X11252Y148181D01*
X11175Y148203D01*
X11103Y148214D01*
X11048Y148225D01*
X10998D01*
X10887Y148220D01*
X10793Y148198D01*
X10710Y148170D01*
X10638Y148137D01*
X10582Y148104D01*
X10544Y148076D01*
X10516Y148054D01*
X10510Y148048D01*
X10450Y147976D01*
X10405Y147893D01*
X10378Y147810D01*
X10355Y147733D01*
X10344Y147655D01*
X10333Y147600D01*
Y147578D01*
Y147561D01*
Y147550D01*
Y147544D01*
X10344Y147434D01*
X10366Y147323D01*
X10400Y147223D01*
X10433Y147135D01*
X10472Y147057D01*
X10505Y146996D01*
X10522Y146974D01*
X10527Y146957D01*
X10538Y146952D01*
Y146946D01*
X10571Y146902D01*
X10616Y146847D01*
X10671Y146786D01*
X10726Y146725D01*
X10859Y146586D01*
X11003Y146448D01*
X11070Y146382D01*
X11136Y146315D01*
X11192Y146260D01*
X11247Y146210D01*
X11291Y146171D01*
X11324Y146138D01*
X11346Y146116D01*
X11352Y146110D01*
X11502Y145972D01*
X11635Y145839D01*
X11762Y145712D01*
X11873Y145595D01*
X11972Y145490D01*
X12061Y145385D01*
X12144Y145296D01*
X12210Y145213D01*
X12271Y145136D01*
X12321Y145075D01*
X12365Y145014D01*
X12399Y144970D01*
X12421Y144936D01*
X12443Y144909D01*
X12448Y144892D01*
X12454Y144887D01*
X12548Y144715D01*
X12620Y144543D01*
X12681Y144377D01*
X12725Y144228D01*
X12742Y144161D01*
X12753Y144100D01*
X12764Y144045D01*
X12775Y144001D01*
X12781Y143962D01*
Y143934D01*
X12786Y143918D01*
Y143912D01*
X9353D01*
Y144820D01*
X11302D01*
X11236Y144914D01*
X11203Y144958D01*
X11175Y145003D01*
X11147Y145036D01*
X11125Y145064D01*
X11108Y145080D01*
X11103Y145086D01*
X11075Y145114D01*
X11042Y145152D01*
X11003Y145191D01*
X10959Y145235D01*
X10865Y145330D01*
X10765Y145424D01*
X10671Y145512D01*
X10627Y145551D01*
X10588Y145584D01*
X10560Y145612D01*
X10538Y145634D01*
X10522Y145645D01*
X10516Y145651D01*
X10433Y145728D01*
X10355Y145800D01*
X10283Y145872D01*
X10217Y145933D01*
X10162Y145994D01*
X10106Y146044D01*
X10062Y146094D01*
X10018Y146138D01*
X9957Y146210D01*
X9907Y146260D01*
X9885Y146293D01*
X9874Y146304D01*
X9779Y146431D01*
X9696Y146553D01*
X9630Y146664D01*
X9575Y146758D01*
X9536Y146841D01*
X9519Y146874D01*
X9503Y146902D01*
X9492Y146924D01*
X9486Y146946D01*
X9481Y146952D01*
Y146957D01*
X9436Y147074D01*
X9409Y147190D01*
X9386Y147301D01*
X9370Y147406D01*
X9359Y147489D01*
Y147528D01*
X9353Y147556D01*
Y147583D01*
Y147600D01*
Y147611D01*
Y147616D01*
X9359Y147727D01*
X9370Y147832D01*
X9392Y147932D01*
X9420Y148032D01*
X9453Y148120D01*
X9492Y148203D01*
X9530Y148281D01*
X9569Y148347D01*
X9613Y148414D01*
X9652Y148469D01*
X9691Y148519D01*
X9724Y148558D01*
X9752Y148585D01*
X9774Y148613D01*
X9785Y148624D01*
X9791Y148630D01*
X9874Y148702D01*
X9968Y148763D01*
X10062Y148818D01*
X10156Y148868D01*
X10256Y148906D01*
X10355Y148940D01*
X10450Y148967D01*
X10544Y148990D01*
X10632Y149006D01*
X10715Y149017D01*
X10787Y149028D01*
X10848Y149034D01*
X10904Y149039D01*
X10976D01*
X11103Y149034D01*
D02*
G37*
G36*
X17000Y142500D02*
X12930D01*
Y143137D01*
X17000D01*
Y142500D01*
D02*
G37*
G36*
X16507Y66013D02*
X16687Y65992D01*
X16853Y65957D01*
X16992Y65922D01*
X17054Y65902D01*
X17110Y65881D01*
X17158Y65867D01*
X17200Y65853D01*
X17235Y65839D01*
X17256Y65825D01*
X17269Y65818D01*
X17276D01*
X17429Y65735D01*
X17561Y65645D01*
X17672Y65555D01*
X17762Y65465D01*
X17838Y65388D01*
X17893Y65319D01*
X17921Y65278D01*
X17935Y65271D01*
Y65264D01*
X18018Y65125D01*
X18088Y64972D01*
X18150Y64820D01*
X18198Y64667D01*
X18240Y64536D01*
X18254Y64480D01*
X18268Y64432D01*
X18275Y64390D01*
X18282Y64362D01*
X18289Y64341D01*
Y64335D01*
X17158Y64147D01*
X17131Y64293D01*
X17096Y64425D01*
X17054Y64529D01*
X17006Y64619D01*
X16957Y64688D01*
X16923Y64737D01*
X16895Y64771D01*
X16888Y64778D01*
X16798Y64854D01*
X16708Y64910D01*
X16617Y64945D01*
X16534Y64972D01*
X16458Y64986D01*
X16403Y65000D01*
X16347D01*
X16229Y64993D01*
X16125Y64972D01*
X16042Y64938D01*
X15966Y64903D01*
X15903Y64868D01*
X15862Y64834D01*
X15834Y64813D01*
X15827Y64806D01*
X15765Y64730D01*
X15716Y64647D01*
X15681Y64556D01*
X15654Y64480D01*
X15640Y64404D01*
X15633Y64348D01*
Y64307D01*
Y64300D01*
Y64293D01*
X15647Y64154D01*
X15675Y64036D01*
X15716Y63932D01*
X15765Y63842D01*
X15820Y63773D01*
X15862Y63724D01*
X15889Y63696D01*
X15903Y63683D01*
X16014Y63613D01*
X16132Y63558D01*
X16257Y63516D01*
X16382Y63495D01*
X16493Y63482D01*
X16541D01*
X16583Y63475D01*
X16666D01*
X16798Y62476D01*
X16680Y62511D01*
X16569Y62532D01*
X16479Y62552D01*
X16396Y62559D01*
X16326Y62566D01*
X16278Y62573D01*
X16236D01*
X16104Y62559D01*
X15986Y62532D01*
X15883Y62483D01*
X15792Y62435D01*
X15723Y62386D01*
X15668Y62337D01*
X15640Y62310D01*
X15626Y62296D01*
X15543Y62185D01*
X15480Y62067D01*
X15439Y61942D01*
X15404Y61824D01*
X15390Y61720D01*
X15383Y61679D01*
Y61637D01*
X15376Y61602D01*
Y61582D01*
Y61568D01*
Y61561D01*
X15390Y61387D01*
X15418Y61235D01*
X15460Y61103D01*
X15508Y60992D01*
X15557Y60902D01*
X15598Y60840D01*
X15626Y60798D01*
X15640Y60784D01*
X15744Y60687D01*
X15855Y60618D01*
X15959Y60569D01*
X16063Y60535D01*
X16153Y60514D01*
X16222Y60507D01*
X16250Y60500D01*
X16285D01*
X16409Y60507D01*
X16527Y60535D01*
X16631Y60576D01*
X16722Y60618D01*
X16791Y60659D01*
X16846Y60701D01*
X16874Y60729D01*
X16888Y60736D01*
X16971Y60833D01*
X17040Y60951D01*
X17096Y61062D01*
X17131Y61179D01*
X17165Y61276D01*
X17179Y61360D01*
X17186Y61394D01*
X17193Y61415D01*
Y61429D01*
Y61436D01*
X18379Y61290D01*
X18358Y61145D01*
X18323Y60999D01*
X18282Y60867D01*
X18240Y60743D01*
X18185Y60625D01*
X18129Y60521D01*
X18074Y60424D01*
X18018Y60333D01*
X17956Y60250D01*
X17907Y60181D01*
X17852Y60118D01*
X17810Y60070D01*
X17775Y60028D01*
X17748Y60001D01*
X17727Y59987D01*
X17720Y59980D01*
X17609Y59890D01*
X17491Y59813D01*
X17373Y59751D01*
X17249Y59689D01*
X17131Y59640D01*
X17013Y59605D01*
X16895Y59571D01*
X16784Y59543D01*
X16680Y59522D01*
X16583Y59508D01*
X16493Y59494D01*
X16423Y59488D01*
X16361D01*
X16319Y59481D01*
X16278D01*
X16111Y59488D01*
X15945Y59508D01*
X15792Y59536D01*
X15647Y59571D01*
X15515Y59619D01*
X15383Y59668D01*
X15265Y59723D01*
X15161Y59779D01*
X15064Y59827D01*
X14981Y59883D01*
X14912Y59931D01*
X14849Y59980D01*
X14801Y60015D01*
X14766Y60042D01*
X14745Y60063D01*
X14738Y60070D01*
X14627Y60188D01*
X14537Y60306D01*
X14454Y60424D01*
X14385Y60548D01*
X14322Y60666D01*
X14274Y60784D01*
X14232Y60902D01*
X14197Y61013D01*
X14170Y61117D01*
X14156Y61207D01*
X14142Y61290D01*
X14128Y61367D01*
Y61422D01*
X14121Y61471D01*
Y61498D01*
Y61505D01*
X14128Y61609D01*
X14135Y61713D01*
X14170Y61908D01*
X14225Y62074D01*
X14288Y62220D01*
X14315Y62282D01*
X14350Y62337D01*
X14378Y62386D01*
X14399Y62428D01*
X14426Y62455D01*
X14440Y62476D01*
X14447Y62490D01*
X14454Y62497D01*
X14517Y62573D01*
X14586Y62642D01*
X14725Y62754D01*
X14870Y62850D01*
X15016Y62920D01*
X15134Y62968D01*
X15189Y62989D01*
X15238Y63003D01*
X15272Y63017D01*
X15300Y63024D01*
X15321Y63031D01*
X15328D01*
X15168Y63128D01*
X15023Y63232D01*
X14898Y63343D01*
X14794Y63454D01*
X14704Y63565D01*
X14627Y63676D01*
X14572Y63787D01*
X14523Y63891D01*
X14482Y63988D01*
X14454Y64085D01*
X14433Y64168D01*
X14419Y64237D01*
X14412Y64293D01*
X14405Y64341D01*
Y64369D01*
Y64376D01*
X14412Y64487D01*
X14426Y64591D01*
X14447Y64695D01*
X14475Y64792D01*
X14551Y64972D01*
X14634Y65125D01*
X14676Y65194D01*
X14718Y65257D01*
X14759Y65312D01*
X14794Y65354D01*
X14822Y65388D01*
X14842Y65416D01*
X14856Y65430D01*
X14863Y65437D01*
X14967Y65541D01*
X15078Y65631D01*
X15196Y65707D01*
X15321Y65777D01*
X15439Y65832D01*
X15557Y65881D01*
X15675Y65915D01*
X15792Y65950D01*
X15896Y65971D01*
X15993Y65992D01*
X16084Y65999D01*
X16160Y66013D01*
X16222D01*
X16271Y66020D01*
X16312D01*
X16507Y66013D01*
D02*
G37*
G36*
X29542Y65704D02*
X29694Y65690D01*
X29840Y65669D01*
X29971Y65641D01*
X30103Y65606D01*
X30221Y65572D01*
X30325Y65530D01*
X30429Y65489D01*
X30519Y65447D01*
X30596Y65405D01*
X30665Y65371D01*
X30720Y65336D01*
X30762Y65308D01*
X30797Y65288D01*
X30817Y65274D01*
X30824Y65267D01*
X30928Y65177D01*
X31019Y65079D01*
X31102Y64969D01*
X31171Y64851D01*
X31234Y64733D01*
X31289Y64608D01*
X31338Y64490D01*
X31379Y64372D01*
X31414Y64261D01*
X31442Y64157D01*
X31462Y64060D01*
X31476Y63977D01*
X31490Y63908D01*
X31497Y63852D01*
X31504Y63824D01*
Y63811D01*
X30284Y63693D01*
X30277Y63790D01*
X30263Y63880D01*
X30228Y64039D01*
X30187Y64171D01*
X30145Y64275D01*
X30096Y64358D01*
X30062Y64414D01*
X30034Y64442D01*
X30027Y64455D01*
X29937Y64532D01*
X29833Y64594D01*
X29729Y64636D01*
X29632Y64664D01*
X29542Y64677D01*
X29472Y64691D01*
X29410D01*
X29271Y64684D01*
X29153Y64657D01*
X29049Y64622D01*
X28959Y64580D01*
X28890Y64539D01*
X28841Y64504D01*
X28807Y64476D01*
X28800Y64469D01*
X28723Y64379D01*
X28668Y64275D01*
X28633Y64171D01*
X28605Y64074D01*
X28592Y63977D01*
X28578Y63908D01*
Y63880D01*
Y63859D01*
Y63845D01*
Y63838D01*
X28592Y63700D01*
X28619Y63561D01*
X28661Y63436D01*
X28703Y63325D01*
X28751Y63228D01*
X28793Y63152D01*
X28814Y63124D01*
X28821Y63103D01*
X28834Y63096D01*
Y63089D01*
X28876Y63034D01*
X28931Y62965D01*
X29001Y62888D01*
X29070Y62812D01*
X29237Y62639D01*
X29417Y62465D01*
X29500Y62382D01*
X29583Y62299D01*
X29653Y62230D01*
X29722Y62167D01*
X29777Y62119D01*
X29819Y62077D01*
X29847Y62049D01*
X29854Y62042D01*
X30041Y61869D01*
X30207Y61703D01*
X30367Y61543D01*
X30505Y61398D01*
X30630Y61266D01*
X30741Y61134D01*
X30845Y61023D01*
X30928Y60919D01*
X31005Y60822D01*
X31067Y60746D01*
X31123Y60669D01*
X31164Y60614D01*
X31192Y60572D01*
X31220Y60538D01*
X31227Y60517D01*
X31234Y60510D01*
X31351Y60295D01*
X31442Y60080D01*
X31518Y59872D01*
X31573Y59685D01*
X31594Y59601D01*
X31608Y59525D01*
X31622Y59456D01*
X31636Y59400D01*
X31643Y59352D01*
Y59317D01*
X31650Y59296D01*
Y59289D01*
X27350D01*
Y60427D01*
X29791D01*
X29708Y60545D01*
X29666Y60600D01*
X29632Y60655D01*
X29597Y60697D01*
X29569Y60732D01*
X29549Y60753D01*
X29542Y60760D01*
X29507Y60794D01*
X29465Y60843D01*
X29417Y60891D01*
X29361Y60947D01*
X29244Y61065D01*
X29119Y61182D01*
X29001Y61294D01*
X28945Y61342D01*
X28897Y61384D01*
X28862Y61418D01*
X28834Y61446D01*
X28814Y61460D01*
X28807Y61467D01*
X28703Y61564D01*
X28605Y61654D01*
X28515Y61744D01*
X28432Y61821D01*
X28363Y61897D01*
X28293Y61959D01*
X28238Y62021D01*
X28182Y62077D01*
X28106Y62167D01*
X28044Y62230D01*
X28016Y62271D01*
X28002Y62285D01*
X27884Y62445D01*
X27780Y62597D01*
X27697Y62736D01*
X27628Y62854D01*
X27579Y62958D01*
X27558Y62999D01*
X27538Y63034D01*
X27524Y63062D01*
X27517Y63089D01*
X27510Y63096D01*
Y63103D01*
X27454Y63249D01*
X27420Y63394D01*
X27392Y63533D01*
X27371Y63665D01*
X27357Y63769D01*
Y63818D01*
X27350Y63852D01*
Y63887D01*
Y63908D01*
Y63921D01*
Y63928D01*
X27357Y64067D01*
X27371Y64199D01*
X27399Y64324D01*
X27434Y64448D01*
X27475Y64559D01*
X27524Y64664D01*
X27572Y64761D01*
X27621Y64844D01*
X27676Y64927D01*
X27725Y64996D01*
X27773Y65059D01*
X27815Y65107D01*
X27850Y65142D01*
X27877Y65177D01*
X27891Y65191D01*
X27898Y65197D01*
X28002Y65288D01*
X28120Y65364D01*
X28238Y65433D01*
X28356Y65496D01*
X28481Y65544D01*
X28605Y65586D01*
X28723Y65620D01*
X28841Y65648D01*
X28952Y65669D01*
X29056Y65683D01*
X29146Y65697D01*
X29223Y65704D01*
X29292Y65711D01*
X29382D01*
X29542Y65704D01*
D02*
G37*
G36*
X128121Y123742D02*
X128169Y123638D01*
X128287Y123444D01*
X128412Y123271D01*
X128544Y123118D01*
X128606Y123049D01*
X128662Y122993D01*
X128710Y122938D01*
X128759Y122896D01*
X128794Y122861D01*
X128821Y122840D01*
X128842Y122827D01*
X128849Y122820D01*
X129057Y122667D01*
X129251Y122542D01*
X129425Y122438D01*
X129577Y122362D01*
X129647Y122327D01*
X129709Y122300D01*
X129757Y122279D01*
X129806Y122258D01*
X129841Y122244D01*
X129868Y122237D01*
X129882Y122230D01*
X129889D01*
Y121114D01*
X129723Y121176D01*
X129563Y121239D01*
X129404Y121308D01*
X129258Y121384D01*
X129120Y121461D01*
X128988Y121537D01*
X128870Y121613D01*
X128759Y121690D01*
X128655Y121759D01*
X128572Y121828D01*
X128489Y121891D01*
X128426Y121939D01*
X128378Y121981D01*
X128336Y122015D01*
X128315Y122036D01*
X128308Y122043D01*
Y117432D01*
X127081D01*
Y123853D01*
X128079D01*
X128121Y123742D01*
D02*
G37*
G36*
X123149D02*
X123198Y123638D01*
X123316Y123444D01*
X123440Y123271D01*
X123572Y123118D01*
X123635Y123049D01*
X123690Y122993D01*
X123738Y122938D01*
X123787Y122896D01*
X123822Y122861D01*
X123849Y122840D01*
X123870Y122827D01*
X123877Y122820D01*
X124085Y122667D01*
X124279Y122542D01*
X124453Y122438D01*
X124605Y122362D01*
X124675Y122327D01*
X124737Y122300D01*
X124786Y122279D01*
X124834Y122258D01*
X124869Y122244D01*
X124896Y122237D01*
X124910Y122230D01*
X124917D01*
Y121114D01*
X124751Y121176D01*
X124591Y121239D01*
X124432Y121308D01*
X124286Y121384D01*
X124148Y121461D01*
X124016Y121537D01*
X123898Y121613D01*
X123787Y121690D01*
X123683Y121759D01*
X123600Y121828D01*
X123517Y121891D01*
X123454Y121939D01*
X123406Y121981D01*
X123364Y122015D01*
X123343Y122036D01*
X123336Y122043D01*
Y117432D01*
X122109D01*
Y123853D01*
X123108D01*
X123149Y123742D01*
D02*
G37*
G36*
X6599Y114022D02*
X6637Y113939D01*
X6732Y113784D01*
X6831Y113646D01*
X6936Y113524D01*
X6986Y113469D01*
X7031Y113424D01*
X7069Y113380D01*
X7108Y113347D01*
X7136Y113319D01*
X7158Y113302D01*
X7175Y113291D01*
X7180Y113286D01*
X7346Y113164D01*
X7501Y113064D01*
X7640Y112981D01*
X7761Y112920D01*
X7817Y112893D01*
X7867Y112871D01*
X7905Y112854D01*
X7944Y112837D01*
X7972Y112826D01*
X7994Y112821D01*
X8005Y112815D01*
X8011D01*
Y111924D01*
X7878Y111973D01*
X7750Y112023D01*
X7623Y112079D01*
X7507Y112140D01*
X7396Y112200D01*
X7291Y112261D01*
X7197Y112322D01*
X7108Y112383D01*
X7025Y112439D01*
X6959Y112494D01*
X6892Y112544D01*
X6842Y112583D01*
X6804Y112616D01*
X6770Y112643D01*
X6754Y112660D01*
X6748Y112666D01*
Y108983D01*
X5768D01*
Y114111D01*
X6565D01*
X6599Y114022D01*
D02*
G37*
G36*
X2783Y114105D02*
X2911Y114089D01*
X3033Y114061D01*
X3143Y114028D01*
X3249Y113989D01*
X3343Y113945D01*
X3431Y113895D01*
X3509Y113850D01*
X3575Y113801D01*
X3636Y113751D01*
X3686Y113707D01*
X3730Y113668D01*
X3763Y113635D01*
X3786Y113607D01*
X3802Y113590D01*
X3808Y113585D01*
X3896Y113457D01*
X3974Y113313D01*
X4040Y113158D01*
X4096Y112992D01*
X4146Y112821D01*
X4184Y112649D01*
X4218Y112477D01*
X4245Y112306D01*
X4262Y112145D01*
X4279Y111996D01*
X4290Y111863D01*
X4301Y111741D01*
Y111691D01*
Y111647D01*
X4306Y111608D01*
Y111569D01*
Y111547D01*
Y111525D01*
Y111514D01*
Y111508D01*
X4301Y111243D01*
X4284Y110999D01*
X4262Y110772D01*
X4234Y110567D01*
X4201Y110379D01*
X4162Y110213D01*
X4123Y110063D01*
X4079Y109930D01*
X4035Y109819D01*
X3996Y109720D01*
X3957Y109637D01*
X3924Y109570D01*
X3896Y109521D01*
X3869Y109487D01*
X3858Y109465D01*
X3852Y109459D01*
X3763Y109360D01*
X3669Y109271D01*
X3570Y109194D01*
X3470Y109127D01*
X3370Y109078D01*
X3271Y109028D01*
X3177Y108989D01*
X3083Y108961D01*
X2994Y108939D01*
X2911Y108917D01*
X2839Y108906D01*
X2772Y108900D01*
X2722Y108895D01*
X2684Y108889D01*
X2651D01*
X2518Y108895D01*
X2390Y108911D01*
X2269Y108939D01*
X2158Y108972D01*
X2052Y109011D01*
X1958Y109055D01*
X1870Y109100D01*
X1792Y109150D01*
X1726Y109199D01*
X1665Y109244D01*
X1610Y109288D01*
X1571Y109327D01*
X1538Y109360D01*
X1510Y109388D01*
X1499Y109404D01*
X1493Y109410D01*
X1405Y109537D01*
X1327Y109681D01*
X1261Y109842D01*
X1200Y110002D01*
X1155Y110174D01*
X1111Y110351D01*
X1078Y110523D01*
X1050Y110694D01*
X1034Y110855D01*
X1017Y111004D01*
X1006Y111143D01*
X995Y111259D01*
Y111314D01*
Y111359D01*
X989Y111398D01*
Y111436D01*
Y111459D01*
Y111481D01*
Y111492D01*
Y111497D01*
X995Y111757D01*
X1012Y112001D01*
X1034Y112228D01*
X1067Y112433D01*
X1106Y112621D01*
X1144Y112793D01*
X1194Y112948D01*
X1239Y113081D01*
X1283Y113203D01*
X1327Y113302D01*
X1372Y113391D01*
X1410Y113457D01*
X1444Y113513D01*
X1466Y113552D01*
X1482Y113574D01*
X1488Y113579D01*
X1571Y113673D01*
X1659Y113756D01*
X1753Y113828D01*
X1848Y113889D01*
X1942Y113939D01*
X2042Y113983D01*
X2136Y114017D01*
X2224Y114044D01*
X2313Y114066D01*
X2396Y114083D01*
X2468Y114094D01*
X2529Y114105D01*
X2579D01*
X2617Y114111D01*
X2651D01*
X2783Y114105D01*
D02*
G37*
G36*
X24507Y81763D02*
X24659Y81742D01*
X24805Y81714D01*
X24950Y81679D01*
X25075Y81631D01*
X25200Y81582D01*
X25311Y81527D01*
X25408Y81471D01*
X25498Y81416D01*
X25581Y81360D01*
X25651Y81312D01*
X25706Y81263D01*
X25748Y81229D01*
X25782Y81201D01*
X25803Y81180D01*
X25810Y81173D01*
X25914Y81055D01*
X25997Y80937D01*
X26074Y80806D01*
X26143Y80674D01*
X26198Y80549D01*
X26247Y80417D01*
X26282Y80286D01*
X26316Y80168D01*
X26337Y80050D01*
X26358Y79946D01*
X26365Y79849D01*
X26379Y79766D01*
Y79703D01*
X26386Y79648D01*
Y79620D01*
Y79606D01*
X26379Y79433D01*
X26365Y79273D01*
X26337Y79121D01*
X26302Y78975D01*
X26261Y78836D01*
X26212Y78712D01*
X26164Y78601D01*
X26108Y78496D01*
X26060Y78406D01*
X26011Y78323D01*
X25963Y78254D01*
X25921Y78191D01*
X25886Y78150D01*
X25859Y78115D01*
X25845Y78094D01*
X25838Y78087D01*
X25734Y77983D01*
X25623Y77900D01*
X25512Y77824D01*
X25401Y77755D01*
X25297Y77699D01*
X25186Y77651D01*
X25082Y77616D01*
X24985Y77581D01*
X24895Y77560D01*
X24805Y77540D01*
X24728Y77533D01*
X24666Y77519D01*
X24611D01*
X24576Y77512D01*
X24541D01*
X24409Y77519D01*
X24292Y77533D01*
X24174Y77560D01*
X24063Y77595D01*
X23959Y77637D01*
X23869Y77678D01*
X23779Y77727D01*
X23702Y77782D01*
X23626Y77831D01*
X23563Y77879D01*
X23508Y77921D01*
X23466Y77963D01*
X23432Y77997D01*
X23404Y78025D01*
X23390Y78039D01*
X23383Y78046D01*
X23397Y77845D01*
X23418Y77664D01*
X23439Y77505D01*
X23466Y77352D01*
X23494Y77221D01*
X23522Y77103D01*
X23550Y76999D01*
X23577Y76909D01*
X23605Y76832D01*
X23633Y76763D01*
X23661Y76708D01*
X23681Y76666D01*
X23695Y76638D01*
X23709Y76610D01*
X23723Y76603D01*
Y76597D01*
X23772Y76534D01*
X23827Y76486D01*
X23883Y76437D01*
X23931Y76396D01*
X24042Y76333D01*
X24139Y76291D01*
X24229Y76271D01*
X24299Y76257D01*
X24326Y76250D01*
X24361D01*
X24472Y76257D01*
X24562Y76278D01*
X24645Y76305D01*
X24715Y76340D01*
X24770Y76368D01*
X24812Y76396D01*
X24839Y76416D01*
X24846Y76423D01*
X24909Y76500D01*
X24957Y76583D01*
X24999Y76673D01*
X25027Y76756D01*
X25047Y76839D01*
X25061Y76902D01*
Y76929D01*
X25068Y76950D01*
Y76957D01*
Y76964D01*
X26254Y76832D01*
X26226Y76687D01*
X26192Y76548D01*
X26157Y76423D01*
X26108Y76305D01*
X26067Y76194D01*
X26011Y76097D01*
X25963Y76007D01*
X25914Y75931D01*
X25866Y75855D01*
X25824Y75799D01*
X25782Y75744D01*
X25748Y75702D01*
X25713Y75667D01*
X25692Y75647D01*
X25678Y75633D01*
X25672Y75626D01*
X25581Y75556D01*
X25484Y75494D01*
X25387Y75445D01*
X25283Y75397D01*
X25186Y75362D01*
X25082Y75328D01*
X24888Y75279D01*
X24805Y75265D01*
X24722Y75251D01*
X24645Y75244D01*
X24583Y75237D01*
X24527Y75230D01*
X24458D01*
X24271Y75237D01*
X24084Y75265D01*
X23917Y75300D01*
X23758Y75355D01*
X23605Y75411D01*
X23466Y75473D01*
X23335Y75550D01*
X23224Y75619D01*
X23120Y75688D01*
X23030Y75764D01*
X22946Y75827D01*
X22884Y75889D01*
X22835Y75938D01*
X22794Y75972D01*
X22773Y76000D01*
X22766Y76007D01*
X22648Y76167D01*
X22551Y76340D01*
X22461Y76527D01*
X22392Y76728D01*
X22329Y76936D01*
X22274Y77151D01*
X22232Y77359D01*
X22197Y77567D01*
X22170Y77762D01*
X22149Y77942D01*
X22135Y78108D01*
X22121Y78254D01*
Y78316D01*
Y78372D01*
X22114Y78420D01*
Y78462D01*
Y78496D01*
Y78517D01*
Y78531D01*
Y78538D01*
X22121Y78850D01*
X22142Y79141D01*
X22170Y79405D01*
X22211Y79648D01*
X22260Y79876D01*
X22308Y80077D01*
X22371Y80258D01*
X22426Y80424D01*
X22482Y80563D01*
X22537Y80681D01*
X22593Y80785D01*
X22641Y80868D01*
X22683Y80930D01*
X22711Y80979D01*
X22731Y81007D01*
X22738Y81014D01*
X22856Y81145D01*
X22988Y81263D01*
X23120Y81367D01*
X23252Y81451D01*
X23383Y81527D01*
X23522Y81582D01*
X23647Y81638D01*
X23772Y81672D01*
X23889Y81707D01*
X24000Y81728D01*
X24097Y81749D01*
X24181Y81756D01*
X24243Y81763D01*
X24299Y81770D01*
X24340D01*
X24507Y81763D01*
D02*
G37*
G36*
X82337Y53309D02*
X82497Y53295D01*
X82642Y53274D01*
X82781Y53240D01*
X82906Y53205D01*
X83024Y53170D01*
X83134Y53122D01*
X83224Y53080D01*
X83315Y53039D01*
X83384Y52997D01*
X83446Y52955D01*
X83502Y52921D01*
X83537Y52886D01*
X83571Y52865D01*
X83585Y52851D01*
X83592Y52844D01*
X83682Y52754D01*
X83758Y52657D01*
X83821Y52560D01*
X83883Y52463D01*
X83932Y52366D01*
X83967Y52269D01*
X84001Y52172D01*
X84029Y52082D01*
X84050Y51998D01*
X84064Y51915D01*
X84078Y51846D01*
X84084Y51783D01*
Y51735D01*
X84091Y51700D01*
Y51673D01*
Y51666D01*
X84084Y51513D01*
X84057Y51367D01*
X84022Y51236D01*
X83980Y51118D01*
X83946Y51021D01*
X83911Y50951D01*
X83897Y50924D01*
X83883Y50903D01*
X83876Y50896D01*
Y50889D01*
X83786Y50764D01*
X83675Y50660D01*
X83564Y50563D01*
X83453Y50487D01*
X83349Y50424D01*
X83266Y50376D01*
X83231Y50362D01*
X83211Y50348D01*
X83197Y50341D01*
X83190D01*
X83384Y50244D01*
X83544Y50140D01*
X83682Y50022D01*
X83800Y49918D01*
X83883Y49821D01*
X83946Y49738D01*
X83967Y49710D01*
X83980Y49689D01*
X83994Y49675D01*
Y49668D01*
X84078Y49502D01*
X84140Y49336D01*
X84188Y49176D01*
X84216Y49031D01*
X84237Y48906D01*
X84244Y48850D01*
Y48809D01*
X84251Y48767D01*
Y48739D01*
Y48726D01*
Y48719D01*
X84244Y48545D01*
X84223Y48386D01*
X84188Y48233D01*
X84147Y48088D01*
X84091Y47956D01*
X84036Y47838D01*
X83973Y47727D01*
X83911Y47623D01*
X83849Y47533D01*
X83786Y47456D01*
X83731Y47387D01*
X83675Y47332D01*
X83634Y47290D01*
X83599Y47262D01*
X83578Y47242D01*
X83571Y47235D01*
X83460Y47151D01*
X83342Y47082D01*
X83218Y47020D01*
X83100Y46971D01*
X82975Y46923D01*
X82857Y46888D01*
X82621Y46832D01*
X82517Y46819D01*
X82420Y46805D01*
X82337Y46791D01*
X82261Y46784D01*
X82198Y46777D01*
X82115D01*
X81942Y46784D01*
X81782Y46798D01*
X81630Y46825D01*
X81484Y46867D01*
X81352Y46909D01*
X81228Y46950D01*
X81117Y47006D01*
X81012Y47054D01*
X80922Y47103D01*
X80839Y47158D01*
X80770Y47200D01*
X80714Y47249D01*
X80666Y47283D01*
X80638Y47311D01*
X80617Y47325D01*
X80610Y47332D01*
X80513Y47443D01*
X80423Y47554D01*
X80347Y47671D01*
X80284Y47789D01*
X80229Y47907D01*
X80180Y48032D01*
X80146Y48143D01*
X80111Y48261D01*
X80090Y48365D01*
X80070Y48462D01*
X80056Y48545D01*
X80049Y48622D01*
Y48684D01*
X80042Y48726D01*
Y48760D01*
Y48767D01*
X80056Y48961D01*
X80083Y49142D01*
X80132Y49308D01*
X80180Y49447D01*
X80208Y49509D01*
X80229Y49558D01*
X80257Y49606D01*
X80278Y49648D01*
X80291Y49675D01*
X80305Y49696D01*
X80319Y49710D01*
Y49717D01*
X80430Y49863D01*
X80562Y49988D01*
X80701Y50092D01*
X80825Y50182D01*
X80943Y50251D01*
X80999Y50279D01*
X81040Y50300D01*
X81082Y50320D01*
X81110Y50334D01*
X81124Y50341D01*
X81130D01*
X80985Y50417D01*
X80853Y50501D01*
X80742Y50591D01*
X80652Y50681D01*
X80583Y50757D01*
X80527Y50820D01*
X80499Y50861D01*
X80485Y50868D01*
Y50875D01*
X80409Y51007D01*
X80347Y51146D01*
X80305Y51277D01*
X80278Y51402D01*
X80264Y51506D01*
X80257Y51555D01*
X80250Y51589D01*
Y51624D01*
Y51645D01*
Y51659D01*
Y51666D01*
X80257Y51797D01*
X80271Y51922D01*
X80298Y52040D01*
X80326Y52151D01*
X80368Y52255D01*
X80409Y52352D01*
X80458Y52442D01*
X80499Y52525D01*
X80548Y52595D01*
X80597Y52657D01*
X80638Y52713D01*
X80680Y52761D01*
X80707Y52796D01*
X80735Y52824D01*
X80749Y52838D01*
X80756Y52844D01*
X80853Y52928D01*
X80964Y52997D01*
X81075Y53066D01*
X81193Y53115D01*
X81311Y53163D01*
X81429Y53198D01*
X81650Y53260D01*
X81761Y53274D01*
X81859Y53288D01*
X81942Y53302D01*
X82018Y53309D01*
X82080Y53316D01*
X82170D01*
X82337Y53309D01*
D02*
G37*
G36*
X31257Y49132D02*
X30266Y48993D01*
X30190Y49077D01*
X30106Y49146D01*
X30023Y49208D01*
X29940Y49264D01*
X29864Y49306D01*
X29780Y49347D01*
X29635Y49402D01*
X29503Y49430D01*
X29455Y49444D01*
X29406Y49451D01*
X29364Y49458D01*
X29240D01*
X29163Y49444D01*
X29032Y49409D01*
X28914Y49361D01*
X28817Y49312D01*
X28733Y49257D01*
X28678Y49208D01*
X28643Y49174D01*
X28629Y49167D01*
Y49160D01*
X28539Y49035D01*
X28470Y48896D01*
X28421Y48751D01*
X28394Y48605D01*
X28373Y48473D01*
X28366Y48418D01*
Y48369D01*
X28359Y48328D01*
Y48300D01*
Y48279D01*
Y48272D01*
Y48161D01*
X28373Y48050D01*
X28387Y47953D01*
X28401Y47856D01*
X28421Y47773D01*
X28442Y47697D01*
X28470Y47627D01*
X28491Y47565D01*
X28518Y47509D01*
X28546Y47461D01*
X28567Y47419D01*
X28588Y47385D01*
X28602Y47364D01*
X28616Y47343D01*
X28629Y47336D01*
Y47329D01*
X28678Y47274D01*
X28733Y47225D01*
X28844Y47149D01*
X28948Y47094D01*
X29052Y47059D01*
X29142Y47031D01*
X29219Y47024D01*
X29246Y47017D01*
X29281D01*
X29406Y47031D01*
X29517Y47059D01*
X29621Y47094D01*
X29704Y47142D01*
X29780Y47184D01*
X29829Y47225D01*
X29864Y47253D01*
X29878Y47260D01*
X29961Y47357D01*
X30030Y47468D01*
X30086Y47572D01*
X30127Y47683D01*
X30155Y47773D01*
X30169Y47849D01*
X30176Y47877D01*
X30183Y47898D01*
Y47912D01*
Y47919D01*
X31403Y47787D01*
X31375Y47641D01*
X31348Y47503D01*
X31306Y47371D01*
X31257Y47246D01*
X31202Y47135D01*
X31147Y47031D01*
X31091Y46934D01*
X31035Y46844D01*
X30980Y46768D01*
X30925Y46698D01*
X30876Y46643D01*
X30835Y46594D01*
X30793Y46553D01*
X30765Y46525D01*
X30751Y46511D01*
X30744Y46504D01*
X30633Y46421D01*
X30522Y46351D01*
X30405Y46289D01*
X30280Y46234D01*
X30162Y46185D01*
X30037Y46150D01*
X29808Y46095D01*
X29704Y46074D01*
X29607Y46060D01*
X29517Y46046D01*
X29441Y46040D01*
X29378Y46033D01*
X29295D01*
X29094Y46040D01*
X28900Y46067D01*
X28719Y46109D01*
X28553Y46164D01*
X28401Y46227D01*
X28262Y46303D01*
X28130Y46379D01*
X28012Y46455D01*
X27908Y46532D01*
X27818Y46608D01*
X27742Y46684D01*
X27679Y46747D01*
X27624Y46802D01*
X27589Y46844D01*
X27568Y46872D01*
X27562Y46878D01*
X27478Y46996D01*
X27409Y47121D01*
X27347Y47239D01*
X27291Y47364D01*
X27250Y47482D01*
X27208Y47600D01*
X27180Y47711D01*
X27152Y47821D01*
X27139Y47919D01*
X27125Y48009D01*
X27111Y48092D01*
X27104Y48161D01*
X27097Y48217D01*
Y48258D01*
Y48286D01*
Y48293D01*
X27104Y48466D01*
X27125Y48633D01*
X27152Y48785D01*
X27187Y48938D01*
X27229Y49070D01*
X27277Y49201D01*
X27333Y49319D01*
X27381Y49423D01*
X27437Y49520D01*
X27492Y49604D01*
X27541Y49673D01*
X27582Y49728D01*
X27617Y49777D01*
X27645Y49812D01*
X27666Y49833D01*
X27673Y49839D01*
X27783Y49943D01*
X27894Y50034D01*
X28012Y50117D01*
X28130Y50186D01*
X28248Y50242D01*
X28359Y50290D01*
X28470Y50332D01*
X28581Y50360D01*
X28678Y50387D01*
X28768Y50401D01*
X28851Y50415D01*
X28921Y50429D01*
X28983D01*
X29025Y50436D01*
X29059D01*
X29219Y50429D01*
X29371Y50401D01*
X29510Y50373D01*
X29642Y50332D01*
X29746Y50297D01*
X29787Y50276D01*
X29829Y50262D01*
X29857Y50248D01*
X29878Y50235D01*
X29891Y50228D01*
X29898D01*
X29704Y51316D01*
X27381D01*
Y52467D01*
X30626D01*
X31257Y49132D01*
D02*
G37*
G36*
X16486Y52512D02*
X16673Y52485D01*
X16840Y52450D01*
X16999Y52395D01*
X17152Y52339D01*
X17291Y52270D01*
X17422Y52200D01*
X17533Y52131D01*
X17637Y52055D01*
X17727Y51986D01*
X17811Y51916D01*
X17873Y51861D01*
X17922Y51805D01*
X17963Y51771D01*
X17984Y51743D01*
X17991Y51736D01*
X18102Y51576D01*
X18206Y51403D01*
X18289Y51216D01*
X18365Y51015D01*
X18428Y50807D01*
X18476Y50592D01*
X18518Y50384D01*
X18553Y50176D01*
X18580Y49982D01*
X18601Y49794D01*
X18615Y49628D01*
X18629Y49482D01*
Y49420D01*
Y49364D01*
X18636Y49316D01*
Y49274D01*
Y49240D01*
Y49219D01*
Y49205D01*
Y49198D01*
X18629Y48886D01*
X18608Y48602D01*
X18580Y48331D01*
X18539Y48088D01*
X18490Y47867D01*
X18442Y47666D01*
X18386Y47485D01*
X18324Y47319D01*
X18268Y47180D01*
X18213Y47062D01*
X18164Y46958D01*
X18116Y46875D01*
X18074Y46813D01*
X18046Y46764D01*
X18025Y46736D01*
X18019Y46729D01*
X17901Y46598D01*
X17769Y46480D01*
X17637Y46383D01*
X17506Y46300D01*
X17374Y46223D01*
X17242Y46161D01*
X17110Y46112D01*
X16985Y46078D01*
X16868Y46043D01*
X16763Y46022D01*
X16666Y46001D01*
X16583Y45994D01*
X16514Y45988D01*
X16465Y45981D01*
X16424D01*
X16257Y45988D01*
X16098Y46008D01*
X15952Y46036D01*
X15813Y46071D01*
X15682Y46119D01*
X15557Y46168D01*
X15446Y46223D01*
X15349Y46279D01*
X15259Y46327D01*
X15176Y46383D01*
X15106Y46431D01*
X15051Y46480D01*
X15002Y46515D01*
X14974Y46542D01*
X14954Y46563D01*
X14947Y46570D01*
X14843Y46688D01*
X14753Y46806D01*
X14676Y46937D01*
X14607Y47062D01*
X14552Y47194D01*
X14503Y47326D01*
X14468Y47457D01*
X14434Y47575D01*
X14413Y47693D01*
X14392Y47804D01*
X14385Y47901D01*
X14371Y47984D01*
Y48047D01*
X14364Y48102D01*
Y48130D01*
Y48144D01*
X14371Y48310D01*
X14385Y48477D01*
X14413Y48622D01*
X14447Y48768D01*
X14489Y48900D01*
X14538Y49025D01*
X14586Y49142D01*
X14635Y49240D01*
X14690Y49337D01*
X14739Y49413D01*
X14787Y49482D01*
X14829Y49545D01*
X14864Y49586D01*
X14891Y49621D01*
X14905Y49642D01*
X14912Y49649D01*
X15016Y49753D01*
X15127Y49843D01*
X15238Y49919D01*
X15349Y49988D01*
X15460Y50044D01*
X15571Y50093D01*
X15675Y50134D01*
X15779Y50162D01*
X15869Y50190D01*
X15959Y50210D01*
X16035Y50217D01*
X16098Y50231D01*
X16153D01*
X16195Y50238D01*
X16230D01*
X16354Y50231D01*
X16472Y50217D01*
X16590Y50190D01*
X16694Y50155D01*
X16798Y50113D01*
X16888Y50065D01*
X16978Y50016D01*
X17055Y49968D01*
X17131Y49912D01*
X17193Y49864D01*
X17242Y49815D01*
X17291Y49774D01*
X17325Y49739D01*
X17353Y49711D01*
X17367Y49697D01*
X17374Y49690D01*
X17360Y49891D01*
X17339Y50072D01*
X17311Y50238D01*
X17291Y50384D01*
X17263Y50522D01*
X17235Y50640D01*
X17200Y50744D01*
X17173Y50834D01*
X17145Y50911D01*
X17124Y50980D01*
X17096Y51036D01*
X17076Y51077D01*
X17062Y51105D01*
X17048Y51133D01*
X17034Y51140D01*
Y51146D01*
X16978Y51209D01*
X16930Y51264D01*
X16875Y51313D01*
X16819Y51354D01*
X16708Y51417D01*
X16604Y51459D01*
X16514Y51479D01*
X16438Y51493D01*
X16410Y51500D01*
X16375D01*
X16271Y51493D01*
X16181Y51472D01*
X16098Y51445D01*
X16028Y51410D01*
X15973Y51375D01*
X15938Y51348D01*
X15911Y51327D01*
X15904Y51320D01*
X15841Y51251D01*
X15786Y51160D01*
X15744Y51077D01*
X15717Y50987D01*
X15696Y50911D01*
X15675Y50848D01*
X15668Y50800D01*
Y50793D01*
Y50786D01*
X14482Y50911D01*
X14510Y51056D01*
X14545Y51188D01*
X14586Y51313D01*
X14635Y51431D01*
X14683Y51535D01*
X14732Y51632D01*
X14787Y51722D01*
X14836Y51798D01*
X14884Y51875D01*
X14933Y51930D01*
X14974Y51986D01*
X15016Y52027D01*
X15044Y52062D01*
X15072Y52083D01*
X15085Y52097D01*
X15092Y52103D01*
X15182Y52180D01*
X15280Y52242D01*
X15384Y52298D01*
X15481Y52346D01*
X15585Y52388D01*
X15682Y52415D01*
X15876Y52471D01*
X15959Y52485D01*
X16042Y52499D01*
X16119Y52506D01*
X16174Y52512D01*
X16230Y52519D01*
X16299D01*
X16486Y52512D01*
D02*
G37*
G36*
X45099Y48397D02*
Y47329D01*
X42484D01*
Y46039D01*
X41299D01*
Y47329D01*
X40501D01*
Y48404D01*
X41299D01*
Y52460D01*
X42332D01*
X45099Y48397D01*
D02*
G37*
G36*
X42386Y65100D02*
X42435Y64996D01*
X42552Y64801D01*
X42677Y64628D01*
X42809Y64475D01*
X42871Y64406D01*
X42927Y64351D01*
X42975Y64295D01*
X43024Y64254D01*
X43059Y64219D01*
X43086Y64198D01*
X43107Y64184D01*
X43114Y64177D01*
X43322Y64025D01*
X43516Y63900D01*
X43690Y63796D01*
X43842Y63720D01*
X43911Y63685D01*
X43974Y63657D01*
X44022Y63636D01*
X44071Y63616D01*
X44106Y63602D01*
X44133Y63595D01*
X44147Y63588D01*
X44154D01*
Y62471D01*
X43988Y62534D01*
X43828Y62596D01*
X43669Y62666D01*
X43523Y62742D01*
X43384Y62818D01*
X43253Y62895D01*
X43135Y62971D01*
X43024Y63047D01*
X42920Y63116D01*
X42837Y63186D01*
X42754Y63248D01*
X42691Y63297D01*
X42642Y63338D01*
X42601Y63373D01*
X42580Y63394D01*
X42573Y63401D01*
Y58790D01*
X41346D01*
Y65210D01*
X42344D01*
X42386Y65100D01*
D02*
G37*
G36*
X94098Y52021D02*
X91310D01*
X91469Y51813D01*
X91615Y51605D01*
X91761Y51390D01*
X91892Y51175D01*
X92017Y50967D01*
X92128Y50759D01*
X92232Y50565D01*
X92329Y50378D01*
X92413Y50205D01*
X92489Y50045D01*
X92551Y49900D01*
X92600Y49782D01*
X92641Y49685D01*
X92676Y49608D01*
X92683Y49580D01*
X92690Y49560D01*
X92697Y49553D01*
Y49546D01*
X92787Y49289D01*
X92870Y49033D01*
X92940Y48783D01*
X92995Y48540D01*
X93050Y48305D01*
X93092Y48083D01*
X93127Y47875D01*
X93161Y47674D01*
X93182Y47493D01*
X93203Y47334D01*
X93217Y47188D01*
X93224Y47070D01*
X93231Y46973D01*
X93238Y46904D01*
Y46876D01*
Y46855D01*
Y46848D01*
Y46842D01*
X92052D01*
X92045Y47167D01*
X92010Y47500D01*
X91969Y47819D01*
X91948Y47972D01*
X91920Y48117D01*
X91892Y48256D01*
X91872Y48381D01*
X91844Y48485D01*
X91823Y48582D01*
X91809Y48658D01*
X91795Y48714D01*
X91782Y48748D01*
Y48762D01*
X91664Y49158D01*
X91601Y49352D01*
X91532Y49539D01*
X91463Y49712D01*
X91400Y49886D01*
X91331Y50038D01*
X91268Y50191D01*
X91206Y50322D01*
X91144Y50440D01*
X91095Y50544D01*
X91053Y50634D01*
X91012Y50704D01*
X90984Y50759D01*
X90970Y50787D01*
X90963Y50801D01*
X90859Y50974D01*
X90762Y51141D01*
X90665Y51293D01*
X90568Y51432D01*
X90478Y51564D01*
X90388Y51688D01*
X90305Y51799D01*
X90228Y51897D01*
X90159Y51980D01*
X90097Y52056D01*
X90041Y52125D01*
X89993Y52174D01*
X89951Y52215D01*
X89923Y52250D01*
X89909Y52264D01*
X89902Y52271D01*
Y53158D01*
X94098D01*
Y52021D01*
D02*
G37*
%LPC*%
G36*
X2678Y113297D02*
X2651D01*
X2584Y113291D01*
X2529Y113280D01*
X2473Y113258D01*
X2423Y113242D01*
X2390Y113219D01*
X2357Y113197D01*
X2341Y113186D01*
X2335Y113181D01*
X2285Y113131D01*
X2241Y113064D01*
X2202Y112992D01*
X2169Y112915D01*
X2141Y112843D01*
X2124Y112787D01*
X2119Y112765D01*
X2113Y112749D01*
X2108Y112738D01*
Y112732D01*
X2091Y112660D01*
X2075Y112583D01*
X2064Y112494D01*
X2052Y112394D01*
X2036Y112195D01*
X2025Y111990D01*
X2019Y111890D01*
Y111802D01*
X2014Y111713D01*
Y111641D01*
Y111580D01*
Y111536D01*
Y111508D01*
Y111497D01*
Y111337D01*
X2019Y111182D01*
X2025Y111043D01*
X2030Y110916D01*
X2036Y110800D01*
X2047Y110694D01*
X2058Y110600D01*
X2064Y110517D01*
X2075Y110445D01*
X2086Y110384D01*
X2097Y110334D01*
X2102Y110290D01*
X2108Y110257D01*
X2113Y110235D01*
X2119Y110224D01*
Y110218D01*
X2152Y110119D01*
X2185Y110030D01*
X2219Y109963D01*
X2257Y109908D01*
X2285Y109864D01*
X2313Y109836D01*
X2329Y109819D01*
X2335Y109814D01*
X2390Y109775D01*
X2440Y109747D01*
X2495Y109731D01*
X2545Y109720D01*
X2590Y109709D01*
X2623Y109703D01*
X2651D01*
X2717Y109709D01*
X2772Y109720D01*
X2828Y109736D01*
X2872Y109759D01*
X2911Y109781D01*
X2944Y109797D01*
X2961Y109808D01*
X2966Y109814D01*
X3016Y109864D01*
X3060Y109930D01*
X3099Y110002D01*
X3132Y110080D01*
X3160Y110146D01*
X3177Y110202D01*
X3182Y110224D01*
X3188Y110240D01*
X3193Y110251D01*
Y110257D01*
X3210Y110329D01*
X3221Y110406D01*
X3232Y110495D01*
X3243Y110595D01*
X3260Y110800D01*
X3271Y111004D01*
X3276Y111104D01*
Y111193D01*
Y111276D01*
X3282Y111353D01*
Y111414D01*
Y111459D01*
Y111486D01*
Y111497D01*
Y111658D01*
X3276Y111807D01*
X3271Y111951D01*
X3265Y112073D01*
X3260Y112189D01*
X3249Y112295D01*
X3243Y112389D01*
X3232Y112472D01*
X3221Y112544D01*
X3215Y112610D01*
X3204Y112660D01*
X3199Y112704D01*
X3193Y112738D01*
X3188Y112760D01*
X3182Y112771D01*
Y112776D01*
X3149Y112876D01*
X3116Y112965D01*
X3077Y113031D01*
X3044Y113086D01*
X3016Y113131D01*
X2988Y113158D01*
X2972Y113175D01*
X2966Y113181D01*
X2911Y113219D01*
X2861Y113247D01*
X2806Y113269D01*
X2756Y113280D01*
X2711Y113291D01*
X2678Y113297D01*
D02*
G37*
G36*
X24409Y80750D02*
X24326D01*
X24264Y80736D01*
X24146Y80702D01*
X24035Y80646D01*
X23945Y80591D01*
X23869Y80528D01*
X23813Y80473D01*
X23779Y80438D01*
X23765Y80431D01*
Y80424D01*
X23674Y80293D01*
X23605Y80140D01*
X23557Y79987D01*
X23522Y79842D01*
X23501Y79710D01*
X23494Y79648D01*
Y79599D01*
X23487Y79557D01*
Y79530D01*
Y79509D01*
Y79502D01*
X23494Y79315D01*
X23522Y79148D01*
X23563Y79010D01*
X23605Y78899D01*
X23654Y78809D01*
X23688Y78739D01*
X23716Y78705D01*
X23730Y78691D01*
X23827Y78601D01*
X23924Y78531D01*
X24028Y78483D01*
X24118Y78448D01*
X24202Y78427D01*
X24264Y78420D01*
X24312Y78413D01*
X24326D01*
X24458Y78427D01*
X24576Y78455D01*
X24680Y78503D01*
X24770Y78559D01*
X24839Y78608D01*
X24895Y78656D01*
X24923Y78684D01*
X24936Y78698D01*
X24978Y78753D01*
X25020Y78822D01*
X25075Y78961D01*
X25117Y79114D01*
X25151Y79259D01*
X25165Y79398D01*
X25172Y79454D01*
Y79502D01*
X25179Y79550D01*
Y79578D01*
Y79599D01*
Y79606D01*
Y79717D01*
X25172Y79814D01*
X25158Y79911D01*
X25145Y79994D01*
X25131Y80077D01*
X25110Y80147D01*
X25089Y80209D01*
X25068Y80272D01*
X25047Y80320D01*
X25027Y80362D01*
X24992Y80431D01*
X24964Y80466D01*
X24957Y80480D01*
X24867Y80570D01*
X24777Y80639D01*
X24680Y80688D01*
X24590Y80716D01*
X24513Y80736D01*
X24451Y80743D01*
X24409Y80750D01*
D02*
G37*
G36*
X82219Y52345D02*
X82164D01*
X82039Y52338D01*
X81928Y52311D01*
X81838Y52276D01*
X81755Y52241D01*
X81692Y52200D01*
X81644Y52165D01*
X81616Y52137D01*
X81609Y52130D01*
X81539Y52047D01*
X81491Y51957D01*
X81449Y51867D01*
X81429Y51776D01*
X81415Y51700D01*
X81401Y51638D01*
Y51596D01*
Y51589D01*
Y51582D01*
X81408Y51451D01*
X81435Y51340D01*
X81470Y51236D01*
X81505Y51159D01*
X81546Y51090D01*
X81581Y51048D01*
X81609Y51014D01*
X81616Y51007D01*
X81699Y50938D01*
X81789Y50889D01*
X81886Y50847D01*
X81976Y50827D01*
X82053Y50813D01*
X82122Y50806D01*
X82164Y50799D01*
X82177D01*
X82302Y50806D01*
X82413Y50834D01*
X82503Y50861D01*
X82587Y50903D01*
X82649Y50938D01*
X82691Y50972D01*
X82725Y50993D01*
X82732Y51000D01*
X82802Y51083D01*
X82850Y51180D01*
X82885Y51270D01*
X82906Y51367D01*
X82919Y51451D01*
X82933Y51513D01*
Y51541D01*
Y51562D01*
Y51568D01*
Y51575D01*
X82926Y51700D01*
X82899Y51811D01*
X82864Y51901D01*
X82829Y51985D01*
X82788Y52047D01*
X82760Y52095D01*
X82732Y52123D01*
X82725Y52130D01*
X82642Y52200D01*
X82552Y52255D01*
X82455Y52290D01*
X82365Y52317D01*
X82288Y52331D01*
X82219Y52345D01*
D02*
G37*
G36*
X82198Y49828D02*
X82157D01*
X82018Y49814D01*
X81893Y49786D01*
X81782Y49738D01*
X81685Y49689D01*
X81616Y49641D01*
X81560Y49592D01*
X81526Y49564D01*
X81512Y49551D01*
X81429Y49440D01*
X81366Y49322D01*
X81318Y49197D01*
X81290Y49086D01*
X81269Y48982D01*
X81262Y48899D01*
X81255Y48864D01*
Y48843D01*
Y48829D01*
Y48823D01*
X81269Y48642D01*
X81297Y48483D01*
X81332Y48344D01*
X81380Y48233D01*
X81429Y48150D01*
X81463Y48081D01*
X81491Y48046D01*
X81505Y48032D01*
X81602Y47942D01*
X81706Y47873D01*
X81817Y47831D01*
X81914Y47796D01*
X82004Y47776D01*
X82073Y47769D01*
X82101Y47762D01*
X82136D01*
X82275Y47776D01*
X82399Y47803D01*
X82510Y47852D01*
X82607Y47907D01*
X82684Y47956D01*
X82739Y48004D01*
X82774Y48032D01*
X82788Y48046D01*
X82871Y48164D01*
X82933Y48289D01*
X82982Y48420D01*
X83010Y48545D01*
X83030Y48663D01*
X83037Y48712D01*
Y48753D01*
X83044Y48788D01*
Y48816D01*
Y48829D01*
Y48836D01*
X83037Y48968D01*
X83010Y49100D01*
X82975Y49211D01*
X82933Y49315D01*
X82899Y49398D01*
X82864Y49461D01*
X82836Y49502D01*
X82829Y49516D01*
X82788Y49571D01*
X82739Y49620D01*
X82628Y49696D01*
X82517Y49752D01*
X82406Y49786D01*
X82309Y49814D01*
X82233Y49821D01*
X82198Y49828D01*
D02*
G37*
G36*
X16438Y49337D02*
X16424D01*
X16292Y49323D01*
X16174Y49288D01*
X16070Y49247D01*
X15980Y49191D01*
X15911Y49136D01*
X15855Y49094D01*
X15827Y49059D01*
X15813Y49045D01*
X15772Y48990D01*
X15730Y48921D01*
X15668Y48782D01*
X15626Y48629D01*
X15592Y48477D01*
X15578Y48345D01*
X15571Y48283D01*
Y48234D01*
X15564Y48193D01*
Y48158D01*
Y48137D01*
Y48130D01*
Y48019D01*
X15571Y47922D01*
X15585Y47825D01*
X15599Y47742D01*
X15619Y47659D01*
X15633Y47589D01*
X15654Y47527D01*
X15675Y47471D01*
X15703Y47423D01*
X15723Y47381D01*
X15758Y47312D01*
X15786Y47277D01*
X15793Y47263D01*
X15883Y47173D01*
X15980Y47111D01*
X16070Y47062D01*
X16160Y47035D01*
X16243Y47014D01*
X16306Y47007D01*
X16348Y47000D01*
X16361D01*
X16424Y47007D01*
X16493Y47014D01*
X16611Y47048D01*
X16715Y47104D01*
X16812Y47159D01*
X16888Y47215D01*
X16944Y47270D01*
X16978Y47305D01*
X16992Y47319D01*
X17083Y47451D01*
X17152Y47603D01*
X17193Y47756D01*
X17228Y47901D01*
X17249Y48033D01*
X17256Y48095D01*
Y48144D01*
X17263Y48186D01*
Y48213D01*
Y48234D01*
Y48241D01*
X17249Y48428D01*
X17221Y48595D01*
X17186Y48740D01*
X17138Y48851D01*
X17096Y48941D01*
X17055Y49011D01*
X17027Y49045D01*
X17020Y49059D01*
X16923Y49149D01*
X16826Y49219D01*
X16722Y49267D01*
X16632Y49302D01*
X16549Y49323D01*
X16479Y49330D01*
X16438Y49337D01*
D02*
G37*
G36*
X42484Y50581D02*
Y48404D01*
X43948D01*
X42484Y50581D01*
D02*
G37*
%LPD*%
D10*
X38600Y156050D02*
G03*
X38600Y157050I0J500D01*
G01*
D02*
G03*
X38600Y156050I0J-500D01*
G01*
X98325Y41500D02*
G03*
X99325Y41500I500J0D01*
G01*
D02*
G03*
X98325Y41500I-500J0D01*
G01*
X62250Y183250D02*
G03*
X61250Y183250I-500J0D01*
G01*
D02*
G03*
X62250Y183250I500J0D01*
G01*
X61250D02*
G03*
X62250Y183250I500J0D01*
G01*
X105750D02*
G03*
X106750Y183250I500J0D01*
G01*
X105750D02*
G03*
X106750Y183250I500J0D01*
G01*
D02*
G03*
X105750Y183250I-500J0D01*
G01*
X23750Y93000D02*
G03*
X23750Y93000I-500J0D01*
G01*
X106325Y35500D02*
X109825D01*
X2825Y1500D02*
Y35500D01*
X6325D01*
X109825Y1500D02*
Y35500D01*
X32650Y177000D02*
X57000D01*
X32650Y176500D02*
Y177000D01*
X101500Y196500D02*
Y199500D01*
X77150Y196500D02*
Y199500D01*
X57000Y176500D02*
Y177000D01*
X32650Y196500D02*
Y199500D01*
X57000Y196500D02*
Y199500D01*
D39*
X12060Y58060D02*
G03*
X12060Y58060I-1000J0D01*
G01*
X93690Y67310D02*
G03*
X93690Y67310I-1000J0D01*
G01*
X12060Y76060D02*
G03*
X12060Y76060I-1000J0D01*
G01*
X39560Y140560D02*
G03*
X39560Y140560I-1000J0D01*
G01*
X68999Y97250D02*
X80150D01*
M02*
