G04*
G04 #@! TF.GenerationSoftware,Altium Limited,Altium Designer,25.0.2 (28)*
G04*
G04 Layer_Color=8421504*
%FSLAX44Y44*%
%MOMM*%
G71*
G04*
G04 #@! TF.SameCoordinates,54A35FAF-5F68-4BCB-90B9-8CF1E0348433*
G04*
G04*
G04 #@! TF.FilePolarity,Positive*
G04*
G01*
G75*
G04:AMPARAMS|DCode=11|XSize=0.28mm|YSize=0.23mm|CornerRadius=0.115mm|HoleSize=0mm|Usage=FLASHONLY|Rotation=90.000|XOffset=0mm|YOffset=0mm|HoleType=Round|Shape=RoundedRectangle|*
%AMROUNDEDRECTD11*
21,1,0.2800,0.0000,0,0,90.0*
21,1,0.0500,0.2300,0,0,90.0*
1,1,0.2300,0.0000,0.0250*
1,1,0.2300,0.0000,-0.0250*
1,1,0.2300,0.0000,-0.0250*
1,1,0.2300,0.0000,0.0250*
%
%ADD11ROUNDEDRECTD11*%
G04:AMPARAMS|DCode=12|XSize=0.805mm|YSize=0.23mm|CornerRadius=0.115mm|HoleSize=0mm|Usage=FLASHONLY|Rotation=90.000|XOffset=0mm|YOffset=0mm|HoleType=Round|Shape=RoundedRectangle|*
%AMROUNDEDRECTD12*
21,1,0.8050,0.0000,0,0,90.0*
21,1,0.5750,0.2300,0,0,90.0*
1,1,0.2300,0.0000,0.2875*
1,1,0.2300,0.0000,-0.2875*
1,1,0.2300,0.0000,-0.2875*
1,1,0.2300,0.0000,0.2875*
%
%ADD12ROUNDEDRECTD12*%
G04:AMPARAMS|DCode=13|XSize=1.155mm|YSize=0.23mm|CornerRadius=0.115mm|HoleSize=0mm|Usage=FLASHONLY|Rotation=90.000|XOffset=0mm|YOffset=0mm|HoleType=Round|Shape=RoundedRectangle|*
%AMROUNDEDRECTD13*
21,1,1.1550,0.0000,0,0,90.0*
21,1,0.9250,0.2300,0,0,90.0*
1,1,0.2300,0.0000,0.4625*
1,1,0.2300,0.0000,-0.4625*
1,1,0.2300,0.0000,-0.4625*
1,1,0.2300,0.0000,0.4625*
%
%ADD13ROUNDEDRECTD13*%
G04:AMPARAMS|DCode=14|XSize=1.33mm|YSize=0.23mm|CornerRadius=0.115mm|HoleSize=0mm|Usage=FLASHONLY|Rotation=90.000|XOffset=0mm|YOffset=0mm|HoleType=Round|Shape=RoundedRectangle|*
%AMROUNDEDRECTD14*
21,1,1.3300,0.0000,0,0,90.0*
21,1,1.1000,0.2300,0,0,90.0*
1,1,0.2300,0.0000,0.5500*
1,1,0.2300,0.0000,-0.5500*
1,1,0.2300,0.0000,-0.5500*
1,1,0.2300,0.0000,0.5500*
%
%ADD14ROUNDEDRECTD14*%
%ADD15R,0.3500X0.3500*%
%ADD16R,1.0000X0.9000*%
%ADD17R,0.2500X0.2500*%
%ADD18R,0.3000X0.3000*%
%ADD19R,0.6000X0.6000*%
%ADD20R,1.2000X0.4000*%
G04:AMPARAMS|DCode=21|XSize=0.35mm|YSize=0.35mm|CornerRadius=0.0875mm|HoleSize=0mm|Usage=FLASHONLY|Rotation=90.000|XOffset=0mm|YOffset=0mm|HoleType=Round|Shape=RoundedRectangle|*
%AMROUNDEDRECTD21*
21,1,0.3500,0.1750,0,0,90.0*
21,1,0.1750,0.3500,0,0,90.0*
1,1,0.1750,0.0875,0.0875*
1,1,0.1750,0.0875,-0.0875*
1,1,0.1750,-0.0875,-0.0875*
1,1,0.1750,-0.0875,0.0875*
%
%ADD21ROUNDEDRECTD21*%
%ADD22C,0.3500*%
%ADD23R,0.3500X0.3500*%
%ADD24C,0.2200*%
G04:AMPARAMS|DCode=25|XSize=0.2064mm|YSize=0.5627mm|CornerRadius=0.0516mm|HoleSize=0mm|Usage=FLASHONLY|Rotation=270.000|XOffset=0mm|YOffset=0mm|HoleType=Round|Shape=RoundedRectangle|*
%AMROUNDEDRECTD25*
21,1,0.2064,0.4596,0,0,270.0*
21,1,0.1032,0.5627,0,0,270.0*
1,1,0.1032,-0.2298,-0.0516*
1,1,0.1032,-0.2298,0.0516*
1,1,0.1032,0.2298,0.0516*
1,1,0.1032,0.2298,-0.0516*
%
%ADD25ROUNDEDRECTD25*%
%ADD26R,0.5627X0.2064*%
%ADD27C,0.2500*%
%ADD28R,1.5500X0.3750*%
%ADD29R,0.3850X0.9500*%
%ADD30R,0.5600X0.7400*%
%ADD31R,0.9000X1.0000*%
%ADD32R,1.1200X0.3200*%
%ADD33R,1.1200X0.3230*%
%ADD34R,0.3850X0.8500*%
%ADD35R,1.0500X0.3200*%
%ADD36R,0.3250X1.1500*%
%ADD37R,0.3200X1.1200*%
%ADD38R,0.3230X1.1200*%
D11*
X38600Y171550D02*
D03*
D12*
Y163680D02*
D03*
D13*
X43600Y166300D02*
D03*
X53600D02*
D03*
D14*
X48600D02*
D03*
X58600D02*
D03*
D15*
X14750Y101750D02*
D03*
X20250D02*
D03*
X33250Y169000D02*
D03*
X27750Y174000D02*
D03*
X33250D02*
D03*
X31250Y147000D02*
D03*
X36750D02*
D03*
X14150Y86750D02*
D03*
X19850D02*
D03*
D16*
X117000Y115750D02*
D03*
Y102250D02*
D03*
X103800Y115750D02*
D03*
Y102250D02*
D03*
X90600Y115750D02*
D03*
Y102250D02*
D03*
X77400Y115750D02*
D03*
Y102250D02*
D03*
X64200Y115750D02*
D03*
Y102250D02*
D03*
X51000Y115750D02*
D03*
Y102250D02*
D03*
X13000Y116000D02*
D03*
Y129500D02*
D03*
D17*
X20500Y138000D02*
D03*
X25500D02*
D03*
D18*
X23000Y143000D02*
D03*
Y133000D02*
D03*
D19*
X24750Y125250D02*
D03*
Y109250D02*
D03*
X18000Y79750D02*
D03*
X7000D02*
D03*
D20*
X24750Y117250D02*
D03*
D21*
X27750Y169000D02*
D03*
D22*
X38250Y166250D02*
D03*
D23*
X30750Y131250D02*
D03*
Y136950D02*
D03*
D24*
X24500Y159500D02*
D03*
Y163500D02*
D03*
X28500Y159500D02*
D03*
Y163500D02*
D03*
X32500Y159500D02*
D03*
Y163500D02*
D03*
D25*
X17500Y164032D02*
D03*
D26*
Y160468D02*
D03*
D27*
X20250Y96250D02*
D03*
Y91250D02*
D03*
X15250Y96250D02*
D03*
X10250D02*
D03*
Y91250D02*
D03*
D28*
X44750Y192870D02*
D03*
X89250Y192870D02*
D03*
D29*
X56850Y185350D02*
D03*
X32650D02*
D03*
X101350Y185350D02*
D03*
D30*
X49100Y184300D02*
D03*
X40400D02*
D03*
X93600Y184300D02*
D03*
X84900D02*
D03*
D31*
X64750Y138000D02*
D03*
X51250D02*
D03*
X64750Y128000D02*
D03*
X51250D02*
D03*
X117750Y138000D02*
D03*
X104250D02*
D03*
X117750Y128000D02*
D03*
X104250D02*
D03*
X86250Y148000D02*
D03*
X99750D02*
D03*
X117750D02*
D03*
X104250D02*
D03*
X51250D02*
D03*
X64750D02*
D03*
X82750Y138000D02*
D03*
X69250D02*
D03*
X82750Y148000D02*
D03*
X69250D02*
D03*
X82750Y128000D02*
D03*
X69250D02*
D03*
X86250Y138000D02*
D03*
X99750D02*
D03*
X86250Y128000D02*
D03*
X99750D02*
D03*
D32*
X68000Y163400D02*
D03*
X79000D02*
D03*
X112000Y161600D02*
D03*
Y163400D02*
D03*
X101000Y156400D02*
D03*
X90000D02*
D03*
Y163400D02*
D03*
X101000D02*
D03*
X90000Y175600D02*
D03*
X79000Y170400D02*
D03*
X101000Y175600D02*
D03*
X68000D02*
D03*
X68000Y161600D02*
D03*
X79000D02*
D03*
D33*
X68000Y168600D02*
D03*
X79000D02*
D03*
X112000Y156400D02*
D03*
Y168600D02*
D03*
X101000Y161600D02*
D03*
X90000D02*
D03*
Y168600D02*
D03*
X101000D02*
D03*
X90000Y170400D02*
D03*
X112000D02*
D03*
X79000Y175600D02*
D03*
X101000Y170400D02*
D03*
X68000D02*
D03*
X68000Y156400D02*
D03*
X79000D02*
D03*
D34*
X77150Y184700D02*
D03*
D35*
X111400Y175600D02*
D03*
D36*
X23125Y151000D02*
D03*
X17875D02*
D03*
D37*
X24150D02*
D03*
D38*
X29350D02*
D03*
M02*
